<?xml version="1.0" encoding="utf-8" standalone="no"?>
<!DOCTYPE svg PUBLIC "-//W3C//DTD SVG 1.1//EN"
  "http://www.w3.org/Graphics/SVG/1.1/DTD/svg11.dtd">
<svg xmlns:xlink="http://www.w3.org/1999/xlink" width="1008pt" height="288pt" viewBox="0 0 1008 288" xmlns="http://www.w3.org/2000/svg" version="1.1">
 <metadata>
  <rdf:RDF xmlns:dc="http://purl.org/dc/elements/1.1/" xmlns:cc="http://creativecommons.org/ns#" xmlns:rdf="http://www.w3.org/1999/02/22-rdf-syntax-ns#">
   <cc:Work>
    <dc:type rdf:resource="http://purl.org/dc/dcmitype/StillImage"/>
    <dc:date>2024-02-19T19:03:48.043123</dc:date>
    <dc:format>image/svg+xml</dc:format>
    <dc:creator>
     <cc:Agent>
      <dc:title>Matplotlib v3.8.2, https://matplotlib.org/</dc:title>
     </cc:Agent>
    </dc:creator>
   </cc:Work>
  </rdf:RDF>
 </metadata>
 <defs>
  <style type="text/css">*{stroke-linejoin: round; stroke-linecap: butt}</style>
 </defs>
 <g id="figure_1">
  <g id="patch_1">
   <path d="M 0 288 
L 1008 288 
L 1008 0 
L 0 0 
z
" style="fill: #ffffff"/>
  </g>
  <g id="axes_1">
   <g id="patch_2">
    <path d="M 126 256.32 
L 481.090909 256.32 
L 481.090909 34.56 
L 126 34.56 
z
" style="fill: #ffffff"/>
   </g>
   <g id="PolyCollection_1">
    <path d="M 150.013908 123.707919 
L 150.013908 167.172081 
L 173.634146 168.763329 
L 189.380972 168.878905 
L 205.127797 168.8873 
L 220.874622 168.887816 
L 236.621447 168.887826 
L 252.368273 168.887834 
L 268.115098 168.88786 
L 283.861923 168.887899 
L 299.608748 168.887951 
L 315.355573 168.888016 
L 331.102399 168.888094 
L 346.849224 168.888187 
L 362.596049 168.888296 
L 378.342874 168.888423 
L 394.0897 168.888569 
L 409.836525 168.888735 
L 425.58335 168.888922 
L 441.330175 168.889132 
L 464.950413 168.889365 
L 464.950413 121.990635 
L 464.950413 121.990635 
L 441.330175 121.990868 
L 425.58335 121.991078 
L 409.836525 121.991265 
L 394.0897 121.991431 
L 378.342874 121.991577 
L 362.596049 121.991704 
L 346.849224 121.991813 
L 331.102399 121.991906 
L 315.355573 121.991984 
L 299.608748 121.992049 
L 283.861923 121.992101 
L 268.115098 121.99214 
L 252.368273 121.992166 
L 236.621447 121.992174 
L 220.874622 121.992184 
L 205.127797 121.9927 
L 189.380972 122.001095 
L 173.634146 122.116671 
L 150.013908 123.707919 
z
" clip-path="url(#p7c291b5bae)" style="fill: #1f77b4; fill-opacity: 0.25"/>
   </g>
   <g id="matplotlib.axis_1">
    <g id="xtick_1">
     <g id="line2d_1">
      <defs>
       <path id="m5580ca2742" d="M 0 0 
L 0 3.5 
" style="stroke: #000000; stroke-width: 0.8"/>
      </defs>
      <g>
       <use xlink:href="#m5580ca2742" x="142.140496" y="256.32" style="stroke: #000000; stroke-width: 0.8"/>
      </g>
     </g>
     <g id="text_1">
      <!-- 0 -->
      <g transform="translate(138.959246 270.918437) scale(0.1 -0.1)">
       <defs>
        <path id="DejaVuSans-30" d="M 2034 4250 
Q 1547 4250 1301 3770 
Q 1056 3291 1056 2328 
Q 1056 1369 1301 889 
Q 1547 409 2034 409 
Q 2525 409 2770 889 
Q 3016 1369 3016 2328 
Q 3016 3291 2770 3770 
Q 2525 4250 2034 4250 
z
M 2034 4750 
Q 2819 4750 3233 4129 
Q 3647 3509 3647 2328 
Q 3647 1150 3233 529 
Q 2819 -91 2034 -91 
Q 1250 -91 836 529 
Q 422 1150 422 2328 
Q 422 3509 836 4129 
Q 1250 4750 2034 4750 
z
" transform="scale(0.015625)"/>
       </defs>
       <use xlink:href="#DejaVuSans-30"/>
      </g>
     </g>
    </g>
    <g id="xtick_2">
     <g id="line2d_2">
      <g>
       <use xlink:href="#m5580ca2742" x="220.874622" y="256.32" style="stroke: #000000; stroke-width: 0.8"/>
      </g>
     </g>
     <g id="text_2">
      <!-- 5 -->
      <g transform="translate(217.693372 270.918437) scale(0.1 -0.1)">
       <defs>
        <path id="DejaVuSans-35" d="M 691 4666 
L 3169 4666 
L 3169 4134 
L 1269 4134 
L 1269 2991 
Q 1406 3038 1543 3061 
Q 1681 3084 1819 3084 
Q 2600 3084 3056 2656 
Q 3513 2228 3513 1497 
Q 3513 744 3044 326 
Q 2575 -91 1722 -91 
Q 1428 -91 1123 -41 
Q 819 9 494 109 
L 494 744 
Q 775 591 1075 516 
Q 1375 441 1709 441 
Q 2250 441 2565 725 
Q 2881 1009 2881 1497 
Q 2881 1984 2565 2268 
Q 2250 2553 1709 2553 
Q 1456 2553 1204 2497 
Q 953 2441 691 2322 
L 691 4666 
z
" transform="scale(0.015625)"/>
       </defs>
       <use xlink:href="#DejaVuSans-35"/>
      </g>
     </g>
    </g>
    <g id="xtick_3">
     <g id="line2d_3">
      <g>
       <use xlink:href="#m5580ca2742" x="299.608748" y="256.32" style="stroke: #000000; stroke-width: 0.8"/>
      </g>
     </g>
     <g id="text_3">
      <!-- 10 -->
      <g transform="translate(293.246248 270.918437) scale(0.1 -0.1)">
       <defs>
        <path id="DejaVuSans-31" d="M 794 531 
L 1825 531 
L 1825 4091 
L 703 3866 
L 703 4441 
L 1819 4666 
L 2450 4666 
L 2450 531 
L 3481 531 
L 3481 0 
L 794 0 
L 794 531 
z
" transform="scale(0.015625)"/>
       </defs>
       <use xlink:href="#DejaVuSans-31"/>
       <use xlink:href="#DejaVuSans-30" x="63.623047"/>
      </g>
     </g>
    </g>
    <g id="xtick_4">
     <g id="line2d_4">
      <g>
       <use xlink:href="#m5580ca2742" x="378.342874" y="256.32" style="stroke: #000000; stroke-width: 0.8"/>
      </g>
     </g>
     <g id="text_4">
      <!-- 15 -->
      <g transform="translate(371.980374 270.918437) scale(0.1 -0.1)">
       <use xlink:href="#DejaVuSans-31"/>
       <use xlink:href="#DejaVuSans-35" x="63.623047"/>
      </g>
     </g>
    </g>
    <g id="xtick_5">
     <g id="line2d_5">
      <g>
       <use xlink:href="#m5580ca2742" x="457.077001" y="256.32" style="stroke: #000000; stroke-width: 0.8"/>
      </g>
     </g>
     <g id="text_5">
      <!-- 20 -->
      <g transform="translate(450.714501 270.918437) scale(0.1 -0.1)">
       <defs>
        <path id="DejaVuSans-32" d="M 1228 531 
L 3431 531 
L 3431 0 
L 469 0 
L 469 531 
Q 828 903 1448 1529 
Q 2069 2156 2228 2338 
Q 2531 2678 2651 2914 
Q 2772 3150 2772 3378 
Q 2772 3750 2511 3984 
Q 2250 4219 1831 4219 
Q 1534 4219 1204 4116 
Q 875 4013 500 3803 
L 500 4441 
Q 881 4594 1212 4672 
Q 1544 4750 1819 4750 
Q 2544 4750 2975 4387 
Q 3406 4025 3406 3419 
Q 3406 3131 3298 2873 
Q 3191 2616 2906 2266 
Q 2828 2175 2409 1742 
Q 1991 1309 1228 531 
z
" transform="scale(0.015625)"/>
       </defs>
       <use xlink:href="#DejaVuSans-32"/>
       <use xlink:href="#DejaVuSans-30" x="63.623047"/>
      </g>
     </g>
    </g>
   </g>
   <g id="matplotlib.axis_2">
    <g id="ytick_1">
     <g id="line2d_6">
      <defs>
       <path id="m848a802690" d="M 0 0 
L -3.5 0 
" style="stroke: #000000; stroke-width: 0.8"/>
      </defs>
      <g>
       <use xlink:href="#m848a802690" x="126" y="256.32" style="stroke: #000000; stroke-width: 0.8"/>
      </g>
     </g>
     <g id="text_6">
      <!-- −1.00 -->
      <g transform="translate(88.354687 260.119219) scale(0.1 -0.1)">
       <defs>
        <path id="DejaVuSans-2212" d="M 678 2272 
L 4684 2272 
L 4684 1741 
L 678 1741 
L 678 2272 
z
" transform="scale(0.015625)"/>
        <path id="DejaVuSans-2e" d="M 684 794 
L 1344 794 
L 1344 0 
L 684 0 
L 684 794 
z
" transform="scale(0.015625)"/>
       </defs>
       <use xlink:href="#DejaVuSans-2212"/>
       <use xlink:href="#DejaVuSans-31" x="83.789062"/>
       <use xlink:href="#DejaVuSans-2e" x="147.412109"/>
       <use xlink:href="#DejaVuSans-30" x="179.199219"/>
       <use xlink:href="#DejaVuSans-30" x="242.822266"/>
      </g>
     </g>
    </g>
    <g id="ytick_2">
     <g id="line2d_7">
      <g>
       <use xlink:href="#m848a802690" x="126" y="228.6" style="stroke: #000000; stroke-width: 0.8"/>
      </g>
     </g>
     <g id="text_7">
      <!-- −0.75 -->
      <g transform="translate(88.354687 232.399219) scale(0.1 -0.1)">
       <defs>
        <path id="DejaVuSans-37" d="M 525 4666 
L 3525 4666 
L 3525 4397 
L 1831 0 
L 1172 0 
L 2766 4134 
L 525 4134 
L 525 4666 
z
" transform="scale(0.015625)"/>
       </defs>
       <use xlink:href="#DejaVuSans-2212"/>
       <use xlink:href="#DejaVuSans-30" x="83.789062"/>
       <use xlink:href="#DejaVuSans-2e" x="147.412109"/>
       <use xlink:href="#DejaVuSans-37" x="179.199219"/>
       <use xlink:href="#DejaVuSans-35" x="242.822266"/>
      </g>
     </g>
    </g>
    <g id="ytick_3">
     <g id="line2d_8">
      <g>
       <use xlink:href="#m848a802690" x="126" y="200.88" style="stroke: #000000; stroke-width: 0.8"/>
      </g>
     </g>
     <g id="text_8">
      <!-- −0.50 -->
      <g transform="translate(88.354687 204.679219) scale(0.1 -0.1)">
       <use xlink:href="#DejaVuSans-2212"/>
       <use xlink:href="#DejaVuSans-30" x="83.789062"/>
       <use xlink:href="#DejaVuSans-2e" x="147.412109"/>
       <use xlink:href="#DejaVuSans-35" x="179.199219"/>
       <use xlink:href="#DejaVuSans-30" x="242.822266"/>
      </g>
     </g>
    </g>
    <g id="ytick_4">
     <g id="line2d_9">
      <g>
       <use xlink:href="#m848a802690" x="126" y="173.16" style="stroke: #000000; stroke-width: 0.8"/>
      </g>
     </g>
     <g id="text_9">
      <!-- −0.25 -->
      <g transform="translate(88.354687 176.959219) scale(0.1 -0.1)">
       <use xlink:href="#DejaVuSans-2212"/>
       <use xlink:href="#DejaVuSans-30" x="83.789062"/>
       <use xlink:href="#DejaVuSans-2e" x="147.412109"/>
       <use xlink:href="#DejaVuSans-32" x="179.199219"/>
       <use xlink:href="#DejaVuSans-35" x="242.822266"/>
      </g>
     </g>
    </g>
    <g id="ytick_5">
     <g id="line2d_10">
      <g>
       <use xlink:href="#m848a802690" x="126" y="145.44" style="stroke: #000000; stroke-width: 0.8"/>
      </g>
     </g>
     <g id="text_10">
      <!-- 0.00 -->
      <g transform="translate(96.734375 149.239219) scale(0.1 -0.1)">
       <use xlink:href="#DejaVuSans-30"/>
       <use xlink:href="#DejaVuSans-2e" x="63.623047"/>
       <use xlink:href="#DejaVuSans-30" x="95.410156"/>
       <use xlink:href="#DejaVuSans-30" x="159.033203"/>
      </g>
     </g>
    </g>
    <g id="ytick_6">
     <g id="line2d_11">
      <g>
       <use xlink:href="#m848a802690" x="126" y="117.72" style="stroke: #000000; stroke-width: 0.8"/>
      </g>
     </g>
     <g id="text_11">
      <!-- 0.25 -->
      <g transform="translate(96.734375 121.519219) scale(0.1 -0.1)">
       <use xlink:href="#DejaVuSans-30"/>
       <use xlink:href="#DejaVuSans-2e" x="63.623047"/>
       <use xlink:href="#DejaVuSans-32" x="95.410156"/>
       <use xlink:href="#DejaVuSans-35" x="159.033203"/>
      </g>
     </g>
    </g>
    <g id="ytick_7">
     <g id="line2d_12">
      <g>
       <use xlink:href="#m848a802690" x="126" y="90" style="stroke: #000000; stroke-width: 0.8"/>
      </g>
     </g>
     <g id="text_12">
      <!-- 0.50 -->
      <g transform="translate(96.734375 93.799219) scale(0.1 -0.1)">
       <use xlink:href="#DejaVuSans-30"/>
       <use xlink:href="#DejaVuSans-2e" x="63.623047"/>
       <use xlink:href="#DejaVuSans-35" x="95.410156"/>
       <use xlink:href="#DejaVuSans-30" x="159.033203"/>
      </g>
     </g>
    </g>
    <g id="ytick_8">
     <g id="line2d_13">
      <g>
       <use xlink:href="#m848a802690" x="126" y="62.28" style="stroke: #000000; stroke-width: 0.8"/>
      </g>
     </g>
     <g id="text_13">
      <!-- 0.75 -->
      <g transform="translate(96.734375 66.079219) scale(0.1 -0.1)">
       <use xlink:href="#DejaVuSans-30"/>
       <use xlink:href="#DejaVuSans-2e" x="63.623047"/>
       <use xlink:href="#DejaVuSans-37" x="95.410156"/>
       <use xlink:href="#DejaVuSans-35" x="159.033203"/>
      </g>
     </g>
    </g>
    <g id="ytick_9">
     <g id="line2d_14">
      <g>
       <use xlink:href="#m848a802690" x="126" y="34.56" style="stroke: #000000; stroke-width: 0.8"/>
      </g>
     </g>
     <g id="text_14">
      <!-- 1.00 -->
      <g transform="translate(96.734375 38.359219) scale(0.1 -0.1)">
       <use xlink:href="#DejaVuSans-31"/>
       <use xlink:href="#DejaVuSans-2e" x="63.623047"/>
       <use xlink:href="#DejaVuSans-30" x="95.410156"/>
       <use xlink:href="#DejaVuSans-30" x="159.033203"/>
      </g>
     </g>
    </g>
   </g>
   <g id="LineCollection_1">
    <path d="M 142.140496 145.44 
L 142.140496 34.56 
" clip-path="url(#p7c291b5bae)" style="fill: none; stroke: #1f77b4; stroke-width: 1.5"/>
    <path d="M 157.887321 145.44 
L 157.887321 114.892236 
" clip-path="url(#p7c291b5bae)" style="fill: none; stroke: #1f77b4; stroke-width: 1.5"/>
    <path d="M 173.634146 145.44 
L 173.634146 137.052802 
" clip-path="url(#p7c291b5bae)" style="fill: none; stroke: #1f77b4; stroke-width: 1.5"/>
    <path d="M 189.380972 145.44 
L 189.380972 143.176474 
" clip-path="url(#p7c291b5bae)" style="fill: none; stroke: #1f77b4; stroke-width: 1.5"/>
    <path d="M 205.127797 145.44 
L 205.127797 144.87906 
" clip-path="url(#p7c291b5bae)" style="fill: none; stroke: #1f77b4; stroke-width: 1.5"/>
    <path d="M 220.874622 145.44 
L 220.874622 145.362831 
" clip-path="url(#p7c291b5bae)" style="fill: none; stroke: #1f77b4; stroke-width: 1.5"/>
    <path d="M 236.621447 145.44 
L 236.621447 145.510596 
" clip-path="url(#p7c291b5bae)" style="fill: none; stroke: #1f77b4; stroke-width: 1.5"/>
    <path d="M 252.368273 145.44 
L 252.368273 145.565731 
" clip-path="url(#p7c291b5bae)" style="fill: none; stroke: #1f77b4; stroke-width: 1.5"/>
    <path d="M 268.115098 145.44 
L 268.115098 145.595329 
" clip-path="url(#p7c291b5bae)" style="fill: none; stroke: #1f77b4; stroke-width: 1.5"/>
    <path d="M 283.861923 145.44 
L 283.861923 145.617887 
" clip-path="url(#p7c291b5bae)" style="fill: none; stroke: #1f77b4; stroke-width: 1.5"/>
    <path d="M 299.608748 145.44 
L 299.608748 145.638504 
" clip-path="url(#p7c291b5bae)" style="fill: none; stroke: #1f77b4; stroke-width: 1.5"/>
    <path d="M 315.355573 145.44 
L 315.355573 145.658586 
" clip-path="url(#p7c291b5bae)" style="fill: none; stroke: #1f77b4; stroke-width: 1.5"/>
    <path d="M 331.102399 145.44 
L 331.102399 145.678521 
" clip-path="url(#p7c291b5bae)" style="fill: none; stroke: #1f77b4; stroke-width: 1.5"/>
    <path d="M 346.849224 145.44 
L 346.849224 145.698415 
" clip-path="url(#p7c291b5bae)" style="fill: none; stroke: #1f77b4; stroke-width: 1.5"/>
    <path d="M 362.596049 145.44 
L 362.596049 145.718297 
" clip-path="url(#p7c291b5bae)" style="fill: none; stroke: #1f77b4; stroke-width: 1.5"/>
    <path d="M 378.342874 145.44 
L 378.342874 145.738177 
" clip-path="url(#p7c291b5bae)" style="fill: none; stroke: #1f77b4; stroke-width: 1.5"/>
    <path d="M 394.0897 145.44 
L 394.0897 145.758056 
" clip-path="url(#p7c291b5bae)" style="fill: none; stroke: #1f77b4; stroke-width: 1.5"/>
    <path d="M 409.836525 145.44 
L 409.836525 145.777934 
" clip-path="url(#p7c291b5bae)" style="fill: none; stroke: #1f77b4; stroke-width: 1.5"/>
    <path d="M 425.58335 145.44 
L 425.58335 145.797813 
" clip-path="url(#p7c291b5bae)" style="fill: none; stroke: #1f77b4; stroke-width: 1.5"/>
    <path d="M 441.330175 145.44 
L 441.330175 145.817691 
" clip-path="url(#p7c291b5bae)" style="fill: none; stroke: #1f77b4; stroke-width: 1.5"/>
    <path d="M 457.077001 145.44 
L 457.077001 145.83757 
" clip-path="url(#p7c291b5bae)" style="fill: none; stroke: #1f77b4; stroke-width: 1.5"/>
   </g>
   <g id="line2d_15">
    <path d="M 126 145.44 
L 481.090909 145.44 
" clip-path="url(#p7c291b5bae)" style="fill: none; stroke: #1f77b4; stroke-width: 1.5; stroke-linecap: square"/>
   </g>
   <g id="line2d_16">
    <defs>
     <path id="md91cd28ef6" d="M 0 2.5 
C 0.663008 2.5 1.29895 2.236584 1.767767 1.767767 
C 2.236584 1.29895 2.5 0.663008 2.5 0 
C 2.5 -0.663008 2.236584 -1.29895 1.767767 -1.767767 
C 1.29895 -2.236584 0.663008 -2.5 0 -2.5 
C -0.663008 -2.5 -1.29895 -2.236584 -1.767767 -1.767767 
C -2.236584 -1.29895 -2.5 -0.663008 -2.5 0 
C -2.5 0.663008 -2.236584 1.29895 -1.767767 1.767767 
C -1.29895 2.236584 -0.663008 2.5 0 2.5 
z
" style="stroke: #1f77b4"/>
    </defs>
    <g clip-path="url(#p7c291b5bae)">
     <use xlink:href="#md91cd28ef6" x="142.140496" y="34.56" style="fill: #1f77b4; stroke: #1f77b4"/>
     <use xlink:href="#md91cd28ef6" x="157.887321" y="114.892236" style="fill: #1f77b4; stroke: #1f77b4"/>
     <use xlink:href="#md91cd28ef6" x="173.634146" y="137.052802" style="fill: #1f77b4; stroke: #1f77b4"/>
     <use xlink:href="#md91cd28ef6" x="189.380972" y="143.176474" style="fill: #1f77b4; stroke: #1f77b4"/>
     <use xlink:href="#md91cd28ef6" x="205.127797" y="144.87906" style="fill: #1f77b4; stroke: #1f77b4"/>
     <use xlink:href="#md91cd28ef6" x="220.874622" y="145.362831" style="fill: #1f77b4; stroke: #1f77b4"/>
     <use xlink:href="#md91cd28ef6" x="236.621447" y="145.510596" style="fill: #1f77b4; stroke: #1f77b4"/>
     <use xlink:href="#md91cd28ef6" x="252.368273" y="145.565731" style="fill: #1f77b4; stroke: #1f77b4"/>
     <use xlink:href="#md91cd28ef6" x="268.115098" y="145.595329" style="fill: #1f77b4; stroke: #1f77b4"/>
     <use xlink:href="#md91cd28ef6" x="283.861923" y="145.617887" style="fill: #1f77b4; stroke: #1f77b4"/>
     <use xlink:href="#md91cd28ef6" x="299.608748" y="145.638504" style="fill: #1f77b4; stroke: #1f77b4"/>
     <use xlink:href="#md91cd28ef6" x="315.355573" y="145.658586" style="fill: #1f77b4; stroke: #1f77b4"/>
     <use xlink:href="#md91cd28ef6" x="331.102399" y="145.678521" style="fill: #1f77b4; stroke: #1f77b4"/>
     <use xlink:href="#md91cd28ef6" x="346.849224" y="145.698415" style="fill: #1f77b4; stroke: #1f77b4"/>
     <use xlink:href="#md91cd28ef6" x="362.596049" y="145.718297" style="fill: #1f77b4; stroke: #1f77b4"/>
     <use xlink:href="#md91cd28ef6" x="378.342874" y="145.738177" style="fill: #1f77b4; stroke: #1f77b4"/>
     <use xlink:href="#md91cd28ef6" x="394.0897" y="145.758056" style="fill: #1f77b4; stroke: #1f77b4"/>
     <use xlink:href="#md91cd28ef6" x="409.836525" y="145.777934" style="fill: #1f77b4; stroke: #1f77b4"/>
     <use xlink:href="#md91cd28ef6" x="425.58335" y="145.797813" style="fill: #1f77b4; stroke: #1f77b4"/>
     <use xlink:href="#md91cd28ef6" x="441.330175" y="145.817691" style="fill: #1f77b4; stroke: #1f77b4"/>
     <use xlink:href="#md91cd28ef6" x="457.077001" y="145.83757" style="fill: #1f77b4; stroke: #1f77b4"/>
    </g>
   </g>
   <g id="patch_3">
    <path d="M 126 256.32 
L 126 34.56 
" style="fill: none; stroke: #000000; stroke-width: 0.8; stroke-linejoin: miter; stroke-linecap: square"/>
   </g>
   <g id="patch_4">
    <path d="M 481.090909 256.32 
L 481.090909 34.56 
" style="fill: none; stroke: #000000; stroke-width: 0.8; stroke-linejoin: miter; stroke-linecap: square"/>
   </g>
   <g id="patch_5">
    <path d="M 126 256.32 
L 481.090909 256.32 
" style="fill: none; stroke: #000000; stroke-width: 0.8; stroke-linejoin: miter; stroke-linecap: square"/>
   </g>
   <g id="patch_6">
    <path d="M 126 34.56 
L 481.090909 34.56 
" style="fill: none; stroke: #000000; stroke-width: 0.8; stroke-linejoin: miter; stroke-linecap: square"/>
   </g>
   <g id="text_15">
    <!-- ACF Plot for AR(3) Process -->
    <g transform="translate(225.189205 28.56) scale(0.12 -0.12)">
     <defs>
      <path id="DejaVuSans-41" d="M 2188 4044 
L 1331 1722 
L 3047 1722 
L 2188 4044 
z
M 1831 4666 
L 2547 4666 
L 4325 0 
L 3669 0 
L 3244 1197 
L 1141 1197 
L 716 0 
L 50 0 
L 1831 4666 
z
" transform="scale(0.015625)"/>
      <path id="DejaVuSans-43" d="M 4122 4306 
L 4122 3641 
Q 3803 3938 3442 4084 
Q 3081 4231 2675 4231 
Q 1875 4231 1450 3742 
Q 1025 3253 1025 2328 
Q 1025 1406 1450 917 
Q 1875 428 2675 428 
Q 3081 428 3442 575 
Q 3803 722 4122 1019 
L 4122 359 
Q 3791 134 3420 21 
Q 3050 -91 2638 -91 
Q 1578 -91 968 557 
Q 359 1206 359 2328 
Q 359 3453 968 4101 
Q 1578 4750 2638 4750 
Q 3056 4750 3426 4639 
Q 3797 4528 4122 4306 
z
" transform="scale(0.015625)"/>
      <path id="DejaVuSans-46" d="M 628 4666 
L 3309 4666 
L 3309 4134 
L 1259 4134 
L 1259 2759 
L 3109 2759 
L 3109 2228 
L 1259 2228 
L 1259 0 
L 628 0 
L 628 4666 
z
" transform="scale(0.015625)"/>
      <path id="DejaVuSans-20" transform="scale(0.015625)"/>
      <path id="DejaVuSans-50" d="M 1259 4147 
L 1259 2394 
L 2053 2394 
Q 2494 2394 2734 2622 
Q 2975 2850 2975 3272 
Q 2975 3691 2734 3919 
Q 2494 4147 2053 4147 
L 1259 4147 
z
M 628 4666 
L 2053 4666 
Q 2838 4666 3239 4311 
Q 3641 3956 3641 3272 
Q 3641 2581 3239 2228 
Q 2838 1875 2053 1875 
L 1259 1875 
L 1259 0 
L 628 0 
L 628 4666 
z
" transform="scale(0.015625)"/>
      <path id="DejaVuSans-6c" d="M 603 4863 
L 1178 4863 
L 1178 0 
L 603 0 
L 603 4863 
z
" transform="scale(0.015625)"/>
      <path id="DejaVuSans-6f" d="M 1959 3097 
Q 1497 3097 1228 2736 
Q 959 2375 959 1747 
Q 959 1119 1226 758 
Q 1494 397 1959 397 
Q 2419 397 2687 759 
Q 2956 1122 2956 1747 
Q 2956 2369 2687 2733 
Q 2419 3097 1959 3097 
z
M 1959 3584 
Q 2709 3584 3137 3096 
Q 3566 2609 3566 1747 
Q 3566 888 3137 398 
Q 2709 -91 1959 -91 
Q 1206 -91 779 398 
Q 353 888 353 1747 
Q 353 2609 779 3096 
Q 1206 3584 1959 3584 
z
" transform="scale(0.015625)"/>
      <path id="DejaVuSans-74" d="M 1172 4494 
L 1172 3500 
L 2356 3500 
L 2356 3053 
L 1172 3053 
L 1172 1153 
Q 1172 725 1289 603 
Q 1406 481 1766 481 
L 2356 481 
L 2356 0 
L 1766 0 
Q 1100 0 847 248 
Q 594 497 594 1153 
L 594 3053 
L 172 3053 
L 172 3500 
L 594 3500 
L 594 4494 
L 1172 4494 
z
" transform="scale(0.015625)"/>
      <path id="DejaVuSans-66" d="M 2375 4863 
L 2375 4384 
L 1825 4384 
Q 1516 4384 1395 4259 
Q 1275 4134 1275 3809 
L 1275 3500 
L 2222 3500 
L 2222 3053 
L 1275 3053 
L 1275 0 
L 697 0 
L 697 3053 
L 147 3053 
L 147 3500 
L 697 3500 
L 697 3744 
Q 697 4328 969 4595 
Q 1241 4863 1831 4863 
L 2375 4863 
z
" transform="scale(0.015625)"/>
      <path id="DejaVuSans-72" d="M 2631 2963 
Q 2534 3019 2420 3045 
Q 2306 3072 2169 3072 
Q 1681 3072 1420 2755 
Q 1159 2438 1159 1844 
L 1159 0 
L 581 0 
L 581 3500 
L 1159 3500 
L 1159 2956 
Q 1341 3275 1631 3429 
Q 1922 3584 2338 3584 
Q 2397 3584 2469 3576 
Q 2541 3569 2628 3553 
L 2631 2963 
z
" transform="scale(0.015625)"/>
      <path id="DejaVuSans-52" d="M 2841 2188 
Q 3044 2119 3236 1894 
Q 3428 1669 3622 1275 
L 4263 0 
L 3584 0 
L 2988 1197 
Q 2756 1666 2539 1819 
Q 2322 1972 1947 1972 
L 1259 1972 
L 1259 0 
L 628 0 
L 628 4666 
L 2053 4666 
Q 2853 4666 3247 4331 
Q 3641 3997 3641 3322 
Q 3641 2881 3436 2590 
Q 3231 2300 2841 2188 
z
M 1259 4147 
L 1259 2491 
L 2053 2491 
Q 2509 2491 2742 2702 
Q 2975 2913 2975 3322 
Q 2975 3731 2742 3939 
Q 2509 4147 2053 4147 
L 1259 4147 
z
" transform="scale(0.015625)"/>
      <path id="DejaVuSans-28" d="M 1984 4856 
Q 1566 4138 1362 3434 
Q 1159 2731 1159 2009 
Q 1159 1288 1364 580 
Q 1569 -128 1984 -844 
L 1484 -844 
Q 1016 -109 783 600 
Q 550 1309 550 2009 
Q 550 2706 781 3412 
Q 1013 4119 1484 4856 
L 1984 4856 
z
" transform="scale(0.015625)"/>
      <path id="DejaVuSans-33" d="M 2597 2516 
Q 3050 2419 3304 2112 
Q 3559 1806 3559 1356 
Q 3559 666 3084 287 
Q 2609 -91 1734 -91 
Q 1441 -91 1130 -33 
Q 819 25 488 141 
L 488 750 
Q 750 597 1062 519 
Q 1375 441 1716 441 
Q 2309 441 2620 675 
Q 2931 909 2931 1356 
Q 2931 1769 2642 2001 
Q 2353 2234 1838 2234 
L 1294 2234 
L 1294 2753 
L 1863 2753 
Q 2328 2753 2575 2939 
Q 2822 3125 2822 3475 
Q 2822 3834 2567 4026 
Q 2313 4219 1838 4219 
Q 1578 4219 1281 4162 
Q 984 4106 628 3988 
L 628 4550 
Q 988 4650 1302 4700 
Q 1616 4750 1894 4750 
Q 2613 4750 3031 4423 
Q 3450 4097 3450 3541 
Q 3450 3153 3228 2886 
Q 3006 2619 2597 2516 
z
" transform="scale(0.015625)"/>
      <path id="DejaVuSans-29" d="M 513 4856 
L 1013 4856 
Q 1481 4119 1714 3412 
Q 1947 2706 1947 2009 
Q 1947 1309 1714 600 
Q 1481 -109 1013 -844 
L 513 -844 
Q 928 -128 1133 580 
Q 1338 1288 1338 2009 
Q 1338 2731 1133 3434 
Q 928 4138 513 4856 
z
" transform="scale(0.015625)"/>
      <path id="DejaVuSans-63" d="M 3122 3366 
L 3122 2828 
Q 2878 2963 2633 3030 
Q 2388 3097 2138 3097 
Q 1578 3097 1268 2742 
Q 959 2388 959 1747 
Q 959 1106 1268 751 
Q 1578 397 2138 397 
Q 2388 397 2633 464 
Q 2878 531 3122 666 
L 3122 134 
Q 2881 22 2623 -34 
Q 2366 -91 2075 -91 
Q 1284 -91 818 406 
Q 353 903 353 1747 
Q 353 2603 823 3093 
Q 1294 3584 2113 3584 
Q 2378 3584 2631 3529 
Q 2884 3475 3122 3366 
z
" transform="scale(0.015625)"/>
      <path id="DejaVuSans-65" d="M 3597 1894 
L 3597 1613 
L 953 1613 
Q 991 1019 1311 708 
Q 1631 397 2203 397 
Q 2534 397 2845 478 
Q 3156 559 3463 722 
L 3463 178 
Q 3153 47 2828 -22 
Q 2503 -91 2169 -91 
Q 1331 -91 842 396 
Q 353 884 353 1716 
Q 353 2575 817 3079 
Q 1281 3584 2069 3584 
Q 2775 3584 3186 3129 
Q 3597 2675 3597 1894 
z
M 3022 2063 
Q 3016 2534 2758 2815 
Q 2500 3097 2075 3097 
Q 1594 3097 1305 2825 
Q 1016 2553 972 2059 
L 3022 2063 
z
" transform="scale(0.015625)"/>
      <path id="DejaVuSans-73" d="M 2834 3397 
L 2834 2853 
Q 2591 2978 2328 3040 
Q 2066 3103 1784 3103 
Q 1356 3103 1142 2972 
Q 928 2841 928 2578 
Q 928 2378 1081 2264 
Q 1234 2150 1697 2047 
L 1894 2003 
Q 2506 1872 2764 1633 
Q 3022 1394 3022 966 
Q 3022 478 2636 193 
Q 2250 -91 1575 -91 
Q 1294 -91 989 -36 
Q 684 19 347 128 
L 347 722 
Q 666 556 975 473 
Q 1284 391 1588 391 
Q 1994 391 2212 530 
Q 2431 669 2431 922 
Q 2431 1156 2273 1281 
Q 2116 1406 1581 1522 
L 1381 1569 
Q 847 1681 609 1914 
Q 372 2147 372 2553 
Q 372 3047 722 3315 
Q 1072 3584 1716 3584 
Q 2034 3584 2315 3537 
Q 2597 3491 2834 3397 
z
" transform="scale(0.015625)"/>
     </defs>
     <use xlink:href="#DejaVuSans-41"/>
     <use xlink:href="#DejaVuSans-43" x="66.658203"/>
     <use xlink:href="#DejaVuSans-46" x="136.482422"/>
     <use xlink:href="#DejaVuSans-20" x="194.001953"/>
     <use xlink:href="#DejaVuSans-50" x="225.789062"/>
     <use xlink:href="#DejaVuSans-6c" x="286.091797"/>
     <use xlink:href="#DejaVuSans-6f" x="313.875"/>
     <use xlink:href="#DejaVuSans-74" x="375.056641"/>
     <use xlink:href="#DejaVuSans-20" x="414.265625"/>
     <use xlink:href="#DejaVuSans-66" x="446.052734"/>
     <use xlink:href="#DejaVuSans-6f" x="481.257812"/>
     <use xlink:href="#DejaVuSans-72" x="542.439453"/>
     <use xlink:href="#DejaVuSans-20" x="583.552734"/>
     <use xlink:href="#DejaVuSans-41" x="615.339844"/>
     <use xlink:href="#DejaVuSans-52" x="683.748047"/>
     <use xlink:href="#DejaVuSans-28" x="753.230469"/>
     <use xlink:href="#DejaVuSans-33" x="792.244141"/>
     <use xlink:href="#DejaVuSans-29" x="855.867188"/>
     <use xlink:href="#DejaVuSans-20" x="894.880859"/>
     <use xlink:href="#DejaVuSans-50" x="926.667969"/>
     <use xlink:href="#DejaVuSans-72" x="985.220703"/>
     <use xlink:href="#DejaVuSans-6f" x="1024.083984"/>
     <use xlink:href="#DejaVuSans-63" x="1085.265625"/>
     <use xlink:href="#DejaVuSans-65" x="1140.246094"/>
     <use xlink:href="#DejaVuSans-73" x="1201.769531"/>
     <use xlink:href="#DejaVuSans-73" x="1253.869141"/>
    </g>
   </g>
  </g>
  <g id="axes_2">
   <g id="patch_7">
    <path d="M 552.109091 256.32 
L 907.2 256.32 
L 907.2 34.56 
L 552.109091 34.56 
z
" style="fill: #ffffff"/>
   </g>
   <g id="PolyCollection_2">
    <path d="M 576.122999 123.707919 
L 576.122999 167.172081 
L 599.743237 167.172081 
L 615.490062 167.172081 
L 631.236888 167.172081 
L 646.983713 167.172081 
L 662.730538 167.172081 
L 678.477363 167.172081 
L 694.224189 167.172081 
L 709.971014 167.172081 
L 725.717839 167.172081 
L 741.464664 167.172081 
L 757.21149 167.172081 
L 772.958315 167.172081 
L 788.70514 167.172081 
L 804.451965 167.172081 
L 820.198791 167.172081 
L 835.945616 167.172081 
L 851.692441 167.172081 
L 867.439266 167.172081 
L 891.059504 167.172081 
L 891.059504 123.707919 
L 891.059504 123.707919 
L 867.439266 123.707919 
L 851.692441 123.707919 
L 835.945616 123.707919 
L 820.198791 123.707919 
L 804.451965 123.707919 
L 788.70514 123.707919 
L 772.958315 123.707919 
L 757.21149 123.707919 
L 741.464664 123.707919 
L 725.717839 123.707919 
L 709.971014 123.707919 
L 694.224189 123.707919 
L 678.477363 123.707919 
L 662.730538 123.707919 
L 646.983713 123.707919 
L 631.236888 123.707919 
L 615.490062 123.707919 
L 599.743237 123.707919 
L 576.122999 123.707919 
z
" clip-path="url(#p4042bfff03)" style="fill: #1f77b4; fill-opacity: 0.25"/>
   </g>
   <g id="matplotlib.axis_3">
    <g id="xtick_6">
     <g id="line2d_17">
      <g>
       <use xlink:href="#m5580ca2742" x="568.249587" y="256.32" style="stroke: #000000; stroke-width: 0.8"/>
      </g>
     </g>
     <g id="text_16">
      <!-- 0 -->
      <g transform="translate(565.068337 270.918437) scale(0.1 -0.1)">
       <use xlink:href="#DejaVuSans-30"/>
      </g>
     </g>
    </g>
    <g id="xtick_7">
     <g id="line2d_18">
      <g>
       <use xlink:href="#m5580ca2742" x="646.983713" y="256.32" style="stroke: #000000; stroke-width: 0.8"/>
      </g>
     </g>
     <g id="text_17">
      <!-- 5 -->
      <g transform="translate(643.802463 270.918437) scale(0.1 -0.1)">
       <use xlink:href="#DejaVuSans-35"/>
      </g>
     </g>
    </g>
    <g id="xtick_8">
     <g id="line2d_19">
      <g>
       <use xlink:href="#m5580ca2742" x="725.717839" y="256.32" style="stroke: #000000; stroke-width: 0.8"/>
      </g>
     </g>
     <g id="text_18">
      <!-- 10 -->
      <g transform="translate(719.355339 270.918437) scale(0.1 -0.1)">
       <use xlink:href="#DejaVuSans-31"/>
       <use xlink:href="#DejaVuSans-30" x="63.623047"/>
      </g>
     </g>
    </g>
    <g id="xtick_9">
     <g id="line2d_20">
      <g>
       <use xlink:href="#m5580ca2742" x="804.451965" y="256.32" style="stroke: #000000; stroke-width: 0.8"/>
      </g>
     </g>
     <g id="text_19">
      <!-- 15 -->
      <g transform="translate(798.089465 270.918437) scale(0.1 -0.1)">
       <use xlink:href="#DejaVuSans-31"/>
       <use xlink:href="#DejaVuSans-35" x="63.623047"/>
      </g>
     </g>
    </g>
    <g id="xtick_10">
     <g id="line2d_21">
      <g>
       <use xlink:href="#m5580ca2742" x="883.186092" y="256.32" style="stroke: #000000; stroke-width: 0.8"/>
      </g>
     </g>
     <g id="text_20">
      <!-- 20 -->
      <g transform="translate(876.823592 270.918437) scale(0.1 -0.1)">
       <use xlink:href="#DejaVuSans-32"/>
       <use xlink:href="#DejaVuSans-30" x="63.623047"/>
      </g>
     </g>
    </g>
   </g>
   <g id="matplotlib.axis_4">
    <g id="ytick_10">
     <g id="line2d_22">
      <g>
       <use xlink:href="#m848a802690" x="552.109091" y="256.32" style="stroke: #000000; stroke-width: 0.8"/>
      </g>
     </g>
     <g id="text_21">
      <!-- −1.00 -->
      <g transform="translate(514.463778 260.119219) scale(0.1 -0.1)">
       <use xlink:href="#DejaVuSans-2212"/>
       <use xlink:href="#DejaVuSans-31" x="83.789062"/>
       <use xlink:href="#DejaVuSans-2e" x="147.412109"/>
       <use xlink:href="#DejaVuSans-30" x="179.199219"/>
       <use xlink:href="#DejaVuSans-30" x="242.822266"/>
      </g>
     </g>
    </g>
    <g id="ytick_11">
     <g id="line2d_23">
      <g>
       <use xlink:href="#m848a802690" x="552.109091" y="228.6" style="stroke: #000000; stroke-width: 0.8"/>
      </g>
     </g>
     <g id="text_22">
      <!-- −0.75 -->
      <g transform="translate(514.463778 232.399219) scale(0.1 -0.1)">
       <use xlink:href="#DejaVuSans-2212"/>
       <use xlink:href="#DejaVuSans-30" x="83.789062"/>
       <use xlink:href="#DejaVuSans-2e" x="147.412109"/>
       <use xlink:href="#DejaVuSans-37" x="179.199219"/>
       <use xlink:href="#DejaVuSans-35" x="242.822266"/>
      </g>
     </g>
    </g>
    <g id="ytick_12">
     <g id="line2d_24">
      <g>
       <use xlink:href="#m848a802690" x="552.109091" y="200.88" style="stroke: #000000; stroke-width: 0.8"/>
      </g>
     </g>
     <g id="text_23">
      <!-- −0.50 -->
      <g transform="translate(514.463778 204.679219) scale(0.1 -0.1)">
       <use xlink:href="#DejaVuSans-2212"/>
       <use xlink:href="#DejaVuSans-30" x="83.789062"/>
       <use xlink:href="#DejaVuSans-2e" x="147.412109"/>
       <use xlink:href="#DejaVuSans-35" x="179.199219"/>
       <use xlink:href="#DejaVuSans-30" x="242.822266"/>
      </g>
     </g>
    </g>
    <g id="ytick_13">
     <g id="line2d_25">
      <g>
       <use xlink:href="#m848a802690" x="552.109091" y="173.16" style="stroke: #000000; stroke-width: 0.8"/>
      </g>
     </g>
     <g id="text_24">
      <!-- −0.25 -->
      <g transform="translate(514.463778 176.959219) scale(0.1 -0.1)">
       <use xlink:href="#DejaVuSans-2212"/>
       <use xlink:href="#DejaVuSans-30" x="83.789062"/>
       <use xlink:href="#DejaVuSans-2e" x="147.412109"/>
       <use xlink:href="#DejaVuSans-32" x="179.199219"/>
       <use xlink:href="#DejaVuSans-35" x="242.822266"/>
      </g>
     </g>
    </g>
    <g id="ytick_14">
     <g id="line2d_26">
      <g>
       <use xlink:href="#m848a802690" x="552.109091" y="145.44" style="stroke: #000000; stroke-width: 0.8"/>
      </g>
     </g>
     <g id="text_25">
      <!-- 0.00 -->
      <g transform="translate(522.843466 149.239219) scale(0.1 -0.1)">
       <use xlink:href="#DejaVuSans-30"/>
       <use xlink:href="#DejaVuSans-2e" x="63.623047"/>
       <use xlink:href="#DejaVuSans-30" x="95.410156"/>
       <use xlink:href="#DejaVuSans-30" x="159.033203"/>
      </g>
     </g>
    </g>
    <g id="ytick_15">
     <g id="line2d_27">
      <g>
       <use xlink:href="#m848a802690" x="552.109091" y="117.72" style="stroke: #000000; stroke-width: 0.8"/>
      </g>
     </g>
     <g id="text_26">
      <!-- 0.25 -->
      <g transform="translate(522.843466 121.519219) scale(0.1 -0.1)">
       <use xlink:href="#DejaVuSans-30"/>
       <use xlink:href="#DejaVuSans-2e" x="63.623047"/>
       <use xlink:href="#DejaVuSans-32" x="95.410156"/>
       <use xlink:href="#DejaVuSans-35" x="159.033203"/>
      </g>
     </g>
    </g>
    <g id="ytick_16">
     <g id="line2d_28">
      <g>
       <use xlink:href="#m848a802690" x="552.109091" y="90" style="stroke: #000000; stroke-width: 0.8"/>
      </g>
     </g>
     <g id="text_27">
      <!-- 0.50 -->
      <g transform="translate(522.843466 93.799219) scale(0.1 -0.1)">
       <use xlink:href="#DejaVuSans-30"/>
       <use xlink:href="#DejaVuSans-2e" x="63.623047"/>
       <use xlink:href="#DejaVuSans-35" x="95.410156"/>
       <use xlink:href="#DejaVuSans-30" x="159.033203"/>
      </g>
     </g>
    </g>
    <g id="ytick_17">
     <g id="line2d_29">
      <g>
       <use xlink:href="#m848a802690" x="552.109091" y="62.28" style="stroke: #000000; stroke-width: 0.8"/>
      </g>
     </g>
     <g id="text_28">
      <!-- 0.75 -->
      <g transform="translate(522.843466 66.079219) scale(0.1 -0.1)">
       <use xlink:href="#DejaVuSans-30"/>
       <use xlink:href="#DejaVuSans-2e" x="63.623047"/>
       <use xlink:href="#DejaVuSans-37" x="95.410156"/>
       <use xlink:href="#DejaVuSans-35" x="159.033203"/>
      </g>
     </g>
    </g>
    <g id="ytick_18">
     <g id="line2d_30">
      <g>
       <use xlink:href="#m848a802690" x="552.109091" y="34.56" style="stroke: #000000; stroke-width: 0.8"/>
      </g>
     </g>
     <g id="text_29">
      <!-- 1.00 -->
      <g transform="translate(522.843466 38.359219) scale(0.1 -0.1)">
       <use xlink:href="#DejaVuSans-31"/>
       <use xlink:href="#DejaVuSans-2e" x="63.623047"/>
       <use xlink:href="#DejaVuSans-30" x="95.410156"/>
       <use xlink:href="#DejaVuSans-30" x="159.033203"/>
      </g>
     </g>
    </g>
   </g>
   <g id="LineCollection_2">
    <path d="M 568.249587 145.44 
L 568.249587 34.56 
" clip-path="url(#p4042bfff03)" style="fill: none; stroke: #1f77b4; stroke-width: 1.5"/>
    <path d="M 583.996412 145.44 
L 583.996412 114.892236 
" clip-path="url(#p4042bfff03)" style="fill: none; stroke: #1f77b4; stroke-width: 1.5"/>
    <path d="M 599.743237 145.44 
L 599.743237 145.471166 
" clip-path="url(#p4042bfff03)" style="fill: none; stroke: #1f77b4; stroke-width: 1.5"/>
    <path d="M 615.490062 145.44 
L 615.490062 145.482457 
" clip-path="url(#p4042bfff03)" style="fill: none; stroke: #1f77b4; stroke-width: 1.5"/>
    <path d="M 631.236888 145.44 
L 631.236888 145.493753 
" clip-path="url(#p4042bfff03)" style="fill: none; stroke: #1f77b4; stroke-width: 1.5"/>
    <path d="M 646.983713 145.44 
L 646.983713 145.505055 
" clip-path="url(#p4042bfff03)" style="fill: none; stroke: #1f77b4; stroke-width: 1.5"/>
    <path d="M 662.730538 145.44 
L 662.730538 145.516363 
" clip-path="url(#p4042bfff03)" style="fill: none; stroke: #1f77b4; stroke-width: 1.5"/>
    <path d="M 678.477363 145.44 
L 678.477363 145.527679 
" clip-path="url(#p4042bfff03)" style="fill: none; stroke: #1f77b4; stroke-width: 1.5"/>
    <path d="M 694.224189 145.44 
L 694.224189 145.539003 
" clip-path="url(#p4042bfff03)" style="fill: none; stroke: #1f77b4; stroke-width: 1.5"/>
    <path d="M 709.971014 145.44 
L 709.971014 145.550339 
" clip-path="url(#p4042bfff03)" style="fill: none; stroke: #1f77b4; stroke-width: 1.5"/>
    <path d="M 725.717839 145.44 
L 725.717839 145.561685 
" clip-path="url(#p4042bfff03)" style="fill: none; stroke: #1f77b4; stroke-width: 1.5"/>
    <path d="M 741.464664 145.44 
L 741.464664 145.573044 
" clip-path="url(#p4042bfff03)" style="fill: none; stroke: #1f77b4; stroke-width: 1.5"/>
    <path d="M 757.21149 145.44 
L 757.21149 145.584417 
" clip-path="url(#p4042bfff03)" style="fill: none; stroke: #1f77b4; stroke-width: 1.5"/>
    <path d="M 772.958315 145.44 
L 772.958315 145.595806 
" clip-path="url(#p4042bfff03)" style="fill: none; stroke: #1f77b4; stroke-width: 1.5"/>
    <path d="M 788.70514 145.44 
L 788.70514 145.60721 
" clip-path="url(#p4042bfff03)" style="fill: none; stroke: #1f77b4; stroke-width: 1.5"/>
    <path d="M 804.451965 145.44 
L 804.451965 145.618633 
" clip-path="url(#p4042bfff03)" style="fill: none; stroke: #1f77b4; stroke-width: 1.5"/>
    <path d="M 820.198791 145.44 
L 820.198791 145.630074 
" clip-path="url(#p4042bfff03)" style="fill: none; stroke: #1f77b4; stroke-width: 1.5"/>
    <path d="M 835.945616 145.44 
L 835.945616 145.641536 
" clip-path="url(#p4042bfff03)" style="fill: none; stroke: #1f77b4; stroke-width: 1.5"/>
    <path d="M 851.692441 145.44 
L 851.692441 145.653019 
" clip-path="url(#p4042bfff03)" style="fill: none; stroke: #1f77b4; stroke-width: 1.5"/>
    <path d="M 867.439266 145.44 
L 867.439266 145.664526 
" clip-path="url(#p4042bfff03)" style="fill: none; stroke: #1f77b4; stroke-width: 1.5"/>
    <path d="M 883.186092 145.44 
L 883.186092 145.676057 
" clip-path="url(#p4042bfff03)" style="fill: none; stroke: #1f77b4; stroke-width: 1.5"/>
   </g>
   <g id="line2d_31">
    <path d="M 552.109091 145.44 
L 907.2 145.44 
" clip-path="url(#p4042bfff03)" style="fill: none; stroke: #1f77b4; stroke-width: 1.5; stroke-linecap: square"/>
   </g>
   <g id="line2d_32">
    <g clip-path="url(#p4042bfff03)">
     <use xlink:href="#md91cd28ef6" x="568.249587" y="34.56" style="fill: #1f77b4; stroke: #1f77b4"/>
     <use xlink:href="#md91cd28ef6" x="583.996412" y="114.892236" style="fill: #1f77b4; stroke: #1f77b4"/>
     <use xlink:href="#md91cd28ef6" x="599.743237" y="145.471166" style="fill: #1f77b4; stroke: #1f77b4"/>
     <use xlink:href="#md91cd28ef6" x="615.490062" y="145.482457" style="fill: #1f77b4; stroke: #1f77b4"/>
     <use xlink:href="#md91cd28ef6" x="631.236888" y="145.493753" style="fill: #1f77b4; stroke: #1f77b4"/>
     <use xlink:href="#md91cd28ef6" x="646.983713" y="145.505055" style="fill: #1f77b4; stroke: #1f77b4"/>
     <use xlink:href="#md91cd28ef6" x="662.730538" y="145.516363" style="fill: #1f77b4; stroke: #1f77b4"/>
     <use xlink:href="#md91cd28ef6" x="678.477363" y="145.527679" style="fill: #1f77b4; stroke: #1f77b4"/>
     <use xlink:href="#md91cd28ef6" x="694.224189" y="145.539003" style="fill: #1f77b4; stroke: #1f77b4"/>
     <use xlink:href="#md91cd28ef6" x="709.971014" y="145.550339" style="fill: #1f77b4; stroke: #1f77b4"/>
     <use xlink:href="#md91cd28ef6" x="725.717839" y="145.561685" style="fill: #1f77b4; stroke: #1f77b4"/>
     <use xlink:href="#md91cd28ef6" x="741.464664" y="145.573044" style="fill: #1f77b4; stroke: #1f77b4"/>
     <use xlink:href="#md91cd28ef6" x="757.21149" y="145.584417" style="fill: #1f77b4; stroke: #1f77b4"/>
     <use xlink:href="#md91cd28ef6" x="772.958315" y="145.595806" style="fill: #1f77b4; stroke: #1f77b4"/>
     <use xlink:href="#md91cd28ef6" x="788.70514" y="145.60721" style="fill: #1f77b4; stroke: #1f77b4"/>
     <use xlink:href="#md91cd28ef6" x="804.451965" y="145.618633" style="fill: #1f77b4; stroke: #1f77b4"/>
     <use xlink:href="#md91cd28ef6" x="820.198791" y="145.630074" style="fill: #1f77b4; stroke: #1f77b4"/>
     <use xlink:href="#md91cd28ef6" x="835.945616" y="145.641536" style="fill: #1f77b4; stroke: #1f77b4"/>
     <use xlink:href="#md91cd28ef6" x="851.692441" y="145.653019" style="fill: #1f77b4; stroke: #1f77b4"/>
     <use xlink:href="#md91cd28ef6" x="867.439266" y="145.664526" style="fill: #1f77b4; stroke: #1f77b4"/>
     <use xlink:href="#md91cd28ef6" x="883.186092" y="145.676057" style="fill: #1f77b4; stroke: #1f77b4"/>
    </g>
   </g>
   <g id="patch_8">
    <path d="M 552.109091 256.32 
L 552.109091 34.56 
" style="fill: none; stroke: #000000; stroke-width: 0.8; stroke-linejoin: miter; stroke-linecap: square"/>
   </g>
   <g id="patch_9">
    <path d="M 907.2 256.32 
L 907.2 34.56 
" style="fill: none; stroke: #000000; stroke-width: 0.8; stroke-linejoin: miter; stroke-linecap: square"/>
   </g>
   <g id="patch_10">
    <path d="M 552.109091 256.32 
L 907.2 256.32 
" style="fill: none; stroke: #000000; stroke-width: 0.8; stroke-linejoin: miter; stroke-linecap: square"/>
   </g>
   <g id="patch_11">
    <path d="M 552.109091 34.56 
L 907.2 34.56 
" style="fill: none; stroke: #000000; stroke-width: 0.8; stroke-linejoin: miter; stroke-linecap: square"/>
   </g>
   <g id="text_30">
    <!-- PACF Plot for AR(3) Process -->
    <g transform="translate(648.062983 28.56) scale(0.12 -0.12)">
     <use xlink:href="#DejaVuSans-50"/>
     <use xlink:href="#DejaVuSans-41" x="53.927734"/>
     <use xlink:href="#DejaVuSans-43" x="120.585938"/>
     <use xlink:href="#DejaVuSans-46" x="190.410156"/>
     <use xlink:href="#DejaVuSans-20" x="247.929688"/>
     <use xlink:href="#DejaVuSans-50" x="279.716797"/>
     <use xlink:href="#DejaVuSans-6c" x="340.019531"/>
     <use xlink:href="#DejaVuSans-6f" x="367.802734"/>
     <use xlink:href="#DejaVuSans-74" x="428.984375"/>
     <use xlink:href="#DejaVuSans-20" x="468.193359"/>
     <use xlink:href="#DejaVuSans-66" x="499.980469"/>
     <use xlink:href="#DejaVuSans-6f" x="535.185547"/>
     <use xlink:href="#DejaVuSans-72" x="596.367188"/>
     <use xlink:href="#DejaVuSans-20" x="637.480469"/>
     <use xlink:href="#DejaVuSans-41" x="669.267578"/>
     <use xlink:href="#DejaVuSans-52" x="737.675781"/>
     <use xlink:href="#DejaVuSans-28" x="807.158203"/>
     <use xlink:href="#DejaVuSans-33" x="846.171875"/>
     <use xlink:href="#DejaVuSans-29" x="909.794922"/>
     <use xlink:href="#DejaVuSans-20" x="948.808594"/>
     <use xlink:href="#DejaVuSans-50" x="980.595703"/>
     <use xlink:href="#DejaVuSans-72" x="1039.148438"/>
     <use xlink:href="#DejaVuSans-6f" x="1078.011719"/>
     <use xlink:href="#DejaVuSans-63" x="1139.193359"/>
     <use xlink:href="#DejaVuSans-65" x="1194.173828"/>
     <use xlink:href="#DejaVuSans-73" x="1255.697266"/>
     <use xlink:href="#DejaVuSans-73" x="1307.796875"/>
    </g>
   </g>
  </g>
 </g>
 <defs>
  <clipPath id="p7c291b5bae">
   <rect x="126" y="34.56" width="355.090909" height="221.76"/>
  </clipPath>
  <clipPath id="p4042bfff03">
   <rect x="552.109091" y="34.56" width="355.090909" height="221.76"/>
  </clipPath>
 </defs>
</svg>
