<?xml version="1.0" encoding="utf-8" standalone="no"?>
<!DOCTYPE svg PUBLIC "-//W3C//DTD SVG 1.1//EN"
  "http://www.w3.org/Graphics/SVG/1.1/DTD/svg11.dtd">
<svg xmlns:xlink="http://www.w3.org/1999/xlink" width="720pt" height="576pt" viewBox="0 0 720 576" xmlns="http://www.w3.org/2000/svg" version="1.1">
 <metadata>
  <rdf:RDF xmlns:dc="http://purl.org/dc/elements/1.1/" xmlns:cc="http://creativecommons.org/ns#" xmlns:rdf="http://www.w3.org/1999/02/22-rdf-syntax-ns#">
   <cc:Work>
    <dc:type rdf:resource="http://purl.org/dc/dcmitype/StillImage"/>
    <dc:date>2024-02-20T02:10:02.849528</dc:date>
    <dc:format>image/svg+xml</dc:format>
    <dc:creator>
     <cc:Agent>
      <dc:title>Matplotlib v3.8.2, https://matplotlib.org/</dc:title>
     </cc:Agent>
    </dc:creator>
   </cc:Work>
  </rdf:RDF>
 </metadata>
 <defs>
  <style type="text/css">*{stroke-linejoin: round; stroke-linecap: butt}</style>
 </defs>
 <g id="figure_1">
  <g id="patch_1">
   <path d="M 0 576 
L 720 576 
L 720 0 
L 0 0 
z
" style="fill: #ffffff"/>
  </g>
  <g id="axes_1">
   <g id="patch_2">
    <path d="M 32.515 265.27 
L 709.2 265.27 
L 709.2 26.16 
L 32.515 26.16 
z
" style="fill: #ffffff"/>
   </g>
   <g id="matplotlib.axis_1">
    <g id="xtick_1">
     <g id="line2d_1">
      <defs>
       <path id="mb1fb0cee13" d="M 0 0 
L 0 3.5 
" style="stroke: #000000; stroke-width: 0.8"/>
      </defs>
      <g>
       <use xlink:href="#mb1fb0cee13" x="63.273409" y="265.27" style="stroke: #000000; stroke-width: 0.8"/>
      </g>
     </g>
    </g>
    <g id="xtick_2">
     <g id="line2d_2">
      <g>
       <use xlink:href="#mb1fb0cee13" x="187.549809" y="265.27" style="stroke: #000000; stroke-width: 0.8"/>
      </g>
     </g>
    </g>
    <g id="xtick_3">
     <g id="line2d_3">
      <g>
       <use xlink:href="#mb1fb0cee13" x="311.82621" y="265.27" style="stroke: #000000; stroke-width: 0.8"/>
      </g>
     </g>
    </g>
    <g id="xtick_4">
     <g id="line2d_4">
      <g>
       <use xlink:href="#mb1fb0cee13" x="436.10261" y="265.27" style="stroke: #000000; stroke-width: 0.8"/>
      </g>
     </g>
    </g>
    <g id="xtick_5">
     <g id="line2d_5">
      <g>
       <use xlink:href="#mb1fb0cee13" x="560.379011" y="265.27" style="stroke: #000000; stroke-width: 0.8"/>
      </g>
     </g>
    </g>
    <g id="xtick_6">
     <g id="line2d_6">
      <g>
       <use xlink:href="#mb1fb0cee13" x="684.655411" y="265.27" style="stroke: #000000; stroke-width: 0.8"/>
      </g>
     </g>
    </g>
   </g>
   <g id="matplotlib.axis_2">
    <g id="ytick_1">
     <g id="line2d_7">
      <defs>
       <path id="m9ec7f91b65" d="M 0 0 
L -3.5 0 
" style="stroke: #000000; stroke-width: 0.8"/>
      </defs>
      <g>
       <use xlink:href="#m9ec7f91b65" x="32.515" y="237.658557" style="stroke: #000000; stroke-width: 0.8"/>
      </g>
     </g>
     <g id="text_1">
      <!-- 0 -->
      <g transform="translate(19.1525 241.457776) scale(0.1 -0.1)">
       <defs>
        <path id="DejaVuSans-30" d="M 2034 4250 
Q 1547 4250 1301 3770 
Q 1056 3291 1056 2328 
Q 1056 1369 1301 889 
Q 1547 409 2034 409 
Q 2525 409 2770 889 
Q 3016 1369 3016 2328 
Q 3016 3291 2770 3770 
Q 2525 4250 2034 4250 
z
M 2034 4750 
Q 2819 4750 3233 4129 
Q 3647 3509 3647 2328 
Q 3647 1150 3233 529 
Q 2819 -91 2034 -91 
Q 1250 -91 836 529 
Q 422 1150 422 2328 
Q 422 3509 836 4129 
Q 1250 4750 2034 4750 
z
" transform="scale(0.015625)"/>
       </defs>
       <use xlink:href="#DejaVuSans-30"/>
      </g>
     </g>
    </g>
    <g id="ytick_2">
     <g id="line2d_8">
      <g>
       <use xlink:href="#m9ec7f91b65" x="32.515" y="191.394967" style="stroke: #000000; stroke-width: 0.8"/>
      </g>
     </g>
     <g id="text_2">
      <!-- 1 -->
      <g transform="translate(19.1525 195.194186) scale(0.1 -0.1)">
       <defs>
        <path id="DejaVuSans-31" d="M 794 531 
L 1825 531 
L 1825 4091 
L 703 3866 
L 703 4441 
L 1819 4666 
L 2450 4666 
L 2450 531 
L 3481 531 
L 3481 0 
L 794 0 
L 794 531 
z
" transform="scale(0.015625)"/>
       </defs>
       <use xlink:href="#DejaVuSans-31"/>
      </g>
     </g>
    </g>
    <g id="ytick_3">
     <g id="line2d_9">
      <g>
       <use xlink:href="#m9ec7f91b65" x="32.515" y="145.131377" style="stroke: #000000; stroke-width: 0.8"/>
      </g>
     </g>
     <g id="text_3">
      <!-- 2 -->
      <g transform="translate(19.1525 148.930595) scale(0.1 -0.1)">
       <defs>
        <path id="DejaVuSans-32" d="M 1228 531 
L 3431 531 
L 3431 0 
L 469 0 
L 469 531 
Q 828 903 1448 1529 
Q 2069 2156 2228 2338 
Q 2531 2678 2651 2914 
Q 2772 3150 2772 3378 
Q 2772 3750 2511 3984 
Q 2250 4219 1831 4219 
Q 1534 4219 1204 4116 
Q 875 4013 500 3803 
L 500 4441 
Q 881 4594 1212 4672 
Q 1544 4750 1819 4750 
Q 2544 4750 2975 4387 
Q 3406 4025 3406 3419 
Q 3406 3131 3298 2873 
Q 3191 2616 2906 2266 
Q 2828 2175 2409 1742 
Q 1991 1309 1228 531 
z
" transform="scale(0.015625)"/>
       </defs>
       <use xlink:href="#DejaVuSans-32"/>
      </g>
     </g>
    </g>
    <g id="ytick_4">
     <g id="line2d_10">
      <g>
       <use xlink:href="#m9ec7f91b65" x="32.515" y="98.867786" style="stroke: #000000; stroke-width: 0.8"/>
      </g>
     </g>
     <g id="text_4">
      <!-- 3 -->
      <g transform="translate(19.1525 102.667005) scale(0.1 -0.1)">
       <defs>
        <path id="DejaVuSans-33" d="M 2597 2516 
Q 3050 2419 3304 2112 
Q 3559 1806 3559 1356 
Q 3559 666 3084 287 
Q 2609 -91 1734 -91 
Q 1441 -91 1130 -33 
Q 819 25 488 141 
L 488 750 
Q 750 597 1062 519 
Q 1375 441 1716 441 
Q 2309 441 2620 675 
Q 2931 909 2931 1356 
Q 2931 1769 2642 2001 
Q 2353 2234 1838 2234 
L 1294 2234 
L 1294 2753 
L 1863 2753 
Q 2328 2753 2575 2939 
Q 2822 3125 2822 3475 
Q 2822 3834 2567 4026 
Q 2313 4219 1838 4219 
Q 1578 4219 1281 4162 
Q 984 4106 628 3988 
L 628 4550 
Q 988 4650 1302 4700 
Q 1616 4750 1894 4750 
Q 2613 4750 3031 4423 
Q 3450 4097 3450 3541 
Q 3450 3153 3228 2886 
Q 3006 2619 2597 2516 
z
" transform="scale(0.015625)"/>
       </defs>
       <use xlink:href="#DejaVuSans-33"/>
      </g>
     </g>
    </g>
    <g id="ytick_5">
     <g id="line2d_11">
      <g>
       <use xlink:href="#m9ec7f91b65" x="32.515" y="52.604196" style="stroke: #000000; stroke-width: 0.8"/>
      </g>
     </g>
     <g id="text_5">
      <!-- 4 -->
      <g transform="translate(19.1525 56.403415) scale(0.1 -0.1)">
       <defs>
        <path id="DejaVuSans-34" d="M 2419 4116 
L 825 1625 
L 2419 1625 
L 2419 4116 
z
M 2253 4666 
L 3047 4666 
L 3047 1625 
L 3713 1625 
L 3713 1100 
L 3047 1100 
L 3047 0 
L 2419 0 
L 2419 1100 
L 313 1100 
L 313 1709 
L 2253 4666 
z
" transform="scale(0.015625)"/>
       </defs>
       <use xlink:href="#DejaVuSans-34"/>
      </g>
     </g>
    </g>
   </g>
   <g id="line2d_12">
    <path d="M 63.273409 193.572195 
L 69.487229 162.236042 
L 75.701049 60.43264 
L 81.914869 185.899728 
L 88.128689 254.401364 
L 94.342509 198.600407 
L 100.556329 162.775016 
L 106.770149 196.705215 
L 112.983969 85.083946 
L 119.197789 42.136123 
L 125.411609 60.89084 
L 131.625429 79.42086 
L 137.839249 106.659683 
L 144.053069 112.943563 
L 150.266889 76.432948 
L 156.480709 155.388065 
L 162.694529 193.471817 
L 168.908349 80.467419 
L 175.122169 37.028636 
L 181.335989 115.547058 
L 187.549809 96.328764 
L 193.763629 67.588065 
L 199.977449 94.925702 
L 206.19127 191.013048 
L 212.40509 107.456067 
L 218.61891 97.811838 
L 224.83273 117.293784 
L 231.04655 76.517153 
L 237.26037 162.718398 
L 243.47419 162.806914 
L 249.68801 148.640574 
L 255.90183 193.926276 
L 262.11565 166.202321 
L 268.32947 171.827689 
L 274.54329 199.635574 
L 280.75711 197.828141 
L 286.97093 146.087952 
L 293.18475 212.422289 
L 299.39857 236.17136 
L 305.61239 180.26004 
L 311.82621 184.1638 
L 318.04003 194.107476 
L 324.25385 169.237166 
L 330.46767 123.964337 
L 336.68149 208.820874 
L 342.89531 142.461029 
L 349.10913 144.559594 
L 355.32295 70.358243 
L 361.53677 188.692629 
L 367.75059 187.136595 
L 373.96441 184.814695 
L 380.17823 107.80009 
L 386.39205 92.087577 
L 392.60587 158.143169 
L 398.81969 209.591651 
L 405.03351 234.202261 
L 411.24733 223.63379 
L 417.46115 223.149018 
L 423.67497 112.608999 
L 429.88879 122.300244 
L 436.10261 110.987271 
L 442.31643 164.180546 
L 448.53025 210.253457 
L 454.74407 210.655478 
L 460.95789 192.439505 
L 467.17171 141.280877 
L 473.38553 101.184208 
L 479.59935 95.021252 
L 485.81317 154.800587 
L 492.02699 105.730681 
L 498.24081 104.925508 
L 504.45463 194.347286 
L 510.66845 234.210658 
L 516.88227 236.434398 
L 523.09609 67.602118 
L 529.30991 57.85095 
L 535.52373 102.378391 
L 541.737551 161.230735 
L 547.951371 233.640387 
L 554.165191 120.477881 
L 560.379011 96.455782 
L 566.592831 144.627191 
L 572.806651 118.61688 
L 579.020471 175.518709 
L 585.234291 211.957356 
L 591.448111 141.987495 
L 597.661931 153.5934 
L 603.875751 95.452402 
L 610.089571 53.329939 
L 616.303391 150.569696 
L 622.517211 214.345587 
L 628.731031 183.387992 
L 634.944851 123.20559 
L 641.158671 58.649082 
L 647.372491 77.900671 
L 653.586311 144.367409 
L 659.800131 148.71972 
L 666.013951 199.370335 
L 672.227771 120.679852 
L 678.441591 92.681101 
" clip-path="url(#p317bf5f68a)" style="fill: none; stroke: #1f77b4; stroke-width: 1.5; stroke-linecap: square"/>
   </g>
   <g id="patch_3">
    <path d="M 32.515 265.27 
L 32.515 26.16 
" style="fill: none; stroke: #000000; stroke-width: 0.8; stroke-linejoin: miter; stroke-linecap: square"/>
   </g>
   <g id="patch_4">
    <path d="M 709.2 265.27 
L 709.2 26.16 
" style="fill: none; stroke: #000000; stroke-width: 0.8; stroke-linejoin: miter; stroke-linecap: square"/>
   </g>
   <g id="patch_5">
    <path d="M 32.515 265.27 
L 709.2 265.27 
" style="fill: none; stroke: #000000; stroke-width: 0.8; stroke-linejoin: miter; stroke-linecap: square"/>
   </g>
   <g id="patch_6">
    <path d="M 32.515 26.16 
L 709.2 26.16 
" style="fill: none; stroke: #000000; stroke-width: 0.8; stroke-linejoin: miter; stroke-linecap: square"/>
   </g>
   <g id="text_6">
    <!-- One Realization of AR(1) Process with ϕ=0.5 -->
    <g transform="translate(237.708125 20.16) scale(0.12 -0.12)">
     <defs>
      <path id="DejaVuSans-4f" d="M 2522 4238 
Q 1834 4238 1429 3725 
Q 1025 3213 1025 2328 
Q 1025 1447 1429 934 
Q 1834 422 2522 422 
Q 3209 422 3611 934 
Q 4013 1447 4013 2328 
Q 4013 3213 3611 3725 
Q 3209 4238 2522 4238 
z
M 2522 4750 
Q 3503 4750 4090 4092 
Q 4678 3434 4678 2328 
Q 4678 1225 4090 567 
Q 3503 -91 2522 -91 
Q 1538 -91 948 565 
Q 359 1222 359 2328 
Q 359 3434 948 4092 
Q 1538 4750 2522 4750 
z
" transform="scale(0.015625)"/>
      <path id="DejaVuSans-6e" d="M 3513 2113 
L 3513 0 
L 2938 0 
L 2938 2094 
Q 2938 2591 2744 2837 
Q 2550 3084 2163 3084 
Q 1697 3084 1428 2787 
Q 1159 2491 1159 1978 
L 1159 0 
L 581 0 
L 581 3500 
L 1159 3500 
L 1159 2956 
Q 1366 3272 1645 3428 
Q 1925 3584 2291 3584 
Q 2894 3584 3203 3211 
Q 3513 2838 3513 2113 
z
" transform="scale(0.015625)"/>
      <path id="DejaVuSans-65" d="M 3597 1894 
L 3597 1613 
L 953 1613 
Q 991 1019 1311 708 
Q 1631 397 2203 397 
Q 2534 397 2845 478 
Q 3156 559 3463 722 
L 3463 178 
Q 3153 47 2828 -22 
Q 2503 -91 2169 -91 
Q 1331 -91 842 396 
Q 353 884 353 1716 
Q 353 2575 817 3079 
Q 1281 3584 2069 3584 
Q 2775 3584 3186 3129 
Q 3597 2675 3597 1894 
z
M 3022 2063 
Q 3016 2534 2758 2815 
Q 2500 3097 2075 3097 
Q 1594 3097 1305 2825 
Q 1016 2553 972 2059 
L 3022 2063 
z
" transform="scale(0.015625)"/>
      <path id="DejaVuSans-20" transform="scale(0.015625)"/>
      <path id="DejaVuSans-52" d="M 2841 2188 
Q 3044 2119 3236 1894 
Q 3428 1669 3622 1275 
L 4263 0 
L 3584 0 
L 2988 1197 
Q 2756 1666 2539 1819 
Q 2322 1972 1947 1972 
L 1259 1972 
L 1259 0 
L 628 0 
L 628 4666 
L 2053 4666 
Q 2853 4666 3247 4331 
Q 3641 3997 3641 3322 
Q 3641 2881 3436 2590 
Q 3231 2300 2841 2188 
z
M 1259 4147 
L 1259 2491 
L 2053 2491 
Q 2509 2491 2742 2702 
Q 2975 2913 2975 3322 
Q 2975 3731 2742 3939 
Q 2509 4147 2053 4147 
L 1259 4147 
z
" transform="scale(0.015625)"/>
      <path id="DejaVuSans-61" d="M 2194 1759 
Q 1497 1759 1228 1600 
Q 959 1441 959 1056 
Q 959 750 1161 570 
Q 1363 391 1709 391 
Q 2188 391 2477 730 
Q 2766 1069 2766 1631 
L 2766 1759 
L 2194 1759 
z
M 3341 1997 
L 3341 0 
L 2766 0 
L 2766 531 
Q 2569 213 2275 61 
Q 1981 -91 1556 -91 
Q 1019 -91 701 211 
Q 384 513 384 1019 
Q 384 1609 779 1909 
Q 1175 2209 1959 2209 
L 2766 2209 
L 2766 2266 
Q 2766 2663 2505 2880 
Q 2244 3097 1772 3097 
Q 1472 3097 1187 3025 
Q 903 2953 641 2809 
L 641 3341 
Q 956 3463 1253 3523 
Q 1550 3584 1831 3584 
Q 2591 3584 2966 3190 
Q 3341 2797 3341 1997 
z
" transform="scale(0.015625)"/>
      <path id="DejaVuSans-6c" d="M 603 4863 
L 1178 4863 
L 1178 0 
L 603 0 
L 603 4863 
z
" transform="scale(0.015625)"/>
      <path id="DejaVuSans-69" d="M 603 3500 
L 1178 3500 
L 1178 0 
L 603 0 
L 603 3500 
z
M 603 4863 
L 1178 4863 
L 1178 4134 
L 603 4134 
L 603 4863 
z
" transform="scale(0.015625)"/>
      <path id="DejaVuSans-7a" d="M 353 3500 
L 3084 3500 
L 3084 2975 
L 922 459 
L 3084 459 
L 3084 0 
L 275 0 
L 275 525 
L 2438 3041 
L 353 3041 
L 353 3500 
z
" transform="scale(0.015625)"/>
      <path id="DejaVuSans-74" d="M 1172 4494 
L 1172 3500 
L 2356 3500 
L 2356 3053 
L 1172 3053 
L 1172 1153 
Q 1172 725 1289 603 
Q 1406 481 1766 481 
L 2356 481 
L 2356 0 
L 1766 0 
Q 1100 0 847 248 
Q 594 497 594 1153 
L 594 3053 
L 172 3053 
L 172 3500 
L 594 3500 
L 594 4494 
L 1172 4494 
z
" transform="scale(0.015625)"/>
      <path id="DejaVuSans-6f" d="M 1959 3097 
Q 1497 3097 1228 2736 
Q 959 2375 959 1747 
Q 959 1119 1226 758 
Q 1494 397 1959 397 
Q 2419 397 2687 759 
Q 2956 1122 2956 1747 
Q 2956 2369 2687 2733 
Q 2419 3097 1959 3097 
z
M 1959 3584 
Q 2709 3584 3137 3096 
Q 3566 2609 3566 1747 
Q 3566 888 3137 398 
Q 2709 -91 1959 -91 
Q 1206 -91 779 398 
Q 353 888 353 1747 
Q 353 2609 779 3096 
Q 1206 3584 1959 3584 
z
" transform="scale(0.015625)"/>
      <path id="DejaVuSans-66" d="M 2375 4863 
L 2375 4384 
L 1825 4384 
Q 1516 4384 1395 4259 
Q 1275 4134 1275 3809 
L 1275 3500 
L 2222 3500 
L 2222 3053 
L 1275 3053 
L 1275 0 
L 697 0 
L 697 3053 
L 147 3053 
L 147 3500 
L 697 3500 
L 697 3744 
Q 697 4328 969 4595 
Q 1241 4863 1831 4863 
L 2375 4863 
z
" transform="scale(0.015625)"/>
      <path id="DejaVuSans-41" d="M 2188 4044 
L 1331 1722 
L 3047 1722 
L 2188 4044 
z
M 1831 4666 
L 2547 4666 
L 4325 0 
L 3669 0 
L 3244 1197 
L 1141 1197 
L 716 0 
L 50 0 
L 1831 4666 
z
" transform="scale(0.015625)"/>
      <path id="DejaVuSans-28" d="M 1984 4856 
Q 1566 4138 1362 3434 
Q 1159 2731 1159 2009 
Q 1159 1288 1364 580 
Q 1569 -128 1984 -844 
L 1484 -844 
Q 1016 -109 783 600 
Q 550 1309 550 2009 
Q 550 2706 781 3412 
Q 1013 4119 1484 4856 
L 1984 4856 
z
" transform="scale(0.015625)"/>
      <path id="DejaVuSans-29" d="M 513 4856 
L 1013 4856 
Q 1481 4119 1714 3412 
Q 1947 2706 1947 2009 
Q 1947 1309 1714 600 
Q 1481 -109 1013 -844 
L 513 -844 
Q 928 -128 1133 580 
Q 1338 1288 1338 2009 
Q 1338 2731 1133 3434 
Q 928 4138 513 4856 
z
" transform="scale(0.015625)"/>
      <path id="DejaVuSans-50" d="M 1259 4147 
L 1259 2394 
L 2053 2394 
Q 2494 2394 2734 2622 
Q 2975 2850 2975 3272 
Q 2975 3691 2734 3919 
Q 2494 4147 2053 4147 
L 1259 4147 
z
M 628 4666 
L 2053 4666 
Q 2838 4666 3239 4311 
Q 3641 3956 3641 3272 
Q 3641 2581 3239 2228 
Q 2838 1875 2053 1875 
L 1259 1875 
L 1259 0 
L 628 0 
L 628 4666 
z
" transform="scale(0.015625)"/>
      <path id="DejaVuSans-72" d="M 2631 2963 
Q 2534 3019 2420 3045 
Q 2306 3072 2169 3072 
Q 1681 3072 1420 2755 
Q 1159 2438 1159 1844 
L 1159 0 
L 581 0 
L 581 3500 
L 1159 3500 
L 1159 2956 
Q 1341 3275 1631 3429 
Q 1922 3584 2338 3584 
Q 2397 3584 2469 3576 
Q 2541 3569 2628 3553 
L 2631 2963 
z
" transform="scale(0.015625)"/>
      <path id="DejaVuSans-63" d="M 3122 3366 
L 3122 2828 
Q 2878 2963 2633 3030 
Q 2388 3097 2138 3097 
Q 1578 3097 1268 2742 
Q 959 2388 959 1747 
Q 959 1106 1268 751 
Q 1578 397 2138 397 
Q 2388 397 2633 464 
Q 2878 531 3122 666 
L 3122 134 
Q 2881 22 2623 -34 
Q 2366 -91 2075 -91 
Q 1284 -91 818 406 
Q 353 903 353 1747 
Q 353 2603 823 3093 
Q 1294 3584 2113 3584 
Q 2378 3584 2631 3529 
Q 2884 3475 3122 3366 
z
" transform="scale(0.015625)"/>
      <path id="DejaVuSans-73" d="M 2834 3397 
L 2834 2853 
Q 2591 2978 2328 3040 
Q 2066 3103 1784 3103 
Q 1356 3103 1142 2972 
Q 928 2841 928 2578 
Q 928 2378 1081 2264 
Q 1234 2150 1697 2047 
L 1894 2003 
Q 2506 1872 2764 1633 
Q 3022 1394 3022 966 
Q 3022 478 2636 193 
Q 2250 -91 1575 -91 
Q 1294 -91 989 -36 
Q 684 19 347 128 
L 347 722 
Q 666 556 975 473 
Q 1284 391 1588 391 
Q 1994 391 2212 530 
Q 2431 669 2431 922 
Q 2431 1156 2273 1281 
Q 2116 1406 1581 1522 
L 1381 1569 
Q 847 1681 609 1914 
Q 372 2147 372 2553 
Q 372 3047 722 3315 
Q 1072 3584 1716 3584 
Q 2034 3584 2315 3537 
Q 2597 3491 2834 3397 
z
" transform="scale(0.015625)"/>
      <path id="DejaVuSans-77" d="M 269 3500 
L 844 3500 
L 1563 769 
L 2278 3500 
L 2956 3500 
L 3675 769 
L 4391 3500 
L 4966 3500 
L 4050 0 
L 3372 0 
L 2619 2869 
L 1863 0 
L 1184 0 
L 269 3500 
z
" transform="scale(0.015625)"/>
      <path id="DejaVuSans-68" d="M 3513 2113 
L 3513 0 
L 2938 0 
L 2938 2094 
Q 2938 2591 2744 2837 
Q 2550 3084 2163 3084 
Q 1697 3084 1428 2787 
Q 1159 2491 1159 1978 
L 1159 0 
L 581 0 
L 581 4863 
L 1159 4863 
L 1159 2956 
Q 1366 3272 1645 3428 
Q 1925 3584 2291 3584 
Q 2894 3584 3203 3211 
Q 3513 2838 3513 2113 
z
" transform="scale(0.015625)"/>
      <path id="DejaVuSans-3d5" d="M 2388 4863 
L 2388 3572 
Q 3009 3572 3425 3094 
Q 3853 2606 3853 1747 
Q 3853 888 3425 400 
Q 3009 -78 2388 -78 
L 2388 -1331 
L 1816 -1331 
L 1816 -78 
Q 1194 -78 775 400 
Q 350 888 350 1747 
Q 350 2606 775 3094 
Q 1194 3572 1816 3572 
L 1816 4863 
L 2388 4863 
z
M 2388 434 
Q 2741 434 2981 756 
Q 3244 1116 3247 1747 
Q 3250 2372 2981 2738 
Q 2741 3059 2388 3059 
L 2388 434 
z
M 1816 434 
L 1816 3059 
Q 1463 3059 1225 2738 
Q 953 2372 956 1747 
Q 959 1116 1225 756 
Q 1463 434 1816 434 
z
" transform="scale(0.015625)"/>
      <path id="DejaVuSans-3d" d="M 678 2906 
L 4684 2906 
L 4684 2381 
L 678 2381 
L 678 2906 
z
M 678 1631 
L 4684 1631 
L 4684 1100 
L 678 1100 
L 678 1631 
z
" transform="scale(0.015625)"/>
      <path id="DejaVuSans-2e" d="M 684 794 
L 1344 794 
L 1344 0 
L 684 0 
L 684 794 
z
" transform="scale(0.015625)"/>
      <path id="DejaVuSans-35" d="M 691 4666 
L 3169 4666 
L 3169 4134 
L 1269 4134 
L 1269 2991 
Q 1406 3038 1543 3061 
Q 1681 3084 1819 3084 
Q 2600 3084 3056 2656 
Q 3513 2228 3513 1497 
Q 3513 744 3044 326 
Q 2575 -91 1722 -91 
Q 1428 -91 1123 -41 
Q 819 9 494 109 
L 494 744 
Q 775 591 1075 516 
Q 1375 441 1709 441 
Q 2250 441 2565 725 
Q 2881 1009 2881 1497 
Q 2881 1984 2565 2268 
Q 2250 2553 1709 2553 
Q 1456 2553 1204 2497 
Q 953 2441 691 2322 
L 691 4666 
z
" transform="scale(0.015625)"/>
     </defs>
     <use xlink:href="#DejaVuSans-4f"/>
     <use xlink:href="#DejaVuSans-6e" x="78.710938"/>
     <use xlink:href="#DejaVuSans-65" x="142.089844"/>
     <use xlink:href="#DejaVuSans-20" x="203.613281"/>
     <use xlink:href="#DejaVuSans-52" x="235.400391"/>
     <use xlink:href="#DejaVuSans-65" x="300.382812"/>
     <use xlink:href="#DejaVuSans-61" x="361.90625"/>
     <use xlink:href="#DejaVuSans-6c" x="423.185547"/>
     <use xlink:href="#DejaVuSans-69" x="450.96875"/>
     <use xlink:href="#DejaVuSans-7a" x="478.751953"/>
     <use xlink:href="#DejaVuSans-61" x="531.242188"/>
     <use xlink:href="#DejaVuSans-74" x="592.521484"/>
     <use xlink:href="#DejaVuSans-69" x="631.730469"/>
     <use xlink:href="#DejaVuSans-6f" x="659.513672"/>
     <use xlink:href="#DejaVuSans-6e" x="720.695312"/>
     <use xlink:href="#DejaVuSans-20" x="784.074219"/>
     <use xlink:href="#DejaVuSans-6f" x="815.861328"/>
     <use xlink:href="#DejaVuSans-66" x="877.042969"/>
     <use xlink:href="#DejaVuSans-20" x="912.248047"/>
     <use xlink:href="#DejaVuSans-41" x="944.035156"/>
     <use xlink:href="#DejaVuSans-52" x="1012.443359"/>
     <use xlink:href="#DejaVuSans-28" x="1081.925781"/>
     <use xlink:href="#DejaVuSans-31" x="1120.939453"/>
     <use xlink:href="#DejaVuSans-29" x="1184.5625"/>
     <use xlink:href="#DejaVuSans-20" x="1223.576172"/>
     <use xlink:href="#DejaVuSans-50" x="1255.363281"/>
     <use xlink:href="#DejaVuSans-72" x="1313.916016"/>
     <use xlink:href="#DejaVuSans-6f" x="1352.779297"/>
     <use xlink:href="#DejaVuSans-63" x="1413.960938"/>
     <use xlink:href="#DejaVuSans-65" x="1468.941406"/>
     <use xlink:href="#DejaVuSans-73" x="1530.464844"/>
     <use xlink:href="#DejaVuSans-73" x="1582.564453"/>
     <use xlink:href="#DejaVuSans-20" x="1634.664062"/>
     <use xlink:href="#DejaVuSans-77" x="1666.451172"/>
     <use xlink:href="#DejaVuSans-69" x="1748.238281"/>
     <use xlink:href="#DejaVuSans-74" x="1776.021484"/>
     <use xlink:href="#DejaVuSans-68" x="1815.230469"/>
     <use xlink:href="#DejaVuSans-20" x="1878.609375"/>
     <use xlink:href="#DejaVuSans-3d5" x="1910.396484"/>
     <use xlink:href="#DejaVuSans-3d" x="1976.363281"/>
     <use xlink:href="#DejaVuSans-30" x="2060.152344"/>
     <use xlink:href="#DejaVuSans-2e" x="2123.775391"/>
     <use xlink:href="#DejaVuSans-35" x="2155.5625"/>
    </g>
   </g>
   <g id="legend_1">
    <g id="patch_7">
     <path d="M 529.7625 48.838125 
L 702.2 48.838125 
Q 704.2 48.838125 704.2 46.838125 
L 704.2 33.16 
Q 704.2 31.16 702.2 31.16 
L 529.7625 31.16 
Q 527.7625 31.16 527.7625 33.16 
L 527.7625 46.838125 
Q 527.7625 48.838125 529.7625 48.838125 
z
" style="fill: #ffffff; opacity: 0.8; stroke: #cccccc; stroke-linejoin: miter"/>
    </g>
    <g id="line2d_13">
     <path d="M 531.7625 39.258438 
L 541.7625 39.258438 
L 551.7625 39.258438 
" style="fill: none; stroke: #1f77b4; stroke-width: 1.5; stroke-linecap: square"/>
    </g>
    <g id="text_7">
     <!-- AR(1) with c=1, σ=1, ϕ=0.5 -->
     <g transform="translate(559.7625 42.758438) scale(0.1 -0.1)">
      <defs>
       <path id="DejaVuSans-2c" d="M 750 794 
L 1409 794 
L 1409 256 
L 897 -744 
L 494 -744 
L 750 256 
L 750 794 
z
" transform="scale(0.015625)"/>
       <path id="DejaVuSans-3c3" d="M 1959 3044 
Q 1484 3044 1228 2700 
Q 959 2341 959 1747 
Q 959 1119 1226 758 
Q 1494 397 1959 397 
Q 2419 397 2687 759 
Q 2956 1122 2956 1747 
Q 2956 2319 2688 2700 
Q 2441 3044 1959 3044 
z
M 1959 3500 
L 3869 3500 
L 3869 2925 
L 3225 2925 
Q 3566 2438 3566 1747 
Q 3566 888 3138 400 
Q 2709 -91 1959 -91 
Q 1206 -91 781 400 
Q 353 888 353 1747 
Q 353 2613 781 3097 
Q 1134 3500 1959 3500 
z
" transform="scale(0.015625)"/>
      </defs>
      <use xlink:href="#DejaVuSans-41"/>
      <use xlink:href="#DejaVuSans-52" x="68.408203"/>
      <use xlink:href="#DejaVuSans-28" x="137.890625"/>
      <use xlink:href="#DejaVuSans-31" x="176.904297"/>
      <use xlink:href="#DejaVuSans-29" x="240.527344"/>
      <use xlink:href="#DejaVuSans-20" x="279.541016"/>
      <use xlink:href="#DejaVuSans-77" x="311.328125"/>
      <use xlink:href="#DejaVuSans-69" x="393.115234"/>
      <use xlink:href="#DejaVuSans-74" x="420.898438"/>
      <use xlink:href="#DejaVuSans-68" x="460.107422"/>
      <use xlink:href="#DejaVuSans-20" x="523.486328"/>
      <use xlink:href="#DejaVuSans-63" x="555.273438"/>
      <use xlink:href="#DejaVuSans-3d" x="610.253906"/>
      <use xlink:href="#DejaVuSans-31" x="694.042969"/>
      <use xlink:href="#DejaVuSans-2c" x="757.666016"/>
      <use xlink:href="#DejaVuSans-20" x="789.453125"/>
      <use xlink:href="#DejaVuSans-3c3" x="821.240234"/>
      <use xlink:href="#DejaVuSans-3d" x="884.619141"/>
      <use xlink:href="#DejaVuSans-31" x="968.408203"/>
      <use xlink:href="#DejaVuSans-2c" x="1032.03125"/>
      <use xlink:href="#DejaVuSans-20" x="1063.818359"/>
      <use xlink:href="#DejaVuSans-3d5" x="1095.605469"/>
      <use xlink:href="#DejaVuSans-3d" x="1161.572266"/>
      <use xlink:href="#DejaVuSans-30" x="1245.361328"/>
      <use xlink:href="#DejaVuSans-2e" x="1308.984375"/>
      <use xlink:href="#DejaVuSans-35" x="1340.771484"/>
     </g>
    </g>
   </g>
  </g>
  <g id="axes_2">
   <g id="patch_8">
    <path d="M 32.515 534.04 
L 709.2 534.04 
L 709.2 294.93 
L 32.515 294.93 
z
" style="fill: #ffffff"/>
   </g>
   <g id="matplotlib.axis_3">
    <g id="xtick_7">
     <g id="line2d_14">
      <g>
       <use xlink:href="#mb1fb0cee13" x="63.273409" y="534.04" style="stroke: #000000; stroke-width: 0.8"/>
      </g>
     </g>
     <g id="text_8">
      <!-- 0 -->
      <g transform="translate(60.092159 548.638438) scale(0.1 -0.1)">
       <use xlink:href="#DejaVuSans-30"/>
      </g>
     </g>
    </g>
    <g id="xtick_8">
     <g id="line2d_15">
      <g>
       <use xlink:href="#mb1fb0cee13" x="187.549809" y="534.04" style="stroke: #000000; stroke-width: 0.8"/>
      </g>
     </g>
     <g id="text_9">
      <!-- 20 -->
      <g transform="translate(181.187309 548.638438) scale(0.1 -0.1)">
       <use xlink:href="#DejaVuSans-32"/>
       <use xlink:href="#DejaVuSans-30" x="63.623047"/>
      </g>
     </g>
    </g>
    <g id="xtick_9">
     <g id="line2d_16">
      <g>
       <use xlink:href="#mb1fb0cee13" x="311.82621" y="534.04" style="stroke: #000000; stroke-width: 0.8"/>
      </g>
     </g>
     <g id="text_10">
      <!-- 40 -->
      <g transform="translate(305.46371 548.638438) scale(0.1 -0.1)">
       <use xlink:href="#DejaVuSans-34"/>
       <use xlink:href="#DejaVuSans-30" x="63.623047"/>
      </g>
     </g>
    </g>
    <g id="xtick_10">
     <g id="line2d_17">
      <g>
       <use xlink:href="#mb1fb0cee13" x="436.10261" y="534.04" style="stroke: #000000; stroke-width: 0.8"/>
      </g>
     </g>
     <g id="text_11">
      <!-- 60 -->
      <g transform="translate(429.74011 548.638438) scale(0.1 -0.1)">
       <defs>
        <path id="DejaVuSans-36" d="M 2113 2584 
Q 1688 2584 1439 2293 
Q 1191 2003 1191 1497 
Q 1191 994 1439 701 
Q 1688 409 2113 409 
Q 2538 409 2786 701 
Q 3034 994 3034 1497 
Q 3034 2003 2786 2293 
Q 2538 2584 2113 2584 
z
M 3366 4563 
L 3366 3988 
Q 3128 4100 2886 4159 
Q 2644 4219 2406 4219 
Q 1781 4219 1451 3797 
Q 1122 3375 1075 2522 
Q 1259 2794 1537 2939 
Q 1816 3084 2150 3084 
Q 2853 3084 3261 2657 
Q 3669 2231 3669 1497 
Q 3669 778 3244 343 
Q 2819 -91 2113 -91 
Q 1303 -91 875 529 
Q 447 1150 447 2328 
Q 447 3434 972 4092 
Q 1497 4750 2381 4750 
Q 2619 4750 2861 4703 
Q 3103 4656 3366 4563 
z
" transform="scale(0.015625)"/>
       </defs>
       <use xlink:href="#DejaVuSans-36"/>
       <use xlink:href="#DejaVuSans-30" x="63.623047"/>
      </g>
     </g>
    </g>
    <g id="xtick_11">
     <g id="line2d_18">
      <g>
       <use xlink:href="#mb1fb0cee13" x="560.379011" y="534.04" style="stroke: #000000; stroke-width: 0.8"/>
      </g>
     </g>
     <g id="text_12">
      <!-- 80 -->
      <g transform="translate(554.016511 548.638438) scale(0.1 -0.1)">
       <defs>
        <path id="DejaVuSans-38" d="M 2034 2216 
Q 1584 2216 1326 1975 
Q 1069 1734 1069 1313 
Q 1069 891 1326 650 
Q 1584 409 2034 409 
Q 2484 409 2743 651 
Q 3003 894 3003 1313 
Q 3003 1734 2745 1975 
Q 2488 2216 2034 2216 
z
M 1403 2484 
Q 997 2584 770 2862 
Q 544 3141 544 3541 
Q 544 4100 942 4425 
Q 1341 4750 2034 4750 
Q 2731 4750 3128 4425 
Q 3525 4100 3525 3541 
Q 3525 3141 3298 2862 
Q 3072 2584 2669 2484 
Q 3125 2378 3379 2068 
Q 3634 1759 3634 1313 
Q 3634 634 3220 271 
Q 2806 -91 2034 -91 
Q 1263 -91 848 271 
Q 434 634 434 1313 
Q 434 1759 690 2068 
Q 947 2378 1403 2484 
z
M 1172 3481 
Q 1172 3119 1398 2916 
Q 1625 2713 2034 2713 
Q 2441 2713 2670 2916 
Q 2900 3119 2900 3481 
Q 2900 3844 2670 4047 
Q 2441 4250 2034 4250 
Q 1625 4250 1398 4047 
Q 1172 3844 1172 3481 
z
" transform="scale(0.015625)"/>
       </defs>
       <use xlink:href="#DejaVuSans-38"/>
       <use xlink:href="#DejaVuSans-30" x="63.623047"/>
      </g>
     </g>
    </g>
    <g id="xtick_12">
     <g id="line2d_19">
      <g>
       <use xlink:href="#mb1fb0cee13" x="684.655411" y="534.04" style="stroke: #000000; stroke-width: 0.8"/>
      </g>
     </g>
     <g id="text_13">
      <!-- 100 -->
      <g transform="translate(675.111661 548.638438) scale(0.1 -0.1)">
       <use xlink:href="#DejaVuSans-31"/>
       <use xlink:href="#DejaVuSans-30" x="63.623047"/>
       <use xlink:href="#DejaVuSans-30" x="127.246094"/>
      </g>
     </g>
    </g>
    <g id="text_14">
     <!-- t -->
     <g transform="translate(368.897344 562.316562) scale(0.1 -0.1)">
      <use xlink:href="#DejaVuSans-74"/>
     </g>
    </g>
   </g>
   <g id="matplotlib.axis_4">
    <g id="ytick_6">
     <g id="line2d_20">
      <g>
       <use xlink:href="#m9ec7f91b65" x="32.515" y="507.943316" style="stroke: #000000; stroke-width: 0.8"/>
      </g>
     </g>
     <g id="text_15">
      <!-- −1 -->
      <g transform="translate(10.772813 511.742535) scale(0.1 -0.1)">
       <defs>
        <path id="DejaVuSans-2212" d="M 678 2272 
L 4684 2272 
L 4684 1741 
L 678 1741 
L 678 2272 
z
" transform="scale(0.015625)"/>
       </defs>
       <use xlink:href="#DejaVuSans-2212"/>
       <use xlink:href="#DejaVuSans-31" x="83.789062"/>
      </g>
     </g>
    </g>
    <g id="ytick_7">
     <g id="line2d_21">
      <g>
       <use xlink:href="#m9ec7f91b65" x="32.515" y="480.496525" style="stroke: #000000; stroke-width: 0.8"/>
      </g>
     </g>
     <g id="text_16">
      <!-- 0 -->
      <g transform="translate(19.1525 484.295744) scale(0.1 -0.1)">
       <use xlink:href="#DejaVuSans-30"/>
      </g>
     </g>
    </g>
    <g id="ytick_8">
     <g id="line2d_22">
      <g>
       <use xlink:href="#m9ec7f91b65" x="32.515" y="453.049735" style="stroke: #000000; stroke-width: 0.8"/>
      </g>
     </g>
     <g id="text_17">
      <!-- 1 -->
      <g transform="translate(19.1525 456.848953) scale(0.1 -0.1)">
       <use xlink:href="#DejaVuSans-31"/>
      </g>
     </g>
    </g>
    <g id="ytick_9">
     <g id="line2d_23">
      <g>
       <use xlink:href="#m9ec7f91b65" x="32.515" y="425.602944" style="stroke: #000000; stroke-width: 0.8"/>
      </g>
     </g>
     <g id="text_18">
      <!-- 2 -->
      <g transform="translate(19.1525 429.402163) scale(0.1 -0.1)">
       <use xlink:href="#DejaVuSans-32"/>
      </g>
     </g>
    </g>
    <g id="ytick_10">
     <g id="line2d_24">
      <g>
       <use xlink:href="#m9ec7f91b65" x="32.515" y="398.156153" style="stroke: #000000; stroke-width: 0.8"/>
      </g>
     </g>
     <g id="text_19">
      <!-- 3 -->
      <g transform="translate(19.1525 401.955372) scale(0.1 -0.1)">
       <use xlink:href="#DejaVuSans-33"/>
      </g>
     </g>
    </g>
    <g id="ytick_11">
     <g id="line2d_25">
      <g>
       <use xlink:href="#m9ec7f91b65" x="32.515" y="370.709363" style="stroke: #000000; stroke-width: 0.8"/>
      </g>
     </g>
     <g id="text_20">
      <!-- 4 -->
      <g transform="translate(19.1525 374.508581) scale(0.1 -0.1)">
       <use xlink:href="#DejaVuSans-34"/>
      </g>
     </g>
    </g>
    <g id="ytick_12">
     <g id="line2d_26">
      <g>
       <use xlink:href="#m9ec7f91b65" x="32.515" y="343.262572" style="stroke: #000000; stroke-width: 0.8"/>
      </g>
     </g>
     <g id="text_21">
      <!-- 5 -->
      <g transform="translate(19.1525 347.061791) scale(0.1 -0.1)">
       <use xlink:href="#DejaVuSans-35"/>
      </g>
     </g>
    </g>
    <g id="ytick_13">
     <g id="line2d_27">
      <g>
       <use xlink:href="#m9ec7f91b65" x="32.515" y="315.815781" style="stroke: #000000; stroke-width: 0.8"/>
      </g>
     </g>
     <g id="text_22">
      <!-- 6 -->
      <g transform="translate(19.1525 319.615) scale(0.1 -0.1)">
       <use xlink:href="#DejaVuSans-36"/>
      </g>
     </g>
    </g>
   </g>
   <g id="line2d_28">
    <path d="M 63.273409 416.665409 
L 69.487229 377.064649 
L 75.701049 410.020443 
L 81.914869 461.349001 
L 88.128689 429.749676 
L 94.342509 440.01513 
L 100.556329 437.087223 
L 106.770149 506.733029 
L 112.983969 469.372855 
L 119.197789 447.270139 
L 125.411609 422.210229 
L 131.625429 426.110687 
L 137.839249 399.870887 
L 144.053069 408.305671 
L 150.266889 411.812997 
L 156.480709 410.452192 
L 162.694529 434.690503 
L 168.908349 452.027901 
L 175.122169 434.795147 
L 181.335989 441.853078 
L 187.549809 476.149546 
L 193.763629 369.49154 
L 199.977449 422.05274 
L 206.19127 407.725357 
L 212.40509 431.267976 
L 218.61891 437.406782 
L 224.83273 408.592458 
L 231.04655 417.229887 
L 237.26037 395.057778 
L 243.47419 422.096732 
L 249.68801 413.277189 
L 255.90183 448.42885 
L 262.11565 479.2383 
L 268.32947 453.731051 
L 274.54329 454.927312 
L 280.75711 380.066683 
L 286.97093 399.666659 
L 293.18475 395.268506 
L 299.39857 398.210257 
L 305.61239 456.19775 
L 311.82621 425.914296 
L 318.04003 389.65831 
L 324.25385 420.234614 
L 330.46767 444.705898 
L 336.68149 411.53123 
L 342.89531 453.900205 
L 349.10913 419.504094 
L 355.32295 403.264267 
L 361.53677 428.649362 
L 367.75059 401.380437 
L 373.96441 413.401196 
L 380.17823 435.220756 
L 386.39205 430.965116 
L 392.60587 413.299691 
L 398.81969 423.633926 
L 405.03351 447.244117 
L 411.24733 375.822575 
L 417.46115 379.388852 
L 423.67497 451.825093 
L 429.88879 474.209071 
L 436.10261 416.279419 
L 442.31643 459.823803 
L 448.53025 473.267214 
L 454.74407 480.079858 
L 460.95789 435.503994 
L 467.17171 451.708698 
L 473.38553 475.320673 
L 479.59935 449.841108 
L 485.81317 447.729609 
L 492.02699 453.078543 
L 498.24081 446.104175 
L 504.45463 416.910927 
L 510.66845 451.369326 
L 516.88227 417.654306 
L 523.09609 410.233921 
L 529.30991 424.009226 
L 535.52373 434.498707 
L 541.737551 454.033941 
L 547.951371 456.533758 
L 554.165191 445.088508 
L 560.379011 402.026154 
L 566.592831 404.888395 
L 572.806651 423.78693 
L 579.020471 432.656623 
L 585.234291 375.63622 
L 591.448111 394.613824 
L 597.661931 473.909755 
L 603.875751 458.654736 
L 610.089571 449.664379 
L 616.303391 429.121443 
L 622.517211 497.403646 
L 628.731031 425.640607 
L 634.944851 380.465077 
L 641.158671 432.066505 
L 647.372491 414.876254 
L 653.586311 441.535271 
L 659.800131 439.068838 
L 666.013951 454.387762 
L 672.227771 449.274 
L 678.441591 455.68726 
" clip-path="url(#p54c4174650)" style="fill: none; stroke: #1f77b4; stroke-width: 1.5; stroke-linecap: square"/>
   </g>
   <g id="line2d_29">
    <path d="M 63.273409 460.487926 
L 69.487229 428.579094 
L 75.701049 393.069083 
L 81.914869 402.665274 
L 88.128689 428.187461 
L 94.342509 414.700347 
L 100.556329 407.216758 
L 106.770149 394.034867 
L 112.983969 390.141869 
L 119.197789 441.249983 
L 125.411609 469.518578 
L 131.625429 453.503481 
L 137.839249 386.068948 
L 144.053069 376.325086 
L 150.266889 421.417552 
L 156.480709 399.94282 
L 162.694529 406.577126 
L 168.908349 426.950219 
L 175.122169 415.837732 
L 181.335989 426.798022 
L 187.549809 462.473054 
L 193.763629 453.070411 
L 199.977449 466.140349 
L 206.19127 411.801215 
L 212.40509 378.929812 
L 218.61891 384.773638 
L 224.83273 420.555542 
L 231.04655 411.310882 
L 237.26037 418.858323 
L 243.47419 423.836332 
L 249.68801 432.839445 
L 255.90183 456.488173 
L 262.11565 437.469581 
L 268.32947 432.602622 
L 274.54329 435.009592 
L 280.75711 445.82702 
L 286.97093 489.959721 
L 293.18475 459.814298 
L 299.39857 398.320286 
L 305.61239 458.099825 
L 311.82621 514.576608 
L 318.04003 491.518547 
L 324.25385 433.49486 
L 330.46767 446.856849 
L 336.68149 418.617187 
L 342.89531 387.712069 
L 349.10913 379.275209 
L 355.32295 391.174703 
L 361.53677 411.010962 
L 367.75059 443.75188 
L 373.96441 414.165863 
L 380.17823 372.083093 
L 386.39205 406.247013 
L 392.60587 425.024502 
L 398.81969 418.564923 
L 405.03351 437.225887 
L 411.24733 411.270207 
L 417.46115 381.036924 
L 423.67497 491.534144 
L 429.88879 435.891167 
L 436.10261 461.717069 
L 442.31643 469.62287 
L 448.53025 423.510973 
L 454.74407 479.818659 
L 460.95789 473.023727 
L 467.17171 480.870848 
L 473.38553 431.911253 
L 479.59935 438.649514 
L 485.81317 450.358194 
L 492.02699 390.040017 
L 498.24081 428.221782 
L 504.45463 428.590719 
L 510.66845 508.720684 
L 516.88227 496.223252 
L 523.09609 502.424324 
L 529.30991 474.477528 
L 535.52373 444.954869 
L 541.737551 435.244134 
L 547.951371 438.085097 
L 554.165191 460.229112 
L 560.379011 419.850784 
L 566.592831 460.183735 
L 572.806651 448.886732 
L 579.020471 434.692347 
L 585.234291 423.032475 
L 591.448111 457.833313 
L 597.661931 434.868773 
L 603.875751 481.691646 
L 610.089571 443.842576 
L 616.303391 459.948298 
L 622.517211 414.912925 
L 628.731031 421.254494 
L 634.944851 392.784515 
L 641.158671 387.681588 
L 647.372491 408.497397 
L 653.586311 398.815523 
L 659.800131 404.996736 
L 666.013951 467.012214 
L 672.227771 459.43347 
L 678.441591 477.626721 
" clip-path="url(#p54c4174650)" style="fill: none; stroke: #ff7f0e; stroke-width: 1.5; stroke-linecap: square"/>
   </g>
   <g id="line2d_30">
    <path d="M 63.273409 468.501675 
L 69.487229 440.027397 
L 75.701049 467.676215 
L 81.914869 410.683636 
L 88.128689 409.866507 
L 94.342509 453.459855 
L 100.556329 397.148075 
L 106.770149 390.931003 
L 112.983969 389.534367 
L 119.197789 478.639598 
L 125.411609 421.705518 
L 131.625429 371.07618 
L 137.839249 389.026433 
L 144.053069 454.860071 
L 150.266889 446.885364 
L 156.480709 380.42686 
L 162.694529 353.399705 
L 168.908349 411.348139 
L 175.122169 416.320385 
L 181.335989 430.600106 
L 187.549809 440.378181 
L 193.763629 448.426886 
L 199.977449 478.600117 
L 206.19127 438.122802 
L 212.40509 416.830926 
L 218.61891 443.358514 
L 224.83273 410.203502 
L 231.04655 448.892073 
L 237.26037 441.208504 
L 243.47419 392.756066 
L 249.68801 418.559482 
L 255.90183 427.77333 
L 262.11565 427.23923 
L 268.32947 442.210155 
L 274.54329 438.286832 
L 280.75711 497.861177 
L 286.97093 512.299908 
L 293.18475 488.260754 
L 299.39857 483.830442 
L 305.61239 448.010932 
L 311.82621 450.365092 
L 318.04003 453.783952 
L 324.25385 400.610263 
L 330.46767 376.432949 
L 336.68149 399.375341 
L 342.89531 405.762316 
L 349.10913 420.2264 
L 355.32295 397.452536 
L 361.53677 375.762963 
L 367.75059 403.141737 
L 373.96441 444.410262 
L 380.17823 451.790242 
L 386.39205 454.105256 
L 392.60587 431.662634 
L 398.81969 459.391845 
L 405.03351 439.587356 
L 411.24733 415.592717 
L 417.46115 466.283727 
L 423.67497 478.199651 
L 429.88879 445.896309 
L 436.10261 461.333882 
L 442.31643 422.33018 
L 448.53025 397.264136 
L 454.74407 423.385876 
L 460.95789 410.861015 
L 467.17171 404.482663 
L 473.38553 394.098291 
L 479.59935 432.857556 
L 485.81317 373.582684 
L 492.02699 398.036896 
L 498.24081 394.323567 
L 504.45463 391.62258 
L 510.66845 413.436655 
L 516.88227 438.728354 
L 523.09609 425.145719 
L 529.30991 443.893765 
L 535.52373 433.160374 
L 541.737551 442.233095 
L 547.951371 475.927507 
L 554.165191 415.298962 
L 560.379011 405.894451 
L 566.592831 360.145601 
L 572.806651 382.444439 
L 579.020471 418.380407 
L 585.234291 406.506929 
L 591.448111 406.745607 
L 597.661931 371.040996 
L 603.875751 407.43457 
L 610.089571 408.591238 
L 616.303391 434.775334 
L 622.517211 394.844998 
L 628.731031 370.000449 
L 634.944851 428.611288 
L 641.158671 404.839641 
L 647.372491 409.984392 
L 653.586311 397.223036 
L 659.800131 435.84733 
L 666.013951 435.858484 
L 672.227771 438.102545 
L 678.441591 441.252161 
" clip-path="url(#p54c4174650)" style="fill: none; stroke: #2ca02c; stroke-width: 1.5; stroke-linecap: square"/>
   </g>
   <g id="line2d_31">
    <path d="M 63.273409 490.609056 
L 69.487229 422.451753 
L 75.701049 481.957554 
L 81.914869 493.152183 
L 88.128689 488.566328 
L 94.342509 427.142927 
L 100.556329 436.149708 
L 106.770149 444.195103 
L 112.983969 426.322759 
L 119.197789 414.541998 
L 125.411609 401.366074 
L 131.625429 410.786022 
L 137.839249 417.768804 
L 144.053069 418.599774 
L 150.266889 441.631475 
L 156.480709 449.058732 
L 162.694529 427.546037 
L 168.908349 487.133213 
L 175.122169 444.861357 
L 181.335989 403.230469 
L 187.549809 378.163464 
L 193.763629 415.741192 
L 199.977449 415.590268 
L 206.19127 387.052471 
L 212.40509 379.45485 
L 218.61891 405.396263 
L 224.83273 402.259479 
L 231.04655 455.025836 
L 237.26037 441.706524 
L 243.47419 391.124569 
L 249.68801 419.559239 
L 255.90183 433.385194 
L 262.11565 429.81167 
L 268.32947 469.578412 
L 274.54329 449.226056 
L 280.75711 450.757297 
L 286.97093 423.367572 
L 293.18475 431.569828 
L 299.39857 442.351063 
L 305.61239 422.481857 
L 311.82621 408.497749 
L 318.04003 395.847952 
L 324.25385 429.980312 
L 330.46767 461.743208 
L 336.68149 420.760277 
L 342.89531 420.653732 
L 349.10913 372.125607 
L 355.32295 387.338454 
L 361.53677 444.978884 
L 367.75059 481.557828 
L 373.96441 457.383009 
L 380.17823 458.126967 
L 386.39205 510.688862 
L 392.60587 512.103022 
L 398.81969 496.230224 
L 405.03351 493.38961 
L 411.24733 483.862715 
L 417.46115 436.080961 
L 423.67497 472.668659 
L 429.88879 442.087221 
L 436.10261 443.938257 
L 442.31643 426.811812 
L 448.53025 420.262401 
L 454.74407 444.753158 
L 460.95789 433.524763 
L 467.17171 433.793598 
L 473.38553 449.601897 
L 479.59935 477.12396 
L 485.81317 414.824114 
L 492.02699 437.245447 
L 498.24081 457.915111 
L 504.45463 402.619178 
L 510.66845 384.506743 
L 516.88227 452.235868 
L 523.09609 486.85415 
L 529.30991 471.519312 
L 535.52373 401.323535 
L 541.737551 385.925505 
L 547.951371 391.635905 
L 554.165191 393.138427 
L 560.379011 390.103536 
L 566.592831 341.013605 
L 572.806651 377.913586 
L 579.020471 429.766154 
L 585.234291 448.012782 
L 591.448111 436.795217 
L 597.661931 435.394949 
L 603.875751 459.729135 
L 610.089571 395.657994 
L 616.303391 382.926795 
L 622.517211 369.772587 
L 628.731031 362.981873 
L 634.944851 405.281405 
L 641.158671 411.17507 
L 647.372491 426.745768 
L 653.586311 416.101764 
L 659.800131 431.060922 
L 666.013951 435.331466 
L 672.227771 433.487556 
L 678.441591 427.66181 
" clip-path="url(#p54c4174650)" style="fill: none; stroke: #d62728; stroke-width: 1.5; stroke-linecap: square"/>
   </g>
   <g id="line2d_32">
    <path d="M 63.273409 431.113518 
L 69.487229 384.562134 
L 75.701049 404.323257 
L 81.914869 434.859849 
L 88.128689 449.014892 
L 94.342509 448.275088 
L 100.556329 442.882444 
L 106.770149 427.904404 
L 112.983969 421.105908 
L 119.197789 361.291686 
L 125.411609 356.427166 
L 131.625429 409.50432 
L 137.839249 417.476209 
L 144.053069 391.92019 
L 150.266889 457.600831 
L 156.480709 516.481589 
L 162.694529 486.105475 
L 168.908349 488.833451 
L 175.122169 458.305933 
L 181.335989 420.320015 
L 187.549809 424.17656 
L 193.763629 435.578057 
L 199.977449 434.367131 
L 206.19127 430.733458 
L 212.40509 420.726098 
L 218.61891 434.501426 
L 224.83273 428.288488 
L 231.04655 439.055827 
L 237.26037 447.338243 
L 243.47419 455.887253 
L 249.68801 430.344298 
L 255.90183 416.486648 
L 262.11565 372.562089 
L 268.32947 406.750047 
L 274.54329 418.359187 
L 280.75711 422.000097 
L 286.97093 405.850713 
L 293.18475 418.793524 
L 299.39857 408.851727 
L 305.61239 440.46007 
L 311.82621 482.498219 
L 318.04003 457.185417 
L 324.25385 418.579699 
L 330.46767 426.528547 
L 336.68149 427.831185 
L 342.89531 453.040481 
L 349.10913 463.37168 
L 355.32295 447.542055 
L 361.53677 425.481539 
L 367.75059 377.713809 
L 373.96441 397.866997 
L 380.17823 402.224918 
L 386.39205 469.449174 
L 392.60587 430.412077 
L 398.81969 419.387248 
L 405.03351 375.864424 
L 411.24733 388.524864 
L 417.46115 363.934244 
L 423.67497 415.73762 
L 429.88879 407.331207 
L 436.10261 412.322622 
L 442.31643 408.29298 
L 448.53025 387.247458 
L 454.74407 424.53092 
L 460.95789 368.16504 
L 467.17171 374.067392 
L 473.38553 407.95205 
L 479.59935 416.249585 
L 485.81317 412.906347 
L 492.02699 352.448976 
L 498.24081 380.048558 
L 504.45463 413.002112 
L 510.66845 405.168865 
L 516.88227 345.240468 
L 523.09609 359.166937 
L 529.30991 404.460801 
L 535.52373 398.333257 
L 541.737551 419.98805 
L 547.951371 442.843146 
L 554.165191 406.597462 
L 560.379011 370.452544 
L 566.592831 390.288631 
L 572.806651 402.967435 
L 579.020471 415.628108 
L 585.234291 426.272889 
L 591.448111 400.925771 
L 597.661931 420.412199 
L 603.875751 412.557902 
L 610.089571 337.820109 
L 616.303391 351.443046 
L 622.517211 456.727445 
L 628.731031 463.255564 
L 634.944851 475.74243 
L 641.158671 456.376015 
L 647.372491 459.644467 
L 653.586311 483.837579 
L 659.800131 473.751928 
L 666.013951 432.566244 
L 672.227771 411.900668 
L 678.441591 379.959112 
" clip-path="url(#p54c4174650)" style="fill: none; stroke: #9467bd; stroke-width: 1.5; stroke-linecap: square"/>
   </g>
   <g id="line2d_33">
    <path d="M 63.273409 462.330029 
L 69.487229 470.722284 
L 75.701049 415.185407 
L 81.914869 405.489494 
L 88.128689 428.027491 
L 94.342509 465.869487 
L 100.556329 444.807427 
L 106.770149 476.014086 
L 112.983969 447.212781 
L 119.197789 459.990431 
L 125.411609 437.742762 
L 131.625429 427.908845 
L 137.839249 457.083341 
L 144.053069 448.860172 
L 150.266889 412.346661 
L 156.480709 416.130833 
L 162.694529 428.480173 
L 168.908349 451.691749 
L 175.122169 393.432277 
L 181.335989 401.015526 
L 187.549809 431.054023 
L 193.763629 456.53846 
L 199.977449 407.500096 
L 206.19127 411.938697 
L 212.40509 432.84792 
L 218.61891 428.353543 
L 224.83273 455.097511 
L 231.04655 432.572107 
L 237.26037 403.925635 
L 243.47419 388.089021 
L 249.68801 436.174772 
L 255.90183 422.393709 
L 262.11565 448.069106 
L 268.32947 436.773806 
L 274.54329 451.324659 
L 280.75711 434.804431 
L 286.97093 450.630935 
L 293.18475 388.459703 
L 299.39857 437.319816 
L 305.61239 419.21671 
L 311.82621 420.916858 
L 318.04003 415.598988 
L 324.25385 401.485615 
L 330.46767 407.61276 
L 336.68149 440.420281 
L 342.89531 402.27035 
L 349.10913 441.184451 
L 355.32295 488.908619 
L 361.53677 453.46203 
L 367.75059 443.174131 
L 373.96441 417.175506 
L 380.17823 400.254412 
L 386.39205 401.718847 
L 392.60587 441.706953 
L 398.81969 484.096701 
L 405.03351 453.150628 
L 411.24733 412.189913 
L 417.46115 443.186307 
L 423.67497 454.369719 
L 429.88879 477.219765 
L 436.10261 487.303691 
L 442.31643 478.170295 
L 448.53025 434.975263 
L 454.74407 397.067509 
L 460.95789 429.531758 
L 467.17171 449.920508 
L 473.38553 416.32147 
L 479.59935 426.966309 
L 485.81317 445.585344 
L 492.02699 425.75202 
L 498.24081 421.585927 
L 504.45463 482.056232 
L 510.66845 462.455058 
L 516.88227 396.039811 
L 523.09609 457.797832 
L 529.30991 427.526344 
L 535.52373 430.418897 
L 541.737551 434.065248 
L 547.951371 422.644293 
L 554.165191 433.92564 
L 560.379011 388.631855 
L 566.592831 402.044043 
L 572.806651 350.718435 
L 579.020471 354.38019 
L 585.234291 389.879278 
L 591.448111 391.369944 
L 597.661931 395.612948 
L 603.875751 422.482163 
L 610.089571 444.67964 
L 616.303391 409.619744 
L 622.517211 445.084196 
L 628.731031 411.208893 
L 634.944851 432.74332 
L 641.158671 444.854487 
L 647.372491 412.207716 
L 653.586311 429.680128 
L 659.800131 456.147999 
L 666.013951 470.682562 
L 672.227771 403.234612 
L 678.441591 401.180607 
" clip-path="url(#p54c4174650)" style="fill: none; stroke: #8c564b; stroke-width: 1.5; stroke-linecap: square"/>
   </g>
   <g id="line2d_34">
    <path d="M 63.273409 432.393967 
L 69.487229 391.719205 
L 75.701049 430.194312 
L 81.914869 424.131488 
L 88.128689 441.109896 
L 94.342509 437.852096 
L 100.556329 452.969532 
L 106.770149 449.651825 
L 112.983969 394.470689 
L 119.197789 412.347592 
L 125.411609 390.31072 
L 131.625429 420.655621 
L 137.839249 395.500477 
L 144.053069 388.782018 
L 150.266889 462.005859 
L 156.480709 437.497075 
L 162.694529 421.607962 
L 168.908349 379.394346 
L 175.122169 369.634076 
L 181.335989 372.843386 
L 187.549809 460.918769 
L 193.763629 461.62492 
L 199.977449 465.955656 
L 206.19127 481.359179 
L 212.40509 450.396762 
L 218.61891 407.113125 
L 224.83273 407.909353 
L 231.04655 385.686091 
L 237.26037 438.821581 
L 243.47419 447.903741 
L 249.68801 455.660619 
L 255.90183 431.193985 
L 262.11565 429.292045 
L 268.32947 428.209621 
L 274.54329 415.318936 
L 280.75711 363.773141 
L 286.97093 425.936018 
L 293.18475 447.215867 
L 299.39857 388.695239 
L 305.61239 453.257947 
L 311.82621 461.978591 
L 318.04003 448.945127 
L 324.25385 445.235756 
L 330.46767 384.030047 
L 336.68149 404.15265 
L 342.89531 425.989745 
L 349.10913 382.702638 
L 355.32295 370.783829 
L 361.53677 432.853735 
L 367.75059 422.906105 
L 373.96441 385.655348 
L 380.17823 402.249742 
L 386.39205 364.188728 
L 392.60587 426.264688 
L 398.81969 440.633791 
L 405.03351 397.179728 
L 411.24733 381.400123 
L 417.46115 441.418674 
L 423.67497 448.344114 
L 429.88879 457.444821 
L 436.10261 445.727554 
L 442.31643 412.100487 
L 448.53025 419.390978 
L 454.74407 426.364624 
L 460.95789 408.501222 
L 467.17171 458.730704 
L 473.38553 432.738248 
L 479.59935 453.512846 
L 485.81317 417.400876 
L 492.02699 432.464594 
L 498.24081 460.168346 
L 504.45463 383.290314 
L 510.66845 451.014498 
L 516.88227 456.468618 
L 523.09609 430.331535 
L 529.30991 416.725857 
L 535.52373 403.726272 
L 541.737551 421.924041 
L 547.951371 447.020037 
L 554.165191 437.782956 
L 560.379011 384.075958 
L 566.592831 432.516596 
L 572.806651 480.73136 
L 579.020471 460.036048 
L 585.234291 424.475159 
L 591.448111 495.873063 
L 597.661931 479.278845 
L 603.875751 433.875537 
L 610.089571 456.030097 
L 616.303391 442.025649 
L 622.517211 442.715728 
L 628.731031 442.273503 
L 634.944851 461.891655 
L 641.158671 462.201983 
L 647.372491 462.772982 
L 653.586311 425.447844 
L 659.800131 414.561462 
L 666.013951 387.002438 
L 672.227771 432.857668 
L 678.441591 451.810678 
" clip-path="url(#p54c4174650)" style="fill: none; stroke: #e377c2; stroke-width: 1.5; stroke-linecap: square"/>
   </g>
   <g id="line2d_35">
    <path d="M 63.273409 447.818876 
L 69.487229 405.934259 
L 75.701049 415.640605 
L 81.914869 384.027592 
L 88.128689 417.718104 
L 94.342509 421.789772 
L 100.556329 387.667624 
L 106.770149 411.550755 
L 112.983969 411.295037 
L 119.197789 415.768538 
L 125.411609 392.032243 
L 131.625429 414.166388 
L 137.839249 441.437828 
L 144.053069 405.1526 
L 150.266889 416.890844 
L 156.480709 421.113834 
L 162.694529 415.600454 
L 168.908349 402.784768 
L 175.122169 406.031336 
L 181.335989 459.530624 
L 187.549809 406.685852 
L 193.763629 428.252643 
L 199.977449 435.967176 
L 206.19127 428.442326 
L 212.40509 397.985856 
L 218.61891 413.080718 
L 224.83273 429.581941 
L 231.04655 432.974059 
L 237.26037 442.433152 
L 243.47419 421.650833 
L 249.68801 401.311277 
L 255.90183 411.966438 
L 262.11565 361.791861 
L 268.32947 397.059619 
L 274.54329 398.656505 
L 280.75711 404.213321 
L 286.97093 384.075701 
L 293.18475 438.635901 
L 299.39857 442.79675 
L 305.61239 457.159043 
L 311.82621 458.485645 
L 318.04003 424.034387 
L 324.25385 462.750311 
L 330.46767 498.127399 
L 336.68149 432.781483 
L 342.89531 415.28536 
L 349.10913 440.173397 
L 355.32295 436.351481 
L 361.53677 431.143448 
L 367.75059 456.568407 
L 373.96441 402.136739 
L 380.17823 411.724681 
L 386.39205 420.197754 
L 392.60587 403.538068 
L 398.81969 402.667303 
L 405.03351 414.899963 
L 411.24733 382.759753 
L 417.46115 439.288421 
L 423.67497 471.334021 
L 429.88879 501.815028 
L 436.10261 486.581333 
L 442.31643 457.962519 
L 448.53025 491.795695 
L 454.74407 418.501538 
L 460.95789 372.53278 
L 467.17171 423.858423 
L 473.38553 455.157097 
L 479.59935 452.05866 
L 485.81317 470.380896 
L 492.02699 425.377693 
L 498.24081 408.102546 
L 504.45463 401.249259 
L 510.66845 408.570735 
L 516.88227 477.773231 
L 523.09609 475.144639 
L 529.30991 487.250071 
L 535.52373 486.312147 
L 541.737551 491.867769 
L 547.951371 422.983504 
L 554.165191 419.601653 
L 560.379011 426.623839 
L 566.592831 367.635734 
L 572.806651 422.061703 
L 579.020471 388.379407 
L 585.234291 402.603491 
L 591.448111 467.58354 
L 597.661931 497.839723 
L 603.875751 443.103893 
L 610.089571 430.807264 
L 616.303391 438.909284 
L 622.517211 389.994016 
L 628.731031 415.437732 
L 634.944851 408.330916 
L 641.158671 413.327819 
L 647.372491 443.132093 
L 653.586311 408.708777 
L 659.800131 364.72513 
L 666.013951 371.605041 
L 672.227771 469.397328 
L 678.441591 432.474397 
" clip-path="url(#p54c4174650)" style="fill: none; stroke: #7f7f7f; stroke-width: 1.5; stroke-linecap: square"/>
   </g>
   <g id="line2d_36">
    <path d="M 63.273409 448.455397 
L 69.487229 449.83458 
L 75.701049 438.201489 
L 81.914869 405.544069 
L 88.128689 434.32429 
L 94.342509 381.711009 
L 100.556329 392.558045 
L 106.770149 351.783332 
L 112.983969 381.150073 
L 119.197789 401.050184 
L 125.411609 439.834747 
L 131.625429 442.489792 
L 137.839249 428.163247 
L 144.053069 438.728663 
L 150.266889 431.74117 
L 156.480709 405.025598 
L 162.694529 399.691113 
L 168.908349 430.363615 
L 175.122169 422.973084 
L 181.335989 390.406845 
L 187.549809 386.293855 
L 193.763629 377.853564 
L 199.977449 461.944261 
L 206.19127 445.289862 
L 212.40509 407.568135 
L 218.61891 384.344469 
L 224.83273 411.541592 
L 231.04655 404.006099 
L 237.26037 373.142445 
L 243.47419 421.212658 
L 249.68801 424.8628 
L 255.90183 446.36388 
L 262.11565 439.60768 
L 268.32947 454.746708 
L 274.54329 402.028223 
L 280.75711 358.026676 
L 286.97093 399.048513 
L 293.18475 438.785124 
L 299.39857 393.722963 
L 305.61239 404.085644 
L 311.82621 440.716012 
L 318.04003 453.450347 
L 324.25385 492.036106 
L 330.46767 484.711969 
L 336.68149 453.511966 
L 342.89531 433.186444 
L 349.10913 433.485779 
L 355.32295 477.119962 
L 361.53677 407.202373 
L 367.75059 446.323227 
L 373.96441 473.701289 
L 380.17823 388.940876 
L 386.39205 381.512506 
L 392.60587 398.386388 
L 398.81969 436.346841 
L 405.03351 447.507515 
L 411.24733 484.57713 
L 417.46115 448.242374 
L 423.67497 433.887237 
L 429.88879 446.926376 
L 436.10261 471.45962 
L 442.31643 451.438567 
L 448.53025 448.801182 
L 454.74407 436.855597 
L 460.95789 394.245231 
L 467.17171 447.093388 
L 473.38553 414.527562 
L 479.59935 401.164907 
L 485.81317 443.899192 
L 492.02699 436.612875 
L 498.24081 391.141473 
L 504.45463 341.879726 
L 510.66845 382.793227 
L 516.88227 425.957001 
L 523.09609 430.637516 
L 529.30991 441.181773 
L 535.52373 452.413472 
L 541.737551 432.99026 
L 547.951371 435.041833 
L 554.165191 485.645389 
L 560.379011 466.647109 
L 566.592831 432.741077 
L 572.806651 416.635001 
L 579.020471 431.143531 
L 585.234291 470.5319 
L 591.448111 439.091885 
L 597.661931 435.862659 
L 603.875751 418.107685 
L 610.089571 474.636074 
L 616.303391 453.857608 
L 622.517211 404.138285 
L 628.731031 432.288179 
L 634.944851 444.587617 
L 641.158671 444.239741 
L 647.372491 421.99329 
L 653.586311 487.130922 
L 659.800131 471.038632 
L 666.013951 401.765974 
L 672.227771 432.86213 
L 678.441591 429.936542 
" clip-path="url(#p54c4174650)" style="fill: none; stroke: #bcbd22; stroke-width: 1.5; stroke-linecap: square"/>
   </g>
   <g id="line2d_37">
    <path d="M 63.273409 483.023635 
L 69.487229 428.403405 
L 75.701049 425.558274 
L 81.914869 414.607 
L 88.128689 422.797293 
L 94.342509 398.697604 
L 100.556329 390.151315 
L 106.770149 415.118257 
L 112.983969 429.196228 
L 119.197789 404.486224 
L 125.411609 458.593114 
L 131.625429 406.728431 
L 137.839249 461.349482 
L 144.053069 412.988562 
L 150.266889 455.916822 
L 156.480709 425.038403 
L 162.694529 416.863147 
L 168.908349 402.77569 
L 175.122169 387.812568 
L 181.335989 305.798636 
L 187.549809 409.447108 
L 193.763629 430.001975 
L 199.977449 422.985475 
L 206.19127 444.195372 
L 212.40509 466.331925 
L 218.61891 439.781176 
L 224.83273 384.647995 
L 231.04655 417.129885 
L 237.26037 380.062156 
L 243.47419 396.2709 
L 249.68801 404.871228 
L 255.90183 402.692943 
L 262.11565 403.097703 
L 268.32947 403.246141 
L 274.54329 410.881138 
L 280.75711 412.881663 
L 286.97093 441.990897 
L 293.18475 398.406253 
L 299.39857 398.177266 
L 305.61239 411.177381 
L 311.82621 372.860654 
L 318.04003 399.34092 
L 324.25385 361.136384 
L 330.46767 426.769069 
L 336.68149 439.027774 
L 342.89531 504.535057 
L 349.10913 453.71677 
L 355.32295 395.626881 
L 361.53677 370.413569 
L 367.75059 434.085051 
L 373.96441 417.093094 
L 380.17823 460.251802 
L 386.39205 418.187891 
L 392.60587 425.734955 
L 398.81969 369.342372 
L 405.03351 400.621089 
L 411.24733 429.533417 
L 417.46115 451.364011 
L 423.67497 469.149636 
L 429.88879 443.147927 
L 436.10261 435.111653 
L 442.31643 458.861905 
L 448.53025 458.977887 
L 454.74407 500.292788 
L 460.95789 486.239272 
L 467.17171 483.58079 
L 473.38553 462.993484 
L 479.59935 430.372399 
L 485.81317 419.808143 
L 492.02699 415.140727 
L 498.24081 444.496349 
L 504.45463 438.271263 
L 510.66845 481.362506 
L 516.88227 445.856215 
L 523.09609 443.005022 
L 529.30991 481.606374 
L 535.52373 434.427425 
L 541.737551 416.407282 
L 547.951371 420.752255 
L 554.165191 424.198797 
L 560.379011 455.912849 
L 566.592831 434.54512 
L 572.806651 415.908695 
L 579.020471 435.824417 
L 585.234291 439.940874 
L 591.448111 414.680745 
L 597.661931 413.197762 
L 603.875751 422.835314 
L 610.089571 449.215848 
L 616.303391 429.132957 
L 622.517211 391.687877 
L 628.731031 394.059504 
L 634.944851 398.434958 
L 641.158671 385.240139 
L 647.372491 413.668158 
L 653.586311 408.628192 
L 659.800131 406.671097 
L 666.013951 393.587469 
L 672.227771 365.548878 
L 678.441591 358.471999 
" clip-path="url(#p54c4174650)" style="fill: none; stroke: #17becf; stroke-width: 1.5; stroke-linecap: square"/>
   </g>
   <g id="line2d_38">
    <path d="M 63.273409 441.679304 
L 69.487229 407.550612 
L 75.701049 446.828464 
L 81.914869 469.958026 
L 88.128689 474.144416 
L 94.342509 465.495628 
L 100.556329 439.912907 
L 106.770149 400.78748 
L 112.983969 411.862322 
L 119.197789 409.142391 
L 125.411609 396.903348 
L 131.625429 444.065766 
L 137.839249 446.353263 
L 144.053069 429.252902 
L 150.266889 395.39316 
L 156.480709 446.925905 
L 162.694529 454.813068 
L 168.908349 484.599865 
L 175.122169 425.023669 
L 181.335989 410.942985 
L 187.549809 414.359739 
L 193.763629 400.780543 
L 199.977449 385.066649 
L 206.19127 421.356335 
L 212.40509 459.956879 
L 218.61891 435.870368 
L 224.83273 467.671768 
L 231.04655 454.129305 
L 237.26037 446.043584 
L 243.47419 463.628219 
L 249.68801 441.74188 
L 255.90183 454.677875 
L 262.11565 463.924641 
L 268.32947 455.334986 
L 274.54329 447.403807 
L 280.75711 436.029759 
L 286.97093 440.337691 
L 293.18475 416.112959 
L 299.39857 443.879114 
L 305.61239 433.177523 
L 311.82621 414.142862 
L 318.04003 446.902831 
L 324.25385 421.458642 
L 330.46767 446.221927 
L 336.68149 416.736505 
L 342.89531 399.975848 
L 349.10913 461.619915 
L 355.32295 457.541627 
L 361.53677 463.057544 
L 367.75059 447.245015 
L 373.96441 429.326991 
L 380.17823 449.108149 
L 386.39205 472.527912 
L 392.60587 448.513634 
L 398.81969 420.897536 
L 405.03351 449.889338 
L 411.24733 405.258182 
L 417.46115 417.945551 
L 423.67497 414.795332 
L 429.88879 454.322822 
L 436.10261 419.811663 
L 442.31643 376.283954 
L 448.53025 404.271491 
L 454.74407 352.835618 
L 460.95789 418.035893 
L 467.17171 412.386458 
L 473.38553 387.193941 
L 479.59935 393.783176 
L 485.81317 405.02907 
L 492.02699 443.584998 
L 498.24081 408.40607 
L 504.45463 387.916442 
L 510.66845 437.946747 
L 516.88227 401.359841 
L 523.09609 407.173865 
L 529.30991 422.061747 
L 535.52373 430.765674 
L 541.737551 383.227019 
L 547.951371 414.561054 
L 554.165191 405.549887 
L 560.379011 407.929154 
L 566.592831 433.315581 
L 572.806651 495.023671 
L 579.020471 449.259737 
L 585.234291 432.965277 
L 591.448111 450.227512 
L 597.661931 432.829855 
L 603.875751 402.648918 
L 610.089571 403.388598 
L 616.303391 399.864554 
L 622.517211 452.582237 
L 628.731031 438.638198 
L 634.944851 435.674073 
L 641.158671 390.33815 
L 647.372491 398.034166 
L 653.586311 409.4856 
L 659.800131 438.203572 
L 666.013951 391.9258 
L 672.227771 387.333551 
L 678.441591 408.660602 
" clip-path="url(#p54c4174650)" style="fill: none; stroke: #1f77b4; stroke-width: 1.5; stroke-linecap: square"/>
   </g>
   <g id="line2d_39">
    <path d="M 63.273409 465.767302 
L 69.487229 446.220922 
L 75.701049 434.931687 
L 81.914869 452.136425 
L 88.128689 465.697451 
L 94.342509 466.472701 
L 100.556329 478.080562 
L 106.770149 461.349079 
L 112.983969 432.360196 
L 119.197789 449.211646 
L 125.411609 429.804503 
L 131.625429 408.246124 
L 137.839249 418.842609 
L 144.053069 414.015199 
L 150.266889 405.867162 
L 156.480709 410.150926 
L 162.694529 379.350095 
L 168.908349 412.614237 
L 175.122169 388.202776 
L 181.335989 398.181195 
L 187.549809 387.137 
L 193.763629 351.156419 
L 199.977449 377.756755 
L 206.19127 399.268702 
L 212.40509 415.020363 
L 218.61891 339.446945 
L 224.83273 343.71878 
L 231.04655 372.702904 
L 237.26037 397.000672 
L 243.47419 386.382103 
L 249.68801 409.972568 
L 255.90183 399.885739 
L 262.11565 435.237278 
L 268.32947 436.176701 
L 274.54329 454.608555 
L 280.75711 411.21401 
L 286.97093 414.781348 
L 293.18475 430.815518 
L 299.39857 437.55041 
L 305.61239 402.477158 
L 311.82621 428.751599 
L 318.04003 435.048991 
L 324.25385 460.445761 
L 330.46767 397.88817 
L 336.68149 451.702157 
L 342.89531 464.184005 
L 349.10913 415.708229 
L 355.32295 437.493221 
L 361.53677 411.680918 
L 367.75059 425.339387 
L 373.96441 413.911175 
L 380.17823 368.792201 
L 386.39205 414.778228 
L 392.60587 425.532028 
L 398.81969 446.142731 
L 405.03351 441.813004 
L 411.24733 440.322097 
L 417.46115 481.400086 
L 423.67497 456.603342 
L 429.88879 458.47583 
L 436.10261 473.33581 
L 442.31643 447.959853 
L 448.53025 431.620248 
L 454.74407 414.305276 
L 460.95789 435.925287 
L 467.17171 425.416083 
L 473.38553 403.396294 
L 479.59935 387.120673 
L 485.81317 374.163597 
L 492.02699 348.499757 
L 498.24081 358.820859 
L 504.45463 426.567384 
L 510.66845 443.670812 
L 516.88227 408.287328 
L 523.09609 382.599124 
L 529.30991 428.738446 
L 535.52373 448.767139 
L 541.737551 464.121231 
L 547.951371 445.443949 
L 554.165191 427.023222 
L 560.379011 416.080625 
L 566.592831 429.157341 
L 572.806651 344.758764 
L 579.020471 406.067622 
L 585.234291 422.355399 
L 591.448111 449.149431 
L 597.661931 455.457529 
L 603.875751 452.224191 
L 610.089571 461.13693 
L 616.303391 476.935793 
L 622.517211 435.857048 
L 628.731031 447.185457 
L 634.944851 382.385858 
L 641.158671 411.361549 
L 647.372491 397.052895 
L 653.586311 417.894668 
L 659.800131 392.865266 
L 666.013951 452.005265 
L 672.227771 460.603708 
L 678.441591 484.488509 
" clip-path="url(#p54c4174650)" style="fill: none; stroke: #ff7f0e; stroke-width: 1.5; stroke-linecap: square"/>
   </g>
   <g id="line2d_40">
    <path d="M 63.273409 482.130379 
L 69.487229 427.956845 
L 75.701049 409.871341 
L 81.914869 453.840753 
L 88.128689 459.708468 
L 94.342509 519.818777 
L 100.556329 487.613998 
L 106.770149 486.018688 
L 112.983969 435.10091 
L 119.197789 483.603067 
L 125.411609 436.570697 
L 131.625429 402.187988 
L 137.839249 408.569047 
L 144.053069 418.711209 
L 150.266889 414.849802 
L 156.480709 404.201915 
L 162.694529 438.079474 
L 168.908349 481.353878 
L 175.122169 480.962697 
L 181.335989 465.103986 
L 187.549809 438.612764 
L 193.763629 424.032974 
L 199.977449 426.718092 
L 206.19127 459.535445 
L 212.40509 432.428053 
L 218.61891 458.559741 
L 224.83273 488.262743 
L 231.04655 448.679206 
L 237.26037 419.580641 
L 243.47419 483.587869 
L 249.68801 471.696341 
L 255.90183 382.772896 
L 262.11565 321.614078 
L 268.32947 384.278041 
L 274.54329 410.740801 
L 280.75711 440.031651 
L 286.97093 431.271762 
L 293.18475 432.379796 
L 299.39857 477.285632 
L 305.61239 488.224228 
L 311.82621 465.297568 
L 318.04003 423.021996 
L 324.25385 465.079992 
L 330.46767 414.604826 
L 336.68149 384.298398 
L 342.89531 457.088185 
L 349.10913 381.224923 
L 355.32295 376.580018 
L 361.53677 356.317104 
L 367.75059 373.215512 
L 373.96441 372.97464 
L 380.17823 425.328126 
L 386.39205 419.498254 
L 392.60587 428.758622 
L 398.81969 430.581184 
L 405.03351 404.005412 
L 411.24733 469.586027 
L 417.46115 457.55057 
L 423.67497 420.337903 
L 429.88879 391.476888 
L 436.10261 386.320511 
L 442.31643 490.181505 
L 448.53025 487.087933 
L 454.74407 490.753322 
L 460.95789 459.289552 
L 467.17171 442.437705 
L 473.38553 456.703829 
L 479.59935 420.130465 
L 485.81317 420.611581 
L 492.02699 432.549934 
L 498.24081 419.06368 
L 504.45463 413.460831 
L 510.66845 458.543151 
L 516.88227 420.296699 
L 523.09609 419.092423 
L 529.30991 387.429035 
L 535.52373 396.262679 
L 541.737551 450.155978 
L 547.951371 423.821658 
L 554.165191 421.375734 
L 560.379011 429.679176 
L 566.592831 436.688922 
L 572.806651 428.67076 
L 579.020471 408.799017 
L 585.234291 468.388309 
L 591.448111 477.838656 
L 597.661931 433.717205 
L 603.875751 476.093191 
L 610.089571 455.218458 
L 616.303391 414.916187 
L 622.517211 395.765769 
L 628.731031 448.371806 
L 634.944851 445.506674 
L 641.158671 431.22867 
L 647.372491 446.395882 
L 653.586311 437.022573 
L 659.800131 401.132487 
L 666.013951 425.099711 
L 672.227771 399.999252 
L 678.441591 408.862495 
" clip-path="url(#p54c4174650)" style="fill: none; stroke: #2ca02c; stroke-width: 1.5; stroke-linecap: square"/>
   </g>
   <g id="line2d_41">
    <path d="M 63.273409 448.565897 
L 69.487229 393.728933 
L 75.701049 458.119498 
L 81.914869 473.19547 
L 88.128689 413.284085 
L 94.342509 478.328696 
L 100.556329 452.725791 
L 106.770149 436.240173 
L 112.983969 386.821775 
L 119.197789 372.380996 
L 125.411609 417.4962 
L 131.625429 432.557548 
L 137.839249 446.673444 
L 144.053069 463.926037 
L 150.266889 434.996843 
L 156.480709 411.165624 
L 162.694529 388.442869 
L 168.908349 406.422645 
L 175.122169 385.397221 
L 181.335989 387.750595 
L 187.549809 400.120574 
L 193.763629 441.977918 
L 199.977449 436.755594 
L 206.19127 426.227875 
L 212.40509 461.563192 
L 218.61891 457.018311 
L 224.83273 475.936654 
L 231.04655 439.547609 
L 237.26037 440.282711 
L 243.47419 431.329956 
L 249.68801 450.341207 
L 255.90183 424.721199 
L 262.11565 450.878519 
L 268.32947 421.899727 
L 274.54329 430.021829 
L 280.75711 471.957245 
L 286.97093 433.239664 
L 293.18475 459.444363 
L 299.39857 421.797112 
L 305.61239 453.799849 
L 311.82621 468.925574 
L 318.04003 446.301276 
L 324.25385 471.739442 
L 330.46767 390.19585 
L 336.68149 440.693484 
L 342.89531 464.293052 
L 349.10913 387.472335 
L 355.32295 366.339126 
L 361.53677 350.471222 
L 367.75059 400.677878 
L 373.96441 429.981854 
L 380.17823 400.860516 
L 386.39205 427.695928 
L 392.60587 428.953067 
L 398.81969 454.186005 
L 405.03351 451.880399 
L 411.24733 466.551556 
L 417.46115 465.782962 
L 423.67497 402.832331 
L 429.88879 405.65047 
L 436.10261 424.111836 
L 442.31643 421.716225 
L 448.53025 414.719472 
L 454.74407 443.164418 
L 460.95789 354.928629 
L 467.17171 344.45581 
L 473.38553 373.412603 
L 479.59935 442.247351 
L 485.81317 416.403894 
L 492.02699 415.422965 
L 498.24081 405.029629 
L 504.45463 425.13475 
L 510.66845 404.520527 
L 516.88227 420.68334 
L 523.09609 382.653186 
L 529.30991 394.021954 
L 535.52373 391.998113 
L 541.737551 421.946029 
L 547.951371 372.732147 
L 554.165191 398.002565 
L 560.379011 387.651741 
L 566.592831 425.748171 
L 572.806651 448.580041 
L 579.020471 472.455151 
L 585.234291 416.051461 
L 591.448111 424.372563 
L 597.661931 418.916092 
L 603.875751 443.516372 
L 610.089571 376.075064 
L 616.303391 392.377422 
L 622.517211 414.590775 
L 628.731031 368.183072 
L 634.944851 408.952175 
L 641.158671 434.132303 
L 647.372491 396.074904 
L 653.586311 411.238313 
L 659.800131 445.236358 
L 666.013951 455.002772 
L 672.227771 473.616927 
L 678.441591 421.937189 
" clip-path="url(#p54c4174650)" style="fill: none; stroke: #d62728; stroke-width: 1.5; stroke-linecap: square"/>
   </g>
   <g id="line2d_42">
    <path d="M 63.273409 455.550981 
L 69.487229 412.753174 
L 75.701049 389.810805 
L 81.914869 446.675396 
L 88.128689 416.868698 
L 94.342509 443.947942 
L 100.556329 408.662648 
L 106.770149 470.092395 
L 112.983969 424.840254 
L 119.197789 428.998191 
L 125.411609 361.916068 
L 131.625429 467.518776 
L 137.839249 434.585582 
L 144.053069 447.092618 
L 150.266889 459.657758 
L 156.480709 414.34399 
L 162.694529 391.652337 
L 168.908349 447.654796 
L 175.122169 445.330494 
L 181.335989 451.950406 
L 187.549809 458.999342 
L 193.763629 406.934344 
L 199.977449 442.412445 
L 206.19127 389.098763 
L 212.40509 424.792186 
L 218.61891 430.824167 
L 224.83273 425.233867 
L 231.04655 420.244978 
L 237.26037 399.108071 
L 243.47419 366.495557 
L 249.68801 419.079085 
L 255.90183 404.570943 
L 262.11565 417.452405 
L 268.32947 431.305965 
L 274.54329 405.873677 
L 280.75711 436.776274 
L 286.97093 455.796732 
L 293.18475 428.531499 
L 299.39857 447.070332 
L 305.61239 416.860698 
L 311.82621 463.939229 
L 318.04003 419.90912 
L 324.25385 420.548023 
L 330.46767 455.760331 
L 336.68149 440.053629 
L 342.89531 406.382882 
L 349.10913 405.622551 
L 355.32295 397.483301 
L 361.53677 441.487249 
L 367.75059 426.845177 
L 373.96441 456.501409 
L 380.17823 434.455124 
L 386.39205 452.121974 
L 392.60587 440.766052 
L 398.81969 420.1882 
L 405.03351 450.44714 
L 411.24733 484.852613 
L 417.46115 457.65513 
L 423.67497 419.343681 
L 429.88879 352.310138 
L 436.10261 450.139553 
L 442.31643 436.970465 
L 448.53025 402.638451 
L 454.74407 397.814661 
L 460.95789 364.825332 
L 467.17171 414.49502 
L 473.38553 466.186089 
L 479.59935 441.625003 
L 485.81317 465.606898 
L 492.02699 478.913402 
L 498.24081 500.262132 
L 504.45463 472.469768 
L 510.66845 446.963489 
L 516.88227 443.033384 
L 523.09609 471.362629 
L 529.30991 467.120541 
L 535.52373 451.522622 
L 541.737551 420.094433 
L 547.951371 435.844459 
L 554.165191 428.635081 
L 560.379011 390.617027 
L 566.592831 428.007308 
L 572.806651 393.554453 
L 579.020471 403.141256 
L 585.234291 415.572775 
L 591.448111 385.277825 
L 597.661931 424.617527 
L 603.875751 462.259521 
L 610.089571 411.797766 
L 616.303391 437.908159 
L 622.517211 480.785589 
L 628.731031 496.016411 
L 634.944851 442.450787 
L 641.158671 404.415973 
L 647.372491 415.170865 
L 653.586311 441.618814 
L 659.800131 458.483253 
L 666.013951 441.627126 
L 672.227771 462.447065 
L 678.441591 408.909522 
" clip-path="url(#p54c4174650)" style="fill: none; stroke: #9467bd; stroke-width: 1.5; stroke-linecap: square"/>
   </g>
   <g id="line2d_43">
    <path d="M 63.273409 488.629179 
L 69.487229 470.124375 
L 75.701049 491.146631 
L 81.914869 420.555207 
L 88.128689 433.238214 
L 94.342509 403.972191 
L 100.556329 422.491795 
L 106.770149 391.894938 
L 112.983969 418.617235 
L 119.197789 409.547148 
L 125.411609 415.959431 
L 131.625429 400.309938 
L 137.839249 454.582715 
L 144.053069 433.166374 
L 150.266889 416.201832 
L 156.480709 424.993249 
L 162.694529 432.683486 
L 168.908349 419.716811 
L 175.122169 388.728465 
L 181.335989 430.575073 
L 187.549809 397.619697 
L 193.763629 407.48414 
L 199.977449 388.42804 
L 206.19127 367.075831 
L 212.40509 416.773185 
L 218.61891 387.589561 
L 224.83273 341.693341 
L 231.04655 393.069426 
L 237.26037 420.434604 
L 243.47419 444.423503 
L 249.68801 416.087562 
L 255.90183 464.600789 
L 262.11565 442.716642 
L 268.32947 433.645897 
L 274.54329 441.087803 
L 280.75711 413.831514 
L 286.97093 465.0953 
L 293.18475 405.263439 
L 299.39857 349.87984 
L 305.61239 420.743636 
L 311.82621 408.212125 
L 318.04003 416.46569 
L 324.25385 416.691551 
L 330.46767 498.197065 
L 336.68149 441.056654 
L 342.89531 489.833616 
L 349.10913 453.204606 
L 355.32295 459.695542 
L 361.53677 448.053043 
L 367.75059 441.333816 
L 373.96441 469.134656 
L 380.17823 451.484472 
L 386.39205 431.22776 
L 392.60587 429.362794 
L 398.81969 488.054703 
L 405.03351 480.14791 
L 411.24733 429.097262 
L 417.46115 462.935378 
L 423.67497 422.443983 
L 429.88879 446.545828 
L 436.10261 457.776002 
L 442.31643 443.483007 
L 448.53025 428.919268 
L 454.74407 467.860963 
L 460.95789 506.655136 
L 467.17171 415.817961 
L 473.38553 409.652993 
L 479.59935 460.445065 
L 485.81317 462.241192 
L 492.02699 467.283845 
L 498.24081 441.568677 
L 504.45463 448.477871 
L 510.66845 416.554848 
L 516.88227 405.906379 
L 523.09609 406.627684 
L 529.30991 353.571142 
L 535.52373 380.043996 
L 541.737551 425.803403 
L 547.951371 379.274186 
L 554.165191 420.169183 
L 560.379011 389.596665 
L 566.592831 403.750954 
L 572.806651 446.507787 
L 579.020471 470.278278 
L 585.234291 404.593623 
L 591.448111 435.324504 
L 597.661931 381.669267 
L 603.875751 421.228921 
L 610.089571 449.098756 
L 616.303391 399.567711 
L 622.517211 393.558059 
L 628.731031 413.506247 
L 634.944851 433.130566 
L 641.158671 436.296666 
L 647.372491 423.643703 
L 653.586311 454.052906 
L 659.800131 428.072475 
L 666.013951 497.973079 
L 672.227771 436.971236 
L 678.441591 404.705365 
" clip-path="url(#p54c4174650)" style="fill: none; stroke: #8c564b; stroke-width: 1.5; stroke-linecap: square"/>
   </g>
   <g id="line2d_44">
    <path d="M 63.273409 453.014909 
L 69.487229 444.176044 
L 75.701049 384.280949 
L 81.914869 427.57024 
L 88.128689 434.446783 
L 94.342509 437.178779 
L 100.556329 387.129409 
L 106.770149 415.297584 
L 112.983969 471.31816 
L 119.197789 483.475169 
L 125.411609 456.689226 
L 131.625429 366.49378 
L 137.839249 409.937263 
L 144.053069 415.667569 
L 150.266889 460.150556 
L 156.480709 412.867928 
L 162.694529 385.0259 
L 168.908349 424.842808 
L 175.122169 412.448716 
L 181.335989 391.172937 
L 187.549809 401.515574 
L 193.763629 446.484922 
L 199.977449 425.972246 
L 206.19127 455.051473 
L 212.40509 452.739905 
L 218.61891 422.788262 
L 224.83273 432.752209 
L 231.04655 429.993925 
L 237.26037 384.060449 
L 243.47419 330.32874 
L 249.68801 335.358429 
L 255.90183 415.65459 
L 262.11565 424.888923 
L 268.32947 443.227479 
L 274.54329 442.381633 
L 280.75711 457.33099 
L 286.97093 417.077972 
L 293.18475 406.648985 
L 299.39857 389.841522 
L 305.61239 387.226291 
L 311.82621 438.643613 
L 318.04003 483.174869 
L 324.25385 446.646044 
L 330.46767 425.078799 
L 336.68149 412.931994 
L 342.89531 399.666472 
L 349.10913 406.888847 
L 355.32295 380.630777 
L 361.53677 359.143497 
L 367.75059 382.775654 
L 373.96441 433.590947 
L 380.17823 434.476854 
L 386.39205 415.991842 
L 392.60587 387.594717 
L 398.81969 413.737284 
L 405.03351 470.436432 
L 411.24733 439.163311 
L 417.46115 435.181855 
L 423.67497 400.380165 
L 429.88879 444.963622 
L 436.10261 438.187127 
L 442.31643 435.516221 
L 448.53025 378.831708 
L 454.74407 413.517859 
L 460.95789 453.160547 
L 467.17171 486.600366 
L 473.38553 418.984028 
L 479.59935 427.510699 
L 485.81317 416.854262 
L 492.02699 443.587587 
L 498.24081 448.637748 
L 504.45463 414.402908 
L 510.66845 415.811982 
L 516.88227 396.41718 
L 523.09609 411.097388 
L 529.30991 426.595823 
L 535.52373 426.719336 
L 541.737551 419.799135 
L 547.951371 412.920872 
L 554.165191 406.588138 
L 560.379011 428.877604 
L 566.592831 395.944962 
L 572.806651 408.625892 
L 579.020471 428.51405 
L 585.234291 419.520868 
L 591.448111 454.211461 
L 597.661931 420.8974 
L 603.875751 469.860482 
L 610.089571 429.344407 
L 616.303391 484.202097 
L 622.517211 459.617529 
L 628.731031 485.482553 
L 634.944851 462.977612 
L 641.158671 413.851643 
L 647.372491 401.405974 
L 653.586311 469.84803 
L 659.800131 431.357661 
L 666.013951 398.327474 
L 672.227771 407.920492 
L 678.441591 428.648634 
" clip-path="url(#p54c4174650)" style="fill: none; stroke: #e377c2; stroke-width: 1.5; stroke-linecap: square"/>
   </g>
   <g id="line2d_45">
    <path d="M 63.273409 436.611 
L 69.487229 380.563596 
L 75.701049 483.346103 
L 81.914869 510.065742 
L 88.128689 476.075702 
L 94.342509 467.832462 
L 100.556329 450.136349 
L 106.770149 428.566208 
L 112.983969 359.035153 
L 119.197789 390.80749 
L 125.411609 369.410873 
L 131.625429 419.121467 
L 137.839249 494.741956 
L 144.053069 468.647798 
L 150.266889 449.504477 
L 156.480709 399.446917 
L 162.694529 404.825364 
L 168.908349 424.488662 
L 175.122169 437.271728 
L 181.335989 440.060592 
L 187.549809 441.684999 
L 193.763629 437.637723 
L 199.977449 438.19351 
L 206.19127 421.877761 
L 212.40509 429.17749 
L 218.61891 398.211317 
L 224.83273 408.942062 
L 231.04655 385.938099 
L 237.26037 414.960441 
L 243.47419 393.45845 
L 249.68801 414.095202 
L 255.90183 449.94948 
L 262.11565 457.371561 
L 268.32947 457.813822 
L 274.54329 441.086158 
L 280.75711 469.907453 
L 286.97093 479.104723 
L 293.18475 434.780006 
L 299.39857 410.462824 
L 305.61239 381.329805 
L 311.82621 412.178243 
L 318.04003 396.488027 
L 324.25385 413.984641 
L 330.46767 465.095207 
L 336.68149 400.383621 
L 342.89531 446.010454 
L 349.10913 441.063522 
L 355.32295 476.944351 
L 361.53677 483.830375 
L 367.75059 440.671995 
L 373.96441 474.218557 
L 380.17823 466.064634 
L 386.39205 495.57822 
L 392.60587 444.306274 
L 398.81969 481.436051 
L 405.03351 464.838779 
L 411.24733 472.444315 
L 417.46115 467.882536 
L 423.67497 439.588798 
L 429.88879 452.727253 
L 436.10261 461.743523 
L 442.31643 415.606636 
L 448.53025 385.049483 
L 454.74407 412.858553 
L 460.95789 408.464725 
L 467.17171 446.028193 
L 473.38553 440.061366 
L 479.59935 453.646301 
L 485.81317 391.853918 
L 492.02699 363.004904 
L 498.24081 363.619018 
L 504.45463 399.228851 
L 510.66845 401.313911 
L 516.88227 377.816265 
L 523.09609 385.281654 
L 529.30991 408.740348 
L 535.52373 410.737952 
L 541.737551 485.178444 
L 547.951371 427.539542 
L 554.165191 453.174338 
L 560.379011 417.522567 
L 566.592831 422.039511 
L 572.806651 407.651435 
L 579.020471 441.331215 
L 585.234291 408.739651 
L 591.448111 408.249346 
L 597.661931 388.048594 
L 603.875751 368.179039 
L 610.089571 435.096364 
L 616.303391 437.383491 
L 622.517211 415.832343 
L 628.731031 423.357154 
L 634.944851 399.156763 
L 641.158671 402.569933 
L 647.372491 403.317008 
L 653.586311 423.215486 
L 659.800131 394.342052 
L 666.013951 358.404403 
L 672.227771 395.655622 
L 678.441591 403.064085 
" clip-path="url(#p54c4174650)" style="fill: none; stroke: #7f7f7f; stroke-width: 1.5; stroke-linecap: square"/>
   </g>
   <g id="line2d_46">
    <path d="M 63.273409 486.647649 
L 69.487229 478.606539 
L 75.701049 457.321182 
L 81.914869 474.95791 
L 88.128689 462.215971 
L 94.342509 493.138934 
L 100.556329 424.190318 
L 106.770149 406.162359 
L 112.983969 390.370762 
L 119.197789 420.288113 
L 125.411609 417.949423 
L 131.625429 416.372664 
L 137.839249 422.752756 
L 144.053069 405.498444 
L 150.266889 415.629807 
L 156.480709 412.364137 
L 162.694529 428.263791 
L 168.908349 410.370844 
L 175.122169 424.911985 
L 181.335989 396.665149 
L 187.549809 380.227832 
L 193.763629 430.617974 
L 199.977449 385.364423 
L 206.19127 360.137433 
L 212.40509 365.453054 
L 218.61891 429.31439 
L 224.83273 398.813913 
L 231.04655 435.117816 
L 237.26037 451.248137 
L 243.47419 481.983269 
L 249.68801 424.364231 
L 255.90183 445.485177 
L 262.11565 491.972889 
L 268.32947 461.808814 
L 274.54329 454.747715 
L 280.75711 431.39327 
L 286.97093 492.653969 
L 293.18475 450.929613 
L 299.39857 487.02406 
L 305.61239 437.752828 
L 311.82621 396.766867 
L 318.04003 448.934628 
L 324.25385 421.929999 
L 330.46767 420.328175 
L 336.68149 409.446821 
L 342.89531 398.381038 
L 349.10913 450.789045 
L 355.32295 464.838572 
L 361.53677 398.947048 
L 367.75059 422.31416 
L 373.96441 345.455703 
L 380.17823 362.982695 
L 386.39205 385.217566 
L 392.60587 403.607601 
L 398.81969 422.352419 
L 405.03351 363.223136 
L 411.24733 396.109191 
L 417.46115 386.343959 
L 423.67497 373.675003 
L 429.88879 406.452723 
L 436.10261 411.774241 
L 442.31643 453.275379 
L 448.53025 433.245463 
L 454.74407 436.880512 
L 460.95789 481.226168 
L 467.17171 469.270054 
L 473.38553 469.618239 
L 479.59935 395.565488 
L 485.81317 401.439081 
L 492.02699 408.06953 
L 498.24081 432.907117 
L 504.45463 433.195647 
L 510.66845 419.725356 
L 516.88227 462.662584 
L 523.09609 411.605629 
L 529.30991 350.660105 
L 535.52373 352.581514 
L 541.737551 385.312455 
L 547.951371 401.848418 
L 554.165191 371.132103 
L 560.379011 443.287306 
L 566.592831 440.848561 
L 572.806651 407.440155 
L 579.020471 410.291187 
L 585.234291 364.979755 
L 591.448111 420.754166 
L 597.661931 425.374323 
L 603.875751 405.889789 
L 610.089571 509.464675 
L 616.303391 432.953545 
L 622.517211 402.051997 
L 628.731031 423.835766 
L 634.944851 443.992361 
L 641.158671 462.031426 
L 647.372491 452.604107 
L 653.586311 443.596616 
L 659.800131 421.510211 
L 666.013951 419.589324 
L 672.227771 408.988918 
L 678.441591 429.297508 
" clip-path="url(#p54c4174650)" style="fill: none; stroke: #bcbd22; stroke-width: 1.5; stroke-linecap: square"/>
   </g>
   <g id="line2d_47">
    <path d="M 63.273409 465.643918 
L 69.487229 460.588626 
L 75.701049 511.220608 
L 81.914869 417.468295 
L 88.128689 380.793658 
L 94.342509 395.102192 
L 100.556329 434.580865 
L 106.770149 424.882572 
L 112.983969 429.356264 
L 119.197789 413.894142 
L 125.411609 454.566897 
L 131.625429 429.915693 
L 137.839249 450.607647 
L 144.053069 452.932818 
L 150.266889 451.819589 
L 156.480709 432.55468 
L 162.694529 390.256837 
L 168.908349 391.89041 
L 175.122169 419.878144 
L 181.335989 437.154853 
L 187.549809 424.01113 
L 193.763629 470.949874 
L 199.977449 467.391523 
L 206.19127 469.217683 
L 212.40509 416.186646 
L 218.61891 408.089726 
L 224.83273 387.423523 
L 231.04655 403.513839 
L 237.26037 373.980098 
L 243.47419 385.874625 
L 249.68801 421.370927 
L 255.90183 417.947136 
L 262.11565 401.249137 
L 268.32947 421.920241 
L 274.54329 439.232836 
L 280.75711 503.267431 
L 286.97093 523.171364 
L 293.18475 478.607629 
L 299.39857 485.761867 
L 305.61239 461.44716 
L 311.82621 447.717411 
L 318.04003 464.959213 
L 324.25385 438.967636 
L 330.46767 446.678427 
L 336.68149 459.328312 
L 342.89531 408.60795 
L 349.10913 378.140433 
L 355.32295 378.099957 
L 361.53677 424.138861 
L 367.75059 395.170558 
L 373.96441 401.517377 
L 380.17823 393.009495 
L 386.39205 410.577839 
L 392.60587 419.643005 
L 398.81969 413.160347 
L 405.03351 440.794088 
L 411.24733 430.867526 
L 417.46115 443.956295 
L 423.67497 467.927699 
L 429.88879 401.125233 
L 436.10261 460.784343 
L 442.31643 431.018782 
L 448.53025 481.441777 
L 454.74407 485.134796 
L 460.95789 419.923109 
L 467.17171 394.128895 
L 473.38553 368.849565 
L 479.59935 414.538233 
L 485.81317 437.009037 
L 492.02699 426.660034 
L 498.24081 428.476455 
L 504.45463 440.053831 
L 510.66845 421.889001 
L 516.88227 376.568651 
L 523.09609 386.608072 
L 529.30991 389.601937 
L 535.52373 371.438516 
L 541.737551 403.781947 
L 547.951371 429.988279 
L 554.165191 443.191119 
L 560.379011 459.410423 
L 566.592831 415.587379 
L 572.806651 402.256159 
L 579.020471 392.99388 
L 585.234291 462.036969 
L 591.448111 412.375641 
L 597.661931 415.544847 
L 603.875751 386.440588 
L 610.089571 425.743341 
L 616.303391 459.980685 
L 622.517211 434.693409 
L 628.731031 425.144959 
L 634.944851 394.230393 
L 641.158671 446.848658 
L 647.372491 475.707478 
L 653.586311 451.713219 
L 659.800131 458.284423 
L 666.013951 333.823237 
L 672.227771 411.566212 
L 678.441591 414.449917 
" clip-path="url(#p54c4174650)" style="fill: none; stroke: #17becf; stroke-width: 1.5; stroke-linecap: square"/>
   </g>
   <g id="patch_9">
    <path d="M 32.515 534.04 
L 32.515 294.93 
" style="fill: none; stroke: #000000; stroke-width: 0.8; stroke-linejoin: miter; stroke-linecap: square"/>
   </g>
   <g id="patch_10">
    <path d="M 709.2 534.04 
L 709.2 294.93 
" style="fill: none; stroke: #000000; stroke-width: 0.8; stroke-linejoin: miter; stroke-linecap: square"/>
   </g>
   <g id="patch_11">
    <path d="M 32.515 534.04 
L 709.2 534.04 
" style="fill: none; stroke: #000000; stroke-width: 0.8; stroke-linejoin: miter; stroke-linecap: square"/>
   </g>
   <g id="patch_12">
    <path d="M 32.515 294.93 
L 709.2 294.93 
" style="fill: none; stroke: #000000; stroke-width: 0.8; stroke-linejoin: miter; stroke-linecap: square"/>
   </g>
   <g id="text_23">
    <!-- 20 Realizations of AR(1) Process with ϕ=0.5 -->
    <g transform="translate(239.165 288.93) scale(0.12 -0.12)">
     <use xlink:href="#DejaVuSans-32"/>
     <use xlink:href="#DejaVuSans-30" x="63.623047"/>
     <use xlink:href="#DejaVuSans-20" x="127.246094"/>
     <use xlink:href="#DejaVuSans-52" x="159.033203"/>
     <use xlink:href="#DejaVuSans-65" x="224.015625"/>
     <use xlink:href="#DejaVuSans-61" x="285.539062"/>
     <use xlink:href="#DejaVuSans-6c" x="346.818359"/>
     <use xlink:href="#DejaVuSans-69" x="374.601562"/>
     <use xlink:href="#DejaVuSans-7a" x="402.384766"/>
     <use xlink:href="#DejaVuSans-61" x="454.875"/>
     <use xlink:href="#DejaVuSans-74" x="516.154297"/>
     <use xlink:href="#DejaVuSans-69" x="555.363281"/>
     <use xlink:href="#DejaVuSans-6f" x="583.146484"/>
     <use xlink:href="#DejaVuSans-6e" x="644.328125"/>
     <use xlink:href="#DejaVuSans-73" x="707.707031"/>
     <use xlink:href="#DejaVuSans-20" x="759.806641"/>
     <use xlink:href="#DejaVuSans-6f" x="791.59375"/>
     <use xlink:href="#DejaVuSans-66" x="852.775391"/>
     <use xlink:href="#DejaVuSans-20" x="887.980469"/>
     <use xlink:href="#DejaVuSans-41" x="919.767578"/>
     <use xlink:href="#DejaVuSans-52" x="988.175781"/>
     <use xlink:href="#DejaVuSans-28" x="1057.658203"/>
     <use xlink:href="#DejaVuSans-31" x="1096.671875"/>
     <use xlink:href="#DejaVuSans-29" x="1160.294922"/>
     <use xlink:href="#DejaVuSans-20" x="1199.308594"/>
     <use xlink:href="#DejaVuSans-50" x="1231.095703"/>
     <use xlink:href="#DejaVuSans-72" x="1289.648438"/>
     <use xlink:href="#DejaVuSans-6f" x="1328.511719"/>
     <use xlink:href="#DejaVuSans-63" x="1389.693359"/>
     <use xlink:href="#DejaVuSans-65" x="1444.673828"/>
     <use xlink:href="#DejaVuSans-73" x="1506.197266"/>
     <use xlink:href="#DejaVuSans-73" x="1558.296875"/>
     <use xlink:href="#DejaVuSans-20" x="1610.396484"/>
     <use xlink:href="#DejaVuSans-77" x="1642.183594"/>
     <use xlink:href="#DejaVuSans-69" x="1723.970703"/>
     <use xlink:href="#DejaVuSans-74" x="1751.753906"/>
     <use xlink:href="#DejaVuSans-68" x="1790.962891"/>
     <use xlink:href="#DejaVuSans-20" x="1854.341797"/>
     <use xlink:href="#DejaVuSans-3d5" x="1886.128906"/>
     <use xlink:href="#DejaVuSans-3d" x="1952.095703"/>
     <use xlink:href="#DejaVuSans-30" x="2035.884766"/>
     <use xlink:href="#DejaVuSans-2e" x="2099.507812"/>
     <use xlink:href="#DejaVuSans-35" x="2131.294922"/>
    </g>
   </g>
  </g>
 </g>
 <defs>
  <clipPath id="p317bf5f68a">
   <rect x="32.515" y="26.16" width="676.685" height="239.11"/>
  </clipPath>
  <clipPath id="p54c4174650">
   <rect x="32.515" y="294.93" width="676.685" height="239.11"/>
  </clipPath>
 </defs>
</svg>
