<?xml version="1.0" encoding="utf-8" standalone="no"?>
<!DOCTYPE svg PUBLIC "-//W3C//DTD SVG 1.1//EN"
  "http://www.w3.org/Graphics/SVG/1.1/DTD/svg11.dtd">
<svg xmlns:xlink="http://www.w3.org/1999/xlink" width="720pt" height="576pt" viewBox="0 0 720 576" xmlns="http://www.w3.org/2000/svg" version="1.1">
 <metadata>
  <rdf:RDF xmlns:dc="http://purl.org/dc/elements/1.1/" xmlns:cc="http://creativecommons.org/ns#" xmlns:rdf="http://www.w3.org/1999/02/22-rdf-syntax-ns#">
   <cc:Work>
    <dc:type rdf:resource="http://purl.org/dc/dcmitype/StillImage"/>
    <dc:date>2024-02-20T02:10:01.763762</dc:date>
    <dc:format>image/svg+xml</dc:format>
    <dc:creator>
     <cc:Agent>
      <dc:title>Matplotlib v3.8.2, https://matplotlib.org/</dc:title>
     </cc:Agent>
    </dc:creator>
   </cc:Work>
  </rdf:RDF>
 </metadata>
 <defs>
  <style type="text/css">*{stroke-linejoin: round; stroke-linecap: butt}</style>
 </defs>
 <g id="figure_1">
  <g id="patch_1">
   <path d="M 0 576 
L 720 576 
L 720 0 
L 0 0 
z
" style="fill: #ffffff"/>
  </g>
  <g id="axes_1">
   <g id="patch_2">
    <path d="M 48.49 264.110679 
L 709.2 264.110679 
L 709.2 26.16 
L 48.49 26.16 
z
" style="fill: #ffffff"/>
   </g>
   <g id="matplotlib.axis_1">
    <g id="xtick_1">
     <g id="line2d_1">
      <defs>
       <path id="m783e2c01a4" d="M 0 0 
L 0 3.5 
" style="stroke: #000000; stroke-width: 0.8"/>
      </defs>
      <g>
       <use xlink:href="#m783e2c01a4" x="78.522273" y="264.110679" style="stroke: #000000; stroke-width: 0.8"/>
      </g>
     </g>
    </g>
    <g id="xtick_2">
     <g id="line2d_2">
      <g>
       <use xlink:href="#m783e2c01a4" x="199.864789" y="264.110679" style="stroke: #000000; stroke-width: 0.8"/>
      </g>
     </g>
    </g>
    <g id="xtick_3">
     <g id="line2d_3">
      <g>
       <use xlink:href="#m783e2c01a4" x="321.207305" y="264.110679" style="stroke: #000000; stroke-width: 0.8"/>
      </g>
     </g>
    </g>
    <g id="xtick_4">
     <g id="line2d_4">
      <g>
       <use xlink:href="#m783e2c01a4" x="442.549821" y="264.110679" style="stroke: #000000; stroke-width: 0.8"/>
      </g>
     </g>
    </g>
    <g id="xtick_5">
     <g id="line2d_5">
      <g>
       <use xlink:href="#m783e2c01a4" x="563.892337" y="264.110679" style="stroke: #000000; stroke-width: 0.8"/>
      </g>
     </g>
    </g>
    <g id="xtick_6">
     <g id="line2d_6">
      <g>
       <use xlink:href="#m783e2c01a4" x="685.234853" y="264.110679" style="stroke: #000000; stroke-width: 0.8"/>
      </g>
     </g>
    </g>
   </g>
   <g id="matplotlib.axis_2">
    <g id="ytick_1">
     <g id="line2d_7">
      <defs>
       <path id="mbd999e0b54" d="M 0 0 
L -3.5 0 
" style="stroke: #000000; stroke-width: 0.8"/>
      </defs>
      <g>
       <use xlink:href="#mbd999e0b54" x="48.49" y="263.754983" style="stroke: #000000; stroke-width: 0.8"/>
      </g>
     </g>
     <g id="text_1">
      <!-- −10.0 -->
      <g transform="translate(10.844687 267.554201) scale(0.1 -0.1)">
       <defs>
        <path id="DejaVuSans-2212" d="M 678 2272 
L 4684 2272 
L 4684 1741 
L 678 1741 
L 678 2272 
z
" transform="scale(0.015625)"/>
        <path id="DejaVuSans-31" d="M 794 531 
L 1825 531 
L 1825 4091 
L 703 3866 
L 703 4441 
L 1819 4666 
L 2450 4666 
L 2450 531 
L 3481 531 
L 3481 0 
L 794 0 
L 794 531 
z
" transform="scale(0.015625)"/>
        <path id="DejaVuSans-30" d="M 2034 4250 
Q 1547 4250 1301 3770 
Q 1056 3291 1056 2328 
Q 1056 1369 1301 889 
Q 1547 409 2034 409 
Q 2525 409 2770 889 
Q 3016 1369 3016 2328 
Q 3016 3291 2770 3770 
Q 2525 4250 2034 4250 
z
M 2034 4750 
Q 2819 4750 3233 4129 
Q 3647 3509 3647 2328 
Q 3647 1150 3233 529 
Q 2819 -91 2034 -91 
Q 1250 -91 836 529 
Q 422 1150 422 2328 
Q 422 3509 836 4129 
Q 1250 4750 2034 4750 
z
" transform="scale(0.015625)"/>
        <path id="DejaVuSans-2e" d="M 684 794 
L 1344 794 
L 1344 0 
L 684 0 
L 684 794 
z
" transform="scale(0.015625)"/>
       </defs>
       <use xlink:href="#DejaVuSans-2212"/>
       <use xlink:href="#DejaVuSans-31" x="83.789062"/>
       <use xlink:href="#DejaVuSans-30" x="147.412109"/>
       <use xlink:href="#DejaVuSans-2e" x="211.035156"/>
       <use xlink:href="#DejaVuSans-30" x="242.822266"/>
      </g>
     </g>
    </g>
    <g id="ytick_2">
     <g id="line2d_8">
      <g>
       <use xlink:href="#mbd999e0b54" x="48.49" y="233.974367" style="stroke: #000000; stroke-width: 0.8"/>
      </g>
     </g>
     <g id="text_2">
      <!-- −7.5 -->
      <g transform="translate(17.207187 237.773586) scale(0.1 -0.1)">
       <defs>
        <path id="DejaVuSans-37" d="M 525 4666 
L 3525 4666 
L 3525 4397 
L 1831 0 
L 1172 0 
L 2766 4134 
L 525 4134 
L 525 4666 
z
" transform="scale(0.015625)"/>
        <path id="DejaVuSans-35" d="M 691 4666 
L 3169 4666 
L 3169 4134 
L 1269 4134 
L 1269 2991 
Q 1406 3038 1543 3061 
Q 1681 3084 1819 3084 
Q 2600 3084 3056 2656 
Q 3513 2228 3513 1497 
Q 3513 744 3044 326 
Q 2575 -91 1722 -91 
Q 1428 -91 1123 -41 
Q 819 9 494 109 
L 494 744 
Q 775 591 1075 516 
Q 1375 441 1709 441 
Q 2250 441 2565 725 
Q 2881 1009 2881 1497 
Q 2881 1984 2565 2268 
Q 2250 2553 1709 2553 
Q 1456 2553 1204 2497 
Q 953 2441 691 2322 
L 691 4666 
z
" transform="scale(0.015625)"/>
       </defs>
       <use xlink:href="#DejaVuSans-2212"/>
       <use xlink:href="#DejaVuSans-37" x="83.789062"/>
       <use xlink:href="#DejaVuSans-2e" x="147.412109"/>
       <use xlink:href="#DejaVuSans-35" x="179.199219"/>
      </g>
     </g>
    </g>
    <g id="ytick_3">
     <g id="line2d_9">
      <g>
       <use xlink:href="#mbd999e0b54" x="48.49" y="204.193752" style="stroke: #000000; stroke-width: 0.8"/>
      </g>
     </g>
     <g id="text_3">
      <!-- −5.0 -->
      <g transform="translate(17.207187 207.992971) scale(0.1 -0.1)">
       <use xlink:href="#DejaVuSans-2212"/>
       <use xlink:href="#DejaVuSans-35" x="83.789062"/>
       <use xlink:href="#DejaVuSans-2e" x="147.412109"/>
       <use xlink:href="#DejaVuSans-30" x="179.199219"/>
      </g>
     </g>
    </g>
    <g id="ytick_4">
     <g id="line2d_10">
      <g>
       <use xlink:href="#mbd999e0b54" x="48.49" y="174.413137" style="stroke: #000000; stroke-width: 0.8"/>
      </g>
     </g>
     <g id="text_4">
      <!-- −2.5 -->
      <g transform="translate(17.207187 178.212356) scale(0.1 -0.1)">
       <defs>
        <path id="DejaVuSans-32" d="M 1228 531 
L 3431 531 
L 3431 0 
L 469 0 
L 469 531 
Q 828 903 1448 1529 
Q 2069 2156 2228 2338 
Q 2531 2678 2651 2914 
Q 2772 3150 2772 3378 
Q 2772 3750 2511 3984 
Q 2250 4219 1831 4219 
Q 1534 4219 1204 4116 
Q 875 4013 500 3803 
L 500 4441 
Q 881 4594 1212 4672 
Q 1544 4750 1819 4750 
Q 2544 4750 2975 4387 
Q 3406 4025 3406 3419 
Q 3406 3131 3298 2873 
Q 3191 2616 2906 2266 
Q 2828 2175 2409 1742 
Q 1991 1309 1228 531 
z
" transform="scale(0.015625)"/>
       </defs>
       <use xlink:href="#DejaVuSans-2212"/>
       <use xlink:href="#DejaVuSans-32" x="83.789062"/>
       <use xlink:href="#DejaVuSans-2e" x="147.412109"/>
       <use xlink:href="#DejaVuSans-35" x="179.199219"/>
      </g>
     </g>
    </g>
    <g id="ytick_5">
     <g id="line2d_11">
      <g>
       <use xlink:href="#mbd999e0b54" x="48.49" y="144.632522" style="stroke: #000000; stroke-width: 0.8"/>
      </g>
     </g>
     <g id="text_5">
      <!-- 0.0 -->
      <g transform="translate(25.586875 148.43174) scale(0.1 -0.1)">
       <use xlink:href="#DejaVuSans-30"/>
       <use xlink:href="#DejaVuSans-2e" x="63.623047"/>
       <use xlink:href="#DejaVuSans-30" x="95.410156"/>
      </g>
     </g>
    </g>
    <g id="ytick_6">
     <g id="line2d_12">
      <g>
       <use xlink:href="#mbd999e0b54" x="48.49" y="114.851906" style="stroke: #000000; stroke-width: 0.8"/>
      </g>
     </g>
     <g id="text_6">
      <!-- 2.5 -->
      <g transform="translate(25.586875 118.651125) scale(0.1 -0.1)">
       <use xlink:href="#DejaVuSans-32"/>
       <use xlink:href="#DejaVuSans-2e" x="63.623047"/>
       <use xlink:href="#DejaVuSans-35" x="95.410156"/>
      </g>
     </g>
    </g>
    <g id="ytick_7">
     <g id="line2d_13">
      <g>
       <use xlink:href="#mbd999e0b54" x="48.49" y="85.071291" style="stroke: #000000; stroke-width: 0.8"/>
      </g>
     </g>
     <g id="text_7">
      <!-- 5.0 -->
      <g transform="translate(25.586875 88.87051) scale(0.1 -0.1)">
       <use xlink:href="#DejaVuSans-35"/>
       <use xlink:href="#DejaVuSans-2e" x="63.623047"/>
       <use xlink:href="#DejaVuSans-30" x="95.410156"/>
      </g>
     </g>
    </g>
    <g id="ytick_8">
     <g id="line2d_14">
      <g>
       <use xlink:href="#mbd999e0b54" x="48.49" y="55.290676" style="stroke: #000000; stroke-width: 0.8"/>
      </g>
     </g>
     <g id="text_8">
      <!-- 7.5 -->
      <g transform="translate(25.586875 59.089894) scale(0.1 -0.1)">
       <use xlink:href="#DejaVuSans-37"/>
       <use xlink:href="#DejaVuSans-2e" x="63.623047"/>
       <use xlink:href="#DejaVuSans-35" x="95.410156"/>
      </g>
     </g>
    </g>
   </g>
   <g id="line2d_15">
    <path d="M 78.522273 115.201384 
L 84.589399 128.683602 
L 90.656524 150.706428 
L 96.72365 124.948852 
L 102.790776 165.082556 
L 108.857902 102.386609 
L 114.925028 171.863241 
L 120.992153 109.245049 
L 127.059279 179.578275 
L 133.126405 93.875152 
L 139.193531 172.022784 
L 145.260657 110.191514 
L 151.327782 162.099371 
L 157.394908 115.518491 
L 163.462034 163.763282 
L 169.52916 129.808595 
L 175.596286 157.848434 
L 181.663411 140.881359 
L 187.730537 136.759101 
L 193.797663 146.160738 
L 199.864789 156.374211 
L 205.931915 115.475287 
L 211.99904 171.653459 
L 218.066166 110.443032 
L 224.133292 184.749593 
L 230.200418 89.709547 
L 236.267544 188.430744 
L 242.334669 98.875962 
L 248.401795 174.144576 
L 254.468921 91.120262 
L 260.536047 177.3232 
L 266.603173 132.599596 
L 272.670298 134.201829 
L 278.737424 144.865371 
L 284.80455 145.177317 
L 290.871676 118.711543 
L 296.938802 178.858072 
L 303.005927 98.994367 
L 309.073053 167.647839 
L 315.140179 112.443356 
L 321.207305 143.782876 
L 327.274431 132.36937 
L 333.341556 150.592149 
L 339.408682 141.650677 
L 345.475808 111.553635 
L 351.542934 162.417124 
L 357.61006 97.641169 
L 363.677185 155.776604 
L 369.744311 114.037604 
L 375.811437 152.363137 
L 381.878563 104.84992 
L 387.945689 171.874213 
L 394.012815 104.849813 
L 400.07994 152.186799 
L 406.147066 122.087158 
L 412.214192 145.757318 
L 418.281318 142.670916 
L 424.348444 130.216363 
L 430.415569 129.432894 
L 436.482695 137.245407 
L 442.549821 147.71116 
L 448.616947 105.498679 
L 454.684073 168.086923 
L 460.751198 72.552157 
L 466.818324 215.120015 
L 472.88545 61.278998 
L 478.952576 192.85461 
L 485.019702 90.018508 
L 491.086827 175.733384 
L 497.153953 111.762004 
L 503.221079 166.749455 
L 509.288205 110.723294 
L 515.355331 154.844294 
L 521.422456 129.818748 
L 527.489582 141.103847 
L 533.556708 126.535984 
L 539.623834 145.552814 
L 545.69096 114.419166 
L 551.758085 172.500544 
L 557.825211 110.175204 
L 563.892337 175.773708 
L 569.959463 95.600483 
L 576.026589 186.234267 
L 582.093714 80.971224 
L 588.16084 179.374675 
L 594.227966 102.115383 
L 600.295092 167.546134 
L 606.362218 92.347001 
L 612.429343 176.375829 
L 618.496469 93.7401 
L 624.563595 184.415549 
L 630.630721 76.707112 
L 636.697847 198.826958 
L 642.764972 89.081486 
L 648.832098 215.414075 
L 654.899224 56.717203 
L 660.96635 224.598945 
L 667.033476 52.416871 
L 673.100601 253.294739 
L 679.167727 36.97594 
" clip-path="url(#p9356f3048e)" style="fill: none; stroke: #1f77b4; stroke-width: 1.5; stroke-linecap: square"/>
   </g>
   <g id="patch_3">
    <path d="M 48.49 264.110679 
L 48.49 26.16 
" style="fill: none; stroke: #000000; stroke-width: 0.8; stroke-linejoin: miter; stroke-linecap: square"/>
   </g>
   <g id="patch_4">
    <path d="M 709.2 264.110679 
L 709.2 26.16 
" style="fill: none; stroke: #000000; stroke-width: 0.8; stroke-linejoin: miter; stroke-linecap: square"/>
   </g>
   <g id="patch_5">
    <path d="M 48.49 264.110679 
L 709.2 264.110679 
" style="fill: none; stroke: #000000; stroke-width: 0.8; stroke-linejoin: miter; stroke-linecap: square"/>
   </g>
   <g id="patch_6">
    <path d="M 48.49 26.16 
L 709.2 26.16 
" style="fill: none; stroke: #000000; stroke-width: 0.8; stroke-linejoin: miter; stroke-linecap: square"/>
   </g>
   <g id="text_9">
    <!-- One Realization of AR(1) Process with ϕ=-1 -->
    <g transform="translate(249.255313 20.16) scale(0.12 -0.12)">
     <defs>
      <path id="DejaVuSans-4f" d="M 2522 4238 
Q 1834 4238 1429 3725 
Q 1025 3213 1025 2328 
Q 1025 1447 1429 934 
Q 1834 422 2522 422 
Q 3209 422 3611 934 
Q 4013 1447 4013 2328 
Q 4013 3213 3611 3725 
Q 3209 4238 2522 4238 
z
M 2522 4750 
Q 3503 4750 4090 4092 
Q 4678 3434 4678 2328 
Q 4678 1225 4090 567 
Q 3503 -91 2522 -91 
Q 1538 -91 948 565 
Q 359 1222 359 2328 
Q 359 3434 948 4092 
Q 1538 4750 2522 4750 
z
" transform="scale(0.015625)"/>
      <path id="DejaVuSans-6e" d="M 3513 2113 
L 3513 0 
L 2938 0 
L 2938 2094 
Q 2938 2591 2744 2837 
Q 2550 3084 2163 3084 
Q 1697 3084 1428 2787 
Q 1159 2491 1159 1978 
L 1159 0 
L 581 0 
L 581 3500 
L 1159 3500 
L 1159 2956 
Q 1366 3272 1645 3428 
Q 1925 3584 2291 3584 
Q 2894 3584 3203 3211 
Q 3513 2838 3513 2113 
z
" transform="scale(0.015625)"/>
      <path id="DejaVuSans-65" d="M 3597 1894 
L 3597 1613 
L 953 1613 
Q 991 1019 1311 708 
Q 1631 397 2203 397 
Q 2534 397 2845 478 
Q 3156 559 3463 722 
L 3463 178 
Q 3153 47 2828 -22 
Q 2503 -91 2169 -91 
Q 1331 -91 842 396 
Q 353 884 353 1716 
Q 353 2575 817 3079 
Q 1281 3584 2069 3584 
Q 2775 3584 3186 3129 
Q 3597 2675 3597 1894 
z
M 3022 2063 
Q 3016 2534 2758 2815 
Q 2500 3097 2075 3097 
Q 1594 3097 1305 2825 
Q 1016 2553 972 2059 
L 3022 2063 
z
" transform="scale(0.015625)"/>
      <path id="DejaVuSans-20" transform="scale(0.015625)"/>
      <path id="DejaVuSans-52" d="M 2841 2188 
Q 3044 2119 3236 1894 
Q 3428 1669 3622 1275 
L 4263 0 
L 3584 0 
L 2988 1197 
Q 2756 1666 2539 1819 
Q 2322 1972 1947 1972 
L 1259 1972 
L 1259 0 
L 628 0 
L 628 4666 
L 2053 4666 
Q 2853 4666 3247 4331 
Q 3641 3997 3641 3322 
Q 3641 2881 3436 2590 
Q 3231 2300 2841 2188 
z
M 1259 4147 
L 1259 2491 
L 2053 2491 
Q 2509 2491 2742 2702 
Q 2975 2913 2975 3322 
Q 2975 3731 2742 3939 
Q 2509 4147 2053 4147 
L 1259 4147 
z
" transform="scale(0.015625)"/>
      <path id="DejaVuSans-61" d="M 2194 1759 
Q 1497 1759 1228 1600 
Q 959 1441 959 1056 
Q 959 750 1161 570 
Q 1363 391 1709 391 
Q 2188 391 2477 730 
Q 2766 1069 2766 1631 
L 2766 1759 
L 2194 1759 
z
M 3341 1997 
L 3341 0 
L 2766 0 
L 2766 531 
Q 2569 213 2275 61 
Q 1981 -91 1556 -91 
Q 1019 -91 701 211 
Q 384 513 384 1019 
Q 384 1609 779 1909 
Q 1175 2209 1959 2209 
L 2766 2209 
L 2766 2266 
Q 2766 2663 2505 2880 
Q 2244 3097 1772 3097 
Q 1472 3097 1187 3025 
Q 903 2953 641 2809 
L 641 3341 
Q 956 3463 1253 3523 
Q 1550 3584 1831 3584 
Q 2591 3584 2966 3190 
Q 3341 2797 3341 1997 
z
" transform="scale(0.015625)"/>
      <path id="DejaVuSans-6c" d="M 603 4863 
L 1178 4863 
L 1178 0 
L 603 0 
L 603 4863 
z
" transform="scale(0.015625)"/>
      <path id="DejaVuSans-69" d="M 603 3500 
L 1178 3500 
L 1178 0 
L 603 0 
L 603 3500 
z
M 603 4863 
L 1178 4863 
L 1178 4134 
L 603 4134 
L 603 4863 
z
" transform="scale(0.015625)"/>
      <path id="DejaVuSans-7a" d="M 353 3500 
L 3084 3500 
L 3084 2975 
L 922 459 
L 3084 459 
L 3084 0 
L 275 0 
L 275 525 
L 2438 3041 
L 353 3041 
L 353 3500 
z
" transform="scale(0.015625)"/>
      <path id="DejaVuSans-74" d="M 1172 4494 
L 1172 3500 
L 2356 3500 
L 2356 3053 
L 1172 3053 
L 1172 1153 
Q 1172 725 1289 603 
Q 1406 481 1766 481 
L 2356 481 
L 2356 0 
L 1766 0 
Q 1100 0 847 248 
Q 594 497 594 1153 
L 594 3053 
L 172 3053 
L 172 3500 
L 594 3500 
L 594 4494 
L 1172 4494 
z
" transform="scale(0.015625)"/>
      <path id="DejaVuSans-6f" d="M 1959 3097 
Q 1497 3097 1228 2736 
Q 959 2375 959 1747 
Q 959 1119 1226 758 
Q 1494 397 1959 397 
Q 2419 397 2687 759 
Q 2956 1122 2956 1747 
Q 2956 2369 2687 2733 
Q 2419 3097 1959 3097 
z
M 1959 3584 
Q 2709 3584 3137 3096 
Q 3566 2609 3566 1747 
Q 3566 888 3137 398 
Q 2709 -91 1959 -91 
Q 1206 -91 779 398 
Q 353 888 353 1747 
Q 353 2609 779 3096 
Q 1206 3584 1959 3584 
z
" transform="scale(0.015625)"/>
      <path id="DejaVuSans-66" d="M 2375 4863 
L 2375 4384 
L 1825 4384 
Q 1516 4384 1395 4259 
Q 1275 4134 1275 3809 
L 1275 3500 
L 2222 3500 
L 2222 3053 
L 1275 3053 
L 1275 0 
L 697 0 
L 697 3053 
L 147 3053 
L 147 3500 
L 697 3500 
L 697 3744 
Q 697 4328 969 4595 
Q 1241 4863 1831 4863 
L 2375 4863 
z
" transform="scale(0.015625)"/>
      <path id="DejaVuSans-41" d="M 2188 4044 
L 1331 1722 
L 3047 1722 
L 2188 4044 
z
M 1831 4666 
L 2547 4666 
L 4325 0 
L 3669 0 
L 3244 1197 
L 1141 1197 
L 716 0 
L 50 0 
L 1831 4666 
z
" transform="scale(0.015625)"/>
      <path id="DejaVuSans-28" d="M 1984 4856 
Q 1566 4138 1362 3434 
Q 1159 2731 1159 2009 
Q 1159 1288 1364 580 
Q 1569 -128 1984 -844 
L 1484 -844 
Q 1016 -109 783 600 
Q 550 1309 550 2009 
Q 550 2706 781 3412 
Q 1013 4119 1484 4856 
L 1984 4856 
z
" transform="scale(0.015625)"/>
      <path id="DejaVuSans-29" d="M 513 4856 
L 1013 4856 
Q 1481 4119 1714 3412 
Q 1947 2706 1947 2009 
Q 1947 1309 1714 600 
Q 1481 -109 1013 -844 
L 513 -844 
Q 928 -128 1133 580 
Q 1338 1288 1338 2009 
Q 1338 2731 1133 3434 
Q 928 4138 513 4856 
z
" transform="scale(0.015625)"/>
      <path id="DejaVuSans-50" d="M 1259 4147 
L 1259 2394 
L 2053 2394 
Q 2494 2394 2734 2622 
Q 2975 2850 2975 3272 
Q 2975 3691 2734 3919 
Q 2494 4147 2053 4147 
L 1259 4147 
z
M 628 4666 
L 2053 4666 
Q 2838 4666 3239 4311 
Q 3641 3956 3641 3272 
Q 3641 2581 3239 2228 
Q 2838 1875 2053 1875 
L 1259 1875 
L 1259 0 
L 628 0 
L 628 4666 
z
" transform="scale(0.015625)"/>
      <path id="DejaVuSans-72" d="M 2631 2963 
Q 2534 3019 2420 3045 
Q 2306 3072 2169 3072 
Q 1681 3072 1420 2755 
Q 1159 2438 1159 1844 
L 1159 0 
L 581 0 
L 581 3500 
L 1159 3500 
L 1159 2956 
Q 1341 3275 1631 3429 
Q 1922 3584 2338 3584 
Q 2397 3584 2469 3576 
Q 2541 3569 2628 3553 
L 2631 2963 
z
" transform="scale(0.015625)"/>
      <path id="DejaVuSans-63" d="M 3122 3366 
L 3122 2828 
Q 2878 2963 2633 3030 
Q 2388 3097 2138 3097 
Q 1578 3097 1268 2742 
Q 959 2388 959 1747 
Q 959 1106 1268 751 
Q 1578 397 2138 397 
Q 2388 397 2633 464 
Q 2878 531 3122 666 
L 3122 134 
Q 2881 22 2623 -34 
Q 2366 -91 2075 -91 
Q 1284 -91 818 406 
Q 353 903 353 1747 
Q 353 2603 823 3093 
Q 1294 3584 2113 3584 
Q 2378 3584 2631 3529 
Q 2884 3475 3122 3366 
z
" transform="scale(0.015625)"/>
      <path id="DejaVuSans-73" d="M 2834 3397 
L 2834 2853 
Q 2591 2978 2328 3040 
Q 2066 3103 1784 3103 
Q 1356 3103 1142 2972 
Q 928 2841 928 2578 
Q 928 2378 1081 2264 
Q 1234 2150 1697 2047 
L 1894 2003 
Q 2506 1872 2764 1633 
Q 3022 1394 3022 966 
Q 3022 478 2636 193 
Q 2250 -91 1575 -91 
Q 1294 -91 989 -36 
Q 684 19 347 128 
L 347 722 
Q 666 556 975 473 
Q 1284 391 1588 391 
Q 1994 391 2212 530 
Q 2431 669 2431 922 
Q 2431 1156 2273 1281 
Q 2116 1406 1581 1522 
L 1381 1569 
Q 847 1681 609 1914 
Q 372 2147 372 2553 
Q 372 3047 722 3315 
Q 1072 3584 1716 3584 
Q 2034 3584 2315 3537 
Q 2597 3491 2834 3397 
z
" transform="scale(0.015625)"/>
      <path id="DejaVuSans-77" d="M 269 3500 
L 844 3500 
L 1563 769 
L 2278 3500 
L 2956 3500 
L 3675 769 
L 4391 3500 
L 4966 3500 
L 4050 0 
L 3372 0 
L 2619 2869 
L 1863 0 
L 1184 0 
L 269 3500 
z
" transform="scale(0.015625)"/>
      <path id="DejaVuSans-68" d="M 3513 2113 
L 3513 0 
L 2938 0 
L 2938 2094 
Q 2938 2591 2744 2837 
Q 2550 3084 2163 3084 
Q 1697 3084 1428 2787 
Q 1159 2491 1159 1978 
L 1159 0 
L 581 0 
L 581 4863 
L 1159 4863 
L 1159 2956 
Q 1366 3272 1645 3428 
Q 1925 3584 2291 3584 
Q 2894 3584 3203 3211 
Q 3513 2838 3513 2113 
z
" transform="scale(0.015625)"/>
      <path id="DejaVuSans-3d5" d="M 2388 4863 
L 2388 3572 
Q 3009 3572 3425 3094 
Q 3853 2606 3853 1747 
Q 3853 888 3425 400 
Q 3009 -78 2388 -78 
L 2388 -1331 
L 1816 -1331 
L 1816 -78 
Q 1194 -78 775 400 
Q 350 888 350 1747 
Q 350 2606 775 3094 
Q 1194 3572 1816 3572 
L 1816 4863 
L 2388 4863 
z
M 2388 434 
Q 2741 434 2981 756 
Q 3244 1116 3247 1747 
Q 3250 2372 2981 2738 
Q 2741 3059 2388 3059 
L 2388 434 
z
M 1816 434 
L 1816 3059 
Q 1463 3059 1225 2738 
Q 953 2372 956 1747 
Q 959 1116 1225 756 
Q 1463 434 1816 434 
z
" transform="scale(0.015625)"/>
      <path id="DejaVuSans-3d" d="M 678 2906 
L 4684 2906 
L 4684 2381 
L 678 2381 
L 678 2906 
z
M 678 1631 
L 4684 1631 
L 4684 1100 
L 678 1100 
L 678 1631 
z
" transform="scale(0.015625)"/>
      <path id="DejaVuSans-2d" d="M 313 2009 
L 1997 2009 
L 1997 1497 
L 313 1497 
L 313 2009 
z
" transform="scale(0.015625)"/>
     </defs>
     <use xlink:href="#DejaVuSans-4f"/>
     <use xlink:href="#DejaVuSans-6e" x="78.710938"/>
     <use xlink:href="#DejaVuSans-65" x="142.089844"/>
     <use xlink:href="#DejaVuSans-20" x="203.613281"/>
     <use xlink:href="#DejaVuSans-52" x="235.400391"/>
     <use xlink:href="#DejaVuSans-65" x="300.382812"/>
     <use xlink:href="#DejaVuSans-61" x="361.90625"/>
     <use xlink:href="#DejaVuSans-6c" x="423.185547"/>
     <use xlink:href="#DejaVuSans-69" x="450.96875"/>
     <use xlink:href="#DejaVuSans-7a" x="478.751953"/>
     <use xlink:href="#DejaVuSans-61" x="531.242188"/>
     <use xlink:href="#DejaVuSans-74" x="592.521484"/>
     <use xlink:href="#DejaVuSans-69" x="631.730469"/>
     <use xlink:href="#DejaVuSans-6f" x="659.513672"/>
     <use xlink:href="#DejaVuSans-6e" x="720.695312"/>
     <use xlink:href="#DejaVuSans-20" x="784.074219"/>
     <use xlink:href="#DejaVuSans-6f" x="815.861328"/>
     <use xlink:href="#DejaVuSans-66" x="877.042969"/>
     <use xlink:href="#DejaVuSans-20" x="912.248047"/>
     <use xlink:href="#DejaVuSans-41" x="944.035156"/>
     <use xlink:href="#DejaVuSans-52" x="1012.443359"/>
     <use xlink:href="#DejaVuSans-28" x="1081.925781"/>
     <use xlink:href="#DejaVuSans-31" x="1120.939453"/>
     <use xlink:href="#DejaVuSans-29" x="1184.5625"/>
     <use xlink:href="#DejaVuSans-20" x="1223.576172"/>
     <use xlink:href="#DejaVuSans-50" x="1255.363281"/>
     <use xlink:href="#DejaVuSans-72" x="1313.916016"/>
     <use xlink:href="#DejaVuSans-6f" x="1352.779297"/>
     <use xlink:href="#DejaVuSans-63" x="1413.960938"/>
     <use xlink:href="#DejaVuSans-65" x="1468.941406"/>
     <use xlink:href="#DejaVuSans-73" x="1530.464844"/>
     <use xlink:href="#DejaVuSans-73" x="1582.564453"/>
     <use xlink:href="#DejaVuSans-20" x="1634.664062"/>
     <use xlink:href="#DejaVuSans-77" x="1666.451172"/>
     <use xlink:href="#DejaVuSans-69" x="1748.238281"/>
     <use xlink:href="#DejaVuSans-74" x="1776.021484"/>
     <use xlink:href="#DejaVuSans-68" x="1815.230469"/>
     <use xlink:href="#DejaVuSans-20" x="1878.609375"/>
     <use xlink:href="#DejaVuSans-3d5" x="1910.396484"/>
     <use xlink:href="#DejaVuSans-3d" x="1976.363281"/>
     <use xlink:href="#DejaVuSans-2d" x="2060.152344"/>
     <use xlink:href="#DejaVuSans-31" x="2096.236328"/>
    </g>
   </g>
   <g id="legend_1">
    <g id="patch_7">
     <path d="M 55.49 48.838125 
L 221.994688 48.838125 
Q 223.994688 48.838125 223.994688 46.838125 
L 223.994688 33.16 
Q 223.994688 31.16 221.994688 31.16 
L 55.49 31.16 
Q 53.49 31.16 53.49 33.16 
L 53.49 46.838125 
Q 53.49 48.838125 55.49 48.838125 
z
" style="fill: #ffffff; opacity: 0.8; stroke: #cccccc; stroke-linejoin: miter"/>
    </g>
    <g id="line2d_16">
     <path d="M 57.49 39.258438 
L 67.49 39.258438 
L 77.49 39.258438 
" style="fill: none; stroke: #1f77b4; stroke-width: 1.5; stroke-linecap: square"/>
    </g>
    <g id="text_10">
     <!-- AR(1) with c=1, σ=1, ϕ=-1 -->
     <g transform="translate(85.49 42.758438) scale(0.1 -0.1)">
      <defs>
       <path id="DejaVuSans-2c" d="M 750 794 
L 1409 794 
L 1409 256 
L 897 -744 
L 494 -744 
L 750 256 
L 750 794 
z
" transform="scale(0.015625)"/>
       <path id="DejaVuSans-3c3" d="M 1959 3044 
Q 1484 3044 1228 2700 
Q 959 2341 959 1747 
Q 959 1119 1226 758 
Q 1494 397 1959 397 
Q 2419 397 2687 759 
Q 2956 1122 2956 1747 
Q 2956 2319 2688 2700 
Q 2441 3044 1959 3044 
z
M 1959 3500 
L 3869 3500 
L 3869 2925 
L 3225 2925 
Q 3566 2438 3566 1747 
Q 3566 888 3138 400 
Q 2709 -91 1959 -91 
Q 1206 -91 781 400 
Q 353 888 353 1747 
Q 353 2613 781 3097 
Q 1134 3500 1959 3500 
z
" transform="scale(0.015625)"/>
      </defs>
      <use xlink:href="#DejaVuSans-41"/>
      <use xlink:href="#DejaVuSans-52" x="68.408203"/>
      <use xlink:href="#DejaVuSans-28" x="137.890625"/>
      <use xlink:href="#DejaVuSans-31" x="176.904297"/>
      <use xlink:href="#DejaVuSans-29" x="240.527344"/>
      <use xlink:href="#DejaVuSans-20" x="279.541016"/>
      <use xlink:href="#DejaVuSans-77" x="311.328125"/>
      <use xlink:href="#DejaVuSans-69" x="393.115234"/>
      <use xlink:href="#DejaVuSans-74" x="420.898438"/>
      <use xlink:href="#DejaVuSans-68" x="460.107422"/>
      <use xlink:href="#DejaVuSans-20" x="523.486328"/>
      <use xlink:href="#DejaVuSans-63" x="555.273438"/>
      <use xlink:href="#DejaVuSans-3d" x="610.253906"/>
      <use xlink:href="#DejaVuSans-31" x="694.042969"/>
      <use xlink:href="#DejaVuSans-2c" x="757.666016"/>
      <use xlink:href="#DejaVuSans-20" x="789.453125"/>
      <use xlink:href="#DejaVuSans-3c3" x="821.240234"/>
      <use xlink:href="#DejaVuSans-3d" x="884.619141"/>
      <use xlink:href="#DejaVuSans-31" x="968.408203"/>
      <use xlink:href="#DejaVuSans-2c" x="1032.03125"/>
      <use xlink:href="#DejaVuSans-20" x="1063.818359"/>
      <use xlink:href="#DejaVuSans-3d5" x="1095.605469"/>
      <use xlink:href="#DejaVuSans-3d" x="1161.572266"/>
      <use xlink:href="#DejaVuSans-2d" x="1245.361328"/>
      <use xlink:href="#DejaVuSans-31" x="1281.445312"/>
     </g>
    </g>
   </g>
  </g>
  <g id="axes_2">
   <g id="patch_8">
    <path d="M 48.49 534.04 
L 709.2 534.04 
L 709.2 296.089321 
L 48.49 296.089321 
z
" style="fill: #ffffff"/>
   </g>
   <g id="matplotlib.axis_3">
    <g id="xtick_7">
     <g id="line2d_17">
      <g>
       <use xlink:href="#m783e2c01a4" x="78.522273" y="534.04" style="stroke: #000000; stroke-width: 0.8"/>
      </g>
     </g>
     <g id="text_11">
      <!-- 0 -->
      <g transform="translate(75.341023 548.638438) scale(0.1 -0.1)">
       <use xlink:href="#DejaVuSans-30"/>
      </g>
     </g>
    </g>
    <g id="xtick_8">
     <g id="line2d_18">
      <g>
       <use xlink:href="#m783e2c01a4" x="199.864789" y="534.04" style="stroke: #000000; stroke-width: 0.8"/>
      </g>
     </g>
     <g id="text_12">
      <!-- 20 -->
      <g transform="translate(193.502289 548.638438) scale(0.1 -0.1)">
       <use xlink:href="#DejaVuSans-32"/>
       <use xlink:href="#DejaVuSans-30" x="63.623047"/>
      </g>
     </g>
    </g>
    <g id="xtick_9">
     <g id="line2d_19">
      <g>
       <use xlink:href="#m783e2c01a4" x="321.207305" y="534.04" style="stroke: #000000; stroke-width: 0.8"/>
      </g>
     </g>
     <g id="text_13">
      <!-- 40 -->
      <g transform="translate(314.844805 548.638438) scale(0.1 -0.1)">
       <defs>
        <path id="DejaVuSans-34" d="M 2419 4116 
L 825 1625 
L 2419 1625 
L 2419 4116 
z
M 2253 4666 
L 3047 4666 
L 3047 1625 
L 3713 1625 
L 3713 1100 
L 3047 1100 
L 3047 0 
L 2419 0 
L 2419 1100 
L 313 1100 
L 313 1709 
L 2253 4666 
z
" transform="scale(0.015625)"/>
       </defs>
       <use xlink:href="#DejaVuSans-34"/>
       <use xlink:href="#DejaVuSans-30" x="63.623047"/>
      </g>
     </g>
    </g>
    <g id="xtick_10">
     <g id="line2d_20">
      <g>
       <use xlink:href="#m783e2c01a4" x="442.549821" y="534.04" style="stroke: #000000; stroke-width: 0.8"/>
      </g>
     </g>
     <g id="text_14">
      <!-- 60 -->
      <g transform="translate(436.187321 548.638438) scale(0.1 -0.1)">
       <defs>
        <path id="DejaVuSans-36" d="M 2113 2584 
Q 1688 2584 1439 2293 
Q 1191 2003 1191 1497 
Q 1191 994 1439 701 
Q 1688 409 2113 409 
Q 2538 409 2786 701 
Q 3034 994 3034 1497 
Q 3034 2003 2786 2293 
Q 2538 2584 2113 2584 
z
M 3366 4563 
L 3366 3988 
Q 3128 4100 2886 4159 
Q 2644 4219 2406 4219 
Q 1781 4219 1451 3797 
Q 1122 3375 1075 2522 
Q 1259 2794 1537 2939 
Q 1816 3084 2150 3084 
Q 2853 3084 3261 2657 
Q 3669 2231 3669 1497 
Q 3669 778 3244 343 
Q 2819 -91 2113 -91 
Q 1303 -91 875 529 
Q 447 1150 447 2328 
Q 447 3434 972 4092 
Q 1497 4750 2381 4750 
Q 2619 4750 2861 4703 
Q 3103 4656 3366 4563 
z
" transform="scale(0.015625)"/>
       </defs>
       <use xlink:href="#DejaVuSans-36"/>
       <use xlink:href="#DejaVuSans-30" x="63.623047"/>
      </g>
     </g>
    </g>
    <g id="xtick_11">
     <g id="line2d_21">
      <g>
       <use xlink:href="#m783e2c01a4" x="563.892337" y="534.04" style="stroke: #000000; stroke-width: 0.8"/>
      </g>
     </g>
     <g id="text_15">
      <!-- 80 -->
      <g transform="translate(557.529837 548.638438) scale(0.1 -0.1)">
       <defs>
        <path id="DejaVuSans-38" d="M 2034 2216 
Q 1584 2216 1326 1975 
Q 1069 1734 1069 1313 
Q 1069 891 1326 650 
Q 1584 409 2034 409 
Q 2484 409 2743 651 
Q 3003 894 3003 1313 
Q 3003 1734 2745 1975 
Q 2488 2216 2034 2216 
z
M 1403 2484 
Q 997 2584 770 2862 
Q 544 3141 544 3541 
Q 544 4100 942 4425 
Q 1341 4750 2034 4750 
Q 2731 4750 3128 4425 
Q 3525 4100 3525 3541 
Q 3525 3141 3298 2862 
Q 3072 2584 2669 2484 
Q 3125 2378 3379 2068 
Q 3634 1759 3634 1313 
Q 3634 634 3220 271 
Q 2806 -91 2034 -91 
Q 1263 -91 848 271 
Q 434 634 434 1313 
Q 434 1759 690 2068 
Q 947 2378 1403 2484 
z
M 1172 3481 
Q 1172 3119 1398 2916 
Q 1625 2713 2034 2713 
Q 2441 2713 2670 2916 
Q 2900 3119 2900 3481 
Q 2900 3844 2670 4047 
Q 2441 4250 2034 4250 
Q 1625 4250 1398 4047 
Q 1172 3844 1172 3481 
z
" transform="scale(0.015625)"/>
       </defs>
       <use xlink:href="#DejaVuSans-38"/>
       <use xlink:href="#DejaVuSans-30" x="63.623047"/>
      </g>
     </g>
    </g>
    <g id="xtick_12">
     <g id="line2d_22">
      <g>
       <use xlink:href="#m783e2c01a4" x="685.234853" y="534.04" style="stroke: #000000; stroke-width: 0.8"/>
      </g>
     </g>
     <g id="text_16">
      <!-- 100 -->
      <g transform="translate(675.691103 548.638438) scale(0.1 -0.1)">
       <use xlink:href="#DejaVuSans-31"/>
       <use xlink:href="#DejaVuSans-30" x="63.623047"/>
       <use xlink:href="#DejaVuSans-30" x="127.246094"/>
      </g>
     </g>
    </g>
    <g id="text_17">
     <!-- t -->
     <g transform="translate(376.884844 562.316562) scale(0.1 -0.1)">
      <use xlink:href="#DejaVuSans-74"/>
     </g>
    </g>
   </g>
   <g id="matplotlib.axis_4">
    <g id="ytick_9">
     <g id="line2d_23">
      <g>
       <use xlink:href="#mbd999e0b54" x="48.49" y="499.516105" style="stroke: #000000; stroke-width: 0.8"/>
      </g>
     </g>
     <g id="text_18">
      <!-- −20 -->
      <g transform="translate(20.385313 503.315324) scale(0.1 -0.1)">
       <use xlink:href="#DejaVuSans-2212"/>
       <use xlink:href="#DejaVuSans-32" x="83.789062"/>
       <use xlink:href="#DejaVuSans-30" x="147.412109"/>
      </g>
     </g>
    </g>
    <g id="ytick_10">
     <g id="line2d_24">
      <g>
       <use xlink:href="#mbd999e0b54" x="48.49" y="458.859956" style="stroke: #000000; stroke-width: 0.8"/>
      </g>
     </g>
     <g id="text_19">
      <!-- −10 -->
      <g transform="translate(20.385313 462.659175) scale(0.1 -0.1)">
       <use xlink:href="#DejaVuSans-2212"/>
       <use xlink:href="#DejaVuSans-31" x="83.789062"/>
       <use xlink:href="#DejaVuSans-30" x="147.412109"/>
      </g>
     </g>
    </g>
    <g id="ytick_11">
     <g id="line2d_25">
      <g>
       <use xlink:href="#mbd999e0b54" x="48.49" y="418.203807" style="stroke: #000000; stroke-width: 0.8"/>
      </g>
     </g>
     <g id="text_20">
      <!-- 0 -->
      <g transform="translate(35.1275 422.003026) scale(0.1 -0.1)">
       <use xlink:href="#DejaVuSans-30"/>
      </g>
     </g>
    </g>
    <g id="ytick_12">
     <g id="line2d_26">
      <g>
       <use xlink:href="#mbd999e0b54" x="48.49" y="377.547659" style="stroke: #000000; stroke-width: 0.8"/>
      </g>
     </g>
     <g id="text_21">
      <!-- 10 -->
      <g transform="translate(28.765 381.346877) scale(0.1 -0.1)">
       <use xlink:href="#DejaVuSans-31"/>
       <use xlink:href="#DejaVuSans-30" x="63.623047"/>
      </g>
     </g>
    </g>
    <g id="ytick_13">
     <g id="line2d_27">
      <g>
       <use xlink:href="#mbd999e0b54" x="48.49" y="336.89151" style="stroke: #000000; stroke-width: 0.8"/>
      </g>
     </g>
     <g id="text_22">
      <!-- 20 -->
      <g transform="translate(28.765 340.690728) scale(0.1 -0.1)">
       <use xlink:href="#DejaVuSans-32"/>
       <use xlink:href="#DejaVuSans-30" x="63.623047"/>
      </g>
     </g>
    </g>
    <g id="ytick_14">
     <g id="line2d_28">
      <g>
       <use xlink:href="#mbd999e0b54" x="48.49" y="296.235361" style="stroke: #000000; stroke-width: 0.8"/>
      </g>
     </g>
     <g id="text_23">
      <!-- 30 -->
      <g transform="translate(28.765 300.034579) scale(0.1 -0.1)">
       <defs>
        <path id="DejaVuSans-33" d="M 2597 2516 
Q 3050 2419 3304 2112 
Q 3559 1806 3559 1356 
Q 3559 666 3084 287 
Q 2609 -91 1734 -91 
Q 1441 -91 1130 -33 
Q 819 25 488 141 
L 488 750 
Q 750 597 1062 519 
Q 1375 441 1716 441 
Q 2309 441 2620 675 
Q 2931 909 2931 1356 
Q 2931 1769 2642 2001 
Q 2353 2234 1838 2234 
L 1294 2234 
L 1294 2753 
L 1863 2753 
Q 2328 2753 2575 2939 
Q 2822 3125 2822 3475 
Q 2822 3834 2567 4026 
Q 2313 4219 1838 4219 
Q 1578 4219 1281 4162 
Q 984 4106 628 3988 
L 628 4550 
Q 988 4650 1302 4700 
Q 1616 4750 1894 4750 
Q 2613 4750 3031 4423 
Q 3450 4097 3450 3541 
Q 3450 3153 3228 2886 
Q 3006 2619 2597 2516 
z
" transform="scale(0.015625)"/>
       </defs>
       <use xlink:href="#DejaVuSans-33"/>
       <use xlink:href="#DejaVuSans-30" x="63.623047"/>
      </g>
     </g>
    </g>
   </g>
   <g id="line2d_29">
    <path d="M 78.522273 418.40638 
L 84.589399 417.040548 
L 90.656524 416.848798 
L 96.72365 422.527565 
L 102.790776 405.845584 
L 108.857902 428.732217 
L 114.925028 405.923825 
L 120.992153 430.994989 
L 127.059279 400.070438 
L 133.126405 430.026389 
L 139.193531 402.192146 
L 145.260657 424.406236 
L 151.327782 406.157459 
L 157.394908 428.64793 
L 163.462034 407.353733 
L 169.52916 423.418148 
L 175.596286 408.213287 
L 181.663411 414.284004 
L 187.730537 418.936698 
L 193.797663 418.665096 
L 199.864789 421.8772 
L 205.931915 414.342574 
L 211.99904 409.193116 
L 218.066166 426.326819 
L 224.133292 409.034513 
L 230.200418 425.575383 
L 236.267544 411.345727 
L 242.334669 424.290839 
L 248.401795 402.981577 
L 254.468921 426.147026 
L 260.536047 407.041314 
L 266.603173 430.68117 
L 272.670298 404.598273 
L 278.737424 430.230476 
L 284.80455 401.398527 
L 290.871676 427.166346 
L 296.938802 405.972017 
L 303.005927 420.167233 
L 309.073053 413.121108 
L 315.140179 423.868652 
L 321.207305 406.832936 
L 327.274431 426.364872 
L 333.341556 404.180762 
L 339.408682 434.532275 
L 345.475808 398.005343 
L 351.542934 439.574586 
L 357.61006 394.293213 
L 363.677185 436.362018 
L 369.744311 394.117226 
L 375.811437 439.879565 
L 381.878563 387.292691 
L 387.945689 447.227904 
L 394.012815 385.770538 
L 400.07994 447.353473 
L 406.147066 382.057104 
L 412.214192 452.203925 
L 418.281318 390.756497 
L 424.348444 447.872613 
L 430.415569 388.166934 
L 436.482695 441.490105 
L 442.549821 393.187848 
L 448.616947 438.765958 
L 454.684073 396.426591 
L 460.751198 441.116739 
L 466.818324 390.408054 
L 472.88545 441.00301 
L 478.952576 389.137367 
L 485.019702 442.744857 
L 491.086827 394.89395 
L 497.153953 437.253102 
L 503.221079 391.841748 
L 509.288205 437.559517 
L 515.355331 400.753507 
L 521.422456 438.494606 
L 527.489582 395.232189 
L 533.556708 433.426224 
L 539.623834 401.448092 
L 545.69096 436.607637 
L 551.758085 390.941702 
L 557.825211 444.076186 
L 563.892337 389.508366 
L 569.959463 440.703004 
L 576.026589 390.314201 
L 582.093714 436.28282 
L 588.16084 403.108643 
L 594.227966 437.607415 
L 600.295092 396.61337 
L 606.362218 444.57655 
L 612.429343 390.25447 
L 618.496469 441.171313 
L 624.563595 389.648014 
L 630.630721 441.18594 
L 636.697847 395.364721 
L 642.764972 429.848391 
L 648.832098 394.478744 
L 654.899224 433.989306 
L 660.96635 398.688465 
L 667.033476 430.902363 
L 673.100601 407.499296 
L 679.167727 424.385244 
" clip-path="url(#p62efc70656)" style="fill: none; stroke: #1f77b4; stroke-width: 1.5; stroke-linecap: square"/>
   </g>
   <g id="line2d_30">
    <path d="M 78.522273 414.791832 
L 84.589399 411.922716 
L 90.656524 421.247095 
L 96.72365 417.979177 
L 102.790776 414.836924 
L 108.857902 418.082229 
L 114.925028 409.272138 
L 120.992153 421.649111 
L 127.059279 403.364981 
L 133.126405 424.36176 
L 139.193531 409.536385 
L 145.260657 417.249941 
L 151.327782 413.896688 
L 157.394908 421.551179 
L 163.462034 415.714915 
L 169.52916 416.790806 
L 175.596286 408.997171 
L 181.663411 424.541147 
L 187.730537 411.726787 
L 193.797663 424.376447 
L 199.864789 411.23541 
L 205.931915 426.654313 
L 211.99904 407.1436 
L 218.066166 425.58511 
L 224.133292 410.127129 
L 230.200418 424.467348 
L 236.267544 407.255209 
L 242.334669 426.120208 
L 248.401795 408.596431 
L 254.468921 420.998465 
L 260.536047 406.488884 
L 266.603173 422.733101 
L 272.670298 406.437856 
L 278.737424 426.200931 
L 284.80455 407.886107 
L 290.871676 426.164673 
L 296.938802 403.924992 
L 303.005927 424.455045 
L 309.073053 408.985938 
L 315.140179 424.081697 
L 321.207305 404.938928 
L 327.274431 433.713653 
L 333.341556 390.770759 
L 339.408682 435.955095 
L 345.475808 398.161937 
L 351.542934 428.572446 
L 357.61006 401.920341 
L 363.677185 431.984027 
L 369.744311 401.681693 
L 375.811437 429.978889 
L 381.878563 402.962384 
L 387.945689 431.766386 
L 394.012815 402.626997 
L 400.07994 429.911679 
L 406.147066 400.564595 
L 412.214192 433.723472 
L 418.281318 394.049757 
L 424.348444 429.041439 
L 430.415569 404.04716 
L 436.482695 432.651427 
L 442.549821 403.856594 
L 448.616947 425.801165 
L 454.684073 407.109575 
L 460.751198 428.440846 
L 466.818324 404.576007 
L 472.88545 429.05396 
L 478.952576 398.890487 
L 485.019702 434.256054 
L 491.086827 397.581059 
L 497.153953 434.969822 
L 503.221079 388.975897 
L 509.288205 442.378769 
L 515.355331 394.994137 
L 521.422456 436.117266 
L 527.489582 395.090971 
L 533.556708 428.964878 
L 539.623834 399.0393 
L 545.69096 440.617432 
L 551.758085 393.466989 
L 557.825211 430.567181 
L 563.892337 400.093708 
L 569.959463 437.255578 
L 576.026589 400.397658 
L 582.093714 429.876155 
L 588.16084 392.943678 
L 594.227966 435.404249 
L 600.295092 400.407092 
L 606.362218 438.546264 
L 612.429343 392.978374 
L 618.496469 437.904362 
L 624.563595 390.277882 
L 630.630721 445.774869 
L 636.697847 382.313431 
L 642.764972 446.309701 
L 648.832098 389.195215 
L 654.899224 442.180133 
L 660.96635 380.827155 
L 667.033476 443.863966 
L 673.100601 382.683959 
L 679.167727 448.367731 
" clip-path="url(#p62efc70656)" style="fill: none; stroke: #ff7f0e; stroke-width: 1.5; stroke-linecap: square"/>
   </g>
   <g id="line2d_31">
    <path d="M 78.522273 413.011842 
L 84.589399 419.712878 
L 90.656524 414.617186 
L 96.72365 420.317491 
L 102.790776 412.563035 
L 108.857902 419.182404 
L 114.925028 411.391441 
L 120.992153 432.784204 
L 127.059279 396.617575 
L 133.126405 432.570884 
L 139.193531 392.571096 
L 145.260657 437.984421 
L 151.327782 395.079228 
L 157.394908 436.249888 
L 163.462034 393.719106 
L 169.52916 433.993964 
L 175.596286 407.341621 
L 181.663411 424.681751 
L 187.730537 401.520228 
L 193.797663 428.504051 
L 199.864789 400.159867 
L 205.931915 425.906754 
L 211.99904 404.650371 
L 218.066166 433.77637 
L 224.133292 399.851258 
L 230.200418 429.408783 
L 236.267544 401.992701 
L 242.334669 433.304406 
L 248.401795 395.213567 
L 254.468921 437.907658 
L 260.536047 395.49247 
L 266.603173 435.242628 
L 272.670298 397.152739 
L 278.737424 441.867366 
L 284.80455 389.210629 
L 290.871676 448.953026 
L 296.938802 378.418583 
L 303.005927 456.12974 
L 309.073053 379.598848 
L 315.140179 453.383658 
L 321.207305 380.879851 
L 327.274431 448.85518 
L 333.341556 388.666013 
L 339.408682 444.904855 
L 345.475808 388.746515 
L 351.542934 444.209751 
L 357.61006 396.450097 
L 363.677185 437.003518 
L 369.744311 401.710245 
L 375.811437 434.229336 
L 381.878563 396.625193 
L 387.945689 432.648138 
L 394.012815 402.013356 
L 400.07994 427.006627 
L 406.147066 402.221307 
L 412.214192 429.003419 
L 418.281318 405.943011 
L 424.348444 423.810053 
L 430.415569 415.352547 
L 436.482695 420.579418 
L 442.549821 411.157654 
L 448.616947 425.168171 
L 454.684073 408.027884 
L 460.751198 423.09171 
L 466.818324 410.426035 
L 472.88545 425.67048 
L 478.952576 409.156943 
L 485.019702 421.110732 
L 491.086827 409.29884 
L 497.153953 420.911439 
L 503.221079 418.403462 
L 509.288205 406.156873 
L 515.355331 427.028067 
L 521.422456 403.826846 
L 527.489582 432.55866 
L 533.556708 404.275024 
L 539.623834 424.395361 
L 545.69096 401.009177 
L 551.758085 432.661956 
L 557.825211 398.493104 
L 563.892337 442.428796 
L 569.959463 386.41531 
L 576.026589 440.252278 
L 582.093714 387.387438 
L 588.16084 439.798304 
L 594.227966 390.194738 
L 600.295092 446.296617 
L 606.362218 381.045484 
L 612.429343 451.167195 
L 618.496469 383.543748 
L 624.563595 448.086323 
L 630.630721 390.64924 
L 636.697847 439.485204 
L 642.764972 387.852707 
L 648.832098 443.035663 
L 654.899224 389.607703 
L 660.96635 440.612994 
L 667.033476 396.150243 
L 673.100601 433.326936 
L 679.167727 396.713632 
" clip-path="url(#p62efc70656)" style="fill: none; stroke: #2ca02c; stroke-width: 1.5; stroke-linecap: square"/>
   </g>
   <g id="line2d_32">
    <path d="M 78.522273 413.150211 
L 84.589399 420.594102 
L 90.656524 406.841009 
L 96.72365 431.00137 
L 102.790776 403.908336 
L 108.857902 436.055387 
L 114.925028 396.064614 
L 120.992153 430.075179 
L 127.059279 399.723503 
L 133.126405 429.66153 
L 139.193531 401.934619 
L 145.260657 432.80189 
L 151.327782 396.713949 
L 157.394908 432.200609 
L 163.462034 402.824211 
L 169.52916 438.966024 
L 175.596286 390.578246 
L 181.663411 438.032749 
L 187.730537 391.392843 
L 193.797663 445.828645 
L 199.864789 387.644206 
L 205.931915 446.608713 
L 211.99904 388.668534 
L 218.066166 442.594583 
L 224.133292 393.023703 
L 230.200418 437.827774 
L 236.267544 396.505953 
L 242.334669 427.91229 
L 248.401795 406.079165 
L 254.468921 420.3368 
L 260.536047 415.895932 
L 266.603173 418.612827 
L 272.670298 416.564439 
L 278.737424 415.660921 
L 284.80455 415.44996 
L 290.871676 422.104462 
L 296.938802 415.233614 
L 303.005927 421.185711 
L 309.073053 405.733887 
L 315.140179 426.996596 
L 321.207305 405.931701 
L 327.274431 426.584585 
L 333.341556 398.667461 
L 339.408682 432.883432 
L 345.475808 396.868928 
L 351.542934 434.567288 
L 357.61006 398.550447 
L 363.677185 429.900614 
L 369.744311 401.462182 
L 375.811437 423.775345 
L 381.878563 409.495947 
L 387.945689 424.96588 
L 394.012815 412.6437 
L 400.07994 420.662397 
L 406.147066 411.679331 
L 412.214192 424.480531 
L 418.281318 414.754354 
L 424.348444 417.68809 
L 430.415569 409.533204 
L 436.482695 424.61553 
L 442.549821 405.117002 
L 448.616947 430.169048 
L 454.684073 405.699269 
L 460.751198 429.20042 
L 466.818324 405.121295 
L 472.88545 432.118704 
L 478.952576 402.83308 
L 485.019702 420.494841 
L 491.086827 418.84661 
L 497.153953 407.144565 
L 503.221079 421.357489 
L 509.288205 409.187416 
L 515.355331 414.310688 
L 521.422456 416.582171 
L 527.489582 410.590206 
L 533.556708 424.465612 
L 539.623834 406.961126 
L 545.69096 429.573193 
L 551.758085 402.342475 
L 557.825211 431.151018 
L 563.892337 404.903971 
L 569.959463 420.483433 
L 576.026589 402.687174 
L 582.093714 432.22573 
L 588.16084 397.344733 
L 594.227966 437.476254 
L 600.295092 392.377611 
L 606.362218 439.917896 
L 612.429343 392.218395 
L 618.496469 441.776188 
L 624.563595 390.726848 
L 630.630721 441.402215 
L 636.697847 387.324417 
L 642.764972 444.612529 
L 648.832098 394.262907 
L 654.899224 437.871772 
L 660.96635 392.140985 
L 667.033476 432.324516 
L 673.100601 403.623017 
L 679.167727 428.162966 
" clip-path="url(#p62efc70656)" style="fill: none; stroke: #d62728; stroke-width: 1.5; stroke-linecap: square"/>
   </g>
   <g id="line2d_33">
    <path d="M 78.522273 411.790309 
L 84.589399 427.565051 
L 90.656524 406.021406 
L 96.72365 421.028821 
L 102.790776 414.692655 
L 108.857902 411.70377 
L 114.925028 423.193216 
L 120.992153 410.572667 
L 127.059279 428.896745 
L 133.126405 400.420454 
L 139.193531 430.780627 
L 145.260657 404.26927 
L 151.327782 427.56067 
L 157.394908 399.643448 
L 163.462034 434.236489 
L 169.52916 395.610155 
L 175.596286 433.415926 
L 181.663411 397.984779 
L 187.730537 432.931761 
L 193.797663 394.608407 
L 199.864789 439.5904 
L 205.931915 383.340395 
L 211.99904 446.927752 
L 218.066166 388.627032 
L 224.133292 444.01816 
L 230.200418 389.705571 
L 236.267544 442.790373 
L 242.334669 390.486759 
L 248.401795 441.452592 
L 254.468921 395.120604 
L 260.536047 441.41197 
L 266.603173 389.868985 
L 272.670298 447.70159 
L 278.737424 388.949389 
L 284.80455 445.238278 
L 290.871676 389.198678 
L 296.938802 441.838671 
L 303.005927 396.611342 
L 309.073053 437.496402 
L 315.140179 390.22964 
L 321.207305 442.802961 
L 327.274431 382.851582 
L 333.341556 454.723532 
L 339.408682 378.701974 
L 345.475808 454.56323 
L 351.542934 369.493174 
L 357.61006 466.628651 
L 363.677185 362.67761 
L 369.744311 466.250818 
L 375.811437 366.691243 
L 381.878563 468.378245 
L 387.945689 367.665405 
L 394.012815 462.211198 
L 400.07994 372.754439 
L 406.147066 453.107695 
L 412.214192 382.418786 
L 418.281318 445.988113 
L 424.348444 381.722575 
L 430.415569 449.046531 
L 436.482695 390.628275 
L 442.549821 446.102554 
L 448.616947 387.098271 
L 454.684073 454.766202 
L 460.751198 379.182949 
L 466.818324 454.192955 
L 472.88545 375.755957 
L 478.952576 454.375418 
L 485.019702 377.741881 
L 491.086827 453.725476 
L 497.153953 382.370038 
L 503.221079 453.902756 
L 509.288205 383.284281 
L 515.355331 448.332967 
L 521.422456 385.869567 
L 527.489582 448.448977 
L 533.556708 379.320618 
L 539.623834 455.971897 
L 545.69096 377.00789 
L 551.758085 459.445697 
L 557.825211 372.280171 
L 563.892337 454.140098 
L 569.959463 373.86139 
L 576.026589 453.217856 
L 582.093714 375.988377 
L 588.16084 461.744926 
L 594.227966 370.676507 
L 600.295092 460.675777 
L 606.362218 373.899305 
L 612.429343 463.720061 
L 618.496469 361.102339 
L 624.563595 467.493391 
L 630.630721 367.863108 
L 636.697847 463.639177 
L 642.764972 373.507952 
L 648.832098 456.505385 
L 654.899224 384.096875 
L 660.96635 446.480485 
L 667.033476 391.55745 
L 673.100601 437.547165 
L 679.167727 394.056803 
" clip-path="url(#p62efc70656)" style="fill: none; stroke: #9467bd; stroke-width: 1.5; stroke-linecap: square"/>
   </g>
   <g id="line2d_34">
    <path d="M 78.522273 416.19599 
L 84.589399 415.044721 
L 90.656524 409.761502 
L 96.72365 421.902463 
L 102.790776 406.101522 
L 108.857902 428.260492 
L 114.925028 398.366638 
L 120.992153 433.790748 
L 127.059279 397.140974 
L 133.126405 438.821513 
L 139.193531 402.438133 
L 145.260657 428.910132 
L 151.327782 398.74497 
L 157.394908 434.307741 
L 163.462034 402.416281 
L 169.52916 428.35163 
L 175.596286 411.201137 
L 181.663411 421.675281 
L 187.730537 414.144237 
L 193.797663 419.073784 
L 199.864789 418.337632 
L 205.931915 413.189572 
L 211.99904 426.790177 
L 218.066166 405.047359 
L 224.133292 423.173896 
L 230.200418 409.012642 
L 236.267544 422.912184 
L 242.334669 418.629375 
L 248.401795 414.248524 
L 254.468921 417.639805 
L 260.536047 416.356104 
L 266.603173 417.957425 
L 272.670298 417.940019 
L 278.737424 415.457349 
L 284.80455 415.361363 
L 290.871676 419.796988 
L 296.938802 414.141999 
L 303.005927 420.606554 
L 309.073053 411.643169 
L 315.140179 422.480046 
L 321.207305 402.943133 
L 327.274431 434.259201 
L 333.341556 404.478115 
L 339.408682 423.317953 
L 345.475808 410.859744 
L 351.542934 420.51754 
L 357.61006 403.814106 
L 363.677185 432.033842 
L 369.744311 399.144958 
L 375.811437 431.199878 
L 381.878563 396.031991 
L 387.945689 437.893322 
L 394.012815 388.214473 
L 400.07994 452.142402 
L 406.147066 380.158639 
L 412.214192 453.931014 
L 418.281318 373.786779 
L 424.348444 453.849224 
L 430.415569 384.391345 
L 436.482695 446.858968 
L 442.549821 391.358647 
L 448.616947 443.736785 
L 454.684073 381.608227 
L 460.751198 445.048314 
L 466.818324 396.018664 
L 472.88545 435.778992 
L 478.952576 398.982723 
L 485.019702 437.115715 
L 491.086827 392.541848 
L 497.153953 440.250581 
L 503.221079 398.654586 
L 509.288205 431.294466 
L 515.355331 401.926218 
L 521.422456 432.896796 
L 527.489582 402.773022 
L 533.556708 427.225302 
L 539.623834 403.720324 
L 545.69096 428.354008 
L 551.758085 404.453832 
L 557.825211 426.413858 
L 563.892337 407.106565 
L 569.959463 422.10567 
L 576.026589 416.877496 
L 582.093714 420.158344 
L 588.16084 409.472989 
L 594.227966 424.425793 
L 600.295092 408.808369 
L 606.362218 428.390324 
L 612.429343 403.745926 
L 618.496469 425.707789 
L 624.563595 415.737903 
L 630.630721 413.876281 
L 636.697847 415.622114 
L 642.764972 416.990449 
L 648.832098 419.687619 
L 654.899224 420.008991 
L 660.96635 416.429176 
L 667.033476 422.684023 
L 673.100601 413.241994 
L 679.167727 418.923784 
" clip-path="url(#p62efc70656)" style="fill: none; stroke: #8c564b; stroke-width: 1.5; stroke-linecap: square"/>
   </g>
   <g id="line2d_35">
    <path d="M 78.522273 412.081393 
L 84.589399 418.011814 
L 90.656524 408.679571 
L 96.72365 426.309276 
L 102.790776 410.480713 
L 108.857902 421.019835 
L 114.925028 416.857498 
L 120.992153 411.865942 
L 127.059279 417.63312 
L 133.126405 417.87104 
L 139.193531 416.33629 
L 145.260657 408.733309 
L 151.327782 424.52416 
L 157.394908 408.261057 
L 163.462034 423.106078 
L 169.52916 408.237393 
L 175.596286 423.062223 
L 181.663411 407.584495 
L 187.730537 425.51142 
L 193.797663 411.711585 
L 199.864789 415.756446 
L 205.931915 416.257245 
L 211.99904 421.470348 
L 218.066166 412.362088 
L 224.133292 425.349462 
L 230.200418 409.955955 
L 236.267544 422.234264 
L 242.334669 413.933286 
L 248.401795 410.085216 
L 254.468921 419.221398 
L 260.536047 405.627997 
L 266.603173 429.354419 
L 272.670298 395.331804 
L 278.737424 440.706366 
L 284.80455 393.621405 
L 290.871676 437.996372 
L 296.938802 391.03892 
L 303.005927 437.789686 
L 309.073053 401.272033 
L 315.140179 429.970451 
L 321.207305 409.662867 
L 327.274431 425.816512 
L 333.341556 403.69351 
L 339.408682 425.720895 
L 345.475808 408.961449 
L 351.542934 417.703382 
L 357.61006 404.627818 
L 363.677185 427.988753 
L 369.744311 398.234728 
L 375.811437 436.653639 
L 381.878563 397.949848 
L 387.945689 430.464598 
L 394.012815 400.804278 
L 400.07994 437.91291 
L 406.147066 389.43756 
L 412.214192 443.913413 
L 418.281318 391.330864 
L 424.348444 439.924443 
L 430.415569 392.587837 
L 436.482695 439.737753 
L 442.549821 389.058734 
L 448.616947 449.438487 
L 454.684073 380.107273 
L 460.751198 451.62237 
L 466.818324 380.780638 
L 472.88545 452.238357 
L 478.952576 375.12742 
L 485.019702 451.585352 
L 491.086827 380.277065 
L 497.153953 453.502129 
L 503.221079 376.967501 
L 509.288205 452.999853 
L 515.355331 383.585474 
L 521.422456 454.995204 
L 527.489582 378.919976 
L 533.556708 457.278644 
L 539.623834 365.551816 
L 545.69096 471.195135 
L 551.758085 354.262604 
L 557.825211 473.134031 
L 563.892337 356.519712 
L 569.959463 483.678506 
L 576.026589 350.736733 
L 582.093714 484.464708 
L 588.16084 344.445813 
L 594.227966 489.621893 
L 600.295092 338.34821 
L 606.362218 496.784367 
L 612.429343 333.071842 
L 618.496469 498.368069 
L 624.563595 336.833436 
L 630.630721 497.001617 
L 636.697847 335.635979 
L 642.764972 492.995499 
L 648.832098 338.473963 
L 654.899224 491.261194 
L 660.96635 333.751234 
L 667.033476 495.275582 
L 673.100601 336.838625 
L 679.167727 499.828242 
" clip-path="url(#p62efc70656)" style="fill: none; stroke: #e377c2; stroke-width: 1.5; stroke-linecap: square"/>
   </g>
   <g id="line2d_36">
    <path d="M 78.522273 420.230864 
L 84.589399 406.961306 
L 90.656524 428.308622 
L 96.72365 410.270659 
L 102.790776 422.568635 
L 108.857902 411.966096 
L 114.925028 418.944669 
L 120.992153 420.592112 
L 127.059279 409.925501 
L 133.126405 423.907845 
L 139.193531 403.678683 
L 145.260657 427.49242 
L 151.327782 405.657289 
L 157.394908 417.57455 
L 163.462034 413.959668 
L 169.52916 420.748381 
L 175.596286 411.658257 
L 181.663411 420.92272 
L 187.730537 406.949064 
L 193.797663 422.832199 
L 199.864789 413.056513 
L 205.931915 421.666702 
L 211.99904 412.46514 
L 218.066166 413.039363 
L 224.133292 418.471129 
L 230.200418 410.650434 
L 236.267544 429.403648 
L 242.334669 405.190032 
L 248.401795 425.944135 
L 254.468921 404.512536 
L 260.536047 433.824551 
L 266.603173 408.540989 
L 272.670298 421.903135 
L 278.737424 405.427365 
L 284.80455 429.22538 
L 290.871676 398.860194 
L 296.938802 427.934729 
L 303.005927 407.444635 
L 309.073053 434.426417 
L 315.140179 400.636988 
L 321.207305 430.896192 
L 327.274431 408.455212 
L 333.341556 425.918726 
L 339.408682 416.412883 
L 345.475808 409.99036 
L 351.542934 422.363466 
L 357.61006 411.629856 
L 363.677185 420.764053 
L 369.744311 409.068734 
L 375.811437 428.337854 
L 381.878563 399.629575 
L 387.945689 435.962351 
L 394.012815 398.366785 
L 400.07994 437.607418 
L 406.147066 391.41031 
L 412.214192 437.877572 
L 418.281318 395.128679 
L 424.348444 438.999838 
L 430.415569 395.505439 
L 436.482695 435.548883 
L 442.549821 392.065282 
L 448.616947 438.810159 
L 454.684073 396.552145 
L 460.751198 437.503997 
L 466.818324 398.758401 
L 472.88545 433.148575 
L 478.952576 400.536321 
L 485.019702 430.604886 
L 491.086827 405.626254 
L 497.153953 429.333853 
L 503.221079 400.940503 
L 509.288205 428.906752 
L 515.355331 410.465766 
L 521.422456 423.009006 
L 527.489582 407.792584 
L 533.556708 431.348383 
L 539.623834 397.26 
L 545.69096 433.819085 
L 551.758085 399.681155 
L 557.825211 437.104748 
L 563.892337 389.275031 
L 569.959463 442.328647 
L 576.026589 389.992483 
L 582.093714 439.050584 
L 588.16084 392.193467 
L 594.227966 437.742407 
L 600.295092 389.417187 
L 606.362218 437.204001 
L 612.429343 395.726941 
L 618.496469 432.212969 
L 624.563595 396.615685 
L 630.630721 436.329749 
L 636.697847 392.735392 
L 642.764972 439.642416 
L 648.832098 392.506368 
L 654.899224 444.210042 
L 660.96635 389.011052 
L 667.033476 442.046292 
L 673.100601 393.019127 
L 679.167727 435.188618 
" clip-path="url(#p62efc70656)" style="fill: none; stroke: #7f7f7f; stroke-width: 1.5; stroke-linecap: square"/>
   </g>
   <g id="line2d_37">
    <path d="M 78.522273 415.887543 
L 84.589399 407.707684 
L 90.656524 428.039727 
L 96.72365 405.784529 
L 102.790776 427.447766 
L 108.857902 409.380337 
L 114.925028 426.695615 
L 120.992153 404.74949 
L 127.059279 425.689582 
L 133.126405 408.803171 
L 139.193531 429.571409 
L 145.260657 397.285111 
L 151.327782 426.747106 
L 157.394908 405.012794 
L 163.462034 420.632634 
L 169.52916 412.896756 
L 175.596286 419.507498 
L 181.663411 406.538273 
L 187.730537 418.921848 
L 193.797663 409.831385 
L 199.864789 422.643585 
L 205.931915 413.580532 
L 211.99904 414.464523 
L 218.066166 427.510055 
L 224.133292 404.82639 
L 230.200418 430.775203 
L 236.267544 402.947342 
L 242.334669 428.139648 
L 248.401795 405.476131 
L 254.468921 420.469898 
L 260.536047 407.880628 
L 266.603173 426.970001 
L 272.670298 403.181786 
L 278.737424 432.673574 
L 284.80455 400.997062 
L 290.871676 425.725904 
L 296.938802 399.267359 
L 303.005927 432.261775 
L 309.073053 392.173396 
L 315.140179 437.779649 
L 321.207305 394.261116 
L 327.274431 438.852344 
L 333.341556 400.295081 
L 339.408682 432.917724 
L 345.475808 402.059592 
L 351.542934 427.732342 
L 357.61006 407.490099 
L 363.677185 430.878703 
L 369.744311 398.057041 
L 375.811437 429.68229 
L 381.878563 406.316399 
L 387.945689 421.594227 
L 394.012815 412.797482 
L 400.07994 420.815979 
L 406.147066 412.461225 
L 412.214192 417.939829 
L 418.281318 414.366333 
L 424.348444 408.962079 
L 430.415569 423.539045 
L 436.482695 414.182218 
L 442.549821 423.264459 
L 448.616947 410.748682 
L 454.684073 413.682365 
L 460.751198 409.26154 
L 466.818324 428.98582 
L 472.88545 410.570358 
L 478.952576 422.247374 
L 485.019702 408.952121 
L 491.086827 421.145703 
L 497.153953 417.322588 
L 503.221079 418.173713 
L 509.288205 415.869253 
L 515.355331 412.877518 
L 521.422456 419.779896 
L 527.489582 405.637775 
L 533.556708 423.516364 
L 539.623834 409.247965 
L 545.69096 425.445804 
L 551.758085 406.550703 
L 557.825211 423.269831 
L 563.892337 421.494575 
L 569.959463 411.764484 
L 576.026589 416.943585 
L 582.093714 417.637601 
L 588.16084 414.897662 
L 594.227966 419.293892 
L 600.295092 411.072981 
L 606.362218 424.017373 
L 612.429343 405.702241 
L 618.496469 429.159351 
L 624.563595 404.037248 
L 630.630721 425.152664 
L 636.697847 411.183393 
L 642.764972 419.292094 
L 648.832098 414.746294 
L 654.899224 415.703704 
L 660.96635 411.517783 
L 667.033476 418.698186 
L 673.100601 410.798108 
L 679.167727 426.385266 
" clip-path="url(#p62efc70656)" style="fill: none; stroke: #bcbd22; stroke-width: 1.5; stroke-linecap: square"/>
   </g>
   <g id="line2d_38">
    <path d="M 78.522273 414.628095 
L 84.589399 424.834757 
L 90.656524 408.345725 
L 96.72365 420.499101 
L 102.790776 412.083353 
L 108.857902 421.083062 
L 114.925028 410.306047 
L 120.992153 418.097745 
L 127.059279 412.039446 
L 133.126405 421.953364 
L 139.193531 410.12542 
L 145.260657 427.734417 
L 151.327782 407.001193 
L 157.394908 425.083978 
L 163.462034 403.523855 
L 169.52916 426.601741 
L 175.596286 396.664035 
L 181.663411 434.231932 
L 187.730537 396.729987 
L 193.797663 430.074375 
L 199.864789 410.59659 
L 205.931915 421.197428 
L 211.99904 415.978457 
L 218.066166 419.685445 
L 224.133292 417.520614 
L 230.200418 414.584624 
L 236.267544 423.225567 
L 242.334669 400.798166 
L 248.401795 430.577481 
L 254.468921 394.819385 
L 260.536047 442.680863 
L 266.603173 398.943174 
L 272.670298 434.669197 
L 278.737424 397.8343 
L 284.80455 429.498547 
L 290.871676 404.387181 
L 296.938802 424.068023 
L 303.005927 403.990974 
L 309.073053 429.071593 
L 315.140179 401.779934 
L 321.207305 424.150354 
L 327.274431 405.196198 
L 333.341556 419.862367 
L 339.408682 416.701091 
L 345.475808 411.745242 
L 351.542934 416.535529 
L 357.61006 410.401162 
L 363.677185 424.373014 
L 369.744311 408.372461 
L 375.811437 428.200166 
L 381.878563 405.235014 
L 387.945689 431.057099 
L 394.012815 401.136337 
L 400.07994 429.964782 
L 406.147066 406.157176 
L 412.214192 422.796901 
L 418.281318 416.468142 
L 424.348444 408.502737 
L 430.415569 426.199592 
L 436.482695 416.340366 
L 442.549821 416.397125 
L 448.616947 420.349198 
L 454.684073 410.267396 
L 460.751198 416.790443 
L 466.818324 412.708918 
L 472.88545 424.197514 
L 478.952576 405.621759 
L 485.019702 424.93771 
L 491.086827 411.08393 
L 497.153953 425.034345 
L 503.221079 408.132626 
L 509.288205 424.332844 
L 515.355331 414.676248 
L 521.422456 421.634854 
L 527.489582 409.351862 
L 533.556708 426.718565 
L 539.623834 401.886049 
L 545.69096 435.881188 
L 551.758085 402.324883 
L 557.825211 431.051195 
L 563.892337 401.158675 
L 569.959463 437.249666 
L 576.026589 396.0324 
L 582.093714 440.930494 
L 588.16084 390.453355 
L 594.227966 440.810707 
L 600.295092 394.938501 
L 606.362218 440.252109 
L 612.429343 387.759909 
L 618.496469 442.086606 
L 624.563595 386.016978 
L 630.630721 442.546323 
L 636.697847 385.023627 
L 642.764972 444.754458 
L 648.832098 384.87608 
L 654.899224 450.763413 
L 660.96635 380.562083 
L 667.033476 453.963927 
L 673.100601 377.962367 
L 679.167727 455.102509 
" clip-path="url(#p62efc70656)" style="fill: none; stroke: #17becf; stroke-width: 1.5; stroke-linecap: square"/>
   </g>
   <g id="line2d_39">
    <path d="M 78.522273 413.632346 
L 84.589399 418.194296 
L 90.656524 419.190483 
L 96.72365 409.053751 
L 102.790776 422.816764 
L 108.857902 409.312398 
L 114.925028 421.402959 
L 120.992153 408.027532 
L 127.059279 421.192834 
L 133.126405 407.305786 
L 139.193531 424.68356 
L 145.260657 410.604165 
L 151.327782 435.286308 
L 157.394908 398.851798 
L 163.462034 434.286239 
L 169.52916 401.212402 
L 175.596286 428.978395 
L 181.663411 406.356091 
L 187.730537 417.879488 
L 193.797663 412.428005 
L 199.864789 419.117984 
L 205.931915 415.010167 
L 211.99904 420.204234 
L 218.066166 421.147459 
L 224.133292 408.237937 
L 230.200418 424.941184 
L 236.267544 403.272571 
L 242.334669 434.758891 
L 248.401795 399.48661 
L 254.468921 429.860955 
L 260.536047 400.627687 
L 266.603173 438.176415 
L 272.670298 392.534703 
L 278.737424 442.562828 
L 284.80455 391.220028 
L 290.871676 431.316633 
L 296.938802 406.539348 
L 303.005927 423.467345 
L 309.073053 413.364905 
L 315.140179 421.376169 
L 321.207305 410.873595 
L 327.274431 423.785096 
L 333.341556 403.721757 
L 339.408682 428.805064 
L 345.475808 400.899752 
L 351.542934 424.088065 
L 357.61006 401.160795 
L 363.677185 433.965204 
L 369.744311 394.820475 
L 375.811437 441.689551 
L 381.878563 389.504912 
L 387.945689 446.11067 
L 394.012815 385.502826 
L 400.07994 447.507114 
L 406.147066 379.321069 
L 412.214192 445.355916 
L 418.281318 388.044484 
L 424.348444 444.346541 
L 430.415569 388.953664 
L 436.482695 439.540527 
L 442.549821 394.298436 
L 448.616947 439.52028 
L 454.684073 391.136088 
L 460.751198 437.068282 
L 466.818324 394.649315 
L 472.88545 443.67765 
L 478.952576 389.69551 
L 485.019702 439.426897 
L 491.086827 390.759622 
L 497.153953 440.484474 
L 503.221079 389.529433 
L 509.288205 445.043449 
L 515.355331 384.414078 
L 521.422456 442.636526 
L 527.489582 394.836938 
L 533.556708 442.027665 
L 539.623834 392.428246 
L 545.69096 441.88096 
L 551.758085 382.416871 
L 557.825211 450.561339 
L 563.892337 383.649983 
L 569.959463 445.756638 
L 576.026589 378.39566 
L 582.093714 456.741297 
L 588.16084 373.41386 
L 594.227966 451.766751 
L 600.295092 377.826736 
L 606.362218 469.268934 
L 612.429343 360.440391 
L 618.496469 473.541605 
L 624.563595 356.461296 
L 630.630721 481.652074 
L 636.697847 352.983227 
L 642.764972 471.546495 
L 648.832098 357.745398 
L 654.899224 476.617314 
L 660.96635 359.710786 
L 667.033476 476.519432 
L 673.100601 357.60874 
L 679.167727 479.743559 
" clip-path="url(#p62efc70656)" style="fill: none; stroke: #1f77b4; stroke-width: 1.5; stroke-linecap: square"/>
   </g>
   <g id="line2d_40">
    <path d="M 78.522273 408.667983 
L 84.589399 420.942759 
L 90.656524 419.84401 
L 96.72365 414.648873 
L 102.790776 413.240518 
L 108.857902 417.290879 
L 114.925028 410.676488 
L 120.992153 418.602678 
L 127.059279 419.493321 
L 133.126405 416.049902 
L 139.193531 420.234215 
L 145.260657 411.261604 
L 151.327782 418.340666 
L 157.394908 421.624543 
L 163.462034 406.751535 
L 169.52916 422.214113 
L 175.596286 407.205536 
L 181.663411 426.946337 
L 187.730537 413.150789 
L 193.797663 413.304354 
L 199.864789 418.702836 
L 205.931915 408.277872 
L 211.99904 428.423469 
L 218.066166 404.925249 
L 224.133292 425.07832 
L 230.200418 405.159551 
L 236.267544 418.80097 
L 242.334669 413.884137 
L 248.401795 421.151854 
L 254.468921 417.264761 
L 260.536047 419.103969 
L 266.603173 408.353347 
L 272.670298 419.165994 
L 278.737424 414.86563 
L 284.80455 421.241223 
L 290.871676 410.991234 
L 296.938802 425.692959 
L 303.005927 410.249084 
L 309.073053 416.185534 
L 315.140179 409.033006 
L 321.207305 419.152975 
L 327.274431 411.0899 
L 333.341556 420.997174 
L 339.408682 412.764047 
L 345.475808 424.955176 
L 351.542934 411.015436 
L 357.61006 411.962708 
L 363.677185 419.31226 
L 369.744311 417.372156 
L 375.811437 416.765535 
L 381.878563 417.554759 
L 387.945689 411.762537 
L 394.012815 425.412106 
L 400.07994 394.411709 
L 406.147066 438.188495 
L 412.214192 391.850237 
L 418.281318 440.787663 
L 424.348444 388.903512 
L 430.415569 446.734816 
L 436.482695 382.473179 
L 442.549821 448.93221 
L 448.616947 384.884828 
L 454.684073 448.595466 
L 460.751198 384.267764 
L 466.818324 451.269092 
L 472.88545 378.203823 
L 478.952576 456.939454 
L 485.019702 377.31251 
L 491.086827 453.912692 
L 497.153953 376.535065 
L 503.221079 449.869864 
L 509.288205 377.201709 
L 515.355331 458.95906 
L 521.422456 369.548759 
L 527.489582 468.833642 
L 533.556708 363.765503 
L 539.623834 471.51336 
L 545.69096 359.779597 
L 551.758085 472.143163 
L 557.825211 357.605584 
L 563.892337 475.134092 
L 569.959463 357.794356 
L 576.026589 471.025653 
L 582.093714 360.976986 
L 588.16084 468.379713 
L 594.227966 364.032274 
L 600.295092 472.155541 
L 606.362218 357.38221 
L 612.429343 474.510229 
L 618.496469 365.227424 
L 624.563595 464.563119 
L 630.630721 368.961203 
L 636.697847 458.911792 
L 642.764972 374.107662 
L 648.832098 461.218565 
L 654.899224 365.483782 
L 660.96635 469.699895 
L 667.033476 366.453942 
L 673.100601 476.527702 
L 679.167727 354.814069 
" clip-path="url(#p62efc70656)" style="fill: none; stroke: #ff7f0e; stroke-width: 1.5; stroke-linecap: square"/>
   </g>
   <g id="line2d_41">
    <path d="M 78.522273 418.955045 
L 84.589399 412.329769 
L 90.656524 419.220537 
L 96.72365 415.490636 
L 102.790776 415.999573 
L 108.857902 417.223715 
L 114.925028 418.884836 
L 120.992153 411.183173 
L 127.059279 421.806668 
L 133.126405 403.742801 
L 139.193531 431.550844 
L 145.260657 410.315405 
L 151.327782 428.614145 
L 157.394908 408.914617 
L 163.462034 427.413172 
L 169.52916 409.390887 
L 175.596286 422.440941 
L 181.663411 404.714907 
L 187.730537 427.930764 
L 193.797663 399.406491 
L 199.864789 434.949339 
L 205.931915 403.102117 
L 211.99904 434.504796 
L 218.066166 396.864277 
L 224.133292 439.704117 
L 230.200418 386.848081 
L 236.267544 450.862896 
L 242.334669 377.769179 
L 248.401795 458.029215 
L 254.468921 373.075814 
L 260.536047 461.055135 
L 266.603173 365.425228 
L 272.670298 463.057696 
L 278.737424 372.095055 
L 284.80455 465.667143 
L 290.871676 358.941647 
L 296.938802 478.427129 
L 303.005927 354.544476 
L 309.073053 473.197342 
L 315.140179 358.843357 
L 321.207305 477.152958 
L 327.274431 353.873166 
L 333.341556 479.075145 
L 339.408682 353.057912 
L 345.475808 479.580044 
L 351.542934 354.005717 
L 357.61006 480.913014 
L 363.677185 354.130711 
L 369.744311 476.713721 
L 375.811437 353.470194 
L 381.878563 482.408371 
L 387.945689 345.63275 
L 394.012815 488.79545 
L 400.07994 335.710392 
L 406.147066 497.297809 
L 412.214192 328.810752 
L 418.281318 504.743036 
L 424.348444 331.232766 
L 430.415569 504.967125 
L 436.482695 328.765078 
L 442.549821 508.053264 
L 448.616947 327.113263 
L 454.684073 508.558455 
L 460.751198 324.28619 
L 466.818324 508.053031 
L 472.88545 327.717183 
L 478.952576 508.229299 
L 485.019702 316.978102 
L 491.086827 514.715211 
L 497.153953 318.257135 
L 503.221079 514.786004 
L 509.288205 316.325246 
L 515.355331 516.471996 
L 521.422456 306.905261 
L 527.489582 523.22406 
L 533.556708 319.648014 
L 539.623834 510.158889 
L 545.69096 327.030226 
L 551.758085 512.068381 
L 557.825211 321.002742 
L 563.892337 506.349794 
L 569.959463 323.067374 
L 576.026589 512.708447 
L 582.093714 319.457676 
L 588.16084 510.551084 
L 594.227966 326.355333 
L 600.295092 503.477163 
L 606.362218 331.864246 
L 612.429343 508.683592 
L 618.496469 319.20541 
L 624.563595 516.104924 
L 630.630721 323.996369 
L 636.697847 504.731125 
L 642.764972 332.353999 
L 648.832098 498.869235 
L 654.899224 329.438978 
L 660.96635 505.582315 
L 667.033476 327.950111 
L 673.100601 501.812047 
L 679.167727 329.196111 
" clip-path="url(#p62efc70656)" style="fill: none; stroke: #2ca02c; stroke-width: 1.5; stroke-linecap: square"/>
   </g>
   <g id="line2d_42">
    <path d="M 78.522273 413.335124 
L 84.589399 423.669972 
L 90.656524 405.900663 
L 96.72365 425.286441 
L 102.790776 412.0317 
L 108.857902 426.935016 
L 114.925028 409.988298 
L 120.992153 421.735103 
L 127.059279 406.43061 
L 133.126405 425.064292 
L 139.193531 411.047021 
L 145.260657 423.041707 
L 151.327782 409.076761 
L 157.394908 425.119979 
L 163.462034 410.819816 
L 169.52916 420.573695 
L 175.596286 412.74409 
L 181.663411 416.134274 
L 187.730537 414.87524 
L 193.797663 417.400293 
L 199.864789 420.137877 
L 205.931915 407.559267 
L 211.99904 426.561202 
L 218.066166 406.624161 
L 224.133292 426.140237 
L 230.200418 409.747656 
L 236.267544 421.546355 
L 242.334669 413.241813 
L 248.401795 419.482921 
L 254.468921 415.155064 
L 260.536047 416.479849 
L 266.603173 419.799432 
L 272.670298 407.516802 
L 278.737424 418.440916 
L 284.80455 409.541666 
L 290.871676 424.103623 
L 296.938802 410.289823 
L 303.005927 431.305375 
L 309.073053 401.113102 
L 315.140179 437.214382 
L 321.207305 394.743328 
L 327.274431 431.284523 
L 333.341556 398.825672 
L 339.408682 437.368847 
L 345.475808 400.683978 
L 351.542934 429.418054 
L 357.61006 409.889977 
L 363.677185 419.629305 
L 369.744311 412.246526 
L 375.811437 424.071641 
L 381.878563 414.953923 
L 387.945689 419.337474 
L 394.012815 409.964495 
L 400.07994 420.49657 
L 406.147066 416.137468 
L 412.214192 414.286872 
L 418.281318 423.019075 
L 424.348444 408.528237 
L 430.415569 429.257598 
L 436.482695 400.740944 
L 442.549821 430.607758 
L 448.616947 396.945807 
L 454.684073 439.774656 
L 460.751198 394.142154 
L 466.818324 444.879227 
L 472.88545 387.012977 
L 478.952576 444.506184 
L 485.019702 388.760295 
L 491.086827 444.951163 
L 497.153953 391.881089 
L 503.221079 436.43667 
L 509.288205 391.418587 
L 515.355331 438.656502 
L 521.422456 394.607657 
L 527.489582 437.737243 
L 533.556708 392.297178 
L 539.623834 434.492743 
L 545.69096 401.785228 
L 551.758085 430.906346 
L 557.825211 404.027494 
L 563.892337 425.620635 
L 569.959463 412.853236 
L 576.026589 415.315991 
L 582.093714 418.81229 
L 588.16084 420.415387 
L 594.227966 409.90442 
L 600.295092 420.10289 
L 606.362218 411.365637 
L 612.429343 420.255218 
L 618.496469 415.909033 
L 624.563595 414.234612 
L 630.630721 417.916757 
L 636.697847 414.216646 
L 642.764972 415.263439 
L 648.832098 421.961229 
L 654.899224 410.847081 
L 660.96635 432.125672 
L 667.033476 406.183467 
L 673.100601 426.797591 
L 679.167727 410.384285 
" clip-path="url(#p62efc70656)" style="fill: none; stroke: #d62728; stroke-width: 1.5; stroke-linecap: square"/>
   </g>
   <g id="line2d_43">
    <path d="M 78.522273 404.273916 
L 84.589399 419.602003 
L 90.656524 407.999141 
L 96.72365 418.771253 
L 102.790776 409.492914 
L 108.857902 424.323077 
L 114.925028 406.218573 
L 120.992153 435.533817 
L 127.059279 398.621632 
L 133.126405 434.17486 
L 139.193531 397.753502 
L 145.260657 428.029701 
L 151.327782 402.220241 
L 157.394908 428.381798 
L 163.462034 405.86757 
L 169.52916 418.697192 
L 175.596286 414.82837 
L 181.663411 423.055149 
L 187.730537 408.741145 
L 193.797663 422.985151 
L 199.864789 411.139743 
L 205.931915 424.16781 
L 211.99904 401.531597 
L 218.066166 426.250216 
L 224.133292 405.988116 
L 230.200418 421.915049 
L 236.267544 415.506654 
L 242.334669 407.74046 
L 248.401795 426.311095 
L 254.468921 402.922489 
L 260.536047 426.199109 
L 266.603173 404.819046 
L 272.670298 427.859754 
L 278.737424 398.27141 
L 284.80455 429.616184 
L 290.871676 410.127363 
L 296.938802 415.795303 
L 303.005927 419.294989 
L 309.073053 415.266549 
L 315.140179 422.793033 
L 321.207305 407.483732 
L 327.274431 419.732099 
L 333.341556 421.998748 
L 339.408682 407.586093 
L 345.475808 425.398961 
L 351.542934 408.186724 
L 357.61006 424.632815 
L 363.677185 410.65898 
L 369.744311 422.620657 
L 375.811437 414.488886 
L 381.878563 422.448613 
L 387.945689 409.633274 
L 394.012815 422.91124 
L 400.07994 408.2943 
L 406.147066 422.984937 
L 412.214192 408.816301 
L 418.281318 420.653019 
L 424.348444 403.824449 
L 430.415569 429.122669 
L 436.482695 402.999351 
L 442.549821 431.214959 
L 448.616947 398.820685 
L 454.684073 436.127 
L 460.751198 403.548284 
L 466.818324 431.877576 
L 472.88545 405.298977 
L 478.952576 433.782152 
L 485.019702 398.150964 
L 491.086827 429.909378 
L 497.153953 394.671868 
L 503.221079 440.869275 
L 509.288205 383.499723 
L 515.355331 449.225271 
L 521.422456 381.51092 
L 527.489582 450.602604 
L 533.556708 380.469112 
L 539.623834 450.918801 
L 545.69096 380.789624 
L 551.758085 450.824402 
L 557.825211 379.36713 
L 563.892337 447.438721 
L 569.959463 389.671558 
L 576.026589 447.637505 
L 582.093714 384.624217 
L 588.16084 446.839219 
L 594.227966 389.445362 
L 600.295092 439.532656 
L 606.362218 396.89098 
L 612.429343 439.716091 
L 618.496469 391.858579 
L 624.563595 440.289412 
L 630.630721 389.016967 
L 636.697847 443.202451 
L 642.764972 390.219851 
L 648.832098 442.040761 
L 654.899224 395.548064 
L 660.96635 436.316692 
L 667.033476 399.906534 
L 673.100601 438.14165 
L 679.167727 395.966804 
" clip-path="url(#p62efc70656)" style="fill: none; stroke: #9467bd; stroke-width: 1.5; stroke-linecap: square"/>
   </g>
   <g id="line2d_44">
    <path d="M 78.522273 411.52562 
L 84.589399 421.082286 
L 90.656524 409.642456 
L 96.72365 420.961739 
L 102.790776 411.035177 
L 108.857902 419.564576 
L 114.925028 416.39563 
L 120.992153 411.400092 
L 127.059279 418.212214 
L 133.126405 413.029212 
L 139.193531 422.525332 
L 145.260657 414.384963 
L 151.327782 415.276281 
L 157.394908 416.284333 
L 163.462034 417.213192 
L 169.52916 415.922933 
L 175.596286 416.151093 
L 181.663411 415.49025 
L 187.730537 418.947042 
L 193.797663 417.043501 
L 199.864789 412.195287 
L 205.931915 419.128226 
L 211.99904 414.454997 
L 218.066166 418.896454 
L 224.133292 409.103056 
L 230.200418 424.606393 
L 236.267544 401.713712 
L 242.334669 432.682425 
L 248.401795 404.602817 
L 254.468921 431.55012 
L 260.536047 402.538734 
L 266.603173 424.230345 
L 272.670298 407.802366 
L 278.737424 421.011929 
L 284.80455 412.066733 
L 290.871676 423.683823 
L 296.938802 405.870015 
L 303.005927 428.251282 
L 309.073053 405.677184 
L 315.140179 429.676077 
L 321.207305 390.296981 
L 327.274431 441.814009 
L 333.341556 391.323464 
L 339.408682 436.997226 
L 345.475808 395.159612 
L 351.542934 446.733982 
L 357.61006 389.493359 
L 363.677185 444.324645 
L 369.744311 384.238967 
L 375.811437 442.784372 
L 381.878563 390.081115 
L 387.945689 443.135397 
L 394.012815 391.697716 
L 400.07994 441.377175 
L 406.147066 390.145129 
L 412.214192 440.151987 
L 418.281318 394.360738 
L 424.348444 438.205517 
L 430.415569 402.580531 
L 436.482695 425.121843 
L 442.549821 403.394534 
L 448.616947 431.042564 
L 454.684073 396.876194 
L 460.751198 438.190315 
L 466.818324 399.315374 
L 472.88545 435.028711 
L 478.952576 399.998997 
L 485.019702 427.161942 
L 491.086827 402.392454 
L 497.153953 428.550564 
L 503.221079 407.79733 
L 509.288205 427.189678 
L 515.355331 405.140188 
L 521.422456 420.021238 
L 527.489582 413.037175 
L 533.556708 416.436893 
L 539.623834 421.369958 
L 545.69096 413.331189 
L 551.758085 415.94742 
L 557.825211 407.497915 
L 563.892337 419.030017 
L 569.959463 415.825779 
L 576.026589 415.605955 
L 582.093714 414.45951 
L 588.16084 417.210212 
L 594.227966 418.935291 
L 600.295092 408.487037 
L 606.362218 426.730969 
L 612.429343 402.995953 
L 618.496469 427.475617 
L 624.563595 403.702954 
L 630.630721 424.447348 
L 636.697847 414.972039 
L 642.764972 417.409395 
L 648.832098 414.717391 
L 654.899224 415.807179 
L 660.96635 420.80113 
L 667.033476 411.262846 
L 673.100601 422.365617 
L 679.167727 416.581899 
" clip-path="url(#p62efc70656)" style="fill: none; stroke: #8c564b; stroke-width: 1.5; stroke-linecap: square"/>
   </g>
   <g id="line2d_45">
    <path d="M 78.522273 404.68991 
L 84.589399 428.004333 
L 90.656524 396.86099 
L 96.72365 437.269227 
L 102.790776 393.426904 
L 108.857902 440.002177 
L 114.925028 390.959699 
L 120.992153 444.994831 
L 127.059279 385.321368 
L 133.126405 442.765578 
L 139.193531 390.51203 
L 145.260657 442.587793 
L 151.327782 392.052044 
L 157.394908 434.236534 
L 163.462034 394.437828 
L 169.52916 438.991828 
L 175.596286 390.967431 
L 181.663411 446.172149 
L 187.730537 391.352043 
L 193.797663 444.185089 
L 199.864789 400.304706 
L 205.931915 431.563298 
L 211.99904 401.491856 
L 218.066166 434.987351 
L 224.133292 383.611735 
L 230.200418 446.104386 
L 236.267544 385.542467 
L 242.334669 442.52728 
L 248.401795 388.290004 
L 254.468921 446.145245 
L 260.536047 387.903256 
L 266.603173 439.733383 
L 272.670298 393.709769 
L 278.737424 436.963478 
L 284.80455 389.655719 
L 290.871676 442.020645 
L 296.938802 387.731703 
L 303.005927 444.09207 
L 309.073053 389.272181 
L 315.140179 441.523214 
L 321.207305 394.427513 
L 327.274431 438.253285 
L 333.341556 397.080802 
L 339.408682 431.408986 
L 345.475808 391.546746 
L 351.542934 444.671888 
L 357.61006 389.825863 
L 363.677185 443.235681 
L 369.744311 394.423582 
L 375.811437 437.796744 
L 381.878563 385.335858 
L 387.945689 443.741858 
L 394.012815 377.569811 
L 400.07994 453.874596 
L 406.147066 373.514425 
L 412.214192 460.334472 
L 418.281318 372.728054 
L 424.348444 459.391403 
L 430.415569 370.195828 
L 436.482695 463.623415 
L 442.549821 357.812049 
L 448.616947 475.174974 
L 454.684073 363.212283 
L 460.751198 473.297126 
L 466.818324 360.870922 
L 472.88545 472.664878 
L 478.952576 351.867522 
L 485.019702 477.790899 
L 491.086827 357.534728 
L 497.153953 478.825034 
L 503.221079 356.334146 
L 509.288205 475.935235 
L 515.355331 354.352214 
L 521.422456 478.228973 
L 527.489582 353.890368 
L 533.556708 475.538799 
L 539.623834 355.484564 
L 545.69096 474.765856 
L 551.758085 357.673832 
L 557.825211 481.224626 
L 563.892337 342.243442 
L 569.959463 486.881723 
L 576.026589 344.987405 
L 582.093714 482.571532 
L 588.16084 353.841319 
L 594.227966 481.32093 
L 600.295092 351.262448 
L 606.362218 480.219631 
L 612.429343 355.322169 
L 618.496469 473.874155 
L 624.563595 360.665444 
L 630.630721 471.587407 
L 636.697847 357.818793 
L 642.764972 476.177115 
L 648.832098 347.837155 
L 654.899224 486.965327 
L 660.96635 352.291329 
L 667.033476 482.019078 
L 673.100601 357.875478 
L 679.167727 477.44086 
" clip-path="url(#p62efc70656)" style="fill: none; stroke: #e377c2; stroke-width: 1.5; stroke-linecap: square"/>
   </g>
   <g id="line2d_46">
    <path d="M 78.522273 416.957027 
L 84.589399 417.976138 
L 90.656524 405.638433 
L 96.72365 425.222993 
L 102.790776 412.041893 
L 108.857902 423.889331 
L 114.925028 404.57189 
L 120.992153 418.249296 
L 127.059279 416.850686 
L 133.126405 421.254664 
L 139.193531 413.132458 
L 145.260657 414.087717 
L 151.327782 422.663213 
L 157.394908 410.849224 
L 163.462034 419.150306 
L 169.52916 417.342927 
L 175.596286 415.155543 
L 181.663411 417.412303 
L 187.730537 415.442961 
L 193.797663 416.981806 
L 199.864789 412.280498 
L 205.931915 420.041499 
L 211.99904 414.982147 
L 218.066166 422.351599 
L 224.133292 410.227632 
L 230.200418 425.043939 
L 236.267544 414.581846 
L 242.334669 420.251822 
L 248.401795 410.447234 
L 254.468921 417.796804 
L 260.536047 417.499895 
L 266.603173 413.220405 
L 272.670298 419.543296 
L 278.737424 415.126888 
L 284.80455 416.50502 
L 290.871676 421.710352 
L 296.938802 408.310288 
L 303.005927 424.96302 
L 309.073053 408.085096 
L 315.140179 427.499031 
L 321.207305 408.256156 
L 327.274431 426.767265 
L 333.341556 400.326764 
L 339.408682 433.812682 
L 345.475808 396.438916 
L 351.542934 441.751368 
L 357.61006 396.649416 
L 363.677185 431.965739 
L 369.744311 399.51461 
L 375.811437 430.845617 
L 381.878563 400.885128 
L 387.945689 434.230423 
L 394.012815 401.990871 
L 400.07994 428.910884 
L 406.147066 395.836089 
L 412.214192 431.121801 
L 418.281318 406.387045 
L 424.348444 424.122232 
L 430.415569 410.58374 
L 436.482695 421.39023 
L 442.549821 407.151501 
L 448.616947 425.66537 
L 454.684073 405.890305 
L 460.751198 424.30863 
L 466.818324 411.780621 
L 472.88545 421.973923 
L 478.952576 412.227011 
L 485.019702 427.762648 
L 491.086827 403.690764 
L 497.153953 428.459791 
L 503.221079 407.960123 
L 509.288205 428.90383 
L 515.355331 401.571366 
L 521.422456 425.607369 
L 527.489582 405.163306 
L 533.556708 430.897803 
L 539.623834 396.771212 
L 545.69096 435.639829 
L 551.758085 394.10354 
L 557.825211 435.800108 
L 563.892337 396.334543 
L 569.959463 432.449717 
L 576.026589 401.018187 
L 582.093714 427.450144 
L 588.16084 410.674913 
L 594.227966 422.848388 
L 600.295092 408.875953 
L 606.362218 423.166823 
L 612.429343 414.504837 
L 618.496469 417.941832 
L 624.563595 418.354789 
L 630.630721 411.859156 
L 636.697847 422.053871 
L 642.764972 412.050986 
L 648.832098 417.887809 
L 654.899224 417.150382 
L 660.96635 411.889596 
L 667.033476 417.18042 
L 673.100601 416.729441 
L 679.167727 414.226528 
" clip-path="url(#p62efc70656)" style="fill: none; stroke: #7f7f7f; stroke-width: 1.5; stroke-linecap: square"/>
   </g>
   <g id="line2d_47">
    <path d="M 78.522273 413.352219 
L 84.589399 425.560869 
L 90.656524 408.853198 
L 96.72365 422.166854 
L 102.790776 417.265153 
L 108.857902 418.324681 
L 114.925028 416.10518 
L 120.992153 410.216885 
L 127.059279 425.533599 
L 133.126405 406.077653 
L 139.193531 428.524311 
L 145.260657 405.309284 
L 151.327782 421.053397 
L 157.394908 406.440097 
L 163.462034 428.589044 
L 169.52916 399.157892 
L 175.596286 434.536505 
L 181.663411 393.274634 
L 187.730537 435.171108 
L 193.797663 398.764302 
L 199.864789 429.623811 
L 205.931915 407.374584 
L 211.99904 430.412059 
L 218.066166 401.678212 
L 224.133292 425.271836 
L 230.200418 407.14995 
L 236.267544 429.508257 
L 242.334669 410.701764 
L 248.401795 418.046791 
L 254.468921 417.131123 
L 260.536047 412.95084 
L 266.603173 420.632499 
L 272.670298 408.632351 
L 278.737424 431.410667 
L 284.80455 398.227092 
L 290.871676 430.940477 
L 296.938802 404.811326 
L 303.005927 426.33423 
L 309.073053 404.868264 
L 315.140179 429.166463 
L 321.207305 405.183346 
L 327.274431 435.894989 
L 333.341556 400.897072 
L 339.408682 434.225613 
L 345.475808 398.962184 
L 351.542934 432.260909 
L 357.61006 397.237413 
L 363.677185 442.693061 
L 369.744311 383.645011 
L 375.811437 445.521323 
L 381.878563 388.017491 
L 387.945689 440.471396 
L 394.012815 396.828284 
L 400.07994 436.351963 
L 406.147066 403.169363 
L 412.214192 424.832163 
L 418.281318 401.028555 
L 424.348444 433.248291 
L 430.415569 406.548252 
L 436.482695 421.785679 
L 442.549821 411.271483 
L 448.616947 431.711551 
L 454.684073 402.371665 
L 460.751198 428.952826 
L 466.818324 399.056529 
L 472.88545 435.385947 
L 478.952576 396.060038 
L 485.019702 434.843807 
L 491.086827 392.846915 
L 497.153953 432.394637 
L 503.221079 404.384408 
L 509.288205 419.395127 
L 515.355331 420.579968 
L 521.422456 409.243017 
L 527.489582 435.322559 
L 533.556708 397.678154 
L 539.623834 433.4806 
L 545.69096 398.515766 
L 551.758085 432.690442 
L 557.825211 394.151042 
L 563.892337 447.889047 
L 569.959463 386.489316 
L 576.026589 444.958679 
L 582.093714 393.983156 
L 588.16084 440.498659 
L 594.227966 390.075264 
L 600.295092 446.164299 
L 606.362218 390.388808 
L 612.429343 441.731053 
L 618.496469 389.979666 
L 624.563595 440.312185 
L 630.630721 393.911475 
L 636.697847 438.108766 
L 642.764972 391.875367 
L 648.832098 443.532665 
L 654.899224 392.672818 
L 660.96635 443.0798 
L 667.033476 390.199063 
L 673.100601 440.272491 
L 679.167727 387.431204 
" clip-path="url(#p62efc70656)" style="fill: none; stroke: #bcbd22; stroke-width: 1.5; stroke-linecap: square"/>
   </g>
   <g id="line2d_48">
    <path d="M 78.522273 421.12469 
L 84.589399 408.153739 
L 90.656524 423.826705 
L 96.72365 410.737481 
L 102.790776 418.313902 
L 108.857902 418.449539 
L 114.925028 413.805577 
L 120.992153 420.195771 
L 127.059279 408.787571 
L 133.126405 419.728314 
L 139.193531 423.857082 
L 145.260657 404.969825 
L 151.327782 423.610237 
L 157.394908 411.555445 
L 163.462034 422.312315 
L 169.52916 407.036033 
L 175.596286 431.739657 
L 181.663411 409.47576 
L 187.730537 423.012631 
L 193.797663 412.180539 
L 199.864789 411.682323 
L 205.931915 421.423908 
L 211.99904 409.804492 
L 218.066166 416.074804 
L 224.133292 414.514587 
L 230.200418 424.155052 
L 236.267544 411.472997 
L 242.334669 424.623675 
L 248.401795 403.92051 
L 254.468921 432.084291 
L 260.536047 395.059259 
L 266.603173 435.707621 
L 272.670298 388.727773 
L 278.737424 448.091751 
L 284.80455 386.671144 
L 290.871676 446.38513 
L 296.938802 387.645212 
L 303.005927 451.518449 
L 309.073053 379.394946 
L 315.140179 451.313186 
L 321.207305 377.455347 
L 327.274431 460.504636 
L 333.341556 368.29108 
L 339.408682 465.452751 
L 345.475808 363.268003 
L 351.542934 466.210403 
L 357.61006 357.914035 
L 363.677185 467.056444 
L 369.744311 366.739204 
L 375.811437 461.349184 
L 381.878563 368.207573 
L 387.945689 472.269481 
L 394.012815 360.220462 
L 400.07994 468.542717 
L 406.147066 368.425892 
L 412.214192 469.633787 
L 418.281318 362.677048 
L 424.348444 468.278195 
L 430.415569 360.882569 
L 436.482695 465.711037 
L 442.549821 367.817247 
L 448.616947 467.463202 
L 454.684073 365.306074 
L 460.751198 473.163059 
L 466.818324 364.967879 
L 472.88545 468.004143 
L 478.952576 365.463106 
L 485.019702 471.321552 
L 491.086827 358.291354 
L 497.153953 475.174891 
L 503.221079 357.675219 
L 509.288205 475.938538 
L 515.355331 360.503883 
L 521.422456 472.914405 
L 527.489582 356.630492 
L 533.556708 482.252739 
L 539.623834 347.764532 
L 545.69096 484.84941 
L 551.758085 353.898412 
L 557.825211 475.175442 
L 563.892337 359.354603 
L 569.959463 477.479524 
L 576.026589 360.55793 
L 582.093714 473.72664 
L 588.16084 356.064333 
L 594.227966 473.37655 
L 600.295092 362.32392 
L 606.362218 470.9568 
L 612.429343 370.304487 
L 618.496469 458.837748 
L 624.563595 378.536695 
L 630.630721 457.782187 
L 636.697847 372.692896 
L 642.764972 463.684477 
L 648.832098 372.048419 
L 654.899224 456.662714 
L 660.96635 378.354624 
L 667.033476 450.772284 
L 673.100601 375.007329 
L 679.167727 462.204868 
" clip-path="url(#p62efc70656)" style="fill: none; stroke: #17becf; stroke-width: 1.5; stroke-linecap: square"/>
   </g>
   <g id="patch_9">
    <path d="M 48.49 534.04 
L 48.49 296.089321 
" style="fill: none; stroke: #000000; stroke-width: 0.8; stroke-linejoin: miter; stroke-linecap: square"/>
   </g>
   <g id="patch_10">
    <path d="M 709.2 534.04 
L 709.2 296.089321 
" style="fill: none; stroke: #000000; stroke-width: 0.8; stroke-linejoin: miter; stroke-linecap: square"/>
   </g>
   <g id="patch_11">
    <path d="M 48.49 534.04 
L 709.2 534.04 
" style="fill: none; stroke: #000000; stroke-width: 0.8; stroke-linejoin: miter; stroke-linecap: square"/>
   </g>
   <g id="patch_12">
    <path d="M 48.49 296.089321 
L 709.2 296.089321 
" style="fill: none; stroke: #000000; stroke-width: 0.8; stroke-linejoin: miter; stroke-linecap: square"/>
   </g>
   <g id="text_24">
    <!-- 20 Realizations of AR(1) Process with ϕ=-1 -->
    <g transform="translate(250.712188 290.089321) scale(0.12 -0.12)">
     <use xlink:href="#DejaVuSans-32"/>
     <use xlink:href="#DejaVuSans-30" x="63.623047"/>
     <use xlink:href="#DejaVuSans-20" x="127.246094"/>
     <use xlink:href="#DejaVuSans-52" x="159.033203"/>
     <use xlink:href="#DejaVuSans-65" x="224.015625"/>
     <use xlink:href="#DejaVuSans-61" x="285.539062"/>
     <use xlink:href="#DejaVuSans-6c" x="346.818359"/>
     <use xlink:href="#DejaVuSans-69" x="374.601562"/>
     <use xlink:href="#DejaVuSans-7a" x="402.384766"/>
     <use xlink:href="#DejaVuSans-61" x="454.875"/>
     <use xlink:href="#DejaVuSans-74" x="516.154297"/>
     <use xlink:href="#DejaVuSans-69" x="555.363281"/>
     <use xlink:href="#DejaVuSans-6f" x="583.146484"/>
     <use xlink:href="#DejaVuSans-6e" x="644.328125"/>
     <use xlink:href="#DejaVuSans-73" x="707.707031"/>
     <use xlink:href="#DejaVuSans-20" x="759.806641"/>
     <use xlink:href="#DejaVuSans-6f" x="791.59375"/>
     <use xlink:href="#DejaVuSans-66" x="852.775391"/>
     <use xlink:href="#DejaVuSans-20" x="887.980469"/>
     <use xlink:href="#DejaVuSans-41" x="919.767578"/>
     <use xlink:href="#DejaVuSans-52" x="988.175781"/>
     <use xlink:href="#DejaVuSans-28" x="1057.658203"/>
     <use xlink:href="#DejaVuSans-31" x="1096.671875"/>
     <use xlink:href="#DejaVuSans-29" x="1160.294922"/>
     <use xlink:href="#DejaVuSans-20" x="1199.308594"/>
     <use xlink:href="#DejaVuSans-50" x="1231.095703"/>
     <use xlink:href="#DejaVuSans-72" x="1289.648438"/>
     <use xlink:href="#DejaVuSans-6f" x="1328.511719"/>
     <use xlink:href="#DejaVuSans-63" x="1389.693359"/>
     <use xlink:href="#DejaVuSans-65" x="1444.673828"/>
     <use xlink:href="#DejaVuSans-73" x="1506.197266"/>
     <use xlink:href="#DejaVuSans-73" x="1558.296875"/>
     <use xlink:href="#DejaVuSans-20" x="1610.396484"/>
     <use xlink:href="#DejaVuSans-77" x="1642.183594"/>
     <use xlink:href="#DejaVuSans-69" x="1723.970703"/>
     <use xlink:href="#DejaVuSans-74" x="1751.753906"/>
     <use xlink:href="#DejaVuSans-68" x="1790.962891"/>
     <use xlink:href="#DejaVuSans-20" x="1854.341797"/>
     <use xlink:href="#DejaVuSans-3d5" x="1886.128906"/>
     <use xlink:href="#DejaVuSans-3d" x="1952.095703"/>
     <use xlink:href="#DejaVuSans-2d" x="2035.884766"/>
     <use xlink:href="#DejaVuSans-31" x="2071.96875"/>
    </g>
   </g>
  </g>
 </g>
 <defs>
  <clipPath id="p9356f3048e">
   <rect x="48.49" y="26.16" width="660.71" height="237.950679"/>
  </clipPath>
  <clipPath id="p62efc70656">
   <rect x="48.49" y="296.089321" width="660.71" height="237.950679"/>
  </clipPath>
 </defs>
</svg>
