<?xml version="1.0" encoding="utf-8" standalone="no"?>
<!DOCTYPE svg PUBLIC "-//W3C//DTD SVG 1.1//EN"
  "http://www.w3.org/Graphics/SVG/1.1/DTD/svg11.dtd">
<svg xmlns:xlink="http://www.w3.org/1999/xlink" width="720pt" height="576pt" viewBox="0 0 720 576" xmlns="http://www.w3.org/2000/svg" version="1.1">
 <metadata>
  <rdf:RDF xmlns:dc="http://purl.org/dc/elements/1.1/" xmlns:cc="http://creativecommons.org/ns#" xmlns:rdf="http://www.w3.org/1999/02/22-rdf-syntax-ns#">
   <cc:Work>
    <dc:type rdf:resource="http://purl.org/dc/dcmitype/StillImage"/>
    <dc:date>2024-02-20T02:10:01.974540</dc:date>
    <dc:format>image/svg+xml</dc:format>
    <dc:creator>
     <cc:Agent>
      <dc:title>Matplotlib v3.8.2, https://matplotlib.org/</dc:title>
     </cc:Agent>
    </dc:creator>
   </cc:Work>
  </rdf:RDF>
 </metadata>
 <defs>
  <style type="text/css">*{stroke-linejoin: round; stroke-linecap: butt}</style>
 </defs>
 <g id="figure_1">
  <g id="patch_1">
   <path d="M 0 576 
L 720 576 
L 720 0 
L 0 0 
z
" style="fill: #ffffff"/>
  </g>
  <g id="axes_1">
   <g id="patch_2">
    <path d="M 58.075 265.27 
L 709.2 265.27 
L 709.2 26.16 
L 58.075 26.16 
z
" style="fill: #ffffff"/>
   </g>
   <g id="matplotlib.axis_1">
    <g id="xtick_1">
     <g id="line2d_1">
      <defs>
       <path id="m38e09a5d10" d="M 0 0 
L 0 3.5 
" style="stroke: #000000; stroke-width: 0.8"/>
      </defs>
      <g>
       <use xlink:href="#m38e09a5d10" x="87.671591" y="265.27" style="stroke: #000000; stroke-width: 0.8"/>
      </g>
     </g>
    </g>
    <g id="xtick_2">
     <g id="line2d_2">
      <g>
       <use xlink:href="#m38e09a5d10" x="207.253776" y="265.27" style="stroke: #000000; stroke-width: 0.8"/>
      </g>
     </g>
    </g>
    <g id="xtick_3">
     <g id="line2d_3">
      <g>
       <use xlink:href="#m38e09a5d10" x="326.835962" y="265.27" style="stroke: #000000; stroke-width: 0.8"/>
      </g>
     </g>
    </g>
    <g id="xtick_4">
     <g id="line2d_4">
      <g>
       <use xlink:href="#m38e09a5d10" x="446.418147" y="265.27" style="stroke: #000000; stroke-width: 0.8"/>
      </g>
     </g>
    </g>
    <g id="xtick_5">
     <g id="line2d_5">
      <g>
       <use xlink:href="#m38e09a5d10" x="566.000333" y="265.27" style="stroke: #000000; stroke-width: 0.8"/>
      </g>
     </g>
    </g>
    <g id="xtick_6">
     <g id="line2d_6">
      <g>
       <use xlink:href="#m38e09a5d10" x="685.582518" y="265.27" style="stroke: #000000; stroke-width: 0.8"/>
      </g>
     </g>
    </g>
   </g>
   <g id="matplotlib.axis_2">
    <g id="ytick_1">
     <g id="line2d_7">
      <defs>
       <path id="m8ef2bd7654" d="M 0 0 
L -3.5 0 
" style="stroke: #000000; stroke-width: 0.8"/>
      </defs>
      <g>
       <use xlink:href="#m8ef2bd7654" x="58.075" y="241.390812" style="stroke: #000000; stroke-width: 0.8"/>
      </g>
     </g>
     <g id="text_1">
      <!-- −40000 -->
      <g transform="translate(10.882812 245.19003) scale(0.1 -0.1)">
       <defs>
        <path id="DejaVuSans-2212" d="M 678 2272 
L 4684 2272 
L 4684 1741 
L 678 1741 
L 678 2272 
z
" transform="scale(0.015625)"/>
        <path id="DejaVuSans-34" d="M 2419 4116 
L 825 1625 
L 2419 1625 
L 2419 4116 
z
M 2253 4666 
L 3047 4666 
L 3047 1625 
L 3713 1625 
L 3713 1100 
L 3047 1100 
L 3047 0 
L 2419 0 
L 2419 1100 
L 313 1100 
L 313 1709 
L 2253 4666 
z
" transform="scale(0.015625)"/>
        <path id="DejaVuSans-30" d="M 2034 4250 
Q 1547 4250 1301 3770 
Q 1056 3291 1056 2328 
Q 1056 1369 1301 889 
Q 1547 409 2034 409 
Q 2525 409 2770 889 
Q 3016 1369 3016 2328 
Q 3016 3291 2770 3770 
Q 2525 4250 2034 4250 
z
M 2034 4750 
Q 2819 4750 3233 4129 
Q 3647 3509 3647 2328 
Q 3647 1150 3233 529 
Q 2819 -91 2034 -91 
Q 1250 -91 836 529 
Q 422 1150 422 2328 
Q 422 3509 836 4129 
Q 1250 4750 2034 4750 
z
" transform="scale(0.015625)"/>
       </defs>
       <use xlink:href="#DejaVuSans-2212"/>
       <use xlink:href="#DejaVuSans-34" x="83.789062"/>
       <use xlink:href="#DejaVuSans-30" x="147.412109"/>
       <use xlink:href="#DejaVuSans-30" x="211.035156"/>
       <use xlink:href="#DejaVuSans-30" x="274.658203"/>
       <use xlink:href="#DejaVuSans-30" x="338.28125"/>
      </g>
     </g>
    </g>
    <g id="ytick_2">
     <g id="line2d_8">
      <g>
       <use xlink:href="#m8ef2bd7654" x="58.075" y="190.966197" style="stroke: #000000; stroke-width: 0.8"/>
      </g>
     </g>
     <g id="text_2">
      <!-- −20000 -->
      <g transform="translate(10.882812 194.765416) scale(0.1 -0.1)">
       <defs>
        <path id="DejaVuSans-32" d="M 1228 531 
L 3431 531 
L 3431 0 
L 469 0 
L 469 531 
Q 828 903 1448 1529 
Q 2069 2156 2228 2338 
Q 2531 2678 2651 2914 
Q 2772 3150 2772 3378 
Q 2772 3750 2511 3984 
Q 2250 4219 1831 4219 
Q 1534 4219 1204 4116 
Q 875 4013 500 3803 
L 500 4441 
Q 881 4594 1212 4672 
Q 1544 4750 1819 4750 
Q 2544 4750 2975 4387 
Q 3406 4025 3406 3419 
Q 3406 3131 3298 2873 
Q 3191 2616 2906 2266 
Q 2828 2175 2409 1742 
Q 1991 1309 1228 531 
z
" transform="scale(0.015625)"/>
       </defs>
       <use xlink:href="#DejaVuSans-2212"/>
       <use xlink:href="#DejaVuSans-32" x="83.789062"/>
       <use xlink:href="#DejaVuSans-30" x="147.412109"/>
       <use xlink:href="#DejaVuSans-30" x="211.035156"/>
       <use xlink:href="#DejaVuSans-30" x="274.658203"/>
       <use xlink:href="#DejaVuSans-30" x="338.28125"/>
      </g>
     </g>
    </g>
    <g id="ytick_3">
     <g id="line2d_9">
      <g>
       <use xlink:href="#m8ef2bd7654" x="58.075" y="140.541583" style="stroke: #000000; stroke-width: 0.8"/>
      </g>
     </g>
     <g id="text_3">
      <!-- 0 -->
      <g transform="translate(44.7125 144.340802) scale(0.1 -0.1)">
       <use xlink:href="#DejaVuSans-30"/>
      </g>
     </g>
    </g>
    <g id="ytick_4">
     <g id="line2d_10">
      <g>
       <use xlink:href="#m8ef2bd7654" x="58.075" y="90.116969" style="stroke: #000000; stroke-width: 0.8"/>
      </g>
     </g>
     <g id="text_4">
      <!-- 20000 -->
      <g transform="translate(19.2625 93.916188) scale(0.1 -0.1)">
       <use xlink:href="#DejaVuSans-32"/>
       <use xlink:href="#DejaVuSans-30" x="63.623047"/>
       <use xlink:href="#DejaVuSans-30" x="127.246094"/>
       <use xlink:href="#DejaVuSans-30" x="190.869141"/>
       <use xlink:href="#DejaVuSans-30" x="254.492188"/>
      </g>
     </g>
    </g>
    <g id="ytick_5">
     <g id="line2d_11">
      <g>
       <use xlink:href="#m8ef2bd7654" x="58.075" y="39.692355" style="stroke: #000000; stroke-width: 0.8"/>
      </g>
     </g>
     <g id="text_5">
      <!-- 40000 -->
      <g transform="translate(19.2625 43.491574) scale(0.1 -0.1)">
       <use xlink:href="#DejaVuSans-34"/>
       <use xlink:href="#DejaVuSans-30" x="63.623047"/>
       <use xlink:href="#DejaVuSans-30" x="127.246094"/>
       <use xlink:href="#DejaVuSans-30" x="190.869141"/>
       <use xlink:href="#DejaVuSans-30" x="254.492188"/>
      </g>
     </g>
    </g>
   </g>
   <g id="line2d_12">
    <path d="M 87.671591 140.536234 
L 93.6507 140.546586 
L 99.629809 140.534185 
L 105.608919 140.547835 
L 111.588028 140.53099 
L 117.567137 140.553696 
L 123.546247 140.523484 
L 129.525356 140.556906 
L 135.504465 140.519861 
L 141.483574 140.562777 
L 147.462684 140.514022 
L 153.441793 140.569762 
L 159.420902 140.510995 
L 165.400011 140.569097 
L 171.379121 140.508019 
L 177.35823 140.57923 
L 183.337339 140.49859 
L 189.316449 140.584055 
L 195.295558 140.492076 
L 201.274667 140.59395 
L 207.253776 140.48381 
L 213.232886 140.606375 
L 219.211995 140.46892 
L 225.191104 140.621331 
L 231.170213 140.454394 
L 237.149323 140.636788 
L 243.128432 140.435512 
L 249.107541 140.655428 
L 255.086651 140.409384 
L 261.06576 140.684076 
L 267.044869 140.385404 
L 273.023978 140.707576 
L 279.003088 140.354053 
L 284.982197 140.745836 
L 290.961306 140.315806 
L 296.940416 140.788399 
L 302.919525 140.267371 
L 308.898634 140.839913 
L 314.877743 140.213683 
L 320.856853 140.900292 
L 326.835962 140.142013 
L 332.815071 140.983429 
L 338.79418 140.047838 
L 344.77329 141.086359 
L 350.752399 139.939679 
L 356.731508 141.200381 
L 362.710618 139.817208 
L 368.689727 141.3362 
L 374.668836 139.665257 
L 380.647945 141.503012 
L 386.627055 139.47928 
L 392.606164 141.707981 
L 398.585273 139.259231 
L 404.564382 141.952006 
L 410.543492 138.985971 
L 416.522601 142.250349 
L 422.50171 138.659214 
L 428.48082 142.615702 
L 434.459929 138.256547 
L 440.439038 143.051225 
L 446.418147 137.778891 
L 452.397257 143.578563 
L 458.376366 137.198021 
L 464.355475 144.218978 
L 470.334584 136.489949 
L 476.313694 144.998201 
L 482.292803 135.633185 
L 488.271912 145.93838 
L 494.251022 134.604913 
L 500.230131 147.068563 
L 506.20924 133.360787 
L 512.188349 148.436741 
L 518.167459 131.855308 
L 524.146568 150.09168 
L 530.125677 130.034316 
L 536.104787 152.10017 
L 542.083896 127.824651 
L 548.063005 154.529961 
L 554.042114 125.154212 
L 560.021224 157.465689 
L 566.000333 121.921655 
L 571.979442 161.018122 
L 577.958551 118.011595 
L 583.937661 165.320531 
L 589.91677 113.282304 
L 595.895879 170.525467 
L 601.874989 107.553624 
L 607.854098 176.823962 
L 613.833207 100.628407 
L 619.812316 184.441896 
L 625.791426 92.246816 
L 631.770535 193.660204 
L 637.749644 82.114543 
L 643.728753 204.811664 
L 649.707863 69.837067 
L 655.686972 218.312816 
L 661.666081 54.990497 
L 667.645191 234.643062 
L 673.6243 37.028636 
L 679.603409 254.401364 
" clip-path="url(#pde0f9b3694)" style="fill: none; stroke: #1f77b4; stroke-width: 1.5; stroke-linecap: square"/>
   </g>
   <g id="patch_3">
    <path d="M 58.075 265.27 
L 58.075 26.16 
" style="fill: none; stroke: #000000; stroke-width: 0.8; stroke-linejoin: miter; stroke-linecap: square"/>
   </g>
   <g id="patch_4">
    <path d="M 709.2 265.27 
L 709.2 26.16 
" style="fill: none; stroke: #000000; stroke-width: 0.8; stroke-linejoin: miter; stroke-linecap: square"/>
   </g>
   <g id="patch_5">
    <path d="M 58.075 265.27 
L 709.2 265.27 
" style="fill: none; stroke: #000000; stroke-width: 0.8; stroke-linejoin: miter; stroke-linecap: square"/>
   </g>
   <g id="patch_6">
    <path d="M 58.075 26.16 
L 709.2 26.16 
" style="fill: none; stroke: #000000; stroke-width: 0.8; stroke-linejoin: miter; stroke-linecap: square"/>
   </g>
   <g id="text_6">
    <!-- One Realization of AR(1) Process with ϕ=-1.1 -->
    <g transform="translate(248.323437 20.16) scale(0.12 -0.12)">
     <defs>
      <path id="DejaVuSans-4f" d="M 2522 4238 
Q 1834 4238 1429 3725 
Q 1025 3213 1025 2328 
Q 1025 1447 1429 934 
Q 1834 422 2522 422 
Q 3209 422 3611 934 
Q 4013 1447 4013 2328 
Q 4013 3213 3611 3725 
Q 3209 4238 2522 4238 
z
M 2522 4750 
Q 3503 4750 4090 4092 
Q 4678 3434 4678 2328 
Q 4678 1225 4090 567 
Q 3503 -91 2522 -91 
Q 1538 -91 948 565 
Q 359 1222 359 2328 
Q 359 3434 948 4092 
Q 1538 4750 2522 4750 
z
" transform="scale(0.015625)"/>
      <path id="DejaVuSans-6e" d="M 3513 2113 
L 3513 0 
L 2938 0 
L 2938 2094 
Q 2938 2591 2744 2837 
Q 2550 3084 2163 3084 
Q 1697 3084 1428 2787 
Q 1159 2491 1159 1978 
L 1159 0 
L 581 0 
L 581 3500 
L 1159 3500 
L 1159 2956 
Q 1366 3272 1645 3428 
Q 1925 3584 2291 3584 
Q 2894 3584 3203 3211 
Q 3513 2838 3513 2113 
z
" transform="scale(0.015625)"/>
      <path id="DejaVuSans-65" d="M 3597 1894 
L 3597 1613 
L 953 1613 
Q 991 1019 1311 708 
Q 1631 397 2203 397 
Q 2534 397 2845 478 
Q 3156 559 3463 722 
L 3463 178 
Q 3153 47 2828 -22 
Q 2503 -91 2169 -91 
Q 1331 -91 842 396 
Q 353 884 353 1716 
Q 353 2575 817 3079 
Q 1281 3584 2069 3584 
Q 2775 3584 3186 3129 
Q 3597 2675 3597 1894 
z
M 3022 2063 
Q 3016 2534 2758 2815 
Q 2500 3097 2075 3097 
Q 1594 3097 1305 2825 
Q 1016 2553 972 2059 
L 3022 2063 
z
" transform="scale(0.015625)"/>
      <path id="DejaVuSans-20" transform="scale(0.015625)"/>
      <path id="DejaVuSans-52" d="M 2841 2188 
Q 3044 2119 3236 1894 
Q 3428 1669 3622 1275 
L 4263 0 
L 3584 0 
L 2988 1197 
Q 2756 1666 2539 1819 
Q 2322 1972 1947 1972 
L 1259 1972 
L 1259 0 
L 628 0 
L 628 4666 
L 2053 4666 
Q 2853 4666 3247 4331 
Q 3641 3997 3641 3322 
Q 3641 2881 3436 2590 
Q 3231 2300 2841 2188 
z
M 1259 4147 
L 1259 2491 
L 2053 2491 
Q 2509 2491 2742 2702 
Q 2975 2913 2975 3322 
Q 2975 3731 2742 3939 
Q 2509 4147 2053 4147 
L 1259 4147 
z
" transform="scale(0.015625)"/>
      <path id="DejaVuSans-61" d="M 2194 1759 
Q 1497 1759 1228 1600 
Q 959 1441 959 1056 
Q 959 750 1161 570 
Q 1363 391 1709 391 
Q 2188 391 2477 730 
Q 2766 1069 2766 1631 
L 2766 1759 
L 2194 1759 
z
M 3341 1997 
L 3341 0 
L 2766 0 
L 2766 531 
Q 2569 213 2275 61 
Q 1981 -91 1556 -91 
Q 1019 -91 701 211 
Q 384 513 384 1019 
Q 384 1609 779 1909 
Q 1175 2209 1959 2209 
L 2766 2209 
L 2766 2266 
Q 2766 2663 2505 2880 
Q 2244 3097 1772 3097 
Q 1472 3097 1187 3025 
Q 903 2953 641 2809 
L 641 3341 
Q 956 3463 1253 3523 
Q 1550 3584 1831 3584 
Q 2591 3584 2966 3190 
Q 3341 2797 3341 1997 
z
" transform="scale(0.015625)"/>
      <path id="DejaVuSans-6c" d="M 603 4863 
L 1178 4863 
L 1178 0 
L 603 0 
L 603 4863 
z
" transform="scale(0.015625)"/>
      <path id="DejaVuSans-69" d="M 603 3500 
L 1178 3500 
L 1178 0 
L 603 0 
L 603 3500 
z
M 603 4863 
L 1178 4863 
L 1178 4134 
L 603 4134 
L 603 4863 
z
" transform="scale(0.015625)"/>
      <path id="DejaVuSans-7a" d="M 353 3500 
L 3084 3500 
L 3084 2975 
L 922 459 
L 3084 459 
L 3084 0 
L 275 0 
L 275 525 
L 2438 3041 
L 353 3041 
L 353 3500 
z
" transform="scale(0.015625)"/>
      <path id="DejaVuSans-74" d="M 1172 4494 
L 1172 3500 
L 2356 3500 
L 2356 3053 
L 1172 3053 
L 1172 1153 
Q 1172 725 1289 603 
Q 1406 481 1766 481 
L 2356 481 
L 2356 0 
L 1766 0 
Q 1100 0 847 248 
Q 594 497 594 1153 
L 594 3053 
L 172 3053 
L 172 3500 
L 594 3500 
L 594 4494 
L 1172 4494 
z
" transform="scale(0.015625)"/>
      <path id="DejaVuSans-6f" d="M 1959 3097 
Q 1497 3097 1228 2736 
Q 959 2375 959 1747 
Q 959 1119 1226 758 
Q 1494 397 1959 397 
Q 2419 397 2687 759 
Q 2956 1122 2956 1747 
Q 2956 2369 2687 2733 
Q 2419 3097 1959 3097 
z
M 1959 3584 
Q 2709 3584 3137 3096 
Q 3566 2609 3566 1747 
Q 3566 888 3137 398 
Q 2709 -91 1959 -91 
Q 1206 -91 779 398 
Q 353 888 353 1747 
Q 353 2609 779 3096 
Q 1206 3584 1959 3584 
z
" transform="scale(0.015625)"/>
      <path id="DejaVuSans-66" d="M 2375 4863 
L 2375 4384 
L 1825 4384 
Q 1516 4384 1395 4259 
Q 1275 4134 1275 3809 
L 1275 3500 
L 2222 3500 
L 2222 3053 
L 1275 3053 
L 1275 0 
L 697 0 
L 697 3053 
L 147 3053 
L 147 3500 
L 697 3500 
L 697 3744 
Q 697 4328 969 4595 
Q 1241 4863 1831 4863 
L 2375 4863 
z
" transform="scale(0.015625)"/>
      <path id="DejaVuSans-41" d="M 2188 4044 
L 1331 1722 
L 3047 1722 
L 2188 4044 
z
M 1831 4666 
L 2547 4666 
L 4325 0 
L 3669 0 
L 3244 1197 
L 1141 1197 
L 716 0 
L 50 0 
L 1831 4666 
z
" transform="scale(0.015625)"/>
      <path id="DejaVuSans-28" d="M 1984 4856 
Q 1566 4138 1362 3434 
Q 1159 2731 1159 2009 
Q 1159 1288 1364 580 
Q 1569 -128 1984 -844 
L 1484 -844 
Q 1016 -109 783 600 
Q 550 1309 550 2009 
Q 550 2706 781 3412 
Q 1013 4119 1484 4856 
L 1984 4856 
z
" transform="scale(0.015625)"/>
      <path id="DejaVuSans-31" d="M 794 531 
L 1825 531 
L 1825 4091 
L 703 3866 
L 703 4441 
L 1819 4666 
L 2450 4666 
L 2450 531 
L 3481 531 
L 3481 0 
L 794 0 
L 794 531 
z
" transform="scale(0.015625)"/>
      <path id="DejaVuSans-29" d="M 513 4856 
L 1013 4856 
Q 1481 4119 1714 3412 
Q 1947 2706 1947 2009 
Q 1947 1309 1714 600 
Q 1481 -109 1013 -844 
L 513 -844 
Q 928 -128 1133 580 
Q 1338 1288 1338 2009 
Q 1338 2731 1133 3434 
Q 928 4138 513 4856 
z
" transform="scale(0.015625)"/>
      <path id="DejaVuSans-50" d="M 1259 4147 
L 1259 2394 
L 2053 2394 
Q 2494 2394 2734 2622 
Q 2975 2850 2975 3272 
Q 2975 3691 2734 3919 
Q 2494 4147 2053 4147 
L 1259 4147 
z
M 628 4666 
L 2053 4666 
Q 2838 4666 3239 4311 
Q 3641 3956 3641 3272 
Q 3641 2581 3239 2228 
Q 2838 1875 2053 1875 
L 1259 1875 
L 1259 0 
L 628 0 
L 628 4666 
z
" transform="scale(0.015625)"/>
      <path id="DejaVuSans-72" d="M 2631 2963 
Q 2534 3019 2420 3045 
Q 2306 3072 2169 3072 
Q 1681 3072 1420 2755 
Q 1159 2438 1159 1844 
L 1159 0 
L 581 0 
L 581 3500 
L 1159 3500 
L 1159 2956 
Q 1341 3275 1631 3429 
Q 1922 3584 2338 3584 
Q 2397 3584 2469 3576 
Q 2541 3569 2628 3553 
L 2631 2963 
z
" transform="scale(0.015625)"/>
      <path id="DejaVuSans-63" d="M 3122 3366 
L 3122 2828 
Q 2878 2963 2633 3030 
Q 2388 3097 2138 3097 
Q 1578 3097 1268 2742 
Q 959 2388 959 1747 
Q 959 1106 1268 751 
Q 1578 397 2138 397 
Q 2388 397 2633 464 
Q 2878 531 3122 666 
L 3122 134 
Q 2881 22 2623 -34 
Q 2366 -91 2075 -91 
Q 1284 -91 818 406 
Q 353 903 353 1747 
Q 353 2603 823 3093 
Q 1294 3584 2113 3584 
Q 2378 3584 2631 3529 
Q 2884 3475 3122 3366 
z
" transform="scale(0.015625)"/>
      <path id="DejaVuSans-73" d="M 2834 3397 
L 2834 2853 
Q 2591 2978 2328 3040 
Q 2066 3103 1784 3103 
Q 1356 3103 1142 2972 
Q 928 2841 928 2578 
Q 928 2378 1081 2264 
Q 1234 2150 1697 2047 
L 1894 2003 
Q 2506 1872 2764 1633 
Q 3022 1394 3022 966 
Q 3022 478 2636 193 
Q 2250 -91 1575 -91 
Q 1294 -91 989 -36 
Q 684 19 347 128 
L 347 722 
Q 666 556 975 473 
Q 1284 391 1588 391 
Q 1994 391 2212 530 
Q 2431 669 2431 922 
Q 2431 1156 2273 1281 
Q 2116 1406 1581 1522 
L 1381 1569 
Q 847 1681 609 1914 
Q 372 2147 372 2553 
Q 372 3047 722 3315 
Q 1072 3584 1716 3584 
Q 2034 3584 2315 3537 
Q 2597 3491 2834 3397 
z
" transform="scale(0.015625)"/>
      <path id="DejaVuSans-77" d="M 269 3500 
L 844 3500 
L 1563 769 
L 2278 3500 
L 2956 3500 
L 3675 769 
L 4391 3500 
L 4966 3500 
L 4050 0 
L 3372 0 
L 2619 2869 
L 1863 0 
L 1184 0 
L 269 3500 
z
" transform="scale(0.015625)"/>
      <path id="DejaVuSans-68" d="M 3513 2113 
L 3513 0 
L 2938 0 
L 2938 2094 
Q 2938 2591 2744 2837 
Q 2550 3084 2163 3084 
Q 1697 3084 1428 2787 
Q 1159 2491 1159 1978 
L 1159 0 
L 581 0 
L 581 4863 
L 1159 4863 
L 1159 2956 
Q 1366 3272 1645 3428 
Q 1925 3584 2291 3584 
Q 2894 3584 3203 3211 
Q 3513 2838 3513 2113 
z
" transform="scale(0.015625)"/>
      <path id="DejaVuSans-3d5" d="M 2388 4863 
L 2388 3572 
Q 3009 3572 3425 3094 
Q 3853 2606 3853 1747 
Q 3853 888 3425 400 
Q 3009 -78 2388 -78 
L 2388 -1331 
L 1816 -1331 
L 1816 -78 
Q 1194 -78 775 400 
Q 350 888 350 1747 
Q 350 2606 775 3094 
Q 1194 3572 1816 3572 
L 1816 4863 
L 2388 4863 
z
M 2388 434 
Q 2741 434 2981 756 
Q 3244 1116 3247 1747 
Q 3250 2372 2981 2738 
Q 2741 3059 2388 3059 
L 2388 434 
z
M 1816 434 
L 1816 3059 
Q 1463 3059 1225 2738 
Q 953 2372 956 1747 
Q 959 1116 1225 756 
Q 1463 434 1816 434 
z
" transform="scale(0.015625)"/>
      <path id="DejaVuSans-3d" d="M 678 2906 
L 4684 2906 
L 4684 2381 
L 678 2381 
L 678 2906 
z
M 678 1631 
L 4684 1631 
L 4684 1100 
L 678 1100 
L 678 1631 
z
" transform="scale(0.015625)"/>
      <path id="DejaVuSans-2d" d="M 313 2009 
L 1997 2009 
L 1997 1497 
L 313 1497 
L 313 2009 
z
" transform="scale(0.015625)"/>
      <path id="DejaVuSans-2e" d="M 684 794 
L 1344 794 
L 1344 0 
L 684 0 
L 684 794 
z
" transform="scale(0.015625)"/>
     </defs>
     <use xlink:href="#DejaVuSans-4f"/>
     <use xlink:href="#DejaVuSans-6e" x="78.710938"/>
     <use xlink:href="#DejaVuSans-65" x="142.089844"/>
     <use xlink:href="#DejaVuSans-20" x="203.613281"/>
     <use xlink:href="#DejaVuSans-52" x="235.400391"/>
     <use xlink:href="#DejaVuSans-65" x="300.382812"/>
     <use xlink:href="#DejaVuSans-61" x="361.90625"/>
     <use xlink:href="#DejaVuSans-6c" x="423.185547"/>
     <use xlink:href="#DejaVuSans-69" x="450.96875"/>
     <use xlink:href="#DejaVuSans-7a" x="478.751953"/>
     <use xlink:href="#DejaVuSans-61" x="531.242188"/>
     <use xlink:href="#DejaVuSans-74" x="592.521484"/>
     <use xlink:href="#DejaVuSans-69" x="631.730469"/>
     <use xlink:href="#DejaVuSans-6f" x="659.513672"/>
     <use xlink:href="#DejaVuSans-6e" x="720.695312"/>
     <use xlink:href="#DejaVuSans-20" x="784.074219"/>
     <use xlink:href="#DejaVuSans-6f" x="815.861328"/>
     <use xlink:href="#DejaVuSans-66" x="877.042969"/>
     <use xlink:href="#DejaVuSans-20" x="912.248047"/>
     <use xlink:href="#DejaVuSans-41" x="944.035156"/>
     <use xlink:href="#DejaVuSans-52" x="1012.443359"/>
     <use xlink:href="#DejaVuSans-28" x="1081.925781"/>
     <use xlink:href="#DejaVuSans-31" x="1120.939453"/>
     <use xlink:href="#DejaVuSans-29" x="1184.5625"/>
     <use xlink:href="#DejaVuSans-20" x="1223.576172"/>
     <use xlink:href="#DejaVuSans-50" x="1255.363281"/>
     <use xlink:href="#DejaVuSans-72" x="1313.916016"/>
     <use xlink:href="#DejaVuSans-6f" x="1352.779297"/>
     <use xlink:href="#DejaVuSans-63" x="1413.960938"/>
     <use xlink:href="#DejaVuSans-65" x="1468.941406"/>
     <use xlink:href="#DejaVuSans-73" x="1530.464844"/>
     <use xlink:href="#DejaVuSans-73" x="1582.564453"/>
     <use xlink:href="#DejaVuSans-20" x="1634.664062"/>
     <use xlink:href="#DejaVuSans-77" x="1666.451172"/>
     <use xlink:href="#DejaVuSans-69" x="1748.238281"/>
     <use xlink:href="#DejaVuSans-74" x="1776.021484"/>
     <use xlink:href="#DejaVuSans-68" x="1815.230469"/>
     <use xlink:href="#DejaVuSans-20" x="1878.609375"/>
     <use xlink:href="#DejaVuSans-3d5" x="1910.396484"/>
     <use xlink:href="#DejaVuSans-3d" x="1976.363281"/>
     <use xlink:href="#DejaVuSans-2d" x="2060.152344"/>
     <use xlink:href="#DejaVuSans-31" x="2096.236328"/>
     <use xlink:href="#DejaVuSans-2e" x="2159.859375"/>
     <use xlink:href="#DejaVuSans-31" x="2191.646484"/>
    </g>
   </g>
   <g id="legend_1">
    <g id="patch_7">
     <path d="M 65.075 48.838125 
L 241.120313 48.838125 
Q 243.120313 48.838125 243.120313 46.838125 
L 243.120313 33.16 
Q 243.120313 31.16 241.120313 31.16 
L 65.075 31.16 
Q 63.075 31.16 63.075 33.16 
L 63.075 46.838125 
Q 63.075 48.838125 65.075 48.838125 
z
" style="fill: #ffffff; opacity: 0.8; stroke: #cccccc; stroke-linejoin: miter"/>
    </g>
    <g id="line2d_13">
     <path d="M 67.075 39.258438 
L 77.075 39.258438 
L 87.075 39.258438 
" style="fill: none; stroke: #1f77b4; stroke-width: 1.5; stroke-linecap: square"/>
    </g>
    <g id="text_7">
     <!-- AR(1) with c=1, σ=1, ϕ=-1.1 -->
     <g transform="translate(95.075 42.758438) scale(0.1 -0.1)">
      <defs>
       <path id="DejaVuSans-2c" d="M 750 794 
L 1409 794 
L 1409 256 
L 897 -744 
L 494 -744 
L 750 256 
L 750 794 
z
" transform="scale(0.015625)"/>
       <path id="DejaVuSans-3c3" d="M 1959 3044 
Q 1484 3044 1228 2700 
Q 959 2341 959 1747 
Q 959 1119 1226 758 
Q 1494 397 1959 397 
Q 2419 397 2687 759 
Q 2956 1122 2956 1747 
Q 2956 2319 2688 2700 
Q 2441 3044 1959 3044 
z
M 1959 3500 
L 3869 3500 
L 3869 2925 
L 3225 2925 
Q 3566 2438 3566 1747 
Q 3566 888 3138 400 
Q 2709 -91 1959 -91 
Q 1206 -91 781 400 
Q 353 888 353 1747 
Q 353 2613 781 3097 
Q 1134 3500 1959 3500 
z
" transform="scale(0.015625)"/>
      </defs>
      <use xlink:href="#DejaVuSans-41"/>
      <use xlink:href="#DejaVuSans-52" x="68.408203"/>
      <use xlink:href="#DejaVuSans-28" x="137.890625"/>
      <use xlink:href="#DejaVuSans-31" x="176.904297"/>
      <use xlink:href="#DejaVuSans-29" x="240.527344"/>
      <use xlink:href="#DejaVuSans-20" x="279.541016"/>
      <use xlink:href="#DejaVuSans-77" x="311.328125"/>
      <use xlink:href="#DejaVuSans-69" x="393.115234"/>
      <use xlink:href="#DejaVuSans-74" x="420.898438"/>
      <use xlink:href="#DejaVuSans-68" x="460.107422"/>
      <use xlink:href="#DejaVuSans-20" x="523.486328"/>
      <use xlink:href="#DejaVuSans-63" x="555.273438"/>
      <use xlink:href="#DejaVuSans-3d" x="610.253906"/>
      <use xlink:href="#DejaVuSans-31" x="694.042969"/>
      <use xlink:href="#DejaVuSans-2c" x="757.666016"/>
      <use xlink:href="#DejaVuSans-20" x="789.453125"/>
      <use xlink:href="#DejaVuSans-3c3" x="821.240234"/>
      <use xlink:href="#DejaVuSans-3d" x="884.619141"/>
      <use xlink:href="#DejaVuSans-31" x="968.408203"/>
      <use xlink:href="#DejaVuSans-2c" x="1032.03125"/>
      <use xlink:href="#DejaVuSans-20" x="1063.818359"/>
      <use xlink:href="#DejaVuSans-3d5" x="1095.605469"/>
      <use xlink:href="#DejaVuSans-3d" x="1161.572266"/>
      <use xlink:href="#DejaVuSans-2d" x="1245.361328"/>
      <use xlink:href="#DejaVuSans-31" x="1281.445312"/>
      <use xlink:href="#DejaVuSans-2e" x="1345.068359"/>
      <use xlink:href="#DejaVuSans-31" x="1376.855469"/>
     </g>
    </g>
   </g>
  </g>
  <g id="axes_2">
   <g id="patch_8">
    <path d="M 58.075 534.04 
L 709.2 534.04 
L 709.2 294.93 
L 58.075 294.93 
z
" style="fill: #ffffff"/>
   </g>
   <g id="matplotlib.axis_3">
    <g id="xtick_7">
     <g id="line2d_14">
      <g>
       <use xlink:href="#m38e09a5d10" x="87.671591" y="534.04" style="stroke: #000000; stroke-width: 0.8"/>
      </g>
     </g>
     <g id="text_8">
      <!-- 0 -->
      <g transform="translate(84.490341 548.638438) scale(0.1 -0.1)">
       <use xlink:href="#DejaVuSans-30"/>
      </g>
     </g>
    </g>
    <g id="xtick_8">
     <g id="line2d_15">
      <g>
       <use xlink:href="#m38e09a5d10" x="207.253776" y="534.04" style="stroke: #000000; stroke-width: 0.8"/>
      </g>
     </g>
     <g id="text_9">
      <!-- 20 -->
      <g transform="translate(200.891276 548.638438) scale(0.1 -0.1)">
       <use xlink:href="#DejaVuSans-32"/>
       <use xlink:href="#DejaVuSans-30" x="63.623047"/>
      </g>
     </g>
    </g>
    <g id="xtick_9">
     <g id="line2d_16">
      <g>
       <use xlink:href="#m38e09a5d10" x="326.835962" y="534.04" style="stroke: #000000; stroke-width: 0.8"/>
      </g>
     </g>
     <g id="text_10">
      <!-- 40 -->
      <g transform="translate(320.473462 548.638438) scale(0.1 -0.1)">
       <use xlink:href="#DejaVuSans-34"/>
       <use xlink:href="#DejaVuSans-30" x="63.623047"/>
      </g>
     </g>
    </g>
    <g id="xtick_10">
     <g id="line2d_17">
      <g>
       <use xlink:href="#m38e09a5d10" x="446.418147" y="534.04" style="stroke: #000000; stroke-width: 0.8"/>
      </g>
     </g>
     <g id="text_11">
      <!-- 60 -->
      <g transform="translate(440.055647 548.638438) scale(0.1 -0.1)">
       <defs>
        <path id="DejaVuSans-36" d="M 2113 2584 
Q 1688 2584 1439 2293 
Q 1191 2003 1191 1497 
Q 1191 994 1439 701 
Q 1688 409 2113 409 
Q 2538 409 2786 701 
Q 3034 994 3034 1497 
Q 3034 2003 2786 2293 
Q 2538 2584 2113 2584 
z
M 3366 4563 
L 3366 3988 
Q 3128 4100 2886 4159 
Q 2644 4219 2406 4219 
Q 1781 4219 1451 3797 
Q 1122 3375 1075 2522 
Q 1259 2794 1537 2939 
Q 1816 3084 2150 3084 
Q 2853 3084 3261 2657 
Q 3669 2231 3669 1497 
Q 3669 778 3244 343 
Q 2819 -91 2113 -91 
Q 1303 -91 875 529 
Q 447 1150 447 2328 
Q 447 3434 972 4092 
Q 1497 4750 2381 4750 
Q 2619 4750 2861 4703 
Q 3103 4656 3366 4563 
z
" transform="scale(0.015625)"/>
       </defs>
       <use xlink:href="#DejaVuSans-36"/>
       <use xlink:href="#DejaVuSans-30" x="63.623047"/>
      </g>
     </g>
    </g>
    <g id="xtick_11">
     <g id="line2d_18">
      <g>
       <use xlink:href="#m38e09a5d10" x="566.000333" y="534.04" style="stroke: #000000; stroke-width: 0.8"/>
      </g>
     </g>
     <g id="text_12">
      <!-- 80 -->
      <g transform="translate(559.637833 548.638438) scale(0.1 -0.1)">
       <defs>
        <path id="DejaVuSans-38" d="M 2034 2216 
Q 1584 2216 1326 1975 
Q 1069 1734 1069 1313 
Q 1069 891 1326 650 
Q 1584 409 2034 409 
Q 2484 409 2743 651 
Q 3003 894 3003 1313 
Q 3003 1734 2745 1975 
Q 2488 2216 2034 2216 
z
M 1403 2484 
Q 997 2584 770 2862 
Q 544 3141 544 3541 
Q 544 4100 942 4425 
Q 1341 4750 2034 4750 
Q 2731 4750 3128 4425 
Q 3525 4100 3525 3541 
Q 3525 3141 3298 2862 
Q 3072 2584 2669 2484 
Q 3125 2378 3379 2068 
Q 3634 1759 3634 1313 
Q 3634 634 3220 271 
Q 2806 -91 2034 -91 
Q 1263 -91 848 271 
Q 434 634 434 1313 
Q 434 1759 690 2068 
Q 947 2378 1403 2484 
z
M 1172 3481 
Q 1172 3119 1398 2916 
Q 1625 2713 2034 2713 
Q 2441 2713 2670 2916 
Q 2900 3119 2900 3481 
Q 2900 3844 2670 4047 
Q 2441 4250 2034 4250 
Q 1625 4250 1398 4047 
Q 1172 3844 1172 3481 
z
" transform="scale(0.015625)"/>
       </defs>
       <use xlink:href="#DejaVuSans-38"/>
       <use xlink:href="#DejaVuSans-30" x="63.623047"/>
      </g>
     </g>
    </g>
    <g id="xtick_12">
     <g id="line2d_19">
      <g>
       <use xlink:href="#m38e09a5d10" x="685.582518" y="534.04" style="stroke: #000000; stroke-width: 0.8"/>
      </g>
     </g>
     <g id="text_13">
      <!-- 100 -->
      <g transform="translate(676.038768 548.638438) scale(0.1 -0.1)">
       <use xlink:href="#DejaVuSans-31"/>
       <use xlink:href="#DejaVuSans-30" x="63.623047"/>
       <use xlink:href="#DejaVuSans-30" x="127.246094"/>
      </g>
     </g>
    </g>
    <g id="text_14">
     <!-- t -->
     <g transform="translate(381.677344 562.316562) scale(0.1 -0.1)">
      <use xlink:href="#DejaVuSans-74"/>
     </g>
    </g>
   </g>
   <g id="matplotlib.axis_4">
    <g id="ytick_6">
     <g id="line2d_20">
      <g>
       <use xlink:href="#m8ef2bd7654" x="58.075" y="495.313907" style="stroke: #000000; stroke-width: 0.8"/>
      </g>
     </g>
     <g id="text_15">
      <!-- −40000 -->
      <g transform="translate(10.882812 499.113126) scale(0.1 -0.1)">
       <use xlink:href="#DejaVuSans-2212"/>
       <use xlink:href="#DejaVuSans-34" x="83.789062"/>
       <use xlink:href="#DejaVuSans-30" x="147.412109"/>
       <use xlink:href="#DejaVuSans-30" x="211.035156"/>
       <use xlink:href="#DejaVuSans-30" x="274.658203"/>
       <use xlink:href="#DejaVuSans-30" x="338.28125"/>
      </g>
     </g>
    </g>
    <g id="ytick_7">
     <g id="line2d_21">
      <g>
       <use xlink:href="#m8ef2bd7654" x="58.075" y="455.76273" style="stroke: #000000; stroke-width: 0.8"/>
      </g>
     </g>
     <g id="text_16">
      <!-- −20000 -->
      <g transform="translate(10.882812 459.561949) scale(0.1 -0.1)">
       <use xlink:href="#DejaVuSans-2212"/>
       <use xlink:href="#DejaVuSans-32" x="83.789062"/>
       <use xlink:href="#DejaVuSans-30" x="147.412109"/>
       <use xlink:href="#DejaVuSans-30" x="211.035156"/>
       <use xlink:href="#DejaVuSans-30" x="274.658203"/>
       <use xlink:href="#DejaVuSans-30" x="338.28125"/>
      </g>
     </g>
    </g>
    <g id="ytick_8">
     <g id="line2d_22">
      <g>
       <use xlink:href="#m8ef2bd7654" x="58.075" y="416.211553" style="stroke: #000000; stroke-width: 0.8"/>
      </g>
     </g>
     <g id="text_17">
      <!-- 0 -->
      <g transform="translate(44.7125 420.010772) scale(0.1 -0.1)">
       <use xlink:href="#DejaVuSans-30"/>
      </g>
     </g>
    </g>
    <g id="ytick_9">
     <g id="line2d_23">
      <g>
       <use xlink:href="#m8ef2bd7654" x="58.075" y="376.660376" style="stroke: #000000; stroke-width: 0.8"/>
      </g>
     </g>
     <g id="text_18">
      <!-- 20000 -->
      <g transform="translate(19.2625 380.459595) scale(0.1 -0.1)">
       <use xlink:href="#DejaVuSans-32"/>
       <use xlink:href="#DejaVuSans-30" x="63.623047"/>
       <use xlink:href="#DejaVuSans-30" x="127.246094"/>
       <use xlink:href="#DejaVuSans-30" x="190.869141"/>
       <use xlink:href="#DejaVuSans-30" x="254.492188"/>
      </g>
     </g>
    </g>
    <g id="ytick_10">
     <g id="line2d_24">
      <g>
       <use xlink:href="#m8ef2bd7654" x="58.075" y="337.109199" style="stroke: #000000; stroke-width: 0.8"/>
      </g>
     </g>
     <g id="text_19">
      <!-- 40000 -->
      <g transform="translate(19.2625 340.908418) scale(0.1 -0.1)">
       <use xlink:href="#DejaVuSans-34"/>
       <use xlink:href="#DejaVuSans-30" x="63.623047"/>
       <use xlink:href="#DejaVuSans-30" x="127.246094"/>
       <use xlink:href="#DejaVuSans-30" x="190.869141"/>
       <use xlink:href="#DejaVuSans-30" x="254.492188"/>
      </g>
     </g>
    </g>
    <g id="ytick_11">
     <g id="line2d_25">
      <g>
       <use xlink:href="#m8ef2bd7654" x="58.075" y="297.558022" style="stroke: #000000; stroke-width: 0.8"/>
      </g>
     </g>
     <g id="text_20">
      <!-- 60000 -->
      <g transform="translate(19.2625 301.35724) scale(0.1 -0.1)">
       <use xlink:href="#DejaVuSans-36"/>
       <use xlink:href="#DejaVuSans-30" x="63.623047"/>
       <use xlink:href="#DejaVuSans-30" x="127.246094"/>
       <use xlink:href="#DejaVuSans-30" x="190.869141"/>
       <use xlink:href="#DejaVuSans-30" x="254.492188"/>
      </g>
     </g>
    </g>
   </g>
   <g id="line2d_26">
    <path d="M 87.671591 416.20877 
L 93.6507 416.214286 
L 99.629809 416.208955 
L 105.608919 416.210862 
L 111.588028 416.212017 
L 117.567137 416.207436 
L 123.546247 416.213044 
L 129.525356 416.205053 
L 135.504465 416.220963 
L 141.483574 416.196506 
L 147.462684 416.224543 
L 153.441793 416.196562 
L 159.420902 416.228628 
L 165.400011 416.191878 
L 171.379121 416.230722 
L 177.35823 416.18993 
L 183.337339 416.239564 
L 189.316449 416.177338 
L 195.295558 416.246282 
L 201.274667 416.169199 
L 207.253776 416.258966 
L 213.232886 416.154125 
L 219.211995 416.274787 
L 225.191104 416.146989 
L 231.170213 416.280259 
L 237.149323 416.131271 
L 243.128432 416.301228 
L 249.107541 416.110251 
L 255.086651 416.319191 
L 261.06576 416.092099 
L 267.044869 416.340575 
L 273.023978 416.066968 
L 279.003088 416.367918 
L 284.982197 416.040741 
L 290.961306 416.396335 
L 296.940416 416.006921 
L 302.919525 416.437622 
L 308.898634 415.958915 
L 314.877743 416.488144 
L 320.856853 415.905079 
L 326.835962 416.543403 
L 332.815071 415.84649 
L 338.79418 416.610727 
L 344.77329 415.770843 
L 350.752399 416.697231 
L 356.731508 415.678214 
L 362.710618 416.796139 
L 368.689727 415.567053 
L 374.668836 416.917653 
L 380.647945 415.432523 
L 386.627055 417.06786 
L 392.606164 415.267083 
L 398.585273 417.248568 
L 404.564382 415.065692 
L 410.543492 417.465801 
L 416.522601 414.829548 
L 422.50171 417.728768 
L 428.48082 414.538467 
L 434.459929 418.051265 
L 440.439038 414.18364 
L 446.418147 418.440069 
L 452.397257 413.758776 
L 458.376366 418.908668 
L 464.355475 413.243232 
L 470.334584 419.477072 
L 476.313694 412.617574 
L 482.292803 420.159067 
L 488.271912 411.86518 
L 494.251022 420.989684 
L 500.230131 410.95507 
L 506.20924 421.989639 
L 512.188349 409.852114 
L 518.167459 423.202794 
L 524.146568 408.518231 
L 530.125677 424.674537 
L 536.104787 406.899503 
L 542.083896 426.45256 
L 548.063005 404.944604 
L 554.042114 428.604099 
L 560.021224 402.575078 
L 566.000333 431.211185 
L 571.979442 399.710744 
L 577.958551 434.35761 
L 583.937661 396.247845 
L 589.91677 438.167422 
L 595.895879 392.05622 
L 601.874989 442.780557 
L 607.854098 386.984898 
L 613.833207 448.359194 
L 619.812316 380.847342 
L 625.791426 455.112751 
L 631.770535 373.413953 
L 637.749644 463.282563 
L 643.728753 364.432383 
L 649.707863 473.167015 
L 655.686972 353.556251 
L 661.666081 485.130231 
L 667.645191 340.398471 
L 673.6243 499.606709 
L 679.603409 324.472335 
" clip-path="url(#p2ded977c91)" style="fill: none; stroke: #1f77b4; stroke-width: 1.5; stroke-linecap: square"/>
   </g>
   <g id="line2d_27">
    <path d="M 87.671591 416.210452 
L 93.6507 416.210654 
L 99.629809 416.209842 
L 105.608919 416.214185 
L 111.588028 416.210739 
L 117.567137 416.211972 
L 123.546247 416.206375 
L 129.525356 416.21715 
L 135.504465 416.208284 
L 141.483574 416.215381 
L 147.462684 416.208477 
L 153.441793 416.212336 
L 159.420902 416.209409 
L 165.400011 416.209444 
L 171.379121 416.212041 
L 177.35823 416.207548 
L 183.337339 416.210715 
L 189.316449 416.210893 
L 195.295558 416.211474 
L 201.274667 416.209471 
L 207.253776 416.213711 
L 213.232886 416.20811 
L 219.211995 416.212969 
L 225.191104 416.207456 
L 231.170213 416.210078 
L 237.149323 416.21207 
L 243.128432 416.208673 
L 249.107541 416.213528 
L 255.086651 416.20846 
L 261.06576 416.21222 
L 267.044869 416.211181 
L 273.023978 416.209064 
L 279.003088 416.211061 
L 284.982197 416.21012 
L 290.961306 416.20994 
L 296.940416 416.215616 
L 302.919525 416.207284 
L 308.898634 416.21322 
L 314.877743 416.206354 
L 320.856853 416.215703 
L 326.835962 416.204963 
L 332.815071 416.215614 
L 338.79418 416.20641 
L 344.77329 416.215015 
L 350.752399 416.202765 
L 356.731508 416.219985 
L 362.710618 416.198269 
L 368.689727 416.224232 
L 374.668836 416.196328 
L 380.647945 416.225886 
L 386.627055 416.194654 
L 392.606164 416.22918 
L 398.585273 416.191201 
L 404.564382 416.23192 
L 410.543492 416.186463 
L 416.522601 416.239145 
L 422.50171 416.181848 
L 428.48082 416.242105 
L 434.459929 416.174571 
L 440.439038 416.252352 
L 446.418147 416.162715 
L 452.397257 416.258987 
L 458.376366 416.155427 
L 464.355475 416.272512 
L 470.334584 416.143402 
L 476.313694 416.284642 
L 482.292803 416.131822 
L 488.271912 416.297079 
L 494.251022 416.114665 
L 500.230131 416.313751 
L 506.20924 416.093627 
L 512.188349 416.340718 
L 518.167459 416.065836 
L 524.146568 416.370347 
L 530.125677 416.036753 
L 536.104787 416.404022 
L 542.083896 415.998806 
L 548.063005 416.44341 
L 554.042114 415.957195 
L 560.021224 416.486915 
L 566.000333 415.905535 
L 571.979442 416.546365 
L 577.958551 415.840595 
L 583.937661 416.62068 
L 589.91677 415.761043 
L 595.895879 416.706222 
L 601.874989 415.666194 
L 607.854098 416.810921 
L 613.833207 415.545571 
L 619.812316 416.943314 
L 625.791426 415.403403 
L 631.770535 417.101787 
L 637.749644 415.229549 
L 643.728753 417.290522 
L 649.707863 415.023931 
L 655.686972 417.514889 
L 661.666081 414.77652 
L 667.645191 417.785865 
L 673.6243 414.476643 
L 679.603409 418.119447 
" clip-path="url(#p2ded977c91)" style="fill: none; stroke: #ff7f0e; stroke-width: 1.5; stroke-linecap: square"/>
   </g>
   <g id="line2d_28">
    <path d="M 87.671591 416.209596 
L 93.6507 416.206175 
L 99.629809 416.218681 
L 105.608919 416.200368 
L 111.588028 416.221273 
L 117.567137 416.194434 
L 123.546247 416.22356 
L 129.525356 416.196181 
L 135.504465 416.229655 
L 141.483574 416.189475 
L 147.462684 416.232362 
L 153.441793 416.189228 
L 159.420902 416.236299 
L 165.400011 416.183008 
L 171.379121 416.239675 
L 177.35823 416.177616 
L 183.337339 416.245903 
L 189.316449 416.166699 
L 195.295558 416.261033 
L 201.274667 416.153229 
L 207.253776 416.274072 
L 213.232886 416.141227 
L 219.211995 416.28472 
L 225.191104 416.129168 
L 231.170213 416.299796 
L 237.149323 416.111333 
L 243.128432 416.320435 
L 249.107541 416.094504 
L 255.086651 416.335257 
L 261.06576 416.074491 
L 267.044869 416.360575 
L 273.023978 416.045255 
L 279.003088 416.392079 
L 284.982197 416.009112 
L 290.961306 416.434228 
L 296.940416 415.966268 
L 302.919525 416.475311 
L 308.898634 415.917332 
L 314.877743 416.535174 
L 320.856853 415.850704 
L 326.835962 416.604264 
L 332.815071 415.77615 
L 338.79418 416.686191 
L 344.77329 415.68851 
L 350.752399 416.786516 
L 356.731508 415.572517 
L 362.710618 416.914238 
L 368.689727 415.438609 
L 374.668836 417.060671 
L 380.647945 415.270486 
L 386.627055 417.246136 
L 392.606164 415.073187 
L 398.585273 417.46031 
L 404.564382 414.833769 
L 410.543492 417.723989 
L 416.522601 414.550859 
L 422.50171 418.040537 
L 428.48082 414.198183 
L 434.459929 418.42348 
L 440.439038 413.773498 
L 446.418147 418.891383 
L 452.397257 413.262007 
L 458.376366 419.457406 
L 464.355475 412.636478 
L 470.334584 420.140905 
L 476.313694 411.887637 
L 482.292803 420.963156 
L 488.271912 410.982073 
L 494.251022 421.961722 
L 500.230131 409.884199 
L 506.20924 423.172253 
L 512.188349 408.552843 
L 518.167459 424.634958 
L 524.146568 406.945211 
L 530.125677 426.4026 
L 536.104787 405.000722 
L 542.083896 428.541105 
L 548.063005 402.646452 
L 554.042114 431.130032 
L 560.021224 399.799171 
L 566.000333 434.265864 
L 571.979442 396.350316 
L 577.958551 438.056867 
L 583.937661 392.179191 
L 589.91677 442.645249 
L 595.895879 387.133227 
L 601.874989 448.198192 
L 607.854098 381.025244 
L 613.833207 454.91157 
L 619.812316 373.639806 
L 625.791426 463.040393 
L 631.770535 364.6973 
L 637.749644 472.874965 
L 643.728753 353.878004 
L 649.707863 484.779101 
L 655.686972 340.78622 
L 661.666081 499.171962 
L 667.645191 324.95415 
L 673.6243 516.588439 
L 679.603409 305.798636 
" clip-path="url(#p2ded977c91)" style="fill: none; stroke: #2ca02c; stroke-width: 1.5; stroke-linecap: square"/>
   </g>
   <g id="line2d_29">
    <path d="M 87.671591 416.207194 
L 93.6507 416.213439 
L 99.629809 416.207588 
L 105.608919 416.214302 
L 111.588028 416.200962 
L 117.567137 416.223639 
L 123.546247 416.198379 
L 129.525356 416.220737 
L 135.504465 416.200828 
L 141.483574 416.223033 
L 147.462684 416.196311 
L 153.441793 416.229044 
L 159.420902 416.188635 
L 165.400011 416.23655 
L 171.379121 416.180467 
L 177.35823 416.241689 
L 183.337339 416.174624 
L 189.316449 416.248468 
L 195.295558 416.175572 
L 201.274667 416.24903 
L 207.253776 416.171413 
L 213.232886 416.253366 
L 219.211995 416.16617 
L 225.191104 416.25855 
L 231.170213 416.160378 
L 237.149323 416.267141 
L 243.128432 416.150485 
L 249.107541 416.275136 
L 255.086651 416.138506 
L 261.06576 416.292539 
L 267.044869 416.121029 
L 273.023978 416.312503 
L 279.003088 416.102137 
L 284.982197 416.330701 
L 290.961306 416.077264 
L 296.940416 416.356019 
L 302.919525 416.051341 
L 308.898634 416.389437 
L 314.877743 416.012471 
L 320.856853 416.424732 
L 326.835962 415.978851 
L 332.815071 416.466219 
L 338.79418 415.929328 
L 344.77329 416.522286 
L 350.752399 415.865333 
L 356.731508 416.590272 
L 362.710618 415.793049 
L 368.689727 416.669573 
L 374.668836 415.70789 
L 380.647945 416.760003 
L 386.627055 415.608483 
L 392.606164 416.868464 
L 398.585273 415.48986 
L 404.564382 417.003535 
L 410.543492 415.338649 
L 416.522601 417.171162 
L 422.50171 415.153696 
L 428.48082 417.376748 
L 434.459929 414.93142 
L 440.439038 417.617006 
L 446.418147 414.663409 
L 452.397257 417.916055 
L 458.376366 414.335164 
L 464.355475 418.271587 
L 470.334584 413.940561 
L 476.313694 418.707834 
L 482.292803 413.465804 
L 488.271912 419.225995 
L 494.251022 412.891866 
L 500.230131 419.861469 
L 506.20924 412.194095 
L 512.188349 420.632677 
L 518.167459 411.348032 
L 524.146568 421.558051 
L 530.125677 410.33002 
L 536.104787 422.675004 
L 542.083896 409.099046 
L 548.063005 424.032493 
L 554.042114 407.603007 
L 560.021224 425.677228 
L 566.000333 405.798543 
L 571.979442 427.66348 
L 577.958551 403.608131 
L 583.937661 430.073451 
L 589.91677 400.959912 
L 595.895879 432.987327 
L 601.874989 397.755164 
L 607.854098 436.513969 
L 613.833207 393.875901 
L 619.812316 440.782381 
L 625.791426 389.184834 
L 631.770535 445.942027 
L 637.749644 383.506458 
L 643.728753 452.185084 
L 649.707863 376.638787 
L 655.686972 459.734683 
L 661.666081 368.334868 
L 667.645191 468.874525 
L 673.6243 358.278077 
L 679.603409 479.937391 
" clip-path="url(#p2ded977c91)" style="fill: none; stroke: #d62728; stroke-width: 1.5; stroke-linecap: square"/>
   </g>
   <g id="line2d_30">
    <path d="M 87.671591 416.209622 
L 93.6507 416.209517 
L 99.629809 416.212865 
L 105.608919 416.210815 
L 111.588028 416.211605 
L 117.567137 416.211232 
L 123.546247 416.212653 
L 129.525356 416.208298 
L 135.504465 416.210626 
L 141.483574 416.209674 
L 147.462684 416.210011 
L 153.441793 416.21115 
L 159.420902 416.210595 
L 165.400011 416.210325 
L 171.379121 416.211904 
L 177.35823 416.209306 
L 183.337339 416.214443 
L 189.316449 416.204147 
L 195.295558 416.213083 
L 201.274667 416.206486 
L 207.253776 416.213318 
L 213.232886 416.20735 
L 219.211995 416.215422 
L 225.191104 416.210082 
L 231.170213 416.210365 
L 237.149323 416.21336 
L 243.128432 416.209238 
L 249.107541 416.215714 
L 255.086651 416.2015 
L 261.06576 416.217959 
L 267.044869 416.202297 
L 273.023978 416.220315 
L 279.003088 416.200951 
L 284.982197 416.220256 
L 290.961306 416.198242 
L 296.940416 416.225905 
L 302.919525 416.194659 
L 308.898634 416.227898 
L 314.877743 416.195339 
L 320.856853 416.228241 
L 326.835962 416.189252 
L 332.815071 416.234306 
L 338.79418 416.185078 
L 344.77329 416.239403 
L 350.752399 416.183952 
L 356.731508 416.241378 
L 362.710618 416.174566 
L 368.689727 416.253472 
L 374.668836 416.164873 
L 380.647945 416.258288 
L 386.627055 416.159629 
L 392.606164 416.264532 
L 398.585273 416.152235 
L 404.564382 416.272694 
L 410.543492 416.145211 
L 416.522601 416.283967 
L 422.50171 416.125972 
L 428.48082 416.304466 
L 434.459929 416.109543 
L 440.439038 416.322433 
L 446.418147 416.087032 
L 452.397257 416.343957 
L 458.376366 416.062799 
L 464.355475 416.372269 
L 470.334584 416.032732 
L 476.313694 416.403694 
L 482.292803 415.996047 
L 488.271912 416.444398 
L 494.251022 415.94872 
L 500.230131 416.49813 
L 506.20924 415.892266 
L 512.188349 416.556459 
L 518.167459 415.831252 
L 524.146568 416.627484 
L 530.125677 415.75472 
L 536.104787 416.710295 
L 542.083896 415.662422 
L 548.063005 416.81333 
L 554.042114 415.547856 
L 560.021224 416.939422 
L 566.000333 415.411063 
L 571.979442 417.087174 
L 577.958551 415.24686 
L 583.937661 417.2713 
L 589.91677 415.043859 
L 595.895879 417.492265 
L 601.874989 414.800876 
L 607.854098 417.765666 
L 613.833207 414.497882 
L 619.812316 418.094033 
L 625.791426 414.138206 
L 631.770535 418.487335 
L 637.749644 413.706035 
L 643.728753 418.963105 
L 649.707863 413.181376 
L 655.686972 419.542645 
L 661.666081 412.545391 
L 667.645191 420.243397 
L 673.6243 411.777439 
L 679.603409 421.086952 
" clip-path="url(#p2ded977c91)" style="fill: none; stroke: #9467bd; stroke-width: 1.5; stroke-linecap: square"/>
   </g>
   <g id="line2d_31">
    <path d="M 87.671591 416.209201 
L 93.6507 416.213656 
L 99.629809 416.205563 
L 105.608919 416.216551 
L 111.588028 416.201821 
L 117.567137 416.219352 
L 123.546247 416.204763 
L 129.525356 416.217741 
L 135.504465 416.201415 
L 141.483574 416.218672 
L 147.462684 416.196967 
L 153.441793 416.224631 
L 159.420902 416.198453 
L 165.400011 416.224316 
L 171.379121 416.197239 
L 177.35823 416.225263 
L 183.337339 416.196235 
L 189.316449 416.228253 
L 195.295558 416.192723 
L 201.274667 416.228252 
L 207.253776 416.192259 
L 213.232886 416.230967 
L 219.211995 416.188985 
L 225.191104 416.231403 
L 231.170213 416.189208 
L 237.149323 416.231371 
L 243.128432 416.189638 
L 249.107541 416.236096 
L 255.086651 416.182336 
L 261.06576 416.2432 
L 267.044869 416.172781 
L 273.023978 416.251422 
L 279.003088 416.166853 
L 284.982197 416.258835 
L 290.961306 416.157296 
L 296.940416 416.271087 
L 302.919525 416.14334 
L 308.898634 416.284273 
L 314.877743 416.128657 
L 320.856853 416.302344 
L 326.835962 416.111094 
L 332.815071 416.32287 
L 338.79418 416.089767 
L 344.77329 416.344302 
L 350.752399 416.065199 
L 356.731508 416.366027 
L 362.710618 416.037896 
L 368.689727 416.400996 
L 374.668836 415.999311 
L 380.647945 416.445173 
L 386.627055 415.954727 
L 392.606164 416.492625 
L 398.585273 415.896351 
L 404.564382 416.558874 
L 410.543492 415.828134 
L 416.522601 416.631588 
L 422.50171 415.746301 
L 428.48082 416.726046 
L 434.459929 415.642568 
L 440.439038 416.833945 
L 446.418147 415.530818 
L 452.397257 416.960215 
L 458.376366 415.386678 
L 464.355475 417.117796 
L 470.334584 415.213014 
L 476.313694 417.306226 
L 482.292803 415.007849 
L 488.271912 417.534756 
L 494.251022 414.752869 
L 500.230131 417.81581 
L 506.20924 414.44671 
L 512.188349 418.151573 
L 518.167459 414.075428 
L 524.146568 418.557661 
L 530.125677 413.628332 
L 536.104787 419.050764 
L 542.083896 413.086119 
L 548.063005 419.649421 
L 554.042114 412.428626 
L 560.021224 420.369793 
L 566.000333 411.637971 
L 571.979442 421.243359 
L 577.958551 410.673743 
L 583.937661 422.298866 
L 589.91677 409.513246 
L 595.895879 423.575728 
L 601.874989 408.110664 
L 607.854098 425.121034 
L 613.833207 406.412551 
L 619.812316 426.98979 
L 625.791426 404.355699 
L 631.770535 429.249372 
L 637.749644 401.864736 
L 643.728753 431.995197 
L 649.707863 398.845388 
L 655.686972 435.309183 
L 661.666081 395.202887 
L 667.645191 439.32178 
L 673.6243 390.785962 
L 679.603409 444.181804 
" clip-path="url(#p2ded977c91)" style="fill: none; stroke: #8c564b; stroke-width: 1.5; stroke-linecap: square"/>
   </g>
   <g id="line2d_32">
    <path d="M 87.671591 416.208536 
L 93.6507 416.215475 
L 99.629809 416.205455 
L 105.608919 416.215774 
L 111.588028 416.204493 
L 117.567137 416.223278 
L 123.546247 416.198518 
L 129.525356 416.226209 
L 135.504465 416.192393 
L 141.483574 416.231572 
L 147.462684 416.187017 
L 153.441793 416.237155 
L 159.420902 416.183265 
L 165.400011 416.239083 
L 171.379121 416.176905 
L 177.35823 416.244439 
L 183.337339 416.173717 
L 189.316449 416.252321 
L 195.295558 416.165825 
L 201.274667 416.261755 
L 207.253776 416.153294 
L 213.232886 416.273088 
L 219.211995 416.144713 
L 225.191104 416.279888 
L 231.170213 416.130988 
L 237.149323 416.299071 
L 243.128432 416.113141 
L 249.107541 416.318377 
L 255.086651 416.092448 
L 261.06576 416.343186 
L 267.044869 416.0643 
L 273.023978 416.371337 
L 279.003088 416.033335 
L 284.982197 416.405533 
L 290.961306 415.996402 
L 296.940416 416.448704 
L 302.919525 415.946022 
L 308.898634 416.502272 
L 314.877743 415.886261 
L 320.856853 416.565451 
L 326.835962 415.821605 
L 332.815071 416.631784 
L 338.79418 415.747945 
L 344.77329 416.72 
L 350.752399 415.652142 
L 356.731508 416.826112 
L 362.710618 415.529583 
L 368.689727 416.960525 
L 374.668836 415.384357 
L 380.647945 417.118031 
L 386.627055 415.212955 
L 392.606164 417.311827 
L 398.585273 414.996512 
L 404.564382 417.546593 
L 410.543492 414.740724 
L 416.522601 417.823953 
L 422.50171 414.434798 
L 428.48082 418.16007 
L 434.459929 414.066901 
L 440.439038 418.571526 
L 446.418147 413.610117 
L 452.397257 419.071793 
L 458.376366 413.062852 
L 464.355475 419.674861 
L 470.334584 412.399298 
L 476.313694 420.401101 
L 482.292803 411.601925 
L 488.271912 421.280075 
L 494.251022 410.635955 
L 500.230131 422.343173 
L 506.20924 409.467026 
L 512.188349 423.627649 
L 518.167459 408.053087 
L 524.146568 425.187879 
L 530.125677 406.338103 
L 536.104787 427.070527 
L 542.083896 404.263893 
L 548.063005 429.350625 
L 554.042114 401.7588 
L 560.021224 432.108714 
L 566.000333 398.7264 
L 571.979442 435.444671 
L 577.958551 395.053443 
L 583.937661 439.485389 
L 589.91677 390.606976 
L 595.895879 444.375748 
L 601.874989 385.231712 
L 607.854098 450.286034 
L 613.833207 378.721647 
L 619.812316 457.451909 
L 625.791426 370.844037 
L 631.770535 466.112758 
L 637.749644 361.318089 
L 643.728753 476.59167 
L 649.707863 349.792296 
L 655.686972 489.266679 
L 661.666081 335.849731 
L 667.645191 504.609512 
L 673.6243 318.973794 
L 679.603409 523.171364 
" clip-path="url(#p2ded977c91)" style="fill: none; stroke: #e377c2; stroke-width: 1.5; stroke-linecap: square"/>
   </g>
   <g id="line2d_33">
    <path d="M 87.671591 416.207262 
L 93.6507 416.210474 
L 99.629809 416.209468 
L 105.608919 416.210708 
L 111.588028 416.21113 
L 117.567137 416.207432 
L 123.546247 416.212646 
L 129.525356 416.204351 
L 135.504465 416.215761 
L 141.483574 416.207537 
L 147.462684 416.210583 
L 153.441793 416.213673 
L 159.420902 416.206761 
L 165.400011 416.214153 
L 171.379121 416.203614 
L 177.35823 416.216704 
L 183.337339 416.201443 
L 189.316449 416.220224 
L 195.295558 416.201784 
L 201.274667 416.218035 
L 207.253776 416.20475 
L 213.232886 416.21582 
L 219.211995 416.204613 
L 225.191104 416.218161 
L 231.170213 416.204194 
L 237.149323 416.216892 
L 243.128432 416.201382 
L 249.107541 416.221838 
L 255.086651 416.198973 
L 261.06576 416.219716 
L 267.044869 416.198773 
L 273.023978 416.226486 
L 279.003088 416.191961 
L 284.982197 416.232116 
L 290.961306 416.187577 
L 296.940416 416.234871 
L 302.919525 416.180643 
L 308.898634 416.245908 
L 314.877743 416.171084 
L 320.856853 416.2552 
L 326.835962 416.161743 
L 332.815071 416.26346 
L 338.79418 416.153356 
L 344.77329 416.273547 
L 350.752399 416.140425 
L 356.731508 416.286388 
L 362.710618 416.126463 
L 368.689727 416.304201 
L 374.668836 416.106778 
L 380.647945 416.323003 
L 386.627055 416.086462 
L 392.606164 416.347233 
L 398.585273 416.06064 
L 404.564382 416.376016 
L 410.543492 416.027196 
L 416.522601 416.410053 
L 422.50171 415.993007 
L 428.48082 416.447317 
L 434.459929 415.949 
L 440.439038 416.494093 
L 446.418147 415.901474 
L 452.397257 416.551055 
L 458.376366 415.833979 
L 464.355475 416.625782 
L 470.334584 415.753852 
L 476.313694 416.715088 
L 482.292803 415.652679 
L 488.271912 416.822891 
L 494.251022 415.536675 
L 500.230131 416.951377 
L 506.20924 415.394232 
L 512.188349 417.108582 
L 518.167459 415.221564 
L 524.146568 417.298429 
L 530.125677 415.015727 
L 536.104787 417.525258 
L 542.083896 414.764641 
L 548.063005 417.798883 
L 554.042114 414.463838 
L 560.021224 418.131514 
L 566.000333 414.09881 
L 571.979442 418.532968 
L 577.958551 413.6545 
L 583.937661 419.019731 
L 589.91677 413.124623 
L 595.895879 419.604705 
L 601.874989 412.477696 
L 607.854098 420.314565 
L 613.833207 411.693621 
L 619.812316 421.179462 
L 625.791426 410.743417 
L 631.770535 422.226005 
L 637.749644 409.591954 
L 643.728753 423.492364 
L 649.707863 408.203314 
L 655.686972 425.017016 
L 661.666081 406.525737 
L 667.645191 426.866184 
L 673.6243 404.49226 
L 679.603409 429.099372 
" clip-path="url(#p2ded977c91)" style="fill: none; stroke: #7f7f7f; stroke-width: 1.5; stroke-linecap: square"/>
   </g>
   <g id="line2d_34">
    <path d="M 87.671591 416.207469 
L 93.6507 416.215976 
L 99.629809 416.204015 
L 105.608919 416.220161 
L 111.588028 416.196852 
L 117.567137 416.225706 
L 123.546247 416.198377 
L 129.525356 416.225915 
L 135.504465 416.19786 
L 141.483574 416.224056 
L 147.462684 416.195497 
L 153.441793 416.226842 
L 159.420902 416.189378 
L 165.400011 416.233998 
L 171.379121 416.184287 
L 177.35823 416.239348 
L 183.337339 416.179953 
L 189.316449 416.241674 
L 195.295558 416.173943 
L 201.274667 416.252567 
L 207.253776 416.163353 
L 213.232886 416.264331 
L 219.211995 416.152705 
L 225.191104 416.274321 
L 231.170213 416.138353 
L 237.149323 416.288403 
L 243.128432 416.124273 
L 249.107541 416.304705 
L 255.086651 416.106382 
L 261.06576 416.326268 
L 267.044869 416.086225 
L 273.023978 416.348684 
L 279.003088 416.060765 
L 284.982197 416.374794 
L 290.961306 416.032266 
L 296.940416 416.407616 
L 302.919525 415.994394 
L 308.898634 416.44867 
L 314.877743 415.947321 
L 320.856853 416.50079 
L 326.835962 415.896836 
L 332.815071 416.555894 
L 338.79418 415.832565 
L 344.77329 416.625301 
L 350.752399 415.755746 
L 356.731508 416.711856 
L 362.710618 415.656873 
L 368.689727 416.820388 
L 374.668836 415.541514 
L 380.647945 416.944141 
L 386.627055 415.406561 
L 392.606164 417.090824 
L 398.585273 415.243657 
L 404.564382 417.27109 
L 410.543492 415.042904 
L 416.522601 417.493438 
L 422.50171 414.798616 
L 428.48082 417.763168 
L 434.459929 414.500706 
L 440.439038 418.092875 
L 446.418147 414.1417 
L 452.397257 418.488319 
L 458.376366 413.707071 
L 464.355475 418.965397 
L 470.334584 413.180359 
L 476.313694 419.543559 
L 482.292803 412.5433 
L 488.271912 420.245303 
L 494.251022 411.771182 
L 500.230131 421.095813 
L 506.20924 410.836729 
L 512.188349 422.125119 
L 518.167459 409.702704 
L 524.146568 423.369021 
L 530.125677 408.338376 
L 536.104787 424.872481 
L 542.083896 406.681872 
L 548.063005 426.691153 
L 554.042114 404.682497 
L 560.021224 428.890397 
L 566.000333 402.263937 
L 571.979442 431.551552 
L 577.958551 399.337537 
L 583.937661 434.775127 
L 589.91677 395.789001 
L 595.895879 438.673554 
L 601.874989 391.500399 
L 607.854098 443.391949 
L 613.833207 386.310606 
L 619.812316 449.102973 
L 625.791426 380.02989 
L 631.770535 456.014364 
L 637.749644 372.429906 
L 643.728753 464.370769 
L 649.707863 363.234339 
L 655.686972 474.481652 
L 661.666081 352.111133 
L 667.645191 486.719326 
L 673.6243 338.652798 
L 679.603409 501.521648 
" clip-path="url(#p2ded977c91)" style="fill: none; stroke: #bcbd22; stroke-width: 1.5; stroke-linecap: square"/>
   </g>
   <g id="line2d_35">
    <path d="M 87.671591 416.209847 
L 93.6507 416.210333 
L 99.629809 416.210348 
L 105.608919 416.208831 
L 111.588028 416.21398 
L 117.567137 416.204588 
L 123.546247 416.221146 
L 129.525356 416.198044 
L 135.504465 416.226749 
L 141.483574 416.192114 
L 147.462684 416.229945 
L 153.441793 416.190951 
L 159.420902 416.229345 
L 165.400011 416.185558 
L 171.379121 416.241494 
L 177.35823 416.17637 
L 183.337339 416.249805 
L 189.316449 416.169118 
L 195.295558 416.25301 
L 201.274667 416.164258 
L 207.253776 416.26208 
L 213.232886 416.152324 
L 219.211995 416.275034 
L 225.191104 416.140325 
L 231.170213 416.287186 
L 237.149323 416.124808 
L 243.128432 416.304458 
L 249.107541 416.104833 
L 255.086651 416.327356 
L 261.06576 416.080516 
L 267.044869 416.353208 
L 273.023978 416.057587 
L 279.003088 416.375855 
L 284.982197 416.029261 
L 290.961306 416.409638 
L 296.940416 415.994809 
L 302.919525 416.447823 
L 308.898634 415.947915 
L 314.877743 416.498528 
L 320.856853 415.893513 
L 326.835962 416.559343 
L 332.815071 415.823762 
L 338.79418 416.635566 
L 344.77329 415.744121 
L 350.752399 416.723313 
L 356.731508 415.647221 
L 362.710618 416.831089 
L 368.689727 415.526868 
L 374.668836 416.961078 
L 380.647945 415.383816 
L 386.627055 417.122422 
L 392.606164 415.204176 
L 398.585273 417.320782 
L 404.564382 414.988814 
L 410.543492 417.553913 
L 416.522601 414.734434 
L 422.50171 417.832719 
L 428.48082 414.427138 
L 434.459929 418.169329 
L 440.439038 414.056863 
L 446.418147 418.576653 
L 452.397257 413.608941 
L 458.376366 419.071356 
L 464.355475 413.062692 
L 470.334584 419.672125 
L 476.313694 412.402829 
L 482.292803 420.400829 
L 488.271912 411.600465 
L 494.251022 421.283396 
L 500.230131 410.62814 
L 506.20924 422.352077 
L 512.188349 409.451596 
L 518.167459 423.644292 
L 524.146568 408.033027 
L 530.125677 425.20437 
L 536.104787 406.318447 
L 542.083896 427.094569 
L 548.063005 404.236625 
L 554.042114 429.382312 
L 560.021224 401.723797 
L 566.000333 432.142427 
L 571.979442 398.688909 
L 577.958551 435.48169 
L 583.937661 395.010889 
L 589.91677 439.525441 
L 595.895879 390.564592 
L 601.874989 444.421931 
L 607.854098 385.183733 
L 613.833207 450.339871 
L 619.812316 378.67205 
L 625.791426 457.500156 
L 631.770535 370.786702 
L 637.749644 466.175195 
L 643.728753 361.250649 
L 649.707863 476.666024 
L 655.686972 349.711294 
L 661.666081 489.36153 
L 667.645191 335.747434 
L 673.6243 504.718512 
L 679.603409 318.853959 
" clip-path="url(#p2ded977c91)" style="fill: none; stroke: #17becf; stroke-width: 1.5; stroke-linecap: square"/>
   </g>
   <g id="line2d_36">
    <path d="M 87.671591 416.211854 
L 93.6507 416.208884 
L 99.629809 416.206639 
L 105.608919 416.214397 
L 111.588028 416.207011 
L 117.567137 416.213999 
L 123.546247 416.208149 
L 129.525356 416.215154 
L 135.504465 416.206748 
L 141.483574 416.216872 
L 147.462684 416.204349 
L 153.441793 416.216354 
L 159.420902 416.205811 
L 165.400011 416.216494 
L 171.379121 416.20001 
L 177.35823 416.227324 
L 183.337339 416.194572 
L 189.316449 416.228509 
L 195.295558 416.191775 
L 201.274667 416.231681 
L 207.253776 416.186307 
L 213.232886 416.236923 
L 219.211995 416.183284 
L 225.191104 416.236346 
L 231.170213 416.188763 
L 237.149323 416.2324 
L 243.128432 416.188091 
L 249.107541 416.231921 
L 255.086651 416.187968 
L 261.06576 416.235747 
L 267.044869 416.185027 
L 273.023978 416.236727 
L 279.003088 416.179094 
L 284.982197 416.245012 
L 290.961306 416.175881 
L 296.940416 416.248909 
L 302.919525 416.167625 
L 308.898634 416.256761 
L 314.877743 416.16037 
L 320.856853 416.269413 
L 326.835962 416.149191 
L 332.815071 416.279167 
L 338.79418 416.134531 
L 344.77329 416.295391 
L 350.752399 416.117676 
L 356.731508 416.31406 
L 362.710618 416.098549 
L 368.689727 416.333341 
L 374.668836 416.075991 
L 380.647945 416.359673 
L 386.627055 416.048133 
L 392.606164 416.392633 
L 398.585273 416.011915 
L 404.564382 416.432085 
L 410.543492 415.96485 
L 416.522601 416.48122 
L 422.50171 415.911107 
L 428.48082 416.537174 
L 434.459929 415.850117 
L 440.439038 416.608314 
L 446.418147 415.774054 
L 452.397257 416.691662 
L 458.376366 415.681816 
L 464.355475 416.791201 
L 470.334584 415.573241 
L 476.313694 416.913817 
L 482.292803 415.437879 
L 488.271912 417.060744 
L 494.251022 415.274336 
L 500.230131 417.241985 
L 506.20924 415.074786 
L 512.188349 417.456728 
L 518.167459 414.83685 
L 524.146568 417.722843 
L 530.125677 414.548827 
L 536.104787 418.039302 
L 542.083896 414.19973 
L 548.063005 418.419504 
L 554.042114 413.781514 
L 560.021224 418.882361 
L 566.000333 413.275679 
L 571.979442 419.44329 
L 577.958551 412.653376 
L 583.937661 420.121838 
L 589.91677 411.909728 
L 595.895879 420.943054 
L 601.874989 411.003632 
L 607.854098 421.938048 
L 613.833207 409.910289 
L 619.812316 423.142154 
L 625.791426 408.585377 
L 631.770535 424.599748 
L 637.749644 406.981744 
L 643.728753 426.365291 
L 649.707863 405.042675 
L 655.686972 428.496559 
L 661.666081 402.694188 
L 667.645191 431.077633 
L 673.6243 399.851101 
L 679.603409 434.210559 
" clip-path="url(#p2ded977c91)" style="fill: none; stroke: #1f77b4; stroke-width: 1.5; stroke-linecap: square"/>
   </g>
   <g id="line2d_37">
    <path d="M 87.671591 416.208041 
L 93.6507 416.214055 
L 99.629809 416.207578 
L 105.608919 416.210785 
L 111.588028 416.206978 
L 117.567137 416.213736 
L 123.546247 416.208891 
L 129.525356 416.21193 
L 135.504465 416.208144 
L 141.483574 416.213565 
L 147.462684 416.207011 
L 153.441793 416.211444 
L 159.420902 416.211901 
L 165.400011 416.211535 
L 171.379121 416.210016 
L 177.35823 416.210884 
L 183.337339 416.210487 
L 189.316449 416.211634 
L 195.295558 416.208389 
L 201.274667 416.213324 
L 207.253776 416.209183 
L 213.232886 416.21754 
L 219.211995 416.201248 
L 225.191104 416.222068 
L 231.170213 416.198985 
L 237.149323 416.223821 
L 243.128432 416.196698 
L 249.107541 416.227614 
L 255.086651 416.193505 
L 261.06576 416.230157 
L 267.044869 416.191377 
L 273.023978 416.234405 
L 279.003088 416.184842 
L 284.982197 416.234578 
L 290.961306 416.182224 
L 296.940416 416.240098 
L 302.919525 416.181981 
L 308.898634 416.244948 
L 314.877743 416.171219 
L 320.856853 416.250761 
L 326.835962 416.170728 
L 332.815071 416.257052 
L 338.79418 416.160297 
L 344.77329 416.261547 
L 350.752399 416.156274 
L 356.731508 416.271577 
L 362.710618 416.143376 
L 368.689727 416.284382 
L 374.668836 416.131295 
L 380.647945 416.296803 
L 386.627055 416.113794 
L 392.606164 416.31503 
L 398.585273 416.095775 
L 404.564382 416.337215 
L 410.543492 416.070018 
L 416.522601 416.366115 
L 422.50171 416.041989 
L 428.48082 416.397823 
L 434.459929 416.004304 
L 440.439038 416.4384 
L 446.418147 415.962472 
L 452.397257 416.48524 
L 458.376366 415.908129 
L 464.355475 416.543223 
L 470.334584 415.840384 
L 476.313694 416.617852 
L 482.292803 415.763347 
L 488.271912 416.702316 
L 494.251022 415.668897 
L 500.230131 416.806975 
L 506.20924 415.555224 
L 512.188349 416.928865 
L 518.167459 415.418775 
L 524.146568 417.081308 
L 530.125677 415.253755 
L 536.104787 417.263499 
L 542.083896 415.055856 
L 548.063005 417.483384 
L 554.042114 414.809487 
L 560.021224 417.753468 
L 566.000333 414.509767 
L 571.979442 418.083119 
L 577.958551 414.146961 
L 583.937661 418.477802 
L 589.91677 413.71829 
L 595.895879 418.950457 
L 601.874989 413.191892 
L 607.854098 419.52865 
L 613.833207 412.560586 
L 619.812316 420.223906 
L 625.791426 411.796328 
L 631.770535 421.066504 
L 637.749644 410.868855 
L 643.728753 422.086744 
L 649.707863 409.749073 
L 655.686972 423.319207 
L 661.666081 408.391092 
L 667.645191 424.809367 
L 673.6243 406.750789 
L 679.603409 426.614392 
" clip-path="url(#p2ded977c91)" style="fill: none; stroke: #ff7f0e; stroke-width: 1.5; stroke-linecap: square"/>
   </g>
   <g id="line2d_38">
    <path d="M 87.671591 416.211592 
L 93.6507 416.208019 
L 99.629809 416.214317 
L 105.608919 416.207901 
L 111.588028 416.212715 
L 117.567137 416.208525 
L 123.546247 416.213013 
L 129.525356 416.207897 
L 135.504465 416.214192 
L 141.483574 416.207385 
L 147.462684 416.214956 
L 153.441793 416.205748 
L 159.420902 416.216216 
L 165.400011 416.205002 
L 171.379121 416.216357 
L 177.35823 416.203926 
L 183.337339 416.216507 
L 189.316449 416.208361 
L 195.295558 416.214726 
L 201.274667 416.207785 
L 207.253776 416.208254 
L 213.232886 416.210332 
L 219.211995 416.210796 
L 225.191104 416.211133 
L 231.170213 416.214171 
L 237.149323 416.206052 
L 243.128432 416.21404 
L 249.107541 416.20811 
L 255.086651 416.212697 
L 261.06576 416.208646 
L 267.044869 416.212039 
L 273.023978 416.212516 
L 279.003088 416.208632 
L 284.982197 416.213156 
L 290.961306 416.207647 
L 296.940416 416.21508 
L 302.919525 416.204106 
L 308.898634 416.218813 
L 314.877743 416.205561 
L 320.856853 416.216177 
L 326.835962 416.205396 
L 332.815071 416.215129 
L 338.79418 416.20564 
L 344.77329 416.217655 
L 350.752399 416.204316 
L 356.731508 416.216531 
L 362.710618 416.202269 
L 368.689727 416.217714 
L 374.668836 416.20577 
L 380.647945 416.213533 
L 386.627055 416.206785 
L 392.606164 416.213002 
L 398.585273 416.2101 
L 404.564382 416.211665 
L 410.543492 416.208514 
L 416.522601 416.215534 
L 422.50171 416.203555 
L 428.48082 416.218146 
L 434.459929 416.205026 
L 440.439038 416.214538 
L 446.418147 416.206081 
L 452.397257 416.214261 
L 458.376366 416.2069 
L 464.355475 416.218042 
L 470.334584 416.204992 
L 476.313694 416.219429 
L 482.292803 416.201871 
L 488.271912 416.220923 
L 494.251022 416.197053 
L 500.230131 416.226106 
L 506.20924 416.196868 
L 512.188349 416.224771 
L 518.167459 416.192607 
L 524.146568 416.233443 
L 530.125677 416.179858 
L 536.104787 416.245043 
L 542.083896 416.174266 
L 548.063005 416.246259 
L 554.042114 416.170117 
L 560.021224 416.254363 
L 566.000333 416.161495 
L 571.979442 416.264851 
L 577.958551 416.151107 
L 583.937661 416.279925 
L 589.91677 416.133745 
L 595.895879 416.291733 
L 601.874989 416.12455 
L 607.854098 416.307888 
L 613.833207 416.10554 
L 619.812316 416.323539 
L 625.791426 416.085384 
L 631.770535 416.349429 
L 637.749644 416.057284 
L 643.728753 416.377384 
L 649.707863 416.027016 
L 655.686972 416.411057 
L 661.666081 415.990117 
L 667.645191 416.45445 
L 673.6243 415.946447 
L 679.603409 416.500691 
" clip-path="url(#p2ded977c91)" style="fill: none; stroke: #2ca02c; stroke-width: 1.5; stroke-linecap: square"/>
   </g>
   <g id="line2d_39">
    <path d="M 87.671591 416.207476 
L 93.6507 416.212067 
L 99.629809 416.211403 
L 105.608919 416.211174 
L 111.588028 416.20842 
L 117.567137 416.21398 
L 123.546247 416.206805 
L 129.525356 416.211175 
L 135.504465 416.210249 
L 141.483574 416.21096 
L 147.462684 416.209605 
L 153.441793 416.210006 
L 159.420902 416.207407 
L 165.400011 416.212777 
L 171.379121 416.212168 
L 177.35823 416.208164 
L 183.337339 416.213849 
L 189.316449 416.206406 
L 195.295558 416.217853 
L 201.274667 416.19982 
L 207.253776 416.220976 
L 213.232886 416.200209 
L 219.211995 416.224478 
L 225.191104 416.195142 
L 231.170213 416.228828 
L 237.149323 416.191759 
L 243.128432 416.229369 
L 249.107541 416.191947 
L 255.086651 416.229526 
L 261.06576 416.188336 
L 267.044869 416.233442 
L 273.023978 416.185047 
L 279.003088 416.238502 
L 284.982197 416.18101 
L 290.961306 416.241515 
L 296.940416 416.175064 
L 302.919525 416.251392 
L 308.898634 416.166646 
L 314.877743 416.25895 
L 320.856853 416.157233 
L 326.835962 416.271352 
L 332.815071 416.146245 
L 338.79418 416.281902 
L 344.77329 416.132732 
L 350.752399 416.295404 
L 356.731508 416.114915 
L 362.710618 416.318932 
L 368.689727 416.089878 
L 374.668836 416.344606 
L 380.647945 416.06429 
L 386.627055 416.370314 
L 392.606164 416.039117 
L 398.585273 416.396702 
L 404.564382 416.004249 
L 410.543492 416.437443 
L 416.522601 415.960518 
L 422.50171 416.487891 
L 428.48082 415.907319 
L 434.459929 416.546186 
L 440.439038 415.840386 
L 446.418147 416.618031 
L 452.397257 415.760382 
L 458.376366 416.707951 
L 464.355475 415.664484 
L 470.334584 416.813784 
L 476.313694 415.544169 
L 482.292803 416.946654 
L 488.271912 415.404031 
L 494.251022 417.098177 
L 500.230131 415.233098 
L 506.20924 417.283624 
L 512.188349 415.031132 
L 518.167459 417.507264 
L 524.146568 414.785158 
L 530.125677 417.77957 
L 536.104787 414.487071 
L 542.083896 418.103101 
L 548.063005 414.131026 
L 554.042114 418.497176 
L 560.021224 413.693821 
L 566.000333 418.978905 
L 571.979442 413.162642 
L 577.958551 419.565497 
L 583.937661 412.518401 
L 589.91677 420.272383 
L 595.895879 411.741292 
L 601.874989 421.128986 
L 607.854098 410.801518 
L 613.833207 422.158161 
L 619.812316 409.668885 
L 625.791426 423.407906 
L 631.770535 408.296078 
L 637.749644 424.918014 
L 643.728753 406.634372 
L 649.707863 426.746536 
L 655.686972 404.621408 
L 661.666081 428.955368 
L 667.645191 402.195648 
L 673.6243 431.628151 
L 679.603409 399.247965 
" clip-path="url(#p2ded977c91)" style="fill: none; stroke: #d62728; stroke-width: 1.5; stroke-linecap: square"/>
   </g>
   <g id="line2d_40">
    <path d="M 87.671591 416.208294 
L 93.6507 416.212732 
L 99.629809 416.205901 
L 105.608919 416.213395 
L 111.588028 416.208783 
L 117.567137 416.211159 
L 123.546247 416.210252 
L 129.525356 416.216413 
L 135.504465 416.204438 
L 141.483574 416.215645 
L 147.462684 416.20553 
L 153.441793 416.216315 
L 159.420902 416.205039 
L 165.400011 416.218431 
L 171.379121 416.200088 
L 177.35823 416.221733 
L 183.337339 416.200885 
L 189.316449 416.221388 
L 195.295558 416.198409 
L 201.274667 416.223423 
L 207.253776 416.195065 
L 213.232886 416.227828 
L 219.211995 416.188335 
L 225.191104 416.237783 
L 231.170213 416.183373 
L 237.149323 416.24049 
L 243.128432 416.175931 
L 249.107541 416.249962 
L 255.086651 416.166234 
L 261.06576 416.259546 
L 267.044869 416.15569 
L 273.023978 416.272998 
L 279.003088 416.141717 
L 284.982197 416.284378 
L 290.961306 416.128307 
L 296.940416 416.299151 
L 302.919525 416.114479 
L 308.898634 416.314352 
L 314.877743 416.095739 
L 320.856853 416.338004 
L 326.835962 416.073612 
L 332.815071 416.361432 
L 338.79418 416.044265 
L 344.77329 416.394991 
L 350.752399 416.009892 
L 356.731508 416.42868 
L 362.710618 415.964935 
L 368.689727 416.48113 
L 374.668836 415.915729 
L 380.647945 416.533646 
L 386.627055 415.856439 
L 392.606164 416.603603 
L 398.585273 415.777636 
L 404.564382 416.683101 
L 410.543492 415.690484 
L 416.522601 416.779974 
L 422.50171 415.584741 
L 428.48082 416.899775 
L 434.459929 415.451877 
L 440.439038 417.04453 
L 446.418147 415.293983 
L 452.397257 417.214151 
L 458.376366 415.107984 
L 464.355475 417.421204 
L 470.334584 414.878427 
L 476.313694 417.673915 
L 482.292803 414.598326 
L 488.271912 417.984087 
L 494.251022 414.256455 
L 500.230131 418.36001 
L 506.20924 413.846979 
L 512.188349 418.809237 
L 518.167459 413.352965 
L 524.146568 419.351807 
L 530.125677 412.755104 
L 536.104787 420.01404 
L 542.083896 412.02727 
L 548.063005 420.814363 
L 554.042114 411.149684 
L 560.021224 421.777333 
L 566.000333 410.082015 
L 571.979442 422.952304 
L 577.958551 408.794102 
L 583.937661 424.370614 
L 589.91677 407.233865 
L 595.895879 426.083853 
L 601.874989 405.35095 
L 607.854098 428.158935 
L 613.833207 403.067534 
L 619.812316 430.667056 
L 625.791426 400.307353 
L 631.770535 433.702101 
L 637.749644 396.967928 
L 643.728753 437.374463 
L 649.707863 392.929223 
L 655.686972 441.823416 
L 661.666081 388.035911 
L 667.645191 447.205349 
L 673.6243 382.116239 
L 679.603409 453.711293 
" clip-path="url(#p2ded977c91)" style="fill: none; stroke: #9467bd; stroke-width: 1.5; stroke-linecap: square"/>
   </g>
   <g id="line2d_41">
    <path d="M 87.671591 416.212629 
L 93.6507 416.206378 
L 99.629809 416.216752 
L 105.608919 416.205356 
L 111.588028 416.21063 
L 117.567137 416.209124 
L 123.546247 416.209215 
L 129.525356 416.211806 
L 135.504465 416.207846 
L 141.483574 416.214614 
L 147.462684 416.208949 
L 153.441793 416.213975 
L 159.420902 416.207653 
L 165.400011 416.214585 
L 171.379121 416.20848 
L 177.35823 416.211508 
L 183.337339 416.213291 
L 189.316449 416.205548 
L 195.295558 416.21363 
L 201.274667 416.204617 
L 207.253776 416.217804 
L 213.232886 416.202967 
L 219.211995 416.219948 
L 225.191104 416.199454 
L 231.170213 416.22005 
L 237.149323 416.197863 
L 243.128432 416.227813 
L 249.107541 416.189584 
L 255.086651 416.230657 
L 261.06576 416.189792 
L 267.044869 416.235582 
L 273.023978 416.179195 
L 279.003088 416.247408 
L 284.982197 416.169205 
L 290.961306 416.256023 
L 296.940416 416.160226 
L 302.919525 416.265915 
L 308.898634 416.14523 
L 314.877743 416.282451 
L 320.856853 416.128991 
L 326.835962 416.304108 
L 332.815071 416.110766 
L 338.79418 416.320366 
L 344.77329 416.090623 
L 350.752399 416.344039 
L 356.731508 416.061003 
L 362.710618 416.375042 
L 368.689727 416.027861 
L 374.668836 416.41271 
L 380.647945 415.987721 
L 386.627055 416.45782 
L 392.606164 415.940869 
L 398.585273 416.505848 
L 404.564382 415.884731 
L 410.543492 416.571613 
L 416.522601 415.811813 
L 422.50171 416.650904 
L 428.48082 415.727799 
L 434.459929 416.744537 
L 440.439038 415.620866 
L 446.418147 416.857266 
L 452.397257 415.503907 
L 458.376366 416.989707 
L 464.355475 415.351028 
L 470.334584 417.159664 
L 476.313694 415.165342 
L 482.292803 417.360164 
L 488.271912 414.948571 
L 494.251022 417.59843 
L 500.230131 414.680201 
L 506.20924 417.891599 
L 512.188349 414.362533 
L 518.167459 418.241832 
L 524.146568 413.973351 
L 530.125677 418.67354 
L 536.104787 413.499376 
L 542.083896 419.190857 
L 548.063005 412.931088 
L 554.042114 419.818973 
L 560.021224 412.238639 
L 566.000333 420.582899 
L 571.979442 411.400232 
L 577.958551 421.505147 
L 583.937661 410.386582 
L 589.91677 422.61786 
L 595.895879 409.163141 
L 601.874989 423.962243 
L 607.854098 407.68021 
L 613.833207 425.598248 
L 619.812316 405.881599 
L 625.791426 427.570898 
L 631.770535 403.716598 
L 637.749644 429.955393 
L 643.728753 401.094334 
L 649.707863 432.8372 
L 655.686972 397.919585 
L 661.666081 436.330591 
L 667.645191 394.082857 
L 673.6243 440.549341 
L 679.603409 389.437373 
" clip-path="url(#p2ded977c91)" style="fill: none; stroke: #8c564b; stroke-width: 1.5; stroke-linecap: square"/>
   </g>
   <g id="line2d_42">
    <path d="M 87.671591 416.205018 
L 93.6507 416.216471 
L 99.629809 416.203061 
L 105.608919 416.219232 
L 111.588028 416.203614 
L 117.567137 416.220224 
L 123.546247 416.201129 
L 129.525356 416.217623 
L 135.504465 416.201873 
L 141.483574 416.216693 
L 147.462684 416.205849 
L 153.441793 416.215062 
L 159.420902 416.206747 
L 165.400011 416.219586 
L 171.379121 416.202429 
L 177.35823 416.215971 
L 183.337339 416.20392 
L 189.316449 416.218507 
L 195.295558 416.199938 
L 201.274667 416.220754 
L 207.253776 416.199318 
L 213.232886 416.222528 
L 219.211995 416.194903 
L 225.191104 416.228545 
L 231.170213 416.190792 
L 237.149323 416.232893 
L 243.128432 416.18351 
L 249.107541 416.24019 
L 255.086651 416.176715 
L 261.06576 416.249238 
L 267.044869 416.174534 
L 273.023978 416.24868 
L 279.003088 416.171766 
L 284.982197 416.25185 
L 290.961306 416.160906 
L 296.940416 416.265562 
L 302.919525 416.14682 
L 308.898634 416.279845 
L 314.877743 416.132494 
L 320.856853 416.294036 
L 326.835962 416.119401 
L 332.815071 416.310682 
L 338.79418 416.102334 
L 344.77329 416.331761 
L 350.752399 416.07911 
L 356.731508 416.357934 
L 362.710618 416.047435 
L 368.689727 416.392244 
L 374.668836 416.010572 
L 380.647945 416.428592 
L 386.627055 415.970671 
L 392.606164 416.47531 
L 398.585273 415.917743 
L 404.564382 416.531924 
L 410.543492 415.8562 
L 416.522601 416.602636 
L 422.50171 415.78044 
L 428.48082 416.684797 
L 434.459929 415.686215 
L 440.439038 416.784609 
L 446.418147 415.578946 
L 452.397257 416.907383 
L 458.376366 415.448033 
L 464.355475 417.046631 
L 470.334584 415.289727 
L 476.313694 417.226579 
L 482.292803 415.093677 
L 488.271912 417.441059 
L 494.251022 414.858814 
L 500.230131 417.700294 
L 506.20924 414.57197 
L 512.188349 418.013452 
L 518.167459 414.22734 
L 524.146568 418.388224 
L 530.125677 413.815792 
L 536.104787 418.848038 
L 542.083896 413.312437 
L 548.063005 419.400053 
L 554.042114 412.700227 
L 560.021224 420.07044 
L 566.000333 411.962629 
L 571.979442 420.886078 
L 577.958551 411.069313 
L 583.937661 421.863187 
L 589.91677 409.994886 
L 595.895879 423.04956 
L 601.874989 408.687877 
L 607.854098 424.482758 
L 613.833207 407.1113 
L 619.812316 426.21984 
L 625.791426 405.199819 
L 631.770535 428.322554 
L 637.749644 402.892272 
L 643.728753 430.862614 
L 649.707863 400.094292 
L 655.686972 433.94096 
L 661.666081 396.704749 
L 667.645191 437.663573 
L 673.6243 392.611549 
L 679.603409 442.16908 
" clip-path="url(#p2ded977c91)" style="fill: none; stroke: #e377c2; stroke-width: 1.5; stroke-linecap: square"/>
   </g>
   <g id="line2d_43">
    <path d="M 87.671591 416.211029 
L 93.6507 416.207861 
L 99.629809 416.213662 
L 105.608919 416.206131 
L 111.588028 416.216306 
L 117.567137 416.204157 
L 123.546247 416.219199 
L 129.525356 416.199474 
L 135.504465 416.221632 
L 141.483574 416.196938 
L 147.462684 416.222892 
L 153.441793 416.194049 
L 159.420902 416.227527 
L 165.400011 416.19428 
L 171.379121 416.229576 
L 177.35823 416.190652 
L 183.337339 416.235954 
L 189.316449 416.183589 
L 195.295558 416.240018 
L 201.274667 416.17629 
L 207.253776 416.248445 
L 213.232886 416.167948 
L 219.211995 416.257897 
L 225.191104 416.158162 
L 231.170213 416.267728 
L 237.149323 416.145067 
L 243.128432 416.280851 
L 249.107541 416.130687 
L 255.086651 416.298005 
L 261.06576 416.113611 
L 267.044869 416.319131 
L 273.023978 416.090359 
L 279.003088 416.344917 
L 284.982197 416.06052 
L 290.961306 416.377023 
L 296.940416 416.026238 
L 302.919525 416.409335 
L 308.898634 415.992404 
L 314.877743 416.451667 
L 320.856853 415.945222 
L 326.835962 416.507009 
L 332.815071 415.882677 
L 338.79418 416.572739 
L 344.77329 415.810882 
L 350.752399 416.646508 
L 356.731508 415.733242 
L 362.710618 416.736699 
L 368.689727 415.63321 
L 374.668836 416.848068 
L 380.647945 415.509983 
L 386.627055 416.978974 
L 392.606164 415.365624 
L 398.585273 417.144263 
L 404.564382 415.184082 
L 410.543492 417.339878 
L 416.522601 414.968571 
L 422.50171 417.581577 
L 428.48082 414.704705 
L 434.459929 417.864139 
L 440.439038 414.388171 
L 446.418147 418.214677 
L 452.397257 414.005137 
L 458.376366 418.63738 
L 464.355475 413.540825 
L 470.334584 419.149604 
L 476.313694 412.97696 
L 482.292803 419.76911 
L 488.271912 412.300913 
L 494.251022 420.511334 
L 500.230131 411.479496 
L 506.20924 421.414964 
L 512.188349 410.488509 
L 518.167459 422.504289 
L 524.146568 409.287811 
L 530.125677 423.825112 
L 536.104787 407.836689 
L 542.083896 425.423844 
L 548.063005 406.075843 
L 554.042114 427.359915 
L 560.021224 403.94767 
L 566.000333 429.699775 
L 571.979442 401.372327 
L 577.958551 432.533054 
L 583.937661 398.253618 
L 589.91677 435.962587 
L 595.895879 394.483803 
L 601.874989 440.110069 
L 607.854098 389.922715 
L 613.833207 445.125257 
L 619.812316 384.403939 
L 625.791426 451.199521 
L 631.770535 377.721364 
L 637.749644 458.550761 
L 643.728753 369.634845 
L 649.707863 467.446112 
L 655.686972 359.852357 
L 661.666081 478.205148 
L 667.645191 348.015989 
L 673.6243 491.224728 
L 679.603409 333.695055 
" clip-path="url(#p2ded977c91)" style="fill: none; stroke: #7f7f7f; stroke-width: 1.5; stroke-linecap: square"/>
   </g>
   <g id="line2d_44">
    <path d="M 87.671591 416.207198 
L 93.6507 416.215915 
L 99.629809 416.205358 
L 105.608919 416.21648 
L 111.588028 416.208738 
L 117.567137 416.210688 
L 123.546247 416.210828 
L 129.525356 416.211269 
L 135.504465 416.208509 
L 141.483574 416.211432 
L 147.462684 416.214575 
L 153.441793 416.207789 
L 159.420902 416.216336 
L 165.400011 416.201949 
L 171.379121 416.219853 
L 177.35823 416.200423 
L 183.337339 416.219313 
L 189.316449 416.199884 
L 195.295558 416.221737 
L 201.274667 416.199122 
L 207.253776 416.224826 
L 213.232886 416.188593 
L 219.211995 416.232771 
L 225.191104 416.186825 
L 231.170213 416.23475 
L 237.149323 416.186033 
L 243.128432 416.234426 
L 249.107541 416.188791 
L 255.086651 416.232678 
L 261.06576 416.18762 
L 267.044869 416.235544 
L 273.023978 416.183543 
L 279.003088 416.236253 
L 284.982197 416.184867 
L 290.961306 416.238965 
L 296.940416 416.182085 
L 302.919525 416.23999 
L 308.898634 416.1736 
L 314.877743 416.252075 
L 320.856853 416.16447 
L 326.835962 416.261605 
L 332.815071 416.151674 
L 338.79418 416.273963 
L 344.77329 416.141959 
L 350.752399 416.283995 
L 356.731508 416.12939 
L 362.710618 416.296527 
L 368.689727 416.117483 
L 374.668836 416.313808 
L 380.647945 416.099845 
L 386.627055 416.334153 
L 392.606164 416.075142 
L 398.585273 416.362256 
L 404.564382 416.044621 
L 410.543492 416.393531 
L 416.522601 416.009724 
L 422.50171 416.427023 
L 428.48082 415.972336 
L 434.459929 416.471527 
L 440.439038 415.92166 
L 446.418147 416.527886 
L 452.397257 415.861499 
L 458.376366 416.592773 
L 464.355475 415.787918 
L 470.334584 416.673334 
L 476.313694 415.69898 
L 482.292803 416.772072 
L 488.271912 415.593911 
L 494.251022 416.891151 
L 500.230131 415.465017 
L 506.20924 417.029166 
L 512.188349 415.307861 
L 518.167459 417.205493 
L 524.146568 415.116197 
L 530.125677 417.417089 
L 536.104787 414.881567 
L 542.083896 417.674048 
L 548.063005 414.602686 
L 554.042114 417.980294 
L 560.021224 414.267547 
L 566.000333 418.346048 
L 571.979442 413.864322 
L 577.958551 418.791401 
L 583.937661 413.368115 
L 589.91677 419.335224 
L 595.895879 412.772767 
L 601.874989 419.990797 
L 607.854098 412.053596 
L 613.833207 420.784792 
L 619.812316 411.178183 
L 625.791426 421.74999 
L 631.770535 410.115502 
L 637.749644 422.914447 
L 643.728753 408.836934 
L 649.707863 424.323145 
L 655.686972 407.285852 
L 661.666081 426.025981 
L 667.645191 405.415057 
L 673.6243 428.08737 
L 679.603409 403.143927 
" clip-path="url(#p2ded977c91)" style="fill: none; stroke: #bcbd22; stroke-width: 1.5; stroke-linecap: square"/>
   </g>
   <g id="line2d_45">
    <path d="M 87.671591 416.210231 
L 93.6507 416.207306 
L 99.629809 416.214941 
L 105.608919 416.205366 
L 111.588028 416.213174 
L 117.567137 416.207977 
L 123.546247 416.21541 
L 129.525356 416.203027 
L 135.504465 416.214234 
L 141.483574 416.206951 
L 147.462684 416.212498 
L 153.441793 416.209771 
L 159.420902 416.213462 
L 165.400011 416.207068 
L 171.379121 416.216703 
L 177.35823 416.205266 
L 183.337339 416.216634 
L 189.316449 416.204851 
L 195.295558 416.215188 
L 201.274667 416.20678 
L 207.253776 416.21302 
L 213.232886 416.206703 
L 219.211995 416.220183 
L 225.191104 416.200785 
L 231.170213 416.22105 
L 237.149323 416.194468 
L 243.128432 416.229355 
L 249.107541 416.189301 
L 255.086651 416.231645 
L 261.06576 416.188605 
L 267.044869 416.237234 
L 273.023978 416.179171 
L 279.003088 416.246954 
L 284.982197 416.171807 
L 290.961306 416.253645 
L 296.940416 416.161164 
L 302.919525 416.263336 
L 308.898634 416.15283 
L 314.877743 416.273834 
L 320.856853 416.140561 
L 326.835962 416.285954 
L 332.815071 416.125376 
L 338.79418 416.305325 
L 344.77329 416.107463 
L 350.752399 416.323731 
L 356.731508 416.085238 
L 362.710618 416.346588 
L 368.689727 416.061538 
L 374.668836 416.369648 
L 380.647945 416.035444 
L 386.627055 416.405079 
L 392.606164 415.998495 
L 398.585273 416.444295 
L 404.564382 415.950203 
L 410.543492 416.499259 
L 416.522601 415.892427 
L 422.50171 416.558374 
L 428.48082 415.827968 
L 434.459929 416.629442 
L 440.439038 415.751032 
L 446.418147 416.722028 
L 452.397257 415.645882 
L 458.376366 416.834617 
L 464.355475 415.522581 
L 470.334584 416.967594 
L 476.313694 415.379506 
L 482.292803 417.121829 
L 488.271912 415.207417 
L 494.251022 417.314672 
L 500.230131 414.997043 
L 506.20924 417.544488 
L 512.188349 414.743672 
L 518.167459 417.823297 
L 524.146568 414.440015 
L 530.125677 418.159821 
L 536.104787 414.064302 
L 542.083896 418.57328 
L 548.063005 413.610797 
L 554.042114 419.072612 
L 560.021224 413.061002 
L 566.000333 419.674989 
L 571.979442 412.397278 
L 577.958551 420.403515 
L 583.937661 411.597721 
L 589.91677 421.28471 
L 595.895879 410.63127 
L 601.874989 422.34757 
L 607.854098 409.459902 
L 613.833207 423.637851 
L 619.812316 408.039818 
L 625.791426 425.19624 
L 631.770535 406.330435 
L 637.749644 427.076534 
L 643.728753 404.260083 
L 649.707863 429.355492 
L 655.686972 401.749986 
L 661.666081 432.120922 
L 667.645191 398.70794 
L 673.6243 435.463025 
L 679.603409 395.032179 
" clip-path="url(#p2ded977c91)" style="fill: none; stroke: #17becf; stroke-width: 1.5; stroke-linecap: square"/>
   </g>
   <g id="patch_9">
    <path d="M 58.075 534.04 
L 58.075 294.93 
" style="fill: none; stroke: #000000; stroke-width: 0.8; stroke-linejoin: miter; stroke-linecap: square"/>
   </g>
   <g id="patch_10">
    <path d="M 709.2 534.04 
L 709.2 294.93 
" style="fill: none; stroke: #000000; stroke-width: 0.8; stroke-linejoin: miter; stroke-linecap: square"/>
   </g>
   <g id="patch_11">
    <path d="M 58.075 534.04 
L 709.2 534.04 
" style="fill: none; stroke: #000000; stroke-width: 0.8; stroke-linejoin: miter; stroke-linecap: square"/>
   </g>
   <g id="patch_12">
    <path d="M 58.075 294.93 
L 709.2 294.93 
" style="fill: none; stroke: #000000; stroke-width: 0.8; stroke-linejoin: miter; stroke-linecap: square"/>
   </g>
   <g id="text_21">
    <!-- 20 Realizations of AR(1) Process with ϕ=-1.1 -->
    <g transform="translate(249.780312 288.93) scale(0.12 -0.12)">
     <use xlink:href="#DejaVuSans-32"/>
     <use xlink:href="#DejaVuSans-30" x="63.623047"/>
     <use xlink:href="#DejaVuSans-20" x="127.246094"/>
     <use xlink:href="#DejaVuSans-52" x="159.033203"/>
     <use xlink:href="#DejaVuSans-65" x="224.015625"/>
     <use xlink:href="#DejaVuSans-61" x="285.539062"/>
     <use xlink:href="#DejaVuSans-6c" x="346.818359"/>
     <use xlink:href="#DejaVuSans-69" x="374.601562"/>
     <use xlink:href="#DejaVuSans-7a" x="402.384766"/>
     <use xlink:href="#DejaVuSans-61" x="454.875"/>
     <use xlink:href="#DejaVuSans-74" x="516.154297"/>
     <use xlink:href="#DejaVuSans-69" x="555.363281"/>
     <use xlink:href="#DejaVuSans-6f" x="583.146484"/>
     <use xlink:href="#DejaVuSans-6e" x="644.328125"/>
     <use xlink:href="#DejaVuSans-73" x="707.707031"/>
     <use xlink:href="#DejaVuSans-20" x="759.806641"/>
     <use xlink:href="#DejaVuSans-6f" x="791.59375"/>
     <use xlink:href="#DejaVuSans-66" x="852.775391"/>
     <use xlink:href="#DejaVuSans-20" x="887.980469"/>
     <use xlink:href="#DejaVuSans-41" x="919.767578"/>
     <use xlink:href="#DejaVuSans-52" x="988.175781"/>
     <use xlink:href="#DejaVuSans-28" x="1057.658203"/>
     <use xlink:href="#DejaVuSans-31" x="1096.671875"/>
     <use xlink:href="#DejaVuSans-29" x="1160.294922"/>
     <use xlink:href="#DejaVuSans-20" x="1199.308594"/>
     <use xlink:href="#DejaVuSans-50" x="1231.095703"/>
     <use xlink:href="#DejaVuSans-72" x="1289.648438"/>
     <use xlink:href="#DejaVuSans-6f" x="1328.511719"/>
     <use xlink:href="#DejaVuSans-63" x="1389.693359"/>
     <use xlink:href="#DejaVuSans-65" x="1444.673828"/>
     <use xlink:href="#DejaVuSans-73" x="1506.197266"/>
     <use xlink:href="#DejaVuSans-73" x="1558.296875"/>
     <use xlink:href="#DejaVuSans-20" x="1610.396484"/>
     <use xlink:href="#DejaVuSans-77" x="1642.183594"/>
     <use xlink:href="#DejaVuSans-69" x="1723.970703"/>
     <use xlink:href="#DejaVuSans-74" x="1751.753906"/>
     <use xlink:href="#DejaVuSans-68" x="1790.962891"/>
     <use xlink:href="#DejaVuSans-20" x="1854.341797"/>
     <use xlink:href="#DejaVuSans-3d5" x="1886.128906"/>
     <use xlink:href="#DejaVuSans-3d" x="1952.095703"/>
     <use xlink:href="#DejaVuSans-2d" x="2035.884766"/>
     <use xlink:href="#DejaVuSans-31" x="2071.96875"/>
     <use xlink:href="#DejaVuSans-2e" x="2135.591797"/>
     <use xlink:href="#DejaVuSans-31" x="2167.378906"/>
    </g>
   </g>
  </g>
 </g>
 <defs>
  <clipPath id="pde0f9b3694">
   <rect x="58.075" y="26.16" width="651.125" height="239.11"/>
  </clipPath>
  <clipPath id="p2ded977c91">
   <rect x="58.075" y="294.93" width="651.125" height="239.11"/>
  </clipPath>
 </defs>
</svg>
