<?xml version="1.0" encoding="utf-8" standalone="no"?>
<!DOCTYPE svg PUBLIC "-//W3C//DTD SVG 1.1//EN"
  "http://www.w3.org/Graphics/SVG/1.1/DTD/svg11.dtd">
<svg xmlns:xlink="http://www.w3.org/1999/xlink" width="720pt" height="576pt" viewBox="0 0 720 576" xmlns="http://www.w3.org/2000/svg" version="1.1">
 <metadata>
  <rdf:RDF xmlns:dc="http://purl.org/dc/elements/1.1/" xmlns:cc="http://creativecommons.org/ns#" xmlns:rdf="http://www.w3.org/1999/02/22-rdf-syntax-ns#">
   <cc:Work>
    <dc:type rdf:resource="http://purl.org/dc/dcmitype/StillImage"/>
    <dc:date>2024-02-20T02:10:01.560943</dc:date>
    <dc:format>image/svg+xml</dc:format>
    <dc:creator>
     <cc:Agent>
      <dc:title>Matplotlib v3.8.2, https://matplotlib.org/</dc:title>
     </cc:Agent>
    </dc:creator>
   </cc:Work>
  </rdf:RDF>
 </metadata>
 <defs>
  <style type="text/css">*{stroke-linejoin: round; stroke-linecap: butt}</style>
 </defs>
 <g id="figure_1">
  <g id="patch_1">
   <path d="M 0 576 
L 720 576 
L 720 0 
L 0 0 
z
" style="fill: #ffffff"/>
  </g>
  <g id="axes_1">
   <g id="patch_2">
    <path d="M 36.925 265.27 
L 709.2 265.27 
L 709.2 26.16 
L 36.925 26.16 
z
" style="fill: #ffffff"/>
   </g>
   <g id="matplotlib.axis_1">
    <g id="xtick_1">
     <g id="line2d_1">
      <defs>
       <path id="ma279b930be" d="M 0 0 
L 0 3.5 
" style="stroke: #000000; stroke-width: 0.8"/>
      </defs>
      <g>
       <use xlink:href="#ma279b930be" x="67.482955" y="265.27" style="stroke: #000000; stroke-width: 0.8"/>
      </g>
     </g>
    </g>
    <g id="xtick_2">
     <g id="line2d_2">
      <g>
       <use xlink:href="#ma279b930be" x="190.949438" y="265.27" style="stroke: #000000; stroke-width: 0.8"/>
      </g>
     </g>
    </g>
    <g id="xtick_3">
     <g id="line2d_3">
      <g>
       <use xlink:href="#ma279b930be" x="314.415921" y="265.27" style="stroke: #000000; stroke-width: 0.8"/>
      </g>
     </g>
    </g>
    <g id="xtick_4">
     <g id="line2d_4">
      <g>
       <use xlink:href="#ma279b930be" x="437.882404" y="265.27" style="stroke: #000000; stroke-width: 0.8"/>
      </g>
     </g>
    </g>
    <g id="xtick_5">
     <g id="line2d_5">
      <g>
       <use xlink:href="#ma279b930be" x="561.348887" y="265.27" style="stroke: #000000; stroke-width: 0.8"/>
      </g>
     </g>
    </g>
    <g id="xtick_6">
     <g id="line2d_6">
      <g>
       <use xlink:href="#ma279b930be" x="684.81537" y="265.27" style="stroke: #000000; stroke-width: 0.8"/>
      </g>
     </g>
    </g>
   </g>
   <g id="matplotlib.axis_2">
    <g id="ytick_1">
     <g id="line2d_7">
      <defs>
       <path id="m25551c5048" d="M 0 0 
L -3.5 0 
" style="stroke: #000000; stroke-width: 0.8"/>
      </defs>
      <g>
       <use xlink:href="#m25551c5048" x="36.925" y="254.630211" style="stroke: #000000; stroke-width: 0.8"/>
      </g>
     </g>
     <g id="text_1">
      <!-- 0 -->
      <g transform="translate(23.5625 258.42943) scale(0.1 -0.1)">
       <defs>
        <path id="DejaVuSans-30" d="M 2034 4250 
Q 1547 4250 1301 3770 
Q 1056 3291 1056 2328 
Q 1056 1369 1301 889 
Q 1547 409 2034 409 
Q 2525 409 2770 889 
Q 3016 1369 3016 2328 
Q 3016 3291 2770 3770 
Q 2525 4250 2034 4250 
z
M 2034 4750 
Q 2819 4750 3233 4129 
Q 3647 3509 3647 2328 
Q 3647 1150 3233 529 
Q 2819 -91 2034 -91 
Q 1250 -91 836 529 
Q 422 1150 422 2328 
Q 422 3509 836 4129 
Q 1250 4750 2034 4750 
z
" transform="scale(0.015625)"/>
       </defs>
       <use xlink:href="#DejaVuSans-30"/>
      </g>
     </g>
    </g>
    <g id="ytick_2">
     <g id="line2d_8">
      <g>
       <use xlink:href="#m25551c5048" x="36.925" y="217.416792" style="stroke: #000000; stroke-width: 0.8"/>
      </g>
     </g>
     <g id="text_2">
      <!-- 20 -->
      <g transform="translate(17.2 221.216011) scale(0.1 -0.1)">
       <defs>
        <path id="DejaVuSans-32" d="M 1228 531 
L 3431 531 
L 3431 0 
L 469 0 
L 469 531 
Q 828 903 1448 1529 
Q 2069 2156 2228 2338 
Q 2531 2678 2651 2914 
Q 2772 3150 2772 3378 
Q 2772 3750 2511 3984 
Q 2250 4219 1831 4219 
Q 1534 4219 1204 4116 
Q 875 4013 500 3803 
L 500 4441 
Q 881 4594 1212 4672 
Q 1544 4750 1819 4750 
Q 2544 4750 2975 4387 
Q 3406 4025 3406 3419 
Q 3406 3131 3298 2873 
Q 3191 2616 2906 2266 
Q 2828 2175 2409 1742 
Q 1991 1309 1228 531 
z
" transform="scale(0.015625)"/>
       </defs>
       <use xlink:href="#DejaVuSans-32"/>
       <use xlink:href="#DejaVuSans-30" x="63.623047"/>
      </g>
     </g>
    </g>
    <g id="ytick_3">
     <g id="line2d_9">
      <g>
       <use xlink:href="#m25551c5048" x="36.925" y="180.203373" style="stroke: #000000; stroke-width: 0.8"/>
      </g>
     </g>
     <g id="text_3">
      <!-- 40 -->
      <g transform="translate(17.2 184.002591) scale(0.1 -0.1)">
       <defs>
        <path id="DejaVuSans-34" d="M 2419 4116 
L 825 1625 
L 2419 1625 
L 2419 4116 
z
M 2253 4666 
L 3047 4666 
L 3047 1625 
L 3713 1625 
L 3713 1100 
L 3047 1100 
L 3047 0 
L 2419 0 
L 2419 1100 
L 313 1100 
L 313 1709 
L 2253 4666 
z
" transform="scale(0.015625)"/>
       </defs>
       <use xlink:href="#DejaVuSans-34"/>
       <use xlink:href="#DejaVuSans-30" x="63.623047"/>
      </g>
     </g>
    </g>
    <g id="ytick_4">
     <g id="line2d_10">
      <g>
       <use xlink:href="#m25551c5048" x="36.925" y="142.989954" style="stroke: #000000; stroke-width: 0.8"/>
      </g>
     </g>
     <g id="text_4">
      <!-- 60 -->
      <g transform="translate(17.2 146.789172) scale(0.1 -0.1)">
       <defs>
        <path id="DejaVuSans-36" d="M 2113 2584 
Q 1688 2584 1439 2293 
Q 1191 2003 1191 1497 
Q 1191 994 1439 701 
Q 1688 409 2113 409 
Q 2538 409 2786 701 
Q 3034 994 3034 1497 
Q 3034 2003 2786 2293 
Q 2538 2584 2113 2584 
z
M 3366 4563 
L 3366 3988 
Q 3128 4100 2886 4159 
Q 2644 4219 2406 4219 
Q 1781 4219 1451 3797 
Q 1122 3375 1075 2522 
Q 1259 2794 1537 2939 
Q 1816 3084 2150 3084 
Q 2853 3084 3261 2657 
Q 3669 2231 3669 1497 
Q 3669 778 3244 343 
Q 2819 -91 2113 -91 
Q 1303 -91 875 529 
Q 447 1150 447 2328 
Q 447 3434 972 4092 
Q 1497 4750 2381 4750 
Q 2619 4750 2861 4703 
Q 3103 4656 3366 4563 
z
" transform="scale(0.015625)"/>
       </defs>
       <use xlink:href="#DejaVuSans-36"/>
       <use xlink:href="#DejaVuSans-30" x="63.623047"/>
      </g>
     </g>
    </g>
    <g id="ytick_5">
     <g id="line2d_11">
      <g>
       <use xlink:href="#m25551c5048" x="36.925" y="105.776535" style="stroke: #000000; stroke-width: 0.8"/>
      </g>
     </g>
     <g id="text_5">
      <!-- 80 -->
      <g transform="translate(17.2 109.575753) scale(0.1 -0.1)">
       <defs>
        <path id="DejaVuSans-38" d="M 2034 2216 
Q 1584 2216 1326 1975 
Q 1069 1734 1069 1313 
Q 1069 891 1326 650 
Q 1584 409 2034 409 
Q 2484 409 2743 651 
Q 3003 894 3003 1313 
Q 3003 1734 2745 1975 
Q 2488 2216 2034 2216 
z
M 1403 2484 
Q 997 2584 770 2862 
Q 544 3141 544 3541 
Q 544 4100 942 4425 
Q 1341 4750 2034 4750 
Q 2731 4750 3128 4425 
Q 3525 4100 3525 3541 
Q 3525 3141 3298 2862 
Q 3072 2584 2669 2484 
Q 3125 2378 3379 2068 
Q 3634 1759 3634 1313 
Q 3634 634 3220 271 
Q 2806 -91 2034 -91 
Q 1263 -91 848 271 
Q 434 634 434 1313 
Q 434 1759 690 2068 
Q 947 2378 1403 2484 
z
M 1172 3481 
Q 1172 3119 1398 2916 
Q 1625 2713 2034 2713 
Q 2441 2713 2670 2916 
Q 2900 3119 2900 3481 
Q 2900 3844 2670 4047 
Q 2441 4250 2034 4250 
Q 1625 4250 1398 4047 
Q 1172 3844 1172 3481 
z
" transform="scale(0.015625)"/>
       </defs>
       <use xlink:href="#DejaVuSans-38"/>
       <use xlink:href="#DejaVuSans-30" x="63.623047"/>
      </g>
     </g>
    </g>
    <g id="ytick_6">
     <g id="line2d_12">
      <g>
       <use xlink:href="#m25551c5048" x="36.925" y="68.563116" style="stroke: #000000; stroke-width: 0.8"/>
      </g>
     </g>
     <g id="text_6">
      <!-- 100 -->
      <g transform="translate(10.8375 72.362334) scale(0.1 -0.1)">
       <defs>
        <path id="DejaVuSans-31" d="M 794 531 
L 1825 531 
L 1825 4091 
L 703 3866 
L 703 4441 
L 1819 4666 
L 2450 4666 
L 2450 531 
L 3481 531 
L 3481 0 
L 794 0 
L 794 531 
z
" transform="scale(0.015625)"/>
       </defs>
       <use xlink:href="#DejaVuSans-31"/>
       <use xlink:href="#DejaVuSans-30" x="63.623047"/>
       <use xlink:href="#DejaVuSans-30" x="127.246094"/>
      </g>
     </g>
    </g>
    <g id="ytick_7">
     <g id="line2d_13">
      <g>
       <use xlink:href="#m25551c5048" x="36.925" y="31.349696" style="stroke: #000000; stroke-width: 0.8"/>
      </g>
     </g>
     <g id="text_7">
      <!-- 120 -->
      <g transform="translate(10.8375 35.148915) scale(0.1 -0.1)">
       <use xlink:href="#DejaVuSans-31"/>
       <use xlink:href="#DejaVuSans-32" x="63.623047"/>
       <use xlink:href="#DejaVuSans-30" x="127.246094"/>
      </g>
     </g>
    </g>
   </g>
   <g id="line2d_14">
    <path d="M 67.482955 254.401364 
L 73.656279 250.903336 
L 79.829603 246.841461 
L 86.002927 243.698752 
L 92.176251 242.569619 
L 98.349575 239.64697 
L 104.522899 238.192533 
L 110.696224 234.280113 
L 116.869548 233.798664 
L 123.042872 234.076951 
L 129.216196 232.043813 
L 135.38952 230.500225 
L 141.562844 229.977495 
L 147.736169 227.696478 
L 153.909493 225.082875 
L 160.082817 226.255492 
L 166.256141 226.231855 
L 172.429465 225.478861 
L 178.602789 222.467946 
L 184.776113 219.977282 
L 190.949438 216.797988 
L 197.122762 213.677205 
L 203.296086 208.519992 
L 209.46941 209.205581 
L 215.642734 208.706797 
L 221.816058 206.224204 
L 227.989382 205.106698 
L 234.162707 201.61089 
L 240.336031 198.371029 
L 246.509355 196.754628 
L 252.682679 193.042844 
L 258.856003 193.796016 
L 265.029327 191.45858 
L 271.202652 191.622461 
L 277.375976 191.235963 
L 283.5493 191.572313 
L 289.722624 188.696108 
L 295.895948 188.123369 
L 302.069272 184.726762 
L 308.242596 180.729108 
L 314.415921 176.574683 
L 320.589245 172.745831 
L 326.762569 169.576802 
L 332.935893 167.679764 
L 339.109217 163.648548 
L 345.282541 160.245533 
L 351.455865 158.109061 
L 357.62919 154.943075 
L 363.802514 152.883788 
L 369.975838 146.82731 
L 376.149162 148.58382 
L 382.322486 146.565344 
L 388.49581 144.165759 
L 394.669135 141.213973 
L 400.842459 135.539184 
L 407.015783 132.99377 
L 413.189107 133.392735 
L 419.362431 131.859869 
L 425.535755 127.919888 
L 431.709079 123.645858 
L 437.882404 120.780084 
L 444.055728 119.101316 
L 450.229052 117.070957 
L 456.402376 115.503738 
L 462.5757 114.636654 
L 468.749024 113.409855 
L 474.922348 108.629725 
L 481.095673 108.939386 
L 487.268997 107.979846 
L 493.442321 105.797875 
L 499.615645 104.810817 
L 505.788969 103.163618 
L 511.962293 103.302675 
L 518.135618 97.984467 
L 524.308942 97.206041 
L 530.482266 96.877333 
L 536.65559 94.13087 
L 542.828914 93.46682 
L 549.002238 91.539252 
L 555.175562 87.043084 
L 561.348887 79.952033 
L 567.522211 74.655814 
L 573.695535 73.461487 
L 579.868859 69.306523 
L 586.042183 67.769059 
L 592.215507 68.711052 
L 598.388831 64.16891 
L 604.562156 61.095088 
L 610.73548 58.376814 
L 616.908804 58.187486 
L 623.082128 54.831896 
L 629.255452 52.433975 
L 635.428776 48.057568 
L 641.602101 45.597558 
L 647.775425 43.443855 
L 653.948749 43.90285 
L 660.122073 40.67757 
L 666.295397 40.270871 
L 672.468721 39.397635 
L 678.642045 37.028636 
" clip-path="url(#p74e0e0b793)" style="fill: none; stroke: #1f77b4; stroke-width: 1.5; stroke-linecap: square"/>
   </g>
   <g id="patch_3">
    <path d="M 36.925 265.27 
L 36.925 26.16 
" style="fill: none; stroke: #000000; stroke-width: 0.8; stroke-linejoin: miter; stroke-linecap: square"/>
   </g>
   <g id="patch_4">
    <path d="M 709.2 265.27 
L 709.2 26.16 
" style="fill: none; stroke: #000000; stroke-width: 0.8; stroke-linejoin: miter; stroke-linecap: square"/>
   </g>
   <g id="patch_5">
    <path d="M 36.925 265.27 
L 709.2 265.27 
" style="fill: none; stroke: #000000; stroke-width: 0.8; stroke-linejoin: miter; stroke-linecap: square"/>
   </g>
   <g id="patch_6">
    <path d="M 36.925 26.16 
L 709.2 26.16 
" style="fill: none; stroke: #000000; stroke-width: 0.8; stroke-linejoin: miter; stroke-linecap: square"/>
   </g>
   <g id="text_8">
    <!-- One Realization of AR(1) Process with ϕ=1 -->
    <g transform="translate(245.6375 20.16) scale(0.12 -0.12)">
     <defs>
      <path id="DejaVuSans-4f" d="M 2522 4238 
Q 1834 4238 1429 3725 
Q 1025 3213 1025 2328 
Q 1025 1447 1429 934 
Q 1834 422 2522 422 
Q 3209 422 3611 934 
Q 4013 1447 4013 2328 
Q 4013 3213 3611 3725 
Q 3209 4238 2522 4238 
z
M 2522 4750 
Q 3503 4750 4090 4092 
Q 4678 3434 4678 2328 
Q 4678 1225 4090 567 
Q 3503 -91 2522 -91 
Q 1538 -91 948 565 
Q 359 1222 359 2328 
Q 359 3434 948 4092 
Q 1538 4750 2522 4750 
z
" transform="scale(0.015625)"/>
      <path id="DejaVuSans-6e" d="M 3513 2113 
L 3513 0 
L 2938 0 
L 2938 2094 
Q 2938 2591 2744 2837 
Q 2550 3084 2163 3084 
Q 1697 3084 1428 2787 
Q 1159 2491 1159 1978 
L 1159 0 
L 581 0 
L 581 3500 
L 1159 3500 
L 1159 2956 
Q 1366 3272 1645 3428 
Q 1925 3584 2291 3584 
Q 2894 3584 3203 3211 
Q 3513 2838 3513 2113 
z
" transform="scale(0.015625)"/>
      <path id="DejaVuSans-65" d="M 3597 1894 
L 3597 1613 
L 953 1613 
Q 991 1019 1311 708 
Q 1631 397 2203 397 
Q 2534 397 2845 478 
Q 3156 559 3463 722 
L 3463 178 
Q 3153 47 2828 -22 
Q 2503 -91 2169 -91 
Q 1331 -91 842 396 
Q 353 884 353 1716 
Q 353 2575 817 3079 
Q 1281 3584 2069 3584 
Q 2775 3584 3186 3129 
Q 3597 2675 3597 1894 
z
M 3022 2063 
Q 3016 2534 2758 2815 
Q 2500 3097 2075 3097 
Q 1594 3097 1305 2825 
Q 1016 2553 972 2059 
L 3022 2063 
z
" transform="scale(0.015625)"/>
      <path id="DejaVuSans-20" transform="scale(0.015625)"/>
      <path id="DejaVuSans-52" d="M 2841 2188 
Q 3044 2119 3236 1894 
Q 3428 1669 3622 1275 
L 4263 0 
L 3584 0 
L 2988 1197 
Q 2756 1666 2539 1819 
Q 2322 1972 1947 1972 
L 1259 1972 
L 1259 0 
L 628 0 
L 628 4666 
L 2053 4666 
Q 2853 4666 3247 4331 
Q 3641 3997 3641 3322 
Q 3641 2881 3436 2590 
Q 3231 2300 2841 2188 
z
M 1259 4147 
L 1259 2491 
L 2053 2491 
Q 2509 2491 2742 2702 
Q 2975 2913 2975 3322 
Q 2975 3731 2742 3939 
Q 2509 4147 2053 4147 
L 1259 4147 
z
" transform="scale(0.015625)"/>
      <path id="DejaVuSans-61" d="M 2194 1759 
Q 1497 1759 1228 1600 
Q 959 1441 959 1056 
Q 959 750 1161 570 
Q 1363 391 1709 391 
Q 2188 391 2477 730 
Q 2766 1069 2766 1631 
L 2766 1759 
L 2194 1759 
z
M 3341 1997 
L 3341 0 
L 2766 0 
L 2766 531 
Q 2569 213 2275 61 
Q 1981 -91 1556 -91 
Q 1019 -91 701 211 
Q 384 513 384 1019 
Q 384 1609 779 1909 
Q 1175 2209 1959 2209 
L 2766 2209 
L 2766 2266 
Q 2766 2663 2505 2880 
Q 2244 3097 1772 3097 
Q 1472 3097 1187 3025 
Q 903 2953 641 2809 
L 641 3341 
Q 956 3463 1253 3523 
Q 1550 3584 1831 3584 
Q 2591 3584 2966 3190 
Q 3341 2797 3341 1997 
z
" transform="scale(0.015625)"/>
      <path id="DejaVuSans-6c" d="M 603 4863 
L 1178 4863 
L 1178 0 
L 603 0 
L 603 4863 
z
" transform="scale(0.015625)"/>
      <path id="DejaVuSans-69" d="M 603 3500 
L 1178 3500 
L 1178 0 
L 603 0 
L 603 3500 
z
M 603 4863 
L 1178 4863 
L 1178 4134 
L 603 4134 
L 603 4863 
z
" transform="scale(0.015625)"/>
      <path id="DejaVuSans-7a" d="M 353 3500 
L 3084 3500 
L 3084 2975 
L 922 459 
L 3084 459 
L 3084 0 
L 275 0 
L 275 525 
L 2438 3041 
L 353 3041 
L 353 3500 
z
" transform="scale(0.015625)"/>
      <path id="DejaVuSans-74" d="M 1172 4494 
L 1172 3500 
L 2356 3500 
L 2356 3053 
L 1172 3053 
L 1172 1153 
Q 1172 725 1289 603 
Q 1406 481 1766 481 
L 2356 481 
L 2356 0 
L 1766 0 
Q 1100 0 847 248 
Q 594 497 594 1153 
L 594 3053 
L 172 3053 
L 172 3500 
L 594 3500 
L 594 4494 
L 1172 4494 
z
" transform="scale(0.015625)"/>
      <path id="DejaVuSans-6f" d="M 1959 3097 
Q 1497 3097 1228 2736 
Q 959 2375 959 1747 
Q 959 1119 1226 758 
Q 1494 397 1959 397 
Q 2419 397 2687 759 
Q 2956 1122 2956 1747 
Q 2956 2369 2687 2733 
Q 2419 3097 1959 3097 
z
M 1959 3584 
Q 2709 3584 3137 3096 
Q 3566 2609 3566 1747 
Q 3566 888 3137 398 
Q 2709 -91 1959 -91 
Q 1206 -91 779 398 
Q 353 888 353 1747 
Q 353 2609 779 3096 
Q 1206 3584 1959 3584 
z
" transform="scale(0.015625)"/>
      <path id="DejaVuSans-66" d="M 2375 4863 
L 2375 4384 
L 1825 4384 
Q 1516 4384 1395 4259 
Q 1275 4134 1275 3809 
L 1275 3500 
L 2222 3500 
L 2222 3053 
L 1275 3053 
L 1275 0 
L 697 0 
L 697 3053 
L 147 3053 
L 147 3500 
L 697 3500 
L 697 3744 
Q 697 4328 969 4595 
Q 1241 4863 1831 4863 
L 2375 4863 
z
" transform="scale(0.015625)"/>
      <path id="DejaVuSans-41" d="M 2188 4044 
L 1331 1722 
L 3047 1722 
L 2188 4044 
z
M 1831 4666 
L 2547 4666 
L 4325 0 
L 3669 0 
L 3244 1197 
L 1141 1197 
L 716 0 
L 50 0 
L 1831 4666 
z
" transform="scale(0.015625)"/>
      <path id="DejaVuSans-28" d="M 1984 4856 
Q 1566 4138 1362 3434 
Q 1159 2731 1159 2009 
Q 1159 1288 1364 580 
Q 1569 -128 1984 -844 
L 1484 -844 
Q 1016 -109 783 600 
Q 550 1309 550 2009 
Q 550 2706 781 3412 
Q 1013 4119 1484 4856 
L 1984 4856 
z
" transform="scale(0.015625)"/>
      <path id="DejaVuSans-29" d="M 513 4856 
L 1013 4856 
Q 1481 4119 1714 3412 
Q 1947 2706 1947 2009 
Q 1947 1309 1714 600 
Q 1481 -109 1013 -844 
L 513 -844 
Q 928 -128 1133 580 
Q 1338 1288 1338 2009 
Q 1338 2731 1133 3434 
Q 928 4138 513 4856 
z
" transform="scale(0.015625)"/>
      <path id="DejaVuSans-50" d="M 1259 4147 
L 1259 2394 
L 2053 2394 
Q 2494 2394 2734 2622 
Q 2975 2850 2975 3272 
Q 2975 3691 2734 3919 
Q 2494 4147 2053 4147 
L 1259 4147 
z
M 628 4666 
L 2053 4666 
Q 2838 4666 3239 4311 
Q 3641 3956 3641 3272 
Q 3641 2581 3239 2228 
Q 2838 1875 2053 1875 
L 1259 1875 
L 1259 0 
L 628 0 
L 628 4666 
z
" transform="scale(0.015625)"/>
      <path id="DejaVuSans-72" d="M 2631 2963 
Q 2534 3019 2420 3045 
Q 2306 3072 2169 3072 
Q 1681 3072 1420 2755 
Q 1159 2438 1159 1844 
L 1159 0 
L 581 0 
L 581 3500 
L 1159 3500 
L 1159 2956 
Q 1341 3275 1631 3429 
Q 1922 3584 2338 3584 
Q 2397 3584 2469 3576 
Q 2541 3569 2628 3553 
L 2631 2963 
z
" transform="scale(0.015625)"/>
      <path id="DejaVuSans-63" d="M 3122 3366 
L 3122 2828 
Q 2878 2963 2633 3030 
Q 2388 3097 2138 3097 
Q 1578 3097 1268 2742 
Q 959 2388 959 1747 
Q 959 1106 1268 751 
Q 1578 397 2138 397 
Q 2388 397 2633 464 
Q 2878 531 3122 666 
L 3122 134 
Q 2881 22 2623 -34 
Q 2366 -91 2075 -91 
Q 1284 -91 818 406 
Q 353 903 353 1747 
Q 353 2603 823 3093 
Q 1294 3584 2113 3584 
Q 2378 3584 2631 3529 
Q 2884 3475 3122 3366 
z
" transform="scale(0.015625)"/>
      <path id="DejaVuSans-73" d="M 2834 3397 
L 2834 2853 
Q 2591 2978 2328 3040 
Q 2066 3103 1784 3103 
Q 1356 3103 1142 2972 
Q 928 2841 928 2578 
Q 928 2378 1081 2264 
Q 1234 2150 1697 2047 
L 1894 2003 
Q 2506 1872 2764 1633 
Q 3022 1394 3022 966 
Q 3022 478 2636 193 
Q 2250 -91 1575 -91 
Q 1294 -91 989 -36 
Q 684 19 347 128 
L 347 722 
Q 666 556 975 473 
Q 1284 391 1588 391 
Q 1994 391 2212 530 
Q 2431 669 2431 922 
Q 2431 1156 2273 1281 
Q 2116 1406 1581 1522 
L 1381 1569 
Q 847 1681 609 1914 
Q 372 2147 372 2553 
Q 372 3047 722 3315 
Q 1072 3584 1716 3584 
Q 2034 3584 2315 3537 
Q 2597 3491 2834 3397 
z
" transform="scale(0.015625)"/>
      <path id="DejaVuSans-77" d="M 269 3500 
L 844 3500 
L 1563 769 
L 2278 3500 
L 2956 3500 
L 3675 769 
L 4391 3500 
L 4966 3500 
L 4050 0 
L 3372 0 
L 2619 2869 
L 1863 0 
L 1184 0 
L 269 3500 
z
" transform="scale(0.015625)"/>
      <path id="DejaVuSans-68" d="M 3513 2113 
L 3513 0 
L 2938 0 
L 2938 2094 
Q 2938 2591 2744 2837 
Q 2550 3084 2163 3084 
Q 1697 3084 1428 2787 
Q 1159 2491 1159 1978 
L 1159 0 
L 581 0 
L 581 4863 
L 1159 4863 
L 1159 2956 
Q 1366 3272 1645 3428 
Q 1925 3584 2291 3584 
Q 2894 3584 3203 3211 
Q 3513 2838 3513 2113 
z
" transform="scale(0.015625)"/>
      <path id="DejaVuSans-3d5" d="M 2388 4863 
L 2388 3572 
Q 3009 3572 3425 3094 
Q 3853 2606 3853 1747 
Q 3853 888 3425 400 
Q 3009 -78 2388 -78 
L 2388 -1331 
L 1816 -1331 
L 1816 -78 
Q 1194 -78 775 400 
Q 350 888 350 1747 
Q 350 2606 775 3094 
Q 1194 3572 1816 3572 
L 1816 4863 
L 2388 4863 
z
M 2388 434 
Q 2741 434 2981 756 
Q 3244 1116 3247 1747 
Q 3250 2372 2981 2738 
Q 2741 3059 2388 3059 
L 2388 434 
z
M 1816 434 
L 1816 3059 
Q 1463 3059 1225 2738 
Q 953 2372 956 1747 
Q 959 1116 1225 756 
Q 1463 434 1816 434 
z
" transform="scale(0.015625)"/>
      <path id="DejaVuSans-3d" d="M 678 2906 
L 4684 2906 
L 4684 2381 
L 678 2381 
L 678 2906 
z
M 678 1631 
L 4684 1631 
L 4684 1100 
L 678 1100 
L 678 1631 
z
" transform="scale(0.015625)"/>
     </defs>
     <use xlink:href="#DejaVuSans-4f"/>
     <use xlink:href="#DejaVuSans-6e" x="78.710938"/>
     <use xlink:href="#DejaVuSans-65" x="142.089844"/>
     <use xlink:href="#DejaVuSans-20" x="203.613281"/>
     <use xlink:href="#DejaVuSans-52" x="235.400391"/>
     <use xlink:href="#DejaVuSans-65" x="300.382812"/>
     <use xlink:href="#DejaVuSans-61" x="361.90625"/>
     <use xlink:href="#DejaVuSans-6c" x="423.185547"/>
     <use xlink:href="#DejaVuSans-69" x="450.96875"/>
     <use xlink:href="#DejaVuSans-7a" x="478.751953"/>
     <use xlink:href="#DejaVuSans-61" x="531.242188"/>
     <use xlink:href="#DejaVuSans-74" x="592.521484"/>
     <use xlink:href="#DejaVuSans-69" x="631.730469"/>
     <use xlink:href="#DejaVuSans-6f" x="659.513672"/>
     <use xlink:href="#DejaVuSans-6e" x="720.695312"/>
     <use xlink:href="#DejaVuSans-20" x="784.074219"/>
     <use xlink:href="#DejaVuSans-6f" x="815.861328"/>
     <use xlink:href="#DejaVuSans-66" x="877.042969"/>
     <use xlink:href="#DejaVuSans-20" x="912.248047"/>
     <use xlink:href="#DejaVuSans-41" x="944.035156"/>
     <use xlink:href="#DejaVuSans-52" x="1012.443359"/>
     <use xlink:href="#DejaVuSans-28" x="1081.925781"/>
     <use xlink:href="#DejaVuSans-31" x="1120.939453"/>
     <use xlink:href="#DejaVuSans-29" x="1184.5625"/>
     <use xlink:href="#DejaVuSans-20" x="1223.576172"/>
     <use xlink:href="#DejaVuSans-50" x="1255.363281"/>
     <use xlink:href="#DejaVuSans-72" x="1313.916016"/>
     <use xlink:href="#DejaVuSans-6f" x="1352.779297"/>
     <use xlink:href="#DejaVuSans-63" x="1413.960938"/>
     <use xlink:href="#DejaVuSans-65" x="1468.941406"/>
     <use xlink:href="#DejaVuSans-73" x="1530.464844"/>
     <use xlink:href="#DejaVuSans-73" x="1582.564453"/>
     <use xlink:href="#DejaVuSans-20" x="1634.664062"/>
     <use xlink:href="#DejaVuSans-77" x="1666.451172"/>
     <use xlink:href="#DejaVuSans-69" x="1748.238281"/>
     <use xlink:href="#DejaVuSans-74" x="1776.021484"/>
     <use xlink:href="#DejaVuSans-68" x="1815.230469"/>
     <use xlink:href="#DejaVuSans-20" x="1878.609375"/>
     <use xlink:href="#DejaVuSans-3d5" x="1910.396484"/>
     <use xlink:href="#DejaVuSans-3d" x="1976.363281"/>
     <use xlink:href="#DejaVuSans-31" x="2060.152344"/>
    </g>
   </g>
   <g id="legend_1">
    <g id="patch_7">
     <path d="M 43.925 48.838125 
L 206.821875 48.838125 
Q 208.821875 48.838125 208.821875 46.838125 
L 208.821875 33.16 
Q 208.821875 31.16 206.821875 31.16 
L 43.925 31.16 
Q 41.925 31.16 41.925 33.16 
L 41.925 46.838125 
Q 41.925 48.838125 43.925 48.838125 
z
" style="fill: #ffffff; opacity: 0.8; stroke: #cccccc; stroke-linejoin: miter"/>
    </g>
    <g id="line2d_15">
     <path d="M 45.925 39.258438 
L 55.925 39.258438 
L 65.925 39.258438 
" style="fill: none; stroke: #1f77b4; stroke-width: 1.5; stroke-linecap: square"/>
    </g>
    <g id="text_9">
     <!-- AR(1) with c=1, σ=1, ϕ=1 -->
     <g transform="translate(73.925 42.758438) scale(0.1 -0.1)">
      <defs>
       <path id="DejaVuSans-2c" d="M 750 794 
L 1409 794 
L 1409 256 
L 897 -744 
L 494 -744 
L 750 256 
L 750 794 
z
" transform="scale(0.015625)"/>
       <path id="DejaVuSans-3c3" d="M 1959 3044 
Q 1484 3044 1228 2700 
Q 959 2341 959 1747 
Q 959 1119 1226 758 
Q 1494 397 1959 397 
Q 2419 397 2687 759 
Q 2956 1122 2956 1747 
Q 2956 2319 2688 2700 
Q 2441 3044 1959 3044 
z
M 1959 3500 
L 3869 3500 
L 3869 2925 
L 3225 2925 
Q 3566 2438 3566 1747 
Q 3566 888 3138 400 
Q 2709 -91 1959 -91 
Q 1206 -91 781 400 
Q 353 888 353 1747 
Q 353 2613 781 3097 
Q 1134 3500 1959 3500 
z
" transform="scale(0.015625)"/>
      </defs>
      <use xlink:href="#DejaVuSans-41"/>
      <use xlink:href="#DejaVuSans-52" x="68.408203"/>
      <use xlink:href="#DejaVuSans-28" x="137.890625"/>
      <use xlink:href="#DejaVuSans-31" x="176.904297"/>
      <use xlink:href="#DejaVuSans-29" x="240.527344"/>
      <use xlink:href="#DejaVuSans-20" x="279.541016"/>
      <use xlink:href="#DejaVuSans-77" x="311.328125"/>
      <use xlink:href="#DejaVuSans-69" x="393.115234"/>
      <use xlink:href="#DejaVuSans-74" x="420.898438"/>
      <use xlink:href="#DejaVuSans-68" x="460.107422"/>
      <use xlink:href="#DejaVuSans-20" x="523.486328"/>
      <use xlink:href="#DejaVuSans-63" x="555.273438"/>
      <use xlink:href="#DejaVuSans-3d" x="610.253906"/>
      <use xlink:href="#DejaVuSans-31" x="694.042969"/>
      <use xlink:href="#DejaVuSans-2c" x="757.666016"/>
      <use xlink:href="#DejaVuSans-20" x="789.453125"/>
      <use xlink:href="#DejaVuSans-3c3" x="821.240234"/>
      <use xlink:href="#DejaVuSans-3d" x="884.619141"/>
      <use xlink:href="#DejaVuSans-31" x="968.408203"/>
      <use xlink:href="#DejaVuSans-2c" x="1032.03125"/>
      <use xlink:href="#DejaVuSans-20" x="1063.818359"/>
      <use xlink:href="#DejaVuSans-3d5" x="1095.605469"/>
      <use xlink:href="#DejaVuSans-3d" x="1161.572266"/>
      <use xlink:href="#DejaVuSans-31" x="1245.361328"/>
     </g>
    </g>
   </g>
  </g>
  <g id="axes_2">
   <g id="patch_8">
    <path d="M 36.925 534.04 
L 709.2 534.04 
L 709.2 294.93 
L 36.925 294.93 
z
" style="fill: #ffffff"/>
   </g>
   <g id="matplotlib.axis_3">
    <g id="xtick_7">
     <g id="line2d_16">
      <g>
       <use xlink:href="#ma279b930be" x="67.482955" y="534.04" style="stroke: #000000; stroke-width: 0.8"/>
      </g>
     </g>
     <g id="text_10">
      <!-- 0 -->
      <g transform="translate(64.301705 548.638438) scale(0.1 -0.1)">
       <use xlink:href="#DejaVuSans-30"/>
      </g>
     </g>
    </g>
    <g id="xtick_8">
     <g id="line2d_17">
      <g>
       <use xlink:href="#ma279b930be" x="190.949438" y="534.04" style="stroke: #000000; stroke-width: 0.8"/>
      </g>
     </g>
     <g id="text_11">
      <!-- 20 -->
      <g transform="translate(184.586938 548.638438) scale(0.1 -0.1)">
       <use xlink:href="#DejaVuSans-32"/>
       <use xlink:href="#DejaVuSans-30" x="63.623047"/>
      </g>
     </g>
    </g>
    <g id="xtick_9">
     <g id="line2d_18">
      <g>
       <use xlink:href="#ma279b930be" x="314.415921" y="534.04" style="stroke: #000000; stroke-width: 0.8"/>
      </g>
     </g>
     <g id="text_12">
      <!-- 40 -->
      <g transform="translate(308.053421 548.638438) scale(0.1 -0.1)">
       <use xlink:href="#DejaVuSans-34"/>
       <use xlink:href="#DejaVuSans-30" x="63.623047"/>
      </g>
     </g>
    </g>
    <g id="xtick_10">
     <g id="line2d_19">
      <g>
       <use xlink:href="#ma279b930be" x="437.882404" y="534.04" style="stroke: #000000; stroke-width: 0.8"/>
      </g>
     </g>
     <g id="text_13">
      <!-- 60 -->
      <g transform="translate(431.519904 548.638438) scale(0.1 -0.1)">
       <use xlink:href="#DejaVuSans-36"/>
       <use xlink:href="#DejaVuSans-30" x="63.623047"/>
      </g>
     </g>
    </g>
    <g id="xtick_11">
     <g id="line2d_20">
      <g>
       <use xlink:href="#ma279b930be" x="561.348887" y="534.04" style="stroke: #000000; stroke-width: 0.8"/>
      </g>
     </g>
     <g id="text_14">
      <!-- 80 -->
      <g transform="translate(554.986387 548.638438) scale(0.1 -0.1)">
       <use xlink:href="#DejaVuSans-38"/>
       <use xlink:href="#DejaVuSans-30" x="63.623047"/>
      </g>
     </g>
    </g>
    <g id="xtick_12">
     <g id="line2d_21">
      <g>
       <use xlink:href="#ma279b930be" x="684.81537" y="534.04" style="stroke: #000000; stroke-width: 0.8"/>
      </g>
     </g>
     <g id="text_15">
      <!-- 100 -->
      <g transform="translate(675.27162 548.638438) scale(0.1 -0.1)">
       <use xlink:href="#DejaVuSans-31"/>
       <use xlink:href="#DejaVuSans-30" x="63.623047"/>
       <use xlink:href="#DejaVuSans-30" x="127.246094"/>
      </g>
     </g>
    </g>
    <g id="text_16">
     <!-- t -->
     <g transform="translate(371.102344 562.316562) scale(0.1 -0.1)">
      <use xlink:href="#DejaVuSans-74"/>
     </g>
    </g>
   </g>
   <g id="matplotlib.axis_4">
    <g id="ytick_8">
     <g id="line2d_22">
      <g>
       <use xlink:href="#m25551c5048" x="36.925" y="522.262819" style="stroke: #000000; stroke-width: 0.8"/>
      </g>
     </g>
     <g id="text_17">
      <!-- 0 -->
      <g transform="translate(23.5625 526.062038) scale(0.1 -0.1)">
       <use xlink:href="#DejaVuSans-30"/>
      </g>
     </g>
    </g>
    <g id="ytick_9">
     <g id="line2d_23">
      <g>
       <use xlink:href="#m25551c5048" x="36.925" y="485.884322" style="stroke: #000000; stroke-width: 0.8"/>
      </g>
     </g>
     <g id="text_18">
      <!-- 20 -->
      <g transform="translate(17.2 489.68354) scale(0.1 -0.1)">
       <use xlink:href="#DejaVuSans-32"/>
       <use xlink:href="#DejaVuSans-30" x="63.623047"/>
      </g>
     </g>
    </g>
    <g id="ytick_10">
     <g id="line2d_24">
      <g>
       <use xlink:href="#m25551c5048" x="36.925" y="449.505824" style="stroke: #000000; stroke-width: 0.8"/>
      </g>
     </g>
     <g id="text_19">
      <!-- 40 -->
      <g transform="translate(17.2 453.305043) scale(0.1 -0.1)">
       <use xlink:href="#DejaVuSans-34"/>
       <use xlink:href="#DejaVuSans-30" x="63.623047"/>
      </g>
     </g>
    </g>
    <g id="ytick_11">
     <g id="line2d_25">
      <g>
       <use xlink:href="#m25551c5048" x="36.925" y="413.127327" style="stroke: #000000; stroke-width: 0.8"/>
      </g>
     </g>
     <g id="text_20">
      <!-- 60 -->
      <g transform="translate(17.2 416.926545) scale(0.1 -0.1)">
       <use xlink:href="#DejaVuSans-36"/>
       <use xlink:href="#DejaVuSans-30" x="63.623047"/>
      </g>
     </g>
    </g>
    <g id="ytick_12">
     <g id="line2d_26">
      <g>
       <use xlink:href="#m25551c5048" x="36.925" y="376.748829" style="stroke: #000000; stroke-width: 0.8"/>
      </g>
     </g>
     <g id="text_21">
      <!-- 80 -->
      <g transform="translate(17.2 380.548048) scale(0.1 -0.1)">
       <use xlink:href="#DejaVuSans-38"/>
       <use xlink:href="#DejaVuSans-30" x="63.623047"/>
      </g>
     </g>
    </g>
    <g id="ytick_13">
     <g id="line2d_27">
      <g>
       <use xlink:href="#m25551c5048" x="36.925" y="340.370332" style="stroke: #000000; stroke-width: 0.8"/>
      </g>
     </g>
     <g id="text_22">
      <!-- 100 -->
      <g transform="translate(10.8375 344.16955) scale(0.1 -0.1)">
       <use xlink:href="#DejaVuSans-31"/>
       <use xlink:href="#DejaVuSans-30" x="63.623047"/>
       <use xlink:href="#DejaVuSans-30" x="127.246094"/>
      </g>
     </g>
    </g>
    <g id="ytick_14">
     <g id="line2d_28">
      <g>
       <use xlink:href="#m25551c5048" x="36.925" y="303.991834" style="stroke: #000000; stroke-width: 0.8"/>
      </g>
     </g>
     <g id="text_23">
      <!-- 120 -->
      <g transform="translate(10.8375 307.791053) scale(0.1 -0.1)">
       <use xlink:href="#DejaVuSans-31"/>
       <use xlink:href="#DejaVuSans-32" x="63.623047"/>
       <use xlink:href="#DejaVuSans-30" x="127.246094"/>
      </g>
     </g>
    </g>
   </g>
   <g id="line2d_29">
    <path d="M 67.482955 519.464122 
L 73.656279 517.871388 
L 79.829603 516.656177 
L 86.002927 511.908388 
L 92.176251 510.159411 
L 98.349575 507.103053 
L 104.522899 504.070889 
L 110.696224 503.925801 
L 116.869548 501.072713 
L 123.042872 500.021606 
L 129.216196 501.906537 
L 135.38952 498.15456 
L 141.562844 496.691969 
L 147.736169 493.233362 
L 153.909493 490.524926 
L 160.082817 487.935779 
L 166.256141 484.789645 
L 172.429465 485.420157 
L 178.602789 480.155004 
L 184.776113 480.95363 
L 190.949438 479.442953 
L 197.122762 477.784366 
L 203.296086 477.859646 
L 209.46941 475.154442 
L 215.642734 475.556633 
L 221.816058 471.943293 
L 227.989382 471.702757 
L 234.162707 470.584752 
L 240.336031 469.585321 
L 246.509355 467.539259 
L 252.682679 464.541786 
L 258.856003 465.379235 
L 265.029327 464.135317 
L 271.202652 461.849631 
L 277.375976 459.133769 
L 283.5493 458.204021 
L 289.722624 459.162814 
L 295.895948 456.188987 
L 302.069272 454.83806 
L 308.242596 451.402196 
L 314.415921 447.243125 
L 320.589245 446.822443 
L 326.762569 446.318326 
L 332.935893 443.770406 
L 339.109217 440.264009 
L 345.282541 441.198183 
L 351.455865 438.541648 
L 357.62919 439.079539 
L 363.802514 438.359192 
L 369.975838 433.221712 
L 376.149162 433.528369 
L 382.322486 432.687848 
L 388.49581 429.940903 
L 394.669135 425.246893 
L 400.842459 425.315396 
L 407.015783 421.89936 
L 413.189107 421.611154 
L 419.362431 417.143087 
L 425.535755 414.929155 
L 431.709079 410.92719 
L 437.882404 408.92562 
L 444.055728 408.114694 
L 450.229052 403.449524 
L 456.402376 401.06543 
L 462.5757 400.181947 
L 468.749024 400.516365 
L 474.922348 397.822706 
L 481.095673 393.919491 
L 487.268997 395.542293 
L 493.442321 395.07432 
L 499.615645 392.964992 
L 505.788969 390.029984 
L 511.962293 386.953983 
L 518.135618 385.561239 
L 524.308942 385.015303 
L 530.482266 383.73075 
L 536.65559 381.730372 
L 542.828914 380.570854 
L 549.002238 378.250216 
L 555.175562 376.078167 
L 561.348887 373.454745 
L 567.522211 369.304209 
L 573.695535 364.755794 
L 579.868859 361.957412 
L 586.042183 361.02581 
L 592.215507 358.737349 
L 598.388831 356.368829 
L 604.562156 354.713389 
L 610.73548 350.650063 
L 616.908804 346.334525 
L 623.082128 345.231641 
L 629.255452 343.358886 
L 635.428776 343.467063 
L 641.602101 342.534283 
L 647.775425 339.490259 
L 653.948749 338.070032 
L 660.122073 337.023115 
L 666.295397 334.075874 
L 672.468721 329.265946 
L 678.642045 327.714588 
" clip-path="url(#pe2619459cf)" style="fill: none; stroke: #1f77b4; stroke-width: 1.5; stroke-linecap: square"/>
   </g>
   <g id="line2d_30">
    <path d="M 67.482955 522.320209 
L 73.656279 519.0279 
L 79.829603 515.554443 
L 86.002927 512.034488 
L 92.176251 515.040503 
L 98.349575 513.988393 
L 104.522899 510.779154 
L 110.696224 506.770168 
L 116.869548 503.121483 
L 123.042872 499.752689 
L 129.216196 496.809344 
L 135.38952 492.13596 
L 141.562844 488.461833 
L 147.736169 487.944638 
L 153.909493 484.827835 
L 160.082817 482.933853 
L 166.256141 479.238087 
L 172.429465 477.335482 
L 178.602789 477.329718 
L 184.776113 473.917536 
L 190.949438 471.269002 
L 197.122762 471.071555 
L 203.296086 466.929893 
L 209.46941 464.032361 
L 215.642734 464.432531 
L 221.816058 462.841488 
L 227.989382 462.260875 
L 234.162707 460.903473 
L 240.336031 458.797395 
L 246.509355 455.944773 
L 252.682679 454.902915 
L 258.856003 452.013131 
L 265.029327 448.888078 
L 271.202652 446.126438 
L 277.375976 444.104596 
L 283.5493 441.629477 
L 289.722624 436.695893 
L 295.895948 436.445034 
L 302.069272 435.258105 
L 308.242596 432.650717 
L 314.415921 433.201724 
L 320.589245 431.716826 
L 326.762569 429.875781 
L 332.935893 428.753092 
L 339.109217 427.544031 
L 345.282541 426.29122 
L 351.455865 423.916127 
L 357.62919 421.5478 
L 363.802514 417.827392 
L 369.975838 413.347052 
L 376.149162 408.271288 
L 382.322486 408.475618 
L 388.49581 409.120823 
L 394.669135 404.668623 
L 400.842459 399.005336 
L 407.015783 399.527014 
L 413.189107 394.985895 
L 419.362431 392.684682 
L 425.535755 391.028323 
L 431.709079 389.679348 
L 437.882404 389.042773 
L 444.055728 388.694497 
L 450.229052 384.536213 
L 456.402376 384.639971 
L 462.5757 384.543623 
L 468.749024 382.340472 
L 474.922348 379.591339 
L 481.095673 378.317134 
L 487.268997 377.820594 
L 493.442321 375.806098 
L 499.615645 373.746139 
L 505.788969 368.962582 
L 511.962293 367.000226 
L 518.135618 365.961873 
L 524.308942 365.233869 
L 530.482266 366.931809 
L 536.65559 368.350239 
L 542.828914 367.643269 
L 549.002238 361.159279 
L 555.175562 357.05078 
L 561.348887 351.016887 
L 567.522211 350.666826 
L 573.695535 346.504743 
L 579.868859 343.795211 
L 586.042183 339.133695 
L 592.215507 335.794564 
L 598.388831 334.038407 
L 604.562156 332.730298 
L 610.73548 333.136264 
L 616.908804 332.147266 
L 623.082128 329.067605 
L 629.255452 324.963093 
L 635.428776 323.888602 
L 641.602101 322.60317 
L 647.775425 319.207353 
L 653.948749 316.622477 
L 660.122073 313.247795 
L 666.295397 311.720181 
L 672.468721 310.174289 
L 678.642045 305.798636 
" clip-path="url(#pe2619459cf)" style="fill: none; stroke: #ff7f0e; stroke-width: 1.5; stroke-linecap: square"/>
   </g>
   <g id="line2d_31">
    <path d="M 67.482955 518.274596 
L 73.656279 518.753842 
L 79.829603 518.461301 
L 86.002927 515.996022 
L 92.176251 514.709356 
L 98.349575 514.376055 
L 104.522899 512.205754 
L 110.696224 508.879413 
L 116.869548 505.158334 
L 123.042872 503.204074 
L 129.216196 499.349533 
L 135.38952 500.123849 
L 141.562844 498.2423 
L 147.736169 499.300542 
L 153.909493 499.531462 
L 160.082817 496.264959 
L 166.256141 495.31932 
L 172.429465 495.421257 
L 178.602789 494.993464 
L 184.776113 491.466344 
L 190.949438 492.830623 
L 197.122762 490.905342 
L 203.296086 489.747916 
L 209.46941 487.896838 
L 215.642734 488.392827 
L 221.816058 488.944792 
L 227.989382 487.320359 
L 234.162707 488.07471 
L 240.336031 489.342754 
L 246.509355 491.696049 
L 252.682679 490.337905 
L 258.856003 493.267348 
L 265.029327 492.201246 
L 271.202652 491.270555 
L 277.375976 485.942524 
L 283.5493 485.721312 
L 289.722624 485.112464 
L 295.895948 484.876635 
L 302.069272 486.754931 
L 308.242596 483.731009 
L 314.415921 481.775344 
L 320.589245 478.319256 
L 326.762569 477.93534 
L 332.935893 475.723983 
L 339.109217 472.017441 
L 345.282541 467.475888 
L 351.455865 464.316358 
L 357.62919 463.067102 
L 363.802514 462.696874 
L 369.975838 461.734935 
L 376.149162 458.504376 
L 382.322486 458.133496 
L 388.49581 456.186485 
L 394.669135 455.959629 
L 400.842459 454.527829 
L 407.015783 454.206482 
L 413.189107 450.605043 
L 419.362431 455.407082 
L 425.535755 454.214794 
L 431.709079 457.033384 
L 437.882404 453.343852 
L 444.055728 450.079209 
L 450.229052 450.418697 
L 456.402376 447.01092 
L 462.5757 444.804554 
L 468.749024 443.12644 
L 474.922348 439.951394 
L 481.095673 440.894533 
L 487.268997 439.15496 
L 493.442321 436.735948 
L 499.615645 434.440734 
L 505.788969 433.383364 
L 511.962293 434.150508 
L 518.135618 431.076178 
L 524.308942 430.706545 
L 530.482266 430.187597 
L 536.65559 431.958906 
L 542.828914 428.814575 
L 549.002238 430.072351 
L 555.175562 429.50642 
L 561.348887 429.913759 
L 567.522211 427.611779 
L 573.695535 424.315488 
L 579.868859 427.203905 
L 586.042183 424.760713 
L 592.215507 422.211456 
L 598.388831 422.752373 
L 604.562156 422.286845 
L 610.73548 423.97508 
L 616.908804 423.139428 
L 623.082128 419.665593 
L 629.255452 418.020616 
L 635.428776 415.454115 
L 641.602101 418.542719 
L 647.775425 420.420145 
L 653.948749 416.149032 
L 660.122073 412.557254 
L 666.295397 415.309234 
L 672.468721 414.788509 
L 678.642045 408.739628 
" clip-path="url(#pe2619459cf)" style="fill: none; stroke: #2ca02c; stroke-width: 1.5; stroke-linecap: square"/>
   </g>
   <g id="line2d_32">
    <path d="M 67.482955 518.341846 
L 73.656279 518.025949 
L 79.829603 513.63344 
L 86.002927 512.447782 
L 92.176251 511.807107 
L 98.349575 509.754387 
L 104.522899 507.454578 
L 110.696224 506.145754 
L 116.869548 503.337821 
L 123.042872 502.017388 
L 129.216196 501.672312 
L 135.38952 497.506458 
L 141.562844 494.057525 
L 147.736169 493.672432 
L 153.909493 491.798871 
L 160.082817 493.730135 
L 166.256141 496.879065 
L 172.429465 493.328657 
L 178.602789 488.041227 
L 184.776113 486.246348 
L 190.949438 485.555423 
L 197.122762 483.782596 
L 203.296086 480.958762 
L 209.46941 478.571065 
L 215.642734 477.478158 
L 221.816058 475.700563 
L 227.989382 473.497521 
L 234.162707 475.645553 
L 240.336031 475.65906 
L 246.509355 476.575123 
L 252.682679 472.797874 
L 258.856003 468.918566 
L 265.029327 466.282604 
L 271.202652 464.044729 
L 277.375976 460.781249 
L 283.5493 456.326056 
L 289.722624 457.317455 
L 295.895948 456.003367 
L 302.069272 452.893105 
L 308.242596 452.11039 
L 314.415921 453.573221 
L 320.589245 447.751488 
L 326.762569 443.979532 
L 332.935893 442.601369 
L 339.109217 439.759934 
L 345.282541 436.428335 
L 351.455865 436.935678 
L 357.62919 433.57031 
L 363.802514 431.662971 
L 369.975838 430.641269 
L 376.149162 427.943654 
L 382.322486 427.910756 
L 388.49581 426.206718 
L 394.669135 422.551864 
L 400.842459 421.529731 
L 407.015783 415.787404 
L 413.189107 413.051286 
L 419.362431 411.178876 
L 425.535755 409.109373 
L 431.709079 404.582078 
L 437.882404 403.446834 
L 444.055728 402.108768 
L 450.229052 400.814158 
L 456.402376 398.552661 
L 462.5757 396.090963 
L 468.749024 394.784547 
L 474.922348 395.02709 
L 481.095673 390.543774 
L 487.268997 393.705963 
L 493.442321 392.64892 
L 499.615645 391.019878 
L 505.788969 388.513761 
L 511.962293 389.235243 
L 518.135618 386.638649 
L 524.308942 384.824961 
L 530.482266 379.991053 
L 536.65559 376.53322 
L 542.828914 375.884661 
L 549.002238 376.120378 
L 555.175562 372.229741 
L 561.348887 369.293806 
L 567.522211 368.478049 
L 573.695535 363.329168 
L 579.868859 364.406355 
L 586.042183 362.375139 
L 592.215507 359.691023 
L 598.388831 356.944469 
L 604.562156 352.83694 
L 610.73548 348.082218 
L 616.908804 346.41121 
L 623.082128 344.530182 
L 629.255452 346.384646 
L 635.428776 344.158273 
L 641.602101 342.509065 
L 647.775425 339.80282 
L 653.948749 337.144297 
L 660.122073 333.346693 
L 666.295397 333.601784 
L 672.468721 330.735556 
L 678.642045 329.362326 
" clip-path="url(#pe2619459cf)" style="fill: none; stroke: #d62728; stroke-width: 1.5; stroke-linecap: square"/>
   </g>
   <g id="line2d_33">
    <path d="M 67.482955 520.124971 
L 73.656279 521.814563 
L 79.829603 518.725262 
L 86.002927 516.410804 
L 92.176251 511.789532 
L 98.349575 506.491327 
L 104.522899 507.699799 
L 110.696224 507.250629 
L 116.869548 505.924459 
L 123.042872 504.12891 
L 129.216196 501.721613 
L 135.38952 498.083609 
L 141.562844 499.918188 
L 147.736169 500.723417 
L 153.909493 499.463665 
L 160.082817 498.704125 
L 166.256141 492.071405 
L 172.429465 490.410058 
L 178.602789 489.013247 
L 184.776113 491.624671 
L 190.949438 490.087787 
L 197.122762 488.748121 
L 203.296086 487.915286 
L 209.46941 486.508591 
L 215.642734 487.763606 
L 221.816058 483.715665 
L 227.989382 481.523008 
L 234.162707 477.796886 
L 240.336031 475.961688 
L 246.509355 474.086069 
L 252.682679 472.42017 
L 258.856003 469.991337 
L 265.029327 468.570037 
L 271.202652 469.287772 
L 277.375976 464.638516 
L 283.5493 463.491333 
L 289.722624 462.368378 
L 295.895948 457.657488 
L 302.069272 453.827111 
L 308.242596 451.281255 
L 314.415921 447.566998 
L 320.589245 444.300596 
L 326.762569 441.365851 
L 332.935893 439.892749 
L 339.109217 434.86168 
L 345.282541 432.152693 
L 351.455865 428.073932 
L 357.62919 423.610613 
L 363.802514 426.286549 
L 369.975838 423.026444 
L 376.149162 419.389073 
L 382.322486 421.719695 
L 388.49581 417.843039 
L 394.669135 417.746325 
L 400.842459 410.804358 
L 407.015783 411.588322 
L 413.189107 408.917712 
L 419.362431 409.145421 
L 425.535755 407.349156 
L 431.709079 404.242271 
L 437.882404 402.663341 
L 444.055728 398.542322 
L 450.229052 398.033619 
L 456.402376 395.957852 
L 462.5757 395.081659 
L 468.749024 395.395368 
L 474.922348 391.629239 
L 481.095673 392.073168 
L 487.268997 390.248712 
L 493.442321 390.572724 
L 499.615645 388.073977 
L 505.788969 384.417995 
L 511.962293 380.53121 
L 518.135618 379.598126 
L 524.308942 378.304652 
L 530.482266 372.813926 
L 536.65559 371.027723 
L 542.828914 368.112684 
L 549.002238 363.014846 
L 555.175562 359.225062 
L 561.348887 355.775806 
L 567.522211 356.131645 
L 573.695535 354.861614 
L 579.868859 353.592385 
L 586.042183 351.533903 
L 592.215507 349.755463 
L 598.388831 350.850027 
L 604.562156 350.626584 
L 610.73548 349.304915 
L 616.908804 350.110145 
L 623.082128 345.871717 
L 629.255452 344.92885 
L 635.428776 344.662515 
L 641.602101 341.282565 
L 647.775425 336.624298 
L 653.948749 333.070749 
L 660.122073 334.381076 
L 666.295397 332.84959 
L 672.468721 331.336582 
L 678.642045 330.62286 
" clip-path="url(#pe2619459cf)" style="fill: none; stroke: #9467bd; stroke-width: 1.5; stroke-linecap: square"/>
   </g>
   <g id="line2d_34">
    <path d="M 67.482955 520.53858 
L 73.656279 520.106212 
L 79.829603 519.100685 
L 86.002927 518.144049 
L 92.176251 517.638765 
L 98.349575 512.914688 
L 104.522899 509.855399 
L 110.696224 506.555515 
L 116.869548 504.864694 
L 123.042872 505.976283 
L 129.216196 505.242735 
L 135.38952 503.613606 
L 141.562844 502.576119 
L 147.736169 500.811033 
L 153.909493 498.030485 
L 160.082817 496.809429 
L 166.256141 493.98237 
L 172.429465 490.812964 
L 178.602789 490.485321 
L 184.776113 486.485926 
L 190.949438 481.763855 
L 197.122762 477.43109 
L 203.296086 474.245339 
L 209.46941 473.350179 
L 215.642734 471.830136 
L 221.816058 471.702659 
L 227.989382 472.72026 
L 234.162707 470.766955 
L 240.336031 468.035394 
L 246.509355 470.266214 
L 252.682679 467.836811 
L 258.856003 464.589306 
L 265.029327 463.250282 
L 271.202652 461.167838 
L 277.375976 458.402422 
L 283.5493 455.922535 
L 289.722624 455.582437 
L 295.895948 454.011027 
L 302.069272 451.888878 
L 308.242596 448.345428 
L 314.415921 445.310298 
L 320.589245 441.779877 
L 326.762569 440.674426 
L 332.935893 437.169481 
L 339.109217 434.844573 
L 345.282541 432.876069 
L 351.455865 434.043507 
L 357.62919 431.918943 
L 363.802514 431.112647 
L 369.975838 430.630578 
L 376.149162 430.388404 
L 382.322486 431.839033 
L 388.49581 430.617255 
L 394.669135 427.804349 
L 400.842459 427.119238 
L 407.015783 423.525992 
L 413.189107 420.628477 
L 419.362431 419.649045 
L 425.535755 417.641869 
L 431.709079 413.978691 
L 437.882404 411.52823 
L 444.055728 409.971779 
L 450.229052 410.947077 
L 456.402376 410.010101 
L 462.5757 409.201893 
L 468.749024 407.275575 
L 474.922348 405.333135 
L 481.095673 404.613547 
L 487.268997 403.977998 
L 493.442321 401.389829 
L 499.615645 400.126081 
L 505.788969 395.904442 
L 511.962293 391.468036 
L 518.135618 390.891084 
L 524.308942 388.875584 
L 530.482266 390.411017 
L 536.65559 390.254331 
L 542.828914 385.069621 
L 549.002238 382.271431 
L 555.175562 383.057562 
L 561.348887 380.84389 
L 567.522211 377.029405 
L 573.695535 375.509277 
L 579.868859 372.846732 
L 586.042183 371.088361 
L 592.215507 367.747219 
L 598.388831 361.476045 
L 604.562156 360.496244 
L 610.73548 360.382092 
L 616.908804 355.286285 
L 623.082128 354.895971 
L 629.255452 354.189588 
L 635.428776 353.141123 
L 641.602101 349.280713 
L 647.775425 346.555703 
L 653.948749 344.614112 
L 660.122073 340.418305 
L 666.295397 338.276306 
L 672.468721 332.991577 
L 678.642045 332.169798 
" clip-path="url(#pe2619459cf)" style="fill: none; stroke: #8c564b; stroke-width: 1.5; stroke-linecap: square"/>
   </g>
   <g id="line2d_35">
    <path d="M 67.482955 519.172579 
L 73.656279 517.05763 
L 79.829603 516.360151 
L 86.002927 515.378556 
L 92.176251 512.011084 
L 98.349575 509.548744 
L 104.522899 507.531102 
L 110.696224 508.093482 
L 116.869548 507.038535 
L 123.042872 506.025784 
L 129.216196 504.775644 
L 135.38952 500.94639 
L 141.562844 500.454039 
L 147.736169 499.235836 
L 153.909493 496.889554 
L 160.082817 494.251746 
L 166.256141 493.651225 
L 172.429465 493.657795 
L 178.602789 491.318136 
L 184.776113 490.155487 
L 190.949438 486.394885 
L 197.122762 479.436854 
L 203.296086 474.442816 
L 209.46941 472.343265 
L 215.642734 470.637494 
L 221.816058 467.151666 
L 227.989382 461.618505 
L 234.162707 459.30655 
L 240.336031 455.688648 
L 246.509355 453.668447 
L 252.682679 451.890712 
L 258.856003 445.437929 
L 265.029327 443.660058 
L 271.202652 439.484225 
L 277.375976 437.799878 
L 283.5493 438.176423 
L 289.722624 436.114761 
L 295.895948 435.445088 
L 302.069272 430.350824 
L 308.242596 428.298392 
L 314.415921 429.561024 
L 320.589245 429.590388 
L 326.762569 430.333412 
L 332.935893 431.886736 
L 339.109217 431.961485 
L 345.282541 427.932854 
L 351.455865 425.620128 
L 357.62919 420.864366 
L 363.802514 417.058679 
L 369.975838 415.799449 
L 376.149162 415.625919 
L 382.322486 411.428892 
L 388.49581 407.338932 
L 394.669135 408.717362 
L 400.842459 407.262777 
L 407.015783 408.231538 
L 413.189107 410.805566 
L 419.362431 409.955544 
L 425.535755 409.766862 
L 431.709079 406.206378 
L 437.882404 402.960536 
L 444.055728 401.481125 
L 450.229052 397.799107 
L 456.402376 395.475579 
L 462.5757 392.056635 
L 468.749024 388.672836 
L 474.922348 389.188692 
L 481.095673 387.231036 
L 487.268997 385.831873 
L 493.442321 381.982106 
L 499.615645 378.963801 
L 505.788969 378.141918 
L 511.962293 377.721117 
L 518.135618 379.428807 
L 524.308942 376.856771 
L 530.482266 374.943549 
L 536.65559 375.274768 
L 542.828914 376.762278 
L 549.002238 370.456375 
L 555.175562 371.175528 
L 561.348887 370.054586 
L 567.522211 367.068056 
L 573.695535 362.310889 
L 579.868859 357.54998 
L 586.042183 353.684598 
L 592.215507 350.634224 
L 598.388831 349.280108 
L 604.562156 347.818925 
L 610.73548 346.03593 
L 616.908804 344.404199 
L 623.082128 344.340627 
L 629.255452 343.384809 
L 635.428776 342.221704 
L 641.602101 340.703108 
L 647.775425 335.843399 
L 653.948749 336.059786 
L 660.122073 336.236952 
L 666.295397 338.012626 
L 672.468721 340.14198 
L 678.642045 337.26859 
" clip-path="url(#pe2619459cf)" style="fill: none; stroke: #e377c2; stroke-width: 1.5; stroke-linecap: square"/>
   </g>
   <g id="line2d_36">
    <path d="M 67.482955 520.392311 
L 73.656279 518.489091 
L 79.829603 516.158404 
L 86.002927 514.095161 
L 92.176251 512.959578 
L 98.349575 515.352157 
L 104.522899 515.359646 
L 110.696224 515.021524 
L 116.869548 512.435687 
L 123.042872 509.179646 
L 129.216196 510.611332 
L 135.38952 508.717177 
L 141.562844 508.057801 
L 147.736169 505.276018 
L 153.909493 505.315077 
L 160.082817 505.371266 
L 166.256141 505.693231 
L 172.429465 505.374623 
L 178.602789 503.642621 
L 184.776113 503.269017 
L 190.949438 499.176784 
L 197.122762 498.993081 
L 203.296086 496.188806 
L 209.46941 493.10363 
L 215.642734 493.780447 
L 221.816058 492.512265 
L 227.989382 488.720021 
L 234.162707 487.492982 
L 240.336031 483.098642 
L 246.509355 480.693187 
L 252.682679 479.755549 
L 258.856003 476.649425 
L 265.029327 472.794766 
L 271.202652 467.382117 
L 277.375976 465.233077 
L 283.5493 463.401831 
L 289.722624 458.337322 
L 295.895948 456.607852 
L 302.069272 458.09628 
L 308.242596 454.488372 
L 314.415921 453.209072 
L 320.589245 448.369589 
L 326.762569 448.741874 
L 332.935893 448.726662 
L 339.109217 448.37727 
L 345.282541 446.512451 
L 351.455865 441.496039 
L 357.62919 438.236936 
L 363.802514 440.351532 
L 369.975838 437.35048 
L 376.149162 435.694345 
L 382.322486 428.102278 
L 388.49581 425.972154 
L 394.669135 426.338917 
L 400.842459 421.82637 
L 407.015783 422.003946 
L 413.189107 420.384162 
L 419.362431 416.416499 
L 425.535755 416.063229 
L 431.709079 416.310789 
L 437.882404 415.670516 
L 444.055728 413.159907 
L 450.229052 411.423157 
L 456.402376 409.999282 
L 462.5757 407.781417 
L 468.749024 406.725876 
L 474.922348 402.468273 
L 481.095673 400.138947 
L 487.268997 402.223927 
L 493.442321 400.951583 
L 499.615645 400.259202 
L 505.788969 398.317578 
L 511.962293 396.497266 
L 518.135618 392.193295 
L 524.308942 389.919794 
L 530.482266 389.29469 
L 536.65559 386.902664 
L 542.828914 380.84195 
L 549.002238 376.804516 
L 555.175562 373.371677 
L 561.348887 371.384298 
L 567.522211 368.834257 
L 573.695535 368.915297 
L 579.868859 367.771308 
L 586.042183 363.811074 
L 592.215507 361.929523 
L 598.388831 362.363836 
L 604.562156 358.851851 
L 610.73548 356.989781 
L 616.908804 354.622547 
L 623.082128 350.996194 
L 629.255452 350.10179 
L 635.428776 350.331762 
L 641.602101 348.074555 
L 647.775425 344.82277 
L 653.948749 341.506044 
L 660.122073 340.085476 
L 666.295397 335.661123 
L 672.468721 333.907598 
L 678.642045 332.276068 
" clip-path="url(#pe2619459cf)" style="fill: none; stroke: #7f7f7f; stroke-width: 1.5; stroke-linecap: square"/>
   </g>
   <g id="line2d_37">
    <path d="M 67.482955 520.01031 
L 73.656279 518.726388 
L 79.829603 515.815635 
L 86.002927 511.578244 
L 92.176251 509.125717 
L 98.349575 507.826906 
L 104.522899 504.271283 
L 110.696224 501.676873 
L 116.869548 500.266519 
L 123.042872 495.640278 
L 129.216196 495.402665 
L 135.38952 495.540493 
L 141.562844 493.435999 
L 147.736169 492.177128 
L 153.909493 488.995649 
L 160.082817 486.55417 
L 166.256141 486.294161 
L 172.429465 482.728742 
L 178.602789 478.778583 
L 184.776113 480.084647 
L 190.949438 479.213425 
L 197.122762 478.306858 
L 203.296086 475.575168 
L 209.46941 475.70907 
L 215.642734 471.001077 
L 221.816058 468.669159 
L 227.989382 470.369244 
L 234.162707 467.003953 
L 240.336031 466.256944 
L 246.509355 464.360864 
L 252.682679 465.27963 
L 258.856003 464.18635 
L 265.029327 463.685346 
L 271.202652 463.505724 
L 277.375976 464.33374 
L 283.5493 463.547009 
L 289.722624 463.075466 
L 295.895948 462.277287 
L 302.069272 460.178113 
L 308.242596 460.898631 
L 314.415921 460.354488 
L 320.589245 456.347409 
L 326.762569 455.434233 
L 332.935893 452.49583 
L 339.109217 449.812475 
L 345.282541 447.187408 
L 351.455865 444.193649 
L 357.62919 437.75912 
L 363.802514 435.914723 
L 369.975838 433.859611 
L 376.149162 432.027191 
L 382.322486 428.642285 
L 388.49581 424.979237 
L 394.669135 425.216348 
L 400.842459 422.197804 
L 407.015783 420.710762 
L 413.189107 416.411995 
L 419.362431 411.481491 
L 425.535755 410.694534 
L 431.709079 412.278282 
L 437.882404 406.778319 
L 444.055728 406.666987 
L 450.229052 402.350702 
L 456.402376 399.139384 
L 462.5757 396.519713 
L 468.749024 390.085124 
L 474.922348 390.488021 
L 481.095673 385.986868 
L 487.268997 384.998916 
L 493.442321 383.8896 
L 499.615645 379.965493 
L 505.788969 380.308409 
L 511.962293 376.961463 
L 518.135618 373.52041 
L 524.308942 371.588645 
L 530.482266 368.651476 
L 536.65559 363.358794 
L 542.828914 362.750619 
L 549.002238 359.321228 
L 555.175562 361.531522 
L 561.348887 359.415738 
L 567.522211 356.135273 
L 573.695535 353.952888 
L 579.868859 357.942531 
L 586.042183 352.271543 
L 592.215507 349.678076 
L 598.388831 346.110306 
L 604.562156 343.257284 
L 610.73548 345.374985 
L 616.908804 343.910816 
L 623.082128 343.031776 
L 629.255452 341.303557 
L 635.428776 338.030917 
L 641.602101 337.092453 
L 647.775425 334.158854 
L 653.948749 331.200087 
L 660.122073 329.974127 
L 666.295397 328.924607 
L 672.468721 328.862259 
L 678.642045 328.568653 
" clip-path="url(#pe2619459cf)" style="fill: none; stroke: #bcbd22; stroke-width: 1.5; stroke-linecap: square"/>
   </g>
   <g id="line2d_38">
    <path d="M 67.482955 518.138001 
L 73.656279 515.953522 
L 79.829603 513.79488 
L 86.002927 513.069191 
L 92.176251 513.577843 
L 98.349575 508.659545 
L 104.522899 508.22938 
L 110.696224 508.006806 
L 116.869548 506.703782 
L 123.042872 502.315323 
L 129.216196 499.840409 
L 135.38952 498.16302 
L 141.562844 497.73667 
L 147.736169 496.430105 
L 153.909493 494.206845 
L 160.082817 493.921554 
L 166.256141 493.635662 
L 172.429465 488.126229 
L 178.602789 484.829786 
L 184.776113 483.359135 
L 190.949438 481.331215 
L 197.122762 480.533559 
L 203.296086 477.880918 
L 209.46941 475.526559 
L 215.642734 475.898898 
L 221.816058 473.60877 
L 227.989382 472.691301 
L 234.162707 471.558579 
L 240.336031 469.261097 
L 246.509355 467.888663 
L 252.682679 466.945847 
L 258.856003 464.622765 
L 265.029327 464.277171 
L 271.202652 465.803754 
L 277.375976 465.643909 
L 283.5493 463.893362 
L 289.722624 459.805014 
L 295.895948 453.537119 
L 302.069272 453.816873 
L 308.242596 451.367785 
L 314.415921 449.947852 
L 320.589245 447.762023 
L 326.762569 448.23237 
L 332.935893 447.849215 
L 339.109217 446.866199 
L 345.282541 446.578205 
L 351.455865 442.888172 
L 357.62919 443.373936 
L 363.802514 439.548633 
L 369.975838 434.387098 
L 376.149162 431.368581 
L 382.322486 428.145848 
L 388.49581 426.298558 
L 394.669135 425.539357 
L 400.842459 423.832762 
L 407.015783 421.337459 
L 413.189107 419.235182 
L 419.362431 416.770983 
L 425.535755 416.361623 
L 431.709079 413.029293 
L 437.882404 410.957269 
L 444.055728 413.469341 
L 450.229052 415.78133 
L 456.402376 414.110739 
L 462.5757 409.72284 
L 468.749024 410.306612 
L 474.922348 409.637176 
L 481.095673 407.586363 
L 487.268997 406.541816 
L 493.442321 405.962651 
L 499.615645 401.95932 
L 505.788969 398.639608 
L 511.962293 397.092721 
L 518.135618 396.382815 
L 524.308942 393.932894 
L 530.482266 392.742917 
L 536.65559 391.509226 
L 542.828914 391.411393 
L 549.002238 387.286249 
L 555.175562 386.687433 
L 561.348887 385.462703 
L 567.522211 385.014592 
L 573.695535 384.85273 
L 579.868859 383.299317 
L 586.042183 378.730566 
L 592.215507 375.817512 
L 598.388831 373.347033 
L 604.562156 370.924676 
L 610.73548 371.222454 
L 616.908804 368.690413 
L 623.082128 364.35123 
L 629.255452 361.290379 
L 635.428776 359.812558 
L 641.602101 356.653905 
L 647.775425 357.779053 
L 653.948749 357.198023 
L 660.122073 357.141104 
L 666.295397 352.689458 
L 672.468721 348.413559 
L 678.642045 347.575684 
" clip-path="url(#pe2619459cf)" style="fill: none; stroke: #17becf; stroke-width: 1.5; stroke-linecap: square"/>
   </g>
   <g id="line2d_39">
    <path d="M 67.482955 516.469842 
L 73.656279 513.755351 
L 79.829603 513.126944 
L 86.002927 512.293851 
L 92.176251 507.493377 
L 98.349575 507.485813 
L 104.522899 505.881683 
L 110.696224 502.37625 
L 116.869548 502.128613 
L 123.042872 498.145127 
L 129.216196 496.721909 
L 135.38952 496.905527 
L 141.562844 492.247576 
L 147.736169 490.602058 
L 153.909493 491.095215 
L 160.082817 487.734771 
L 166.256141 487.181643 
L 172.429465 483.092379 
L 178.602789 482.307361 
L 184.776113 478.766053 
L 190.949438 476.702793 
L 197.122762 474.996624 
L 203.296086 474.914528 
L 209.46941 472.528573 
L 215.642734 470.408787 
L 221.816058 468.47612 
L 227.989382 466.661258 
L 234.162707 462.744628 
L 240.336031 461.922373 
L 246.509355 462.201016 
L 252.682679 464.422563 
L 258.856003 460.347212 
L 265.029327 458.301981 
L 271.202652 456.744165 
L 277.375976 457.574086 
L 283.5493 457.602873 
L 289.722624 454.883614 
L 295.895948 455.090341 
L 302.069272 453.0811 
L 308.242596 451.101467 
L 314.415921 450.067824 
L 320.589245 448.669316 
L 326.762569 451.428105 
L 332.935893 452.603172 
L 339.109217 450.493143 
L 345.282541 451.107838 
L 351.455865 448.06433 
L 357.62919 447.554885 
L 363.802514 444.323157 
L 369.975838 442.817235 
L 376.149162 441.923135 
L 382.322486 437.039632 
L 388.49581 432.581747 
L 394.669135 430.063624 
L 400.842459 430.844485 
L 407.015783 429.994148 
L 413.189107 431.066458 
L 419.362431 429.639754 
L 425.535755 426.37465 
L 431.709079 427.028365 
L 437.882404 425.457913 
L 444.055728 423.376841 
L 450.229052 421.350756 
L 456.402376 421.063007 
L 462.5757 418.662873 
L 468.749024 417.536559 
L 474.922348 418.115261 
L 481.095673 417.776324 
L 487.268997 414.76005 
L 493.442321 414.158246 
L 499.615645 413.025736 
L 505.788969 410.125043 
L 511.962293 408.651748 
L 518.135618 402.897466 
L 524.308942 402.974971 
L 530.482266 405.05169 
L 536.65559 402.340965 
L 542.828914 402.34928 
L 549.002238 400.492 
L 555.175562 396.997154 
L 561.348887 393.875496 
L 567.522211 392.103168 
L 573.695535 390.130807 
L 579.868859 388.771252 
L 586.042183 387.828627 
L 592.215507 385.771031 
L 598.388831 381.442838 
L 604.562156 376.808574 
L 610.73548 376.930927 
L 616.908804 375.7017 
L 623.082128 375.15621 
L 629.255452 374.319329 
L 635.428776 373.261319 
L 641.602101 372.163907 
L 647.775425 372.935064 
L 653.948749 371.009103 
L 660.122073 370.413458 
L 666.295397 366.501453 
L 672.468721 365.936657 
L 678.642045 362.91701 
" clip-path="url(#pe2619459cf)" style="fill: none; stroke: #1f77b4; stroke-width: 1.5; stroke-linecap: square"/>
   </g>
   <g id="line2d_40">
    <path d="M 67.482955 516.441384 
L 73.656279 511.967415 
L 79.829603 510.707095 
L 86.002927 510.260056 
L 92.176251 510.57459 
L 98.349575 508.335964 
L 104.522899 508.662347 
L 110.696224 508.92643 
L 116.869548 506.154469 
L 123.042872 507.716575 
L 129.216196 508.177067 
L 135.38952 503.638908 
L 141.562844 501.332752 
L 147.736169 497.918381 
L 153.909493 495.96407 
L 160.082817 493.890971 
L 166.256141 491.199882 
L 172.429465 486.644223 
L 178.602789 484.098271 
L 184.776113 482.121257 
L 190.949438 482.201876 
L 197.122762 480.166684 
L 203.296086 479.276563 
L 209.46941 480.106475 
L 215.642734 480.089339 
L 221.816058 480.28994 
L 227.989382 477.573877 
L 234.162707 475.645318 
L 240.336031 472.464537 
L 246.509355 471.252073 
L 252.682679 470.321832 
L 258.856003 468.754137 
L 265.029327 465.529506 
L 271.202652 466.472097 
L 277.375976 466.231272 
L 283.5493 466.224137 
L 289.722624 463.423784 
L 295.895948 462.408175 
L 302.069272 461.191279 
L 308.242596 456.724095 
L 314.415921 456.096821 
L 320.589245 454.678989 
L 326.762569 453.639394 
L 332.935893 452.384109 
L 339.109217 454.030798 
L 345.282541 451.840484 
L 351.455865 450.891036 
L 357.62919 449.478724 
L 363.802514 445.092185 
L 369.975838 441.89 
L 376.149162 440.327435 
L 382.322486 438.323564 
L 388.49581 436.794375 
L 394.669135 434.476413 
L 400.842459 433.439689 
L 407.015783 434.735863 
L 413.189107 433.778126 
L 419.362431 432.453611 
L 425.535755 429.594603 
L 431.709079 425.358566 
L 437.882404 421.589798 
L 444.055728 417.838477 
L 450.229052 412.468437 
L 456.402376 408.689772 
L 462.5757 406.368098 
L 468.749024 402.505271 
L 474.922348 401.246722 
L 481.095673 400.101 
L 487.268997 400.84995 
L 493.442321 402.828375 
L 499.615645 400.82671 
L 505.788969 399.537764 
L 511.962293 397.750649 
L 518.135618 397.059503 
L 524.308942 393.326505 
L 530.482266 394.734485 
L 536.65559 391.773265 
L 542.828914 390.371605 
L 549.002238 390.019249 
L 555.175562 386.133211 
L 561.348887 383.342383 
L 567.522211 377.425682 
L 573.695535 377.439549 
L 579.868859 375.872601 
L 586.042183 373.091787 
L 592.215507 371.3523 
L 598.388831 371.588429 
L 604.562156 370.48364 
L 610.73548 367.897242 
L 616.908804 367.221196 
L 623.082128 365.729353 
L 629.255452 362.641606 
L 635.428776 361.383692 
L 641.602101 362.321289 
L 647.775425 362.086925 
L 653.948749 361.202479 
L 660.122073 355.407254 
L 666.295397 350.091434 
L 672.468721 346.407026 
L 678.642045 348.50322 
" clip-path="url(#pe2619459cf)" style="fill: none; stroke: #ff7f0e; stroke-width: 1.5; stroke-linecap: square"/>
   </g>
   <g id="line2d_41">
    <path d="M 67.482955 521.083123 
L 73.656279 523.171364 
L 79.829603 521.019788 
L 86.002927 517.632711 
L 92.176251 515.826612 
L 98.349575 514.140646 
L 104.522899 511.313994 
L 110.696224 509.913087 
L 116.869548 509.143572 
L 123.042872 510.264153 
L 129.216196 509.695944 
L 135.38952 507.210604 
L 141.562844 503.565155 
L 147.736169 500.104584 
L 153.909493 499.204173 
L 160.082817 497.53636 
L 166.256141 498.003451 
L 172.429465 498.198567 
L 178.602789 496.83439 
L 184.776113 497.21049 
L 190.949438 494.372573 
L 197.122762 490.984544 
L 203.296086 488.286548 
L 209.46941 487.565947 
L 215.642734 486.956575 
L 221.816058 489.164243 
L 227.989382 485.704679 
L 234.162707 484.054736 
L 240.336031 482.841637 
L 246.509355 481.657496 
L 252.682679 482.18785 
L 258.856003 483.387179 
L 265.029327 482.950642 
L 271.202652 481.259941 
L 277.375976 479.384529 
L 283.5493 477.291369 
L 289.722624 475.682956 
L 295.895948 478.083104 
L 302.069272 478.176886 
L 308.242596 476.325601 
L 314.415921 471.453756 
L 320.589245 466.926333 
L 326.762569 466.507097 
L 332.935893 465.965901 
L 339.109217 464.69215 
L 345.282541 458.614391 
L 351.455865 455.717213 
L 357.62919 454.228063 
L 363.802514 451.096139 
L 369.975838 447.714214 
L 376.149162 446.989033 
L 382.322486 444.830939 
L 388.49581 442.462866 
L 394.669135 442.249954 
L 400.842459 436.707764 
L 407.015783 437.242957 
L 413.189107 434.100514 
L 419.362431 425.769642 
L 425.535755 430.435309 
L 431.709079 428.092612 
L 437.882404 427.089019 
L 444.055728 425.318036 
L 450.229052 419.906244 
L 456.402376 418.258134 
L 462.5757 414.124078 
L 468.749024 410.407648 
L 474.922348 408.665948 
L 481.095673 407.596364 
L 487.268997 407.457189 
L 493.442321 407.333052 
L 499.615645 406.841863 
L 505.788969 406.187866 
L 511.962293 406.982833 
L 518.135618 407.335312 
L 524.308942 406.310501 
L 530.482266 405.940492 
L 536.65559 406.880934 
L 542.828914 402.62126 
L 549.002238 402.624903 
L 555.175562 402.752789 
L 561.348887 400.101994 
L 567.522211 399.021112 
L 573.695535 395.336304 
L 579.868859 392.298648 
L 586.042183 391.260457 
L 592.215507 386.349247 
L 598.388831 384.348014 
L 604.562156 382.708893 
L 610.73548 381.44002 
L 616.908804 379.866027 
L 623.082128 378.312954 
L 629.255452 376.382525 
L 635.428776 374.007367 
L 641.602101 372.992514 
L 647.775425 373.42137 
L 653.948749 372.653486 
L 660.122073 374.369759 
L 666.295397 370.862663 
L 672.468721 368.716852 
L 678.642045 368.988025 
" clip-path="url(#pe2619459cf)" style="fill: none; stroke: #2ca02c; stroke-width: 1.5; stroke-linecap: square"/>
   </g>
   <g id="line2d_42">
    <path d="M 67.482955 518.878615 
L 73.656279 515.412284 
L 79.829603 512.569216 
L 86.002927 507.953962 
L 92.176251 508.644811 
L 98.349575 505.261106 
L 104.522899 500.108223 
L 110.696224 495.522578 
L 116.869548 491.601848 
L 123.042872 489.09028 
L 129.216196 487.91024 
L 135.38952 485.409178 
L 141.562844 485.502651 
L 147.736169 479.685083 
L 153.909493 479.110378 
L 160.082817 474.959335 
L 166.256141 472.907875 
L 172.429465 470.671968 
L 178.602789 468.952678 
L 184.776113 465.531022 
L 190.949438 464.098953 
L 197.122762 462.835018 
L 203.296086 459.431062 
L 209.46941 455.487116 
L 215.642734 452.036345 
L 221.816058 449.418126 
L 227.989382 448.845159 
L 234.162707 447.327595 
L 240.336031 444.980433 
L 246.509355 442.900848 
L 252.682679 439.03973 
L 258.856003 433.893443 
L 265.029327 434.004126 
L 271.202652 435.301175 
L 277.375976 434.072153 
L 283.5493 432.361899 
L 289.722624 431.925744 
L 295.895948 430.455691 
L 302.069272 429.565363 
L 308.242596 428.180865 
L 314.415921 425.370744 
L 320.589245 421.527141 
L 326.762569 417.950111 
L 332.935893 414.104427 
L 339.109217 411.217304 
L 345.282541 409.288829 
L 351.455865 407.797323 
L 357.62919 407.476794 
L 363.802514 407.229095 
L 369.975838 407.695614 
L 376.149162 404.681686 
L 382.322486 403.721795 
L 388.49581 401.442506 
L 394.669135 402.525183 
L 400.842459 404.230668 
L 407.015783 401.645346 
L 413.189107 395.570851 
L 419.362431 393.003465 
L 425.535755 391.558755 
L 431.709079 391.021391 
L 437.882404 391.422966 
L 444.055728 387.535256 
L 450.229052 387.866738 
L 456.402376 388.020185 
L 462.5757 386.318147 
L 468.749024 384.744887 
L 474.922348 383.773405 
L 481.095673 381.151618 
L 487.268997 379.827275 
L 493.442321 377.531762 
L 499.615645 375.875628 
L 505.788969 375.489416 
L 511.962293 372.478559 
L 518.135618 370.34211 
L 524.308942 369.053076 
L 530.482266 370.799634 
L 536.65559 370.681678 
L 542.828914 368.037109 
L 549.002238 367.068983 
L 555.175562 367.688654 
L 561.348887 365.876108 
L 567.522211 360.505207 
L 573.695535 359.738651 
L 579.868859 357.975601 
L 586.042183 353.856226 
L 592.215507 352.249175 
L 598.388831 353.050033 
L 604.562156 352.562344 
L 610.73548 350.240764 
L 616.908804 349.094143 
L 623.082128 344.754583 
L 629.255452 341.717839 
L 635.428776 343.94789 
L 641.602101 340.041026 
L 647.775425 341.267698 
L 653.948749 340.510442 
L 660.122073 338.330473 
L 666.295397 337.565636 
L 672.468721 336.518577 
L 678.642045 331.580291 
" clip-path="url(#pe2619459cf)" style="fill: none; stroke: #d62728; stroke-width: 1.5; stroke-linecap: square"/>
   </g>
   <g id="line2d_43">
    <path d="M 67.482955 519.563141 
L 73.656279 516.715538 
L 79.829603 516.519434 
L 86.002927 512.664247 
L 92.176251 512.731339 
L 98.349575 513.557732 
L 104.522899 511.503902 
L 110.696224 510.100894 
L 116.869548 507.95254 
L 123.042872 509.592686 
L 129.216196 511.322374 
L 135.38952 507.087539 
L 141.562844 507.194704 
L 147.736169 506.269703 
L 153.909493 505.373728 
L 160.082817 502.365434 
L 166.256141 500.449466 
L 172.429465 497.836651 
L 178.602789 498.09485 
L 184.776113 497.460868 
L 190.949438 495.488864 
L 197.122762 493.858817 
L 203.296086 489.986836 
L 209.46941 488.415793 
L 215.642734 485.6887 
L 221.816058 483.884745 
L 227.989382 482.34846 
L 234.162707 481.784177 
L 240.336031 481.762684 
L 246.509355 481.800862 
L 252.682679 480.40492 
L 258.856003 479.263949 
L 265.029327 477.370244 
L 271.202652 476.136306 
L 277.375976 474.447311 
L 283.5493 470.573199 
L 289.722624 468.719972 
L 295.895948 466.355096 
L 302.069272 465.218028 
L 308.242596 463.319014 
L 314.415921 463.565211 
L 320.589245 462.839299 
L 326.762569 457.256182 
L 332.935893 456.593073 
L 339.109217 453.810861 
L 345.282541 451.974135 
L 351.455865 456.11477 
L 357.62919 451.110702 
L 363.802514 444.31718 
L 369.975838 443.601369 
L 376.149162 440.090549 
L 382.322486 436.204411 
L 388.49581 437.051336 
L 394.669135 435.701844 
L 400.842459 433.081959 
L 407.015783 431.657482 
L 413.189107 431.163859 
L 419.362431 431.860353 
L 425.535755 427.647424 
L 431.709079 423.815782 
L 437.882404 422.65724 
L 444.055728 422.02407 
L 450.229052 419.710007 
L 456.402376 416.589881 
L 462.5757 417.008036 
L 468.749024 415.749888 
L 474.922348 417.106158 
L 481.095673 412.78049 
L 487.268997 407.988402 
L 493.442321 401.32633 
L 499.615645 399.123141 
L 505.788969 400.64266 
L 511.962293 401.51899 
L 518.135618 400.046405 
L 524.308942 399.654322 
L 530.482266 397.782749 
L 536.65559 399.639575 
L 542.828914 401.006559 
L 549.002238 398.827669 
L 555.175562 392.024066 
L 561.348887 390.697413 
L 567.522211 386.374324 
L 573.695535 384.606307 
L 579.868859 382.57836 
L 586.042183 381.772628 
L 592.215507 376.724966 
L 598.388831 376.942941 
L 604.562156 374.270517 
L 610.73548 369.859224 
L 616.908804 366.735153 
L 623.082128 366.447848 
L 629.255452 365.801596 
L 635.428776 359.780695 
L 641.602101 360.927731 
L 647.775425 360.548954 
L 653.948749 358.82086 
L 660.122073 353.720612 
L 666.295397 351.221024 
L 672.468721 351.999536 
L 678.642045 351.325948 
" clip-path="url(#pe2619459cf)" style="fill: none; stroke: #9467bd; stroke-width: 1.5; stroke-linecap: square"/>
   </g>
   <g id="line2d_44">
    <path d="M 67.482955 517.661163 
L 73.656279 517.494581 
L 79.829603 517.754877 
L 86.002927 518.382734 
L 92.176251 516.807342 
L 98.349575 514.764606 
L 104.522899 511.485814 
L 110.696224 511.967752 
L 116.869548 510.851998 
L 123.042872 506.409072 
L 129.216196 505.148445 
L 135.38952 506.244119 
L 141.562844 504.791775 
L 147.736169 503.840509 
L 153.909493 499.693657 
L 160.082817 494.517623 
L 166.256141 492.228163 
L 172.429465 491.716864 
L 178.602789 492.2068 
L 184.776113 490.342043 
L 190.949438 487.397659 
L 197.122762 484.660508 
L 203.296086 484.845914 
L 209.46941 478.404598 
L 215.642734 475.153817 
L 221.816058 470.620617 
L 227.989382 469.79025 
L 234.162707 466.929213 
L 240.336031 466.27867 
L 246.509355 460.906353 
L 252.682679 459.324871 
L 258.856003 459.042544 
L 265.029327 455.8458 
L 271.202652 454.319395 
L 277.375976 452.92057 
L 283.5493 452.273274 
L 289.722624 454.020622 
L 295.895948 450.728855 
L 302.069272 450.805135 
L 308.242596 450.265658 
L 314.415921 448.910108 
L 320.589245 446.819313 
L 326.762569 443.812033 
L 332.935893 439.301824 
L 339.109217 441.040577 
L 345.282541 439.873133 
L 351.455865 438.452795 
L 357.62919 436.64945 
L 363.802514 436.591145 
L 369.975838 433.329038 
L 376.149162 432.378241 
L 382.322486 430.491498 
L 388.49581 426.471542 
L 394.669135 425.20634 
L 400.842459 422.88161 
L 407.015783 421.881524 
L 413.189107 419.598665 
L 419.362431 417.615599 
L 425.535755 416.761372 
L 431.709079 416.630378 
L 437.882404 414.018082 
L 444.055728 414.046158 
L 450.229052 414.954716 
L 456.402376 414.98622 
L 462.5757 415.938909 
L 468.749024 412.987216 
L 474.922348 411.522086 
L 481.095673 409.929791 
L 487.268997 407.193387 
L 493.442321 402.226315 
L 499.615645 399.754869 
L 505.788969 399.107548 
L 511.962293 394.385149 
L 518.135618 394.688101 
L 524.308942 388.79488 
L 530.482266 386.266689 
L 536.65559 384.474526 
L 542.828914 384.786045 
L 549.002238 382.817405 
L 555.175562 383.102194 
L 561.348887 383.230357 
L 567.522211 379.987036 
L 573.695535 378.963567 
L 579.868859 380.669181 
L 586.042183 379.508639 
L 592.215507 377.655983 
L 598.388831 373.870549 
L 604.562156 374.258241 
L 610.73548 369.701057 
L 616.908804 367.240066 
L 623.082128 366.265829 
L 629.255452 361.840391 
L 635.428776 358.118025 
L 641.602101 355.497094 
L 647.775425 353.170917 
L 653.948749 350.00132 
L 660.122073 347.504234 
L 666.295397 345.245564 
L 672.468721 346.053862 
L 678.642045 343.67668 
" clip-path="url(#pe2619459cf)" style="fill: none; stroke: #8c564b; stroke-width: 1.5; stroke-linecap: square"/>
   </g>
   <g id="line2d_45">
    <path d="M 67.482955 518.163426 
L 73.656279 518.8621 
L 79.829603 518.392918 
L 86.002927 519.800344 
L 92.176251 520.076992 
L 98.349575 518.443196 
L 104.522899 516.867846 
L 110.696224 513.588288 
L 116.869548 513.280287 
L 123.042872 509.576889 
L 129.216196 504.424646 
L 135.38952 503.244029 
L 141.562844 498.129952 
L 147.736169 493.16803 
L 153.909493 491.949211 
L 160.082817 488.622712 
L 166.256141 490.656775 
L 172.429465 487.278228 
L 178.602789 485.062031 
L 184.776113 486.205084 
L 190.949438 485.303441 
L 197.122762 484.609487 
L 203.296086 481.162391 
L 209.46941 481.034354 
L 215.642734 478.90961 
L 221.816058 476.124076 
L 227.989382 472.657697 
L 234.162707 466.354337 
L 240.336031 461.545286 
L 246.509355 464.404501 
L 252.682679 462.908294 
L 258.856003 461.104244 
L 265.029327 456.589311 
L 271.202652 454.231157 
L 277.375976 452.331796 
L 283.5493 449.184285 
L 289.722624 447.028481 
L 295.895948 444.403606 
L 302.069272 441.106344 
L 308.242596 435.741342 
L 314.415921 433.466218 
L 320.589245 432.084801 
L 326.762569 429.338042 
L 332.935893 430.950687 
L 339.109217 428.36014 
L 345.282541 427.428614 
L 351.455865 428.790291 
L 357.62919 425.7663 
L 363.802514 424.552638 
L 369.975838 422.470617 
L 376.149162 422.967902 
L 382.322486 421.623401 
L 388.49581 422.424759 
L 394.669135 420.959921 
L 400.842459 418.319998 
L 407.015783 416.270453 
L 413.189107 412.973072 
L 419.362431 407.501421 
L 425.535755 407.551324 
L 431.709079 406.353893 
L 437.882404 403.092631 
L 444.055728 398.993918 
L 450.229052 397.044467 
L 456.402376 395.06611 
L 462.5757 395.715347 
L 468.749024 393.840334 
L 474.922348 392.100471 
L 481.095673 388.518205 
L 487.268997 385.569792 
L 493.442321 383.337729 
L 499.615645 379.123157 
L 505.788969 376.375276 
L 511.962293 375.613929 
L 518.135618 375.188536 
L 524.308942 376.090098 
L 530.482266 372.154124 
L 536.65559 369.091021 
L 542.828914 368.029182 
L 549.002238 367.295038 
L 555.175562 363.456422 
L 561.348887 363.185639 
L 567.522211 362.124825 
L 573.695535 362.531168 
L 579.868859 357.497234 
L 586.042183 354.785334 
L 592.215507 351.696 
L 598.388831 349.329665 
L 604.562156 348.139992 
L 610.73548 345.658825 
L 616.908804 343.651587 
L 623.082128 341.140123 
L 629.255452 339.781964 
L 635.428776 338.973918 
L 641.602101 336.452665 
L 647.775425 336.204007 
L 653.948749 336.702596 
L 660.122073 336.553599 
L 666.295397 332.298539 
L 672.468721 330.56855 
L 678.642045 326.561137 
" clip-path="url(#pe2619459cf)" style="fill: none; stroke: #e377c2; stroke-width: 1.5; stroke-linecap: square"/>
   </g>
   <g id="line2d_46">
    <path d="M 67.482955 518.950822 
L 73.656279 518.021721 
L 79.829603 515.348004 
L 86.002927 512.584061 
L 92.176251 507.336029 
L 98.349575 506.334333 
L 104.522899 506.917577 
L 110.696224 504.646281 
L 116.869548 504.008885 
L 123.042872 502.042421 
L 129.216196 498.541553 
L 135.38952 496.493603 
L 141.562844 494.765674 
L 147.736169 493.238318 
L 153.909493 490.892419 
L 160.082817 491.160042 
L 166.256141 492.011705 
L 172.429465 487.897625 
L 178.602789 487.08337 
L 184.776113 486.583891 
L 190.949438 480.756269 
L 197.122762 477.932705 
L 203.296086 476.245825 
L 209.46941 474.307695 
L 215.642734 469.155907 
L 221.816058 470.296067 
L 227.989382 469.672081 
L 234.162707 469.090056 
L 240.336031 468.978198 
L 246.509355 470.273545 
L 252.682679 467.518631 
L 258.856003 459.817722 
L 265.029327 458.406248 
L 271.202652 457.575715 
L 277.375976 454.643723 
L 283.5493 450.70156 
L 289.722624 448.390435 
L 295.895948 449.063009 
L 302.069272 449.253635 
L 308.242596 451.11582 
L 314.415921 450.269437 
L 320.589245 444.926198 
L 326.762569 442.022474 
L 332.935893 441.249839 
L 339.109217 439.415042 
L 345.282541 437.198891 
L 351.455865 433.235109 
L 357.62919 431.178626 
L 363.802514 428.384069 
L 369.975838 426.167821 
L 376.149162 424.104681 
L 382.322486 420.803838 
L 388.49581 419.627774 
L 394.669135 418.502238 
L 400.842459 417.219806 
L 407.015783 414.722847 
L 413.189107 411.158752 
L 419.362431 409.296375 
L 425.535755 409.344879 
L 431.709079 407.876381 
L 437.882404 405.723532 
L 444.055728 401.53314 
L 450.229052 397.511084 
L 456.402376 396.507782 
L 462.5757 396.515568 
L 468.749024 395.816729 
L 474.922348 393.309355 
L 481.095673 393.967584 
L 487.268997 390.008874 
L 493.442321 386.750603 
L 499.615645 382.908386 
L 505.788969 379.882292 
L 511.962293 375.826952 
L 518.135618 376.240475 
L 524.308942 377.148561 
L 530.482266 375.494163 
L 536.65559 371.188665 
L 542.828914 372.406424 
L 549.002238 372.724394 
L 555.175562 368.995027 
L 561.348887 367.633251 
L 567.522211 364.798355 
L 573.695535 362.373402 
L 579.868859 360.214658 
L 586.042183 356.804083 
L 592.215507 355.700381 
L 598.388831 349.702031 
L 604.562156 348.796213 
L 610.73548 343.535639 
L 616.908804 341.274853 
L 623.082128 343.691212 
L 629.255452 340.636811 
L 635.428776 338.922116 
L 641.602101 338.367392 
L 647.775425 339.250039 
L 653.948749 338.293444 
L 660.122073 336.803206 
L 666.295397 333.785346 
L 672.468721 331.398862 
L 678.642045 326.837149 
" clip-path="url(#pe2619459cf)" style="fill: none; stroke: #7f7f7f; stroke-width: 1.5; stroke-linecap: square"/>
   </g>
   <g id="line2d_47">
    <path d="M 67.482955 520.001137 
L 73.656279 517.628545 
L 79.829603 519.953434 
L 86.002927 519.512621 
L 92.176251 517.970617 
L 98.349575 516.829209 
L 104.522899 515.229238 
L 110.696224 512.186189 
L 116.869548 510.58352 
L 123.042872 508.330125 
L 129.216196 508.176238 
L 135.38952 507.016928 
L 141.562844 503.872632 
L 147.736169 499.922743 
L 153.909493 498.573552 
L 160.082817 497.11282 
L 166.256141 495.89997 
L 172.429465 495.913809 
L 178.602789 493.909043 
L 184.776113 491.183516 
L 190.949438 489.601958 
L 197.122762 486.939453 
L 203.296086 485.689546 
L 209.46941 483.729366 
L 215.642734 485.949851 
L 221.816058 483.215588 
L 227.989382 477.493439 
L 234.162707 473.115003 
L 240.336031 476.090433 
L 246.509355 476.565468 
L 252.682679 474.72813 
L 258.856003 473.172958 
L 265.029327 470.317041 
L 271.202652 466.359375 
L 277.375976 464.728314 
L 283.5493 461.636467 
L 289.722624 460.156515 
L 295.895948 460.298415 
L 302.069272 457.017441 
L 308.242596 451.785262 
L 314.415921 449.913548 
L 320.589245 447.792673 
L 326.762569 446.554896 
L 332.935893 443.714457 
L 339.109217 444.001962 
L 345.282541 441.858005 
L 351.455865 436.405191 
L 357.62919 435.345841 
L 363.802514 432.523768 
L 369.975838 430.252574 
L 376.149162 431.996923 
L 382.322486 430.872437 
L 388.49581 428.37007 
L 394.669135 425.805178 
L 400.842459 422.440305 
L 407.015783 422.66787 
L 413.189107 419.89943 
L 419.362431 420.562706 
L 425.535755 418.028032 
L 431.709079 415.318606 
L 437.882404 413.710916 
L 444.055728 409.210752 
L 450.229052 404.602692 
L 456.402376 402.168147 
L 462.5757 399.918406 
L 468.749024 397.092398 
L 474.922348 396.889757 
L 481.095673 392.158064 
L 487.268997 390.134161 
L 493.442321 385.831836 
L 499.615645 383.935256 
L 505.788969 381.88088 
L 511.962293 379.224405 
L 518.135618 377.317723 
L 524.308942 372.142122 
L 530.482266 370.246945 
L 536.65559 367.001239 
L 542.828914 368.150498 
L 549.002238 366.601475 
L 555.175562 366.05814 
L 561.348887 364.132983 
L 567.522211 361.650679 
L 573.695535 359.702163 
L 579.868859 355.578618 
L 586.042183 353.592789 
L 592.215507 356.606454 
L 598.388831 352.73271 
L 604.562156 352.700328 
L 610.73548 348.43772 
L 616.908804 345.135454 
L 623.082128 343.562028 
L 629.255452 338.730302 
L 635.428776 335.487006 
L 641.602101 330.751184 
L 647.775425 328.092999 
L 653.948749 328.370179 
L 660.122073 324.762669 
L 666.295397 321.010531 
L 672.468721 317.024695 
L 678.642045 316.412168 
" clip-path="url(#pe2619459cf)" style="fill: none; stroke: #bcbd22; stroke-width: 1.5; stroke-linecap: square"/>
   </g>
   <g id="line2d_48">
    <path d="M 67.482955 522.670939 
L 73.656279 521.110842 
L 79.829603 521.746557 
L 86.002927 520.06925 
L 92.176251 515.189308 
L 98.349575 511.366254 
L 104.522899 505.500784 
L 110.696224 504.711933 
L 116.869548 505.458403 
L 123.042872 501.49329 
L 129.216196 498.380083 
L 135.38952 498.985588 
L 141.562844 497.941645 
L 147.736169 497.700117 
L 153.909493 497.232906 
L 160.082817 494.547825 
L 166.256141 495.259124 
L 172.429465 493.692678 
L 178.602789 491.184247 
L 184.776113 490.232166 
L 190.949438 490.987939 
L 197.122762 490.861165 
L 203.296086 488.294538 
L 209.46941 486.814938 
L 215.642734 483.31188 
L 221.816058 483.092245 
L 227.989382 481.890521 
L 234.162707 478.88555 
L 240.336031 472.530361 
L 246.509355 468.983654 
L 252.682679 468.176309 
L 258.856003 465.866337 
L 265.029327 466.010594 
L 271.202652 464.344811 
L 277.375976 462.450092 
L 283.5493 461.530918 
L 289.722624 458.952598 
L 295.895948 456.561153 
L 302.069272 462.493259 
L 308.242596 461.110025 
L 314.415921 459.336576 
L 320.589245 457.008134 
L 326.762569 452.300037 
L 332.935893 452.397591 
L 339.109217 450.377361 
L 345.282541 447.477996 
L 351.455865 450.709639 
L 357.62919 450.361992 
L 363.802514 447.30615 
L 369.975838 445.246435 
L 376.149162 442.9973 
L 382.322486 437.712847 
L 388.49581 432.334701 
L 394.669135 432.375042 
L 400.842459 427.848448 
L 407.015783 425.817386 
L 413.189107 424.18441 
L 419.362431 425.383822 
L 425.535755 426.13156 
L 431.709079 421.077753 
L 437.882404 417.259882 
L 444.055728 412.911661 
L 450.229052 409.800472 
L 456.402376 407.270936 
L 462.5757 402.238267 
L 468.749024 398.694507 
L 474.922348 397.636438 
L 481.095673 396.19625 
L 487.268997 396.395308 
L 493.442321 394.417515 
L 499.615645 391.386473 
L 505.788969 389.596551 
L 511.962293 387.847721 
L 518.135618 387.150119 
L 524.308942 384.933601 
L 530.482266 383.324088 
L 536.65559 384.159326 
L 542.828914 382.134203 
L 549.002238 380.464594 
L 555.175562 377.307365 
L 561.348887 373.503477 
L 567.522211 372.165562 
L 573.695535 369.032707 
L 579.868859 367.123068 
L 586.042183 363.67443 
L 592.215507 361.163122 
L 598.388831 362.697129 
L 604.562156 357.586564 
L 610.73548 353.984812 
L 616.908804 351.838394 
L 623.082128 352.879487 
L 629.255452 350.799367 
L 635.428776 351.972366 
L 641.602101 345.971623 
L 647.775425 342.576864 
L 653.948749 342.386163 
L 660.122073 341.419281 
L 666.295397 341.200051 
L 672.468721 341.909111 
L 678.642045 339.409468 
" clip-path="url(#pe2619459cf)" style="fill: none; stroke: #17becf; stroke-width: 1.5; stroke-linecap: square"/>
   </g>
   <g id="patch_9">
    <path d="M 36.925 534.04 
L 36.925 294.93 
" style="fill: none; stroke: #000000; stroke-width: 0.8; stroke-linejoin: miter; stroke-linecap: square"/>
   </g>
   <g id="patch_10">
    <path d="M 709.2 534.04 
L 709.2 294.93 
" style="fill: none; stroke: #000000; stroke-width: 0.8; stroke-linejoin: miter; stroke-linecap: square"/>
   </g>
   <g id="patch_11">
    <path d="M 36.925 534.04 
L 709.2 534.04 
" style="fill: none; stroke: #000000; stroke-width: 0.8; stroke-linejoin: miter; stroke-linecap: square"/>
   </g>
   <g id="patch_12">
    <path d="M 36.925 294.93 
L 709.2 294.93 
" style="fill: none; stroke: #000000; stroke-width: 0.8; stroke-linejoin: miter; stroke-linecap: square"/>
   </g>
   <g id="text_24">
    <!-- 20 Realizations of AR(1) Process with ϕ=1 -->
    <g transform="translate(247.094375 288.93) scale(0.12 -0.12)">
     <use xlink:href="#DejaVuSans-32"/>
     <use xlink:href="#DejaVuSans-30" x="63.623047"/>
     <use xlink:href="#DejaVuSans-20" x="127.246094"/>
     <use xlink:href="#DejaVuSans-52" x="159.033203"/>
     <use xlink:href="#DejaVuSans-65" x="224.015625"/>
     <use xlink:href="#DejaVuSans-61" x="285.539062"/>
     <use xlink:href="#DejaVuSans-6c" x="346.818359"/>
     <use xlink:href="#DejaVuSans-69" x="374.601562"/>
     <use xlink:href="#DejaVuSans-7a" x="402.384766"/>
     <use xlink:href="#DejaVuSans-61" x="454.875"/>
     <use xlink:href="#DejaVuSans-74" x="516.154297"/>
     <use xlink:href="#DejaVuSans-69" x="555.363281"/>
     <use xlink:href="#DejaVuSans-6f" x="583.146484"/>
     <use xlink:href="#DejaVuSans-6e" x="644.328125"/>
     <use xlink:href="#DejaVuSans-73" x="707.707031"/>
     <use xlink:href="#DejaVuSans-20" x="759.806641"/>
     <use xlink:href="#DejaVuSans-6f" x="791.59375"/>
     <use xlink:href="#DejaVuSans-66" x="852.775391"/>
     <use xlink:href="#DejaVuSans-20" x="887.980469"/>
     <use xlink:href="#DejaVuSans-41" x="919.767578"/>
     <use xlink:href="#DejaVuSans-52" x="988.175781"/>
     <use xlink:href="#DejaVuSans-28" x="1057.658203"/>
     <use xlink:href="#DejaVuSans-31" x="1096.671875"/>
     <use xlink:href="#DejaVuSans-29" x="1160.294922"/>
     <use xlink:href="#DejaVuSans-20" x="1199.308594"/>
     <use xlink:href="#DejaVuSans-50" x="1231.095703"/>
     <use xlink:href="#DejaVuSans-72" x="1289.648438"/>
     <use xlink:href="#DejaVuSans-6f" x="1328.511719"/>
     <use xlink:href="#DejaVuSans-63" x="1389.693359"/>
     <use xlink:href="#DejaVuSans-65" x="1444.673828"/>
     <use xlink:href="#DejaVuSans-73" x="1506.197266"/>
     <use xlink:href="#DejaVuSans-73" x="1558.296875"/>
     <use xlink:href="#DejaVuSans-20" x="1610.396484"/>
     <use xlink:href="#DejaVuSans-77" x="1642.183594"/>
     <use xlink:href="#DejaVuSans-69" x="1723.970703"/>
     <use xlink:href="#DejaVuSans-74" x="1751.753906"/>
     <use xlink:href="#DejaVuSans-68" x="1790.962891"/>
     <use xlink:href="#DejaVuSans-20" x="1854.341797"/>
     <use xlink:href="#DejaVuSans-3d5" x="1886.128906"/>
     <use xlink:href="#DejaVuSans-3d" x="1952.095703"/>
     <use xlink:href="#DejaVuSans-31" x="2035.884766"/>
    </g>
   </g>
  </g>
 </g>
 <defs>
  <clipPath id="p74e0e0b793">
   <rect x="36.925" y="26.16" width="672.275" height="239.11"/>
  </clipPath>
  <clipPath id="pe2619459cf">
   <rect x="36.925" y="294.93" width="672.275" height="239.11"/>
  </clipPath>
 </defs>
</svg>
