<?xml version="1.0" encoding="utf-8" standalone="no"?>
<!DOCTYPE svg PUBLIC "-//W3C//DTD SVG 1.1//EN"
  "http://www.w3.org/Graphics/SVG/1.1/DTD/svg11.dtd">
<svg xmlns:xlink="http://www.w3.org/1999/xlink" width="720pt" height="576pt" viewBox="0 0 720 576" xmlns="http://www.w3.org/2000/svg" version="1.1">
 <metadata>
  <rdf:RDF xmlns:dc="http://purl.org/dc/elements/1.1/" xmlns:cc="http://creativecommons.org/ns#" xmlns:rdf="http://www.w3.org/1999/02/22-rdf-syntax-ns#">
   <cc:Work>
    <dc:type rdf:resource="http://purl.org/dc/dcmitype/StillImage"/>
    <dc:date>2024-02-20T02:10:02.179159</dc:date>
    <dc:format>image/svg+xml</dc:format>
    <dc:creator>
     <cc:Agent>
      <dc:title>Matplotlib v3.8.2, https://matplotlib.org/</dc:title>
     </cc:Agent>
    </dc:creator>
   </cc:Work>
  </rdf:RDF>
 </metadata>
 <defs>
  <style type="text/css">*{stroke-linejoin: round; stroke-linecap: butt}</style>
 </defs>
 <g id="figure_1">
  <g id="patch_1">
   <path d="M 0 576 
L 720 576 
L 720 0 
L 0 0 
z
" style="fill: #ffffff"/>
  </g>
  <g id="axes_1">
   <g id="patch_2">
    <path d="M 64.465 265.27 
L 709.2 265.27 
L 709.2 26.16 
L 64.465 26.16 
z
" style="fill: #ffffff"/>
   </g>
   <g id="matplotlib.axis_1">
    <g id="xtick_1">
     <g id="line2d_1">
      <defs>
       <path id="mb59b0b5cbe" d="M 0 0 
L 0 3.5 
" style="stroke: #000000; stroke-width: 0.8"/>
      </defs>
      <g>
       <use xlink:href="#mb59b0b5cbe" x="93.771136" y="265.27" style="stroke: #000000; stroke-width: 0.8"/>
      </g>
     </g>
    </g>
    <g id="xtick_2">
     <g id="line2d_2">
      <g>
       <use xlink:href="#mb59b0b5cbe" x="212.179768" y="265.27" style="stroke: #000000; stroke-width: 0.8"/>
      </g>
     </g>
    </g>
    <g id="xtick_3">
     <g id="line2d_3">
      <g>
       <use xlink:href="#mb59b0b5cbe" x="330.5884" y="265.27" style="stroke: #000000; stroke-width: 0.8"/>
      </g>
     </g>
    </g>
    <g id="xtick_4">
     <g id="line2d_4">
      <g>
       <use xlink:href="#mb59b0b5cbe" x="448.997032" y="265.27" style="stroke: #000000; stroke-width: 0.8"/>
      </g>
     </g>
    </g>
    <g id="xtick_5">
     <g id="line2d_5">
      <g>
       <use xlink:href="#mb59b0b5cbe" x="567.405663" y="265.27" style="stroke: #000000; stroke-width: 0.8"/>
      </g>
     </g>
    </g>
    <g id="xtick_6">
     <g id="line2d_6">
      <g>
       <use xlink:href="#mb59b0b5cbe" x="685.814295" y="265.27" style="stroke: #000000; stroke-width: 0.8"/>
      </g>
     </g>
    </g>
   </g>
   <g id="matplotlib.axis_2">
    <g id="ytick_1">
     <g id="line2d_7">
      <defs>
       <path id="maedcd4232f" d="M 0 0 
L -3.5 0 
" style="stroke: #000000; stroke-width: 0.8"/>
      </defs>
      <g>
       <use xlink:href="#maedcd4232f" x="64.465" y="229.827687" style="stroke: #000000; stroke-width: 0.8"/>
      </g>
     </g>
     <g id="text_1">
      <!-- −20000 -->
      <g transform="translate(17.272813 233.626906) scale(0.1 -0.1)">
       <defs>
        <path id="DejaVuSans-2212" d="M 678 2272 
L 4684 2272 
L 4684 1741 
L 678 1741 
L 678 2272 
z
" transform="scale(0.015625)"/>
        <path id="DejaVuSans-32" d="M 1228 531 
L 3431 531 
L 3431 0 
L 469 0 
L 469 531 
Q 828 903 1448 1529 
Q 2069 2156 2228 2338 
Q 2531 2678 2651 2914 
Q 2772 3150 2772 3378 
Q 2772 3750 2511 3984 
Q 2250 4219 1831 4219 
Q 1534 4219 1204 4116 
Q 875 4013 500 3803 
L 500 4441 
Q 881 4594 1212 4672 
Q 1544 4750 1819 4750 
Q 2544 4750 2975 4387 
Q 3406 4025 3406 3419 
Q 3406 3131 3298 2873 
Q 3191 2616 2906 2266 
Q 2828 2175 2409 1742 
Q 1991 1309 1228 531 
z
" transform="scale(0.015625)"/>
        <path id="DejaVuSans-30" d="M 2034 4250 
Q 1547 4250 1301 3770 
Q 1056 3291 1056 2328 
Q 1056 1369 1301 889 
Q 1547 409 2034 409 
Q 2525 409 2770 889 
Q 3016 1369 3016 2328 
Q 3016 3291 2770 3770 
Q 2525 4250 2034 4250 
z
M 2034 4750 
Q 2819 4750 3233 4129 
Q 3647 3509 3647 2328 
Q 3647 1150 3233 529 
Q 2819 -91 2034 -91 
Q 1250 -91 836 529 
Q 422 1150 422 2328 
Q 422 3509 836 4129 
Q 1250 4750 2034 4750 
z
" transform="scale(0.015625)"/>
       </defs>
       <use xlink:href="#DejaVuSans-2212"/>
       <use xlink:href="#DejaVuSans-32" x="83.789062"/>
       <use xlink:href="#DejaVuSans-30" x="147.412109"/>
       <use xlink:href="#DejaVuSans-30" x="211.035156"/>
       <use xlink:href="#DejaVuSans-30" x="274.658203"/>
       <use xlink:href="#DejaVuSans-30" x="338.28125"/>
      </g>
     </g>
    </g>
    <g id="ytick_2">
     <g id="line2d_8">
      <g>
       <use xlink:href="#maedcd4232f" x="64.465" y="181.760979" style="stroke: #000000; stroke-width: 0.8"/>
      </g>
     </g>
     <g id="text_2">
      <!-- −15000 -->
      <g transform="translate(17.272813 185.560198) scale(0.1 -0.1)">
       <defs>
        <path id="DejaVuSans-31" d="M 794 531 
L 1825 531 
L 1825 4091 
L 703 3866 
L 703 4441 
L 1819 4666 
L 2450 4666 
L 2450 531 
L 3481 531 
L 3481 0 
L 794 0 
L 794 531 
z
" transform="scale(0.015625)"/>
        <path id="DejaVuSans-35" d="M 691 4666 
L 3169 4666 
L 3169 4134 
L 1269 4134 
L 1269 2991 
Q 1406 3038 1543 3061 
Q 1681 3084 1819 3084 
Q 2600 3084 3056 2656 
Q 3513 2228 3513 1497 
Q 3513 744 3044 326 
Q 2575 -91 1722 -91 
Q 1428 -91 1123 -41 
Q 819 9 494 109 
L 494 744 
Q 775 591 1075 516 
Q 1375 441 1709 441 
Q 2250 441 2565 725 
Q 2881 1009 2881 1497 
Q 2881 1984 2565 2268 
Q 2250 2553 1709 2553 
Q 1456 2553 1204 2497 
Q 953 2441 691 2322 
L 691 4666 
z
" transform="scale(0.015625)"/>
       </defs>
       <use xlink:href="#DejaVuSans-2212"/>
       <use xlink:href="#DejaVuSans-31" x="83.789062"/>
       <use xlink:href="#DejaVuSans-35" x="147.412109"/>
       <use xlink:href="#DejaVuSans-30" x="211.035156"/>
       <use xlink:href="#DejaVuSans-30" x="274.658203"/>
       <use xlink:href="#DejaVuSans-30" x="338.28125"/>
      </g>
     </g>
    </g>
    <g id="ytick_3">
     <g id="line2d_9">
      <g>
       <use xlink:href="#maedcd4232f" x="64.465" y="133.69427" style="stroke: #000000; stroke-width: 0.8"/>
      </g>
     </g>
     <g id="text_3">
      <!-- −10000 -->
      <g transform="translate(17.272813 137.493489) scale(0.1 -0.1)">
       <use xlink:href="#DejaVuSans-2212"/>
       <use xlink:href="#DejaVuSans-31" x="83.789062"/>
       <use xlink:href="#DejaVuSans-30" x="147.412109"/>
       <use xlink:href="#DejaVuSans-30" x="211.035156"/>
       <use xlink:href="#DejaVuSans-30" x="274.658203"/>
       <use xlink:href="#DejaVuSans-30" x="338.28125"/>
      </g>
     </g>
    </g>
    <g id="ytick_4">
     <g id="line2d_10">
      <g>
       <use xlink:href="#maedcd4232f" x="64.465" y="85.627561" style="stroke: #000000; stroke-width: 0.8"/>
      </g>
     </g>
     <g id="text_4">
      <!-- −5000 -->
      <g transform="translate(23.635313 89.42678) scale(0.1 -0.1)">
       <use xlink:href="#DejaVuSans-2212"/>
       <use xlink:href="#DejaVuSans-35" x="83.789062"/>
       <use xlink:href="#DejaVuSans-30" x="147.412109"/>
       <use xlink:href="#DejaVuSans-30" x="211.035156"/>
       <use xlink:href="#DejaVuSans-30" x="274.658203"/>
      </g>
     </g>
    </g>
    <g id="ytick_5">
     <g id="line2d_11">
      <g>
       <use xlink:href="#maedcd4232f" x="64.465" y="37.560853" style="stroke: #000000; stroke-width: 0.8"/>
      </g>
     </g>
     <g id="text_5">
      <!-- 0 -->
      <g transform="translate(51.1025 41.360071) scale(0.1 -0.1)">
       <use xlink:href="#DejaVuSans-30"/>
      </g>
     </g>
    </g>
   </g>
   <g id="line2d_12">
    <path d="M 93.771136 37.51725 
L 99.691568 37.441574 
L 105.612 37.31502 
L 111.532431 37.339827 
L 117.452863 37.14416 
L 123.373294 37.178088 
L 129.293726 37.137312 
L 135.214157 37.088971 
L 141.134589 37.116695 
L 147.055021 37.028636 
L 152.975452 37.130983 
L 158.895884 37.237105 
L 164.816315 37.263869 
L 170.736747 37.340225 
L 176.657179 37.223623 
L 182.57761 37.198916 
L 188.498042 37.31729 
L 194.418473 37.490251 
L 200.338905 37.480142 
L 206.259337 37.572203 
L 212.179768 37.565177 
L 218.1002 37.598965 
L 224.020631 37.615461 
L 229.941063 37.743979 
L 235.861494 37.760797 
L 241.781926 37.710392 
L 247.702358 37.798079 
L 253.622789 37.76398 
L 259.543221 37.717655 
L 265.463652 37.562007 
L 271.384084 37.728018 
L 277.304516 37.844247 
L 283.224947 37.895005 
L 289.145379 37.862829 
L 295.06581 37.862943 
L 300.986242 37.899705 
L 306.906674 38.000989 
L 312.827105 38.094207 
L 318.747537 38.234525 
L 324.667968 38.316569 
L 330.5884 38.390495 
L 336.508831 38.43147 
L 342.429263 38.461543 
L 348.349695 38.678334 
L 354.270126 38.780115 
L 360.190558 38.920755 
L 366.110989 39.13686 
L 372.031421 39.259496 
L 377.951853 39.343637 
L 383.872284 39.496861 
L 389.792716 39.64264 
L 395.713147 39.855493 
L 401.633579 39.956386 
L 407.554011 40.357817 
L 413.474442 40.699626 
L 419.394874 40.966701 
L 425.315305 41.464707 
L 431.235737 41.698627 
L 437.156169 42.091354 
L 443.0766 42.666069 
L 448.997032 43.03087 
L 454.917463 43.565558 
L 460.837895 44.223523 
L 466.758326 44.753352 
L 472.678758 45.382818 
L 478.59919 46.107119 
L 484.519621 46.896065 
L 490.440053 47.772995 
L 496.360484 48.836907 
L 502.280916 49.990073 
L 508.201348 51.219583 
L 514.121779 52.473627 
L 520.042211 53.954516 
L 525.962642 55.577838 
L 531.883074 57.623259 
L 537.803506 59.651787 
L 543.723937 61.904298 
L 549.644369 64.357981 
L 555.5648 66.89478 
L 561.485232 69.720474 
L 567.405663 72.922097 
L 573.326095 76.540059 
L 579.246527 80.369647 
L 585.166958 84.625898 
L 591.08739 89.489576 
L 597.007821 94.770456 
L 602.928253 100.342293 
L 608.848685 106.601733 
L 614.769116 113.509377 
L 620.689548 121.261992 
L 626.609979 129.624001 
L 632.530411 138.852468 
L 638.450843 148.904181 
L 644.371274 159.958565 
L 650.291706 172.188953 
L 656.212137 185.689547 
L 662.132569 200.57388 
L 668.053 216.853601 
L 673.973432 234.763438 
L 679.893864 254.401364 
" clip-path="url(#p17f05d65c8)" style="fill: none; stroke: #1f77b4; stroke-width: 1.5; stroke-linecap: square"/>
   </g>
   <g id="patch_3">
    <path d="M 64.465 265.27 
L 64.465 26.16 
" style="fill: none; stroke: #000000; stroke-width: 0.8; stroke-linejoin: miter; stroke-linecap: square"/>
   </g>
   <g id="patch_4">
    <path d="M 709.2 265.27 
L 709.2 26.16 
" style="fill: none; stroke: #000000; stroke-width: 0.8; stroke-linejoin: miter; stroke-linecap: square"/>
   </g>
   <g id="patch_5">
    <path d="M 64.465 265.27 
L 709.2 265.27 
" style="fill: none; stroke: #000000; stroke-width: 0.8; stroke-linejoin: miter; stroke-linecap: square"/>
   </g>
   <g id="patch_6">
    <path d="M 64.465 26.16 
L 709.2 26.16 
" style="fill: none; stroke: #000000; stroke-width: 0.8; stroke-linejoin: miter; stroke-linecap: square"/>
   </g>
   <g id="text_6">
    <!-- One Realization of AR(1) Process with ϕ=1.1 -->
    <g transform="translate(253.683125 20.16) scale(0.12 -0.12)">
     <defs>
      <path id="DejaVuSans-4f" d="M 2522 4238 
Q 1834 4238 1429 3725 
Q 1025 3213 1025 2328 
Q 1025 1447 1429 934 
Q 1834 422 2522 422 
Q 3209 422 3611 934 
Q 4013 1447 4013 2328 
Q 4013 3213 3611 3725 
Q 3209 4238 2522 4238 
z
M 2522 4750 
Q 3503 4750 4090 4092 
Q 4678 3434 4678 2328 
Q 4678 1225 4090 567 
Q 3503 -91 2522 -91 
Q 1538 -91 948 565 
Q 359 1222 359 2328 
Q 359 3434 948 4092 
Q 1538 4750 2522 4750 
z
" transform="scale(0.015625)"/>
      <path id="DejaVuSans-6e" d="M 3513 2113 
L 3513 0 
L 2938 0 
L 2938 2094 
Q 2938 2591 2744 2837 
Q 2550 3084 2163 3084 
Q 1697 3084 1428 2787 
Q 1159 2491 1159 1978 
L 1159 0 
L 581 0 
L 581 3500 
L 1159 3500 
L 1159 2956 
Q 1366 3272 1645 3428 
Q 1925 3584 2291 3584 
Q 2894 3584 3203 3211 
Q 3513 2838 3513 2113 
z
" transform="scale(0.015625)"/>
      <path id="DejaVuSans-65" d="M 3597 1894 
L 3597 1613 
L 953 1613 
Q 991 1019 1311 708 
Q 1631 397 2203 397 
Q 2534 397 2845 478 
Q 3156 559 3463 722 
L 3463 178 
Q 3153 47 2828 -22 
Q 2503 -91 2169 -91 
Q 1331 -91 842 396 
Q 353 884 353 1716 
Q 353 2575 817 3079 
Q 1281 3584 2069 3584 
Q 2775 3584 3186 3129 
Q 3597 2675 3597 1894 
z
M 3022 2063 
Q 3016 2534 2758 2815 
Q 2500 3097 2075 3097 
Q 1594 3097 1305 2825 
Q 1016 2553 972 2059 
L 3022 2063 
z
" transform="scale(0.015625)"/>
      <path id="DejaVuSans-20" transform="scale(0.015625)"/>
      <path id="DejaVuSans-52" d="M 2841 2188 
Q 3044 2119 3236 1894 
Q 3428 1669 3622 1275 
L 4263 0 
L 3584 0 
L 2988 1197 
Q 2756 1666 2539 1819 
Q 2322 1972 1947 1972 
L 1259 1972 
L 1259 0 
L 628 0 
L 628 4666 
L 2053 4666 
Q 2853 4666 3247 4331 
Q 3641 3997 3641 3322 
Q 3641 2881 3436 2590 
Q 3231 2300 2841 2188 
z
M 1259 4147 
L 1259 2491 
L 2053 2491 
Q 2509 2491 2742 2702 
Q 2975 2913 2975 3322 
Q 2975 3731 2742 3939 
Q 2509 4147 2053 4147 
L 1259 4147 
z
" transform="scale(0.015625)"/>
      <path id="DejaVuSans-61" d="M 2194 1759 
Q 1497 1759 1228 1600 
Q 959 1441 959 1056 
Q 959 750 1161 570 
Q 1363 391 1709 391 
Q 2188 391 2477 730 
Q 2766 1069 2766 1631 
L 2766 1759 
L 2194 1759 
z
M 3341 1997 
L 3341 0 
L 2766 0 
L 2766 531 
Q 2569 213 2275 61 
Q 1981 -91 1556 -91 
Q 1019 -91 701 211 
Q 384 513 384 1019 
Q 384 1609 779 1909 
Q 1175 2209 1959 2209 
L 2766 2209 
L 2766 2266 
Q 2766 2663 2505 2880 
Q 2244 3097 1772 3097 
Q 1472 3097 1187 3025 
Q 903 2953 641 2809 
L 641 3341 
Q 956 3463 1253 3523 
Q 1550 3584 1831 3584 
Q 2591 3584 2966 3190 
Q 3341 2797 3341 1997 
z
" transform="scale(0.015625)"/>
      <path id="DejaVuSans-6c" d="M 603 4863 
L 1178 4863 
L 1178 0 
L 603 0 
L 603 4863 
z
" transform="scale(0.015625)"/>
      <path id="DejaVuSans-69" d="M 603 3500 
L 1178 3500 
L 1178 0 
L 603 0 
L 603 3500 
z
M 603 4863 
L 1178 4863 
L 1178 4134 
L 603 4134 
L 603 4863 
z
" transform="scale(0.015625)"/>
      <path id="DejaVuSans-7a" d="M 353 3500 
L 3084 3500 
L 3084 2975 
L 922 459 
L 3084 459 
L 3084 0 
L 275 0 
L 275 525 
L 2438 3041 
L 353 3041 
L 353 3500 
z
" transform="scale(0.015625)"/>
      <path id="DejaVuSans-74" d="M 1172 4494 
L 1172 3500 
L 2356 3500 
L 2356 3053 
L 1172 3053 
L 1172 1153 
Q 1172 725 1289 603 
Q 1406 481 1766 481 
L 2356 481 
L 2356 0 
L 1766 0 
Q 1100 0 847 248 
Q 594 497 594 1153 
L 594 3053 
L 172 3053 
L 172 3500 
L 594 3500 
L 594 4494 
L 1172 4494 
z
" transform="scale(0.015625)"/>
      <path id="DejaVuSans-6f" d="M 1959 3097 
Q 1497 3097 1228 2736 
Q 959 2375 959 1747 
Q 959 1119 1226 758 
Q 1494 397 1959 397 
Q 2419 397 2687 759 
Q 2956 1122 2956 1747 
Q 2956 2369 2687 2733 
Q 2419 3097 1959 3097 
z
M 1959 3584 
Q 2709 3584 3137 3096 
Q 3566 2609 3566 1747 
Q 3566 888 3137 398 
Q 2709 -91 1959 -91 
Q 1206 -91 779 398 
Q 353 888 353 1747 
Q 353 2609 779 3096 
Q 1206 3584 1959 3584 
z
" transform="scale(0.015625)"/>
      <path id="DejaVuSans-66" d="M 2375 4863 
L 2375 4384 
L 1825 4384 
Q 1516 4384 1395 4259 
Q 1275 4134 1275 3809 
L 1275 3500 
L 2222 3500 
L 2222 3053 
L 1275 3053 
L 1275 0 
L 697 0 
L 697 3053 
L 147 3053 
L 147 3500 
L 697 3500 
L 697 3744 
Q 697 4328 969 4595 
Q 1241 4863 1831 4863 
L 2375 4863 
z
" transform="scale(0.015625)"/>
      <path id="DejaVuSans-41" d="M 2188 4044 
L 1331 1722 
L 3047 1722 
L 2188 4044 
z
M 1831 4666 
L 2547 4666 
L 4325 0 
L 3669 0 
L 3244 1197 
L 1141 1197 
L 716 0 
L 50 0 
L 1831 4666 
z
" transform="scale(0.015625)"/>
      <path id="DejaVuSans-28" d="M 1984 4856 
Q 1566 4138 1362 3434 
Q 1159 2731 1159 2009 
Q 1159 1288 1364 580 
Q 1569 -128 1984 -844 
L 1484 -844 
Q 1016 -109 783 600 
Q 550 1309 550 2009 
Q 550 2706 781 3412 
Q 1013 4119 1484 4856 
L 1984 4856 
z
" transform="scale(0.015625)"/>
      <path id="DejaVuSans-29" d="M 513 4856 
L 1013 4856 
Q 1481 4119 1714 3412 
Q 1947 2706 1947 2009 
Q 1947 1309 1714 600 
Q 1481 -109 1013 -844 
L 513 -844 
Q 928 -128 1133 580 
Q 1338 1288 1338 2009 
Q 1338 2731 1133 3434 
Q 928 4138 513 4856 
z
" transform="scale(0.015625)"/>
      <path id="DejaVuSans-50" d="M 1259 4147 
L 1259 2394 
L 2053 2394 
Q 2494 2394 2734 2622 
Q 2975 2850 2975 3272 
Q 2975 3691 2734 3919 
Q 2494 4147 2053 4147 
L 1259 4147 
z
M 628 4666 
L 2053 4666 
Q 2838 4666 3239 4311 
Q 3641 3956 3641 3272 
Q 3641 2581 3239 2228 
Q 2838 1875 2053 1875 
L 1259 1875 
L 1259 0 
L 628 0 
L 628 4666 
z
" transform="scale(0.015625)"/>
      <path id="DejaVuSans-72" d="M 2631 2963 
Q 2534 3019 2420 3045 
Q 2306 3072 2169 3072 
Q 1681 3072 1420 2755 
Q 1159 2438 1159 1844 
L 1159 0 
L 581 0 
L 581 3500 
L 1159 3500 
L 1159 2956 
Q 1341 3275 1631 3429 
Q 1922 3584 2338 3584 
Q 2397 3584 2469 3576 
Q 2541 3569 2628 3553 
L 2631 2963 
z
" transform="scale(0.015625)"/>
      <path id="DejaVuSans-63" d="M 3122 3366 
L 3122 2828 
Q 2878 2963 2633 3030 
Q 2388 3097 2138 3097 
Q 1578 3097 1268 2742 
Q 959 2388 959 1747 
Q 959 1106 1268 751 
Q 1578 397 2138 397 
Q 2388 397 2633 464 
Q 2878 531 3122 666 
L 3122 134 
Q 2881 22 2623 -34 
Q 2366 -91 2075 -91 
Q 1284 -91 818 406 
Q 353 903 353 1747 
Q 353 2603 823 3093 
Q 1294 3584 2113 3584 
Q 2378 3584 2631 3529 
Q 2884 3475 3122 3366 
z
" transform="scale(0.015625)"/>
      <path id="DejaVuSans-73" d="M 2834 3397 
L 2834 2853 
Q 2591 2978 2328 3040 
Q 2066 3103 1784 3103 
Q 1356 3103 1142 2972 
Q 928 2841 928 2578 
Q 928 2378 1081 2264 
Q 1234 2150 1697 2047 
L 1894 2003 
Q 2506 1872 2764 1633 
Q 3022 1394 3022 966 
Q 3022 478 2636 193 
Q 2250 -91 1575 -91 
Q 1294 -91 989 -36 
Q 684 19 347 128 
L 347 722 
Q 666 556 975 473 
Q 1284 391 1588 391 
Q 1994 391 2212 530 
Q 2431 669 2431 922 
Q 2431 1156 2273 1281 
Q 2116 1406 1581 1522 
L 1381 1569 
Q 847 1681 609 1914 
Q 372 2147 372 2553 
Q 372 3047 722 3315 
Q 1072 3584 1716 3584 
Q 2034 3584 2315 3537 
Q 2597 3491 2834 3397 
z
" transform="scale(0.015625)"/>
      <path id="DejaVuSans-77" d="M 269 3500 
L 844 3500 
L 1563 769 
L 2278 3500 
L 2956 3500 
L 3675 769 
L 4391 3500 
L 4966 3500 
L 4050 0 
L 3372 0 
L 2619 2869 
L 1863 0 
L 1184 0 
L 269 3500 
z
" transform="scale(0.015625)"/>
      <path id="DejaVuSans-68" d="M 3513 2113 
L 3513 0 
L 2938 0 
L 2938 2094 
Q 2938 2591 2744 2837 
Q 2550 3084 2163 3084 
Q 1697 3084 1428 2787 
Q 1159 2491 1159 1978 
L 1159 0 
L 581 0 
L 581 4863 
L 1159 4863 
L 1159 2956 
Q 1366 3272 1645 3428 
Q 1925 3584 2291 3584 
Q 2894 3584 3203 3211 
Q 3513 2838 3513 2113 
z
" transform="scale(0.015625)"/>
      <path id="DejaVuSans-3d5" d="M 2388 4863 
L 2388 3572 
Q 3009 3572 3425 3094 
Q 3853 2606 3853 1747 
Q 3853 888 3425 400 
Q 3009 -78 2388 -78 
L 2388 -1331 
L 1816 -1331 
L 1816 -78 
Q 1194 -78 775 400 
Q 350 888 350 1747 
Q 350 2606 775 3094 
Q 1194 3572 1816 3572 
L 1816 4863 
L 2388 4863 
z
M 2388 434 
Q 2741 434 2981 756 
Q 3244 1116 3247 1747 
Q 3250 2372 2981 2738 
Q 2741 3059 2388 3059 
L 2388 434 
z
M 1816 434 
L 1816 3059 
Q 1463 3059 1225 2738 
Q 953 2372 956 1747 
Q 959 1116 1225 756 
Q 1463 434 1816 434 
z
" transform="scale(0.015625)"/>
      <path id="DejaVuSans-3d" d="M 678 2906 
L 4684 2906 
L 4684 2381 
L 678 2381 
L 678 2906 
z
M 678 1631 
L 4684 1631 
L 4684 1100 
L 678 1100 
L 678 1631 
z
" transform="scale(0.015625)"/>
      <path id="DejaVuSans-2e" d="M 684 794 
L 1344 794 
L 1344 0 
L 684 0 
L 684 794 
z
" transform="scale(0.015625)"/>
     </defs>
     <use xlink:href="#DejaVuSans-4f"/>
     <use xlink:href="#DejaVuSans-6e" x="78.710938"/>
     <use xlink:href="#DejaVuSans-65" x="142.089844"/>
     <use xlink:href="#DejaVuSans-20" x="203.613281"/>
     <use xlink:href="#DejaVuSans-52" x="235.400391"/>
     <use xlink:href="#DejaVuSans-65" x="300.382812"/>
     <use xlink:href="#DejaVuSans-61" x="361.90625"/>
     <use xlink:href="#DejaVuSans-6c" x="423.185547"/>
     <use xlink:href="#DejaVuSans-69" x="450.96875"/>
     <use xlink:href="#DejaVuSans-7a" x="478.751953"/>
     <use xlink:href="#DejaVuSans-61" x="531.242188"/>
     <use xlink:href="#DejaVuSans-74" x="592.521484"/>
     <use xlink:href="#DejaVuSans-69" x="631.730469"/>
     <use xlink:href="#DejaVuSans-6f" x="659.513672"/>
     <use xlink:href="#DejaVuSans-6e" x="720.695312"/>
     <use xlink:href="#DejaVuSans-20" x="784.074219"/>
     <use xlink:href="#DejaVuSans-6f" x="815.861328"/>
     <use xlink:href="#DejaVuSans-66" x="877.042969"/>
     <use xlink:href="#DejaVuSans-20" x="912.248047"/>
     <use xlink:href="#DejaVuSans-41" x="944.035156"/>
     <use xlink:href="#DejaVuSans-52" x="1012.443359"/>
     <use xlink:href="#DejaVuSans-28" x="1081.925781"/>
     <use xlink:href="#DejaVuSans-31" x="1120.939453"/>
     <use xlink:href="#DejaVuSans-29" x="1184.5625"/>
     <use xlink:href="#DejaVuSans-20" x="1223.576172"/>
     <use xlink:href="#DejaVuSans-50" x="1255.363281"/>
     <use xlink:href="#DejaVuSans-72" x="1313.916016"/>
     <use xlink:href="#DejaVuSans-6f" x="1352.779297"/>
     <use xlink:href="#DejaVuSans-63" x="1413.960938"/>
     <use xlink:href="#DejaVuSans-65" x="1468.941406"/>
     <use xlink:href="#DejaVuSans-73" x="1530.464844"/>
     <use xlink:href="#DejaVuSans-73" x="1582.564453"/>
     <use xlink:href="#DejaVuSans-20" x="1634.664062"/>
     <use xlink:href="#DejaVuSans-77" x="1666.451172"/>
     <use xlink:href="#DejaVuSans-69" x="1748.238281"/>
     <use xlink:href="#DejaVuSans-74" x="1776.021484"/>
     <use xlink:href="#DejaVuSans-68" x="1815.230469"/>
     <use xlink:href="#DejaVuSans-20" x="1878.609375"/>
     <use xlink:href="#DejaVuSans-3d5" x="1910.396484"/>
     <use xlink:href="#DejaVuSans-3d" x="1976.363281"/>
     <use xlink:href="#DejaVuSans-31" x="2060.152344"/>
     <use xlink:href="#DejaVuSans-2e" x="2123.775391"/>
     <use xlink:href="#DejaVuSans-31" x="2155.5625"/>
    </g>
   </g>
   <g id="legend_1">
    <g id="patch_7">
     <path d="M 523.4 48.838125 
L 702.2 48.838125 
Q 704.2 48.838125 704.2 46.838125 
L 704.2 33.16 
Q 704.2 31.16 702.2 31.16 
L 523.4 31.16 
Q 521.4 31.16 521.4 33.16 
L 521.4 46.838125 
Q 521.4 48.838125 523.4 48.838125 
z
" style="fill: #ffffff; opacity: 0.8; stroke: #cccccc; stroke-linejoin: miter"/>
    </g>
    <g id="line2d_13">
     <path d="M 525.4 39.258438 
L 535.4 39.258438 
L 545.4 39.258438 
" style="fill: none; stroke: #1f77b4; stroke-width: 1.5; stroke-linecap: square"/>
    </g>
    <g id="text_7">
     <!-- AR(1) with c=0, σ=10, ϕ=1.1 -->
     <g transform="translate(553.4 42.758438) scale(0.1 -0.1)">
      <defs>
       <path id="DejaVuSans-2c" d="M 750 794 
L 1409 794 
L 1409 256 
L 897 -744 
L 494 -744 
L 750 256 
L 750 794 
z
" transform="scale(0.015625)"/>
       <path id="DejaVuSans-3c3" d="M 1959 3044 
Q 1484 3044 1228 2700 
Q 959 2341 959 1747 
Q 959 1119 1226 758 
Q 1494 397 1959 397 
Q 2419 397 2687 759 
Q 2956 1122 2956 1747 
Q 2956 2319 2688 2700 
Q 2441 3044 1959 3044 
z
M 1959 3500 
L 3869 3500 
L 3869 2925 
L 3225 2925 
Q 3566 2438 3566 1747 
Q 3566 888 3138 400 
Q 2709 -91 1959 -91 
Q 1206 -91 781 400 
Q 353 888 353 1747 
Q 353 2613 781 3097 
Q 1134 3500 1959 3500 
z
" transform="scale(0.015625)"/>
      </defs>
      <use xlink:href="#DejaVuSans-41"/>
      <use xlink:href="#DejaVuSans-52" x="68.408203"/>
      <use xlink:href="#DejaVuSans-28" x="137.890625"/>
      <use xlink:href="#DejaVuSans-31" x="176.904297"/>
      <use xlink:href="#DejaVuSans-29" x="240.527344"/>
      <use xlink:href="#DejaVuSans-20" x="279.541016"/>
      <use xlink:href="#DejaVuSans-77" x="311.328125"/>
      <use xlink:href="#DejaVuSans-69" x="393.115234"/>
      <use xlink:href="#DejaVuSans-74" x="420.898438"/>
      <use xlink:href="#DejaVuSans-68" x="460.107422"/>
      <use xlink:href="#DejaVuSans-20" x="523.486328"/>
      <use xlink:href="#DejaVuSans-63" x="555.273438"/>
      <use xlink:href="#DejaVuSans-3d" x="610.253906"/>
      <use xlink:href="#DejaVuSans-30" x="694.042969"/>
      <use xlink:href="#DejaVuSans-2c" x="757.666016"/>
      <use xlink:href="#DejaVuSans-20" x="789.453125"/>
      <use xlink:href="#DejaVuSans-3c3" x="821.240234"/>
      <use xlink:href="#DejaVuSans-3d" x="884.619141"/>
      <use xlink:href="#DejaVuSans-31" x="968.408203"/>
      <use xlink:href="#DejaVuSans-30" x="1032.03125"/>
      <use xlink:href="#DejaVuSans-2c" x="1095.654297"/>
      <use xlink:href="#DejaVuSans-20" x="1127.441406"/>
      <use xlink:href="#DejaVuSans-3d5" x="1159.228516"/>
      <use xlink:href="#DejaVuSans-3d" x="1225.195312"/>
      <use xlink:href="#DejaVuSans-31" x="1308.984375"/>
      <use xlink:href="#DejaVuSans-2e" x="1372.607422"/>
      <use xlink:href="#DejaVuSans-31" x="1404.394531"/>
     </g>
    </g>
   </g>
  </g>
  <g id="axes_2">
   <g id="patch_8">
    <path d="M 64.465 534.04 
L 709.2 534.04 
L 709.2 294.93 
L 64.465 294.93 
z
" style="fill: #ffffff"/>
   </g>
   <g id="matplotlib.axis_3">
    <g id="xtick_7">
     <g id="line2d_14">
      <g>
       <use xlink:href="#mb59b0b5cbe" x="93.771136" y="534.04" style="stroke: #000000; stroke-width: 0.8"/>
      </g>
     </g>
     <g id="text_8">
      <!-- 0 -->
      <g transform="translate(90.589886 548.638438) scale(0.1 -0.1)">
       <use xlink:href="#DejaVuSans-30"/>
      </g>
     </g>
    </g>
    <g id="xtick_8">
     <g id="line2d_15">
      <g>
       <use xlink:href="#mb59b0b5cbe" x="212.179768" y="534.04" style="stroke: #000000; stroke-width: 0.8"/>
      </g>
     </g>
     <g id="text_9">
      <!-- 20 -->
      <g transform="translate(205.817268 548.638438) scale(0.1 -0.1)">
       <use xlink:href="#DejaVuSans-32"/>
       <use xlink:href="#DejaVuSans-30" x="63.623047"/>
      </g>
     </g>
    </g>
    <g id="xtick_9">
     <g id="line2d_16">
      <g>
       <use xlink:href="#mb59b0b5cbe" x="330.5884" y="534.04" style="stroke: #000000; stroke-width: 0.8"/>
      </g>
     </g>
     <g id="text_10">
      <!-- 40 -->
      <g transform="translate(324.2259 548.638438) scale(0.1 -0.1)">
       <defs>
        <path id="DejaVuSans-34" d="M 2419 4116 
L 825 1625 
L 2419 1625 
L 2419 4116 
z
M 2253 4666 
L 3047 4666 
L 3047 1625 
L 3713 1625 
L 3713 1100 
L 3047 1100 
L 3047 0 
L 2419 0 
L 2419 1100 
L 313 1100 
L 313 1709 
L 2253 4666 
z
" transform="scale(0.015625)"/>
       </defs>
       <use xlink:href="#DejaVuSans-34"/>
       <use xlink:href="#DejaVuSans-30" x="63.623047"/>
      </g>
     </g>
    </g>
    <g id="xtick_10">
     <g id="line2d_17">
      <g>
       <use xlink:href="#mb59b0b5cbe" x="448.997032" y="534.04" style="stroke: #000000; stroke-width: 0.8"/>
      </g>
     </g>
     <g id="text_11">
      <!-- 60 -->
      <g transform="translate(442.634532 548.638438) scale(0.1 -0.1)">
       <defs>
        <path id="DejaVuSans-36" d="M 2113 2584 
Q 1688 2584 1439 2293 
Q 1191 2003 1191 1497 
Q 1191 994 1439 701 
Q 1688 409 2113 409 
Q 2538 409 2786 701 
Q 3034 994 3034 1497 
Q 3034 2003 2786 2293 
Q 2538 2584 2113 2584 
z
M 3366 4563 
L 3366 3988 
Q 3128 4100 2886 4159 
Q 2644 4219 2406 4219 
Q 1781 4219 1451 3797 
Q 1122 3375 1075 2522 
Q 1259 2794 1537 2939 
Q 1816 3084 2150 3084 
Q 2853 3084 3261 2657 
Q 3669 2231 3669 1497 
Q 3669 778 3244 343 
Q 2819 -91 2113 -91 
Q 1303 -91 875 529 
Q 447 1150 447 2328 
Q 447 3434 972 4092 
Q 1497 4750 2381 4750 
Q 2619 4750 2861 4703 
Q 3103 4656 3366 4563 
z
" transform="scale(0.015625)"/>
       </defs>
       <use xlink:href="#DejaVuSans-36"/>
       <use xlink:href="#DejaVuSans-30" x="63.623047"/>
      </g>
     </g>
    </g>
    <g id="xtick_11">
     <g id="line2d_18">
      <g>
       <use xlink:href="#mb59b0b5cbe" x="567.405663" y="534.04" style="stroke: #000000; stroke-width: 0.8"/>
      </g>
     </g>
     <g id="text_12">
      <!-- 80 -->
      <g transform="translate(561.043163 548.638438) scale(0.1 -0.1)">
       <defs>
        <path id="DejaVuSans-38" d="M 2034 2216 
Q 1584 2216 1326 1975 
Q 1069 1734 1069 1313 
Q 1069 891 1326 650 
Q 1584 409 2034 409 
Q 2484 409 2743 651 
Q 3003 894 3003 1313 
Q 3003 1734 2745 1975 
Q 2488 2216 2034 2216 
z
M 1403 2484 
Q 997 2584 770 2862 
Q 544 3141 544 3541 
Q 544 4100 942 4425 
Q 1341 4750 2034 4750 
Q 2731 4750 3128 4425 
Q 3525 4100 3525 3541 
Q 3525 3141 3298 2862 
Q 3072 2584 2669 2484 
Q 3125 2378 3379 2068 
Q 3634 1759 3634 1313 
Q 3634 634 3220 271 
Q 2806 -91 2034 -91 
Q 1263 -91 848 271 
Q 434 634 434 1313 
Q 434 1759 690 2068 
Q 947 2378 1403 2484 
z
M 1172 3481 
Q 1172 3119 1398 2916 
Q 1625 2713 2034 2713 
Q 2441 2713 2670 2916 
Q 2900 3119 2900 3481 
Q 2900 3844 2670 4047 
Q 2441 4250 2034 4250 
Q 1625 4250 1398 4047 
Q 1172 3844 1172 3481 
z
" transform="scale(0.015625)"/>
       </defs>
       <use xlink:href="#DejaVuSans-38"/>
       <use xlink:href="#DejaVuSans-30" x="63.623047"/>
      </g>
     </g>
    </g>
    <g id="xtick_12">
     <g id="line2d_19">
      <g>
       <use xlink:href="#mb59b0b5cbe" x="685.814295" y="534.04" style="stroke: #000000; stroke-width: 0.8"/>
      </g>
     </g>
     <g id="text_13">
      <!-- 100 -->
      <g transform="translate(676.270545 548.638438) scale(0.1 -0.1)">
       <use xlink:href="#DejaVuSans-31"/>
       <use xlink:href="#DejaVuSans-30" x="63.623047"/>
       <use xlink:href="#DejaVuSans-30" x="127.246094"/>
      </g>
     </g>
    </g>
    <g id="text_14">
     <!-- t -->
     <g transform="translate(384.872344 562.316562) scale(0.1 -0.1)">
      <use xlink:href="#DejaVuSans-74"/>
     </g>
    </g>
   </g>
   <g id="matplotlib.axis_4">
    <g id="ytick_6">
     <g id="line2d_20">
      <g>
       <use xlink:href="#maedcd4232f" x="64.465" y="512.821463" style="stroke: #000000; stroke-width: 0.8"/>
      </g>
     </g>
     <g id="text_15">
      <!-- −600000 -->
      <g transform="translate(10.910313 516.620682) scale(0.1 -0.1)">
       <use xlink:href="#DejaVuSans-2212"/>
       <use xlink:href="#DejaVuSans-36" x="83.789062"/>
       <use xlink:href="#DejaVuSans-30" x="147.412109"/>
       <use xlink:href="#DejaVuSans-30" x="211.035156"/>
       <use xlink:href="#DejaVuSans-30" x="274.658203"/>
       <use xlink:href="#DejaVuSans-30" x="338.28125"/>
       <use xlink:href="#DejaVuSans-30" x="401.904297"/>
      </g>
     </g>
    </g>
    <g id="ytick_7">
     <g id="line2d_21">
      <g>
       <use xlink:href="#maedcd4232f" x="64.465" y="479.455692" style="stroke: #000000; stroke-width: 0.8"/>
      </g>
     </g>
     <g id="text_16">
      <!-- −400000 -->
      <g transform="translate(10.910313 483.25491) scale(0.1 -0.1)">
       <use xlink:href="#DejaVuSans-2212"/>
       <use xlink:href="#DejaVuSans-34" x="83.789062"/>
       <use xlink:href="#DejaVuSans-30" x="147.412109"/>
       <use xlink:href="#DejaVuSans-30" x="211.035156"/>
       <use xlink:href="#DejaVuSans-30" x="274.658203"/>
       <use xlink:href="#DejaVuSans-30" x="338.28125"/>
       <use xlink:href="#DejaVuSans-30" x="401.904297"/>
      </g>
     </g>
    </g>
    <g id="ytick_8">
     <g id="line2d_22">
      <g>
       <use xlink:href="#maedcd4232f" x="64.465" y="446.08992" style="stroke: #000000; stroke-width: 0.8"/>
      </g>
     </g>
     <g id="text_17">
      <!-- −200000 -->
      <g transform="translate(10.910313 449.889138) scale(0.1 -0.1)">
       <use xlink:href="#DejaVuSans-2212"/>
       <use xlink:href="#DejaVuSans-32" x="83.789062"/>
       <use xlink:href="#DejaVuSans-30" x="147.412109"/>
       <use xlink:href="#DejaVuSans-30" x="211.035156"/>
       <use xlink:href="#DejaVuSans-30" x="274.658203"/>
       <use xlink:href="#DejaVuSans-30" x="338.28125"/>
       <use xlink:href="#DejaVuSans-30" x="401.904297"/>
      </g>
     </g>
    </g>
    <g id="ytick_9">
     <g id="line2d_23">
      <g>
       <use xlink:href="#maedcd4232f" x="64.465" y="412.724148" style="stroke: #000000; stroke-width: 0.8"/>
      </g>
     </g>
     <g id="text_18">
      <!-- 0 -->
      <g transform="translate(51.1025 416.523367) scale(0.1 -0.1)">
       <use xlink:href="#DejaVuSans-30"/>
      </g>
     </g>
    </g>
    <g id="ytick_10">
     <g id="line2d_24">
      <g>
       <use xlink:href="#maedcd4232f" x="64.465" y="379.358376" style="stroke: #000000; stroke-width: 0.8"/>
      </g>
     </g>
     <g id="text_19">
      <!-- 200000 -->
      <g transform="translate(19.29 383.157595) scale(0.1 -0.1)">
       <use xlink:href="#DejaVuSans-32"/>
       <use xlink:href="#DejaVuSans-30" x="63.623047"/>
       <use xlink:href="#DejaVuSans-30" x="127.246094"/>
       <use xlink:href="#DejaVuSans-30" x="190.869141"/>
       <use xlink:href="#DejaVuSans-30" x="254.492188"/>
       <use xlink:href="#DejaVuSans-30" x="318.115234"/>
      </g>
     </g>
    </g>
    <g id="ytick_11">
     <g id="line2d_25">
      <g>
       <use xlink:href="#maedcd4232f" x="64.465" y="345.992604" style="stroke: #000000; stroke-width: 0.8"/>
      </g>
     </g>
     <g id="text_20">
      <!-- 400000 -->
      <g transform="translate(19.29 349.791823) scale(0.1 -0.1)">
       <use xlink:href="#DejaVuSans-34"/>
       <use xlink:href="#DejaVuSans-30" x="63.623047"/>
       <use xlink:href="#DejaVuSans-30" x="127.246094"/>
       <use xlink:href="#DejaVuSans-30" x="190.869141"/>
       <use xlink:href="#DejaVuSans-30" x="254.492188"/>
       <use xlink:href="#DejaVuSans-30" x="318.115234"/>
      </g>
     </g>
    </g>
    <g id="ytick_12">
     <g id="line2d_26">
      <g>
       <use xlink:href="#maedcd4232f" x="64.465" y="312.626832" style="stroke: #000000; stroke-width: 0.8"/>
      </g>
     </g>
     <g id="text_21">
      <!-- 600000 -->
      <g transform="translate(19.29 316.426051) scale(0.1 -0.1)">
       <use xlink:href="#DejaVuSans-36"/>
       <use xlink:href="#DejaVuSans-30" x="63.623047"/>
       <use xlink:href="#DejaVuSans-30" x="127.246094"/>
       <use xlink:href="#DejaVuSans-30" x="190.869141"/>
       <use xlink:href="#DejaVuSans-30" x="254.492188"/>
       <use xlink:href="#DejaVuSans-30" x="318.115234"/>
      </g>
     </g>
    </g>
   </g>
   <g id="line2d_27">
    <path d="M 93.771136 412.722607 
L 99.691568 412.722797 
L 105.612 412.726586 
L 111.532431 412.730391 
L 117.452863 412.732745 
L 123.373294 412.733648 
L 129.293726 412.736079 
L 135.214157 412.736931 
L 141.134589 412.740871 
L 147.055021 412.743125 
L 152.975452 412.743581 
L 158.895884 412.744777 
L 164.816315 412.745768 
L 170.736747 412.74707 
L 176.657179 412.750608 
L 182.57761 412.753726 
L 188.498042 412.755764 
L 194.418473 412.760205 
L 200.338905 412.762096 
L 206.259337 412.764222 
L 212.179768 412.766605 
L 218.1002 412.772701 
L 224.020631 412.777347 
L 229.941063 412.782046 
L 235.861494 412.788994 
L 241.781926 412.797325 
L 247.702358 412.805361 
L 253.622789 412.812575 
L 259.543221 412.821709 
L 265.463652 412.83111 
L 271.384084 412.841651 
L 277.304516 412.854212 
L 283.224947 412.868177 
L 289.145379 412.883968 
L 295.06581 412.901147 
L 300.986242 412.919457 
L 306.906674 412.939284 
L 312.827105 412.957798 
L 318.747537 412.981735 
L 324.667968 413.005952 
L 330.5884 413.037851 
L 336.508831 413.068494 
L 342.429263 413.105538 
L 348.349695 413.142854 
L 354.270126 413.183439 
L 360.190558 413.227008 
L 366.110989 413.277148 
L 372.031421 413.330956 
L 377.951853 413.391489 
L 383.872284 413.46006 
L 389.792716 413.533054 
L 395.713147 413.614344 
L 401.633579 413.70186 
L 407.554011 413.800378 
L 413.474442 413.909585 
L 419.394874 414.02513 
L 425.315305 414.157041 
L 431.235737 414.299448 
L 437.156169 414.454104 
L 443.0766 414.625764 
L 448.997032 414.81416 
L 454.917463 415.022398 
L 460.837895 415.250869 
L 466.758326 415.502875 
L 472.678758 415.783982 
L 478.59919 416.090245 
L 484.519621 416.430521 
L 490.440053 416.799114 
L 496.360484 417.208185 
L 502.280916 417.654813 
L 508.201348 418.145733 
L 514.121779 418.689297 
L 520.042211 419.283422 
L 525.962642 419.939087 
L 531.883074 420.658032 
L 537.803506 421.448649 
L 543.723937 422.31972 
L 549.644369 423.280483 
L 555.5648 424.337066 
L 561.485232 425.497835 
L 567.405663 426.776253 
L 573.326095 428.186415 
L 579.246527 429.731954 
L 585.166958 431.43324 
L 591.08739 433.303707 
L 597.007821 435.363499 
L 602.928253 437.625516 
L 608.848685 440.116402 
L 614.769116 442.856184 
L 620.689548 445.870994 
L 626.609979 449.182614 
L 632.530411 452.829736 
L 638.450843 456.840015 
L 644.371274 461.253946 
L 650.291706 466.110835 
L 656.212137 471.451674 
L 662.132569 477.321339 
L 668.053 483.779356 
L 673.973432 490.885006 
L 679.893864 498.701068 
" clip-path="url(#p76c005710b)" style="fill: none; stroke: #1f77b4; stroke-width: 1.5; stroke-linecap: square"/>
   </g>
   <g id="line2d_28">
    <path d="M 93.771136 412.727753 
L 99.691568 412.729159 
L 105.612 412.730128 
L 111.532431 412.73363 
L 117.452863 412.733876 
L 123.373294 412.735773 
L 129.293726 412.738888 
L 135.214157 412.739602 
L 141.134589 412.739734 
L 147.055021 412.739134 
L 152.975452 412.74168 
L 158.895884 412.745355 
L 164.816315 412.751313 
L 170.736747 412.753474 
L 176.657179 412.754734 
L 182.57761 412.757291 
L 188.498042 412.758625 
L 194.418473 412.762829 
L 200.338905 412.767168 
L 206.259337 412.76974 
L 212.179768 412.774749 
L 218.1002 412.778325 
L 224.020631 412.781328 
L 229.941063 412.785441 
L 235.861494 412.790292 
L 241.781926 412.795626 
L 247.702358 412.804204 
L 253.622789 412.814241 
L 259.543221 412.821686 
L 265.463652 412.829466 
L 271.384084 412.836314 
L 277.304516 412.848077 
L 283.224947 412.858834 
L 289.145379 412.875428 
L 295.06581 412.891326 
L 300.986242 412.910656 
L 306.906674 412.931073 
L 312.827105 412.951562 
L 318.747537 412.972375 
L 324.667968 412.997604 
L 330.5884 413.023459 
L 336.508831 413.053211 
L 342.429263 413.087403 
L 348.349695 413.12471 
L 354.270126 413.1668 
L 360.190558 413.211159 
L 366.110989 413.258996 
L 372.031421 413.312237 
L 377.951853 413.368381 
L 383.872284 413.431994 
L 389.792716 413.500914 
L 395.713147 413.579051 
L 401.633579 413.665091 
L 407.554011 413.759031 
L 413.474442 413.863244 
L 419.394874 413.977873 
L 425.315305 414.100131 
L 431.235737 414.238588 
L 437.156169 414.386505 
L 443.0766 414.552009 
L 448.997032 414.732336 
L 454.917463 414.937883 
L 460.837895 415.159166 
L 466.758326 415.401585 
L 472.678758 415.672046 
L 478.59919 415.966549 
L 484.519621 416.287558 
L 490.440053 416.641405 
L 496.360484 417.033155 
L 502.280916 417.462156 
L 508.201348 417.939887 
L 514.121779 418.460348 
L 520.042211 419.031835 
L 525.962642 419.664538 
L 531.883074 420.358839 
L 537.803506 421.120501 
L 543.723937 421.960677 
L 549.644369 422.883238 
L 555.5648 423.896586 
L 561.485232 425.014377 
L 567.405663 426.244203 
L 573.326095 427.59515 
L 579.246527 429.08268 
L 585.166958 430.71679 
L 591.08739 432.516817 
L 597.007821 434.498176 
L 602.928253 436.676419 
L 608.848685 439.071344 
L 614.769116 441.704659 
L 620.689548 444.601679 
L 626.609979 447.791742 
L 632.530411 451.29807 
L 638.450843 455.155361 
L 644.371274 459.398518 
L 650.291706 464.065102 
L 656.212137 469.199271 
L 662.132569 474.845894 
L 668.053 481.058014 
L 673.973432 487.891987 
L 679.893864 495.407697 
" clip-path="url(#p76c005710b)" style="fill: none; stroke: #ff7f0e; stroke-width: 1.5; stroke-linecap: square"/>
   </g>
   <g id="line2d_29">
    <path d="M 93.771136 412.723683 
L 99.691568 412.72462 
L 105.612 412.725235 
L 111.532431 412.7232 
L 117.452863 412.723634 
L 123.373294 412.724731 
L 129.293726 412.721298 
L 135.214157 412.72239 
L 141.134589 412.724172 
L 147.055021 412.720448 
L 152.975452 412.7236 
L 158.895884 412.721439 
L 164.816315 412.721948 
L 170.736747 412.721466 
L 176.657179 412.72222 
L 182.57761 412.723572 
L 188.498042 412.721997 
L 194.418473 412.720577 
L 200.338905 412.715734 
L 206.259337 412.715078 
L 212.179768 412.712251 
L 218.1002 412.710407 
L 224.020631 412.711919 
L 229.941063 412.710284 
L 235.861494 412.707169 
L 241.781926 412.702866 
L 247.702358 412.698008 
L 253.622789 412.697129 
L 259.543221 412.69308 
L 265.463652 412.691487 
L 271.384084 412.689633 
L 277.304516 412.685606 
L 283.224947 412.678662 
L 289.145379 412.674326 
L 295.06581 412.670392 
L 300.986242 412.665433 
L 306.906674 412.660621 
L 312.827105 412.654844 
L 318.747537 412.648218 
L 324.667968 412.642766 
L 330.5884 412.632971 
L 336.508831 412.623293 
L 342.429263 412.612094 
L 348.349695 412.59998 
L 354.270126 412.586961 
L 360.190558 412.574567 
L 366.110989 412.561732 
L 372.031421 412.541731 
L 377.951853 412.522739 
L 383.872284 412.49977 
L 389.792716 412.476443 
L 395.713147 412.452254 
L 401.633579 412.423024 
L 407.554011 412.39418 
L 413.474442 412.35908 
L 419.394874 412.322658 
L 425.315305 412.283834 
L 431.235737 412.24125 
L 437.156169 412.192871 
L 443.0766 412.140561 
L 448.997032 412.083184 
L 454.917463 412.018006 
L 460.837895 411.945589 
L 466.758326 411.866054 
L 472.678758 411.779454 
L 478.59919 411.685526 
L 484.519621 411.585774 
L 490.440053 411.469524 
L 496.360484 411.339615 
L 502.280916 411.204586 
L 508.201348 411.051446 
L 514.121779 410.884224 
L 520.042211 410.697659 
L 525.962642 410.495675 
L 531.883074 410.270185 
L 537.803506 410.025623 
L 543.723937 409.753863 
L 549.644369 409.457828 
L 555.5648 409.129434 
L 561.485232 408.767279 
L 567.405663 408.371228 
L 573.326095 407.936314 
L 579.246527 407.457407 
L 585.166958 406.930748 
L 591.08739 406.350669 
L 597.007821 405.714119 
L 602.928253 405.015856 
L 608.848685 404.240167 
L 614.769116 403.391508 
L 620.689548 402.457361 
L 626.609979 401.432131 
L 632.530411 400.302191 
L 638.450843 399.05755 
L 644.371274 397.691957 
L 650.291706 396.188554 
L 656.212137 394.531742 
L 662.132569 392.711874 
L 668.053 390.712566 
L 673.973432 388.5104 
L 679.893864 386.087805 
" clip-path="url(#p76c005710b)" style="fill: none; stroke: #2ca02c; stroke-width: 1.5; stroke-linecap: square"/>
   </g>
   <g id="line2d_30">
    <path d="M 93.771136 412.724049 
L 99.691568 412.723906 
L 105.612 412.726388 
L 111.532431 412.726321 
L 117.452863 412.725123 
L 123.373294 412.727106 
L 129.293726 412.728053 
L 135.214157 412.72774 
L 141.134589 412.725723 
L 147.055021 412.727154 
L 152.975452 412.728854 
L 158.895884 412.726637 
L 164.816315 412.728795 
L 170.736747 412.729534 
L 176.657179 412.729712 
L 182.57761 412.73212 
L 188.498042 412.735217 
L 194.418473 412.736957 
L 200.338905 412.738251 
L 206.259337 412.740725 
L 212.179768 412.743976 
L 218.1002 412.747332 
L 224.020631 412.748088 
L 229.941063 412.748891 
L 235.861494 412.752923 
L 241.781926 412.754785 
L 247.702358 412.756044 
L 253.622789 412.757729 
L 259.543221 412.755764 
L 265.463652 412.757897 
L 271.384084 412.76107 
L 277.304516 412.763327 
L 283.224947 412.770194 
L 289.145379 412.772946 
L 295.06581 412.777039 
L 300.986242 412.780946 
L 306.906674 412.786018 
L 312.827105 412.791064 
L 318.747537 412.79759 
L 324.667968 412.805373 
L 330.5884 412.813173 
L 336.508831 412.820922 
L 342.429263 412.833205 
L 348.349695 412.845516 
L 354.270126 412.857618 
L 360.190558 412.871122 
L 366.110989 412.885124 
L 372.031421 412.902948 
L 377.951853 412.920657 
L 383.872284 412.939313 
L 389.792716 412.963056 
L 395.713147 412.98725 
L 401.633579 413.013838 
L 407.554011 413.044058 
L 413.474442 413.078014 
L 419.394874 413.115258 
L 425.315305 413.152673 
L 431.235737 413.194329 
L 437.156169 413.239062 
L 443.0766 413.291496 
L 448.997032 413.348428 
L 454.917463 413.413252 
L 460.837895 413.482719 
L 466.758326 413.55652 
L 472.678758 413.640202 
L 478.59919 413.731697 
L 484.519621 413.831221 
L 490.440053 413.943041 
L 496.360484 414.068167 
L 502.280916 414.203196 
L 508.201348 414.351629 
L 514.121779 414.513546 
L 520.042211 414.693063 
L 525.962642 414.891749 
L 531.883074 415.109404 
L 537.803506 415.345733 
L 543.723937 415.60722 
L 549.644369 415.896033 
L 555.5648 416.212969 
L 561.485232 416.561834 
L 567.405663 416.945156 
L 573.326095 417.366838 
L 579.246527 417.830837 
L 585.166958 418.341174 
L 591.08739 418.902995 
L 597.007821 419.523292 
L 602.928253 420.201303 
L 608.848685 420.951866 
L 614.769116 421.771991 
L 620.689548 422.677511 
L 626.609979 423.673305 
L 632.530411 424.767366 
L 638.450843 425.96992 
L 644.371274 427.295623 
L 650.291706 428.754512 
L 656.212137 430.356301 
L 662.132569 432.118651 
L 668.053 434.059524 
L 673.973432 436.19288 
L 679.893864 438.535895 
" clip-path="url(#p76c005710b)" style="fill: none; stroke: #d62728; stroke-width: 1.5; stroke-linecap: square"/>
   </g>
   <g id="line2d_31">
    <path d="M 93.771136 412.726882 
L 99.691568 412.727912 
L 105.612 412.728161 
L 111.532431 412.728943 
L 117.452863 412.728142 
L 123.373294 412.726932 
L 129.293726 412.727591 
L 135.214157 412.728502 
L 141.134589 412.727038 
L 147.055021 412.729817 
L 152.975452 412.732552 
L 158.895884 412.731416 
L 164.816315 412.735764 
L 170.736747 412.736049 
L 176.657179 412.738526 
L 182.57761 412.74033 
L 188.498042 412.743867 
L 194.418473 412.747393 
L 200.338905 412.751094 
L 206.259337 412.753946 
L 212.179768 412.759727 
L 218.1002 412.76247 
L 224.020631 412.76682 
L 229.941063 412.770993 
L 235.861494 412.774951 
L 241.781926 412.780122 
L 247.702358 412.784965 
L 253.622789 412.790984 
L 259.543221 412.800484 
L 265.463652 412.809531 
L 271.384084 412.818678 
L 277.304516 412.828169 
L 283.224947 412.837626 
L 289.145379 412.849351 
L 295.06581 412.863375 
L 300.986242 412.878459 
L 306.906674 412.89437 
L 312.827105 412.912221 
L 318.747537 412.93322 
L 324.667968 412.954587 
L 330.5884 412.978123 
L 336.508831 413.003382 
L 342.429263 413.029966 
L 348.349695 413.059894 
L 354.270126 413.096074 
L 360.190558 413.134978 
L 366.110989 413.17671 
L 372.031421 413.222711 
L 377.951853 413.273796 
L 383.872284 413.328419 
L 389.792716 413.390479 
L 395.713147 413.458539 
L 401.633579 413.531172 
L 407.554011 413.613003 
L 413.474442 413.700566 
L 419.394874 413.795073 
L 425.315305 413.897806 
L 431.235737 414.013264 
L 437.156169 414.14107 
L 443.0766 414.284901 
L 448.997032 414.441122 
L 454.917463 414.61387 
L 460.837895 414.802324 
L 466.758326 415.01178 
L 472.678758 415.239705 
L 478.59919 415.491229 
L 484.519621 415.765026 
L 490.440053 416.068207 
L 496.360484 416.4042 
L 502.280916 416.771268 
L 508.201348 417.174889 
L 514.121779 417.621876 
L 520.042211 418.110959 
L 525.962642 418.64943 
L 531.883074 419.247363 
L 537.803506 419.901009 
L 543.723937 420.619602 
L 549.644369 421.4066 
L 555.5648 422.27541 
L 561.485232 423.230994 
L 567.405663 424.284132 
L 573.326095 425.442829 
L 579.246527 426.714651 
L 585.166958 428.114814 
L 591.08739 429.652055 
L 597.007821 431.344046 
L 602.928253 433.204964 
L 608.848685 435.252616 
L 614.769116 437.502748 
L 620.689548 439.981366 
L 626.609979 442.70799 
L 632.530411 445.704748 
L 638.450843 449.004269 
L 644.371274 452.630416 
L 650.291706 456.623027 
L 656.212137 461.011901 
L 662.132569 465.842055 
L 668.053 471.15411 
L 673.973432 476.998441 
L 679.893864 483.42701 
" clip-path="url(#p76c005710b)" style="fill: none; stroke: #9467bd; stroke-width: 1.5; stroke-linecap: square"/>
   </g>
   <g id="line2d_32">
    <path d="M 93.771136 412.722933 
L 99.691568 412.722696 
L 105.612 412.720445 
L 111.532431 412.717189 
L 117.452863 412.716639 
L 123.373294 412.71566 
L 129.293726 412.715564 
L 135.214157 412.717901 
L 141.134589 412.715519 
L 147.055021 412.714886 
L 152.975452 412.714269 
L 158.895884 412.713639 
L 164.816315 412.712843 
L 170.736747 412.713555 
L 176.657179 412.714507 
L 182.57761 412.714915 
L 188.498042 412.71422 
L 194.418473 412.712662 
L 200.338905 412.710304 
L 206.259337 412.710893 
L 212.179768 412.708408 
L 218.1002 412.709145 
L 224.020631 412.708155 
L 229.941063 412.706357 
L 235.861494 412.706173 
L 241.781926 412.70545 
L 247.702358 412.704836 
L 253.622789 412.703026 
L 259.543221 412.701359 
L 265.463652 412.697598 
L 271.384084 412.694601 
L 277.304516 412.693275 
L 283.224947 412.689082 
L 289.145379 412.686972 
L 295.06581 412.682603 
L 300.986242 412.678952 
L 306.906674 412.67266 
L 312.827105 412.669445 
L 318.747537 412.660614 
L 324.667968 412.651635 
L 330.5884 412.641194 
L 336.508831 412.63519 
L 342.429263 412.628038 
L 348.349695 412.617342 
L 354.270126 412.608913 
L 360.190558 412.597487 
L 366.110989 412.587457 
L 372.031421 412.570354 
L 377.951853 412.556528 
L 383.872284 412.539875 
L 389.792716 412.522123 
L 395.713147 412.502709 
L 401.633579 412.480618 
L 407.554011 412.45614 
L 413.474442 412.428714 
L 419.394874 412.394666 
L 425.315305 412.36383 
L 431.235737 412.32745 
L 437.156169 412.287271 
L 443.0766 412.241942 
L 448.997032 412.194329 
L 454.917463 412.138746 
L 460.837895 412.081057 
L 466.758326 412.015953 
L 472.678758 411.942674 
L 478.59919 411.864215 
L 484.519621 411.778755 
L 490.440053 411.682055 
L 496.360484 411.575188 
L 502.280916 411.457427 
L 508.201348 411.332316 
L 514.121779 411.193493 
L 520.042211 411.039852 
L 525.962642 410.870029 
L 531.883074 410.685257 
L 537.803506 410.481043 
L 543.723937 410.257507 
L 549.644369 410.010251 
L 555.5648 409.736236 
L 561.485232 409.44135 
L 567.405663 409.11297 
L 573.326095 408.751047 
L 579.246527 408.356014 
L 585.166958 407.92096 
L 591.08739 407.439284 
L 597.007821 406.911066 
L 602.928253 406.329585 
L 608.848685 405.68736 
L 614.769116 404.981277 
L 620.689548 404.210432 
L 626.609979 403.358737 
L 632.530411 402.420596 
L 638.450843 401.38705 
L 644.371274 400.253751 
L 650.291706 399.003999 
L 656.212137 397.631021 
L 662.132569 396.12135 
L 668.053 394.459302 
L 673.973432 392.63467 
L 679.893864 390.629111 
" clip-path="url(#p76c005710b)" style="fill: none; stroke: #8c564b; stroke-width: 1.5; stroke-linecap: square"/>
   </g>
   <g id="line2d_33">
    <path d="M 93.771136 412.725008 
L 99.691568 412.723881 
L 105.612 412.726596 
L 111.532431 412.726845 
L 117.452863 412.728237 
L 123.373294 412.731762 
L 129.293726 412.733886 
L 135.214157 412.733858 
L 141.134589 412.734714 
L 147.055021 412.739378 
L 152.975452 412.739805 
L 158.895884 412.745284 
L 164.816315 412.748255 
L 170.736747 412.75173 
L 176.657179 412.756097 
L 182.57761 412.759148 
L 188.498042 412.761539 
L 194.418473 412.766393 
L 200.338905 412.77124 
L 206.259337 412.778308 
L 212.179768 412.785073 
L 218.1002 412.792082 
L 224.020631 412.796067 
L 229.941063 412.801038 
L 235.861494 412.810476 
L 241.781926 412.820841 
L 247.702358 412.831849 
L 253.622789 412.841803 
L 259.543221 412.853607 
L 265.463652 412.867689 
L 271.384084 412.881006 
L 277.304516 412.898936 
L 283.224947 412.918504 
L 289.145379 412.936203 
L 295.06581 412.956341 
L 300.986242 412.976216 
L 306.906674 413.000681 
L 312.827105 413.028086 
L 318.747537 413.055819 
L 324.667968 413.087578 
L 330.5884 413.121026 
L 336.508831 413.157804 
L 342.429263 413.200571 
L 348.349695 413.248532 
L 354.270126 413.30102 
L 360.190558 413.360478 
L 366.110989 413.426069 
L 372.031421 413.498474 
L 377.951853 413.577434 
L 383.872284 413.661645 
L 389.792716 413.755798 
L 395.713147 413.860773 
L 401.633579 413.975744 
L 407.554011 414.105112 
L 413.474442 414.242683 
L 419.394874 414.393259 
L 425.315305 414.561313 
L 431.235737 414.741778 
L 437.156169 414.945483 
L 443.0766 415.168612 
L 448.997032 415.412338 
L 454.917463 415.678737 
L 460.837895 415.974377 
L 466.758326 416.296678 
L 472.678758 416.655472 
L 478.59919 417.047094 
L 484.519621 417.478954 
L 490.440053 417.956078 
L 496.360484 418.481752 
L 502.280916 419.055848 
L 508.201348 419.688949 
L 514.121779 420.384049 
L 520.042211 421.15017 
L 525.962642 421.991811 
L 531.883074 422.918263 
L 537.803506 423.936617 
L 543.723937 425.058716 
L 549.644369 426.292561 
L 555.5648 427.650121 
L 561.485232 429.140535 
L 567.405663 430.783851 
L 573.326095 432.590727 
L 579.246527 434.576012 
L 585.166958 436.7607 
L 591.08739 439.165044 
L 597.007821 441.807523 
L 602.928253 444.716054 
L 608.848685 447.914392 
L 614.769116 451.434368 
L 620.689548 455.305969 
L 626.609979 459.562486 
L 632.530411 464.248213 
L 638.450843 469.401776 
L 644.371274 475.070964 
L 650.291706 481.304145 
L 656.212137 488.161836 
L 662.132569 495.706964 
L 668.053 504.004671 
L 673.973432 513.130642 
L 679.893864 523.171364 
" clip-path="url(#p76c005710b)" style="fill: none; stroke: #e377c2; stroke-width: 1.5; stroke-linecap: square"/>
   </g>
   <g id="line2d_34">
    <path d="M 93.771136 412.725218 
L 99.691568 412.728141 
L 105.612 412.727179 
L 111.532431 412.725803 
L 117.452863 412.726711 
L 123.373294 412.727243 
L 129.293726 412.725747 
L 135.214157 412.725938 
L 141.134589 412.72528 
L 147.055021 412.728389 
L 152.975452 412.72916 
L 158.895884 412.729444 
L 164.816315 412.728097 
L 170.736747 412.728733 
L 176.657179 412.730781 
L 182.57761 412.73115 
L 188.498042 412.730064 
L 194.418473 412.730971 
L 200.338905 412.732196 
L 206.259337 412.729399 
L 212.179768 412.729272 
L 218.1002 412.732083 
L 224.020631 412.7348 
L 229.941063 412.737534 
L 235.861494 412.737577 
L 241.781926 412.736597 
L 247.702358 412.737842 
L 253.622789 412.739774 
L 259.543221 412.740259 
L 265.463652 412.744242 
L 271.384084 412.743405 
L 277.304516 412.745227 
L 283.224947 412.748658 
L 289.145379 412.753676 
L 295.06581 412.756267 
L 300.986242 412.759432 
L 306.906674 412.762085 
L 312.827105 412.766105 
L 318.747537 412.766406 
L 324.667968 412.769845 
L 330.5884 412.772904 
L 336.508831 412.777019 
L 342.429263 412.782406 
L 348.349695 412.78867 
L 354.270126 412.793407 
L 360.190558 412.802597 
L 366.110989 412.811691 
L 372.031421 412.822069 
L 377.951853 412.829135 
L 383.872284 412.838793 
L 389.792716 412.846864 
L 395.713147 412.860971 
L 401.633579 412.871761 
L 407.554011 412.884859 
L 413.474442 412.901132 
L 419.394874 412.917177 
L 425.315305 412.935468 
L 431.235737 412.957214 
L 437.156169 412.980432 
L 443.0766 413.004728 
L 448.997032 413.033435 
L 454.917463 413.062942 
L 460.837895 413.097446 
L 466.758326 413.132332 
L 472.678758 413.174212 
L 478.59919 413.218801 
L 484.519621 413.264964 
L 490.440053 413.317654 
L 496.360484 413.378255 
L 502.280916 413.444338 
L 508.201348 413.51335 
L 514.121779 413.591995 
L 520.042211 413.679897 
L 525.962642 413.774597 
L 531.883074 413.877844 
L 537.803506 413.991906 
L 543.723937 414.119684 
L 549.644369 414.259212 
L 555.5648 414.411273 
L 561.485232 414.579285 
L 567.405663 414.765625 
L 573.326095 414.97014 
L 579.246527 415.196064 
L 585.166958 415.443647 
L 591.08739 415.714975 
L 597.007821 416.016685 
L 602.928253 416.344906 
L 608.848685 416.705217 
L 614.769116 417.102162 
L 620.689548 417.538345 
L 626.609979 418.014815 
L 632.530411 418.542862 
L 638.450843 419.123907 
L 644.371274 419.765862 
L 650.291706 420.470356 
L 656.212137 421.247498 
L 662.132569 422.100789 
L 668.053 423.037046 
L 673.973432 424.06725 
L 679.893864 425.201499 
" clip-path="url(#p76c005710b)" style="fill: none; stroke: #7f7f7f; stroke-width: 1.5; stroke-linecap: square"/>
   </g>
   <g id="line2d_35">
    <path d="M 93.771136 412.724534 
L 99.691568 412.720309 
L 105.612 412.719388 
L 111.532431 412.719612 
L 117.452863 412.7196 
L 123.373294 412.722571 
L 129.293726 412.727036 
L 135.214157 412.724981 
L 141.134589 412.724087 
L 147.055021 412.722044 
L 152.975452 412.723267 
L 158.895884 412.724233 
L 164.816315 412.723713 
L 170.736747 412.723005 
L 176.657179 412.72338 
L 182.57761 412.725476 
L 188.498042 412.723689 
L 194.418473 412.721228 
L 200.338905 412.719806 
L 206.259337 412.720868 
L 212.179768 412.719748 
L 218.1002 412.717204 
L 224.020631 412.714794 
L 229.941063 412.713505 
L 235.861494 412.712846 
L 241.781926 412.712102 
L 247.702358 412.711171 
L 253.622789 412.711394 
L 259.543221 412.710748 
L 265.463652 412.709227 
L 271.384084 412.703854 
L 277.304516 412.702554 
L 283.224947 412.703549 
L 289.145379 412.699205 
L 295.06581 412.697182 
L 300.986242 412.69809 
L 306.906674 412.695557 
L 312.827105 412.694528 
L 318.747537 412.688193 
L 324.667968 412.685865 
L 330.5884 412.682201 
L 336.508831 412.676935 
L 342.429263 412.670594 
L 348.349695 412.665315 
L 354.270126 412.658345 
L 360.190558 412.652584 
L 366.110989 412.647068 
L 372.031421 412.636314 
L 377.951853 412.629152 
L 383.872284 412.621983 
L 389.792716 412.612544 
L 395.713147 412.599679 
L 401.633579 412.586224 
L 407.554011 412.572823 
L 413.474442 412.556439 
L 419.394874 412.541624 
L 425.315305 412.525083 
L 431.235737 412.505504 
L 437.156169 412.482186 
L 443.0766 412.457741 
L 448.997032 412.430761 
L 454.917463 412.398514 
L 460.837895 412.364763 
L 466.758326 412.329781 
L 472.678758 412.291115 
L 478.59919 412.249678 
L 484.519621 412.200365 
L 490.440053 412.147762 
L 496.360484 412.091801 
L 502.280916 412.027803 
L 508.201348 411.957383 
L 514.121779 411.882147 
L 520.042211 411.799291 
L 525.962642 411.708671 
L 531.883074 411.604278 
L 537.803506 411.491763 
L 543.723937 411.370349 
L 549.644369 411.235149 
L 555.5648 411.086144 
L 561.485232 410.919705 
L 567.405663 410.738524 
L 573.326095 410.542203 
L 579.246527 410.32439 
L 585.166958 410.08796 
L 591.08739 409.821972 
L 597.007821 409.527952 
L 602.928253 409.207048 
L 608.848685 408.85376 
L 614.769116 408.467279 
L 620.689548 408.040574 
L 626.609979 407.570973 
L 632.530411 407.056383 
L 638.450843 406.488588 
L 644.371274 405.865487 
L 650.291706 405.179528 
L 656.212137 404.429021 
L 662.132569 403.601829 
L 668.053 402.68949 
L 673.973432 401.685245 
L 679.893864 400.580115 
" clip-path="url(#p76c005710b)" style="fill: none; stroke: #bcbd22; stroke-width: 1.5; stroke-linecap: square"/>
   </g>
   <g id="line2d_36">
    <path d="M 93.771136 412.727617 
L 99.691568 412.728469 
L 105.612 412.73066 
L 111.532431 412.728518 
L 117.452863 412.731035 
L 123.373294 412.730734 
L 129.293726 412.729471 
L 135.214157 412.72935 
L 141.134589 412.733079 
L 147.055021 412.735536 
L 152.975452 412.73756 
L 158.895884 412.7388 
L 164.816315 412.742571 
L 170.736747 412.745791 
L 176.657179 412.749046 
L 182.57761 412.750649 
L 188.498042 412.750719 
L 194.418473 412.754789 
L 200.338905 412.758529 
L 206.259337 412.763052 
L 212.179768 412.765664 
L 218.1002 412.770849 
L 224.020631 412.77699 
L 229.941063 412.78254 
L 235.861494 412.788563 
L 241.781926 412.793826 
L 247.702358 412.798029 
L 253.622789 412.804431 
L 259.543221 412.812631 
L 265.463652 412.820139 
L 271.384084 412.828048 
L 277.304516 412.840542 
L 283.224947 412.852343 
L 289.145379 412.866595 
L 295.06581 412.882367 
L 300.986242 412.898478 
L 306.906674 412.914965 
L 312.827105 412.935072 
L 318.747537 412.951017 
L 324.667968 412.976176 
L 330.5884 413.000909 
L 336.508831 413.028957 
L 342.429263 413.058676 
L 348.349695 413.091205 
L 354.270126 413.124029 
L 360.190558 413.165596 
L 366.110989 413.207976 
L 372.031421 413.255254 
L 377.951853 413.309064 
L 383.872284 413.370648 
L 389.792716 413.434264 
L 395.713147 413.506823 
L 401.633579 413.586383 
L 407.554011 413.672365 
L 413.474442 413.767151 
L 419.394874 413.871345 
L 425.315305 413.983427 
L 431.235737 414.109686 
L 437.156169 414.246627 
L 443.0766 414.397857 
L 448.997032 414.566046 
L 454.917463 414.750711 
L 460.837895 414.952599 
L 466.758326 415.175559 
L 472.678758 415.420653 
L 478.59919 415.691106 
L 484.519621 415.987048 
L 490.440053 416.312493 
L 496.360484 416.670624 
L 502.280916 417.064355 
L 508.201348 417.499146 
L 514.121779 417.972798 
L 520.042211 418.49612 
L 525.962642 419.073914 
L 531.883074 419.71125 
L 537.803506 420.406899 
L 543.723937 421.175054 
L 549.644369 422.023907 
L 555.5648 422.953089 
L 561.485232 423.974952 
L 567.405663 425.097373 
L 573.326095 426.335861 
L 579.246527 427.6979 
L 585.166958 429.193363 
L 591.08739 430.839271 
L 597.007821 432.654169 
L 602.928253 434.648252 
L 608.848685 436.840687 
L 614.769116 439.252081 
L 620.689548 441.903443 
L 626.609979 444.822387 
L 632.530411 448.033827 
L 638.450843 451.567344 
L 644.371274 455.45276 
L 650.291706 459.727475 
L 656.212137 464.425656 
L 662.132569 469.594456 
L 668.053 475.283136 
L 673.973432 481.537447 
L 679.893864 488.42075 
" clip-path="url(#p76c005710b)" style="fill: none; stroke: #17becf; stroke-width: 1.5; stroke-linecap: square"/>
   </g>
   <g id="line2d_37">
    <path d="M 93.771136 412.726038 
L 99.691568 412.726555 
L 105.612 412.72809 
L 111.532431 412.727684 
L 117.452863 412.727 
L 123.373294 412.726796 
L 129.293726 412.72794 
L 135.214157 412.726416 
L 141.134589 412.723685 
L 147.055021 412.725462 
L 152.975452 412.729712 
L 158.895884 412.731571 
L 164.816315 412.730689 
L 170.736747 412.732633 
L 176.657179 412.73386 
L 182.57761 412.736272 
L 188.498042 412.734384 
L 194.418473 412.736751 
L 200.338905 412.738651 
L 206.259337 412.738922 
L 212.179768 412.739499 
L 218.1002 412.740812 
L 224.020631 412.738876 
L 229.941063 412.743249 
L 235.861494 412.746989 
L 241.781926 412.749739 
L 247.702358 412.750163 
L 253.622789 412.752034 
L 259.543221 412.755621 
L 265.463652 412.759254 
L 271.384084 412.765412 
L 277.304516 412.77045 
L 283.224947 412.774537 
L 289.145379 412.777923 
L 295.06581 412.783822 
L 300.986242 412.787258 
L 306.906674 412.790656 
L 312.827105 412.795388 
L 318.747537 412.80334 
L 324.667968 412.812417 
L 330.5884 412.821563 
L 336.508831 412.827998 
L 342.429263 412.841165 
L 348.349695 412.85008 
L 354.270126 412.863307 
L 360.190558 412.878443 
L 366.110989 412.891161 
L 372.031421 412.909339 
L 377.951853 412.92592 
L 383.872284 412.947568 
L 389.792716 412.968542 
L 395.713147 412.994711 
L 401.633579 413.019636 
L 407.554011 413.045126 
L 413.474442 413.078199 
L 419.394874 413.11299 
L 425.315305 413.153222 
L 431.235737 413.196393 
L 437.156169 413.241496 
L 443.0766 413.291444 
L 448.997032 413.347251 
L 454.917463 413.410974 
L 460.837895 413.481654 
L 466.758326 413.556495 
L 472.678758 413.641841 
L 478.59919 413.735691 
L 484.519621 413.836842 
L 490.440053 413.94674 
L 496.360484 414.070101 
L 502.280916 414.205722 
L 508.201348 414.357615 
L 514.121779 414.518418 
L 520.042211 414.695876 
L 525.962642 414.890921 
L 531.883074 415.106438 
L 537.803506 415.346302 
L 543.723937 415.609004 
L 549.644369 415.893846 
L 555.5648 416.208284 
L 561.485232 416.555836 
L 567.405663 416.938556 
L 573.326095 417.359903 
L 579.246527 417.821994 
L 585.166958 418.332525 
L 591.08739 418.890987 
L 597.007821 419.508168 
L 602.928253 420.187363 
L 608.848685 420.934979 
L 614.769116 421.754598 
L 620.689548 422.655303 
L 626.609979 423.646975 
L 632.530411 424.739174 
L 638.450843 425.939345 
L 644.371274 427.261901 
L 650.291706 428.71533 
L 656.212137 430.315181 
L 662.132569 432.076112 
L 668.053 434.009438 
L 673.973432 436.139497 
L 679.893864 438.480185 
" clip-path="url(#p76c005710b)" style="fill: none; stroke: #1f77b4; stroke-width: 1.5; stroke-linecap: square"/>
   </g>
   <g id="line2d_38">
    <path d="M 93.771136 412.723731 
L 99.691568 412.723967 
L 105.612 412.723205 
L 111.532431 412.722692 
L 117.452863 412.723379 
L 123.373294 412.723858 
L 129.293726 412.723799 
L 135.214157 412.724116 
L 141.134589 412.722913 
L 147.055021 412.723987 
L 152.975452 412.725406 
L 158.895884 412.727262 
L 164.816315 412.728872 
L 170.736747 412.730712 
L 176.657179 412.729443 
L 182.57761 412.730714 
L 188.498042 412.728321 
L 194.418473 412.728884 
L 200.338905 412.727508 
L 206.259337 412.729954 
L 212.179768 412.726555 
L 218.1002 412.728604 
L 224.020631 412.728688 
L 229.941063 412.727653 
L 235.861494 412.726576 
L 241.781926 412.724698 
L 247.702358 412.726156 
L 253.622789 412.728833 
L 259.543221 412.728799 
L 265.463652 412.727734 
L 271.384084 412.728573 
L 277.304516 412.729335 
L 283.224947 412.728301 
L 289.145379 412.728509 
L 295.06581 412.732054 
L 300.986242 412.732326 
L 306.906674 412.732669 
L 312.827105 412.732055 
L 318.747537 412.733728 
L 324.667968 412.734035 
L 330.5884 412.736846 
L 336.508831 412.737338 
L 342.429263 412.737535 
L 348.349695 412.738848 
L 354.270126 412.738222 
L 360.190558 412.739709 
L 366.110989 412.74396 
L 372.031421 412.747279 
L 377.951853 412.749553 
L 383.872284 412.751526 
L 389.792716 412.752893 
L 395.713147 412.757272 
L 401.633579 412.762335 
L 407.554011 412.767632 
L 413.474442 412.773882 
L 419.394874 412.781075 
L 425.315305 412.787771 
L 431.235737 412.792389 
L 437.156169 412.801578 
L 443.0766 412.809388 
L 448.997032 412.818127 
L 454.917463 412.828317 
L 460.837895 412.837479 
L 466.758326 412.847287 
L 472.678758 412.860771 
L 478.59919 412.87719 
L 484.519621 412.893468 
L 490.440053 412.908248 
L 496.360484 412.924409 
L 502.280916 412.94452 
L 508.201348 412.967864 
L 514.121779 412.994112 
L 520.042211 413.024258 
L 525.962642 413.052956 
L 531.883074 413.082753 
L 537.803506 413.119474 
L 543.723937 413.159462 
L 549.644369 413.205867 
L 555.5648 413.25296 
L 561.485232 413.305509 
L 567.405663 413.365703 
L 573.326095 413.429777 
L 579.246527 413.50121 
L 585.166958 413.579156 
L 591.08739 413.662921 
L 597.007821 413.758452 
L 602.928253 413.859881 
L 608.848685 413.974504 
L 614.769116 414.097594 
L 620.689548 414.234535 
L 626.609979 414.385161 
L 632.530411 414.551708 
L 638.450843 414.733577 
L 644.371274 414.935963 
L 650.291706 415.157796 
L 656.212137 415.402617 
L 662.132569 415.671814 
L 668.053 415.964141 
L 673.973432 416.287928 
L 679.893864 416.643759 
" clip-path="url(#p76c005710b)" style="fill: none; stroke: #ff7f0e; stroke-width: 1.5; stroke-linecap: square"/>
   </g>
   <g id="line2d_39">
    <path d="M 93.771136 412.726641 
L 99.691568 412.725822 
L 105.612 412.727031 
L 111.532431 412.726321 
L 117.452863 412.725764 
L 123.373294 412.724858 
L 129.293726 412.72463 
L 135.214157 412.723732 
L 141.134589 412.723386 
L 147.055021 412.72642 
L 152.975452 412.728177 
L 158.895884 412.729575 
L 164.816315 412.728188 
L 170.736747 412.728594 
L 176.657179 412.727606 
L 182.57761 412.730534 
L 188.498042 412.729416 
L 194.418473 412.73017 
L 200.338905 412.731751 
L 206.259337 412.73175 
L 212.179768 412.732801 
L 218.1002 412.733553 
L 224.020631 412.731552 
L 229.941063 412.730876 
L 235.861494 412.732031 
L 241.781926 412.735669 
L 247.702358 412.738185 
L 253.622789 412.739177 
L 259.543221 412.74384 
L 265.463652 412.747963 
L 271.384084 412.74978 
L 277.304516 412.753663 
L 283.224947 412.753978 
L 289.145379 412.756479 
L 295.06581 412.75992 
L 300.986242 412.765303 
L 306.906674 412.770817 
L 312.827105 412.77436 
L 318.747537 412.778621 
L 324.667968 412.784792 
L 330.5884 412.791106 
L 336.508831 412.798246 
L 342.429263 412.806235 
L 348.349695 412.813243 
L 354.270126 412.823803 
L 360.190558 412.83279 
L 366.110989 412.841914 
L 372.031421 412.856266 
L 377.951853 412.870463 
L 383.872284 412.887061 
L 389.792716 412.902196 
L 395.713147 412.921695 
L 401.633579 412.940408 
L 407.554011 412.961458 
L 413.474442 412.985195 
L 419.394874 413.01306 
L 425.315305 413.04284 
L 431.235737 413.073509 
L 437.156169 413.110081 
L 443.0766 413.147163 
L 448.997032 413.187579 
L 454.917463 413.230509 
L 460.837895 413.278712 
L 466.758326 413.333461 
L 472.678758 413.39494 
L 478.59919 413.461414 
L 484.519621 413.535211 
L 490.440053 413.617617 
L 496.360484 413.706486 
L 502.280916 413.803345 
L 508.201348 413.911702 
L 514.121779 414.030451 
L 520.042211 414.160441 
L 525.962642 414.301837 
L 531.883074 414.459809 
L 537.803506 414.634127 
L 543.723937 414.826661 
L 549.644369 415.038272 
L 555.5648 415.267973 
L 561.485232 415.524497 
L 567.405663 415.805372 
L 573.326095 416.115381 
L 579.246527 416.455728 
L 585.166958 416.827336 
L 591.08739 417.237344 
L 597.007821 417.689951 
L 602.928253 418.186133 
L 608.848685 418.733513 
L 614.769116 419.332373 
L 620.689548 419.991922 
L 626.609979 420.718619 
L 632.530411 421.515045 
L 638.450843 422.394473 
L 644.371274 423.361826 
L 650.291706 424.42781 
L 656.212137 425.598852 
L 662.132569 426.887419 
L 668.053 428.303494 
L 673.973432 429.862517 
L 679.893864 431.57733 
" clip-path="url(#p76c005710b)" style="fill: none; stroke: #2ca02c; stroke-width: 1.5; stroke-linecap: square"/>
   </g>
   <g id="line2d_40">
    <path d="M 93.771136 412.725132 
L 99.691568 412.725193 
L 105.612 412.725964 
L 111.532431 412.727125 
L 117.452863 412.725779 
L 123.373294 412.727123 
L 129.293726 412.73016 
L 135.214157 412.733169 
L 141.134589 412.733013 
L 147.055021 412.732605 
L 152.975452 412.732455 
L 158.895884 412.737548 
L 164.816315 412.737234 
L 170.736747 412.739539 
L 176.657179 412.742024 
L 182.57761 412.744591 
L 188.498042 412.746048 
L 194.418473 412.746895 
L 200.338905 412.748478 
L 206.259337 412.750762 
L 212.179768 412.753759 
L 218.1002 412.755605 
L 224.020631 412.758116 
L 229.941063 412.76146 
L 235.861494 412.764013 
L 241.781926 412.76882 
L 247.702358 412.773064 
L 253.622789 412.776826 
L 259.543221 412.786624 
L 265.463652 412.791033 
L 271.384084 412.798195 
L 277.304516 412.804837 
L 283.224947 412.811209 
L 289.145379 412.821147 
L 295.06581 412.828868 
L 300.986242 412.838289 
L 306.906674 412.848877 
L 312.827105 412.859923 
L 318.747537 412.873075 
L 324.667968 412.885338 
L 330.5884 412.900229 
L 336.508831 412.919635 
L 342.429263 412.9384 
L 348.349695 412.9602 
L 354.270126 412.980117 
L 360.190558 413.005987 
L 366.110989 413.034451 
L 372.031421 413.067798 
L 377.951853 413.10187 
L 383.872284 413.138647 
L 389.792716 413.177632 
L 395.713147 413.224883 
L 401.633579 413.27565 
L 407.554011 413.331649 
L 413.474442 413.392437 
L 419.394874 413.45907 
L 425.315305 413.531352 
L 431.235737 413.614868 
L 437.156169 413.707514 
L 443.0766 413.806797 
L 448.997032 413.914147 
L 454.917463 414.037768 
L 460.837895 414.166937 
L 466.758326 414.315105 
L 472.678758 414.470524 
L 478.59919 414.647847 
L 484.519621 414.841075 
L 490.440053 415.055676 
L 496.360484 415.291422 
L 502.280916 415.547427 
L 508.201348 415.830877 
L 514.121779 416.141891 
L 520.042211 416.483796 
L 525.962642 416.861457 
L 531.883074 417.274385 
L 537.803506 417.726682 
L 543.723937 418.229145 
L 549.644369 418.779713 
L 555.5648 419.383863 
L 561.485232 420.049279 
L 567.405663 420.780901 
L 573.326095 421.582703 
L 579.246527 422.466255 
L 585.166958 423.439398 
L 591.08739 424.510756 
L 597.007821 425.688938 
L 602.928253 426.987319 
L 608.848685 428.413782 
L 614.769116 429.981054 
L 620.689548 431.703172 
L 626.609979 433.599131 
L 632.530411 435.684585 
L 638.450843 437.980321 
L 644.371274 440.506125 
L 650.291706 443.281153 
L 656.212137 446.337098 
L 662.132569 449.699416 
L 668.053 453.394302 
L 673.973432 457.460246 
L 679.893864 461.933389 
" clip-path="url(#p76c005710b)" style="fill: none; stroke: #d62728; stroke-width: 1.5; stroke-linecap: square"/>
   </g>
   <g id="line2d_41">
    <path d="M 93.771136 412.72385 
L 99.691568 412.723718 
L 105.612 412.721126 
L 111.532431 412.720348 
L 117.452863 412.717261 
L 123.373294 412.715145 
L 129.293726 412.71345 
L 135.214157 412.711758 
L 141.134589 412.709706 
L 147.055021 412.704962 
L 152.975452 412.704438 
L 158.895884 412.703269 
L 164.816315 412.701277 
L 170.736747 412.697131 
L 176.657179 412.694933 
L 182.57761 412.691426 
L 188.498042 412.686533 
L 194.418473 412.684577 
L 200.338905 412.679719 
L 206.259337 412.67391 
L 212.179768 412.667758 
L 218.1002 412.659955 
L 224.020631 412.654243 
L 229.941063 412.646304 
L 235.861494 412.637754 
L 241.781926 412.627256 
L 247.702358 412.618735 
L 253.622789 412.60769 
L 259.543221 412.599899 
L 265.463652 412.588735 
L 271.384084 412.576103 
L 277.304516 412.558427 
L 283.224947 412.540939 
L 289.145379 412.521271 
L 295.06581 412.499774 
L 300.986242 412.476412 
L 306.906674 412.455357 
L 312.827105 412.428285 
L 318.747537 412.39901 
L 324.667968 412.365198 
L 330.5884 412.330409 
L 336.508831 412.290009 
L 342.429263 412.248056 
L 348.349695 412.203958 
L 354.270126 412.154389 
L 360.190558 412.09627 
L 366.110989 412.032333 
L 372.031421 411.962995 
L 377.951853 411.887096 
L 383.872284 411.806196 
L 389.792716 411.715458 
L 395.713147 411.616708 
L 401.633579 411.506078 
L 407.554011 411.387793 
L 413.474442 411.253608 
L 419.394874 411.107588 
L 425.315305 410.947985 
L 431.235737 410.773409 
L 437.156169 410.577963 
L 443.0766 410.362922 
L 448.997032 410.124923 
L 454.917463 409.865986 
L 460.837895 409.580607 
L 466.758326 409.266249 
L 472.678758 408.922442 
L 478.59919 408.542991 
L 484.519621 408.124079 
L 490.440053 407.661879 
L 496.360484 407.153469 
L 502.280916 406.597103 
L 508.201348 405.982369 
L 514.121779 405.308766 
L 520.042211 404.567191 
L 525.962642 403.752495 
L 531.883074 402.853644 
L 537.803506 401.86505 
L 543.723937 400.781992 
L 549.644369 399.586453 
L 555.5648 398.272682 
L 561.485232 396.829071 
L 567.405663 395.240286 
L 573.326095 393.494154 
L 579.246527 391.57085 
L 585.166958 389.455968 
L 591.08739 387.130582 
L 597.007821 384.569646 
L 602.928253 381.754594 
L 608.848685 378.657822 
L 614.769116 375.249566 
L 620.689548 371.500324 
L 626.609979 367.376644 
L 632.530411 362.841969 
L 638.450843 357.852358 
L 644.371274 352.364726 
L 650.291706 346.329695 
L 656.212137 339.689253 
L 662.132569 332.385801 
L 668.053 324.352129 
L 673.973432 315.517256 
L 679.893864 305.798636 
" clip-path="url(#p76c005710b)" style="fill: none; stroke: #9467bd; stroke-width: 1.5; stroke-linecap: square"/>
   </g>
   <g id="line2d_42">
    <path d="M 93.771136 412.721869 
L 99.691568 412.7227 
L 105.612 412.721759 
L 111.532431 412.722125 
L 117.452863 412.720927 
L 123.373294 412.717581 
L 129.293726 412.717073 
L 135.214157 412.715194 
L 141.134589 412.713752 
L 147.055021 412.711975 
L 152.975452 412.709506 
L 158.895884 412.708115 
L 164.816315 412.709116 
L 170.736747 412.708851 
L 176.657179 412.709181 
L 182.57761 412.705573 
L 188.498042 412.703909 
L 194.418473 412.7007 
L 200.338905 412.697225 
L 206.259337 412.697583 
L 212.179768 412.694731 
L 218.1002 412.692326 
L 224.020631 412.688049 
L 229.941063 412.684285 
L 235.861494 412.683739 
L 241.781926 412.680393 
L 247.702358 412.676132 
L 253.622789 412.670177 
L 259.543221 412.663948 
L 265.463652 412.655677 
L 271.384084 412.647231 
L 277.304516 412.639847 
L 283.224947 412.63459 
L 289.145379 412.625357 
L 295.06581 412.614383 
L 300.986242 412.602781 
L 306.906674 412.590541 
L 312.827105 412.57743 
L 318.747537 412.561053 
L 324.667968 412.544617 
L 330.5884 412.526791 
L 336.508831 412.506689 
L 342.429263 412.485598 
L 348.349695 412.462786 
L 354.270126 412.436458 
L 360.190558 412.407797 
L 366.110989 412.373289 
L 372.031421 412.339016 
L 377.951853 412.299039 
L 383.872284 412.255828 
L 389.792716 412.209976 
L 395.713147 412.157496 
L 401.633579 412.097734 
L 407.554011 412.034505 
L 413.474442 411.966769 
L 419.394874 411.891843 
L 425.315305 411.810063 
L 431.235737 411.720443 
L 437.156169 411.622147 
L 443.0766 411.510386 
L 448.997032 411.390376 
L 454.917463 411.256306 
L 460.837895 411.107789 
L 466.758326 410.942412 
L 472.678758 410.766026 
L 478.59919 410.571427 
L 484.519621 410.358502 
L 490.440053 410.119784 
L 496.360484 409.862638 
L 502.280916 409.577441 
L 508.201348 409.26017 
L 514.121779 408.914337 
L 520.042211 408.53248 
L 525.962642 408.112403 
L 531.883074 407.651847 
L 537.803506 407.145081 
L 543.723937 406.586958 
L 549.644369 405.972217 
L 555.5648 405.296057 
L 561.485232 404.552359 
L 567.405663 403.735456 
L 573.326095 402.838009 
L 579.246527 401.849833 
L 585.166958 400.760864 
L 591.08739 399.56258 
L 597.007821 398.244387 
L 602.928253 396.793323 
L 608.848685 395.20107 
L 614.769116 393.448295 
L 620.689548 391.520453 
L 626.609979 389.401133 
L 632.530411 387.069306 
L 638.450843 384.503813 
L 644.371274 381.679786 
L 650.291706 378.576493 
L 656.212137 375.163561 
L 662.132569 371.408622 
L 668.053 367.278023 
L 673.973432 362.732498 
L 679.893864 357.731754 
" clip-path="url(#p76c005710b)" style="fill: none; stroke: #8c564b; stroke-width: 1.5; stroke-linecap: square"/>
   </g>
   <g id="line2d_43">
    <path d="M 93.771136 412.724356 
L 99.691568 412.724717 
L 105.612 412.7246 
L 111.532431 412.722424 
L 117.452863 412.719914 
L 123.373294 412.720875 
L 129.293726 412.720037 
L 135.214157 412.719742 
L 141.134589 412.721686 
L 147.055021 412.723973 
L 152.975452 412.722635 
L 158.895884 412.722932 
L 164.816315 412.719929 
L 170.736747 412.718406 
L 176.657179 412.718159 
L 182.57761 412.714172 
L 188.498042 412.711552 
L 194.418473 412.711049 
L 200.338905 412.7118 
L 206.259337 412.712068 
L 212.179768 412.7121 
L 218.1002 412.714751 
L 224.020631 412.714585 
L 229.941063 412.71646 
L 235.861494 412.715322 
L 241.781926 412.71354 
L 247.702358 412.71207 
L 253.622789 412.71156 
L 259.543221 412.71333 
L 265.463652 412.714047 
L 271.384084 412.715612 
L 277.304516 412.715363 
L 283.224947 412.717698 
L 289.145379 412.715945 
L 295.06581 412.716993 
L 300.986242 412.719012 
L 306.906674 412.719916 
L 312.827105 412.719137 
L 318.747537 412.718375 
L 324.667968 412.718818 
L 330.5884 412.718877 
L 336.508831 412.72023 
L 342.429263 412.720136 
L 348.349695 412.718086 
L 354.270126 412.718759 
L 360.190558 412.718157 
L 366.110989 412.721913 
L 372.031421 412.722601 
L 377.951853 412.723594 
L 383.872284 412.724852 
L 389.792716 412.723643 
L 395.713147 412.723655 
L 401.633579 412.72264 
L 407.554011 412.725163 
L 413.474442 412.724978 
L 419.394874 412.72331 
L 425.315305 412.723791 
L 431.235737 412.724709 
L 437.156169 412.724101 
L 443.0766 412.7252 
L 448.997032 412.724688 
L 454.917463 412.725668 
L 460.837895 412.726031 
L 466.758326 412.724999 
L 472.678758 412.725676 
L 478.59919 412.722291 
L 484.519621 412.720105 
L 490.440053 412.721371 
L 496.360484 412.722414 
L 502.280916 412.727856 
L 508.201348 412.728757 
L 514.121779 412.732151 
L 520.042211 412.733515 
L 525.962642 412.737624 
L 531.883074 412.742898 
L 537.803506 412.743605 
L 543.723937 412.74148 
L 549.644369 412.743071 
L 555.5648 412.745689 
L 561.485232 412.747113 
L 567.405663 412.749165 
L 573.326095 412.748981 
L 579.246527 412.751781 
L 585.166958 412.75428 
L 591.08739 412.757592 
L 597.007821 412.763471 
L 602.928253 412.766305 
L 608.848685 412.765518 
L 614.769116 412.769012 
L 620.689548 412.775694 
L 626.609979 412.781416 
L 632.530411 412.787011 
L 638.450843 412.797193 
L 644.371274 412.804527 
L 650.291706 412.811742 
L 656.212137 412.821366 
L 662.132569 412.832946 
L 668.053 412.844662 
L 673.973432 412.855064 
L 679.893864 412.869038 
" clip-path="url(#p76c005710b)" style="fill: none; stroke: #e377c2; stroke-width: 1.5; stroke-linecap: square"/>
   </g>
   <g id="line2d_44">
    <path d="M 93.771136 412.725316 
L 99.691568 412.724565 
L 105.612 412.726383 
L 111.532431 412.725094 
L 117.452863 412.720849 
L 123.373294 412.720971 
L 129.293726 412.720574 
L 135.214157 412.719746 
L 141.134589 412.722834 
L 147.055021 412.724109 
L 152.975452 412.723917 
L 158.895884 412.724798 
L 164.816315 412.725385 
L 170.736747 412.724722 
L 176.657179 412.724246 
L 182.57761 412.726706 
L 188.498042 412.725495 
L 194.418473 412.720806 
L 200.338905 412.720966 
L 206.259337 412.72011 
L 212.179768 412.717471 
L 218.1002 412.71628 
L 224.020631 412.717835 
L 229.941063 412.717665 
L 235.861494 412.717089 
L 241.781926 412.716159 
L 247.702358 412.715282 
L 253.622789 412.714126 
L 259.543221 412.712512 
L 265.463652 412.711051 
L 271.384084 412.710039 
L 277.304516 412.710356 
L 283.224947 412.710137 
L 289.145379 412.70948 
L 295.06581 412.70792 
L 300.986242 412.705616 
L 306.906674 412.702497 
L 312.827105 412.698136 
L 318.747537 412.693124 
L 324.667968 412.690137 
L 330.5884 412.686112 
L 336.508831 412.682662 
L 342.429263 412.679359 
L 348.349695 412.673731 
L 354.270126 412.668533 
L 360.190558 412.665232 
L 366.110989 412.658211 
L 372.031421 412.653369 
L 377.951853 412.647829 
L 383.872284 412.64293 
L 389.792716 412.636554 
L 395.713147 412.628825 
L 401.633579 412.617825 
L 407.554011 412.60664 
L 413.474442 412.597964 
L 419.394874 412.584148 
L 425.315305 412.573314 
L 431.235737 412.557628 
L 437.156169 412.540868 
L 443.0766 412.519093 
L 448.997032 412.499176 
L 454.917463 412.47623 
L 460.837895 412.449492 
L 466.758326 412.420103 
L 472.678758 412.387887 
L 478.59919 412.351342 
L 484.519621 412.313432 
L 490.440053 412.270963 
L 496.360484 412.228841 
L 502.280916 412.17878 
L 508.201348 412.123347 
L 514.121779 412.062337 
L 520.042211 411.997005 
L 525.962642 411.924635 
L 531.883074 411.844872 
L 537.803506 411.755813 
L 543.723937 411.662368 
L 549.644369 411.556515 
L 555.5648 411.442576 
L 561.485232 411.314758 
L 567.405663 411.174958 
L 573.326095 411.019148 
L 579.246527 410.848438 
L 585.166958 410.658991 
L 591.08739 410.451539 
L 597.007821 410.223448 
L 602.928253 409.973079 
L 608.848685 409.695817 
L 614.769116 409.392048 
L 620.689548 409.059786 
L 626.609979 408.693062 
L 632.530411 408.290285 
L 638.450843 407.846128 
L 644.371274 407.361465 
L 650.291706 406.826282 
L 656.212137 406.234883 
L 662.132569 405.582053 
L 668.053 404.868306 
L 673.973432 404.080687 
L 679.893864 403.215732 
" clip-path="url(#p76c005710b)" style="fill: none; stroke: #7f7f7f; stroke-width: 1.5; stroke-linecap: square"/>
   </g>
   <g id="line2d_45">
    <path d="M 93.771136 412.725872 
L 99.691568 412.727396 
L 105.612 412.72929 
L 111.532431 412.727964 
L 117.452863 412.725927 
L 123.373294 412.725166 
L 129.293726 412.727843 
L 135.214157 412.725925 
L 141.134589 412.72641 
L 147.055021 412.727745 
L 152.975452 412.72491 
L 158.895884 412.724185 
L 164.816315 412.724061 
L 170.736747 412.720513 
L 176.657179 412.720768 
L 182.57761 412.7219 
L 188.498042 412.719542 
L 194.418473 412.720724 
L 200.338905 412.718902 
L 206.259337 412.719203 
L 212.179768 412.719465 
L 218.1002 412.718229 
L 224.020631 412.716924 
L 229.941063 412.71403 
L 235.861494 412.713114 
L 241.781926 412.711149 
L 247.702358 412.70905 
L 253.622789 412.708105 
L 259.543221 412.707917 
L 265.463652 412.707612 
L 271.384084 412.707061 
L 277.304516 412.705761 
L 283.224947 412.704587 
L 289.145379 412.703836 
L 295.06581 412.70162 
L 300.986242 412.699828 
L 306.906674 412.695623 
L 312.827105 412.69272 
L 318.747537 412.689455 
L 324.667968 412.687257 
L 330.5884 412.682679 
L 336.508831 412.678691 
L 342.429263 412.677128 
L 348.349695 412.671856 
L 354.270126 412.66398 
L 360.190558 412.658668 
L 366.110989 412.651639 
L 372.031421 412.646452 
L 377.951853 412.639929 
L 383.872284 412.630195 
L 389.792716 412.622274 
L 395.713147 412.609969 
L 401.633579 412.595831 
L 407.554011 412.584716 
L 413.474442 412.569893 
L 419.394874 412.55194 
L 425.315305 412.537022 
L 431.235737 412.517184 
L 437.156169 412.496046 
L 443.0766 412.473607 
L 448.997032 412.448005 
L 454.917463 412.42079 
L 460.837895 412.387979 
L 466.758326 412.351403 
L 472.678758 412.313552 
L 478.59919 412.275106 
L 484.519621 412.22928 
L 490.440053 412.179153 
L 496.360484 412.122914 
L 502.280916 412.061954 
L 508.201348 411.996904 
L 514.121779 411.924486 
L 520.042211 411.843605 
L 525.962642 411.753807 
L 531.883074 411.656171 
L 537.803506 411.549395 
L 543.723937 411.433095 
L 549.644369 411.303796 
L 555.5648 411.163015 
L 561.485232 411.009684 
L 567.405663 410.838101 
L 573.326095 410.652617 
L 579.246527 410.446513 
L 585.166958 410.215462 
L 591.08739 409.963985 
L 597.007821 409.691745 
L 602.928253 409.387 
L 608.848685 409.052395 
L 614.769116 408.682978 
L 620.689548 408.279027 
L 626.609979 407.838216 
L 632.530411 407.346981 
L 638.450843 406.80867 
L 644.371274 406.217689 
L 650.291706 405.567519 
L 656.212137 404.850943 
L 662.132569 404.06782 
L 668.053 403.201129 
L 673.973432 402.247764 
L 679.893864 401.198961 
" clip-path="url(#p76c005710b)" style="fill: none; stroke: #bcbd22; stroke-width: 1.5; stroke-linecap: square"/>
   </g>
   <g id="line2d_46">
    <path d="M 93.771136 412.723711 
L 99.691568 412.722547 
L 105.612 412.721203 
L 111.532431 412.72125 
L 117.452863 412.723634 
L 123.373294 412.722361 
L 129.293726 412.720035 
L 135.214157 412.721698 
L 141.134589 412.721741 
L 147.055021 412.721546 
L 152.975452 412.717861 
L 158.895884 412.71766 
L 164.816315 412.716214 
L 170.736747 412.712177 
L 176.657179 412.70982 
L 182.57761 412.710782 
L 188.498042 412.710134 
L 194.418473 412.709583 
L 200.338905 412.708027 
L 206.259337 412.706919 
L 212.179768 412.703037 
L 218.1002 412.700783 
L 224.020631 412.700368 
L 229.941063 412.699434 
L 235.861494 412.695175 
L 241.781926 412.690594 
L 247.702358 412.686233 
L 253.622789 412.682373 
L 259.543221 412.679014 
L 265.463652 412.674573 
L 271.384084 412.66909 
L 277.304516 412.665699 
L 283.224947 412.660543 
L 289.145379 412.654293 
L 295.06581 412.646658 
L 300.986242 412.64184 
L 306.906674 412.632437 
L 312.827105 412.62586 
L 318.747537 412.616248 
L 324.667968 412.605209 
L 330.5884 412.593806 
L 336.508831 412.580638 
L 342.429263 412.565781 
L 348.349695 412.549744 
L 354.270126 412.532839 
L 360.190558 412.510852 
L 366.110989 412.489595 
L 372.031421 412.464641 
L 377.951853 412.438672 
L 383.872284 412.408828 
L 389.792716 412.372855 
L 395.713147 412.334388 
L 401.633579 412.29694 
L 407.554011 412.250798 
L 413.474442 412.202754 
L 419.394874 412.15237 
L 425.315305 412.092229 
L 431.235737 412.029276 
L 437.156169 411.956746 
L 443.0766 411.881008 
L 448.997032 411.798301 
L 454.917463 411.704963 
L 460.837895 411.602306 
L 466.758326 411.489709 
L 472.678758 411.366692 
L 478.59919 411.233128 
L 484.519621 411.084944 
L 490.440053 410.921114 
L 496.360484 410.739953 
L 502.280916 410.541883 
L 508.201348 410.324164 
L 514.121779 410.081633 
L 520.042211 409.815086 
L 525.962642 409.525074 
L 531.883074 409.206442 
L 537.803506 408.855777 
L 543.723937 408.467767 
L 549.644369 408.040457 
L 555.5648 407.57199 
L 561.485232 407.058022 
L 567.405663 406.489943 
L 573.326095 405.867899 
L 579.246527 405.18449 
L 585.166958 404.429601 
L 591.08739 403.596946 
L 597.007821 402.682517 
L 602.928253 401.679474 
L 608.848685 400.574879 
L 614.769116 399.361019 
L 620.689548 398.025672 
L 626.609979 396.557212 
L 632.530411 394.938932 
L 638.450843 393.159421 
L 644.371274 391.203854 
L 650.291706 389.053028 
L 656.212137 386.687658 
L 662.132569 384.081003 
L 668.053 381.215506 
L 673.973432 378.065893 
L 679.893864 374.601847 
" clip-path="url(#p76c005710b)" style="fill: none; stroke: #17becf; stroke-width: 1.5; stroke-linecap: square"/>
   </g>
   <g id="patch_9">
    <path d="M 64.465 534.04 
L 64.465 294.93 
" style="fill: none; stroke: #000000; stroke-width: 0.8; stroke-linejoin: miter; stroke-linecap: square"/>
   </g>
   <g id="patch_10">
    <path d="M 709.2 534.04 
L 709.2 294.93 
" style="fill: none; stroke: #000000; stroke-width: 0.8; stroke-linejoin: miter; stroke-linecap: square"/>
   </g>
   <g id="patch_11">
    <path d="M 64.465 534.04 
L 709.2 534.04 
" style="fill: none; stroke: #000000; stroke-width: 0.8; stroke-linejoin: miter; stroke-linecap: square"/>
   </g>
   <g id="patch_12">
    <path d="M 64.465 294.93 
L 709.2 294.93 
" style="fill: none; stroke: #000000; stroke-width: 0.8; stroke-linejoin: miter; stroke-linecap: square"/>
   </g>
   <g id="text_22">
    <!-- 20 Realizations of AR(1) Process with ϕ=1.1 -->
    <g transform="translate(255.14 288.93) scale(0.12 -0.12)">
     <use xlink:href="#DejaVuSans-32"/>
     <use xlink:href="#DejaVuSans-30" x="63.623047"/>
     <use xlink:href="#DejaVuSans-20" x="127.246094"/>
     <use xlink:href="#DejaVuSans-52" x="159.033203"/>
     <use xlink:href="#DejaVuSans-65" x="224.015625"/>
     <use xlink:href="#DejaVuSans-61" x="285.539062"/>
     <use xlink:href="#DejaVuSans-6c" x="346.818359"/>
     <use xlink:href="#DejaVuSans-69" x="374.601562"/>
     <use xlink:href="#DejaVuSans-7a" x="402.384766"/>
     <use xlink:href="#DejaVuSans-61" x="454.875"/>
     <use xlink:href="#DejaVuSans-74" x="516.154297"/>
     <use xlink:href="#DejaVuSans-69" x="555.363281"/>
     <use xlink:href="#DejaVuSans-6f" x="583.146484"/>
     <use xlink:href="#DejaVuSans-6e" x="644.328125"/>
     <use xlink:href="#DejaVuSans-73" x="707.707031"/>
     <use xlink:href="#DejaVuSans-20" x="759.806641"/>
     <use xlink:href="#DejaVuSans-6f" x="791.59375"/>
     <use xlink:href="#DejaVuSans-66" x="852.775391"/>
     <use xlink:href="#DejaVuSans-20" x="887.980469"/>
     <use xlink:href="#DejaVuSans-41" x="919.767578"/>
     <use xlink:href="#DejaVuSans-52" x="988.175781"/>
     <use xlink:href="#DejaVuSans-28" x="1057.658203"/>
     <use xlink:href="#DejaVuSans-31" x="1096.671875"/>
     <use xlink:href="#DejaVuSans-29" x="1160.294922"/>
     <use xlink:href="#DejaVuSans-20" x="1199.308594"/>
     <use xlink:href="#DejaVuSans-50" x="1231.095703"/>
     <use xlink:href="#DejaVuSans-72" x="1289.648438"/>
     <use xlink:href="#DejaVuSans-6f" x="1328.511719"/>
     <use xlink:href="#DejaVuSans-63" x="1389.693359"/>
     <use xlink:href="#DejaVuSans-65" x="1444.673828"/>
     <use xlink:href="#DejaVuSans-73" x="1506.197266"/>
     <use xlink:href="#DejaVuSans-73" x="1558.296875"/>
     <use xlink:href="#DejaVuSans-20" x="1610.396484"/>
     <use xlink:href="#DejaVuSans-77" x="1642.183594"/>
     <use xlink:href="#DejaVuSans-69" x="1723.970703"/>
     <use xlink:href="#DejaVuSans-74" x="1751.753906"/>
     <use xlink:href="#DejaVuSans-68" x="1790.962891"/>
     <use xlink:href="#DejaVuSans-20" x="1854.341797"/>
     <use xlink:href="#DejaVuSans-3d5" x="1886.128906"/>
     <use xlink:href="#DejaVuSans-3d" x="1952.095703"/>
     <use xlink:href="#DejaVuSans-31" x="2035.884766"/>
     <use xlink:href="#DejaVuSans-2e" x="2099.507812"/>
     <use xlink:href="#DejaVuSans-31" x="2131.294922"/>
    </g>
   </g>
  </g>
 </g>
 <defs>
  <clipPath id="p17f05d65c8">
   <rect x="64.465" y="26.16" width="644.735" height="239.11"/>
  </clipPath>
  <clipPath id="p76c005710b">
   <rect x="64.465" y="294.93" width="644.735" height="239.11"/>
  </clipPath>
 </defs>
</svg>
