<?xml version="1.0" encoding="utf-8" standalone="no"?>
<!DOCTYPE svg PUBLIC "-//W3C//DTD SVG 1.1//EN"
  "http://www.w3.org/Graphics/SVG/1.1/DTD/svg11.dtd">
<svg xmlns:xlink="http://www.w3.org/1999/xlink" width="720pt" height="576pt" viewBox="0 0 720 576" xmlns="http://www.w3.org/2000/svg" version="1.1">
 <metadata>
  <rdf:RDF xmlns:dc="http://purl.org/dc/elements/1.1/" xmlns:cc="http://creativecommons.org/ns#" xmlns:rdf="http://www.w3.org/1999/02/22-rdf-syntax-ns#">
   <cc:Work>
    <dc:type rdf:resource="http://purl.org/dc/dcmitype/StillImage"/>
    <dc:date>2024-02-20T02:13:55.569218</dc:date>
    <dc:format>image/svg+xml</dc:format>
    <dc:creator>
     <cc:Agent>
      <dc:title>Matplotlib v3.8.2, https://matplotlib.org/</dc:title>
     </cc:Agent>
    </dc:creator>
   </cc:Work>
  </rdf:RDF>
 </metadata>
 <defs>
  <style type="text/css">*{stroke-linejoin: round; stroke-linecap: butt}</style>
 </defs>
 <g id="figure_1">
  <g id="patch_1">
   <path d="M 0 576 
L 720 576 
L 720 0 
L 0 0 
z
" style="fill: #ffffff"/>
  </g>
  <g id="axes_1">
   <g id="patch_2">
    <path d="M 42.1 265.27 
L 709.2 265.27 
L 709.2 26.16 
L 42.1 26.16 
z
" style="fill: #ffffff"/>
   </g>
   <g id="matplotlib.axis_1">
    <g id="xtick_1">
     <g id="line2d_1">
      <defs>
       <path id="m8707f2018d" d="M 0 0 
L 0 3.5 
" style="stroke: #000000; stroke-width: 0.8"/>
      </defs>
      <g>
       <use xlink:href="#m8707f2018d" x="72.422727" y="265.27" style="stroke: #000000; stroke-width: 0.8"/>
      </g>
     </g>
    </g>
    <g id="xtick_2">
     <g id="line2d_2">
      <g>
       <use xlink:href="#m8707f2018d" x="194.938797" y="265.27" style="stroke: #000000; stroke-width: 0.8"/>
      </g>
     </g>
    </g>
    <g id="xtick_3">
     <g id="line2d_3">
      <g>
       <use xlink:href="#m8707f2018d" x="317.454867" y="265.27" style="stroke: #000000; stroke-width: 0.8"/>
      </g>
     </g>
    </g>
    <g id="xtick_4">
     <g id="line2d_4">
      <g>
       <use xlink:href="#m8707f2018d" x="439.970937" y="265.27" style="stroke: #000000; stroke-width: 0.8"/>
      </g>
     </g>
    </g>
    <g id="xtick_5">
     <g id="line2d_5">
      <g>
       <use xlink:href="#m8707f2018d" x="562.487006" y="265.27" style="stroke: #000000; stroke-width: 0.8"/>
      </g>
     </g>
    </g>
    <g id="xtick_6">
     <g id="line2d_6">
      <g>
       <use xlink:href="#m8707f2018d" x="685.003076" y="265.27" style="stroke: #000000; stroke-width: 0.8"/>
      </g>
     </g>
    </g>
   </g>
   <g id="matplotlib.axis_2">
    <g id="ytick_1">
     <g id="line2d_7">
      <defs>
       <path id="m370d5f3b37" d="M 0 0 
L -3.5 0 
" style="stroke: #000000; stroke-width: 0.8"/>
      </defs>
      <g>
       <use xlink:href="#m370d5f3b37" x="42.1" y="249.673723" style="stroke: #000000; stroke-width: 0.8"/>
      </g>
     </g>
     <g id="text_1">
      <!-- −7.5 -->
      <g transform="translate(10.817188 253.472942) scale(0.1 -0.1)">
       <defs>
        <path id="DejaVuSans-2212" d="M 678 2272 
L 4684 2272 
L 4684 1741 
L 678 1741 
L 678 2272 
z
" transform="scale(0.015625)"/>
        <path id="DejaVuSans-37" d="M 525 4666 
L 3525 4666 
L 3525 4397 
L 1831 0 
L 1172 0 
L 2766 4134 
L 525 4134 
L 525 4666 
z
" transform="scale(0.015625)"/>
        <path id="DejaVuSans-2e" d="M 684 794 
L 1344 794 
L 1344 0 
L 684 0 
L 684 794 
z
" transform="scale(0.015625)"/>
        <path id="DejaVuSans-35" d="M 691 4666 
L 3169 4666 
L 3169 4134 
L 1269 4134 
L 1269 2991 
Q 1406 3038 1543 3061 
Q 1681 3084 1819 3084 
Q 2600 3084 3056 2656 
Q 3513 2228 3513 1497 
Q 3513 744 3044 326 
Q 2575 -91 1722 -91 
Q 1428 -91 1123 -41 
Q 819 9 494 109 
L 494 744 
Q 775 591 1075 516 
Q 1375 441 1709 441 
Q 2250 441 2565 725 
Q 2881 1009 2881 1497 
Q 2881 1984 2565 2268 
Q 2250 2553 1709 2553 
Q 1456 2553 1204 2497 
Q 953 2441 691 2322 
L 691 4666 
z
" transform="scale(0.015625)"/>
       </defs>
       <use xlink:href="#DejaVuSans-2212"/>
       <use xlink:href="#DejaVuSans-37" x="83.789062"/>
       <use xlink:href="#DejaVuSans-2e" x="147.412109"/>
       <use xlink:href="#DejaVuSans-35" x="179.199219"/>
      </g>
     </g>
    </g>
    <g id="ytick_2">
     <g id="line2d_8">
      <g>
       <use xlink:href="#m370d5f3b37" x="42.1" y="217.114385" style="stroke: #000000; stroke-width: 0.8"/>
      </g>
     </g>
     <g id="text_2">
      <!-- −5.0 -->
      <g transform="translate(10.817188 220.913604) scale(0.1 -0.1)">
       <defs>
        <path id="DejaVuSans-30" d="M 2034 4250 
Q 1547 4250 1301 3770 
Q 1056 3291 1056 2328 
Q 1056 1369 1301 889 
Q 1547 409 2034 409 
Q 2525 409 2770 889 
Q 3016 1369 3016 2328 
Q 3016 3291 2770 3770 
Q 2525 4250 2034 4250 
z
M 2034 4750 
Q 2819 4750 3233 4129 
Q 3647 3509 3647 2328 
Q 3647 1150 3233 529 
Q 2819 -91 2034 -91 
Q 1250 -91 836 529 
Q 422 1150 422 2328 
Q 422 3509 836 4129 
Q 1250 4750 2034 4750 
z
" transform="scale(0.015625)"/>
       </defs>
       <use xlink:href="#DejaVuSans-2212"/>
       <use xlink:href="#DejaVuSans-35" x="83.789062"/>
       <use xlink:href="#DejaVuSans-2e" x="147.412109"/>
       <use xlink:href="#DejaVuSans-30" x="179.199219"/>
      </g>
     </g>
    </g>
    <g id="ytick_3">
     <g id="line2d_9">
      <g>
       <use xlink:href="#m370d5f3b37" x="42.1" y="184.555048" style="stroke: #000000; stroke-width: 0.8"/>
      </g>
     </g>
     <g id="text_3">
      <!-- −2.5 -->
      <g transform="translate(10.817188 188.354267) scale(0.1 -0.1)">
       <defs>
        <path id="DejaVuSans-32" d="M 1228 531 
L 3431 531 
L 3431 0 
L 469 0 
L 469 531 
Q 828 903 1448 1529 
Q 2069 2156 2228 2338 
Q 2531 2678 2651 2914 
Q 2772 3150 2772 3378 
Q 2772 3750 2511 3984 
Q 2250 4219 1831 4219 
Q 1534 4219 1204 4116 
Q 875 4013 500 3803 
L 500 4441 
Q 881 4594 1212 4672 
Q 1544 4750 1819 4750 
Q 2544 4750 2975 4387 
Q 3406 4025 3406 3419 
Q 3406 3131 3298 2873 
Q 3191 2616 2906 2266 
Q 2828 2175 2409 1742 
Q 1991 1309 1228 531 
z
" transform="scale(0.015625)"/>
       </defs>
       <use xlink:href="#DejaVuSans-2212"/>
       <use xlink:href="#DejaVuSans-32" x="83.789062"/>
       <use xlink:href="#DejaVuSans-2e" x="147.412109"/>
       <use xlink:href="#DejaVuSans-35" x="179.199219"/>
      </g>
     </g>
    </g>
    <g id="ytick_4">
     <g id="line2d_10">
      <g>
       <use xlink:href="#m370d5f3b37" x="42.1" y="151.99571" style="stroke: #000000; stroke-width: 0.8"/>
      </g>
     </g>
     <g id="text_4">
      <!-- 0.0 -->
      <g transform="translate(19.196875 155.794929) scale(0.1 -0.1)">
       <use xlink:href="#DejaVuSans-30"/>
       <use xlink:href="#DejaVuSans-2e" x="63.623047"/>
       <use xlink:href="#DejaVuSans-30" x="95.410156"/>
      </g>
     </g>
    </g>
    <g id="ytick_5">
     <g id="line2d_11">
      <g>
       <use xlink:href="#m370d5f3b37" x="42.1" y="119.436373" style="stroke: #000000; stroke-width: 0.8"/>
      </g>
     </g>
     <g id="text_5">
      <!-- 2.5 -->
      <g transform="translate(19.196875 123.235592) scale(0.1 -0.1)">
       <use xlink:href="#DejaVuSans-32"/>
       <use xlink:href="#DejaVuSans-2e" x="63.623047"/>
       <use xlink:href="#DejaVuSans-35" x="95.410156"/>
      </g>
     </g>
    </g>
    <g id="ytick_6">
     <g id="line2d_12">
      <g>
       <use xlink:href="#m370d5f3b37" x="42.1" y="86.877035" style="stroke: #000000; stroke-width: 0.8"/>
      </g>
     </g>
     <g id="text_6">
      <!-- 5.0 -->
      <g transform="translate(19.196875 90.676254) scale(0.1 -0.1)">
       <use xlink:href="#DejaVuSans-35"/>
       <use xlink:href="#DejaVuSans-2e" x="63.623047"/>
       <use xlink:href="#DejaVuSans-30" x="95.410156"/>
      </g>
     </g>
    </g>
    <g id="ytick_7">
     <g id="line2d_13">
      <g>
       <use xlink:href="#m370d5f3b37" x="42.1" y="54.317698" style="stroke: #000000; stroke-width: 0.8"/>
      </g>
     </g>
     <g id="text_7">
      <!-- 7.5 -->
      <g transform="translate(19.196875 58.116916) scale(0.1 -0.1)">
       <use xlink:href="#DejaVuSans-37"/>
       <use xlink:href="#DejaVuSans-2e" x="63.623047"/>
       <use xlink:href="#DejaVuSans-35" x="95.410156"/>
      </g>
     </g>
    </g>
   </g>
   <g id="line2d_14">
    <path d="M 72.422727 110.159859 
L 78.548531 206.066037 
L 84.674334 90.783512 
L 90.800138 233.830015 
L 96.925941 51.677848 
L 103.051745 234.939163 
L 109.177548 56.14228 
L 115.303352 246.880691 
L 121.429155 45.005757 
L 127.554959 244.356996 
L 133.680762 47.567965 
L 139.806566 228.505012 
L 145.932369 56.300802 
L 152.058173 222.510215 
L 158.183976 79.483144 
L 164.30978 215.2528 
L 170.435583 68.21995 
L 176.561387 230.764946 
L 182.68719 60.750405 
L 188.812994 234.591628 
L 194.938797 51.646645 
L 201.064601 227.087848 
L 207.190404 79.788652 
L 213.316208 222.642981 
L 219.442011 73.986977 
L 225.567815 212.087096 
L 231.693618 95.628323 
L 237.819421 205.870643 
L 243.945225 80.959986 
L 250.071028 219.883155 
L 256.196832 87.024377 
L 262.322635 189.435186 
L 268.448439 106.206039 
L 274.574242 179.72113 
L 280.700046 120.525834 
L 286.825849 167.457918 
L 292.951653 116.021774 
L 299.077456 172.698854 
L 305.20326 121.691089 
L 311.329063 171.572448 
L 317.454867 119.825429 
L 323.58067 152.788664 
L 329.706474 121.187396 
L 335.832277 176.207211 
L 341.958081 112.073424 
L 348.083884 172.489319 
L 354.209688 108.768001 
L 360.335491 171.638235 
L 366.461295 119.404941 
L 372.587098 189.061902 
L 378.712902 103.05282 
L 384.838705 192.048597 
L 390.964509 111.337684 
L 397.090312 206.442931 
L 403.216116 93.709369 
L 409.341919 203.268547 
L 415.467723 97.785246 
L 421.593526 216.382362 
L 427.71933 97.537764 
L 433.845133 186.089068 
L 439.970937 105.3139 
L 446.09674 187.432537 
L 452.222544 74.087707 
L 458.348347 240.101102 
L 464.474151 37.028636 
L 470.599954 254.401364 
L 476.725758 47.767063 
L 482.851561 235.92245 
L 488.977365 63.008855 
L 495.103168 233.677849 
L 501.228972 57.345687 
L 507.354775 220.852403 
L 513.480579 68.637187 
L 519.606382 217.998549 
L 525.732185 74.365736 
L 531.857989 225.853271 
L 537.983792 51.891529 
L 544.109596 235.783687 
L 550.235399 57.29876 
L 556.361203 235.577885 
L 562.487006 69.110235 
L 568.61281 196.31722 
L 574.738613 95.693858 
L 580.864417 185.069177 
L 586.99022 95.374273 
L 593.116024 208.158742 
L 599.241827 99.526279 
L 605.367631 157.169838 
L 611.493434 138.129335 
L 617.619238 174.828455 
L 623.745041 87.730954 
L 629.870845 210.466584 
L 635.996648 78.842616 
L 642.122452 192.117704 
L 648.248255 103.556514 
L 654.374059 189.467479 
L 660.499862 96.29726 
L 666.625666 197.8943 
L 672.751469 85.344234 
L 678.877273 219.505723 
" clip-path="url(#p217eb315c3)" style="fill: none; stroke: #1f77b4; stroke-width: 1.5; stroke-linecap: square"/>
   </g>
   <g id="patch_3">
    <path d="M 42.1 265.27 
L 42.1 26.16 
" style="fill: none; stroke: #000000; stroke-width: 0.8; stroke-linejoin: miter; stroke-linecap: square"/>
   </g>
   <g id="patch_4">
    <path d="M 709.2 265.27 
L 709.2 26.16 
" style="fill: none; stroke: #000000; stroke-width: 0.8; stroke-linejoin: miter; stroke-linecap: square"/>
   </g>
   <g id="patch_5">
    <path d="M 42.1 265.27 
L 709.2 265.27 
" style="fill: none; stroke: #000000; stroke-width: 0.8; stroke-linejoin: miter; stroke-linecap: square"/>
   </g>
   <g id="patch_6">
    <path d="M 42.1 26.16 
L 709.2 26.16 
" style="fill: none; stroke: #000000; stroke-width: 0.8; stroke-linejoin: miter; stroke-linecap: square"/>
   </g>
   <g id="text_8">
    <!-- One Realization of AR(1) Process with ϕ=-1 -->
    <g transform="translate(246.060313 20.16) scale(0.12 -0.12)">
     <defs>
      <path id="DejaVuSans-4f" d="M 2522 4238 
Q 1834 4238 1429 3725 
Q 1025 3213 1025 2328 
Q 1025 1447 1429 934 
Q 1834 422 2522 422 
Q 3209 422 3611 934 
Q 4013 1447 4013 2328 
Q 4013 3213 3611 3725 
Q 3209 4238 2522 4238 
z
M 2522 4750 
Q 3503 4750 4090 4092 
Q 4678 3434 4678 2328 
Q 4678 1225 4090 567 
Q 3503 -91 2522 -91 
Q 1538 -91 948 565 
Q 359 1222 359 2328 
Q 359 3434 948 4092 
Q 1538 4750 2522 4750 
z
" transform="scale(0.015625)"/>
      <path id="DejaVuSans-6e" d="M 3513 2113 
L 3513 0 
L 2938 0 
L 2938 2094 
Q 2938 2591 2744 2837 
Q 2550 3084 2163 3084 
Q 1697 3084 1428 2787 
Q 1159 2491 1159 1978 
L 1159 0 
L 581 0 
L 581 3500 
L 1159 3500 
L 1159 2956 
Q 1366 3272 1645 3428 
Q 1925 3584 2291 3584 
Q 2894 3584 3203 3211 
Q 3513 2838 3513 2113 
z
" transform="scale(0.015625)"/>
      <path id="DejaVuSans-65" d="M 3597 1894 
L 3597 1613 
L 953 1613 
Q 991 1019 1311 708 
Q 1631 397 2203 397 
Q 2534 397 2845 478 
Q 3156 559 3463 722 
L 3463 178 
Q 3153 47 2828 -22 
Q 2503 -91 2169 -91 
Q 1331 -91 842 396 
Q 353 884 353 1716 
Q 353 2575 817 3079 
Q 1281 3584 2069 3584 
Q 2775 3584 3186 3129 
Q 3597 2675 3597 1894 
z
M 3022 2063 
Q 3016 2534 2758 2815 
Q 2500 3097 2075 3097 
Q 1594 3097 1305 2825 
Q 1016 2553 972 2059 
L 3022 2063 
z
" transform="scale(0.015625)"/>
      <path id="DejaVuSans-20" transform="scale(0.015625)"/>
      <path id="DejaVuSans-52" d="M 2841 2188 
Q 3044 2119 3236 1894 
Q 3428 1669 3622 1275 
L 4263 0 
L 3584 0 
L 2988 1197 
Q 2756 1666 2539 1819 
Q 2322 1972 1947 1972 
L 1259 1972 
L 1259 0 
L 628 0 
L 628 4666 
L 2053 4666 
Q 2853 4666 3247 4331 
Q 3641 3997 3641 3322 
Q 3641 2881 3436 2590 
Q 3231 2300 2841 2188 
z
M 1259 4147 
L 1259 2491 
L 2053 2491 
Q 2509 2491 2742 2702 
Q 2975 2913 2975 3322 
Q 2975 3731 2742 3939 
Q 2509 4147 2053 4147 
L 1259 4147 
z
" transform="scale(0.015625)"/>
      <path id="DejaVuSans-61" d="M 2194 1759 
Q 1497 1759 1228 1600 
Q 959 1441 959 1056 
Q 959 750 1161 570 
Q 1363 391 1709 391 
Q 2188 391 2477 730 
Q 2766 1069 2766 1631 
L 2766 1759 
L 2194 1759 
z
M 3341 1997 
L 3341 0 
L 2766 0 
L 2766 531 
Q 2569 213 2275 61 
Q 1981 -91 1556 -91 
Q 1019 -91 701 211 
Q 384 513 384 1019 
Q 384 1609 779 1909 
Q 1175 2209 1959 2209 
L 2766 2209 
L 2766 2266 
Q 2766 2663 2505 2880 
Q 2244 3097 1772 3097 
Q 1472 3097 1187 3025 
Q 903 2953 641 2809 
L 641 3341 
Q 956 3463 1253 3523 
Q 1550 3584 1831 3584 
Q 2591 3584 2966 3190 
Q 3341 2797 3341 1997 
z
" transform="scale(0.015625)"/>
      <path id="DejaVuSans-6c" d="M 603 4863 
L 1178 4863 
L 1178 0 
L 603 0 
L 603 4863 
z
" transform="scale(0.015625)"/>
      <path id="DejaVuSans-69" d="M 603 3500 
L 1178 3500 
L 1178 0 
L 603 0 
L 603 3500 
z
M 603 4863 
L 1178 4863 
L 1178 4134 
L 603 4134 
L 603 4863 
z
" transform="scale(0.015625)"/>
      <path id="DejaVuSans-7a" d="M 353 3500 
L 3084 3500 
L 3084 2975 
L 922 459 
L 3084 459 
L 3084 0 
L 275 0 
L 275 525 
L 2438 3041 
L 353 3041 
L 353 3500 
z
" transform="scale(0.015625)"/>
      <path id="DejaVuSans-74" d="M 1172 4494 
L 1172 3500 
L 2356 3500 
L 2356 3053 
L 1172 3053 
L 1172 1153 
Q 1172 725 1289 603 
Q 1406 481 1766 481 
L 2356 481 
L 2356 0 
L 1766 0 
Q 1100 0 847 248 
Q 594 497 594 1153 
L 594 3053 
L 172 3053 
L 172 3500 
L 594 3500 
L 594 4494 
L 1172 4494 
z
" transform="scale(0.015625)"/>
      <path id="DejaVuSans-6f" d="M 1959 3097 
Q 1497 3097 1228 2736 
Q 959 2375 959 1747 
Q 959 1119 1226 758 
Q 1494 397 1959 397 
Q 2419 397 2687 759 
Q 2956 1122 2956 1747 
Q 2956 2369 2687 2733 
Q 2419 3097 1959 3097 
z
M 1959 3584 
Q 2709 3584 3137 3096 
Q 3566 2609 3566 1747 
Q 3566 888 3137 398 
Q 2709 -91 1959 -91 
Q 1206 -91 779 398 
Q 353 888 353 1747 
Q 353 2609 779 3096 
Q 1206 3584 1959 3584 
z
" transform="scale(0.015625)"/>
      <path id="DejaVuSans-66" d="M 2375 4863 
L 2375 4384 
L 1825 4384 
Q 1516 4384 1395 4259 
Q 1275 4134 1275 3809 
L 1275 3500 
L 2222 3500 
L 2222 3053 
L 1275 3053 
L 1275 0 
L 697 0 
L 697 3053 
L 147 3053 
L 147 3500 
L 697 3500 
L 697 3744 
Q 697 4328 969 4595 
Q 1241 4863 1831 4863 
L 2375 4863 
z
" transform="scale(0.015625)"/>
      <path id="DejaVuSans-41" d="M 2188 4044 
L 1331 1722 
L 3047 1722 
L 2188 4044 
z
M 1831 4666 
L 2547 4666 
L 4325 0 
L 3669 0 
L 3244 1197 
L 1141 1197 
L 716 0 
L 50 0 
L 1831 4666 
z
" transform="scale(0.015625)"/>
      <path id="DejaVuSans-28" d="M 1984 4856 
Q 1566 4138 1362 3434 
Q 1159 2731 1159 2009 
Q 1159 1288 1364 580 
Q 1569 -128 1984 -844 
L 1484 -844 
Q 1016 -109 783 600 
Q 550 1309 550 2009 
Q 550 2706 781 3412 
Q 1013 4119 1484 4856 
L 1984 4856 
z
" transform="scale(0.015625)"/>
      <path id="DejaVuSans-31" d="M 794 531 
L 1825 531 
L 1825 4091 
L 703 3866 
L 703 4441 
L 1819 4666 
L 2450 4666 
L 2450 531 
L 3481 531 
L 3481 0 
L 794 0 
L 794 531 
z
" transform="scale(0.015625)"/>
      <path id="DejaVuSans-29" d="M 513 4856 
L 1013 4856 
Q 1481 4119 1714 3412 
Q 1947 2706 1947 2009 
Q 1947 1309 1714 600 
Q 1481 -109 1013 -844 
L 513 -844 
Q 928 -128 1133 580 
Q 1338 1288 1338 2009 
Q 1338 2731 1133 3434 
Q 928 4138 513 4856 
z
" transform="scale(0.015625)"/>
      <path id="DejaVuSans-50" d="M 1259 4147 
L 1259 2394 
L 2053 2394 
Q 2494 2394 2734 2622 
Q 2975 2850 2975 3272 
Q 2975 3691 2734 3919 
Q 2494 4147 2053 4147 
L 1259 4147 
z
M 628 4666 
L 2053 4666 
Q 2838 4666 3239 4311 
Q 3641 3956 3641 3272 
Q 3641 2581 3239 2228 
Q 2838 1875 2053 1875 
L 1259 1875 
L 1259 0 
L 628 0 
L 628 4666 
z
" transform="scale(0.015625)"/>
      <path id="DejaVuSans-72" d="M 2631 2963 
Q 2534 3019 2420 3045 
Q 2306 3072 2169 3072 
Q 1681 3072 1420 2755 
Q 1159 2438 1159 1844 
L 1159 0 
L 581 0 
L 581 3500 
L 1159 3500 
L 1159 2956 
Q 1341 3275 1631 3429 
Q 1922 3584 2338 3584 
Q 2397 3584 2469 3576 
Q 2541 3569 2628 3553 
L 2631 2963 
z
" transform="scale(0.015625)"/>
      <path id="DejaVuSans-63" d="M 3122 3366 
L 3122 2828 
Q 2878 2963 2633 3030 
Q 2388 3097 2138 3097 
Q 1578 3097 1268 2742 
Q 959 2388 959 1747 
Q 959 1106 1268 751 
Q 1578 397 2138 397 
Q 2388 397 2633 464 
Q 2878 531 3122 666 
L 3122 134 
Q 2881 22 2623 -34 
Q 2366 -91 2075 -91 
Q 1284 -91 818 406 
Q 353 903 353 1747 
Q 353 2603 823 3093 
Q 1294 3584 2113 3584 
Q 2378 3584 2631 3529 
Q 2884 3475 3122 3366 
z
" transform="scale(0.015625)"/>
      <path id="DejaVuSans-73" d="M 2834 3397 
L 2834 2853 
Q 2591 2978 2328 3040 
Q 2066 3103 1784 3103 
Q 1356 3103 1142 2972 
Q 928 2841 928 2578 
Q 928 2378 1081 2264 
Q 1234 2150 1697 2047 
L 1894 2003 
Q 2506 1872 2764 1633 
Q 3022 1394 3022 966 
Q 3022 478 2636 193 
Q 2250 -91 1575 -91 
Q 1294 -91 989 -36 
Q 684 19 347 128 
L 347 722 
Q 666 556 975 473 
Q 1284 391 1588 391 
Q 1994 391 2212 530 
Q 2431 669 2431 922 
Q 2431 1156 2273 1281 
Q 2116 1406 1581 1522 
L 1381 1569 
Q 847 1681 609 1914 
Q 372 2147 372 2553 
Q 372 3047 722 3315 
Q 1072 3584 1716 3584 
Q 2034 3584 2315 3537 
Q 2597 3491 2834 3397 
z
" transform="scale(0.015625)"/>
      <path id="DejaVuSans-77" d="M 269 3500 
L 844 3500 
L 1563 769 
L 2278 3500 
L 2956 3500 
L 3675 769 
L 4391 3500 
L 4966 3500 
L 4050 0 
L 3372 0 
L 2619 2869 
L 1863 0 
L 1184 0 
L 269 3500 
z
" transform="scale(0.015625)"/>
      <path id="DejaVuSans-68" d="M 3513 2113 
L 3513 0 
L 2938 0 
L 2938 2094 
Q 2938 2591 2744 2837 
Q 2550 3084 2163 3084 
Q 1697 3084 1428 2787 
Q 1159 2491 1159 1978 
L 1159 0 
L 581 0 
L 581 4863 
L 1159 4863 
L 1159 2956 
Q 1366 3272 1645 3428 
Q 1925 3584 2291 3584 
Q 2894 3584 3203 3211 
Q 3513 2838 3513 2113 
z
" transform="scale(0.015625)"/>
      <path id="DejaVuSans-3d5" d="M 2388 4863 
L 2388 3572 
Q 3009 3572 3425 3094 
Q 3853 2606 3853 1747 
Q 3853 888 3425 400 
Q 3009 -78 2388 -78 
L 2388 -1331 
L 1816 -1331 
L 1816 -78 
Q 1194 -78 775 400 
Q 350 888 350 1747 
Q 350 2606 775 3094 
Q 1194 3572 1816 3572 
L 1816 4863 
L 2388 4863 
z
M 2388 434 
Q 2741 434 2981 756 
Q 3244 1116 3247 1747 
Q 3250 2372 2981 2738 
Q 2741 3059 2388 3059 
L 2388 434 
z
M 1816 434 
L 1816 3059 
Q 1463 3059 1225 2738 
Q 953 2372 956 1747 
Q 959 1116 1225 756 
Q 1463 434 1816 434 
z
" transform="scale(0.015625)"/>
      <path id="DejaVuSans-3d" d="M 678 2906 
L 4684 2906 
L 4684 2381 
L 678 2381 
L 678 2906 
z
M 678 1631 
L 4684 1631 
L 4684 1100 
L 678 1100 
L 678 1631 
z
" transform="scale(0.015625)"/>
      <path id="DejaVuSans-2d" d="M 313 2009 
L 1997 2009 
L 1997 1497 
L 313 1497 
L 313 2009 
z
" transform="scale(0.015625)"/>
     </defs>
     <use xlink:href="#DejaVuSans-4f"/>
     <use xlink:href="#DejaVuSans-6e" x="78.710938"/>
     <use xlink:href="#DejaVuSans-65" x="142.089844"/>
     <use xlink:href="#DejaVuSans-20" x="203.613281"/>
     <use xlink:href="#DejaVuSans-52" x="235.400391"/>
     <use xlink:href="#DejaVuSans-65" x="300.382812"/>
     <use xlink:href="#DejaVuSans-61" x="361.90625"/>
     <use xlink:href="#DejaVuSans-6c" x="423.185547"/>
     <use xlink:href="#DejaVuSans-69" x="450.96875"/>
     <use xlink:href="#DejaVuSans-7a" x="478.751953"/>
     <use xlink:href="#DejaVuSans-61" x="531.242188"/>
     <use xlink:href="#DejaVuSans-74" x="592.521484"/>
     <use xlink:href="#DejaVuSans-69" x="631.730469"/>
     <use xlink:href="#DejaVuSans-6f" x="659.513672"/>
     <use xlink:href="#DejaVuSans-6e" x="720.695312"/>
     <use xlink:href="#DejaVuSans-20" x="784.074219"/>
     <use xlink:href="#DejaVuSans-6f" x="815.861328"/>
     <use xlink:href="#DejaVuSans-66" x="877.042969"/>
     <use xlink:href="#DejaVuSans-20" x="912.248047"/>
     <use xlink:href="#DejaVuSans-41" x="944.035156"/>
     <use xlink:href="#DejaVuSans-52" x="1012.443359"/>
     <use xlink:href="#DejaVuSans-28" x="1081.925781"/>
     <use xlink:href="#DejaVuSans-31" x="1120.939453"/>
     <use xlink:href="#DejaVuSans-29" x="1184.5625"/>
     <use xlink:href="#DejaVuSans-20" x="1223.576172"/>
     <use xlink:href="#DejaVuSans-50" x="1255.363281"/>
     <use xlink:href="#DejaVuSans-72" x="1313.916016"/>
     <use xlink:href="#DejaVuSans-6f" x="1352.779297"/>
     <use xlink:href="#DejaVuSans-63" x="1413.960938"/>
     <use xlink:href="#DejaVuSans-65" x="1468.941406"/>
     <use xlink:href="#DejaVuSans-73" x="1530.464844"/>
     <use xlink:href="#DejaVuSans-73" x="1582.564453"/>
     <use xlink:href="#DejaVuSans-20" x="1634.664062"/>
     <use xlink:href="#DejaVuSans-77" x="1666.451172"/>
     <use xlink:href="#DejaVuSans-69" x="1748.238281"/>
     <use xlink:href="#DejaVuSans-74" x="1776.021484"/>
     <use xlink:href="#DejaVuSans-68" x="1815.230469"/>
     <use xlink:href="#DejaVuSans-20" x="1878.609375"/>
     <use xlink:href="#DejaVuSans-3d5" x="1910.396484"/>
     <use xlink:href="#DejaVuSans-3d" x="1976.363281"/>
     <use xlink:href="#DejaVuSans-2d" x="2060.152344"/>
     <use xlink:href="#DejaVuSans-31" x="2096.236328"/>
    </g>
   </g>
   <g id="legend_1">
    <g id="patch_7">
     <path d="M 535.695312 48.838125 
L 702.2 48.838125 
Q 704.2 48.838125 704.2 46.838125 
L 704.2 33.16 
Q 704.2 31.16 702.2 31.16 
L 535.695312 31.16 
Q 533.695312 31.16 533.695312 33.16 
L 533.695312 46.838125 
Q 533.695312 48.838125 535.695312 48.838125 
z
" style="fill: #ffffff; opacity: 0.8; stroke: #cccccc; stroke-linejoin: miter"/>
    </g>
    <g id="line2d_15">
     <path d="M 537.695312 39.258438 
L 547.695312 39.258438 
L 557.695312 39.258438 
" style="fill: none; stroke: #1f77b4; stroke-width: 1.5; stroke-linecap: square"/>
    </g>
    <g id="text_9">
     <!-- AR(1) with c=1, σ=1, ϕ=-1 -->
     <g transform="translate(565.695312 42.758438) scale(0.1 -0.1)">
      <defs>
       <path id="DejaVuSans-2c" d="M 750 794 
L 1409 794 
L 1409 256 
L 897 -744 
L 494 -744 
L 750 256 
L 750 794 
z
" transform="scale(0.015625)"/>
       <path id="DejaVuSans-3c3" d="M 1959 3044 
Q 1484 3044 1228 2700 
Q 959 2341 959 1747 
Q 959 1119 1226 758 
Q 1494 397 1959 397 
Q 2419 397 2687 759 
Q 2956 1122 2956 1747 
Q 2956 2319 2688 2700 
Q 2441 3044 1959 3044 
z
M 1959 3500 
L 3869 3500 
L 3869 2925 
L 3225 2925 
Q 3566 2438 3566 1747 
Q 3566 888 3138 400 
Q 2709 -91 1959 -91 
Q 1206 -91 781 400 
Q 353 888 353 1747 
Q 353 2613 781 3097 
Q 1134 3500 1959 3500 
z
" transform="scale(0.015625)"/>
      </defs>
      <use xlink:href="#DejaVuSans-41"/>
      <use xlink:href="#DejaVuSans-52" x="68.408203"/>
      <use xlink:href="#DejaVuSans-28" x="137.890625"/>
      <use xlink:href="#DejaVuSans-31" x="176.904297"/>
      <use xlink:href="#DejaVuSans-29" x="240.527344"/>
      <use xlink:href="#DejaVuSans-20" x="279.541016"/>
      <use xlink:href="#DejaVuSans-77" x="311.328125"/>
      <use xlink:href="#DejaVuSans-69" x="393.115234"/>
      <use xlink:href="#DejaVuSans-74" x="420.898438"/>
      <use xlink:href="#DejaVuSans-68" x="460.107422"/>
      <use xlink:href="#DejaVuSans-20" x="523.486328"/>
      <use xlink:href="#DejaVuSans-63" x="555.273438"/>
      <use xlink:href="#DejaVuSans-3d" x="610.253906"/>
      <use xlink:href="#DejaVuSans-31" x="694.042969"/>
      <use xlink:href="#DejaVuSans-2c" x="757.666016"/>
      <use xlink:href="#DejaVuSans-20" x="789.453125"/>
      <use xlink:href="#DejaVuSans-3c3" x="821.240234"/>
      <use xlink:href="#DejaVuSans-3d" x="884.619141"/>
      <use xlink:href="#DejaVuSans-31" x="968.408203"/>
      <use xlink:href="#DejaVuSans-2c" x="1032.03125"/>
      <use xlink:href="#DejaVuSans-20" x="1063.818359"/>
      <use xlink:href="#DejaVuSans-3d5" x="1095.605469"/>
      <use xlink:href="#DejaVuSans-3d" x="1161.572266"/>
      <use xlink:href="#DejaVuSans-2d" x="1245.361328"/>
      <use xlink:href="#DejaVuSans-31" x="1281.445312"/>
     </g>
    </g>
   </g>
  </g>
  <g id="axes_2">
   <g id="patch_8">
    <path d="M 42.1 534.04 
L 709.2 534.04 
L 709.2 294.93 
L 42.1 294.93 
z
" style="fill: #ffffff"/>
   </g>
   <g id="matplotlib.axis_3">
    <g id="xtick_7">
     <g id="line2d_16">
      <g>
       <use xlink:href="#m8707f2018d" x="72.422727" y="534.04" style="stroke: #000000; stroke-width: 0.8"/>
      </g>
     </g>
     <g id="text_10">
      <!-- 0 -->
      <g transform="translate(69.241477 548.638438) scale(0.1 -0.1)">
       <use xlink:href="#DejaVuSans-30"/>
      </g>
     </g>
    </g>
    <g id="xtick_8">
     <g id="line2d_17">
      <g>
       <use xlink:href="#m8707f2018d" x="194.938797" y="534.04" style="stroke: #000000; stroke-width: 0.8"/>
      </g>
     </g>
     <g id="text_11">
      <!-- 20 -->
      <g transform="translate(188.576297 548.638438) scale(0.1 -0.1)">
       <use xlink:href="#DejaVuSans-32"/>
       <use xlink:href="#DejaVuSans-30" x="63.623047"/>
      </g>
     </g>
    </g>
    <g id="xtick_9">
     <g id="line2d_18">
      <g>
       <use xlink:href="#m8707f2018d" x="317.454867" y="534.04" style="stroke: #000000; stroke-width: 0.8"/>
      </g>
     </g>
     <g id="text_12">
      <!-- 40 -->
      <g transform="translate(311.092367 548.638438) scale(0.1 -0.1)">
       <defs>
        <path id="DejaVuSans-34" d="M 2419 4116 
L 825 1625 
L 2419 1625 
L 2419 4116 
z
M 2253 4666 
L 3047 4666 
L 3047 1625 
L 3713 1625 
L 3713 1100 
L 3047 1100 
L 3047 0 
L 2419 0 
L 2419 1100 
L 313 1100 
L 313 1709 
L 2253 4666 
z
" transform="scale(0.015625)"/>
       </defs>
       <use xlink:href="#DejaVuSans-34"/>
       <use xlink:href="#DejaVuSans-30" x="63.623047"/>
      </g>
     </g>
    </g>
    <g id="xtick_10">
     <g id="line2d_19">
      <g>
       <use xlink:href="#m8707f2018d" x="439.970937" y="534.04" style="stroke: #000000; stroke-width: 0.8"/>
      </g>
     </g>
     <g id="text_13">
      <!-- 60 -->
      <g transform="translate(433.608437 548.638438) scale(0.1 -0.1)">
       <defs>
        <path id="DejaVuSans-36" d="M 2113 2584 
Q 1688 2584 1439 2293 
Q 1191 2003 1191 1497 
Q 1191 994 1439 701 
Q 1688 409 2113 409 
Q 2538 409 2786 701 
Q 3034 994 3034 1497 
Q 3034 2003 2786 2293 
Q 2538 2584 2113 2584 
z
M 3366 4563 
L 3366 3988 
Q 3128 4100 2886 4159 
Q 2644 4219 2406 4219 
Q 1781 4219 1451 3797 
Q 1122 3375 1075 2522 
Q 1259 2794 1537 2939 
Q 1816 3084 2150 3084 
Q 2853 3084 3261 2657 
Q 3669 2231 3669 1497 
Q 3669 778 3244 343 
Q 2819 -91 2113 -91 
Q 1303 -91 875 529 
Q 447 1150 447 2328 
Q 447 3434 972 4092 
Q 1497 4750 2381 4750 
Q 2619 4750 2861 4703 
Q 3103 4656 3366 4563 
z
" transform="scale(0.015625)"/>
       </defs>
       <use xlink:href="#DejaVuSans-36"/>
       <use xlink:href="#DejaVuSans-30" x="63.623047"/>
      </g>
     </g>
    </g>
    <g id="xtick_11">
     <g id="line2d_20">
      <g>
       <use xlink:href="#m8707f2018d" x="562.487006" y="534.04" style="stroke: #000000; stroke-width: 0.8"/>
      </g>
     </g>
     <g id="text_14">
      <!-- 80 -->
      <g transform="translate(556.124506 548.638438) scale(0.1 -0.1)">
       <defs>
        <path id="DejaVuSans-38" d="M 2034 2216 
Q 1584 2216 1326 1975 
Q 1069 1734 1069 1313 
Q 1069 891 1326 650 
Q 1584 409 2034 409 
Q 2484 409 2743 651 
Q 3003 894 3003 1313 
Q 3003 1734 2745 1975 
Q 2488 2216 2034 2216 
z
M 1403 2484 
Q 997 2584 770 2862 
Q 544 3141 544 3541 
Q 544 4100 942 4425 
Q 1341 4750 2034 4750 
Q 2731 4750 3128 4425 
Q 3525 4100 3525 3541 
Q 3525 3141 3298 2862 
Q 3072 2584 2669 2484 
Q 3125 2378 3379 2068 
Q 3634 1759 3634 1313 
Q 3634 634 3220 271 
Q 2806 -91 2034 -91 
Q 1263 -91 848 271 
Q 434 634 434 1313 
Q 434 1759 690 2068 
Q 947 2378 1403 2484 
z
M 1172 3481 
Q 1172 3119 1398 2916 
Q 1625 2713 2034 2713 
Q 2441 2713 2670 2916 
Q 2900 3119 2900 3481 
Q 2900 3844 2670 4047 
Q 2441 4250 2034 4250 
Q 1625 4250 1398 4047 
Q 1172 3844 1172 3481 
z
" transform="scale(0.015625)"/>
       </defs>
       <use xlink:href="#DejaVuSans-38"/>
       <use xlink:href="#DejaVuSans-30" x="63.623047"/>
      </g>
     </g>
    </g>
    <g id="xtick_12">
     <g id="line2d_21">
      <g>
       <use xlink:href="#m8707f2018d" x="685.003076" y="534.04" style="stroke: #000000; stroke-width: 0.8"/>
      </g>
     </g>
     <g id="text_15">
      <!-- 100 -->
      <g transform="translate(675.459326 548.638438) scale(0.1 -0.1)">
       <use xlink:href="#DejaVuSans-31"/>
       <use xlink:href="#DejaVuSans-30" x="63.623047"/>
       <use xlink:href="#DejaVuSans-30" x="127.246094"/>
      </g>
     </g>
    </g>
    <g id="text_16">
     <!-- t -->
     <g transform="translate(373.689844 562.316562) scale(0.1 -0.1)">
      <use xlink:href="#DejaVuSans-74"/>
     </g>
    </g>
   </g>
   <g id="matplotlib.axis_4">
    <g id="ytick_8">
     <g id="line2d_22">
      <g>
       <use xlink:href="#m370d5f3b37" x="42.1" y="521.85452" style="stroke: #000000; stroke-width: 0.8"/>
      </g>
     </g>
     <g id="text_17">
      <!-- −20 -->
      <g transform="translate(13.995313 525.653739) scale(0.1 -0.1)">
       <use xlink:href="#DejaVuSans-2212"/>
       <use xlink:href="#DejaVuSans-32" x="83.789062"/>
       <use xlink:href="#DejaVuSans-30" x="147.412109"/>
      </g>
     </g>
    </g>
    <g id="ytick_9">
     <g id="line2d_23">
      <g>
       <use xlink:href="#m370d5f3b37" x="42.1" y="468.719863" style="stroke: #000000; stroke-width: 0.8"/>
      </g>
     </g>
     <g id="text_18">
      <!-- −10 -->
      <g transform="translate(13.995313 472.519082) scale(0.1 -0.1)">
       <use xlink:href="#DejaVuSans-2212"/>
       <use xlink:href="#DejaVuSans-31" x="83.789062"/>
       <use xlink:href="#DejaVuSans-30" x="147.412109"/>
      </g>
     </g>
    </g>
    <g id="ytick_10">
     <g id="line2d_24">
      <g>
       <use xlink:href="#m370d5f3b37" x="42.1" y="415.585205" style="stroke: #000000; stroke-width: 0.8"/>
      </g>
     </g>
     <g id="text_19">
      <!-- 0 -->
      <g transform="translate(28.7375 419.384424) scale(0.1 -0.1)">
       <use xlink:href="#DejaVuSans-30"/>
      </g>
     </g>
    </g>
    <g id="ytick_11">
     <g id="line2d_25">
      <g>
       <use xlink:href="#m370d5f3b37" x="42.1" y="362.450548" style="stroke: #000000; stroke-width: 0.8"/>
      </g>
     </g>
     <g id="text_20">
      <!-- 10 -->
      <g transform="translate(22.375 366.249766) scale(0.1 -0.1)">
       <use xlink:href="#DejaVuSans-31"/>
       <use xlink:href="#DejaVuSans-30" x="63.623047"/>
      </g>
     </g>
    </g>
    <g id="ytick_12">
     <g id="line2d_26">
      <g>
       <use xlink:href="#m370d5f3b37" x="42.1" y="309.31589" style="stroke: #000000; stroke-width: 0.8"/>
      </g>
     </g>
     <g id="text_21">
      <!-- 20 -->
      <g transform="translate(22.375 313.115109) scale(0.1 -0.1)">
       <use xlink:href="#DejaVuSans-32"/>
       <use xlink:href="#DejaVuSans-30" x="63.623047"/>
      </g>
     </g>
    </g>
   </g>
   <g id="line2d_27">
    <path d="M 72.422727 409.513933 
L 78.548531 421.062998 
L 84.674334 408.869174 
L 90.800138 411.097487 
L 96.925941 418.075986 
L 103.051745 398.68653 
L 109.177548 427.266195 
L 115.303352 400.521756 
L 121.429155 428.2904 
L 127.554959 400.973118 
L 133.680762 435.521237 
L 139.806566 387.102325 
L 145.932369 434.280164 
L 152.058173 385.585452 
L 158.183976 436.834562 
L 164.30978 393.402904 
L 170.435583 437.436054 
L 176.561387 392.277022 
L 182.68719 439.601053 
L 188.812994 397.415401 
L 194.938797 419.21978 
L 201.064601 404.399701 
L 207.190404 419.801999 
L 213.316208 404.889883 
L 219.442011 413.772867 
L 225.567815 417.978722 
L 231.693618 409.1765 
L 237.819421 413.341611 
L 243.945225 417.197281 
L 250.071028 401.946547 
L 256.196832 430.420719 
L 262.322635 400.879708 
L 268.448439 421.762535 
L 274.574242 405.819807 
L 280.700046 429.238779 
L 286.825849 400.340442 
L 292.951653 427.158809 
L 299.077456 397.608487 
L 305.20326 434.610887 
L 311.329063 388.587409 
L 317.454867 432.502525 
L 323.58067 389.145011 
L 329.706474 432.840455 
L 335.832277 390.737556 
L 341.958081 435.93857 
L 348.083884 402.399771 
L 354.209688 424.886076 
L 360.335491 404.699578 
L 366.461295 414.587464 
L 372.587098 417.323201 
L 378.712902 397.960494 
L 384.838705 428.237612 
L 390.964509 407.321059 
L 397.090312 409.710293 
L 403.216116 416.895446 
L 409.341919 393.997593 
L 415.467723 424.49294 
L 421.593526 393.110033 
L 427.71933 434.981263 
L 433.845133 388.46358 
L 439.970937 449.819482 
L 446.09674 378.826301 
L 452.222544 442.169213 
L 458.348347 389.730011 
L 464.474151 431.309007 
L 470.599954 388.360354 
L 476.725758 441.793453 
L 482.851561 397.139428 
L 488.977365 425.687483 
L 495.103168 399.057789 
L 501.228972 437.791386 
L 507.354775 391.731355 
L 513.480579 433.190874 
L 519.606382 396.057124 
L 525.732185 420.181954 
L 531.857989 400.370542 
L 537.983792 431.945061 
L 544.109596 398.182737 
L 550.235399 435.595676 
L 556.361203 396.401814 
L 562.487006 429.991558 
L 568.61281 398.851282 
L 574.738613 425.932138 
L 580.864417 393.166607 
L 586.99022 429.578287 
L 593.116024 392.567996 
L 599.241827 428.400802 
L 605.367631 399.123932 
L 611.493434 424.547206 
L 617.619238 396.379471 
L 623.745041 423.914102 
L 629.870845 396.261345 
L 635.996648 433.400735 
L 642.122452 386.398571 
L 648.248255 441.679192 
L 654.374059 373.126178 
L 660.499862 458.932868 
L 666.625666 365.769162 
L 672.751469 449.480369 
L 678.877273 380.045457 
" clip-path="url(#p1304d2a819)" style="fill: none; stroke: #1f77b4; stroke-width: 1.5; stroke-linecap: square"/>
   </g>
   <g id="line2d_28">
    <path d="M 72.422727 408.46747 
L 78.548531 423.816178 
L 84.674334 394.479677 
L 90.800138 426.282661 
L 96.925941 389.073764 
L 103.051745 439.08005 
L 109.177548 378.569373 
L 115.303352 435.73099 
L 121.429155 406.066903 
L 127.554959 420.130355 
L 133.680762 408.947887 
L 139.806566 420.379469 
L 145.932369 403.785331 
L 152.058173 416.575369 
L 158.183976 415.588036 
L 164.30978 406.471655 
L 170.435583 426.477079 
L 176.561387 387.43223 
L 182.68719 433.78337 
L 188.812994 395.826507 
L 194.938797 431.65546 
L 201.064601 396.115085 
L 207.190404 427.58946 
L 213.316208 397.364072 
L 219.442011 430.989223 
L 225.567815 403.152267 
L 231.693618 424.344146 
L 237.819421 395.941277 
L 243.945225 426.878461 
L 250.071028 404.194026 
L 256.196832 434.049657 
L 262.322635 394.331365 
L 268.448439 431.23579 
L 274.574242 398.015847 
L 280.700046 433.01824 
L 286.825849 393.452422 
L 292.951653 438.902821 
L 299.077456 391.744631 
L 305.20326 430.012166 
L 311.329063 390.889758 
L 317.454867 433.859139 
L 323.58067 392.234802 
L 329.706474 433.297068 
L 335.832277 384.827333 
L 341.958081 441.481472 
L 348.083884 386.50553 
L 354.209688 432.371716 
L 360.335491 391.992523 
L 366.461295 437.601621 
L 372.587098 389.427556 
L 378.712902 435.871447 
L 384.838705 392.187691 
L 390.964509 429.603433 
L 397.090312 390.439361 
L 403.216116 429.332698 
L 409.341919 391.553783 
L 415.467723 434.70272 
L 421.593526 394.962969 
L 427.71933 420.058314 
L 433.845133 403.528438 
L 439.970937 430.503735 
L 446.09674 401.987192 
L 452.222544 429.166077 
L 458.348347 387.975559 
L 464.474151 438.268884 
L 470.599954 389.058224 
L 476.725758 443.131764 
L 482.851561 379.118917 
L 488.977365 454.164401 
L 495.103168 376.950712 
L 501.228972 438.880284 
L 507.354775 386.933718 
L 513.480579 426.383719 
L 519.606382 402.151527 
L 525.732185 417.472992 
L 531.857989 403.299951 
L 537.983792 420.85192 
L 544.109596 408.699277 
L 550.235399 410.899917 
L 556.361203 411.900024 
L 562.487006 414.751873 
L 568.61281 408.528898 
L 574.738613 413.682288 
L 580.864417 417.306494 
L 586.99022 398.173409 
L 593.116024 430.202382 
L 599.241827 402.061941 
L 605.367631 423.782908 
L 611.493434 398.822427 
L 617.619238 422.375072 
L 623.745041 404.205117 
L 629.870845 407.363699 
L 635.996648 418.403357 
L 642.122452 403.109082 
L 648.248255 419.889697 
L 654.374059 402.622771 
L 660.499862 419.453705 
L 666.625666 406.75824 
L 672.751469 426.023915 
L 678.877273 396.683497 
" clip-path="url(#p1304d2a819)" style="fill: none; stroke: #ff7f0e; stroke-width: 1.5; stroke-linecap: square"/>
   </g>
   <g id="line2d_29">
    <path d="M 72.422727 415.854772 
L 78.548531 404.292766 
L 84.674334 425.470201 
L 90.800138 395.390827 
L 96.925941 431.54554 
L 103.051745 388.427309 
L 109.177548 439.977639 
L 115.303352 382.610104 
L 121.429155 446.406774 
L 127.554959 382.767918 
L 133.680762 447.805493 
L 139.806566 371.253643 
L 145.932369 457.261712 
L 152.058173 374.807676 
L 158.183976 448.991708 
L 164.30978 385.184949 
L 170.435583 450.166482 
L 176.561387 374.2803 
L 182.68719 448.132615 
L 188.812994 374.709108 
L 194.938797 446.316296 
L 201.064601 385.241008 
L 207.190404 437.589513 
L 213.316208 395.794295 
L 219.442011 431.401247 
L 225.567815 405.66616 
L 231.693618 420.172279 
L 237.819421 400.513797 
L 243.945225 429.405975 
L 250.071028 393.868957 
L 256.196832 428.458951 
L 262.322635 392.741119 
L 268.448439 436.307092 
L 274.574242 389.35052 
L 280.700046 445.746992 
L 286.825849 379.761108 
L 292.951653 452.645528 
L 299.077456 376.316802 
L 305.20326 443.189621 
L 311.329063 379.432848 
L 317.454867 445.299398 
L 323.58067 381.094259 
L 329.706474 448.009068 
L 335.832277 381.097711 
L 341.958081 447.769708 
L 348.083884 380.46253 
L 354.209688 440.273284 
L 360.335491 387.176189 
L 366.461295 444.207045 
L 372.587098 384.90855 
L 378.712902 440.832771 
L 384.838705 384.26276 
L 390.964509 448.763769 
L 397.090312 375.070396 
L 403.216116 447.915393 
L 409.341919 380.687231 
L 415.467723 449.357931 
L 421.593526 374.476249 
L 427.71933 464.805187 
L 433.845133 362.119028 
L 439.970937 465.744816 
L 446.09674 354.830834 
L 452.222544 464.407836 
L 458.348347 360.025483 
L 464.474151 464.374754 
L 470.599954 363.786882 
L 476.725758 462.963186 
L 482.851561 363.366732 
L 488.977365 463.429111 
L 495.103168 369.933882 
L 501.228972 461.176969 
L 507.354775 361.550477 
L 513.480579 459.195018 
L 519.606382 352.137834 
L 525.732185 476.965813 
L 531.857989 350.822816 
L 537.983792 466.9347 
L 544.109596 366.242382 
L 550.235399 467.766322 
L 556.361203 356.994806 
L 562.487006 469.882082 
L 568.61281 355.741086 
L 574.738613 474.789489 
L 580.864417 355.430615 
L 586.99022 467.235869 
L 593.116024 362.922195 
L 599.241827 469.141884 
L 605.367631 352.657724 
L 611.493434 473.382484 
L 617.619238 355.82449 
L 623.745041 463.177401 
L 629.870845 362.030009 
L 635.996648 465.680291 
L 642.122452 359.507084 
L 648.248255 470.544665 
L 654.374059 361.850553 
L 660.499862 465.377607 
L 666.625666 364.860651 
L 672.751469 464.853025 
L 678.877273 362.813926 
" clip-path="url(#p1304d2a819)" style="fill: none; stroke: #2ca02c; stroke-width: 1.5; stroke-linecap: square"/>
   </g>
   <g id="line2d_30">
    <path d="M 72.422727 401.006992 
L 78.548531 421.415 
L 84.674334 404.805723 
L 90.800138 419.363235 
L 96.925941 410.26909 
L 103.051745 420.183154 
L 109.177548 411.638957 
L 115.303352 418.17423 
L 121.429155 404.422114 
L 127.554959 416.011639 
L 133.680762 405.854394 
L 139.806566 420.516683 
L 145.932369 402.21069 
L 152.058173 419.492983 
L 158.183976 408.838661 
L 164.30978 418.603616 
L 170.435583 407.709123 
L 176.561387 420.118294 
L 182.68719 394.905994 
L 188.812994 432.261638 
L 194.938797 392.286977 
L 201.064601 442.363476 
L 207.190404 386.321715 
L 213.316208 445.101858 
L 219.442011 376.63708 
L 225.567815 445.83547 
L 231.693618 374.607033 
L 237.819421 448.748914 
L 243.945225 369.018197 
L 250.071028 450.09017 
L 256.196832 366.556927 
L 262.322635 462.684575 
L 268.448439 366.302955 
L 274.574242 470.188442 
L 280.700046 359.730906 
L 286.825849 455.944345 
L 292.951653 372.559545 
L 299.077456 450.448527 
L 305.20326 371.725011 
L 311.329063 467.666391 
L 317.454867 354.219556 
L 323.58067 472.161802 
L 329.706474 355.23776 
L 335.832277 472.129313 
L 341.958081 347.759833 
L 348.083884 473.939326 
L 354.209688 361.597981 
L 360.335491 453.705542 
L 366.461295 368.89547 
L 372.587098 458.27153 
L 378.712902 361.784497 
L 384.838705 466.85706 
L 390.964509 356.562382 
L 397.090312 471.169357 
L 403.216116 350.295927 
L 409.341919 480.021409 
L 415.467723 347.68872 
L 421.593526 479.784649 
L 427.71933 346.967844 
L 433.845133 483.926232 
L 439.970937 341.733197 
L 446.09674 489.835932 
L 452.222544 334.384911 
L 458.348347 481.019116 
L 464.474151 341.704783 
L 470.599954 482.032543 
L 476.725758 342.970233 
L 482.851561 483.67265 
L 488.977365 329.720213 
L 495.103168 500.405523 
L 501.228972 317.32936 
L 507.354775 507.431006 
L 513.480579 315.997667 
L 519.606382 501.455863 
L 525.732185 332.404014 
L 531.857989 483.930433 
L 537.983792 341.182675 
L 544.109596 479.526439 
L 550.235399 347.326629 
L 556.361203 474.004432 
L 562.487006 355.155985 
L 568.61281 471.93048 
L 574.738613 348.039237 
L 580.864417 469.371802 
L 586.99022 355.953386 
L 593.116024 474.422011 
L 599.241827 359.161799 
L 605.367631 460.623586 
L 611.493434 366.572874 
L 617.619238 447.436273 
L 623.745041 385.121306 
L 629.870845 442.641391 
L 635.996648 381.19866 
L 642.122452 436.486496 
L 648.248255 393.244233 
L 654.374059 437.535013 
L 660.499862 387.844623 
L 666.625666 437.389205 
L 672.751469 384.217325 
L 678.877273 440.685517 
" clip-path="url(#p1304d2a819)" style="fill: none; stroke: #d62728; stroke-width: 1.5; stroke-linecap: square"/>
   </g>
   <g id="line2d_31">
    <path d="M 72.422727 419.558709 
L 78.548531 406.110827 
L 84.674334 421.100319 
L 90.800138 400.721107 
L 96.925941 426.064409 
L 103.051745 395.347351 
L 109.177548 435.640691 
L 115.303352 386.70638 
L 121.429155 436.325129 
L 127.554959 399.123418 
L 133.680762 425.461564 
L 139.806566 394.816806 
L 145.932369 431.544403 
L 152.058173 392.95468 
L 158.183976 431.535752 
L 164.30978 392.938142 
L 170.435583 436.970633 
L 176.561387 394.375972 
L 182.68719 429.537221 
L 188.812994 393.331211 
L 194.938797 430.809933 
L 201.064601 394.642202 
L 207.190404 432.846142 
L 213.316208 395.097197 
L 219.442011 428.72115 
L 225.567815 397.338347 
L 231.693618 433.775276 
L 237.819421 389.325769 
L 243.945225 435.006923 
L 250.071028 387.358612 
L 256.196832 436.852534 
L 262.322635 381.702626 
L 268.448439 462.28532 
L 274.574242 361.264348 
L 280.700046 464.118497 
L 286.825849 363.474988 
L 292.951653 456.748147 
L 299.077456 366.485122 
L 305.20326 463.883475 
L 311.329063 362.618086 
L 317.454867 468.760196 
L 323.58067 363.706188 
L 329.706474 459.369964 
L 335.832277 367.674881 
L 341.958081 453.767859 
L 348.083884 363.663402 
L 354.209688 458.436312 
L 360.335491 360.393429 
L 366.461295 467.78555 
L 372.587098 357.033509 
L 378.712902 471.908214 
L 384.838705 359.462607 
L 390.964509 464.208693 
L 397.090312 369.9707 
L 403.216116 468.193033 
L 409.341919 352.653909 
L 415.467723 470.933993 
L 421.593526 359.407054 
L 427.71933 463.662495 
L 433.845133 357.081002 
L 439.970937 468.615713 
L 446.09674 360.961637 
L 452.222544 467.815083 
L 458.348347 366.279639 
L 464.474151 468.090187 
L 470.599954 358.123167 
L 476.725758 460.725147 
L 482.851561 368.169404 
L 488.977365 464.406337 
L 495.103168 360.876445 
L 501.228972 459.947241 
L 507.354775 358.63592 
L 513.480579 468.952212 
L 519.606382 359.619613 
L 525.732185 458.697222 
L 531.857989 361.134153 
L 537.983792 460.59088 
L 544.109596 367.963664 
L 550.235399 455.483139 
L 556.361203 368.049895 
L 562.487006 458.01489 
L 568.61281 370.401411 
L 574.738613 451.417571 
L 580.864417 373.882588 
L 586.99022 446.68723 
L 593.116024 386.016751 
L 599.241827 434.034952 
L 605.367631 393.843601 
L 611.493434 432.391159 
L 617.619238 390.302318 
L 623.745041 435.437645 
L 629.870845 388.768139 
L 635.996648 439.098635 
L 642.122452 398.635467 
L 648.248255 426.124946 
L 654.374059 404.155266 
L 660.499862 423.57333 
L 666.625666 404.972374 
L 672.751469 420.761 
L 678.877273 399.078464 
" clip-path="url(#p1304d2a819)" style="fill: none; stroke: #9467bd; stroke-width: 1.5; stroke-linecap: square"/>
   </g>
   <g id="line2d_32">
    <path d="M 72.422727 402.591353 
L 78.548531 430.293367 
L 84.674334 392.62977 
L 90.800138 435.328163 
L 96.925941 387.990712 
L 103.051745 436.478819 
L 109.177548 391.042795 
L 115.303352 434.354576 
L 121.429155 391.441616 
L 127.554959 443.839043 
L 133.680762 379.714093 
L 139.806566 444.663185 
L 145.932369 377.041771 
L 152.058173 448.346826 
L 158.183976 383.964744 
L 164.30978 440.962095 
L 170.435583 384.810785 
L 176.561387 442.034508 
L 182.68719 373.89779 
L 188.812994 453.18277 
L 194.938797 357.866629 
L 201.064601 466.662083 
L 207.190404 355.471632 
L 213.316208 469.530348 
L 219.442011 363.724717 
L 225.567815 461.894976 
L 231.693618 369.79686 
L 237.819421 450.861164 
L 243.945225 365.045411 
L 250.071028 467.249701 
L 256.196832 347.217912 
L 262.322635 482.945785 
L 268.448439 352.080275 
L 274.574242 462.24645 
L 280.700046 353.861416 
L 286.825849 479.494511 
L 292.951653 351.995111 
L 299.077456 475.41611 
L 305.20326 353.622261 
L 311.329063 470.044925 
L 317.454867 353.237805 
L 323.58067 474.80635 
L 329.706474 345.333861 
L 335.832277 478.25212 
L 341.958081 348.315596 
L 348.083884 483.24242 
L 354.209688 337.59111 
L 360.335491 498.693126 
L 366.461295 329.265768 
L 372.587098 493.208952 
L 378.712902 339.440756 
L 384.838705 486.591591 
L 390.964509 345.696636 
L 397.090312 482.286653 
L 403.216116 352.863959 
L 409.341919 462.99376 
L 415.467723 371.323037 
L 421.593526 454.78572 
L 427.71933 378.232577 
L 433.845133 450.755571 
L 439.970937 368.05202 
L 446.09674 456.400492 
L 452.222544 373.137323 
L 458.348347 444.69748 
L 464.474151 375.258298 
L 470.599954 454.683433 
L 476.725758 372.859922 
L 482.851561 453.850567 
L 488.977365 367.805298 
L 495.103168 466.104113 
L 501.228972 364.252549 
L 507.354775 453.035965 
L 513.480579 364.678702 
L 519.606382 452.860715 
L 525.732185 374.472859 
L 531.857989 456.917388 
L 537.983792 363.095406 
L 544.109596 465.033427 
L 550.235399 361.32474 
L 556.361203 464.045927 
L 562.487006 363.998356 
L 568.61281 455.881836 
L 574.738613 370.465081 
L 580.864417 449.978753 
L 586.99022 379.752817 
L 593.116024 446.126672 
L 599.241827 381.101138 
L 605.367631 444.839938 
L 611.493434 373.365294 
L 617.619238 456.610561 
L 623.745041 363.932115 
L 629.870845 467.252896 
L 635.996648 363.582587 
L 642.122452 465.106201 
L 648.248255 353.023156 
L 654.374059 467.129712 
L 660.499862 364.349116 
L 666.625666 459.024889 
L 672.751469 374.708412 
L 678.877273 448.789336 
" clip-path="url(#p1304d2a819)" style="fill: none; stroke: #8c564b; stroke-width: 1.5; stroke-linecap: square"/>
   </g>
   <g id="line2d_33">
    <path d="M 72.422727 400.734566 
L 78.548531 412.928969 
L 84.674334 404.383047 
L 90.800138 413.27559 
L 96.925941 419.274624 
L 103.051745 403.387025 
L 109.177548 424.233657 
L 115.303352 391.596594 
L 121.429155 439.507099 
L 127.554959 388.900163 
L 133.680762 433.855184 
L 139.806566 391.788796 
L 145.932369 428.711314 
L 152.058173 398.232319 
L 158.183976 435.946994 
L 164.30978 390.427558 
L 170.435583 440.318153 
L 176.561387 385.908034 
L 182.68719 431.150709 
L 188.812994 392.785431 
L 194.938797 421.128484 
L 201.064601 394.789001 
L 207.190404 428.911751 
L 213.316208 404.865111 
L 219.442011 418.243152 
L 225.567815 404.473251 
L 231.693618 425.929673 
L 237.819421 401.772431 
L 243.945225 422.918032 
L 250.071028 410.014039 
L 256.196832 423.379127 
L 262.322635 398.659243 
L 268.448439 430.835599 
L 274.574242 395.67094 
L 280.700046 433.943593 
L 286.825849 394.047553 
L 292.951653 428.602281 
L 299.077456 398.651079 
L 305.20326 432.376199 
L 311.329063 394.06733 
L 317.454867 433.147142 
L 323.58067 390.848909 
L 329.706474 436.195432 
L 335.832277 388.476292 
L 341.958081 433.004154 
L 348.083884 389.90625 
L 354.209688 427.767425 
L 360.335491 401.301878 
L 366.461295 422.096345 
L 372.587098 393.567772 
L 378.712902 438.057816 
L 384.838705 390.809902 
L 390.964509 431.271513 
L 397.090312 391.182101 
L 403.216116 427.032467 
L 409.341919 395.886249 
L 415.467723 424.253746 
L 421.593526 401.112913 
L 427.71933 421.7911 
L 433.845133 407.789027 
L 439.970937 405.577836 
L 446.09674 425.19467 
L 452.222544 396.832786 
L 458.348347 425.42393 
L 464.474151 403.619351 
L 470.599954 414.407546 
L 476.725758 412.812157 
L 482.851561 412.792362 
L 488.977365 427.031396 
L 495.103168 402.868433 
L 501.228972 424.605707 
L 507.354775 397.148999 
L 513.480579 427.751379 
L 519.606382 392.08408 
L 525.732185 421.894456 
L 531.857989 402.069889 
L 537.983792 422.340466 
L 544.109596 405.67246 
L 550.235399 427.134102 
L 556.361203 401.163038 
L 562.487006 428.393408 
L 568.61281 398.876161 
L 574.738613 430.557292 
L 580.864417 393.453736 
L 586.99022 438.278546 
L 593.116024 385.784259 
L 599.241827 435.0631 
L 605.367631 386.089298 
L 611.493434 440.420281 
L 617.619238 379.5432 
L 623.745041 440.964762 
L 629.870845 389.49613 
L 635.996648 446.899076 
L 642.122452 378.642634 
L 648.248255 441.393344 
L 654.374059 385.88537 
L 660.499862 447.641011 
L 666.625666 385.857797 
L 672.751469 447.224824 
L 678.877273 372.31975 
" clip-path="url(#p1304d2a819)" style="fill: none; stroke: #e377c2; stroke-width: 1.5; stroke-linecap: square"/>
   </g>
   <g id="line2d_34">
    <path d="M 72.422727 404.535789 
L 78.548531 422.51169 
L 84.674334 393.032672 
L 90.800138 434.426856 
L 96.925941 393.155692 
L 103.051745 434.147147 
L 109.177548 390.057454 
L 115.303352 431.456144 
L 121.429155 400.759854 
L 127.554959 430.86086 
L 133.680762 402.033337 
L 139.806566 428.233982 
L 145.932369 392.672172 
L 152.058173 431.46831 
L 158.183976 392.620954 
L 164.30978 432.039703 
L 170.435583 387.231689 
L 176.561387 438.308889 
L 182.68719 381.762565 
L 188.812994 444.189622 
L 194.938797 379.054298 
L 201.064601 442.109094 
L 207.190404 379.608943 
L 213.316208 452.175607 
L 219.442011 373.304043 
L 225.567815 457.469695 
L 231.693618 369.621307 
L 237.819421 455.438535 
L 243.945225 373.891389 
L 250.071028 454.906047 
L 256.196832 370.965549 
L 262.322635 447.107777 
L 268.448439 382.456246 
L 274.574242 440.306243 
L 280.700046 388.264781 
L 286.825849 441.850969 
L 292.951653 381.528061 
L 299.077456 446.441983 
L 305.20326 373.413945 
L 311.329063 458.804822 
L 317.454867 371.301582 
L 323.58067 454.358146 
L 329.706474 381.410599 
L 335.832277 448.895389 
L 341.958081 382.992126 
L 348.083884 434.847309 
L 354.209688 381.786302 
L 360.335491 447.702969 
L 366.461295 371.93201 
L 372.587098 453.940841 
L 378.712902 368.400448 
L 384.838705 447.978868 
L 390.964509 377.323121 
L 397.090312 445.576155 
L 403.216116 380.155606 
L 409.341919 440.459359 
L 415.467723 383.562163 
L 421.593526 446.970323 
L 427.71933 380.308177 
L 433.845133 444.118841 
L 439.970937 369.164532 
L 446.09674 453.135796 
L 452.222544 371.007444 
L 458.348347 457.548833 
L 464.474151 370.151876 
L 470.599954 461.972626 
L 476.725758 369.438387 
L 482.851561 452.79285 
L 488.977365 380.125057 
L 495.103168 448.206193 
L 501.228972 380.731295 
L 507.354775 430.411787 
L 513.480579 397.543887 
L 519.606382 435.868156 
L 525.732185 382.65656 
L 531.857989 438.650887 
L 537.983792 380.785341 
L 544.109596 450.500044 
L 550.235399 379.723333 
L 556.361203 440.368658 
L 562.487006 384.999482 
L 568.61281 443.138721 
L 574.738613 379.246372 
L 580.864417 444.367502 
L 586.99022 381.753288 
L 593.116024 449.803739 
L 599.241827 380.873464 
L 605.367631 440.121795 
L 611.493434 391.347089 
L 617.619238 428.919957 
L 623.745041 399.529293 
L 629.870845 426.470843 
L 635.996648 397.224814 
L 642.122452 436.067488 
L 648.248255 407.792136 
L 654.374059 424.979218 
L 660.499862 404.132948 
L 666.625666 436.769196 
L 672.751469 388.912738 
L 678.877273 437.222206 
" clip-path="url(#p1304d2a819)" style="fill: none; stroke: #7f7f7f; stroke-width: 1.5; stroke-linecap: square"/>
   </g>
   <g id="line2d_35">
    <path d="M 72.422727 409.710799 
L 78.548531 426.790169 
L 84.674334 410.10886 
L 90.800138 402.777422 
L 96.925941 416.953787 
L 103.051745 410.485046 
L 109.177548 410.016968 
L 115.303352 414.748526 
L 121.429155 422.242624 
L 127.554959 402.773443 
L 133.680762 431.946262 
L 139.806566 397.296355 
L 145.932369 430.152378 
L 152.058173 393.999333 
L 158.183976 429.018277 
L 164.30978 395.185767 
L 170.435583 429.465515 
L 176.561387 402.352556 
L 182.68719 417.29949 
L 188.812994 409.832962 
L 194.938797 416.628192 
L 201.064601 406.431845 
L 207.190404 412.879985 
L 213.316208 414.63945 
L 219.442011 409.784221 
L 225.567815 412.458819 
L 231.693618 415.055815 
L 237.819421 393.957215 
L 243.945225 430.807945 
L 250.071028 394.441549 
L 256.196832 432.320011 
L 262.322635 391.985656 
L 268.448439 433.504057 
L 274.574242 388.157138 
L 280.700046 436.403348 
L 286.825849 381.193802 
L 292.951653 445.938022 
L 299.077456 380.952865 
L 305.20326 444.593738 
L 311.329063 379.908457 
L 317.454867 440.793183 
L 323.58067 384.808446 
L 329.706474 446.239873 
L 335.832277 369.011655 
L 341.958081 458.41451 
L 348.083884 368.29852 
L 354.209688 458.905428 
L 360.335491 365.140654 
L 366.461295 459.57869 
L 372.587098 373.530366 
L 378.712902 459.516561 
L 384.838705 367.552968 
L 390.964509 468.103975 
L 397.090312 362.906604 
L 403.216116 460.306679 
L 409.341919 373.894339 
L 415.467723 446.482209 
L 421.593526 380.127344 
L 427.71933 452.828626 
L 433.845133 377.498322 
L 439.970937 453.416766 
L 446.09674 367.39455 
L 452.222544 465.35202 
L 458.348347 357.136395 
L 464.474151 468.169791 
L 470.599954 359.157364 
L 476.725758 464.94424 
L 482.851561 354.348577 
L 488.977365 469.555533 
L 495.103168 351.434601 
L 501.228972 474.36999 
L 507.354775 361.304397 
L 513.480579 466.906003 
L 519.606382 364.268215 
L 525.732185 462.916951 
L 531.857989 353.956351 
L 537.983792 469.187535 
L 544.109596 347.42194 
L 550.235399 470.481467 
L 556.361203 365.6471 
L 562.487006 456.448398 
L 568.61281 370.148958 
L 574.738613 458.326851 
L 580.864417 365.918366 
L 586.99022 456.083201 
L 593.116024 377.769096 
L 599.241827 454.871156 
L 605.367631 368.740041 
L 611.493434 458.076636 
L 617.619238 365.020627 
L 623.745041 457.301449 
L 629.870845 366.152057 
L 635.996648 451.002008 
L 642.122452 379.481199 
L 648.248255 445.200015 
L 654.374059 374.86356 
L 660.499862 454.505522 
L 666.625666 367.081111 
L 672.751469 458.323965 
L 678.877273 367.375559 
" clip-path="url(#p1304d2a819)" style="fill: none; stroke: #bcbd22; stroke-width: 1.5; stroke-linecap: square"/>
   </g>
   <g id="line2d_36">
    <path d="M 72.422727 405.346931 
L 78.548531 416.330724 
L 84.674334 410.389084 
L 90.800138 411.871571 
L 96.925941 409.859492 
L 103.051745 411.196237 
L 109.177548 421.871141 
L 115.303352 405.42929 
L 121.429155 428.390339 
L 127.554959 402.99498 
L 133.680762 426.9015 
L 139.806566 398.041857 
L 145.932369 422.683979 
L 152.058173 396.400599 
L 158.183976 430.878465 
L 164.30978 397.87077 
L 170.435583 433.777296 
L 176.561387 394.077289 
L 182.68719 433.375351 
L 188.812994 384.174064 
L 194.938797 439.55642 
L 201.064601 385.156184 
L 207.190404 440.319369 
L 213.316208 393.540182 
L 219.442011 436.387765 
L 225.567815 395.282636 
L 231.693618 427.911401 
L 237.819421 400.131344 
L 243.945225 421.538112 
L 250.071028 409.56383 
L 256.196832 425.479897 
L 262.322635 400.836868 
L 268.448439 423.961036 
L 274.574242 399.938979 
L 280.700046 425.071436 
L 286.825849 397.162501 
L 292.951653 437.473691 
L 299.077456 387.509449 
L 305.20326 435.262477 
L 311.329063 391.769339 
L 317.454867 434.580649 
L 323.58067 392.156273 
L 329.706474 428.215124 
L 335.832277 402.977114 
L 341.958081 427.800129 
L 348.083884 396.777459 
L 354.209688 431.581428 
L 360.335491 400.379936 
L 366.461295 421.34551 
L 372.587098 396.038772 
L 378.712902 438.924285 
L 384.838705 384.245239 
L 390.964509 444.110917 
L 397.090312 381.62006 
L 403.216116 438.952872 
L 409.341919 388.352066 
L 415.467723 443.610923 
L 421.593526 378.248111 
L 427.71933 447.399017 
L 433.845133 378.558119 
L 439.970937 441.550407 
L 446.09674 389.169348 
L 452.222544 439.376042 
L 458.348347 381.740291 
L 464.474151 439.792143 
L 470.599954 380.347039 
L 476.725758 443.794467 
L 482.851561 386.512475 
L 488.977365 437.321819 
L 495.103168 387.381409 
L 501.228972 440.459864 
L 507.354775 385.568965 
L 513.480579 445.733305 
L 519.606382 372.709864 
L 525.732185 458.279334 
L 531.857989 378.061184 
L 537.983792 445.359114 
L 544.109596 383.224084 
L 550.235399 444.331634 
L 556.361203 384.86695 
L 562.487006 431.83838 
L 568.61281 385.334815 
L 574.738613 437.357476 
L 580.864417 389.839612 
L 586.99022 440.970098 
L 593.116024 389.418692 
L 599.241827 438.583481 
L 605.367631 379.079253 
L 611.493434 454.664215 
L 617.619238 372.725791 
L 623.745041 461.948617 
L 629.870845 360.213803 
L 635.996648 470.110838 
L 642.122452 356.57227 
L 648.248255 476.29773 
L 654.374059 350.573659 
L 660.499862 481.080109 
L 666.625666 344.639368 
L 672.751469 481.865885 
L 678.877273 340.064287 
" clip-path="url(#p1304d2a819)" style="fill: none; stroke: #17becf; stroke-width: 1.5; stroke-linecap: square"/>
   </g>
   <g id="line2d_37">
    <path d="M 72.422727 403.44655 
L 78.548531 424.607068 
L 84.674334 395.661811 
L 90.800138 428.755219 
L 96.925941 399.209773 
L 103.051745 436.283516 
L 109.177548 388.779207 
L 115.303352 439.278962 
L 121.429155 372.518547 
L 127.554959 440.694283 
L 133.680762 382.963689 
L 139.806566 445.894467 
L 145.932369 384.404007 
L 152.058173 438.774499 
L 158.183976 385.215674 
L 164.30978 445.692801 
L 170.435583 386.774016 
L 176.561387 440.791484 
L 182.68719 386.830277 
L 188.812994 443.124549 
L 194.938797 382.51363 
L 201.064601 443.592699 
L 207.190404 382.574733 
L 213.316208 446.907047 
L 219.442011 379.167296 
L 225.567815 450.66566 
L 231.693618 371.246657 
L 237.819421 455.853158 
L 243.945225 378.092265 
L 250.071028 453.190083 
L 256.196832 369.640081 
L 262.322635 455.887032 
L 268.448439 371.162381 
L 274.574242 453.353752 
L 280.700046 382.915643 
L 286.825849 436.792769 
L 292.951653 394.071853 
L 299.077456 425.146855 
L 305.20326 399.048637 
L 311.329063 424.054464 
L 317.454867 408.229624 
L 323.58067 420.935791 
L 329.706474 400.539604 
L 335.832277 429.849572 
L 341.958081 392.938925 
L 348.083884 430.155439 
L 354.209688 385.351236 
L 360.335491 437.951964 
L 366.461295 387.168874 
L 372.587098 443.291794 
L 378.712902 380.133686 
L 384.838705 451.925108 
L 390.964509 371.227244 
L 397.090312 467.591415 
L 403.216116 353.555273 
L 409.341919 462.698754 
L 415.467723 368.17089 
L 421.593526 451.771525 
L 427.71933 382.832003 
L 433.845133 441.225778 
L 439.970937 383.248295 
L 446.09674 451.202712 
L 452.222544 369.956641 
L 458.348347 459.019911 
L 464.474151 365.605056 
L 470.599954 456.889439 
L 476.725758 358.58498 
L 482.851561 470.525882 
L 488.977365 341.480569 
L 495.103168 481.613808 
L 501.228972 344.482829 
L 507.354775 478.555348 
L 513.480579 342.305907 
L 519.606382 487.843495 
L 525.732185 342.27877 
L 531.857989 476.71601 
L 537.983792 350.787157 
L 544.109596 481.215763 
L 550.235399 350.623018 
L 556.361203 471.720244 
L 562.487006 359.892632 
L 568.61281 462.240229 
L 574.738613 376.369745 
L 580.864417 460.46418 
L 586.99022 360.987041 
L 593.116024 460.028152 
L 599.241827 369.186363 
L 605.367631 458.197628 
L 611.493434 370.796817 
L 617.619238 450.305956 
L 623.745041 374.251309 
L 629.870845 454.853292 
L 635.996648 367.683701 
L 642.122452 453.183254 
L 648.248255 374.067026 
L 654.374059 440.806735 
L 660.499862 386.619114 
L 666.625666 437.440833 
L 672.751469 379.281444 
L 678.877273 446.137472 
" clip-path="url(#p1304d2a819)" style="fill: none; stroke: #1f77b4; stroke-width: 1.5; stroke-linecap: square"/>
   </g>
   <g id="line2d_38">
    <path d="M 72.422727 413.212191 
L 78.548531 400.392129 
L 84.674334 432.625085 
L 90.800138 391.429982 
L 96.925941 433.12372 
L 103.051745 398.466874 
L 109.177548 427.79469 
L 115.303352 398.852881 
L 121.429155 429.155515 
L 127.554959 401.999143 
L 133.680762 416.815966 
L 139.806566 408.798599 
L 145.932369 415.450628 
L 152.058173 421.185206 
L 158.183976 400.9149 
L 164.30978 430.938898 
L 170.435583 396.747553 
L 176.561387 426.577023 
L 182.68719 394.84787 
L 188.812994 432.254671 
L 194.938797 381.585959 
L 201.064601 450.660583 
L 207.190404 375.771268 
L 213.316208 451.068968 
L 219.442011 381.019501 
L 225.567815 449.679051 
L 231.693618 379.455182 
L 237.819421 455.958231 
L 243.945225 370.582712 
L 250.071028 454.813963 
L 256.196832 377.70681 
L 262.322635 448.228906 
L 268.448439 376.440864 
L 274.574242 443.763931 
L 280.700046 384.433284 
L 286.825849 437.521848 
L 292.951653 384.666703 
L 299.077456 441.735226 
L 305.20326 381.15172 
L 311.329063 443.382158 
L 317.454867 374.731041 
L 323.58067 457.170315 
L 329.706474 372.456276 
L 335.832277 449.61554 
L 341.958081 383.03892 
L 348.083884 440.652079 
L 354.209688 392.457368 
L 360.335491 430.717823 
L 366.461295 391.248883 
L 372.587098 431.530708 
L 378.712902 390.111327 
L 384.838705 451.854701 
L 390.964509 372.423051 
L 397.090312 448.072573 
L 403.216116 377.121724 
L 409.341919 453.503093 
L 415.467723 365.936261 
L 421.593526 469.541273 
L 427.71933 362.080639 
L 433.845133 477.847939 
L 439.970937 348.572993 
L 446.09674 477.281336 
L 452.222544 348.538854 
L 458.348347 480.542803 
L 464.474151 357.058272 
L 470.599954 473.005016 
L 476.725758 357.874914 
L 482.851561 465.958381 
L 488.977365 354.555243 
L 495.103168 471.009482 
L 501.228972 350.34514 
L 507.354775 474.804516 
L 513.480579 345.847489 
L 519.606382 482.019524 
L 525.732185 352.495571 
L 531.857989 472.412988 
L 537.983792 355.058922 
L 544.109596 485.505832 
L 550.235399 344.75753 
L 556.361203 480.260877 
L 562.487006 338.700435 
L 568.61281 493.879532 
L 574.738613 329.096882 
L 580.864417 492.900359 
L 586.99022 323.927892 
L 593.116024 506.479715 
L 599.241827 315.456454 
L 605.367631 508.291474 
L 611.493434 318.498966 
L 617.619238 503.537033 
L 623.745041 321.786078 
L 629.870845 501.692562 
L 635.996648 318.666674 
L 642.122452 506.550491 
L 648.248255 330.604191 
L 654.374059 492.009982 
L 660.499862 334.433391 
L 666.625666 496.756361 
L 672.751469 336.859165 
L 678.877273 488.472986 
" clip-path="url(#p1304d2a819)" style="fill: none; stroke: #ff7f0e; stroke-width: 1.5; stroke-linecap: square"/>
   </g>
   <g id="line2d_39">
    <path d="M 72.422727 407.923621 
L 78.548531 418.685686 
L 84.674334 408.489823 
L 90.800138 415.22585 
L 96.925941 407.786787 
L 103.051745 419.306665 
L 109.177548 419.517146 
L 115.303352 407.574265 
L 121.429155 428.478581 
L 127.554959 407.471535 
L 133.680762 412.523961 
L 139.806566 412.300013 
L 145.932369 422.110897 
L 152.058173 400.501714 
L 158.183976 423.36198 
L 164.30978 401.898269 
L 170.435583 421.04229 
L 176.561387 402.932007 
L 182.68719 417.148293 
L 188.812994 409.1924 
L 194.938797 414.88972 
L 201.064601 417.529576 
L 207.190404 408.744896 
L 213.316208 409.442764 
L 219.442011 423.862794 
L 225.567815 405.462335 
L 231.693618 417.881796 
L 237.819421 404.203247 
L 243.945225 422.641663 
L 250.071028 402.625681 
L 256.196832 417.742045 
L 262.322635 414.571149 
L 268.448439 403.708524 
L 274.574242 416.528073 
L 280.700046 409.151683 
L 286.825849 417.05396 
L 292.951653 406.969935 
L 299.077456 414.686303 
L 305.20326 411.362887 
L 311.329063 412.248268 
L 317.454867 419.618225 
L 323.58067 403.169588 
L 329.706474 425.108596 
L 335.832277 388.617278 
L 341.958081 435.826312 
L 348.083884 400.150587 
L 354.209688 415.582266 
L 360.335491 412.185813 
L 366.461295 413.736347 
L 372.587098 413.383133 
L 378.712902 420.442525 
L 384.838705 414.565405 
L 390.964509 410.309242 
L 397.090312 419.813675 
L 403.216116 403.564086 
L 409.341919 426.125518 
L 415.467723 401.166236 
L 421.593526 419.897118 
L 427.71933 405.688417 
L 433.845133 422.95208 
L 439.970937 403.453603 
L 446.09674 424.135396 
L 452.222544 400.199759 
L 458.348347 433.691442 
L 464.474151 385.207642 
L 470.599954 439.070341 
L 476.725758 395.313009 
L 482.851561 430.934463 
L 488.977365 393.625356 
L 495.103168 425.065974 
L 501.228972 400.18941 
L 507.354775 425.345106 
L 513.480579 400.310353 
L 519.606382 425.412009 
L 525.732185 405.172136 
L 531.857989 418.164509 
L 537.983792 401.005065 
L 544.109596 419.402353 
L 550.235399 406.048526 
L 556.361203 425.186622 
L 562.487006 392.86351 
L 568.61281 436.782981 
L 574.738613 392.228115 
L 580.864417 433.433084 
L 586.99022 390.255429 
L 593.116024 432.08026 
L 599.241827 395.359967 
L 605.367631 428.228382 
L 611.493434 390.892581 
L 617.619238 433.826217 
L 623.745041 395.4566 
L 629.870845 429.682051 
L 635.996648 392.653979 
L 642.122452 436.937585 
L 648.248255 386.080287 
L 654.374059 443.727485 
L 660.499862 377.271779 
L 666.625666 439.199802 
L 672.751469 396.179142 
L 678.877273 433.607181 
" clip-path="url(#p1304d2a819)" style="fill: none; stroke: #2ca02c; stroke-width: 1.5; stroke-linecap: square"/>
   </g>
   <g id="line2d_40">
    <path d="M 72.422727 410.089859 
L 78.548531 404.268291 
L 84.674334 423.20336 
L 90.800138 412.211198 
L 96.925941 419.629843 
L 103.051745 413.281199 
L 109.177548 411.154291 
L 115.303352 419.725679 
L 121.429155 402.784034 
L 127.554959 422.93868 
L 133.680762 392.98974 
L 139.806566 429.317805 
L 145.932369 389.762645 
L 152.058173 439.002449 
L 158.183976 388.300626 
L 164.30978 444.582848 
L 170.435583 378.168275 
L 176.561387 445.532431 
L 182.68719 373.132326 
L 188.812994 453.473857 
L 194.938797 370.965633 
L 201.064601 453.915301 
L 207.190404 375.843074 
L 213.316208 462.564013 
L 219.442011 368.605714 
L 225.567815 453.587539 
L 231.693618 375.376492 
L 237.819421 457.029006 
L 243.945225 371.205836 
L 250.071028 451.955474 
L 256.196832 378.784137 
L 262.322635 453.073082 
L 268.448439 376.555294 
L 274.574242 451.25873 
L 280.700046 373.049792 
L 286.825849 449.180237 
L 292.951653 378.127935 
L 299.077456 444.35584 
L 305.20326 388.271547 
L 311.329063 436.123089 
L 317.454867 389.051814 
L 323.58067 434.973251 
L 329.706474 399.365614 
L 335.832277 437.0351 
L 341.958081 391.192001 
L 348.083884 446.661815 
L 354.209688 378.196052 
L 360.335491 440.634517 
L 366.461295 374.961696 
L 372.587098 452.354843 
L 378.712902 374.985408 
L 384.838705 449.111304 
L 390.964509 385.403338 
L 397.090312 440.745229 
L 403.216116 394.924183 
L 409.341919 435.949333 
L 415.467723 391.485834 
L 421.593526 425.409335 
L 427.71933 401.824595 
L 433.845133 420.016239 
L 439.970937 411.718917 
L 446.09674 420.223 
L 452.222544 416.379128 
L 458.348347 412.497306 
L 464.474151 412.060919 
L 470.599954 413.494567 
L 476.725758 406.889878 
L 482.851561 411.769868 
L 488.977365 411.669411 
L 495.103168 413.635127 
L 501.228972 418.283154 
L 507.354775 408.148828 
L 513.480579 417.922497 
L 519.606382 402.652214 
L 525.732185 423.33094 
L 531.857989 395.641051 
L 537.983792 430.181114 
L 544.109596 402.69111 
L 550.235399 423.756202 
L 556.361203 404.642207 
L 562.487006 426.197503 
L 568.61281 400.898018 
L 574.738613 433.469859 
L 580.864417 391.740619 
L 586.99022 425.847747 
L 593.116024 396.812397 
L 599.241827 431.878961 
L 605.367631 394.920009 
L 611.493434 436.238141 
L 617.619238 390.539692 
L 623.745041 435.750406 
L 629.870845 390.457091 
L 635.996648 430.577827 
L 642.122452 404.471964 
L 648.248255 419.216429 
L 654.374059 398.410693 
L 660.499862 436.802198 
L 666.625666 392.234758 
L 672.751469 428.193995 
L 678.877273 393.506802 
" clip-path="url(#p1304d2a819)" style="fill: none; stroke: #d62728; stroke-width: 1.5; stroke-linecap: square"/>
   </g>
   <g id="line2d_41">
    <path d="M 72.422727 417.636805 
L 78.548531 406.360565 
L 84.674334 417.835404 
L 90.800138 409.722548 
L 96.925941 417.527228 
L 103.051745 403.352687 
L 109.177548 419.581533 
L 115.303352 404.323608 
L 121.429155 421.425129 
L 127.554959 398.104106 
L 133.680762 427.263203 
L 139.806566 401.501807 
L 145.932369 419.385427 
L 152.058173 407.109888 
L 158.183976 413.011622 
L 164.30978 404.792436 
L 170.435583 423.161665 
L 176.561387 409.046591 
L 182.68719 412.199292 
L 188.812994 407.876067 
L 194.938797 421.158398 
L 201.064601 417.943367 
L 207.190404 400.805431 
L 213.316208 423.820555 
L 219.442011 397.549535 
L 225.567815 423.113381 
L 231.693618 400.140898 
L 237.819421 420.635023 
L 243.945225 411.539811 
L 250.071028 413.072359 
L 256.196832 409.681521 
L 262.322635 421.607716 
L 268.448439 406.013093 
L 274.574242 419.142098 
L 280.700046 397.785641 
L 286.825849 418.494142 
L 292.951653 414.899751 
L 299.077456 412.518249 
L 305.20326 412.027864 
L 311.329063 417.937604 
L 317.454867 407.944149 
L 323.58067 417.426027 
L 329.706474 414.834746 
L 335.832277 415.885598 
L 341.958081 406.254307 
L 348.083884 415.430325 
L 354.209688 406.735097 
L 360.335491 423.287299 
L 366.461295 397.485219 
L 372.587098 430.68852 
L 378.712902 395.871593 
L 384.838705 433.237144 
L 390.964509 391.192952 
L 397.090312 432.343096 
L 403.216116 394.832601 
L 409.341919 427.230686 
L 415.467723 400.049023 
L 421.593526 433.055094 
L 427.71933 386.021384 
L 433.845133 436.889668 
L 439.970937 389.906871 
L 446.09674 429.940886 
L 452.222544 394.530727 
L 458.348347 430.853732 
L 464.474151 385.477179 
L 470.599954 450.515803 
L 476.725758 370.116265 
L 482.851561 448.867671 
L 488.977365 378.166862 
L 495.103168 449.019508 
L 501.228972 374.785367 
L 507.354775 454.2292 
L 513.480579 363.848966 
L 519.606382 460.447907 
L 525.732185 368.473222 
L 531.857989 458.960966 
L 537.983792 368.374012 
L 544.109596 459.888978 
L 550.235399 358.309094 
L 556.361203 462.0478 
L 562.487006 364.734975 
L 568.61281 452.182971 
L 574.738613 371.150566 
L 580.864417 456.599008 
L 586.99022 372.054081 
L 593.116024 465.642937 
L 599.241827 355.468111 
L 605.367631 474.613165 
L 611.493434 346.954652 
L 617.619238 481.320536 
L 623.745041 341.490995 
L 629.870845 488.46191 
L 635.996648 331.850428 
L 642.122452 494.432342 
L 648.248255 320.791797 
L 654.374059 509.262919 
L 660.499862 309.448494 
L 666.625666 522.875949 
L 672.751469 305.798636 
L 678.877273 523.171364 
" clip-path="url(#p1304d2a819)" style="fill: none; stroke: #9467bd; stroke-width: 1.5; stroke-linecap: square"/>
   </g>
   <g id="line2d_42">
    <path d="M 72.422727 399.398519 
L 78.548531 426.624799 
L 84.674334 402.140128 
L 90.800138 433.222621 
L 96.925941 387.40027 
L 103.051745 438.464217 
L 109.177548 396.472952 
L 115.303352 426.676668 
L 121.429155 402.322522 
L 127.554959 410.534079 
L 133.680762 404.827556 
L 139.806566 415.826402 
L 145.932369 409.088495 
L 152.058173 415.890143 
L 158.183976 414.824871 
L 164.30978 407.525492 
L 170.435583 419.809381 
L 176.561387 401.861692 
L 182.68719 415.81482 
L 188.812994 405.298844 
L 194.938797 426.011252 
L 201.064601 392.771424 
L 207.190404 438.025308 
L 213.316208 393.342016 
L 219.442011 430.490763 
L 225.567815 388.562415 
L 231.693618 433.117217 
L 237.819421 379.270765 
L 243.945225 450.362648 
L 250.071028 385.381166 
L 256.196832 437.932424 
L 262.322635 390.442089 
L 268.448439 434.518735 
L 274.574242 394.513712 
L 280.700046 430.815964 
L 286.825849 398.665961 
L 292.951653 431.635803 
L 299.077456 398.625286 
L 305.20326 425.761054 
L 311.329063 409.124631 
L 317.454867 418.901753 
L 323.58067 403.482434 
L 329.706474 424.493875 
L 335.832277 396.48105 
L 341.958081 417.613735 
L 348.083884 393.429165 
L 354.209688 428.619161 
L 360.335491 391.296352 
L 366.461295 434.19525 
L 372.587098 397.266996 
L 378.712902 430.532215 
L 384.838705 398.520251 
L 390.964509 428.968001 
L 397.090312 402.445756 
L 403.216116 423.79196 
L 409.341919 400.627386 
L 415.467723 428.199758 
L 421.593526 391.74852 
L 427.71933 433.228239 
L 433.845133 387.856448 
L 439.970937 443.475677 
L 446.09674 383.897334 
L 452.222544 446.155618 
L 458.348347 383.878426 
L 464.474151 451.0779 
L 470.599954 382.440536 
L 476.725758 444.822053 
L 482.851561 378.681379 
L 488.977365 441.62142 
L 495.103168 380.851414 
L 501.228972 432.209595 
L 507.354775 398.612543 
L 513.480579 423.644436 
L 519.606382 398.277809 
L 525.732185 429.262348 
L 531.857989 409.890627 
L 537.983792 420.081451 
L 544.109596 406.606251 
L 550.235399 425.797232 
L 556.361203 404.775591 
L 562.487006 422.450568 
L 568.61281 408.470773 
L 574.738613 413.833845 
L 580.864417 417.58617 
L 586.99022 405.476741 
L 593.116024 428.750655 
L 599.241827 392.149404 
L 605.367631 445.474161 
L 611.493434 375.984745 
L 617.619238 444.066137 
L 623.745041 383.913707 
L 629.870845 437.13078 
L 635.996648 388.109269 
L 642.122452 427.546579 
L 648.248255 406.561794 
L 654.374059 417.310284 
L 660.499862 411.135029 
L 666.625666 410.535845 
L 672.751469 408.461477 
L 678.877273 420.740528 
" clip-path="url(#p1304d2a819)" style="fill: none; stroke: #8c564b; stroke-width: 1.5; stroke-linecap: square"/>
   </g>
   <g id="line2d_43">
    <path d="M 72.422727 405.304724 
L 78.548531 429.606956 
L 84.674334 397.479174 
L 90.800138 429.718915 
L 96.925941 399.398214 
L 103.051745 431.022341 
L 109.177548 393.422452 
L 115.303352 438.332623 
L 121.429155 392.415854 
L 127.554959 428.853864 
L 133.680762 390.11429 
L 139.806566 432.628168 
L 145.932369 394.319422 
L 152.058173 434.302187 
L 158.183976 393.276594 
L 164.30978 442.559442 
L 170.435583 387.587505 
L 176.561387 437.238108 
L 182.68719 393.817328 
L 188.812994 423.280489 
L 194.938797 402.990782 
L 201.064601 431.334574 
L 207.190404 388.599746 
L 213.316208 438.67545 
L 219.442011 388.25679 
L 225.567815 451.930878 
L 231.693618 372.284346 
L 237.819421 452.045703 
L 243.945225 367.720575 
L 250.071028 460.950316 
L 256.196832 355.387904 
L 262.322635 476.890745 
L 268.448439 340.457971 
L 274.574242 480.907777 
L 280.700046 349.287687 
L 286.825849 484.257902 
L 292.951653 338.56579 
L 299.077456 484.05372 
L 305.20326 356.864331 
L 311.329063 463.270064 
L 317.454867 357.19867 
L 323.58067 471.548352 
L 329.706474 355.555413 
L 335.832277 476.070567 
L 341.958081 356.891683 
L 348.083884 474.419085 
L 354.209688 362.549968 
L 360.335491 467.06574 
L 366.461295 361.265781 
L 372.587098 469.056588 
L 378.712902 361.900808 
L 384.838705 465.206138 
L 390.964509 363.153403 
L 397.090312 464.606664 
L 403.216116 358.155027 
L 409.341919 477.969087 
L 415.467723 349.946714 
L 421.593526 479.513736 
L 427.71933 343.24842 
L 433.845133 469.524104 
L 439.970937 372.622918 
L 446.09674 453.919823 
L 452.222544 372.228326 
L 458.348347 457.648987 
L 464.474151 370.661159 
L 470.599954 449.118525 
L 476.725758 370.86267 
L 482.851561 451.756727 
L 488.977365 373.745789 
L 495.103168 452.842471 
L 501.228972 369.413374 
L 507.354775 455.443662 
L 513.480579 378.75524 
L 519.606382 456.823847 
L 525.732185 372.205659 
L 531.857989 455.505028 
L 537.983792 363.599303 
L 544.109596 464.067049 
L 550.235399 358.169278 
L 556.361203 458.455499 
L 562.487006 366.539841 
L 568.61281 452.968435 
L 574.738613 369.214089 
L 580.864417 453.526396 
L 586.99022 360.384261 
L 593.116024 461.442833 
L 599.241827 372.613803 
L 605.367631 457.230665 
L 611.493434 368.238482 
L 617.619238 457.208352 
L 623.745041 371.859634 
L 629.870845 459.653578 
L 635.996648 358.75339 
L 642.122452 466.120196 
L 648.248255 365.692057 
L 654.374059 459.504065 
L 660.499862 372.466668 
L 666.625666 455.995029 
L 672.751469 366.761296 
L 678.877273 458.594565 
" clip-path="url(#p1304d2a819)" style="fill: none; stroke: #e377c2; stroke-width: 1.5; stroke-linecap: square"/>
   </g>
   <g id="line2d_44">
    <path d="M 72.422727 412.890315 
L 78.548531 418.402209 
L 84.674334 413.454379 
L 90.800138 404.416065 
L 96.925941 429.538556 
L 103.051745 393.170407 
L 109.177548 430.39636 
L 115.303352 400.58957 
L 121.429155 419.516389 
L 127.554959 405.835189 
L 133.680762 418.654668 
L 139.806566 412.058305 
L 145.932369 416.153123 
L 152.058173 416.498398 
L 158.183976 417.574785 
L 164.30978 405.993075 
L 170.435583 422.345849 
L 176.561387 400.721573 
L 182.68719 422.369959 
L 188.812994 399.871414 
L 194.938797 427.390124 
L 201.064601 396.348605 
L 207.190404 429.481591 
L 213.316208 398.168003 
L 219.442011 427.791653 
L 225.567815 406.626984 
L 231.693618 415.62707 
L 237.819421 415.513462 
L 243.945225 417.950604 
L 250.071028 416.022081 
L 256.196832 407.147279 
L 262.322635 419.523337 
L 268.448439 408.529697 
L 274.574242 414.150329 
L 280.700046 413.987613 
L 286.825849 397.459336 
L 292.951653 428.050737 
L 299.077456 390.06424 
L 305.20326 434.060167 
L 311.329063 389.087042 
L 317.454867 443.316424 
L 323.58067 372.888478 
L 329.706474 455.080495 
L 335.832277 377.831415 
L 341.958081 456.428106 
L 348.083884 376.277538 
L 354.209688 456.895661 
L 360.335491 369.698608 
L 366.461295 444.935781 
L 372.587098 380.220368 
L 378.712902 451.690455 
L 384.838705 371.177078 
L 390.964509 450.633982 
L 397.090312 371.278922 
L 403.216116 458.437583 
L 409.341919 371.561681 
L 415.467723 451.758676 
L 421.593526 374.514583 
L 427.71933 453.305115 
L 433.845133 377.760933 
L 439.970937 449.580172 
L 446.09674 375.438302 
L 452.222544 446.223851 
L 458.348347 386.030606 
L 464.474151 444.704502 
L 470.599954 368.371806 
L 476.725758 458.99221 
L 482.851561 368.947434 
L 488.977365 452.868554 
L 495.103168 378.547437 
L 501.228972 452.78147 
L 507.354775 365.124113 
L 513.480579 455.314314 
L 519.606382 367.013414 
L 525.732185 455.472513 
L 531.857989 367.965003 
L 537.983792 459.213777 
L 544.109596 372.191699 
L 550.235399 447.306515 
L 556.361203 378.201826 
L 562.487006 441.77475 
L 568.61281 371.387466 
L 574.738613 461.65066 
L 580.864417 365.668055 
L 586.99022 460.296402 
L 593.116024 364.170619 
L 599.241827 479.00416 
L 605.367631 339.087739 
L 611.493434 489.733278 
L 617.619238 336.316605 
L 623.745041 484.816117 
L 629.870845 333.672782 
L 635.996648 498.158822 
L 642.122452 335.601363 
L 648.248255 492.551245 
L 654.374059 335.258175 
L 660.499862 496.142325 
L 666.625666 329.575852 
L 672.751469 497.689742 
L 678.877273 328.102904 
" clip-path="url(#p1304d2a819)" style="fill: none; stroke: #7f7f7f; stroke-width: 1.5; stroke-linecap: square"/>
   </g>
   <g id="line2d_45">
    <path d="M 72.422727 407.794889 
L 78.548531 418.333325 
L 84.674334 416.666087 
L 90.800138 408.578702 
L 96.925941 429.093543 
L 103.051745 386.602879 
L 109.177548 424.800413 
L 115.303352 411.253107 
L 121.429155 423.798082 
L 127.554959 398.253465 
L 133.680762 420.32552 
L 139.806566 398.506829 
L 145.932369 425.586093 
L 152.058173 399.78786 
L 158.183976 426.191832 
L 164.30978 391.549268 
L 170.435583 440.483024 
L 176.561387 376.54095 
L 182.68719 440.492798 
L 188.812994 385.109355 
L 194.938797 442.84881 
L 201.064601 389.408132 
L 207.190404 429.606698 
L 213.316208 401.431485 
L 219.442011 431.155594 
L 225.567815 402.80122 
L 231.693618 423.94351 
L 237.819421 398.030524 
L 243.945225 425.783528 
L 250.071028 404.687985 
L 256.196832 435.081805 
L 262.322635 393.371552 
L 268.448439 441.763655 
L 274.574242 380.143676 
L 280.700046 445.002684 
L 286.825849 385.053604 
L 292.951653 440.297458 
L 299.077456 383.210252 
L 305.20326 451.359642 
L 311.329063 370.6896 
L 317.454867 458.994049 
L 323.58067 370.216184 
L 329.706474 450.493385 
L 335.832277 381.445851 
L 341.958081 456.134704 
L 348.083884 370.77439 
L 354.209688 457.360392 
L 360.335491 367.651403 
L 366.461295 461.436503 
L 372.587098 368.266584 
L 378.712902 458.437723 
L 384.838705 365.317011 
L 390.964509 453.301269 
L 397.090312 380.789919 
L 403.216116 439.419128 
L 409.341919 386.733733 
L 415.467723 436.252659 
L 421.593526 388.546929 
L 427.71933 429.00977 
L 433.845133 393.011389 
L 439.970937 438.592336 
L 446.09674 383.576148 
L 452.222544 446.061953 
L 458.348347 380.05117 
L 464.474151 440.325558 
L 470.599954 388.931788 
L 476.725758 441.72341 
L 482.851561 385.244657 
L 488.977365 438.883204 
L 495.103168 384.22269 
L 501.228972 445.168272 
L 507.354775 385.543039 
L 513.480579 438.453348 
L 519.606382 388.184428 
L 525.732185 436.514158 
L 531.857989 386.845024 
L 537.983792 444.811213 
L 544.109596 380.36452 
L 550.235399 446.364504 
L 556.361203 389.301293 
L 562.487006 441.863685 
L 568.61281 394.185152 
L 574.738613 433.064668 
L 580.864417 389.547519 
L 586.99022 435.900445 
L 593.116024 384.494399 
L 599.241827 438.789941 
L 605.367631 383.716076 
L 611.493434 446.117846 
L 617.619238 378.812044 
L 623.745041 444.70251 
L 629.870845 374.400855 
L 635.996648 459.851175 
L 642.122452 367.453156 
L 648.248255 459.504589 
L 654.374059 377.706115 
L 660.499862 458.984991 
L 666.625666 374.363144 
L 672.751469 455.813427 
L 678.877273 376.084404 
" clip-path="url(#p1304d2a819)" style="fill: none; stroke: #bcbd22; stroke-width: 1.5; stroke-linecap: square"/>
   </g>
   <g id="line2d_46">
    <path d="M 72.422727 409.090772 
L 78.548531 419.851797 
L 84.674334 403.861795 
L 90.800138 413.624864 
L 96.925941 408.578994 
L 103.051745 422.474025 
L 109.177548 401.650377 
L 115.303352 427.611649 
L 121.429155 404.451257 
L 127.554959 426.789239 
L 133.680762 398.722556 
L 139.806566 430.085297 
L 145.932369 403.314585 
L 152.058173 431.144728 
L 158.183976 398.522653 
L 164.30978 421.545389 
L 170.435583 405.340798 
L 176.561387 416.285153 
L 182.68719 418.754092 
L 188.812994 408.350951 
L 194.938797 411.70366 
L 201.064601 413.848361 
L 207.190404 414.93116 
L 213.316208 408.680925 
L 219.442011 421.004801 
L 225.567815 404.895458 
L 231.693618 427.178866 
L 237.819421 398.509087 
L 243.945225 426.341278 
L 250.071028 398.028676 
L 256.196832 432.646153 
L 262.322635 390.492529 
L 268.448439 428.384516 
L 274.574242 397.570817 
L 280.700046 427.912139 
L 286.825849 401.16987 
L 292.951653 422.262331 
L 299.077456 392.46217 
L 305.20326 427.757143 
L 311.329063 406.870037 
L 317.454867 424.083784 
L 323.58067 407.975011 
L 329.706474 418.791036 
L 335.832277 405.724026 
L 341.958081 422.430373 
L 348.083884 410.954871 
L 354.209688 406.222079 
L 360.335491 407.801707 
L 366.461295 421.992252 
L 372.587098 408.972195 
L 378.712902 412.552926 
L 384.838705 423.536225 
L 390.964509 394.395295 
L 397.090312 436.442136 
L 403.216116 390.097463 
L 409.341919 432.027252 
L 415.467723 399.901653 
L 421.593526 423.439662 
L 427.71933 401.72086 
L 433.845133 418.893239 
L 439.970937 400.918634 
L 446.09674 420.85633 
L 452.222544 406.432739 
L 458.348347 413.475961 
L 464.474151 410.711105 
L 470.599954 398.143404 
L 476.725758 427.53021 
L 482.851561 393.127759 
L 488.977365 431.270828 
L 495.103168 399.519459 
L 501.228972 427.725332 
L 507.354775 401.994976 
L 513.480579 424.702582 
L 519.606382 392.580529 
L 525.732185 425.601832 
L 531.857989 407.37608 
L 537.983792 413.877457 
L 544.109596 410.322652 
L 550.235399 413.250157 
L 556.361203 411.225331 
L 562.487006 411.481441 
L 568.61281 398.029889 
L 574.738613 423.767258 
L 580.864417 399.872853 
L 586.99022 423.543732 
L 593.116024 402.762418 
L 599.241827 417.835261 
L 605.367631 395.630849 
L 611.493434 431.629606 
L 617.619238 398.940604 
L 623.745041 417.996914 
L 629.870845 400.186879 
L 635.996648 418.41296 
L 642.122452 405.66065 
L 648.248255 410.852521 
L 654.374059 409.160121 
L 660.499862 421.382115 
L 666.625666 408.739743 
L 672.751469 420.556203 
L 678.877273 397.948202 
" clip-path="url(#p1304d2a819)" style="fill: none; stroke: #17becf; stroke-width: 1.5; stroke-linecap: square"/>
   </g>
   <g id="patch_9">
    <path d="M 42.1 534.04 
L 42.1 294.93 
" style="fill: none; stroke: #000000; stroke-width: 0.8; stroke-linejoin: miter; stroke-linecap: square"/>
   </g>
   <g id="patch_10">
    <path d="M 709.2 534.04 
L 709.2 294.93 
" style="fill: none; stroke: #000000; stroke-width: 0.8; stroke-linejoin: miter; stroke-linecap: square"/>
   </g>
   <g id="patch_11">
    <path d="M 42.1 534.04 
L 709.2 534.04 
" style="fill: none; stroke: #000000; stroke-width: 0.8; stroke-linejoin: miter; stroke-linecap: square"/>
   </g>
   <g id="patch_12">
    <path d="M 42.1 294.93 
L 709.2 294.93 
" style="fill: none; stroke: #000000; stroke-width: 0.8; stroke-linejoin: miter; stroke-linecap: square"/>
   </g>
   <g id="text_22">
    <!-- 20 Realizations of AR(1) Process with ϕ=-1 -->
    <g transform="translate(247.517188 288.93) scale(0.12 -0.12)">
     <use xlink:href="#DejaVuSans-32"/>
     <use xlink:href="#DejaVuSans-30" x="63.623047"/>
     <use xlink:href="#DejaVuSans-20" x="127.246094"/>
     <use xlink:href="#DejaVuSans-52" x="159.033203"/>
     <use xlink:href="#DejaVuSans-65" x="224.015625"/>
     <use xlink:href="#DejaVuSans-61" x="285.539062"/>
     <use xlink:href="#DejaVuSans-6c" x="346.818359"/>
     <use xlink:href="#DejaVuSans-69" x="374.601562"/>
     <use xlink:href="#DejaVuSans-7a" x="402.384766"/>
     <use xlink:href="#DejaVuSans-61" x="454.875"/>
     <use xlink:href="#DejaVuSans-74" x="516.154297"/>
     <use xlink:href="#DejaVuSans-69" x="555.363281"/>
     <use xlink:href="#DejaVuSans-6f" x="583.146484"/>
     <use xlink:href="#DejaVuSans-6e" x="644.328125"/>
     <use xlink:href="#DejaVuSans-73" x="707.707031"/>
     <use xlink:href="#DejaVuSans-20" x="759.806641"/>
     <use xlink:href="#DejaVuSans-6f" x="791.59375"/>
     <use xlink:href="#DejaVuSans-66" x="852.775391"/>
     <use xlink:href="#DejaVuSans-20" x="887.980469"/>
     <use xlink:href="#DejaVuSans-41" x="919.767578"/>
     <use xlink:href="#DejaVuSans-52" x="988.175781"/>
     <use xlink:href="#DejaVuSans-28" x="1057.658203"/>
     <use xlink:href="#DejaVuSans-31" x="1096.671875"/>
     <use xlink:href="#DejaVuSans-29" x="1160.294922"/>
     <use xlink:href="#DejaVuSans-20" x="1199.308594"/>
     <use xlink:href="#DejaVuSans-50" x="1231.095703"/>
     <use xlink:href="#DejaVuSans-72" x="1289.648438"/>
     <use xlink:href="#DejaVuSans-6f" x="1328.511719"/>
     <use xlink:href="#DejaVuSans-63" x="1389.693359"/>
     <use xlink:href="#DejaVuSans-65" x="1444.673828"/>
     <use xlink:href="#DejaVuSans-73" x="1506.197266"/>
     <use xlink:href="#DejaVuSans-73" x="1558.296875"/>
     <use xlink:href="#DejaVuSans-20" x="1610.396484"/>
     <use xlink:href="#DejaVuSans-77" x="1642.183594"/>
     <use xlink:href="#DejaVuSans-69" x="1723.970703"/>
     <use xlink:href="#DejaVuSans-74" x="1751.753906"/>
     <use xlink:href="#DejaVuSans-68" x="1790.962891"/>
     <use xlink:href="#DejaVuSans-20" x="1854.341797"/>
     <use xlink:href="#DejaVuSans-3d5" x="1886.128906"/>
     <use xlink:href="#DejaVuSans-3d" x="1952.095703"/>
     <use xlink:href="#DejaVuSans-2d" x="2035.884766"/>
     <use xlink:href="#DejaVuSans-31" x="2071.96875"/>
    </g>
   </g>
  </g>
 </g>
 <defs>
  <clipPath id="p217eb315c3">
   <rect x="42.1" y="26.16" width="667.1" height="239.11"/>
  </clipPath>
  <clipPath id="p1304d2a819">
   <rect x="42.1" y="294.93" width="667.1" height="239.11"/>
  </clipPath>
 </defs>
</svg>
