<?xml version="1.0" encoding="utf-8" standalone="no"?>
<!DOCTYPE svg PUBLIC "-//W3C//DTD SVG 1.1//EN"
  "http://www.w3.org/Graphics/SVG/1.1/DTD/svg11.dtd">
<svg xmlns:xlink="http://www.w3.org/1999/xlink" width="720pt" height="576pt" viewBox="0 0 720 576" xmlns="http://www.w3.org/2000/svg" version="1.1">
 <metadata>
  <rdf:RDF xmlns:dc="http://purl.org/dc/elements/1.1/" xmlns:cc="http://creativecommons.org/ns#" xmlns:rdf="http://www.w3.org/1999/02/22-rdf-syntax-ns#">
   <cc:Work>
    <dc:type rdf:resource="http://purl.org/dc/dcmitype/StillImage"/>
    <dc:date>2024-02-20T02:13:56.112200</dc:date>
    <dc:format>image/svg+xml</dc:format>
    <dc:creator>
     <cc:Agent>
      <dc:title>Matplotlib v3.8.2, https://matplotlib.org/</dc:title>
     </cc:Agent>
    </dc:creator>
   </cc:Work>
  </rdf:RDF>
 </metadata>
 <defs>
  <style type="text/css">*{stroke-linejoin: round; stroke-linecap: butt}</style>
 </defs>
 <g id="figure_1">
  <g id="patch_1">
   <path d="M 0 576 
L 720 576 
L 720 0 
L 0 0 
z
" style="fill: #ffffff"/>
  </g>
  <g id="axes_1">
   <g id="patch_2">
    <path d="M 64.465 265.27 
L 709.2 265.27 
L 709.2 26.16 
L 64.465 26.16 
z
" style="fill: #ffffff"/>
   </g>
   <g id="matplotlib.axis_1">
    <g id="xtick_1">
     <g id="line2d_1">
      <defs>
       <path id="mecd9ba2e79" d="M 0 0 
L 0 3.5 
" style="stroke: #000000; stroke-width: 0.8"/>
      </defs>
      <g>
       <use xlink:href="#mecd9ba2e79" x="93.771136" y="265.27" style="stroke: #000000; stroke-width: 0.8"/>
      </g>
     </g>
    </g>
    <g id="xtick_2">
     <g id="line2d_2">
      <g>
       <use xlink:href="#mecd9ba2e79" x="212.179768" y="265.27" style="stroke: #000000; stroke-width: 0.8"/>
      </g>
     </g>
    </g>
    <g id="xtick_3">
     <g id="line2d_3">
      <g>
       <use xlink:href="#mecd9ba2e79" x="330.5884" y="265.27" style="stroke: #000000; stroke-width: 0.8"/>
      </g>
     </g>
    </g>
    <g id="xtick_4">
     <g id="line2d_4">
      <g>
       <use xlink:href="#mecd9ba2e79" x="448.997032" y="265.27" style="stroke: #000000; stroke-width: 0.8"/>
      </g>
     </g>
    </g>
    <g id="xtick_5">
     <g id="line2d_5">
      <g>
       <use xlink:href="#mecd9ba2e79" x="567.405663" y="265.27" style="stroke: #000000; stroke-width: 0.8"/>
      </g>
     </g>
    </g>
    <g id="xtick_6">
     <g id="line2d_6">
      <g>
       <use xlink:href="#mecd9ba2e79" x="685.814295" y="265.27" style="stroke: #000000; stroke-width: 0.8"/>
      </g>
     </g>
    </g>
   </g>
   <g id="matplotlib.axis_2">
    <g id="ytick_1">
     <g id="line2d_7">
      <defs>
       <path id="md120ed369f" d="M 0 0 
L -3.5 0 
" style="stroke: #000000; stroke-width: 0.8"/>
      </defs>
      <g>
       <use xlink:href="#md120ed369f" x="64.465" y="254.40608" style="stroke: #000000; stroke-width: 0.8"/>
      </g>
     </g>
     <g id="text_1">
      <!-- 0 -->
      <g transform="translate(51.1025 258.205299) scale(0.1 -0.1)">
       <defs>
        <path id="DejaVuSans-30" d="M 2034 4250 
Q 1547 4250 1301 3770 
Q 1056 3291 1056 2328 
Q 1056 1369 1301 889 
Q 1547 409 2034 409 
Q 2525 409 2770 889 
Q 3016 1369 3016 2328 
Q 3016 3291 2770 3770 
Q 2525 4250 2034 4250 
z
M 2034 4750 
Q 2819 4750 3233 4129 
Q 3647 3509 3647 2328 
Q 3647 1150 3233 529 
Q 2819 -91 2034 -91 
Q 1250 -91 836 529 
Q 422 1150 422 2328 
Q 422 3509 836 4129 
Q 1250 4750 2034 4750 
z
" transform="scale(0.015625)"/>
       </defs>
       <use xlink:href="#DejaVuSans-30"/>
      </g>
     </g>
    </g>
    <g id="ytick_2">
     <g id="line2d_8">
      <g>
       <use xlink:href="#md120ed369f" x="64.465" y="224.20157" style="stroke: #000000; stroke-width: 0.8"/>
      </g>
     </g>
     <g id="text_2">
      <!-- 50000 -->
      <g transform="translate(25.6525 228.000789) scale(0.1 -0.1)">
       <defs>
        <path id="DejaVuSans-35" d="M 691 4666 
L 3169 4666 
L 3169 4134 
L 1269 4134 
L 1269 2991 
Q 1406 3038 1543 3061 
Q 1681 3084 1819 3084 
Q 2600 3084 3056 2656 
Q 3513 2228 3513 1497 
Q 3513 744 3044 326 
Q 2575 -91 1722 -91 
Q 1428 -91 1123 -41 
Q 819 9 494 109 
L 494 744 
Q 775 591 1075 516 
Q 1375 441 1709 441 
Q 2250 441 2565 725 
Q 2881 1009 2881 1497 
Q 2881 1984 2565 2268 
Q 2250 2553 1709 2553 
Q 1456 2553 1204 2497 
Q 953 2441 691 2322 
L 691 4666 
z
" transform="scale(0.015625)"/>
       </defs>
       <use xlink:href="#DejaVuSans-35"/>
       <use xlink:href="#DejaVuSans-30" x="63.623047"/>
       <use xlink:href="#DejaVuSans-30" x="127.246094"/>
       <use xlink:href="#DejaVuSans-30" x="190.869141"/>
       <use xlink:href="#DejaVuSans-30" x="254.492188"/>
      </g>
     </g>
    </g>
    <g id="ytick_3">
     <g id="line2d_9">
      <g>
       <use xlink:href="#md120ed369f" x="64.465" y="193.997061" style="stroke: #000000; stroke-width: 0.8"/>
      </g>
     </g>
     <g id="text_3">
      <!-- 100000 -->
      <g transform="translate(19.29 197.796279) scale(0.1 -0.1)">
       <defs>
        <path id="DejaVuSans-31" d="M 794 531 
L 1825 531 
L 1825 4091 
L 703 3866 
L 703 4441 
L 1819 4666 
L 2450 4666 
L 2450 531 
L 3481 531 
L 3481 0 
L 794 0 
L 794 531 
z
" transform="scale(0.015625)"/>
       </defs>
       <use xlink:href="#DejaVuSans-31"/>
       <use xlink:href="#DejaVuSans-30" x="63.623047"/>
       <use xlink:href="#DejaVuSans-30" x="127.246094"/>
       <use xlink:href="#DejaVuSans-30" x="190.869141"/>
       <use xlink:href="#DejaVuSans-30" x="254.492188"/>
       <use xlink:href="#DejaVuSans-30" x="318.115234"/>
      </g>
     </g>
    </g>
    <g id="ytick_4">
     <g id="line2d_10">
      <g>
       <use xlink:href="#md120ed369f" x="64.465" y="163.792551" style="stroke: #000000; stroke-width: 0.8"/>
      </g>
     </g>
     <g id="text_4">
      <!-- 150000 -->
      <g transform="translate(19.29 167.59177) scale(0.1 -0.1)">
       <use xlink:href="#DejaVuSans-31"/>
       <use xlink:href="#DejaVuSans-35" x="63.623047"/>
       <use xlink:href="#DejaVuSans-30" x="127.246094"/>
       <use xlink:href="#DejaVuSans-30" x="190.869141"/>
       <use xlink:href="#DejaVuSans-30" x="254.492188"/>
       <use xlink:href="#DejaVuSans-30" x="318.115234"/>
      </g>
     </g>
    </g>
    <g id="ytick_5">
     <g id="line2d_11">
      <g>
       <use xlink:href="#md120ed369f" x="64.465" y="133.588041" style="stroke: #000000; stroke-width: 0.8"/>
      </g>
     </g>
     <g id="text_5">
      <!-- 200000 -->
      <g transform="translate(19.29 137.38726) scale(0.1 -0.1)">
       <defs>
        <path id="DejaVuSans-32" d="M 1228 531 
L 3431 531 
L 3431 0 
L 469 0 
L 469 531 
Q 828 903 1448 1529 
Q 2069 2156 2228 2338 
Q 2531 2678 2651 2914 
Q 2772 3150 2772 3378 
Q 2772 3750 2511 3984 
Q 2250 4219 1831 4219 
Q 1534 4219 1204 4116 
Q 875 4013 500 3803 
L 500 4441 
Q 881 4594 1212 4672 
Q 1544 4750 1819 4750 
Q 2544 4750 2975 4387 
Q 3406 4025 3406 3419 
Q 3406 3131 3298 2873 
Q 3191 2616 2906 2266 
Q 2828 2175 2409 1742 
Q 1991 1309 1228 531 
z
" transform="scale(0.015625)"/>
       </defs>
       <use xlink:href="#DejaVuSans-32"/>
       <use xlink:href="#DejaVuSans-30" x="63.623047"/>
       <use xlink:href="#DejaVuSans-30" x="127.246094"/>
       <use xlink:href="#DejaVuSans-30" x="190.869141"/>
       <use xlink:href="#DejaVuSans-30" x="254.492188"/>
       <use xlink:href="#DejaVuSans-30" x="318.115234"/>
      </g>
     </g>
    </g>
    <g id="ytick_6">
     <g id="line2d_12">
      <g>
       <use xlink:href="#md120ed369f" x="64.465" y="103.383531" style="stroke: #000000; stroke-width: 0.8"/>
      </g>
     </g>
     <g id="text_6">
      <!-- 250000 -->
      <g transform="translate(19.29 107.18275) scale(0.1 -0.1)">
       <use xlink:href="#DejaVuSans-32"/>
       <use xlink:href="#DejaVuSans-35" x="63.623047"/>
       <use xlink:href="#DejaVuSans-30" x="127.246094"/>
       <use xlink:href="#DejaVuSans-30" x="190.869141"/>
       <use xlink:href="#DejaVuSans-30" x="254.492188"/>
       <use xlink:href="#DejaVuSans-30" x="318.115234"/>
      </g>
     </g>
    </g>
    <g id="ytick_7">
     <g id="line2d_13">
      <g>
       <use xlink:href="#md120ed369f" x="64.465" y="73.179021" style="stroke: #000000; stroke-width: 0.8"/>
      </g>
     </g>
     <g id="text_7">
      <!-- 300000 -->
      <g transform="translate(19.29 76.97824) scale(0.1 -0.1)">
       <defs>
        <path id="DejaVuSans-33" d="M 2597 2516 
Q 3050 2419 3304 2112 
Q 3559 1806 3559 1356 
Q 3559 666 3084 287 
Q 2609 -91 1734 -91 
Q 1441 -91 1130 -33 
Q 819 25 488 141 
L 488 750 
Q 750 597 1062 519 
Q 1375 441 1716 441 
Q 2309 441 2620 675 
Q 2931 909 2931 1356 
Q 2931 1769 2642 2001 
Q 2353 2234 1838 2234 
L 1294 2234 
L 1294 2753 
L 1863 2753 
Q 2328 2753 2575 2939 
Q 2822 3125 2822 3475 
Q 2822 3834 2567 4026 
Q 2313 4219 1838 4219 
Q 1578 4219 1281 4162 
Q 984 4106 628 3988 
L 628 4550 
Q 988 4650 1302 4700 
Q 1616 4750 1894 4750 
Q 2613 4750 3031 4423 
Q 3450 4097 3450 3541 
Q 3450 3153 3228 2886 
Q 3006 2619 2597 2516 
z
" transform="scale(0.015625)"/>
       </defs>
       <use xlink:href="#DejaVuSans-33"/>
       <use xlink:href="#DejaVuSans-30" x="63.623047"/>
       <use xlink:href="#DejaVuSans-30" x="127.246094"/>
       <use xlink:href="#DejaVuSans-30" x="190.869141"/>
       <use xlink:href="#DejaVuSans-30" x="254.492188"/>
       <use xlink:href="#DejaVuSans-30" x="318.115234"/>
      </g>
     </g>
    </g>
    <g id="ytick_8">
     <g id="line2d_14">
      <g>
       <use xlink:href="#md120ed369f" x="64.465" y="42.974512" style="stroke: #000000; stroke-width: 0.8"/>
      </g>
     </g>
     <g id="text_8">
      <!-- 350000 -->
      <g transform="translate(19.29 46.77373) scale(0.1 -0.1)">
       <use xlink:href="#DejaVuSans-33"/>
       <use xlink:href="#DejaVuSans-35" x="63.623047"/>
       <use xlink:href="#DejaVuSans-30" x="127.246094"/>
       <use xlink:href="#DejaVuSans-30" x="190.869141"/>
       <use xlink:href="#DejaVuSans-30" x="254.492188"/>
       <use xlink:href="#DejaVuSans-30" x="318.115234"/>
      </g>
     </g>
    </g>
   </g>
   <g id="line2d_15">
    <path d="M 93.771136 254.400021 
L 99.691568 254.401364 
L 105.612 254.395426 
L 111.532431 254.390044 
L 117.452863 254.386173 
L 123.373294 254.388665 
L 129.293726 254.378838 
L 135.214157 254.380715 
L 141.134589 254.37153 
L 147.055021 254.370043 
L 152.975452 254.370699 
L 158.895884 254.368848 
L 164.816315 254.361513 
L 170.736747 254.350733 
L 176.657179 254.347697 
L 182.57761 254.344182 
L 188.498042 254.339178 
L 194.418473 254.332374 
L 200.338905 254.314581 
L 206.259337 254.310284 
L 212.179768 254.300038 
L 218.1002 254.274595 
L 224.020631 254.256061 
L 229.941063 254.241692 
L 235.861494 254.238068 
L 241.781926 254.224371 
L 247.702358 254.200364 
L 253.622789 254.184049 
L 259.543221 254.167714 
L 265.463652 254.141055 
L 271.384084 254.115243 
L 277.304516 254.090056 
L 283.224947 254.061912 
L 289.145379 254.021948 
L 295.06581 253.977587 
L 300.986242 253.93084 
L 306.906674 253.875304 
L 312.827105 253.819894 
L 318.747537 253.756617 
L 324.667968 253.70677 
L 330.5884 253.633836 
L 336.508831 253.558082 
L 342.429263 253.45791 
L 348.349695 253.367324 
L 354.270126 253.261099 
L 360.190558 253.135447 
L 366.110989 253.006372 
L 372.031421 252.876322 
L 377.951853 252.721152 
L 383.872284 252.554833 
L 389.792716 252.369337 
L 395.713147 252.161115 
L 401.633579 251.9486 
L 407.554011 251.703646 
L 413.474442 251.427746 
L 419.394874 251.121207 
L 425.315305 250.789274 
L 431.235737 250.434956 
L 437.156169 250.028214 
L 443.0766 249.594312 
L 448.997032 249.114131 
L 454.917463 248.587368 
L 460.837895 248.007293 
L 466.758326 247.369386 
L 472.678758 246.659669 
L 478.59919 245.895114 
L 484.519621 245.044979 
L 490.440053 244.10779 
L 496.360484 243.085082 
L 502.280916 241.95067 
L 508.201348 240.71015 
L 514.121779 239.34005 
L 520.042211 237.830466 
L 525.962642 236.165427 
L 531.883074 234.350888 
L 537.803506 232.350641 
L 543.723937 230.13568 
L 549.644369 227.709505 
L 555.5648 225.041648 
L 561.485232 222.104699 
L 567.405663 218.862845 
L 573.326095 215.310664 
L 579.246527 211.396246 
L 585.166958 207.101582 
L 591.08739 202.365876 
L 597.007821 197.169493 
L 602.928253 191.444569 
L 608.848685 185.144219 
L 614.769116 178.219063 
L 620.689548 170.60516 
L 626.609979 162.227952 
L 632.530411 153.009118 
L 638.450843 142.87489 
L 644.371274 131.724053 
L 650.291706 119.453892 
L 656.212137 105.956157 
L 662.132569 91.100598 
L 668.053 74.753266 
L 673.973432 56.797158 
L 679.893864 37.028636 
" clip-path="url(#pd9cfee7caa)" style="fill: none; stroke: #1f77b4; stroke-width: 1.5; stroke-linecap: square"/>
   </g>
   <g id="patch_3">
    <path d="M 64.465 265.27 
L 64.465 26.16 
" style="fill: none; stroke: #000000; stroke-width: 0.8; stroke-linejoin: miter; stroke-linecap: square"/>
   </g>
   <g id="patch_4">
    <path d="M 709.2 265.27 
L 709.2 26.16 
" style="fill: none; stroke: #000000; stroke-width: 0.8; stroke-linejoin: miter; stroke-linecap: square"/>
   </g>
   <g id="patch_5">
    <path d="M 64.465 265.27 
L 709.2 265.27 
" style="fill: none; stroke: #000000; stroke-width: 0.8; stroke-linejoin: miter; stroke-linecap: square"/>
   </g>
   <g id="patch_6">
    <path d="M 64.465 26.16 
L 709.2 26.16 
" style="fill: none; stroke: #000000; stroke-width: 0.8; stroke-linejoin: miter; stroke-linecap: square"/>
   </g>
   <g id="text_9">
    <!-- One Realization of AR(1) Process with ϕ=1.1 -->
    <g transform="translate(253.683125 20.16) scale(0.12 -0.12)">
     <defs>
      <path id="DejaVuSans-4f" d="M 2522 4238 
Q 1834 4238 1429 3725 
Q 1025 3213 1025 2328 
Q 1025 1447 1429 934 
Q 1834 422 2522 422 
Q 3209 422 3611 934 
Q 4013 1447 4013 2328 
Q 4013 3213 3611 3725 
Q 3209 4238 2522 4238 
z
M 2522 4750 
Q 3503 4750 4090 4092 
Q 4678 3434 4678 2328 
Q 4678 1225 4090 567 
Q 3503 -91 2522 -91 
Q 1538 -91 948 565 
Q 359 1222 359 2328 
Q 359 3434 948 4092 
Q 1538 4750 2522 4750 
z
" transform="scale(0.015625)"/>
      <path id="DejaVuSans-6e" d="M 3513 2113 
L 3513 0 
L 2938 0 
L 2938 2094 
Q 2938 2591 2744 2837 
Q 2550 3084 2163 3084 
Q 1697 3084 1428 2787 
Q 1159 2491 1159 1978 
L 1159 0 
L 581 0 
L 581 3500 
L 1159 3500 
L 1159 2956 
Q 1366 3272 1645 3428 
Q 1925 3584 2291 3584 
Q 2894 3584 3203 3211 
Q 3513 2838 3513 2113 
z
" transform="scale(0.015625)"/>
      <path id="DejaVuSans-65" d="M 3597 1894 
L 3597 1613 
L 953 1613 
Q 991 1019 1311 708 
Q 1631 397 2203 397 
Q 2534 397 2845 478 
Q 3156 559 3463 722 
L 3463 178 
Q 3153 47 2828 -22 
Q 2503 -91 2169 -91 
Q 1331 -91 842 396 
Q 353 884 353 1716 
Q 353 2575 817 3079 
Q 1281 3584 2069 3584 
Q 2775 3584 3186 3129 
Q 3597 2675 3597 1894 
z
M 3022 2063 
Q 3016 2534 2758 2815 
Q 2500 3097 2075 3097 
Q 1594 3097 1305 2825 
Q 1016 2553 972 2059 
L 3022 2063 
z
" transform="scale(0.015625)"/>
      <path id="DejaVuSans-20" transform="scale(0.015625)"/>
      <path id="DejaVuSans-52" d="M 2841 2188 
Q 3044 2119 3236 1894 
Q 3428 1669 3622 1275 
L 4263 0 
L 3584 0 
L 2988 1197 
Q 2756 1666 2539 1819 
Q 2322 1972 1947 1972 
L 1259 1972 
L 1259 0 
L 628 0 
L 628 4666 
L 2053 4666 
Q 2853 4666 3247 4331 
Q 3641 3997 3641 3322 
Q 3641 2881 3436 2590 
Q 3231 2300 2841 2188 
z
M 1259 4147 
L 1259 2491 
L 2053 2491 
Q 2509 2491 2742 2702 
Q 2975 2913 2975 3322 
Q 2975 3731 2742 3939 
Q 2509 4147 2053 4147 
L 1259 4147 
z
" transform="scale(0.015625)"/>
      <path id="DejaVuSans-61" d="M 2194 1759 
Q 1497 1759 1228 1600 
Q 959 1441 959 1056 
Q 959 750 1161 570 
Q 1363 391 1709 391 
Q 2188 391 2477 730 
Q 2766 1069 2766 1631 
L 2766 1759 
L 2194 1759 
z
M 3341 1997 
L 3341 0 
L 2766 0 
L 2766 531 
Q 2569 213 2275 61 
Q 1981 -91 1556 -91 
Q 1019 -91 701 211 
Q 384 513 384 1019 
Q 384 1609 779 1909 
Q 1175 2209 1959 2209 
L 2766 2209 
L 2766 2266 
Q 2766 2663 2505 2880 
Q 2244 3097 1772 3097 
Q 1472 3097 1187 3025 
Q 903 2953 641 2809 
L 641 3341 
Q 956 3463 1253 3523 
Q 1550 3584 1831 3584 
Q 2591 3584 2966 3190 
Q 3341 2797 3341 1997 
z
" transform="scale(0.015625)"/>
      <path id="DejaVuSans-6c" d="M 603 4863 
L 1178 4863 
L 1178 0 
L 603 0 
L 603 4863 
z
" transform="scale(0.015625)"/>
      <path id="DejaVuSans-69" d="M 603 3500 
L 1178 3500 
L 1178 0 
L 603 0 
L 603 3500 
z
M 603 4863 
L 1178 4863 
L 1178 4134 
L 603 4134 
L 603 4863 
z
" transform="scale(0.015625)"/>
      <path id="DejaVuSans-7a" d="M 353 3500 
L 3084 3500 
L 3084 2975 
L 922 459 
L 3084 459 
L 3084 0 
L 275 0 
L 275 525 
L 2438 3041 
L 353 3041 
L 353 3500 
z
" transform="scale(0.015625)"/>
      <path id="DejaVuSans-74" d="M 1172 4494 
L 1172 3500 
L 2356 3500 
L 2356 3053 
L 1172 3053 
L 1172 1153 
Q 1172 725 1289 603 
Q 1406 481 1766 481 
L 2356 481 
L 2356 0 
L 1766 0 
Q 1100 0 847 248 
Q 594 497 594 1153 
L 594 3053 
L 172 3053 
L 172 3500 
L 594 3500 
L 594 4494 
L 1172 4494 
z
" transform="scale(0.015625)"/>
      <path id="DejaVuSans-6f" d="M 1959 3097 
Q 1497 3097 1228 2736 
Q 959 2375 959 1747 
Q 959 1119 1226 758 
Q 1494 397 1959 397 
Q 2419 397 2687 759 
Q 2956 1122 2956 1747 
Q 2956 2369 2687 2733 
Q 2419 3097 1959 3097 
z
M 1959 3584 
Q 2709 3584 3137 3096 
Q 3566 2609 3566 1747 
Q 3566 888 3137 398 
Q 2709 -91 1959 -91 
Q 1206 -91 779 398 
Q 353 888 353 1747 
Q 353 2609 779 3096 
Q 1206 3584 1959 3584 
z
" transform="scale(0.015625)"/>
      <path id="DejaVuSans-66" d="M 2375 4863 
L 2375 4384 
L 1825 4384 
Q 1516 4384 1395 4259 
Q 1275 4134 1275 3809 
L 1275 3500 
L 2222 3500 
L 2222 3053 
L 1275 3053 
L 1275 0 
L 697 0 
L 697 3053 
L 147 3053 
L 147 3500 
L 697 3500 
L 697 3744 
Q 697 4328 969 4595 
Q 1241 4863 1831 4863 
L 2375 4863 
z
" transform="scale(0.015625)"/>
      <path id="DejaVuSans-41" d="M 2188 4044 
L 1331 1722 
L 3047 1722 
L 2188 4044 
z
M 1831 4666 
L 2547 4666 
L 4325 0 
L 3669 0 
L 3244 1197 
L 1141 1197 
L 716 0 
L 50 0 
L 1831 4666 
z
" transform="scale(0.015625)"/>
      <path id="DejaVuSans-28" d="M 1984 4856 
Q 1566 4138 1362 3434 
Q 1159 2731 1159 2009 
Q 1159 1288 1364 580 
Q 1569 -128 1984 -844 
L 1484 -844 
Q 1016 -109 783 600 
Q 550 1309 550 2009 
Q 550 2706 781 3412 
Q 1013 4119 1484 4856 
L 1984 4856 
z
" transform="scale(0.015625)"/>
      <path id="DejaVuSans-29" d="M 513 4856 
L 1013 4856 
Q 1481 4119 1714 3412 
Q 1947 2706 1947 2009 
Q 1947 1309 1714 600 
Q 1481 -109 1013 -844 
L 513 -844 
Q 928 -128 1133 580 
Q 1338 1288 1338 2009 
Q 1338 2731 1133 3434 
Q 928 4138 513 4856 
z
" transform="scale(0.015625)"/>
      <path id="DejaVuSans-50" d="M 1259 4147 
L 1259 2394 
L 2053 2394 
Q 2494 2394 2734 2622 
Q 2975 2850 2975 3272 
Q 2975 3691 2734 3919 
Q 2494 4147 2053 4147 
L 1259 4147 
z
M 628 4666 
L 2053 4666 
Q 2838 4666 3239 4311 
Q 3641 3956 3641 3272 
Q 3641 2581 3239 2228 
Q 2838 1875 2053 1875 
L 1259 1875 
L 1259 0 
L 628 0 
L 628 4666 
z
" transform="scale(0.015625)"/>
      <path id="DejaVuSans-72" d="M 2631 2963 
Q 2534 3019 2420 3045 
Q 2306 3072 2169 3072 
Q 1681 3072 1420 2755 
Q 1159 2438 1159 1844 
L 1159 0 
L 581 0 
L 581 3500 
L 1159 3500 
L 1159 2956 
Q 1341 3275 1631 3429 
Q 1922 3584 2338 3584 
Q 2397 3584 2469 3576 
Q 2541 3569 2628 3553 
L 2631 2963 
z
" transform="scale(0.015625)"/>
      <path id="DejaVuSans-63" d="M 3122 3366 
L 3122 2828 
Q 2878 2963 2633 3030 
Q 2388 3097 2138 3097 
Q 1578 3097 1268 2742 
Q 959 2388 959 1747 
Q 959 1106 1268 751 
Q 1578 397 2138 397 
Q 2388 397 2633 464 
Q 2878 531 3122 666 
L 3122 134 
Q 2881 22 2623 -34 
Q 2366 -91 2075 -91 
Q 1284 -91 818 406 
Q 353 903 353 1747 
Q 353 2603 823 3093 
Q 1294 3584 2113 3584 
Q 2378 3584 2631 3529 
Q 2884 3475 3122 3366 
z
" transform="scale(0.015625)"/>
      <path id="DejaVuSans-73" d="M 2834 3397 
L 2834 2853 
Q 2591 2978 2328 3040 
Q 2066 3103 1784 3103 
Q 1356 3103 1142 2972 
Q 928 2841 928 2578 
Q 928 2378 1081 2264 
Q 1234 2150 1697 2047 
L 1894 2003 
Q 2506 1872 2764 1633 
Q 3022 1394 3022 966 
Q 3022 478 2636 193 
Q 2250 -91 1575 -91 
Q 1294 -91 989 -36 
Q 684 19 347 128 
L 347 722 
Q 666 556 975 473 
Q 1284 391 1588 391 
Q 1994 391 2212 530 
Q 2431 669 2431 922 
Q 2431 1156 2273 1281 
Q 2116 1406 1581 1522 
L 1381 1569 
Q 847 1681 609 1914 
Q 372 2147 372 2553 
Q 372 3047 722 3315 
Q 1072 3584 1716 3584 
Q 2034 3584 2315 3537 
Q 2597 3491 2834 3397 
z
" transform="scale(0.015625)"/>
      <path id="DejaVuSans-77" d="M 269 3500 
L 844 3500 
L 1563 769 
L 2278 3500 
L 2956 3500 
L 3675 769 
L 4391 3500 
L 4966 3500 
L 4050 0 
L 3372 0 
L 2619 2869 
L 1863 0 
L 1184 0 
L 269 3500 
z
" transform="scale(0.015625)"/>
      <path id="DejaVuSans-68" d="M 3513 2113 
L 3513 0 
L 2938 0 
L 2938 2094 
Q 2938 2591 2744 2837 
Q 2550 3084 2163 3084 
Q 1697 3084 1428 2787 
Q 1159 2491 1159 1978 
L 1159 0 
L 581 0 
L 581 4863 
L 1159 4863 
L 1159 2956 
Q 1366 3272 1645 3428 
Q 1925 3584 2291 3584 
Q 2894 3584 3203 3211 
Q 3513 2838 3513 2113 
z
" transform="scale(0.015625)"/>
      <path id="DejaVuSans-3d5" d="M 2388 4863 
L 2388 3572 
Q 3009 3572 3425 3094 
Q 3853 2606 3853 1747 
Q 3853 888 3425 400 
Q 3009 -78 2388 -78 
L 2388 -1331 
L 1816 -1331 
L 1816 -78 
Q 1194 -78 775 400 
Q 350 888 350 1747 
Q 350 2606 775 3094 
Q 1194 3572 1816 3572 
L 1816 4863 
L 2388 4863 
z
M 2388 434 
Q 2741 434 2981 756 
Q 3244 1116 3247 1747 
Q 3250 2372 2981 2738 
Q 2741 3059 2388 3059 
L 2388 434 
z
M 1816 434 
L 1816 3059 
Q 1463 3059 1225 2738 
Q 953 2372 956 1747 
Q 959 1116 1225 756 
Q 1463 434 1816 434 
z
" transform="scale(0.015625)"/>
      <path id="DejaVuSans-3d" d="M 678 2906 
L 4684 2906 
L 4684 2381 
L 678 2381 
L 678 2906 
z
M 678 1631 
L 4684 1631 
L 4684 1100 
L 678 1100 
L 678 1631 
z
" transform="scale(0.015625)"/>
      <path id="DejaVuSans-2e" d="M 684 794 
L 1344 794 
L 1344 0 
L 684 0 
L 684 794 
z
" transform="scale(0.015625)"/>
     </defs>
     <use xlink:href="#DejaVuSans-4f"/>
     <use xlink:href="#DejaVuSans-6e" x="78.710938"/>
     <use xlink:href="#DejaVuSans-65" x="142.089844"/>
     <use xlink:href="#DejaVuSans-20" x="203.613281"/>
     <use xlink:href="#DejaVuSans-52" x="235.400391"/>
     <use xlink:href="#DejaVuSans-65" x="300.382812"/>
     <use xlink:href="#DejaVuSans-61" x="361.90625"/>
     <use xlink:href="#DejaVuSans-6c" x="423.185547"/>
     <use xlink:href="#DejaVuSans-69" x="450.96875"/>
     <use xlink:href="#DejaVuSans-7a" x="478.751953"/>
     <use xlink:href="#DejaVuSans-61" x="531.242188"/>
     <use xlink:href="#DejaVuSans-74" x="592.521484"/>
     <use xlink:href="#DejaVuSans-69" x="631.730469"/>
     <use xlink:href="#DejaVuSans-6f" x="659.513672"/>
     <use xlink:href="#DejaVuSans-6e" x="720.695312"/>
     <use xlink:href="#DejaVuSans-20" x="784.074219"/>
     <use xlink:href="#DejaVuSans-6f" x="815.861328"/>
     <use xlink:href="#DejaVuSans-66" x="877.042969"/>
     <use xlink:href="#DejaVuSans-20" x="912.248047"/>
     <use xlink:href="#DejaVuSans-41" x="944.035156"/>
     <use xlink:href="#DejaVuSans-52" x="1012.443359"/>
     <use xlink:href="#DejaVuSans-28" x="1081.925781"/>
     <use xlink:href="#DejaVuSans-31" x="1120.939453"/>
     <use xlink:href="#DejaVuSans-29" x="1184.5625"/>
     <use xlink:href="#DejaVuSans-20" x="1223.576172"/>
     <use xlink:href="#DejaVuSans-50" x="1255.363281"/>
     <use xlink:href="#DejaVuSans-72" x="1313.916016"/>
     <use xlink:href="#DejaVuSans-6f" x="1352.779297"/>
     <use xlink:href="#DejaVuSans-63" x="1413.960938"/>
     <use xlink:href="#DejaVuSans-65" x="1468.941406"/>
     <use xlink:href="#DejaVuSans-73" x="1530.464844"/>
     <use xlink:href="#DejaVuSans-73" x="1582.564453"/>
     <use xlink:href="#DejaVuSans-20" x="1634.664062"/>
     <use xlink:href="#DejaVuSans-77" x="1666.451172"/>
     <use xlink:href="#DejaVuSans-69" x="1748.238281"/>
     <use xlink:href="#DejaVuSans-74" x="1776.021484"/>
     <use xlink:href="#DejaVuSans-68" x="1815.230469"/>
     <use xlink:href="#DejaVuSans-20" x="1878.609375"/>
     <use xlink:href="#DejaVuSans-3d5" x="1910.396484"/>
     <use xlink:href="#DejaVuSans-3d" x="1976.363281"/>
     <use xlink:href="#DejaVuSans-31" x="2060.152344"/>
     <use xlink:href="#DejaVuSans-2e" x="2123.775391"/>
     <use xlink:href="#DejaVuSans-31" x="2155.5625"/>
    </g>
   </g>
   <g id="legend_1">
    <g id="patch_7">
     <path d="M 71.465 48.838125 
L 250.265 48.838125 
Q 252.265 48.838125 252.265 46.838125 
L 252.265 33.16 
Q 252.265 31.16 250.265 31.16 
L 71.465 31.16 
Q 69.465 31.16 69.465 33.16 
L 69.465 46.838125 
Q 69.465 48.838125 71.465 48.838125 
z
" style="fill: #ffffff; opacity: 0.8; stroke: #cccccc; stroke-linejoin: miter"/>
    </g>
    <g id="line2d_16">
     <path d="M 73.465 39.258438 
L 83.465 39.258438 
L 93.465 39.258438 
" style="fill: none; stroke: #1f77b4; stroke-width: 1.5; stroke-linecap: square"/>
    </g>
    <g id="text_10">
     <!-- AR(1) with c=0, σ=10, ϕ=1.1 -->
     <g transform="translate(101.465 42.758438) scale(0.1 -0.1)">
      <defs>
       <path id="DejaVuSans-2c" d="M 750 794 
L 1409 794 
L 1409 256 
L 897 -744 
L 494 -744 
L 750 256 
L 750 794 
z
" transform="scale(0.015625)"/>
       <path id="DejaVuSans-3c3" d="M 1959 3044 
Q 1484 3044 1228 2700 
Q 959 2341 959 1747 
Q 959 1119 1226 758 
Q 1494 397 1959 397 
Q 2419 397 2687 759 
Q 2956 1122 2956 1747 
Q 2956 2319 2688 2700 
Q 2441 3044 1959 3044 
z
M 1959 3500 
L 3869 3500 
L 3869 2925 
L 3225 2925 
Q 3566 2438 3566 1747 
Q 3566 888 3138 400 
Q 2709 -91 1959 -91 
Q 1206 -91 781 400 
Q 353 888 353 1747 
Q 353 2613 781 3097 
Q 1134 3500 1959 3500 
z
" transform="scale(0.015625)"/>
      </defs>
      <use xlink:href="#DejaVuSans-41"/>
      <use xlink:href="#DejaVuSans-52" x="68.408203"/>
      <use xlink:href="#DejaVuSans-28" x="137.890625"/>
      <use xlink:href="#DejaVuSans-31" x="176.904297"/>
      <use xlink:href="#DejaVuSans-29" x="240.527344"/>
      <use xlink:href="#DejaVuSans-20" x="279.541016"/>
      <use xlink:href="#DejaVuSans-77" x="311.328125"/>
      <use xlink:href="#DejaVuSans-69" x="393.115234"/>
      <use xlink:href="#DejaVuSans-74" x="420.898438"/>
      <use xlink:href="#DejaVuSans-68" x="460.107422"/>
      <use xlink:href="#DejaVuSans-20" x="523.486328"/>
      <use xlink:href="#DejaVuSans-63" x="555.273438"/>
      <use xlink:href="#DejaVuSans-3d" x="610.253906"/>
      <use xlink:href="#DejaVuSans-30" x="694.042969"/>
      <use xlink:href="#DejaVuSans-2c" x="757.666016"/>
      <use xlink:href="#DejaVuSans-20" x="789.453125"/>
      <use xlink:href="#DejaVuSans-3c3" x="821.240234"/>
      <use xlink:href="#DejaVuSans-3d" x="884.619141"/>
      <use xlink:href="#DejaVuSans-31" x="968.408203"/>
      <use xlink:href="#DejaVuSans-30" x="1032.03125"/>
      <use xlink:href="#DejaVuSans-2c" x="1095.654297"/>
      <use xlink:href="#DejaVuSans-20" x="1127.441406"/>
      <use xlink:href="#DejaVuSans-3d5" x="1159.228516"/>
      <use xlink:href="#DejaVuSans-3d" x="1225.195312"/>
      <use xlink:href="#DejaVuSans-31" x="1308.984375"/>
      <use xlink:href="#DejaVuSans-2e" x="1372.607422"/>
      <use xlink:href="#DejaVuSans-31" x="1404.394531"/>
     </g>
    </g>
   </g>
  </g>
  <g id="axes_2">
   <g id="patch_8">
    <path d="M 64.465 534.04 
L 709.2 534.04 
L 709.2 294.93 
L 64.465 294.93 
z
" style="fill: #ffffff"/>
   </g>
   <g id="matplotlib.axis_3">
    <g id="xtick_7">
     <g id="line2d_17">
      <g>
       <use xlink:href="#mecd9ba2e79" x="93.771136" y="534.04" style="stroke: #000000; stroke-width: 0.8"/>
      </g>
     </g>
     <g id="text_11">
      <!-- 0 -->
      <g transform="translate(90.589886 548.638438) scale(0.1 -0.1)">
       <use xlink:href="#DejaVuSans-30"/>
      </g>
     </g>
    </g>
    <g id="xtick_8">
     <g id="line2d_18">
      <g>
       <use xlink:href="#mecd9ba2e79" x="212.179768" y="534.04" style="stroke: #000000; stroke-width: 0.8"/>
      </g>
     </g>
     <g id="text_12">
      <!-- 20 -->
      <g transform="translate(205.817268 548.638438) scale(0.1 -0.1)">
       <use xlink:href="#DejaVuSans-32"/>
       <use xlink:href="#DejaVuSans-30" x="63.623047"/>
      </g>
     </g>
    </g>
    <g id="xtick_9">
     <g id="line2d_19">
      <g>
       <use xlink:href="#mecd9ba2e79" x="330.5884" y="534.04" style="stroke: #000000; stroke-width: 0.8"/>
      </g>
     </g>
     <g id="text_13">
      <!-- 40 -->
      <g transform="translate(324.2259 548.638438) scale(0.1 -0.1)">
       <defs>
        <path id="DejaVuSans-34" d="M 2419 4116 
L 825 1625 
L 2419 1625 
L 2419 4116 
z
M 2253 4666 
L 3047 4666 
L 3047 1625 
L 3713 1625 
L 3713 1100 
L 3047 1100 
L 3047 0 
L 2419 0 
L 2419 1100 
L 313 1100 
L 313 1709 
L 2253 4666 
z
" transform="scale(0.015625)"/>
       </defs>
       <use xlink:href="#DejaVuSans-34"/>
       <use xlink:href="#DejaVuSans-30" x="63.623047"/>
      </g>
     </g>
    </g>
    <g id="xtick_10">
     <g id="line2d_20">
      <g>
       <use xlink:href="#mecd9ba2e79" x="448.997032" y="534.04" style="stroke: #000000; stroke-width: 0.8"/>
      </g>
     </g>
     <g id="text_14">
      <!-- 60 -->
      <g transform="translate(442.634532 548.638438) scale(0.1 -0.1)">
       <defs>
        <path id="DejaVuSans-36" d="M 2113 2584 
Q 1688 2584 1439 2293 
Q 1191 2003 1191 1497 
Q 1191 994 1439 701 
Q 1688 409 2113 409 
Q 2538 409 2786 701 
Q 3034 994 3034 1497 
Q 3034 2003 2786 2293 
Q 2538 2584 2113 2584 
z
M 3366 4563 
L 3366 3988 
Q 3128 4100 2886 4159 
Q 2644 4219 2406 4219 
Q 1781 4219 1451 3797 
Q 1122 3375 1075 2522 
Q 1259 2794 1537 2939 
Q 1816 3084 2150 3084 
Q 2853 3084 3261 2657 
Q 3669 2231 3669 1497 
Q 3669 778 3244 343 
Q 2819 -91 2113 -91 
Q 1303 -91 875 529 
Q 447 1150 447 2328 
Q 447 3434 972 4092 
Q 1497 4750 2381 4750 
Q 2619 4750 2861 4703 
Q 3103 4656 3366 4563 
z
" transform="scale(0.015625)"/>
       </defs>
       <use xlink:href="#DejaVuSans-36"/>
       <use xlink:href="#DejaVuSans-30" x="63.623047"/>
      </g>
     </g>
    </g>
    <g id="xtick_11">
     <g id="line2d_21">
      <g>
       <use xlink:href="#mecd9ba2e79" x="567.405663" y="534.04" style="stroke: #000000; stroke-width: 0.8"/>
      </g>
     </g>
     <g id="text_15">
      <!-- 80 -->
      <g transform="translate(561.043163 548.638438) scale(0.1 -0.1)">
       <defs>
        <path id="DejaVuSans-38" d="M 2034 2216 
Q 1584 2216 1326 1975 
Q 1069 1734 1069 1313 
Q 1069 891 1326 650 
Q 1584 409 2034 409 
Q 2484 409 2743 651 
Q 3003 894 3003 1313 
Q 3003 1734 2745 1975 
Q 2488 2216 2034 2216 
z
M 1403 2484 
Q 997 2584 770 2862 
Q 544 3141 544 3541 
Q 544 4100 942 4425 
Q 1341 4750 2034 4750 
Q 2731 4750 3128 4425 
Q 3525 4100 3525 3541 
Q 3525 3141 3298 2862 
Q 3072 2584 2669 2484 
Q 3125 2378 3379 2068 
Q 3634 1759 3634 1313 
Q 3634 634 3220 271 
Q 2806 -91 2034 -91 
Q 1263 -91 848 271 
Q 434 634 434 1313 
Q 434 1759 690 2068 
Q 947 2378 1403 2484 
z
M 1172 3481 
Q 1172 3119 1398 2916 
Q 1625 2713 2034 2713 
Q 2441 2713 2670 2916 
Q 2900 3119 2900 3481 
Q 2900 3844 2670 4047 
Q 2441 4250 2034 4250 
Q 1625 4250 1398 4047 
Q 1172 3844 1172 3481 
z
" transform="scale(0.015625)"/>
       </defs>
       <use xlink:href="#DejaVuSans-38"/>
       <use xlink:href="#DejaVuSans-30" x="63.623047"/>
      </g>
     </g>
    </g>
    <g id="xtick_12">
     <g id="line2d_22">
      <g>
       <use xlink:href="#mecd9ba2e79" x="685.814295" y="534.04" style="stroke: #000000; stroke-width: 0.8"/>
      </g>
     </g>
     <g id="text_16">
      <!-- 100 -->
      <g transform="translate(676.270545 548.638438) scale(0.1 -0.1)">
       <use xlink:href="#DejaVuSans-31"/>
       <use xlink:href="#DejaVuSans-30" x="63.623047"/>
       <use xlink:href="#DejaVuSans-30" x="127.246094"/>
      </g>
     </g>
    </g>
    <g id="text_17">
     <!-- t -->
     <g transform="translate(384.872344 562.316562) scale(0.1 -0.1)">
      <use xlink:href="#DejaVuSans-74"/>
     </g>
    </g>
   </g>
   <g id="matplotlib.axis_4">
    <g id="ytick_9">
     <g id="line2d_23">
      <g>
       <use xlink:href="#md120ed369f" x="64.465" y="521.756347" style="stroke: #000000; stroke-width: 0.8"/>
      </g>
     </g>
     <g id="text_18">
      <!-- −600000 -->
      <g transform="translate(10.910313 525.555566) scale(0.1 -0.1)">
       <defs>
        <path id="DejaVuSans-2212" d="M 678 2272 
L 4684 2272 
L 4684 1741 
L 678 1741 
L 678 2272 
z
" transform="scale(0.015625)"/>
       </defs>
       <use xlink:href="#DejaVuSans-2212"/>
       <use xlink:href="#DejaVuSans-36" x="83.789062"/>
       <use xlink:href="#DejaVuSans-30" x="147.412109"/>
       <use xlink:href="#DejaVuSans-30" x="211.035156"/>
       <use xlink:href="#DejaVuSans-30" x="274.658203"/>
       <use xlink:href="#DejaVuSans-30" x="338.28125"/>
       <use xlink:href="#DejaVuSans-30" x="401.904297"/>
      </g>
     </g>
    </g>
    <g id="ytick_10">
     <g id="line2d_24">
      <g>
       <use xlink:href="#md120ed369f" x="64.465" y="488.711" style="stroke: #000000; stroke-width: 0.8"/>
      </g>
     </g>
     <g id="text_19">
      <!-- −400000 -->
      <g transform="translate(10.910313 492.510219) scale(0.1 -0.1)">
       <use xlink:href="#DejaVuSans-2212"/>
       <use xlink:href="#DejaVuSans-34" x="83.789062"/>
       <use xlink:href="#DejaVuSans-30" x="147.412109"/>
       <use xlink:href="#DejaVuSans-30" x="211.035156"/>
       <use xlink:href="#DejaVuSans-30" x="274.658203"/>
       <use xlink:href="#DejaVuSans-30" x="338.28125"/>
       <use xlink:href="#DejaVuSans-30" x="401.904297"/>
      </g>
     </g>
    </g>
    <g id="ytick_11">
     <g id="line2d_25">
      <g>
       <use xlink:href="#md120ed369f" x="64.465" y="455.665654" style="stroke: #000000; stroke-width: 0.8"/>
      </g>
     </g>
     <g id="text_20">
      <!-- −200000 -->
      <g transform="translate(10.910313 459.464872) scale(0.1 -0.1)">
       <use xlink:href="#DejaVuSans-2212"/>
       <use xlink:href="#DejaVuSans-32" x="83.789062"/>
       <use xlink:href="#DejaVuSans-30" x="147.412109"/>
       <use xlink:href="#DejaVuSans-30" x="211.035156"/>
       <use xlink:href="#DejaVuSans-30" x="274.658203"/>
       <use xlink:href="#DejaVuSans-30" x="338.28125"/>
       <use xlink:href="#DejaVuSans-30" x="401.904297"/>
      </g>
     </g>
    </g>
    <g id="ytick_12">
     <g id="line2d_26">
      <g>
       <use xlink:href="#md120ed369f" x="64.465" y="422.620307" style="stroke: #000000; stroke-width: 0.8"/>
      </g>
     </g>
     <g id="text_21">
      <!-- 0 -->
      <g transform="translate(51.1025 426.419526) scale(0.1 -0.1)">
       <use xlink:href="#DejaVuSans-30"/>
      </g>
     </g>
    </g>
    <g id="ytick_13">
     <g id="line2d_27">
      <g>
       <use xlink:href="#md120ed369f" x="64.465" y="389.57496" style="stroke: #000000; stroke-width: 0.8"/>
      </g>
     </g>
     <g id="text_22">
      <!-- 200000 -->
      <g transform="translate(19.29 393.374179) scale(0.1 -0.1)">
       <use xlink:href="#DejaVuSans-32"/>
       <use xlink:href="#DejaVuSans-30" x="63.623047"/>
       <use xlink:href="#DejaVuSans-30" x="127.246094"/>
       <use xlink:href="#DejaVuSans-30" x="190.869141"/>
       <use xlink:href="#DejaVuSans-30" x="254.492188"/>
       <use xlink:href="#DejaVuSans-30" x="318.115234"/>
      </g>
     </g>
    </g>
    <g id="ytick_14">
     <g id="line2d_28">
      <g>
       <use xlink:href="#md120ed369f" x="64.465" y="356.529614" style="stroke: #000000; stroke-width: 0.8"/>
      </g>
     </g>
     <g id="text_23">
      <!-- 400000 -->
      <g transform="translate(19.29 360.328832) scale(0.1 -0.1)">
       <use xlink:href="#DejaVuSans-34"/>
       <use xlink:href="#DejaVuSans-30" x="63.623047"/>
       <use xlink:href="#DejaVuSans-30" x="127.246094"/>
       <use xlink:href="#DejaVuSans-30" x="190.869141"/>
       <use xlink:href="#DejaVuSans-30" x="254.492188"/>
       <use xlink:href="#DejaVuSans-30" x="318.115234"/>
      </g>
     </g>
    </g>
    <g id="ytick_15">
     <g id="line2d_29">
      <g>
       <use xlink:href="#md120ed369f" x="64.465" y="323.484267" style="stroke: #000000; stroke-width: 0.8"/>
      </g>
     </g>
     <g id="text_24">
      <!-- 600000 -->
      <g transform="translate(19.29 327.283486) scale(0.1 -0.1)">
       <use xlink:href="#DejaVuSans-36"/>
       <use xlink:href="#DejaVuSans-30" x="63.623047"/>
       <use xlink:href="#DejaVuSans-30" x="127.246094"/>
       <use xlink:href="#DejaVuSans-30" x="190.869141"/>
       <use xlink:href="#DejaVuSans-30" x="254.492188"/>
       <use xlink:href="#DejaVuSans-30" x="318.115234"/>
      </g>
     </g>
    </g>
   </g>
   <g id="line2d_30">
    <path d="M 93.771136 422.621583 
L 99.691568 422.622797 
L 105.612 422.622185 
L 111.532431 422.622256 
L 117.452863 422.622608 
L 123.373294 422.622487 
L 129.293726 422.62408 
L 135.214157 422.623691 
L 141.134589 422.622731 
L 147.055021 422.619457 
L 152.975452 422.620413 
L 158.895884 422.62154 
L 164.816315 422.621927 
L 170.736747 422.62082 
L 176.657179 422.622961 
L 182.57761 422.624547 
L 188.498042 422.625992 
L 194.418473 422.62804 
L 200.338905 422.627515 
L 206.259337 422.628651 
L 212.179768 422.628508 
L 218.1002 422.626317 
L 224.020631 422.626961 
L 229.941063 422.627789 
L 235.861494 422.626904 
L 241.781926 422.627098 
L 247.702358 422.628626 
L 253.622789 422.627075 
L 259.543221 422.628325 
L 265.463652 422.629632 
L 271.384084 422.629812 
L 277.304516 422.631429 
L 283.224947 422.632883 
L 289.145379 422.633882 
L 295.06581 422.638521 
L 300.986242 422.642378 
L 306.906674 422.64752 
L 312.827105 422.649029 
L 318.747537 422.652363 
L 324.667968 422.659538 
L 330.5884 422.663878 
L 336.508831 422.66815 
L 342.429263 422.675473 
L 348.349695 422.683093 
L 354.270126 422.689452 
L 360.190558 422.699675 
L 366.110989 422.707425 
L 372.031421 422.716464 
L 377.951853 422.724455 
L 383.872284 422.734354 
L 389.792716 422.747917 
L 395.713147 422.762149 
L 401.633579 422.778326 
L 407.554011 422.794148 
L 413.474442 422.81198 
L 419.394874 422.831894 
L 425.315305 422.854168 
L 431.235737 422.876793 
L 437.156169 422.904705 
L 443.0766 422.933107 
L 448.997032 422.964725 
L 454.917463 423.000404 
L 460.837895 423.038226 
L 466.758326 423.080707 
L 472.678758 423.127559 
L 478.59919 423.178889 
L 484.519621 423.236558 
L 490.440053 423.29937 
L 496.360484 423.365067 
L 502.280916 423.439567 
L 508.201348 423.521858 
L 514.121779 423.610545 
L 520.042211 423.709059 
L 525.962642 423.819213 
L 531.883074 423.941837 
L 537.803506 424.074678 
L 543.723937 424.220476 
L 549.644369 424.379431 
L 555.5648 424.554709 
L 561.485232 424.749085 
L 567.405663 424.962048 
L 573.326095 425.195224 
L 579.246527 425.454472 
L 585.166958 425.738871 
L 591.08739 426.051449 
L 597.007821 426.397084 
L 602.928253 426.772549 
L 608.848685 427.188824 
L 614.769116 427.647204 
L 620.689548 428.147724 
L 626.609979 428.698738 
L 632.530411 429.306814 
L 638.450843 429.975896 
L 644.371274 430.714282 
L 650.291706 431.523435 
L 656.212137 432.415572 
L 662.132569 433.395221 
L 668.053 434.473594 
L 673.973432 435.65903 
L 679.893864 436.9634 
" clip-path="url(#pf02dd3b155)" style="fill: none; stroke: #1f77b4; stroke-width: 1.5; stroke-linecap: square"/>
   </g>
   <g id="line2d_31">
    <path d="M 93.771136 422.621623 
L 99.691568 422.621523 
L 105.612 422.621482 
L 111.532431 422.621887 
L 117.452863 422.620973 
L 123.373294 422.623306 
L 129.293726 422.624362 
L 135.214157 422.626297 
L 141.134589 422.629305 
L 147.055021 422.630811 
L 152.975452 422.629643 
L 158.895884 422.629528 
L 164.816315 422.631087 
L 170.736747 422.635204 
L 176.657179 422.636433 
L 182.57761 422.638234 
L 188.498042 422.640659 
L 194.418473 422.642305 
L 200.338905 422.644427 
L 206.259337 422.643375 
L 212.179768 422.645419 
L 218.1002 422.649053 
L 224.020631 422.651837 
L 229.941063 422.65776 
L 235.861494 422.659493 
L 241.781926 422.665794 
L 247.702358 422.67045 
L 253.622789 422.673718 
L 259.543221 422.680034 
L 265.463652 422.685669 
L 271.384084 422.69409 
L 277.304516 422.700898 
L 283.224947 422.706467 
L 289.145379 422.71418 
L 295.06581 422.724616 
L 300.986242 422.734363 
L 306.906674 422.744963 
L 312.827105 422.756338 
L 318.747537 422.769622 
L 324.667968 422.786483 
L 330.5884 422.801862 
L 336.508831 422.821431 
L 342.429263 422.843891 
L 348.349695 422.866927 
L 354.270126 422.889862 
L 360.190558 422.91751 
L 366.110989 422.947081 
L 372.031421 422.980623 
L 377.951853 423.018455 
L 383.872284 423.060555 
L 389.792716 423.105266 
L 395.713147 423.151989 
L 401.633579 423.202852 
L 407.554011 423.262236 
L 413.474442 423.327692 
L 419.394874 423.398061 
L 425.315305 423.474662 
L 431.235737 423.556251 
L 437.156169 423.64751 
L 443.0766 423.751555 
L 448.997032 423.864717 
L 454.917463 423.98887 
L 460.837895 424.12318 
L 466.758326 424.274759 
L 472.678758 424.439402 
L 478.59919 424.623152 
L 484.519621 424.820455 
L 490.440053 425.042412 
L 496.360484 425.284057 
L 502.280916 425.548624 
L 508.201348 425.842408 
L 514.121779 426.167281 
L 520.042211 426.523497 
L 525.962642 426.913082 
L 531.883074 427.341994 
L 537.803506 427.815865 
L 543.723937 428.334897 
L 549.644369 428.907672 
L 555.5648 429.538061 
L 561.485232 430.232065 
L 567.405663 430.991804 
L 573.326095 431.828982 
L 579.246527 432.749424 
L 585.166958 433.763991 
L 591.08739 434.876206 
L 597.007821 436.10153 
L 602.928253 437.446386 
L 608.848685 438.927321 
L 614.769116 440.556809 
L 620.689548 442.350132 
L 626.609979 444.322555 
L 632.530411 446.492597 
L 638.450843 448.879216 
L 644.371274 451.502715 
L 650.291706 454.388402 
L 656.212137 457.567973 
L 662.132569 461.064028 
L 668.053 464.907777 
L 673.973432 469.134659 
L 679.893864 473.786992 
" clip-path="url(#pf02dd3b155)" style="fill: none; stroke: #ff7f0e; stroke-width: 1.5; stroke-linecap: square"/>
   </g>
   <g id="line2d_32">
    <path d="M 93.771136 422.615249 
L 99.691568 422.612955 
L 105.612 422.611873 
L 111.532431 422.610903 
L 117.452863 422.609561 
L 123.373294 422.607177 
L 129.293726 422.601976 
L 135.214157 422.600254 
L 141.134589 422.600918 
L 147.055021 422.599172 
L 152.975452 422.597255 
L 158.895884 422.594412 
L 164.816315 422.592282 
L 170.736747 422.590558 
L 176.657179 422.589015 
L 182.57761 422.584399 
L 188.498042 422.580248 
L 194.418473 422.577608 
L 200.338905 422.571418 
L 206.259337 422.566494 
L 212.179768 422.562038 
L 218.1002 422.557116 
L 224.020631 422.550004 
L 229.941063 422.542293 
L 235.861494 422.534956 
L 241.781926 422.524319 
L 247.702358 422.514414 
L 253.622789 422.503189 
L 259.543221 422.492177 
L 265.463652 422.47812 
L 271.384084 422.460217 
L 277.304516 422.445339 
L 283.224947 422.427564 
L 289.145379 422.407809 
L 295.06581 422.389516 
L 300.986242 422.364354 
L 306.906674 422.33693 
L 312.827105 422.308921 
L 318.747537 422.274525 
L 324.667968 422.23882 
L 330.5884 422.200577 
L 336.508831 422.157648 
L 342.429263 422.112252 
L 348.349695 422.062583 
L 354.270126 422.004584 
L 360.190558 421.94465 
L 366.110989 421.87516 
L 372.031421 421.798519 
L 377.951853 421.713286 
L 383.872284 421.624013 
L 389.792716 421.525564 
L 395.713147 421.414488 
L 401.633579 421.295 
L 407.554011 421.163757 
L 413.474442 421.021895 
L 419.394874 420.86034 
L 425.315305 420.687612 
L 431.235737 420.493397 
L 437.156169 420.280627 
L 443.0766 420.045867 
L 448.997032 419.788494 
L 454.917463 419.504521 
L 460.837895 419.192215 
L 466.758326 418.850038 
L 472.678758 418.469528 
L 478.59919 418.053159 
L 484.519621 417.592751 
L 490.440053 417.091241 
L 496.360484 416.53634 
L 502.280916 415.928677 
L 508.201348 415.257725 
L 514.121779 414.522802 
L 520.042211 413.712946 
L 525.962642 412.820183 
L 531.883074 411.839856 
L 537.803506 410.759435 
L 543.723937 409.571385 
L 549.644369 408.265977 
L 555.5648 406.830876 
L 561.485232 405.252938 
L 567.405663 403.518218 
L 573.326095 401.604729 
L 579.246527 399.502714 
L 585.166958 397.192861 
L 591.08739 394.651499 
L 597.007821 391.856221 
L 602.928253 388.78107 
L 608.848685 385.397779 
L 614.769116 381.674222 
L 620.689548 377.576981 
L 626.609979 373.0756 
L 632.530411 368.122665 
L 638.450843 362.672679 
L 644.371274 356.676966 
L 650.291706 350.083368 
L 656.212137 342.827192 
L 662.132569 334.849094 
L 668.053 326.072387 
L 673.973432 316.418093 
L 679.893864 305.798636 
" clip-path="url(#pf02dd3b155)" style="fill: none; stroke: #2ca02c; stroke-width: 1.5; stroke-linecap: square"/>
   </g>
   <g id="line2d_33">
    <path d="M 93.771136 422.62125 
L 99.691568 422.623506 
L 105.612 422.624614 
L 111.532431 422.62408 
L 117.452863 422.625052 
L 123.373294 422.625739 
L 129.293726 422.625175 
L 135.214157 422.622881 
L 141.134589 422.623574 
L 147.055021 422.625447 
L 152.975452 422.627617 
L 158.895884 422.629204 
L 164.816315 422.629694 
L 170.736747 422.630235 
L 176.657179 422.629675 
L 182.57761 422.631897 
L 188.498042 422.633457 
L 194.418473 422.637162 
L 200.338905 422.639038 
L 206.259337 422.641876 
L 212.179768 422.645324 
L 218.1002 422.647475 
L 224.020631 422.650817 
L 229.941063 422.655205 
L 235.861494 422.656397 
L 241.781926 422.662475 
L 247.702358 422.667091 
L 253.622789 422.670601 
L 259.543221 422.677103 
L 265.463652 422.683736 
L 271.384084 422.692355 
L 277.304516 422.698409 
L 283.224947 422.709463 
L 289.145379 422.721965 
L 295.06581 422.733624 
L 300.986242 422.74436 
L 306.906674 422.755663 
L 312.827105 422.768511 
L 318.747537 422.783728 
L 324.667968 422.798772 
L 330.5884 422.815443 
L 336.508831 422.836305 
L 342.429263 422.858942 
L 348.349695 422.880699 
L 354.270126 422.904788 
L 360.190558 422.934051 
L 366.110989 422.967056 
L 372.031421 423.002296 
L 377.951853 423.042315 
L 383.872284 423.08553 
L 389.792716 423.133103 
L 395.713147 423.183727 
L 401.633579 423.240848 
L 407.554011 423.301848 
L 413.474442 423.370594 
L 419.394874 423.449477 
L 425.315305 423.535818 
L 431.235737 423.627494 
L 437.156169 423.727378 
L 443.0766 423.836174 
L 448.997032 423.957773 
L 454.917463 424.093284 
L 460.837895 424.241738 
L 466.758326 424.401711 
L 472.678758 424.575171 
L 478.59919 424.771349 
L 484.519621 424.987195 
L 490.440053 425.2249 
L 496.360484 425.485358 
L 502.280916 425.775065 
L 508.201348 426.092954 
L 514.121779 426.438141 
L 520.042211 426.819933 
L 525.962642 427.239007 
L 531.883074 427.702587 
L 537.803506 428.210254 
L 543.723937 428.766419 
L 549.644369 429.380843 
L 555.5648 430.05526 
L 561.485232 430.799821 
L 567.405663 431.617188 
L 573.326095 432.519367 
L 579.246527 433.511276 
L 585.166958 434.600522 
L 591.08739 435.799232 
L 597.007821 437.11517 
L 602.928253 438.562169 
L 608.848685 440.15487 
L 614.769116 441.908278 
L 620.689548 443.834289 
L 626.609979 445.956378 
L 632.530411 448.288801 
L 638.450843 450.854993 
L 644.371274 453.679164 
L 650.291706 456.785836 
L 656.212137 460.200035 
L 662.132569 463.955263 
L 668.053 468.091151 
L 673.973432 472.638875 
L 679.893864 477.642346 
" clip-path="url(#pf02dd3b155)" style="fill: none; stroke: #d62728; stroke-width: 1.5; stroke-linecap: square"/>
   </g>
   <g id="line2d_34">
    <path d="M 93.771136 422.620429 
L 99.691568 422.621862 
L 105.612 422.622787 
L 111.532431 422.623237 
L 117.452863 422.624372 
L 123.373294 422.624355 
L 129.293726 422.624555 
L 135.214157 422.624649 
L 141.134589 422.623072 
L 147.055021 422.623191 
L 152.975452 422.625004 
L 158.895884 422.62465 
L 164.816315 422.626621 
L 170.736747 422.626166 
L 176.657179 422.62708 
L 182.57761 422.626829 
L 188.498042 422.627683 
L 194.418473 422.630975 
L 200.338905 422.632441 
L 206.259337 422.635158 
L 212.179768 422.635942 
L 218.1002 422.640335 
L 224.020631 422.641643 
L 229.941063 422.639907 
L 235.861494 422.641775 
L 241.781926 422.644512 
L 247.702358 422.647232 
L 253.622789 422.64939 
L 259.543221 422.652942 
L 265.463652 422.65761 
L 271.384084 422.662766 
L 277.304516 422.66733 
L 283.224947 422.670751 
L 289.145379 422.673932 
L 295.06581 422.67697 
L 300.986242 422.682373 
L 306.906674 422.689467 
L 312.827105 422.699362 
L 318.747537 422.707427 
L 324.667968 422.718615 
L 330.5884 422.726241 
L 336.508831 422.733215 
L 342.429263 422.746615 
L 348.349695 422.761943 
L 354.270126 422.775703 
L 360.190558 422.790732 
L 366.110989 422.807217 
L 372.031421 422.829802 
L 377.951853 422.852498 
L 383.872284 422.87502 
L 389.792716 422.896984 
L 395.713147 422.925328 
L 401.633579 422.956934 
L 407.554011 422.990857 
L 413.474442 423.026801 
L 419.394874 423.067039 
L 425.315305 423.112865 
L 431.235737 423.160747 
L 437.156169 423.213017 
L 443.0766 423.27458 
L 448.997032 423.338721 
L 454.917463 423.410483 
L 460.837895 423.490438 
L 466.758326 423.578855 
L 472.678758 423.6729 
L 478.59919 423.77396 
L 484.519621 423.889049 
L 490.440053 424.018793 
L 496.360484 424.158507 
L 502.280916 424.312937 
L 508.201348 424.482293 
L 514.121779 424.669374 
L 520.042211 424.875271 
L 525.962642 425.100485 
L 531.883074 425.349229 
L 537.803506 425.62232 
L 543.723937 425.920905 
L 549.644369 426.252298 
L 555.5648 426.61905 
L 561.485232 427.017868 
L 567.405663 427.455507 
L 573.326095 427.937215 
L 579.246527 428.468033 
L 585.166958 429.054652 
L 591.08739 429.698096 
L 597.007821 430.404114 
L 602.928253 431.185093 
L 608.848685 432.042378 
L 614.769116 432.984982 
L 620.689548 434.021688 
L 626.609979 435.159779 
L 632.530411 436.415761 
L 638.450843 437.795532 
L 644.371274 439.315347 
L 650.291706 440.987428 
L 656.212137 442.824161 
L 662.132569 444.843746 
L 668.053 447.0664 
L 673.973432 449.50906 
L 679.893864 452.197386 
" clip-path="url(#pf02dd3b155)" style="fill: none; stroke: #9467bd; stroke-width: 1.5; stroke-linecap: square"/>
   </g>
   <g id="line2d_35">
    <path d="M 93.771136 422.619669 
L 99.691568 422.620097 
L 105.612 422.620411 
L 111.532431 422.620401 
L 117.452863 422.624391 
L 123.373294 422.622828 
L 129.293726 422.620753 
L 135.214157 422.619093 
L 141.134589 422.617517 
L 147.055021 422.615328 
L 152.975452 422.614214 
L 158.895884 422.614372 
L 164.816315 422.61482 
L 170.736747 422.617689 
L 176.657179 422.617904 
L 182.57761 422.618272 
L 188.498042 422.618393 
L 194.418473 422.618878 
L 200.338905 422.616272 
L 206.259337 422.61238 
L 212.179768 422.611977 
L 218.1002 422.611273 
L 224.020631 422.610623 
L 229.941063 422.60949 
L 235.861494 422.605952 
L 241.781926 422.603895 
L 247.702358 422.605082 
L 253.622789 422.601436 
L 259.543221 422.598719 
L 265.463652 422.600745 
L 271.384084 422.599358 
L 277.304516 422.59819 
L 283.224947 422.59954 
L 289.145379 422.599869 
L 295.06581 422.594753 
L 300.986242 422.593413 
L 306.906674 422.58908 
L 312.827105 422.586049 
L 318.747537 422.581271 
L 324.667968 422.577958 
L 330.5884 422.573567 
L 336.508831 422.564645 
L 342.429263 422.55808 
L 348.349695 422.552579 
L 354.270126 422.548712 
L 360.190558 422.538643 
L 366.110989 422.53216 
L 372.031421 422.522406 
L 377.951853 422.511301 
L 383.872284 422.501112 
L 389.792716 422.488334 
L 395.713147 422.475211 
L 401.633579 422.459167 
L 407.554011 422.441582 
L 413.474442 422.428386 
L 419.394874 422.409 
L 425.315305 422.387797 
L 431.235737 422.36594 
L 437.156169 422.340239 
L 443.0766 422.312044 
L 448.997032 422.281875 
L 454.917463 422.249684 
L 460.837895 422.214181 
L 466.758326 422.171533 
L 472.678758 422.12678 
L 478.59919 422.078735 
L 484.519621 422.025813 
L 490.440053 421.969308 
L 496.360484 421.902923 
L 502.280916 421.82968 
L 508.201348 421.752078 
L 514.121779 421.663958 
L 520.042211 421.569983 
L 525.962642 421.46377 
L 531.883074 421.350492 
L 537.803506 421.225039 
L 543.723937 421.08645 
L 549.644369 420.931533 
L 555.5648 420.765357 
L 561.485232 420.581919 
L 567.405663 420.37625 
L 573.326095 420.151082 
L 579.246527 419.905887 
L 585.166958 419.634198 
L 591.08739 419.333994 
L 597.007821 419.003331 
L 602.928253 418.641525 
L 608.848685 418.242559 
L 614.769116 417.804416 
L 620.689548 417.324209 
L 626.609979 416.795878 
L 632.530411 416.210636 
L 638.450843 415.569061 
L 644.371274 414.862048 
L 650.291706 414.086559 
L 656.212137 413.233205 
L 662.132569 412.29444 
L 668.053 411.258693 
L 673.973432 410.125567 
L 679.893864 408.876477 
" clip-path="url(#pf02dd3b155)" style="fill: none; stroke: #8c564b; stroke-width: 1.5; stroke-linecap: square"/>
   </g>
   <g id="line2d_36">
    <path d="M 93.771136 422.619745 
L 99.691568 422.622258 
L 105.612 422.623446 
L 111.532431 422.623499 
L 117.452863 422.621738 
L 123.373294 422.623206 
L 129.293726 422.620385 
L 135.214157 422.620623 
L 141.134589 422.617831 
L 147.055021 422.617015 
L 152.975452 422.614547 
L 158.895884 422.613535 
L 164.816315 422.613557 
L 170.736747 422.613119 
L 176.657179 422.610598 
L 182.57761 422.610419 
L 188.498042 422.605356 
L 194.418473 422.600267 
L 200.338905 422.598532 
L 206.259337 422.599716 
L 212.179768 422.596912 
L 218.1002 422.5982 
L 224.020631 422.594611 
L 229.941063 422.588564 
L 235.861494 422.586222 
L 241.781926 422.58383 
L 247.702358 422.579367 
L 253.622789 422.578642 
L 259.543221 422.576204 
L 265.463652 422.571815 
L 271.384084 422.56737 
L 277.304516 422.564715 
L 283.224947 422.561959 
L 289.145379 422.554353 
L 295.06581 422.546163 
L 300.986242 422.536985 
L 306.906674 422.528844 
L 312.827105 422.520853 
L 318.747537 422.509537 
L 324.667968 422.501677 
L 330.5884 422.487074 
L 336.508831 422.476363 
L 342.429263 422.462831 
L 348.349695 422.44609 
L 354.270126 422.427162 
L 360.190558 422.407517 
L 366.110989 422.387661 
L 372.031421 422.36479 
L 377.951853 422.340676 
L 383.872284 422.313146 
L 389.792716 422.283409 
L 395.713147 422.251499 
L 401.633579 422.212422 
L 407.554011 422.169272 
L 413.474442 422.124072 
L 419.394874 422.072051 
L 425.315305 422.016546 
L 431.235737 421.953653 
L 437.156169 421.887783 
L 443.0766 421.813966 
L 448.997032 421.731712 
L 454.917463 421.646047 
L 460.837895 421.5487 
L 466.758326 421.440221 
L 472.678758 421.322963 
L 478.59919 421.194843 
L 484.519621 421.052309 
L 490.440053 420.894605 
L 496.360484 420.721919 
L 502.280916 420.535677 
L 508.201348 420.326181 
L 514.121779 420.093152 
L 520.042211 419.839644 
L 525.962642 419.560323 
L 531.883074 419.253028 
L 537.803506 418.914897 
L 543.723937 418.542626 
L 549.644369 418.134968 
L 555.5648 417.687647 
L 561.485232 417.198673 
L 567.405663 416.654794 
L 573.326095 416.05729 
L 579.246527 415.40201 
L 585.166958 414.681492 
L 591.08739 413.883905 
L 597.007821 413.0088 
L 602.928253 412.048052 
L 608.848685 410.989734 
L 614.769116 409.83062 
L 620.689548 408.55171 
L 626.609979 407.142087 
L 632.530411 405.594385 
L 638.450843 403.889696 
L 644.371274 402.015308 
L 650.291706 399.956814 
L 656.212137 397.691144 
L 662.132569 395.202573 
L 668.053 392.462804 
L 673.973432 389.448911 
L 679.893864 386.134053 
" clip-path="url(#pf02dd3b155)" style="fill: none; stroke: #e377c2; stroke-width: 1.5; stroke-linecap: square"/>
   </g>
   <g id="line2d_37">
    <path d="M 93.771136 422.621915 
L 99.691568 422.624597 
L 105.612 422.624762 
L 111.532431 422.626224 
L 117.452863 422.627479 
L 123.373294 422.629031 
L 129.293726 422.630764 
L 135.214157 422.631099 
L 141.134589 422.629223 
L 147.055021 422.630157 
L 152.975452 422.629737 
L 158.895884 422.633947 
L 164.816315 422.634754 
L 170.736747 422.635316 
L 176.657179 422.633511 
L 182.57761 422.634927 
L 188.498042 422.635033 
L 194.418473 422.634241 
L 200.338905 422.6369 
L 206.259337 422.637695 
L 212.179768 422.639566 
L 218.1002 422.643819 
L 224.020631 422.648232 
L 229.941063 422.650928 
L 235.861494 422.65583 
L 241.781926 422.65963 
L 247.702358 422.662306 
L 253.622789 422.666648 
L 259.543221 422.673791 
L 265.463652 422.676833 
L 271.384084 422.685286 
L 277.304516 422.692174 
L 283.224947 422.69848 
L 289.145379 422.705369 
L 295.06581 422.714122 
L 300.986242 422.719683 
L 306.906674 422.730118 
L 312.827105 422.742179 
L 318.747537 422.75478 
L 324.667968 422.768966 
L 330.5884 422.784227 
L 336.508831 422.800737 
L 342.429263 422.817455 
L 348.349695 422.835373 
L 354.270126 422.857399 
L 360.190558 422.881842 
L 366.110989 422.906519 
L 372.031421 422.935137 
L 377.951853 422.96508 
L 383.872284 422.995891 
L 389.792716 423.033443 
L 395.713147 423.076199 
L 401.633579 423.122164 
L 407.554011 423.172884 
L 413.474442 423.226777 
L 419.394874 423.28579 
L 425.315305 423.349455 
L 431.235737 423.423543 
L 437.156169 423.504938 
L 443.0766 423.596136 
L 448.997032 423.692483 
L 454.917463 423.800357 
L 460.837895 423.918897 
L 466.758326 424.046215 
L 472.678758 424.187775 
L 478.59919 424.343124 
L 484.519621 424.515242 
L 490.440053 424.702172 
L 496.360484 424.910944 
L 502.280916 425.14097 
L 508.201348 425.393796 
L 514.121779 425.672725 
L 520.042211 425.981387 
L 525.962642 426.318769 
L 531.883074 426.687762 
L 537.803506 427.094004 
L 543.723937 427.541919 
L 549.644369 428.036274 
L 555.5648 428.578829 
L 561.485232 429.173754 
L 567.405663 429.83362 
L 573.326095 430.55875 
L 579.246527 431.351077 
L 585.166958 432.227075 
L 591.08739 433.186529 
L 597.007821 434.241438 
L 602.928253 435.404329 
L 608.848685 436.683145 
L 614.769116 438.088043 
L 620.689548 439.634245 
L 626.609979 441.332321 
L 632.530411 443.203992 
L 638.450843 445.260885 
L 644.371274 447.525225 
L 650.291706 450.018413 
L 656.212137 452.75717 
L 662.132569 455.769737 
L 668.053 459.087012 
L 673.973432 462.732238 
L 679.893864 466.743709 
" clip-path="url(#pf02dd3b155)" style="fill: none; stroke: #7f7f7f; stroke-width: 1.5; stroke-linecap: square"/>
   </g>
   <g id="line2d_38">
    <path d="M 93.771136 422.618459 
L 99.691568 422.616489 
L 105.612 422.617314 
L 111.532431 422.619113 
L 117.452863 422.617686 
L 123.373294 422.616319 
L 129.293726 422.614547 
L 135.214157 422.613992 
L 141.134589 422.612898 
L 147.055021 422.613739 
L 152.975452 422.610156 
L 158.895884 422.609861 
L 164.816315 422.609558 
L 170.736747 422.606403 
L 176.657179 422.603212 
L 182.57761 422.601904 
L 188.498042 422.602641 
L 194.418473 422.600441 
L 200.338905 422.5999 
L 206.259337 422.600438 
L 212.179768 422.597994 
L 218.1002 422.593923 
L 224.020631 422.592133 
L 229.941063 422.588907 
L 235.861494 422.584364 
L 241.781926 422.583861 
L 247.702358 422.579808 
L 253.622789 422.576462 
L 259.543221 422.573434 
L 265.463652 422.569956 
L 271.384084 422.564509 
L 277.304516 422.5562 
L 283.224947 422.551589 
L 289.145379 422.545324 
L 295.06581 422.540104 
L 300.986242 422.532052 
L 306.906674 422.525592 
L 312.827105 422.51295 
L 318.747537 422.501117 
L 324.667968 422.488213 
L 330.5884 422.472011 
L 336.508831 422.458799 
L 342.429263 422.445782 
L 348.349695 422.427213 
L 354.270126 422.406456 
L 360.190558 422.384512 
L 366.110989 422.360907 
L 372.031421 422.3349 
L 377.951853 422.307573 
L 383.872284 422.278799 
L 389.792716 422.24352 
L 395.713147 422.207208 
L 401.633579 422.165077 
L 407.554011 422.115789 
L 413.474442 422.063535 
L 419.394874 422.007743 
L 425.315305 421.946185 
L 431.235737 421.881721 
L 437.156169 421.808223 
L 443.0766 421.726417 
L 448.997032 421.636008 
L 454.917463 421.535467 
L 460.837895 421.425853 
L 466.758326 421.308258 
L 472.678758 421.178654 
L 478.59919 421.0348 
L 484.519621 420.876838 
L 490.440053 420.703751 
L 496.360484 420.511241 
L 502.280916 420.298381 
L 508.201348 420.065529 
L 514.121779 419.811685 
L 520.042211 419.528227 
L 525.962642 419.22002 
L 531.883074 418.880763 
L 537.803506 418.50835 
L 543.723937 418.096206 
L 549.644369 417.643221 
L 555.5648 417.146807 
L 561.485232 416.596016 
L 567.405663 415.99389 
L 573.326095 415.328547 
L 579.246527 414.598856 
L 585.166958 413.796822 
L 591.08739 412.914784 
L 597.007821 411.945895 
L 602.928253 410.877999 
L 608.848685 409.702275 
L 614.769116 408.410294 
L 620.689548 406.989649 
L 626.609979 405.425326 
L 632.530411 403.705448 
L 638.450843 401.816737 
L 644.371274 399.737295 
L 650.291706 397.447114 
L 656.212137 394.926015 
L 662.132569 392.158417 
L 668.053 389.111191 
L 673.973432 385.759217 
L 679.893864 382.072303 
" clip-path="url(#pf02dd3b155)" style="fill: none; stroke: #bcbd22; stroke-width: 1.5; stroke-linecap: square"/>
   </g>
   <g id="line2d_39">
    <path d="M 93.771136 422.619446 
L 99.691568 422.619011 
L 105.612 422.620171 
L 111.532431 422.618117 
L 117.452863 422.615893 
L 123.373294 422.616537 
L 129.293726 422.615277 
L 135.214157 422.616914 
L 141.134589 422.615734 
L 147.055021 422.61345 
L 152.975452 422.61088 
L 158.895884 422.610902 
L 164.816315 422.608955 
L 170.736747 422.608254 
L 176.657179 422.606221 
L 182.57761 422.604765 
L 188.498042 422.602059 
L 194.418473 422.601479 
L 200.338905 422.597138 
L 206.259337 422.595017 
L 212.179768 422.591966 
L 218.1002 422.590597 
L 224.020631 422.58832 
L 229.941063 422.584963 
L 235.861494 422.582906 
L 241.781926 422.577779 
L 247.702358 422.570969 
L 253.622789 422.568722 
L 259.543221 422.563461 
L 265.463652 422.556611 
L 271.384084 422.552093 
L 277.304516 422.547234 
L 283.224947 422.538568 
L 289.145379 422.529847 
L 295.06581 422.519875 
L 300.986242 422.510391 
L 306.906674 422.4983 
L 312.827105 422.485385 
L 318.747537 422.470562 
L 324.667968 422.455696 
L 330.5884 422.438647 
L 336.508831 422.42304 
L 342.429263 422.402669 
L 348.349695 422.382692 
L 354.270126 422.358192 
L 360.190558 422.331869 
L 366.110989 422.302787 
L 372.031421 422.272008 
L 377.951853 422.237409 
L 383.872284 422.194644 
L 389.792716 422.154703 
L 395.713147 422.107942 
L 401.633579 422.058818 
L 407.554011 422.002015 
L 413.474442 421.941871 
L 419.394874 421.872665 
L 425.315305 421.797325 
L 431.235737 421.714472 
L 437.156169 421.620366 
L 443.0766 421.521018 
L 448.997032 421.408336 
L 454.917463 421.28852 
L 460.837895 421.157464 
L 466.758326 421.008896 
L 472.678758 420.846014 
L 478.59919 420.669953 
L 484.519621 420.475109 
L 490.440053 420.260174 
L 496.360484 420.022888 
L 502.280916 419.764977 
L 508.201348 419.479976 
L 514.121779 419.167612 
L 520.042211 418.821532 
L 525.962642 418.442952 
L 531.883074 418.022512 
L 537.803506 417.56196 
L 543.723937 417.057532 
L 549.644369 416.501271 
L 555.5648 415.891173 
L 561.485232 415.212985 
L 567.405663 414.472957 
L 573.326095 413.657512 
L 579.246527 412.761918 
L 585.166958 411.776002 
L 591.08739 410.691456 
L 597.007821 409.496883 
L 602.928253 408.183383 
L 608.848685 406.738456 
L 614.769116 405.148651 
L 620.689548 403.401619 
L 626.609979 401.47827 
L 632.530411 399.360964 
L 638.450843 397.03687 
L 644.371274 394.481351 
L 650.291706 391.667642 
L 656.212137 388.573183 
L 662.132569 385.168664 
L 668.053 381.422258 
L 673.973432 377.304331 
L 679.893864 372.771802 
" clip-path="url(#pf02dd3b155)" style="fill: none; stroke: #17becf; stroke-width: 1.5; stroke-linecap: square"/>
   </g>
   <g id="line2d_40">
    <path d="M 93.771136 422.620804 
L 99.691568 422.620058 
L 105.612 422.619141 
L 111.532431 422.618146 
L 117.452863 422.620106 
L 123.373294 422.619549 
L 129.293726 422.621422 
L 135.214157 422.621385 
L 141.134589 422.621037 
L 147.055021 422.619152 
L 152.975452 422.619255 
L 158.895884 422.61916 
L 164.816315 422.615728 
L 170.736747 422.613995 
L 176.657179 422.612522 
L 182.57761 422.61038 
L 188.498042 422.608482 
L 194.418473 422.604851 
L 200.338905 422.604064 
L 206.259337 422.599413 
L 212.179768 422.597583 
L 218.1002 422.594394 
L 224.020631 422.590956 
L 229.941063 422.587339 
L 235.861494 422.583315 
L 241.781926 422.577412 
L 247.702358 422.57253 
L 253.622789 422.567405 
L 259.543221 422.558788 
L 265.463652 422.551619 
L 271.384084 422.54715 
L 277.304516 422.538403 
L 283.224947 422.532987 
L 289.145379 422.524129 
L 295.06581 422.51486 
L 300.986242 422.505061 
L 306.906674 422.492948 
L 312.827105 422.482495 
L 318.747537 422.468871 
L 324.667968 422.452679 
L 330.5884 422.433953 
L 336.508831 422.414691 
L 342.429263 422.394091 
L 348.349695 422.371231 
L 354.270126 422.34547 
L 360.190558 422.315354 
L 366.110989 422.28366 
L 372.031421 422.24858 
L 377.951853 422.211661 
L 383.872284 422.170238 
L 389.792716 422.125235 
L 395.713147 422.075278 
L 401.633579 422.020962 
L 407.554011 421.963514 
L 413.474442 421.899281 
L 419.394874 421.825928 
L 425.315305 421.746043 
L 431.235737 421.65986 
L 437.156169 421.564556 
L 443.0766 421.457996 
L 448.997032 421.341741 
L 454.917463 421.21749 
L 460.837895 421.075681 
L 466.758326 420.923256 
L 472.678758 420.753647 
L 478.59919 420.569089 
L 484.519621 420.362943 
L 490.440053 420.137631 
L 496.360484 419.887761 
L 502.280916 419.616525 
L 508.201348 419.317286 
L 514.121779 418.987001 
L 520.042211 418.62434 
L 525.962642 418.225554 
L 531.883074 417.786775 
L 537.803506 417.302794 
L 543.723937 416.768749 
L 549.644369 416.183555 
L 555.5648 415.541996 
L 561.485232 414.837486 
L 567.405663 414.05559 
L 573.326095 413.201317 
L 579.246527 412.264003 
L 585.166958 411.229225 
L 591.08739 410.08927 
L 597.007821 408.83355 
L 602.928253 407.452257 
L 608.848685 405.935317 
L 614.769116 404.263863 
L 620.689548 402.429777 
L 626.609979 400.41149 
L 632.530411 398.190089 
L 638.450843 395.748197 
L 644.371274 393.062792 
L 650.291706 390.108509 
L 656.212137 386.855992 
L 662.132569 383.280331 
L 668.053 379.345031 
L 673.973432 375.017982 
L 679.893864 370.255616 
" clip-path="url(#pf02dd3b155)" style="fill: none; stroke: #1f77b4; stroke-width: 1.5; stroke-linecap: square"/>
   </g>
   <g id="line2d_41">
    <path d="M 93.771136 422.620421 
L 99.691568 422.625181 
L 105.612 422.628246 
L 111.532431 422.627816 
L 117.452863 422.629169 
L 123.373294 422.631009 
L 129.293726 422.631116 
L 135.214157 422.630898 
L 141.134589 422.633209 
L 147.055021 422.631718 
L 152.975452 422.630697 
L 158.895884 422.632426 
L 164.816315 422.634023 
L 170.736747 422.634762 
L 176.657179 422.634391 
L 182.57761 422.635822 
L 188.498042 422.636636 
L 194.418473 422.639027 
L 200.338905 422.639528 
L 206.259337 422.641284 
L 212.179768 422.642735 
L 218.1002 422.646092 
L 224.020631 422.650156 
L 229.941063 422.653396 
L 235.861494 422.656115 
L 241.781926 422.661705 
L 247.702358 422.666633 
L 253.622789 422.669894 
L 259.543221 422.673323 
L 265.463652 422.679695 
L 271.384084 422.687448 
L 277.304516 422.695897 
L 283.224947 422.703157 
L 289.145379 422.711114 
L 295.06581 422.721622 
L 300.986242 422.734251 
L 306.906674 422.745421 
L 312.827105 422.758089 
L 318.747537 422.772461 
L 324.667968 422.78996 
L 330.5884 422.805046 
L 336.508831 422.82277 
L 342.429263 422.841296 
L 348.349695 422.863234 
L 354.270126 422.886 
L 360.190558 422.913999 
L 366.110989 422.944058 
L 372.031421 422.977058 
L 377.951853 423.010928 
L 383.872284 423.047111 
L 389.792716 423.090791 
L 395.713147 423.137813 
L 401.633579 423.190645 
L 407.554011 423.248125 
L 413.474442 423.308539 
L 419.394874 423.377902 
L 425.315305 423.456379 
L 431.235737 423.54289 
L 437.156169 423.633301 
L 443.0766 423.735249 
L 448.997032 423.846101 
L 454.917463 423.967828 
L 460.837895 424.103276 
L 466.758326 424.249177 
L 472.678758 424.41232 
L 478.59919 424.590836 
L 484.519621 424.784824 
L 490.440053 425.004846 
L 496.360484 425.246069 
L 502.280916 425.508521 
L 508.201348 425.796187 
L 514.121779 426.11524 
L 520.042211 426.465639 
L 525.962642 426.851944 
L 531.883074 427.273233 
L 537.803506 427.736364 
L 543.723937 428.246709 
L 549.644369 428.810945 
L 555.5648 429.429121 
L 561.485232 430.111201 
L 567.405663 430.860605 
L 573.326095 431.683124 
L 579.246527 432.588498 
L 585.166958 433.584904 
L 591.08739 434.67948 
L 597.007821 435.8832 
L 602.928253 437.206633 
L 608.848685 438.662313 
L 614.769116 440.265852 
L 620.689548 442.026495 
L 626.609979 443.962889 
L 632.530411 446.100165 
L 638.450843 448.44963 
L 644.371274 451.028185 
L 650.291706 453.865975 
L 656.212137 456.993266 
L 662.132569 460.430281 
L 668.053 464.209629 
L 673.973432 468.368821 
L 679.893864 472.943193 
" clip-path="url(#pf02dd3b155)" style="fill: none; stroke: #ff7f0e; stroke-width: 1.5; stroke-linecap: square"/>
   </g>
   <g id="line2d_42">
    <path d="M 93.771136 422.618405 
L 99.691568 422.617105 
L 105.612 422.617396 
L 111.532431 422.615809 
L 117.452863 422.615542 
L 123.373294 422.612666 
L 129.293726 422.610287 
L 135.214157 422.612375 
L 141.134589 422.6085 
L 147.055021 422.607492 
L 152.975452 422.602802 
L 158.895884 422.598909 
L 164.816315 422.597115 
L 170.736747 422.595184 
L 176.657179 422.591766 
L 182.57761 422.590144 
L 188.498042 422.589641 
L 194.418473 422.584059 
L 200.338905 422.581818 
L 206.259337 422.580425 
L 212.179768 422.57559 
L 218.1002 422.569401 
L 224.020631 422.562414 
L 229.941063 422.55495 
L 235.861494 422.545295 
L 241.781926 422.540002 
L 247.702358 422.532304 
L 253.622789 422.521336 
L 259.543221 422.512691 
L 265.463652 422.500582 
L 271.384084 422.488246 
L 277.304516 422.477346 
L 283.224947 422.459557 
L 289.145379 422.442813 
L 295.06581 422.424932 
L 300.986242 422.401646 
L 306.906674 422.379651 
L 312.827105 422.353632 
L 318.747537 422.32524 
L 324.667968 422.296097 
L 330.5884 422.263154 
L 336.508831 422.22531 
L 342.429263 422.186799 
L 348.349695 422.14433 
L 354.270126 422.097405 
L 360.190558 422.047897 
L 366.110989 421.98708 
L 372.031421 421.923322 
L 377.951853 421.852136 
L 383.872284 421.775347 
L 389.792716 421.692476 
L 395.713147 421.60169 
L 401.633579 421.500839 
L 407.554011 421.386997 
L 413.474442 421.263235 
L 419.394874 421.12707 
L 425.315305 420.98093 
L 431.235737 420.81572 
L 437.156169 420.638101 
L 443.0766 420.438587 
L 448.997032 420.218402 
L 454.917463 419.980139 
L 460.837895 419.71752 
L 466.758326 419.425402 
L 472.678758 419.10574 
L 478.59919 418.75493 
L 484.519621 418.368955 
L 490.440053 417.941735 
L 496.360484 417.474555 
L 502.280916 416.957738 
L 508.201348 416.387697 
L 514.121779 415.763946 
L 520.042211 415.080314 
L 525.962642 414.32383 
L 531.883074 413.493275 
L 537.803506 412.580559 
L 543.723937 411.577634 
L 549.644369 410.473527 
L 555.5648 409.259113 
L 561.485232 407.925347 
L 567.405663 406.455056 
L 573.326095 404.839458 
L 579.246527 403.060374 
L 585.166958 401.104215 
L 591.08739 398.951841 
L 597.007821 396.582376 
L 602.928253 393.980455 
L 608.848685 391.114824 
L 614.769116 387.963888 
L 620.689548 384.499781 
L 626.609979 380.688096 
L 632.530411 376.491873 
L 638.450843 371.87767 
L 644.371274 366.802701 
L 650.291706 361.220193 
L 656.212137 355.077208 
L 662.132569 348.322119 
L 668.053 340.892819 
L 673.973432 332.719996 
L 679.893864 323.726282 
" clip-path="url(#pf02dd3b155)" style="fill: none; stroke: #2ca02c; stroke-width: 1.5; stroke-linecap: square"/>
   </g>
   <g id="line2d_43">
    <path d="M 93.771136 422.620356 
L 99.691568 422.619914 
L 105.612 422.61988 
L 111.532431 422.61706 
L 117.452863 422.618538 
L 123.373294 422.617901 
L 129.293726 422.618924 
L 135.214157 422.620855 
L 141.134589 422.619525 
L 147.055021 422.619314 
L 152.975452 422.61967 
L 158.895884 422.620044 
L 164.816315 422.622196 
L 170.736747 422.623997 
L 176.657179 422.624452 
L 182.57761 422.624293 
L 188.498042 422.623012 
L 194.418473 422.620447 
L 200.338905 422.621366 
L 206.259337 422.621469 
L 212.179768 422.620869 
L 218.1002 422.618369 
L 224.020631 422.619384 
L 229.941063 422.619532 
L 235.861494 422.620597 
L 241.781926 422.61953 
L 247.702358 422.618464 
L 253.622789 422.620343 
L 259.543221 422.618384 
L 265.463652 422.617044 
L 271.384084 422.619083 
L 277.304516 422.618091 
L 283.224947 422.618252 
L 289.145379 422.619443 
L 295.06581 422.618628 
L 300.986242 422.619005 
L 306.906674 422.6192 
L 312.827105 422.621557 
L 318.747537 422.619248 
L 324.667968 422.619063 
L 330.5884 422.618664 
L 336.508831 422.618476 
L 342.429263 422.617923 
L 348.349695 422.617678 
L 354.270126 422.615887 
L 360.190558 422.614878 
L 366.110989 422.614382 
L 372.031421 422.61374 
L 377.951853 422.612106 
L 383.872284 422.608218 
L 389.792716 422.607509 
L 395.713147 422.604599 
L 401.633579 422.603079 
L 407.554011 422.600808 
L 413.474442 422.59897 
L 419.394874 422.596198 
L 425.315305 422.596095 
L 431.235737 422.594598 
L 437.156169 422.590717 
L 443.0766 422.587772 
L 448.997032 422.583448 
L 454.917463 422.580497 
L 460.837895 422.578102 
L 466.758326 422.574022 
L 472.678758 422.567258 
L 478.59919 422.563225 
L 484.519621 422.556343 
L 490.440053 422.549927 
L 496.360484 422.542184 
L 502.280916 422.53251 
L 508.201348 422.524212 
L 514.121779 422.514361 
L 520.042211 422.502024 
L 525.962642 422.486954 
L 531.883074 422.473773 
L 537.803506 422.457598 
L 543.723937 422.440095 
L 549.644369 422.420526 
L 555.5648 422.401137 
L 561.485232 422.379152 
L 567.405663 422.353323 
L 573.326095 422.328027 
L 579.246527 422.297675 
L 585.166958 422.265077 
L 591.08739 422.22871 
L 597.007821 422.190075 
L 602.928253 422.144748 
L 608.848685 422.094467 
L 614.769116 422.040979 
L 620.689548 421.980425 
L 626.609979 421.916788 
L 632.530411 421.847806 
L 638.450843 421.769344 
L 644.371274 421.683258 
L 650.291706 421.591038 
L 656.212137 421.487871 
L 662.132569 421.37676 
L 668.053 421.251679 
L 673.973432 421.115818 
L 679.893864 420.96229 
" clip-path="url(#pf02dd3b155)" style="fill: none; stroke: #d62728; stroke-width: 1.5; stroke-linecap: square"/>
   </g>
   <g id="line2d_44">
    <path d="M 93.771136 422.618248 
L 99.691568 422.616183 
L 105.612 422.614355 
L 111.532431 422.611337 
L 117.452863 422.610284 
L 123.373294 422.610214 
L 129.293726 422.608967 
L 135.214157 422.607045 
L 141.134589 422.605167 
L 147.055021 422.604835 
L 152.975452 422.602333 
L 158.895884 422.601608 
L 164.816315 422.600574 
L 170.736747 422.597448 
L 176.657179 422.594317 
L 182.57761 422.591709 
L 188.498042 422.58972 
L 194.418473 422.588207 
L 200.338905 422.586062 
L 206.259337 422.582315 
L 212.179768 422.577682 
L 218.1002 422.572748 
L 224.020631 422.569068 
L 229.941063 422.564911 
L 235.861494 422.560242 
L 241.781926 422.553419 
L 247.702358 422.544985 
L 253.622789 422.536182 
L 259.543221 422.530243 
L 265.463652 422.521033 
L 271.384084 422.50831 
L 277.304516 422.499549 
L 283.224947 422.487321 
L 289.145379 422.473524 
L 295.06581 422.458827 
L 300.986242 422.446288 
L 306.906674 422.429748 
L 312.827105 422.411246 
L 318.747537 422.38974 
L 324.667968 422.367466 
L 330.5884 422.340886 
L 336.508831 422.311878 
L 342.429263 422.281964 
L 348.349695 422.247007 
L 354.270126 422.209316 
L 360.190558 422.168432 
L 366.110989 422.121332 
L 372.031421 422.070232 
L 377.951853 422.011068 
L 383.872284 421.947736 
L 389.792716 421.87993 
L 395.713147 421.80805 
L 401.633579 421.724513 
L 407.554011 421.636861 
L 413.474442 421.537125 
L 419.394874 421.42764 
L 425.315305 421.305294 
L 431.235737 421.175199 
L 437.156169 421.030069 
L 443.0766 420.871587 
L 448.997032 420.696389 
L 454.917463 420.507767 
L 460.837895 420.296192 
L 466.758326 420.06461 
L 472.678758 419.808088 
L 478.59919 419.524846 
L 484.519621 419.218504 
L 490.440053 418.881276 
L 496.360484 418.505661 
L 502.280916 418.093921 
L 508.201348 417.642791 
L 514.121779 417.141637 
L 520.042211 416.597639 
L 525.962642 415.997867 
L 531.883074 415.334418 
L 537.803506 414.606198 
L 543.723937 413.801198 
L 549.644369 412.919451 
L 555.5648 411.950096 
L 561.485232 410.881105 
L 567.405663 409.706412 
L 573.326095 408.414711 
L 579.246527 406.989721 
L 585.166958 405.428585 
L 591.08739 403.713742 
L 597.007821 401.823065 
L 602.928253 399.743185 
L 608.848685 397.454651 
L 614.769116 394.93795 
L 620.689548 392.168829 
L 626.609979 389.123191 
L 632.530411 385.772856 
L 638.450843 382.087016 
L 644.371274 378.033758 
L 650.291706 373.575052 
L 656.212137 368.671531 
L 662.132569 363.278263 
L 668.053 357.343153 
L 673.973432 350.8181 
L 679.893864 343.638459 
" clip-path="url(#pf02dd3b155)" style="fill: none; stroke: #9467bd; stroke-width: 1.5; stroke-linecap: square"/>
   </g>
   <g id="line2d_45">
    <path d="M 93.771136 422.621039 
L 99.691568 422.622529 
L 105.612 422.624884 
L 111.532431 422.62889 
L 117.452863 422.631586 
L 123.373294 422.631748 
L 129.293726 422.633749 
L 135.214157 422.635792 
L 141.134589 422.637492 
L 147.055021 422.637442 
L 152.975452 422.641444 
L 158.895884 422.644637 
L 164.816315 422.647262 
L 170.736747 422.649629 
L 176.657179 422.65065 
L 182.57761 422.651967 
L 188.498042 422.653495 
L 194.418473 422.656192 
L 200.338905 422.660575 
L 206.259337 422.664856 
L 212.179768 422.667932 
L 218.1002 422.674171 
L 224.020631 422.682049 
L 229.941063 422.689149 
L 235.861494 422.694985 
L 241.781926 422.703447 
L 247.702358 422.711814 
L 253.622789 422.72162 
L 259.543221 422.734475 
L 265.463652 422.746228 
L 271.384084 422.757677 
L 277.304516 422.768251 
L 283.224947 422.783663 
L 289.145379 422.802791 
L 295.06581 422.821701 
L 300.986242 422.843146 
L 306.906674 422.864261 
L 312.827105 422.891683 
L 318.747537 422.920382 
L 324.667968 422.951794 
L 330.5884 422.985301 
L 336.508831 423.020639 
L 342.429263 423.060324 
L 348.349695 423.104075 
L 354.270126 423.150314 
L 360.190558 423.203307 
L 366.110989 423.262781 
L 372.031421 423.330125 
L 377.951853 423.399767 
L 383.872284 423.475903 
L 389.792716 423.562139 
L 395.713147 423.656427 
L 401.633579 423.760531 
L 407.554011 423.873707 
L 413.474442 423.998109 
L 419.394874 424.135216 
L 425.315305 424.289532 
L 431.235737 424.454483 
L 437.156169 424.637715 
L 443.0766 424.842484 
L 448.997032 425.063464 
L 454.917463 425.308062 
L 460.837895 425.577398 
L 466.758326 425.869975 
L 472.678758 426.192462 
L 478.59919 426.549631 
L 484.519621 426.945693 
L 490.440053 427.37954 
L 496.360484 427.85779 
L 502.280916 428.381255 
L 508.201348 428.959996 
L 514.121779 429.591743 
L 520.042211 430.289289 
L 525.962642 431.057491 
L 531.883074 431.902394 
L 537.803506 432.830402 
L 543.723937 433.848893 
L 549.644369 434.975743 
L 555.5648 436.210682 
L 561.485232 437.566716 
L 567.405663 439.062547 
L 573.326095 440.704792 
L 579.246527 442.512509 
L 585.166958 444.501264 
L 591.08739 446.689431 
L 597.007821 449.096309 
L 602.928253 451.744356 
L 608.848685 454.658215 
L 614.769116 457.860618 
L 620.689548 461.381527 
L 626.609979 465.257779 
L 632.530411 469.522233 
L 638.450843 474.214402 
L 644.371274 479.374416 
L 650.291706 485.049912 
L 656.212137 491.293937 
L 662.132569 498.162692 
L 668.053 505.716485 
L 673.973432 514.028128 
L 679.893864 523.171364 
" clip-path="url(#pf02dd3b155)" style="fill: none; stroke: #8c564b; stroke-width: 1.5; stroke-linecap: square"/>
   </g>
   <g id="line2d_46">
    <path d="M 93.771136 422.61986 
L 99.691568 422.620426 
L 105.612 422.620791 
L 111.532431 422.621508 
L 117.452863 422.622253 
L 123.373294 422.622819 
L 129.293726 422.623489 
L 135.214157 422.62335 
L 141.134589 422.623249 
L 147.055021 422.623913 
L 152.975452 422.625085 
L 158.895884 422.62744 
L 164.816315 422.630001 
L 170.736747 422.63156 
L 176.657179 422.635859 
L 182.57761 422.636738 
L 188.498042 422.639246 
L 194.418473 422.639715 
L 200.338905 422.641212 
L 206.259337 422.644088 
L 212.179768 422.644266 
L 218.1002 422.646602 
L 224.020631 422.647337 
L 229.941063 422.647364 
L 235.861494 422.650268 
L 241.781926 422.655312 
L 247.702358 422.659816 
L 253.622789 422.663155 
L 259.543221 422.66638 
L 265.463652 422.671868 
L 271.384084 422.675548 
L 277.304516 422.6809 
L 283.224947 422.686279 
L 289.145379 422.694121 
L 295.06581 422.702055 
L 300.986242 422.711885 
L 306.906674 422.719712 
L 312.827105 422.728048 
L 318.747537 422.739262 
L 324.667968 422.752115 
L 330.5884 422.763808 
L 336.508831 422.778529 
L 342.429263 422.793813 
L 348.349695 422.812919 
L 354.270126 422.832033 
L 360.190558 422.853842 
L 366.110989 422.875786 
L 372.031421 422.898436 
L 377.951853 422.923563 
L 383.872284 422.954769 
L 389.792716 422.988702 
L 395.713147 423.025925 
L 401.633579 423.066193 
L 407.554011 423.112206 
L 413.474442 423.161538 
L 419.394874 423.217194 
L 425.315305 423.277814 
L 431.235737 423.343923 
L 437.156169 423.415495 
L 443.0766 423.493227 
L 448.997032 423.580782 
L 454.917463 423.675145 
L 460.837895 423.781929 
L 466.758326 423.899694 
L 472.678758 424.027461 
L 478.59919 424.166343 
L 484.519621 424.318725 
L 490.440053 424.487595 
L 496.360484 424.67705 
L 502.280916 424.880645 
L 508.201348 425.104503 
L 514.121779 425.354302 
L 520.042211 425.627052 
L 525.962642 425.92608 
L 531.883074 426.255994 
L 537.803506 426.619696 
L 543.723937 427.020419 
L 549.644369 427.459127 
L 555.5648 427.941394 
L 561.485232 428.472266 
L 567.405663 429.059493 
L 573.326095 429.700839 
L 579.246527 430.411064 
L 585.166958 431.190125 
L 591.08739 432.047481 
L 597.007821 432.992204 
L 602.928253 434.024372 
L 608.848685 435.164332 
L 614.769116 436.417473 
L 620.689548 437.793693 
L 626.609979 439.310163 
L 632.530411 440.980012 
L 638.450843 442.812203 
L 644.371274 444.833473 
L 650.291706 447.055235 
L 656.212137 449.49937 
L 662.132569 452.187955 
L 668.053 455.145642 
L 673.973432 458.40016 
L 679.893864 461.97948 
" clip-path="url(#pf02dd3b155)" style="fill: none; stroke: #e377c2; stroke-width: 1.5; stroke-linecap: square"/>
   </g>
   <g id="line2d_47">
    <path d="M 93.771136 422.619565 
L 99.691568 422.620329 
L 105.612 422.621417 
L 111.532431 422.623052 
L 117.452863 422.624093 
L 123.373294 422.62305 
L 129.293726 422.623013 
L 135.214157 422.626768 
L 141.134589 422.628986 
L 147.055021 422.630013 
L 152.975452 422.630498 
L 158.895884 422.63238 
L 164.816315 422.631709 
L 170.736747 422.63254 
L 176.657179 422.633592 
L 182.57761 422.635495 
L 188.498042 422.63557 
L 194.418473 422.638099 
L 200.338905 422.639831 
L 206.259337 422.643 
L 212.179768 422.644334 
L 218.1002 422.64601 
L 224.020631 422.646455 
L 229.941063 422.649379 
L 235.861494 422.650313 
L 241.781926 422.655428 
L 247.702358 422.658218 
L 253.622789 422.658599 
L 259.543221 422.663729 
L 265.463652 422.668724 
L 271.384084 422.671636 
L 277.304516 422.674164 
L 283.224947 422.678503 
L 289.145379 422.68497 
L 295.06581 422.691806 
L 300.986242 422.699687 
L 306.906674 422.707517 
L 312.827105 422.716834 
L 318.747537 422.726526 
L 324.667968 422.738131 
L 330.5884 422.750316 
L 336.508831 422.763666 
L 342.429263 422.775766 
L 348.349695 422.794714 
L 354.270126 422.809783 
L 360.190558 422.828351 
L 366.110989 422.850854 
L 372.031421 422.873975 
L 377.951853 422.901543 
L 383.872284 422.932945 
L 389.792716 422.968157 
L 395.713147 423.001321 
L 401.633579 423.036196 
L 407.554011 423.077996 
L 413.474442 423.125813 
L 419.394874 423.173902 
L 425.315305 423.232606 
L 431.235737 423.295562 
L 437.156169 423.361632 
L 443.0766 423.437685 
L 448.997032 423.519631 
L 454.917463 423.608286 
L 460.837895 423.708083 
L 466.758326 423.816523 
L 472.678758 423.937248 
L 478.59919 424.066701 
L 484.519621 424.207698 
L 490.440053 424.366472 
L 496.360484 424.54117 
L 502.280916 424.732516 
L 508.201348 424.943345 
L 514.121779 425.177996 
L 520.042211 425.436262 
L 525.962642 425.718573 
L 531.883074 426.027616 
L 537.803506 426.371136 
L 543.723937 426.748848 
L 549.644369 427.160572 
L 555.5648 427.615288 
L 561.485232 428.115523 
L 567.405663 428.665653 
L 573.326095 429.270333 
L 579.246527 429.937136 
L 585.166958 430.668356 
L 591.08739 431.472525 
L 597.007821 432.356642 
L 602.928253 433.329779 
L 608.848685 434.400823 
L 614.769116 435.578313 
L 620.689548 436.875118 
L 626.609979 438.30225 
L 632.530411 439.871881 
L 638.450843 441.597414 
L 644.371274 443.494743 
L 650.291706 445.582273 
L 656.212137 447.879528 
L 662.132569 450.405109 
L 668.053 453.182427 
L 673.973432 456.238272 
L 679.893864 459.599783 
" clip-path="url(#pf02dd3b155)" style="fill: none; stroke: #7f7f7f; stroke-width: 1.5; stroke-linecap: square"/>
   </g>
   <g id="line2d_48">
    <path d="M 93.771136 422.621329 
L 99.691568 422.619605 
L 105.612 422.617287 
L 111.532431 422.61555 
L 117.452863 422.616105 
L 123.373294 422.616454 
L 129.293726 422.61569 
L 135.214157 422.61427 
L 141.134589 422.614809 
L 147.055021 422.612019 
L 152.975452 422.611133 
L 158.895884 422.610247 
L 164.816315 422.610088 
L 170.736747 422.61196 
L 176.657179 422.612532 
L 182.57761 422.612898 
L 188.498042 422.611546 
L 194.418473 422.610449 
L 200.338905 422.608861 
L 206.259337 422.608359 
L 212.179768 422.605608 
L 218.1002 422.605713 
L 224.020631 422.604972 
L 229.941063 422.601059 
L 235.861494 422.598677 
L 241.781926 422.594451 
L 247.702358 422.595633 
L 253.622789 422.592005 
L 259.543221 422.587254 
L 265.463652 422.58581 
L 271.384084 422.583312 
L 277.304516 422.578535 
L 283.224947 422.574596 
L 289.145379 422.569448 
L 295.06581 422.559183 
L 300.986242 422.553667 
L 306.906674 422.545152 
L 312.827105 422.539507 
L 318.747537 422.530085 
L 324.667968 422.522973 
L 330.5884 422.512921 
L 336.508831 422.501418 
L 342.429263 422.48852 
L 348.349695 422.47663 
L 354.270126 422.459274 
L 360.190558 422.441782 
L 366.110989 422.41974 
L 372.031421 422.402024 
L 377.951853 422.380459 
L 383.872284 422.35588 
L 389.792716 422.329622 
L 395.713147 422.302817 
L 401.633579 422.272307 
L 407.554011 422.236827 
L 413.474442 422.197445 
L 419.394874 422.154659 
L 425.315305 422.109819 
L 431.235737 422.058327 
L 437.156169 422.002229 
L 443.0766 421.938055 
L 448.997032 421.868734 
L 454.917463 421.791249 
L 460.837895 421.704714 
L 466.758326 421.614044 
L 472.678758 421.511484 
L 478.59919 421.399019 
L 484.519621 421.279007 
L 490.440053 421.14713 
L 496.360484 421.002637 
L 502.280916 420.840569 
L 508.201348 420.664144 
L 514.121779 420.466915 
L 520.042211 420.250927 
L 525.962642 420.011757 
L 531.883074 419.753245 
L 537.803506 419.470695 
L 543.723937 419.157134 
L 549.644369 418.81047 
L 555.5648 418.429864 
L 561.485232 418.011093 
L 567.405663 417.550882 
L 573.326095 417.046576 
L 579.246527 416.488628 
L 585.166958 415.874947 
L 591.08739 415.200309 
L 597.007821 414.457194 
L 602.928253 413.641736 
L 608.848685 412.741304 
L 614.769116 411.750304 
L 620.689548 410.663384 
L 626.609979 409.465968 
L 632.530411 408.15022 
L 638.450843 406.702621 
L 644.371274 405.109874 
L 650.291706 403.361207 
L 656.212137 401.435934 
L 662.132569 399.316146 
L 668.053 396.981373 
L 673.973432 394.416657 
L 679.893864 391.595516 
" clip-path="url(#pf02dd3b155)" style="fill: none; stroke: #bcbd22; stroke-width: 1.5; stroke-linecap: square"/>
   </g>
   <g id="line2d_49">
    <path d="M 93.771136 422.62576 
L 99.691568 422.624254 
L 105.612 422.622233 
L 111.532431 422.621526 
L 117.452863 422.622599 
L 123.373294 422.620504 
L 129.293726 422.620472 
L 135.214157 422.622827 
L 141.134589 422.623096 
L 147.055021 422.622433 
L 152.975452 422.623454 
L 158.895884 422.6264 
L 164.816315 422.626384 
L 170.736747 422.628286 
L 176.657179 422.627374 
L 182.57761 422.626289 
L 188.498042 422.627462 
L 194.418473 422.627984 
L 200.338905 422.632832 
L 206.259337 422.634679 
L 212.179768 422.636706 
L 218.1002 422.637837 
L 224.020631 422.640745 
L 229.941063 422.63914 
L 235.861494 422.642493 
L 241.781926 422.643499 
L 247.702358 422.647295 
L 253.622789 422.650024 
L 259.543221 422.652301 
L 265.463652 422.655052 
L 271.384084 422.658253 
L 277.304516 422.65902 
L 283.224947 422.661956 
L 289.145379 422.665669 
L 295.06581 422.671733 
L 300.986242 422.676624 
L 306.906674 422.683826 
L 312.827105 422.689676 
L 318.747537 422.695018 
L 324.667968 422.704827 
L 330.5884 422.712975 
L 336.508831 422.723573 
L 342.429263 422.732903 
L 348.349695 422.743928 
L 354.270126 422.757552 
L 360.190558 422.768583 
L 366.110989 422.782349 
L 372.031421 422.797758 
L 377.951853 422.815313 
L 383.872284 422.833281 
L 389.792716 422.854484 
L 395.713147 422.877439 
L 401.633579 422.901724 
L 407.554011 422.928472 
L 413.474442 422.960653 
L 419.394874 422.994158 
L 425.315305 423.03108 
L 431.235737 423.069674 
L 437.156169 423.114912 
L 443.0766 423.166148 
L 448.997032 423.218404 
L 454.917463 423.278913 
L 460.837895 423.342714 
L 466.758326 423.415737 
L 472.678758 423.493428 
L 478.59919 423.580411 
L 484.519621 423.673707 
L 490.440053 423.77793 
L 496.360484 423.891613 
L 502.280916 424.018337 
L 508.201348 424.159433 
L 514.121779 424.313235 
L 520.042211 424.483466 
L 525.962642 424.669496 
L 531.883074 424.872478 
L 537.803506 425.096097 
L 543.723937 425.343371 
L 549.644369 425.615996 
L 555.5648 425.917669 
L 561.485232 426.246121 
L 567.405663 426.609788 
L 573.326095 427.009941 
L 579.246527 427.451234 
L 585.166958 427.934111 
L 591.08739 428.465573 
L 597.007821 429.046 
L 602.928253 429.690593 
L 608.848685 430.397876 
L 614.769116 431.176464 
L 620.689548 432.031674 
L 626.609979 432.973512 
L 632.530411 434.01126 
L 638.450843 435.151852 
L 644.371274 436.405049 
L 650.291706 437.783566 
L 656.212137 439.300789 
L 662.132569 440.967098 
L 668.053 442.803091 
L 673.973432 444.821464 
L 679.893864 447.042342 
" clip-path="url(#pf02dd3b155)" style="fill: none; stroke: #17becf; stroke-width: 1.5; stroke-linecap: square"/>
   </g>
   <g id="patch_9">
    <path d="M 64.465 534.04 
L 64.465 294.93 
" style="fill: none; stroke: #000000; stroke-width: 0.8; stroke-linejoin: miter; stroke-linecap: square"/>
   </g>
   <g id="patch_10">
    <path d="M 709.2 534.04 
L 709.2 294.93 
" style="fill: none; stroke: #000000; stroke-width: 0.8; stroke-linejoin: miter; stroke-linecap: square"/>
   </g>
   <g id="patch_11">
    <path d="M 64.465 534.04 
L 709.2 534.04 
" style="fill: none; stroke: #000000; stroke-width: 0.8; stroke-linejoin: miter; stroke-linecap: square"/>
   </g>
   <g id="patch_12">
    <path d="M 64.465 294.93 
L 709.2 294.93 
" style="fill: none; stroke: #000000; stroke-width: 0.8; stroke-linejoin: miter; stroke-linecap: square"/>
   </g>
   <g id="text_25">
    <!-- 20 Realizations of AR(1) Process with ϕ=1.1 -->
    <g transform="translate(255.14 288.93) scale(0.12 -0.12)">
     <use xlink:href="#DejaVuSans-32"/>
     <use xlink:href="#DejaVuSans-30" x="63.623047"/>
     <use xlink:href="#DejaVuSans-20" x="127.246094"/>
     <use xlink:href="#DejaVuSans-52" x="159.033203"/>
     <use xlink:href="#DejaVuSans-65" x="224.015625"/>
     <use xlink:href="#DejaVuSans-61" x="285.539062"/>
     <use xlink:href="#DejaVuSans-6c" x="346.818359"/>
     <use xlink:href="#DejaVuSans-69" x="374.601562"/>
     <use xlink:href="#DejaVuSans-7a" x="402.384766"/>
     <use xlink:href="#DejaVuSans-61" x="454.875"/>
     <use xlink:href="#DejaVuSans-74" x="516.154297"/>
     <use xlink:href="#DejaVuSans-69" x="555.363281"/>
     <use xlink:href="#DejaVuSans-6f" x="583.146484"/>
     <use xlink:href="#DejaVuSans-6e" x="644.328125"/>
     <use xlink:href="#DejaVuSans-73" x="707.707031"/>
     <use xlink:href="#DejaVuSans-20" x="759.806641"/>
     <use xlink:href="#DejaVuSans-6f" x="791.59375"/>
     <use xlink:href="#DejaVuSans-66" x="852.775391"/>
     <use xlink:href="#DejaVuSans-20" x="887.980469"/>
     <use xlink:href="#DejaVuSans-41" x="919.767578"/>
     <use xlink:href="#DejaVuSans-52" x="988.175781"/>
     <use xlink:href="#DejaVuSans-28" x="1057.658203"/>
     <use xlink:href="#DejaVuSans-31" x="1096.671875"/>
     <use xlink:href="#DejaVuSans-29" x="1160.294922"/>
     <use xlink:href="#DejaVuSans-20" x="1199.308594"/>
     <use xlink:href="#DejaVuSans-50" x="1231.095703"/>
     <use xlink:href="#DejaVuSans-72" x="1289.648438"/>
     <use xlink:href="#DejaVuSans-6f" x="1328.511719"/>
     <use xlink:href="#DejaVuSans-63" x="1389.693359"/>
     <use xlink:href="#DejaVuSans-65" x="1444.673828"/>
     <use xlink:href="#DejaVuSans-73" x="1506.197266"/>
     <use xlink:href="#DejaVuSans-73" x="1558.296875"/>
     <use xlink:href="#DejaVuSans-20" x="1610.396484"/>
     <use xlink:href="#DejaVuSans-77" x="1642.183594"/>
     <use xlink:href="#DejaVuSans-69" x="1723.970703"/>
     <use xlink:href="#DejaVuSans-74" x="1751.753906"/>
     <use xlink:href="#DejaVuSans-68" x="1790.962891"/>
     <use xlink:href="#DejaVuSans-20" x="1854.341797"/>
     <use xlink:href="#DejaVuSans-3d5" x="1886.128906"/>
     <use xlink:href="#DejaVuSans-3d" x="1952.095703"/>
     <use xlink:href="#DejaVuSans-31" x="2035.884766"/>
     <use xlink:href="#DejaVuSans-2e" x="2099.507812"/>
     <use xlink:href="#DejaVuSans-31" x="2131.294922"/>
    </g>
   </g>
  </g>
 </g>
 <defs>
  <clipPath id="pd9cfee7caa">
   <rect x="64.465" y="26.16" width="644.735" height="239.11"/>
  </clipPath>
  <clipPath id="pf02dd3b155">
   <rect x="64.465" y="294.93" width="644.735" height="239.11"/>
  </clipPath>
 </defs>
</svg>
