<?xml version="1.0" encoding="utf-8" standalone="no"?>
<!DOCTYPE svg PUBLIC "-//W3C//DTD SVG 1.1//EN"
  "http://www.w3.org/Graphics/SVG/1.1/DTD/svg11.dtd">
<svg xmlns:xlink="http://www.w3.org/1999/xlink" width="720pt" height="432pt" viewBox="0 0 720 432" xmlns="http://www.w3.org/2000/svg" version="1.1">
 <metadata>
  <rdf:RDF xmlns:dc="http://purl.org/dc/elements/1.1/" xmlns:cc="http://creativecommons.org/ns#" xmlns:rdf="http://www.w3.org/1999/02/22-rdf-syntax-ns#">
   <cc:Work>
    <dc:type rdf:resource="http://purl.org/dc/dcmitype/StillImage"/>
    <dc:date>2024-02-20T02:13:54.864969</dc:date>
    <dc:format>image/svg+xml</dc:format>
    <dc:creator>
     <cc:Agent>
      <dc:title>Matplotlib v3.8.2, https://matplotlib.org/</dc:title>
     </cc:Agent>
    </dc:creator>
   </cc:Work>
  </rdf:RDF>
 </metadata>
 <defs>
  <style type="text/css">*{stroke-linejoin: round; stroke-linecap: butt}</style>
 </defs>
 <g id="figure_1">
  <g id="patch_1">
   <path d="M 0 432 
L 720 432 
L 720 0 
L 0 0 
z
" style="fill: #ffffff"/>
  </g>
  <g id="axes_1">
   <g id="patch_2">
    <path d="M 90 203.04 
L 648 203.04 
L 648 51.84 
L 90 51.84 
z
" style="fill: #ffffff"/>
   </g>
   <g id="matplotlib.axis_1">
    <g id="xtick_1">
     <g id="line2d_1">
      <defs>
       <path id="m6625eb9e3e" d="M 0 0 
L 0 3.5 
" style="stroke: #000000; stroke-width: 0.8"/>
      </defs>
      <g>
       <use xlink:href="#m6625eb9e3e" x="115.363636" y="203.04" style="stroke: #000000; stroke-width: 0.8"/>
      </g>
     </g>
    </g>
    <g id="xtick_2">
     <g id="line2d_2">
      <g>
       <use xlink:href="#m6625eb9e3e" x="217.842975" y="203.04" style="stroke: #000000; stroke-width: 0.8"/>
      </g>
     </g>
    </g>
    <g id="xtick_3">
     <g id="line2d_3">
      <g>
       <use xlink:href="#m6625eb9e3e" x="320.322314" y="203.04" style="stroke: #000000; stroke-width: 0.8"/>
      </g>
     </g>
    </g>
    <g id="xtick_4">
     <g id="line2d_4">
      <g>
       <use xlink:href="#m6625eb9e3e" x="422.801653" y="203.04" style="stroke: #000000; stroke-width: 0.8"/>
      </g>
     </g>
    </g>
    <g id="xtick_5">
     <g id="line2d_5">
      <g>
       <use xlink:href="#m6625eb9e3e" x="525.280992" y="203.04" style="stroke: #000000; stroke-width: 0.8"/>
      </g>
     </g>
    </g>
    <g id="xtick_6">
     <g id="line2d_6">
      <g>
       <use xlink:href="#m6625eb9e3e" x="627.760331" y="203.04" style="stroke: #000000; stroke-width: 0.8"/>
      </g>
     </g>
    </g>
   </g>
   <g id="matplotlib.axis_2">
    <g id="ytick_1">
     <g id="line2d_7">
      <defs>
       <path id="mb7d505e948" d="M 0 0 
L -3.5 0 
" style="stroke: #000000; stroke-width: 0.8"/>
      </defs>
      <g>
       <use xlink:href="#mb7d505e948" x="90" y="196.035324" style="stroke: #000000; stroke-width: 0.8"/>
      </g>
     </g>
     <g id="text_1">
      <!-- −400 -->
      <g transform="translate(55.532812 199.834542) scale(0.1 -0.1)">
       <defs>
        <path id="DejaVuSans-2212" d="M 678 2272 
L 4684 2272 
L 4684 1741 
L 678 1741 
L 678 2272 
z
" transform="scale(0.015625)"/>
        <path id="DejaVuSans-34" d="M 2419 4116 
L 825 1625 
L 2419 1625 
L 2419 4116 
z
M 2253 4666 
L 3047 4666 
L 3047 1625 
L 3713 1625 
L 3713 1100 
L 3047 1100 
L 3047 0 
L 2419 0 
L 2419 1100 
L 313 1100 
L 313 1709 
L 2253 4666 
z
" transform="scale(0.015625)"/>
        <path id="DejaVuSans-30" d="M 2034 4250 
Q 1547 4250 1301 3770 
Q 1056 3291 1056 2328 
Q 1056 1369 1301 889 
Q 1547 409 2034 409 
Q 2525 409 2770 889 
Q 3016 1369 3016 2328 
Q 3016 3291 2770 3770 
Q 2525 4250 2034 4250 
z
M 2034 4750 
Q 2819 4750 3233 4129 
Q 3647 3509 3647 2328 
Q 3647 1150 3233 529 
Q 2819 -91 2034 -91 
Q 1250 -91 836 529 
Q 422 1150 422 2328 
Q 422 3509 836 4129 
Q 1250 4750 2034 4750 
z
" transform="scale(0.015625)"/>
       </defs>
       <use xlink:href="#DejaVuSans-2212"/>
       <use xlink:href="#DejaVuSans-34" x="83.789062"/>
       <use xlink:href="#DejaVuSans-30" x="147.412109"/>
       <use xlink:href="#DejaVuSans-30" x="211.035156"/>
      </g>
     </g>
    </g>
    <g id="ytick_2">
     <g id="line2d_8">
      <g>
       <use xlink:href="#mb7d505e948" x="90" y="165.791843" style="stroke: #000000; stroke-width: 0.8"/>
      </g>
     </g>
     <g id="text_2">
      <!-- −200 -->
      <g transform="translate(55.532812 169.591061) scale(0.1 -0.1)">
       <defs>
        <path id="DejaVuSans-32" d="M 1228 531 
L 3431 531 
L 3431 0 
L 469 0 
L 469 531 
Q 828 903 1448 1529 
Q 2069 2156 2228 2338 
Q 2531 2678 2651 2914 
Q 2772 3150 2772 3378 
Q 2772 3750 2511 3984 
Q 2250 4219 1831 4219 
Q 1534 4219 1204 4116 
Q 875 4013 500 3803 
L 500 4441 
Q 881 4594 1212 4672 
Q 1544 4750 1819 4750 
Q 2544 4750 2975 4387 
Q 3406 4025 3406 3419 
Q 3406 3131 3298 2873 
Q 3191 2616 2906 2266 
Q 2828 2175 2409 1742 
Q 1991 1309 1228 531 
z
" transform="scale(0.015625)"/>
       </defs>
       <use xlink:href="#DejaVuSans-2212"/>
       <use xlink:href="#DejaVuSans-32" x="83.789062"/>
       <use xlink:href="#DejaVuSans-30" x="147.412109"/>
       <use xlink:href="#DejaVuSans-30" x="211.035156"/>
      </g>
     </g>
    </g>
    <g id="ytick_3">
     <g id="line2d_9">
      <g>
       <use xlink:href="#mb7d505e948" x="90" y="135.548361" style="stroke: #000000; stroke-width: 0.8"/>
      </g>
     </g>
     <g id="text_3">
      <!-- 0 -->
      <g transform="translate(76.6375 139.34758) scale(0.1 -0.1)">
       <use xlink:href="#DejaVuSans-30"/>
      </g>
     </g>
    </g>
    <g id="ytick_4">
     <g id="line2d_10">
      <g>
       <use xlink:href="#mb7d505e948" x="90" y="105.30488" style="stroke: #000000; stroke-width: 0.8"/>
      </g>
     </g>
     <g id="text_4">
      <!-- 200 -->
      <g transform="translate(63.9125 109.104099) scale(0.1 -0.1)">
       <use xlink:href="#DejaVuSans-32"/>
       <use xlink:href="#DejaVuSans-30" x="63.623047"/>
       <use xlink:href="#DejaVuSans-30" x="127.246094"/>
      </g>
     </g>
    </g>
    <g id="ytick_5">
     <g id="line2d_11">
      <g>
       <use xlink:href="#mb7d505e948" x="90" y="75.061399" style="stroke: #000000; stroke-width: 0.8"/>
      </g>
     </g>
     <g id="text_5">
      <!-- 400 -->
      <g transform="translate(63.9125 78.860618) scale(0.1 -0.1)">
       <use xlink:href="#DejaVuSans-34"/>
       <use xlink:href="#DejaVuSans-30" x="63.623047"/>
       <use xlink:href="#DejaVuSans-30" x="127.246094"/>
      </g>
     </g>
    </g>
   </g>
   <g id="line2d_12">
    <path d="M 115.363636 134.462929 
L 120.487603 132.967954 
L 125.61157 132.17727 
L 130.735537 130.54626 
L 135.859504 131.056154 
L 140.983471 132.491364 
L 146.107438 131.705718 
L 151.231405 128.439539 
L 156.355372 130.205152 
L 161.479339 128.238022 
L 166.603306 131.189415 
L 171.727273 129.248717 
L 176.85124 128.475938 
L 181.975207 126.262436 
L 187.099174 126.113026 
L 192.22314 124.941028 
L 197.347107 125.25121 
L 202.471074 127.613953 
L 207.595041 127.286516 
L 212.719008 126.657624 
L 217.842975 126.712034 
L 222.966942 125.961339 
L 228.090909 125.911825 
L 233.214876 126.19155 
L 238.338843 124.081468 
L 243.46281 124.690882 
L 248.586777 122.977371 
L 253.710744 123.802016 
L 258.834711 123.326942 
L 263.958678 123.57109 
L 269.082645 123.204846 
L 274.206612 125.226432 
L 279.330579 126.046409 
L 284.454545 125.957896 
L 289.578512 124.647813 
L 294.702479 124.52743 
L 299.826446 124.512149 
L 304.950413 121.783639 
L 310.07438 121.612389 
L 315.198347 120.283907 
L 320.322314 118.675219 
L 325.446281 117.578411 
L 330.570248 117.155664 
L 335.694215 116.376399 
L 340.818182 115.890553 
L 345.942149 112.492566 
L 351.066116 112.251733 
L 356.190083 111.413739 
L 361.31405 111.494409 
L 366.438017 111.535067 
L 371.561983 109.345484 
L 376.68595 107.416429 
L 381.809917 105.603446 
L 386.933884 103.354181 
L 392.057851 102.601122 
L 397.181818 102.902508 
L 402.305785 103.446052 
L 407.429752 102.093863 
L 412.553719 103.3434 
L 417.677686 100.862034 
L 422.801653 102.690156 
L 427.92562 101.299035 
L 433.049587 99.402056 
L 438.173554 97.168271 
L 443.297521 94.567837 
L 448.421488 92.698795 
L 453.545455 91.825566 
L 458.669421 89.636971 
L 463.793388 88.756449 
L 468.917355 84.146977 
L 474.041322 81.588732 
L 479.165289 78.748059 
L 484.289256 79.604212 
L 489.413223 78.602194 
L 494.53719 80.614499 
L 499.661157 78.584424 
L 504.785124 76.996649 
L 509.909091 76.198473 
L 515.033058 74.561977 
L 520.157025 72.479304 
L 525.280992 71.781921 
L 530.404959 71.034994 
L 535.528926 70.372719 
L 540.652893 69.88547 
L 545.77686 68.298128 
L 550.900826 69.396703 
L 556.024793 71.131717 
L 561.14876 69.688938 
L 566.272727 69.924672 
L 571.396694 69.088889 
L 576.520661 68.572255 
L 581.644628 66.901995 
L 586.768595 64.944987 
L 591.892562 65.837231 
L 597.016529 66.046087 
L 602.140496 64.440461 
L 607.264463 64.153968 
L 612.38843 60.091181 
L 617.512397 58.712727 
L 622.636364 59.263499 
" clip-path="url(#p58381e4baf)" style="fill: none; stroke: #1f77b4; stroke-width: 1.5; stroke-linecap: square"/>
   </g>
   <g id="patch_3">
    <path d="M 90 203.04 
L 90 51.84 
" style="fill: none; stroke: #000000; stroke-width: 0.8; stroke-linejoin: miter; stroke-linecap: square"/>
   </g>
   <g id="patch_4">
    <path d="M 648 203.04 
L 648 51.84 
" style="fill: none; stroke: #000000; stroke-width: 0.8; stroke-linejoin: miter; stroke-linecap: square"/>
   </g>
   <g id="patch_5">
    <path d="M 90 203.04 
L 648 203.04 
" style="fill: none; stroke: #000000; stroke-width: 0.8; stroke-linejoin: miter; stroke-linecap: square"/>
   </g>
   <g id="patch_6">
    <path d="M 90 51.84 
L 648 51.84 
" style="fill: none; stroke: #000000; stroke-width: 0.8; stroke-linejoin: miter; stroke-linecap: square"/>
   </g>
   <g id="legend_1">
    <g id="patch_7">
     <path d="M 97 74.518125 
L 266.259375 74.518125 
Q 268.259375 74.518125 268.259375 72.518125 
L 268.259375 58.84 
Q 268.259375 56.84 266.259375 56.84 
L 97 56.84 
Q 95 56.84 95 58.84 
L 95 72.518125 
Q 95 74.518125 97 74.518125 
z
" style="fill: #ffffff; opacity: 0.8; stroke: #cccccc; stroke-linejoin: miter"/>
    </g>
    <g id="line2d_13">
     <path d="M 99 64.938437 
L 109 64.938437 
L 119 64.938437 
" style="fill: none; stroke: #1f77b4; stroke-width: 1.5; stroke-linecap: square"/>
    </g>
    <g id="text_6">
     <!-- AR(1) with c=5, σ=10, ϕ=1 -->
     <g transform="translate(127 68.438437) scale(0.1 -0.1)">
      <defs>
       <path id="DejaVuSans-41" d="M 2188 4044 
L 1331 1722 
L 3047 1722 
L 2188 4044 
z
M 1831 4666 
L 2547 4666 
L 4325 0 
L 3669 0 
L 3244 1197 
L 1141 1197 
L 716 0 
L 50 0 
L 1831 4666 
z
" transform="scale(0.015625)"/>
       <path id="DejaVuSans-52" d="M 2841 2188 
Q 3044 2119 3236 1894 
Q 3428 1669 3622 1275 
L 4263 0 
L 3584 0 
L 2988 1197 
Q 2756 1666 2539 1819 
Q 2322 1972 1947 1972 
L 1259 1972 
L 1259 0 
L 628 0 
L 628 4666 
L 2053 4666 
Q 2853 4666 3247 4331 
Q 3641 3997 3641 3322 
Q 3641 2881 3436 2590 
Q 3231 2300 2841 2188 
z
M 1259 4147 
L 1259 2491 
L 2053 2491 
Q 2509 2491 2742 2702 
Q 2975 2913 2975 3322 
Q 2975 3731 2742 3939 
Q 2509 4147 2053 4147 
L 1259 4147 
z
" transform="scale(0.015625)"/>
       <path id="DejaVuSans-28" d="M 1984 4856 
Q 1566 4138 1362 3434 
Q 1159 2731 1159 2009 
Q 1159 1288 1364 580 
Q 1569 -128 1984 -844 
L 1484 -844 
Q 1016 -109 783 600 
Q 550 1309 550 2009 
Q 550 2706 781 3412 
Q 1013 4119 1484 4856 
L 1984 4856 
z
" transform="scale(0.015625)"/>
       <path id="DejaVuSans-31" d="M 794 531 
L 1825 531 
L 1825 4091 
L 703 3866 
L 703 4441 
L 1819 4666 
L 2450 4666 
L 2450 531 
L 3481 531 
L 3481 0 
L 794 0 
L 794 531 
z
" transform="scale(0.015625)"/>
       <path id="DejaVuSans-29" d="M 513 4856 
L 1013 4856 
Q 1481 4119 1714 3412 
Q 1947 2706 1947 2009 
Q 1947 1309 1714 600 
Q 1481 -109 1013 -844 
L 513 -844 
Q 928 -128 1133 580 
Q 1338 1288 1338 2009 
Q 1338 2731 1133 3434 
Q 928 4138 513 4856 
z
" transform="scale(0.015625)"/>
       <path id="DejaVuSans-20" transform="scale(0.015625)"/>
       <path id="DejaVuSans-77" d="M 269 3500 
L 844 3500 
L 1563 769 
L 2278 3500 
L 2956 3500 
L 3675 769 
L 4391 3500 
L 4966 3500 
L 4050 0 
L 3372 0 
L 2619 2869 
L 1863 0 
L 1184 0 
L 269 3500 
z
" transform="scale(0.015625)"/>
       <path id="DejaVuSans-69" d="M 603 3500 
L 1178 3500 
L 1178 0 
L 603 0 
L 603 3500 
z
M 603 4863 
L 1178 4863 
L 1178 4134 
L 603 4134 
L 603 4863 
z
" transform="scale(0.015625)"/>
       <path id="DejaVuSans-74" d="M 1172 4494 
L 1172 3500 
L 2356 3500 
L 2356 3053 
L 1172 3053 
L 1172 1153 
Q 1172 725 1289 603 
Q 1406 481 1766 481 
L 2356 481 
L 2356 0 
L 1766 0 
Q 1100 0 847 248 
Q 594 497 594 1153 
L 594 3053 
L 172 3053 
L 172 3500 
L 594 3500 
L 594 4494 
L 1172 4494 
z
" transform="scale(0.015625)"/>
       <path id="DejaVuSans-68" d="M 3513 2113 
L 3513 0 
L 2938 0 
L 2938 2094 
Q 2938 2591 2744 2837 
Q 2550 3084 2163 3084 
Q 1697 3084 1428 2787 
Q 1159 2491 1159 1978 
L 1159 0 
L 581 0 
L 581 4863 
L 1159 4863 
L 1159 2956 
Q 1366 3272 1645 3428 
Q 1925 3584 2291 3584 
Q 2894 3584 3203 3211 
Q 3513 2838 3513 2113 
z
" transform="scale(0.015625)"/>
       <path id="DejaVuSans-63" d="M 3122 3366 
L 3122 2828 
Q 2878 2963 2633 3030 
Q 2388 3097 2138 3097 
Q 1578 3097 1268 2742 
Q 959 2388 959 1747 
Q 959 1106 1268 751 
Q 1578 397 2138 397 
Q 2388 397 2633 464 
Q 2878 531 3122 666 
L 3122 134 
Q 2881 22 2623 -34 
Q 2366 -91 2075 -91 
Q 1284 -91 818 406 
Q 353 903 353 1747 
Q 353 2603 823 3093 
Q 1294 3584 2113 3584 
Q 2378 3584 2631 3529 
Q 2884 3475 3122 3366 
z
" transform="scale(0.015625)"/>
       <path id="DejaVuSans-3d" d="M 678 2906 
L 4684 2906 
L 4684 2381 
L 678 2381 
L 678 2906 
z
M 678 1631 
L 4684 1631 
L 4684 1100 
L 678 1100 
L 678 1631 
z
" transform="scale(0.015625)"/>
       <path id="DejaVuSans-35" d="M 691 4666 
L 3169 4666 
L 3169 4134 
L 1269 4134 
L 1269 2991 
Q 1406 3038 1543 3061 
Q 1681 3084 1819 3084 
Q 2600 3084 3056 2656 
Q 3513 2228 3513 1497 
Q 3513 744 3044 326 
Q 2575 -91 1722 -91 
Q 1428 -91 1123 -41 
Q 819 9 494 109 
L 494 744 
Q 775 591 1075 516 
Q 1375 441 1709 441 
Q 2250 441 2565 725 
Q 2881 1009 2881 1497 
Q 2881 1984 2565 2268 
Q 2250 2553 1709 2553 
Q 1456 2553 1204 2497 
Q 953 2441 691 2322 
L 691 4666 
z
" transform="scale(0.015625)"/>
       <path id="DejaVuSans-2c" d="M 750 794 
L 1409 794 
L 1409 256 
L 897 -744 
L 494 -744 
L 750 256 
L 750 794 
z
" transform="scale(0.015625)"/>
       <path id="DejaVuSans-3c3" d="M 1959 3044 
Q 1484 3044 1228 2700 
Q 959 2341 959 1747 
Q 959 1119 1226 758 
Q 1494 397 1959 397 
Q 2419 397 2687 759 
Q 2956 1122 2956 1747 
Q 2956 2319 2688 2700 
Q 2441 3044 1959 3044 
z
M 1959 3500 
L 3869 3500 
L 3869 2925 
L 3225 2925 
Q 3566 2438 3566 1747 
Q 3566 888 3138 400 
Q 2709 -91 1959 -91 
Q 1206 -91 781 400 
Q 353 888 353 1747 
Q 353 2613 781 3097 
Q 1134 3500 1959 3500 
z
" transform="scale(0.015625)"/>
       <path id="DejaVuSans-3d5" d="M 2388 4863 
L 2388 3572 
Q 3009 3572 3425 3094 
Q 3853 2606 3853 1747 
Q 3853 888 3425 400 
Q 3009 -78 2388 -78 
L 2388 -1331 
L 1816 -1331 
L 1816 -78 
Q 1194 -78 775 400 
Q 350 888 350 1747 
Q 350 2606 775 3094 
Q 1194 3572 1816 3572 
L 1816 4863 
L 2388 4863 
z
M 2388 434 
Q 2741 434 2981 756 
Q 3244 1116 3247 1747 
Q 3250 2372 2981 2738 
Q 2741 3059 2388 3059 
L 2388 434 
z
M 1816 434 
L 1816 3059 
Q 1463 3059 1225 2738 
Q 953 2372 956 1747 
Q 959 1116 1225 756 
Q 1463 434 1816 434 
z
" transform="scale(0.015625)"/>
      </defs>
      <use xlink:href="#DejaVuSans-41"/>
      <use xlink:href="#DejaVuSans-52" x="68.408203"/>
      <use xlink:href="#DejaVuSans-28" x="137.890625"/>
      <use xlink:href="#DejaVuSans-31" x="176.904297"/>
      <use xlink:href="#DejaVuSans-29" x="240.527344"/>
      <use xlink:href="#DejaVuSans-20" x="279.541016"/>
      <use xlink:href="#DejaVuSans-77" x="311.328125"/>
      <use xlink:href="#DejaVuSans-69" x="393.115234"/>
      <use xlink:href="#DejaVuSans-74" x="420.898438"/>
      <use xlink:href="#DejaVuSans-68" x="460.107422"/>
      <use xlink:href="#DejaVuSans-20" x="523.486328"/>
      <use xlink:href="#DejaVuSans-63" x="555.273438"/>
      <use xlink:href="#DejaVuSans-3d" x="610.253906"/>
      <use xlink:href="#DejaVuSans-35" x="694.042969"/>
      <use xlink:href="#DejaVuSans-2c" x="757.666016"/>
      <use xlink:href="#DejaVuSans-20" x="789.453125"/>
      <use xlink:href="#DejaVuSans-3c3" x="821.240234"/>
      <use xlink:href="#DejaVuSans-3d" x="884.619141"/>
      <use xlink:href="#DejaVuSans-31" x="968.408203"/>
      <use xlink:href="#DejaVuSans-30" x="1032.03125"/>
      <use xlink:href="#DejaVuSans-2c" x="1095.654297"/>
      <use xlink:href="#DejaVuSans-20" x="1127.441406"/>
      <use xlink:href="#DejaVuSans-3d5" x="1159.228516"/>
      <use xlink:href="#DejaVuSans-3d" x="1225.195312"/>
      <use xlink:href="#DejaVuSans-31" x="1308.984375"/>
     </g>
    </g>
   </g>
  </g>
  <g id="axes_2">
   <g id="patch_8">
    <path d="M 90 384.48 
L 648 384.48 
L 648 233.28 
L 90 233.28 
z
" style="fill: #ffffff"/>
   </g>
   <g id="matplotlib.axis_3">
    <g id="xtick_7">
     <g id="line2d_14">
      <g>
       <use xlink:href="#m6625eb9e3e" x="115.363636" y="384.48" style="stroke: #000000; stroke-width: 0.8"/>
      </g>
     </g>
     <g id="text_7">
      <!-- 0 -->
      <g transform="translate(112.182386 399.078438) scale(0.1 -0.1)">
       <use xlink:href="#DejaVuSans-30"/>
      </g>
     </g>
    </g>
    <g id="xtick_8">
     <g id="line2d_15">
      <g>
       <use xlink:href="#m6625eb9e3e" x="217.842975" y="384.48" style="stroke: #000000; stroke-width: 0.8"/>
      </g>
     </g>
     <g id="text_8">
      <!-- 20 -->
      <g transform="translate(211.480475 399.078438) scale(0.1 -0.1)">
       <use xlink:href="#DejaVuSans-32"/>
       <use xlink:href="#DejaVuSans-30" x="63.623047"/>
      </g>
     </g>
    </g>
    <g id="xtick_9">
     <g id="line2d_16">
      <g>
       <use xlink:href="#m6625eb9e3e" x="320.322314" y="384.48" style="stroke: #000000; stroke-width: 0.8"/>
      </g>
     </g>
     <g id="text_9">
      <!-- 40 -->
      <g transform="translate(313.959814 399.078438) scale(0.1 -0.1)">
       <use xlink:href="#DejaVuSans-34"/>
       <use xlink:href="#DejaVuSans-30" x="63.623047"/>
      </g>
     </g>
    </g>
    <g id="xtick_10">
     <g id="line2d_17">
      <g>
       <use xlink:href="#m6625eb9e3e" x="422.801653" y="384.48" style="stroke: #000000; stroke-width: 0.8"/>
      </g>
     </g>
     <g id="text_10">
      <!-- 60 -->
      <g transform="translate(416.439153 399.078438) scale(0.1 -0.1)">
       <defs>
        <path id="DejaVuSans-36" d="M 2113 2584 
Q 1688 2584 1439 2293 
Q 1191 2003 1191 1497 
Q 1191 994 1439 701 
Q 1688 409 2113 409 
Q 2538 409 2786 701 
Q 3034 994 3034 1497 
Q 3034 2003 2786 2293 
Q 2538 2584 2113 2584 
z
M 3366 4563 
L 3366 3988 
Q 3128 4100 2886 4159 
Q 2644 4219 2406 4219 
Q 1781 4219 1451 3797 
Q 1122 3375 1075 2522 
Q 1259 2794 1537 2939 
Q 1816 3084 2150 3084 
Q 2853 3084 3261 2657 
Q 3669 2231 3669 1497 
Q 3669 778 3244 343 
Q 2819 -91 2113 -91 
Q 1303 -91 875 529 
Q 447 1150 447 2328 
Q 447 3434 972 4092 
Q 1497 4750 2381 4750 
Q 2619 4750 2861 4703 
Q 3103 4656 3366 4563 
z
" transform="scale(0.015625)"/>
       </defs>
       <use xlink:href="#DejaVuSans-36"/>
       <use xlink:href="#DejaVuSans-30" x="63.623047"/>
      </g>
     </g>
    </g>
    <g id="xtick_11">
     <g id="line2d_18">
      <g>
       <use xlink:href="#m6625eb9e3e" x="525.280992" y="384.48" style="stroke: #000000; stroke-width: 0.8"/>
      </g>
     </g>
     <g id="text_11">
      <!-- 80 -->
      <g transform="translate(518.918492 399.078438) scale(0.1 -0.1)">
       <defs>
        <path id="DejaVuSans-38" d="M 2034 2216 
Q 1584 2216 1326 1975 
Q 1069 1734 1069 1313 
Q 1069 891 1326 650 
Q 1584 409 2034 409 
Q 2484 409 2743 651 
Q 3003 894 3003 1313 
Q 3003 1734 2745 1975 
Q 2488 2216 2034 2216 
z
M 1403 2484 
Q 997 2584 770 2862 
Q 544 3141 544 3541 
Q 544 4100 942 4425 
Q 1341 4750 2034 4750 
Q 2731 4750 3128 4425 
Q 3525 4100 3525 3541 
Q 3525 3141 3298 2862 
Q 3072 2584 2669 2484 
Q 3125 2378 3379 2068 
Q 3634 1759 3634 1313 
Q 3634 634 3220 271 
Q 2806 -91 2034 -91 
Q 1263 -91 848 271 
Q 434 634 434 1313 
Q 434 1759 690 2068 
Q 947 2378 1403 2484 
z
M 1172 3481 
Q 1172 3119 1398 2916 
Q 1625 2713 2034 2713 
Q 2441 2713 2670 2916 
Q 2900 3119 2900 3481 
Q 2900 3844 2670 4047 
Q 2441 4250 2034 4250 
Q 1625 4250 1398 4047 
Q 1172 3844 1172 3481 
z
" transform="scale(0.015625)"/>
       </defs>
       <use xlink:href="#DejaVuSans-38"/>
       <use xlink:href="#DejaVuSans-30" x="63.623047"/>
      </g>
     </g>
    </g>
    <g id="xtick_12">
     <g id="line2d_19">
      <g>
       <use xlink:href="#m6625eb9e3e" x="627.760331" y="384.48" style="stroke: #000000; stroke-width: 0.8"/>
      </g>
     </g>
     <g id="text_12">
      <!-- 100 -->
      <g transform="translate(618.216581 399.078438) scale(0.1 -0.1)">
       <use xlink:href="#DejaVuSans-31"/>
       <use xlink:href="#DejaVuSans-30" x="63.623047"/>
       <use xlink:href="#DejaVuSans-30" x="127.246094"/>
      </g>
     </g>
    </g>
    <g id="text_13">
     <!-- t -->
     <g transform="translate(367.039844 412.756563) scale(0.1 -0.1)">
      <use xlink:href="#DejaVuSans-74"/>
     </g>
    </g>
   </g>
   <g id="matplotlib.axis_4">
    <g id="ytick_6">
     <g id="line2d_20">
      <g>
       <use xlink:href="#mb7d505e948" x="90" y="377.475324" style="stroke: #000000; stroke-width: 0.8"/>
      </g>
     </g>
     <g id="text_14">
      <!-- −400 -->
      <g transform="translate(55.532812 381.274542) scale(0.1 -0.1)">
       <use xlink:href="#DejaVuSans-2212"/>
       <use xlink:href="#DejaVuSans-34" x="83.789062"/>
       <use xlink:href="#DejaVuSans-30" x="147.412109"/>
       <use xlink:href="#DejaVuSans-30" x="211.035156"/>
      </g>
     </g>
    </g>
    <g id="ytick_7">
     <g id="line2d_21">
      <g>
       <use xlink:href="#mb7d505e948" x="90" y="347.231843" style="stroke: #000000; stroke-width: 0.8"/>
      </g>
     </g>
     <g id="text_15">
      <!-- −200 -->
      <g transform="translate(55.532812 351.031061) scale(0.1 -0.1)">
       <use xlink:href="#DejaVuSans-2212"/>
       <use xlink:href="#DejaVuSans-32" x="83.789062"/>
       <use xlink:href="#DejaVuSans-30" x="147.412109"/>
       <use xlink:href="#DejaVuSans-30" x="211.035156"/>
      </g>
     </g>
    </g>
    <g id="ytick_8">
     <g id="line2d_22">
      <g>
       <use xlink:href="#mb7d505e948" x="90" y="316.988361" style="stroke: #000000; stroke-width: 0.8"/>
      </g>
     </g>
     <g id="text_16">
      <!-- 0 -->
      <g transform="translate(76.6375 320.78758) scale(0.1 -0.1)">
       <use xlink:href="#DejaVuSans-30"/>
      </g>
     </g>
    </g>
    <g id="ytick_9">
     <g id="line2d_23">
      <g>
       <use xlink:href="#mb7d505e948" x="90" y="286.74488" style="stroke: #000000; stroke-width: 0.8"/>
      </g>
     </g>
     <g id="text_17">
      <!-- 200 -->
      <g transform="translate(63.9125 290.544099) scale(0.1 -0.1)">
       <use xlink:href="#DejaVuSans-32"/>
       <use xlink:href="#DejaVuSans-30" x="63.623047"/>
       <use xlink:href="#DejaVuSans-30" x="127.246094"/>
      </g>
     </g>
    </g>
    <g id="ytick_10">
     <g id="line2d_24">
      <g>
       <use xlink:href="#mb7d505e948" x="90" y="256.501399" style="stroke: #000000; stroke-width: 0.8"/>
      </g>
     </g>
     <g id="text_18">
      <!-- 400 -->
      <g transform="translate(63.9125 260.300618) scale(0.1 -0.1)">
       <use xlink:href="#DejaVuSans-34"/>
       <use xlink:href="#DejaVuSans-30" x="63.623047"/>
       <use xlink:href="#DejaVuSans-30" x="127.246094"/>
      </g>
     </g>
    </g>
   </g>
   <g id="line2d_25">
    <path d="M 115.363636 319.584623 
L 120.487603 321.303741 
L 125.61157 323.377743 
L 130.735537 324.479164 
L 135.859504 326.476287 
L 140.983471 328.808716 
L 146.107438 328.123135 
L 151.231405 329.212863 
L 156.355372 328.48998 
L 161.479339 328.3697 
L 166.603306 329.503006 
L 171.727273 328.89218 
L 176.85124 325.696853 
L 181.975207 324.602416 
L 187.099174 325.439041 
L 192.22314 326.701889 
L 197.347107 327.882396 
L 202.471074 326.091334 
L 207.595041 326.722648 
L 212.719008 326.676243 
L 217.842975 332.02145 
L 222.966942 329.435967 
L 228.090909 330.137286 
L 233.214876 330.33675 
L 238.338843 331.707172 
L 243.46281 330.834874 
L 248.586777 331.678587 
L 253.710744 331.960432 
L 258.834711 333.37911 
L 263.958678 333.876824 
L 269.082645 332.353018 
L 274.206612 332.77792 
L 279.330579 332.320763 
L 284.454545 333.402468 
L 289.578512 334.229797 
L 294.702479 335.451553 
L 299.826446 338.331474 
L 304.950413 338.667053 
L 310.07438 339.781484 
L 315.198347 339.76922 
L 320.322314 340.620361 
L 325.446281 341.17598 
L 330.570248 341.970535 
L 335.694215 345.887287 
L 340.818182 348.014475 
L 345.942149 346.005143 
L 351.066116 344.502723 
L 356.190083 344.714974 
L 361.31405 345.526152 
L 366.438017 343.867962 
L 371.561983 345.296743 
L 376.68595 346.0571 
L 381.809917 347.235981 
L 386.933884 346.636788 
L 392.057851 345.45642 
L 397.181818 346.75478 
L 402.305785 348.500861 
L 407.429752 349.388827 
L 412.553719 350.677429 
L 417.677686 352.551193 
L 422.801653 351.497137 
L 427.92562 350.525457 
L 433.049587 349.527353 
L 438.173554 348.386471 
L 443.297521 347.540132 
L 448.421488 347.135927 
L 453.545455 349.06738 
L 458.669421 349.818012 
L 463.793388 351.249731 
L 468.917355 349.511683 
L 474.041322 349.498552 
L 479.165289 347.50403 
L 484.289256 345.937869 
L 489.413223 347.152415 
L 494.53719 349.432513 
L 499.661157 350.199541 
L 504.785124 354.368169 
L 509.909091 355.320172 
L 515.033058 356.547718 
L 520.157025 360.069157 
L 525.280992 362.694592 
L 530.404959 364.246744 
L 535.528926 362.87277 
L 540.652893 363.604022 
L 545.77686 368.31878 
L 550.900826 369.588073 
L 556.024793 370.792735 
L 561.14876 373.704641 
L 566.272727 373.69934 
L 571.396694 375.154334 
L 576.520661 376.200265 
L 581.644628 375.610628 
L 586.768595 375.445675 
L 591.892562 377.607273 
L 597.016529 375.77815 
L 602.140496 376.466006 
L 607.264463 377.264133 
L 612.38843 375.196275 
L 617.512397 375.391762 
L 622.636364 375.222268 
" clip-path="url(#p0d4ded0864)" style="fill: none; stroke: #1f77b4; stroke-width: 1.5; stroke-linecap: square"/>
   </g>
   <g id="patch_9">
    <path d="M 90 384.48 
L 90 233.28 
" style="fill: none; stroke: #000000; stroke-width: 0.8; stroke-linejoin: miter; stroke-linecap: square"/>
   </g>
   <g id="patch_10">
    <path d="M 648 384.48 
L 648 233.28 
" style="fill: none; stroke: #000000; stroke-width: 0.8; stroke-linejoin: miter; stroke-linecap: square"/>
   </g>
   <g id="patch_11">
    <path d="M 90 384.48 
L 648 384.48 
" style="fill: none; stroke: #000000; stroke-width: 0.8; stroke-linejoin: miter; stroke-linecap: square"/>
   </g>
   <g id="patch_12">
    <path d="M 90 233.28 
L 648 233.28 
" style="fill: none; stroke: #000000; stroke-width: 0.8; stroke-linejoin: miter; stroke-linecap: square"/>
   </g>
   <g id="legend_2">
    <g id="patch_13">
     <path d="M 468.132812 255.958125 
L 641 255.958125 
Q 643 255.958125 643 253.958125 
L 643 240.28 
Q 643 238.28 641 238.28 
L 468.132812 238.28 
Q 466.132812 238.28 466.132812 240.28 
L 466.132812 253.958125 
Q 466.132812 255.958125 468.132812 255.958125 
z
" style="fill: #ffffff; opacity: 0.8; stroke: #cccccc; stroke-linejoin: miter"/>
    </g>
    <g id="line2d_26">
     <path d="M 470.132812 246.378437 
L 480.132812 246.378437 
L 490.132812 246.378437 
" style="fill: none; stroke: #1f77b4; stroke-width: 1.5; stroke-linecap: square"/>
    </g>
    <g id="text_19">
     <!-- AR(1) with c=-5, σ=10, ϕ=1 -->
     <g transform="translate(498.132812 249.878437) scale(0.1 -0.1)">
      <defs>
       <path id="DejaVuSans-2d" d="M 313 2009 
L 1997 2009 
L 1997 1497 
L 313 1497 
L 313 2009 
z
" transform="scale(0.015625)"/>
      </defs>
      <use xlink:href="#DejaVuSans-41"/>
      <use xlink:href="#DejaVuSans-52" x="68.408203"/>
      <use xlink:href="#DejaVuSans-28" x="137.890625"/>
      <use xlink:href="#DejaVuSans-31" x="176.904297"/>
      <use xlink:href="#DejaVuSans-29" x="240.527344"/>
      <use xlink:href="#DejaVuSans-20" x="279.541016"/>
      <use xlink:href="#DejaVuSans-77" x="311.328125"/>
      <use xlink:href="#DejaVuSans-69" x="393.115234"/>
      <use xlink:href="#DejaVuSans-74" x="420.898438"/>
      <use xlink:href="#DejaVuSans-68" x="460.107422"/>
      <use xlink:href="#DejaVuSans-20" x="523.486328"/>
      <use xlink:href="#DejaVuSans-63" x="555.273438"/>
      <use xlink:href="#DejaVuSans-3d" x="610.253906"/>
      <use xlink:href="#DejaVuSans-2d" x="694.042969"/>
      <use xlink:href="#DejaVuSans-35" x="730.126953"/>
      <use xlink:href="#DejaVuSans-2c" x="793.75"/>
      <use xlink:href="#DejaVuSans-20" x="825.537109"/>
      <use xlink:href="#DejaVuSans-3c3" x="857.324219"/>
      <use xlink:href="#DejaVuSans-3d" x="920.703125"/>
      <use xlink:href="#DejaVuSans-31" x="1004.492188"/>
      <use xlink:href="#DejaVuSans-30" x="1068.115234"/>
      <use xlink:href="#DejaVuSans-2c" x="1131.738281"/>
      <use xlink:href="#DejaVuSans-20" x="1163.525391"/>
      <use xlink:href="#DejaVuSans-3d5" x="1195.3125"/>
      <use xlink:href="#DejaVuSans-3d" x="1261.279297"/>
      <use xlink:href="#DejaVuSans-31" x="1345.068359"/>
     </g>
    </g>
   </g>
  </g>
 </g>
 <defs>
  <clipPath id="p58381e4baf">
   <rect x="90" y="51.84" width="558" height="151.2"/>
  </clipPath>
  <clipPath id="p0d4ded0864">
   <rect x="90" y="233.28" width="558" height="151.2"/>
  </clipPath>
 </defs>
</svg>
