<?xml version="1.0" encoding="utf-8" standalone="no"?>
<!DOCTYPE svg PUBLIC "-//W3C//DTD SVG 1.1//EN"
  "http://www.w3.org/Graphics/SVG/1.1/DTD/svg11.dtd">
<svg xmlns:xlink="http://www.w3.org/1999/xlink" width="720pt" height="576pt" viewBox="0 0 720 576" xmlns="http://www.w3.org/2000/svg" version="1.1">
 <metadata>
  <rdf:RDF xmlns:dc="http://purl.org/dc/elements/1.1/" xmlns:cc="http://creativecommons.org/ns#" xmlns:rdf="http://www.w3.org/1999/02/22-rdf-syntax-ns#">
   <cc:Work>
    <dc:type rdf:resource="http://purl.org/dc/dcmitype/StillImage"/>
    <dc:date>2024-02-20T02:13:55.792461</dc:date>
    <dc:format>image/svg+xml</dc:format>
    <dc:creator>
     <cc:Agent>
      <dc:title>Matplotlib v3.8.2, https://matplotlib.org/</dc:title>
     </cc:Agent>
    </dc:creator>
   </cc:Work>
  </rdf:RDF>
 </metadata>
 <defs>
  <style type="text/css">*{stroke-linejoin: round; stroke-linecap: butt}</style>
 </defs>
 <g id="figure_1">
  <g id="patch_1">
   <path d="M 0 576 
L 720 576 
L 720 0 
L 0 0 
z
" style="fill: #ffffff"/>
  </g>
  <g id="axes_1">
   <g id="patch_2">
    <path d="M 58.075 265.27 
L 709.2 265.27 
L 709.2 26.16 
L 58.075 26.16 
z
" style="fill: #ffffff"/>
   </g>
   <g id="matplotlib.axis_1">
    <g id="xtick_1">
     <g id="line2d_1">
      <defs>
       <path id="m0dc945c0d1" d="M 0 0 
L 0 3.5 
" style="stroke: #000000; stroke-width: 0.8"/>
      </defs>
      <g>
       <use xlink:href="#m0dc945c0d1" x="87.671591" y="265.27" style="stroke: #000000; stroke-width: 0.8"/>
      </g>
     </g>
    </g>
    <g id="xtick_2">
     <g id="line2d_2">
      <g>
       <use xlink:href="#m0dc945c0d1" x="207.253776" y="265.27" style="stroke: #000000; stroke-width: 0.8"/>
      </g>
     </g>
    </g>
    <g id="xtick_3">
     <g id="line2d_3">
      <g>
       <use xlink:href="#m0dc945c0d1" x="326.835962" y="265.27" style="stroke: #000000; stroke-width: 0.8"/>
      </g>
     </g>
    </g>
    <g id="xtick_4">
     <g id="line2d_4">
      <g>
       <use xlink:href="#m0dc945c0d1" x="446.418147" y="265.27" style="stroke: #000000; stroke-width: 0.8"/>
      </g>
     </g>
    </g>
    <g id="xtick_5">
     <g id="line2d_5">
      <g>
       <use xlink:href="#m0dc945c0d1" x="566.000333" y="265.27" style="stroke: #000000; stroke-width: 0.8"/>
      </g>
     </g>
    </g>
    <g id="xtick_6">
     <g id="line2d_6">
      <g>
       <use xlink:href="#m0dc945c0d1" x="685.582518" y="265.27" style="stroke: #000000; stroke-width: 0.8"/>
      </g>
     </g>
    </g>
   </g>
   <g id="matplotlib.axis_2">
    <g id="ytick_1">
     <g id="line2d_7">
      <defs>
       <path id="mdb3dab76ed" d="M 0 0 
L -3.5 0 
" style="stroke: #000000; stroke-width: 0.8"/>
      </defs>
      <g>
       <use xlink:href="#mdb3dab76ed" x="58.075" y="224.183119" style="stroke: #000000; stroke-width: 0.8"/>
      </g>
     </g>
     <g id="text_1">
      <!-- −4000 -->
      <g transform="translate(17.245313 227.982338) scale(0.1 -0.1)">
       <defs>
        <path id="DejaVuSans-2212" d="M 678 2272 
L 4684 2272 
L 4684 1741 
L 678 1741 
L 678 2272 
z
" transform="scale(0.015625)"/>
        <path id="DejaVuSans-34" d="M 2419 4116 
L 825 1625 
L 2419 1625 
L 2419 4116 
z
M 2253 4666 
L 3047 4666 
L 3047 1625 
L 3713 1625 
L 3713 1100 
L 3047 1100 
L 3047 0 
L 2419 0 
L 2419 1100 
L 313 1100 
L 313 1709 
L 2253 4666 
z
" transform="scale(0.015625)"/>
        <path id="DejaVuSans-30" d="M 2034 4250 
Q 1547 4250 1301 3770 
Q 1056 3291 1056 2328 
Q 1056 1369 1301 889 
Q 1547 409 2034 409 
Q 2525 409 2770 889 
Q 3016 1369 3016 2328 
Q 3016 3291 2770 3770 
Q 2525 4250 2034 4250 
z
M 2034 4750 
Q 2819 4750 3233 4129 
Q 3647 3509 3647 2328 
Q 3647 1150 3233 529 
Q 2819 -91 2034 -91 
Q 1250 -91 836 529 
Q 422 1150 422 2328 
Q 422 3509 836 4129 
Q 1250 4750 2034 4750 
z
" transform="scale(0.015625)"/>
       </defs>
       <use xlink:href="#DejaVuSans-2212"/>
       <use xlink:href="#DejaVuSans-34" x="83.789062"/>
       <use xlink:href="#DejaVuSans-30" x="147.412109"/>
       <use xlink:href="#DejaVuSans-30" x="211.035156"/>
       <use xlink:href="#DejaVuSans-30" x="274.658203"/>
      </g>
     </g>
    </g>
    <g id="ytick_2">
     <g id="line2d_8">
      <g>
       <use xlink:href="#mdb3dab76ed" x="58.075" y="182.367657" style="stroke: #000000; stroke-width: 0.8"/>
      </g>
     </g>
     <g id="text_2">
      <!-- −2000 -->
      <g transform="translate(17.245313 186.166876) scale(0.1 -0.1)">
       <defs>
        <path id="DejaVuSans-32" d="M 1228 531 
L 3431 531 
L 3431 0 
L 469 0 
L 469 531 
Q 828 903 1448 1529 
Q 2069 2156 2228 2338 
Q 2531 2678 2651 2914 
Q 2772 3150 2772 3378 
Q 2772 3750 2511 3984 
Q 2250 4219 1831 4219 
Q 1534 4219 1204 4116 
Q 875 4013 500 3803 
L 500 4441 
Q 881 4594 1212 4672 
Q 1544 4750 1819 4750 
Q 2544 4750 2975 4387 
Q 3406 4025 3406 3419 
Q 3406 3131 3298 2873 
Q 3191 2616 2906 2266 
Q 2828 2175 2409 1742 
Q 1991 1309 1228 531 
z
" transform="scale(0.015625)"/>
       </defs>
       <use xlink:href="#DejaVuSans-2212"/>
       <use xlink:href="#DejaVuSans-32" x="83.789062"/>
       <use xlink:href="#DejaVuSans-30" x="147.412109"/>
       <use xlink:href="#DejaVuSans-30" x="211.035156"/>
       <use xlink:href="#DejaVuSans-30" x="274.658203"/>
      </g>
     </g>
    </g>
    <g id="ytick_3">
     <g id="line2d_9">
      <g>
       <use xlink:href="#mdb3dab76ed" x="58.075" y="140.552194" style="stroke: #000000; stroke-width: 0.8"/>
      </g>
     </g>
     <g id="text_3">
      <!-- 0 -->
      <g transform="translate(44.7125 144.351413) scale(0.1 -0.1)">
       <use xlink:href="#DejaVuSans-30"/>
      </g>
     </g>
    </g>
    <g id="ytick_4">
     <g id="line2d_10">
      <g>
       <use xlink:href="#mdb3dab76ed" x="58.075" y="98.736732" style="stroke: #000000; stroke-width: 0.8"/>
      </g>
     </g>
     <g id="text_4">
      <!-- 2000 -->
      <g transform="translate(25.625 102.53595) scale(0.1 -0.1)">
       <use xlink:href="#DejaVuSans-32"/>
       <use xlink:href="#DejaVuSans-30" x="63.623047"/>
       <use xlink:href="#DejaVuSans-30" x="127.246094"/>
       <use xlink:href="#DejaVuSans-30" x="190.869141"/>
      </g>
     </g>
    </g>
    <g id="ytick_5">
     <g id="line2d_11">
      <g>
       <use xlink:href="#mdb3dab76ed" x="58.075" y="56.921269" style="stroke: #000000; stroke-width: 0.8"/>
      </g>
     </g>
     <g id="text_5">
      <!-- 4000 -->
      <g transform="translate(25.625 60.720488) scale(0.1 -0.1)">
       <use xlink:href="#DejaVuSans-34"/>
       <use xlink:href="#DejaVuSans-30" x="63.623047"/>
       <use xlink:href="#DejaVuSans-30" x="127.246094"/>
       <use xlink:href="#DejaVuSans-30" x="190.869141"/>
      </g>
     </g>
    </g>
   </g>
   <g id="line2d_12">
    <path d="M 87.671591 140.524698 
L 93.6507 140.546342 
L 99.629809 140.572884 
L 105.608919 140.521277 
L 111.588028 140.549238 
L 117.567137 140.542488 
L 123.546247 140.529461 
L 129.525356 140.592542 
L 135.504465 140.467495 
L 141.483574 140.593708 
L 147.462684 140.506965 
L 153.441793 140.608414 
L 159.420902 140.508855 
L 165.400011 140.556027 
L 171.379121 140.506161 
L 177.35823 140.584453 
L 183.337339 140.492941 
L 189.316449 140.57221 
L 195.295558 140.48986 
L 201.274667 140.61667 
L 207.253776 140.453778 
L 213.232886 140.655561 
L 219.211995 140.428325 
L 225.191104 140.690799 
L 231.170213 140.415473 
L 237.149323 140.682464 
L 243.128432 140.369384 
L 249.107541 140.716806 
L 255.086651 140.367093 
L 261.06576 140.760619 
L 267.044869 140.343263 
L 273.023978 140.749108 
L 279.003088 140.325082 
L 284.982197 140.752753 
L 290.961306 140.30914 
L 296.940416 140.817267 
L 302.919525 140.257843 
L 308.898634 140.842958 
L 314.877743 140.219635 
L 320.856853 140.882204 
L 326.835962 140.151631 
L 332.815071 140.976369 
L 338.79418 140.067075 
L 344.77329 141.091934 
L 350.752399 139.909061 
L 356.731508 141.275897 
L 362.710618 139.769179 
L 368.689727 141.361328 
L 374.668836 139.632805 
L 380.647945 141.537505 
L 386.627055 139.458094 
L 392.606164 141.716063 
L 398.585273 139.274457 
L 404.564382 141.947567 
L 410.543492 139.017076 
L 416.522601 142.22847 
L 422.50171 138.673061 
L 428.48082 142.581581 
L 434.459929 138.300454 
L 440.439038 143.029784 
L 446.418147 137.797245 
L 452.397257 143.523582 
L 458.376366 137.259979 
L 464.355475 144.162973 
L 470.334584 136.574867 
L 476.313694 144.906104 
L 482.292803 135.749517 
L 488.271912 145.854865 
L 494.251022 134.664414 
L 500.230131 147.011611 
L 506.20924 133.407344 
L 512.188349 148.410185 
L 518.167459 131.873172 
L 524.146568 150.07644 
L 530.125677 130.088036 
L 536.104787 152.03605 
L 542.083896 127.873256 
L 548.063005 154.481899 
L 554.042114 125.188422 
L 560.021224 157.489374 
L 566.000333 121.931652 
L 571.979442 161.049922 
L 577.958551 117.971116 
L 583.937661 165.386769 
L 589.91677 113.229592 
L 595.895879 170.562918 
L 601.874989 107.559648 
L 607.854098 176.816084 
L 613.833207 100.61361 
L 619.812316 184.46313 
L 625.791426 92.25217 
L 631.770535 193.653697 
L 637.749644 82.110858 
L 643.728753 204.813748 
L 649.707863 69.848929 
L 655.686972 218.29876 
L 661.666081 54.988552 
L 667.645191 234.679757 
L 673.6243 37.028636 
L 679.603409 254.401364 
" clip-path="url(#p4bbc410052)" style="fill: none; stroke: #1f77b4; stroke-width: 1.5; stroke-linecap: square"/>
   </g>
   <g id="patch_3">
    <path d="M 58.075 265.27 
L 58.075 26.16 
" style="fill: none; stroke: #000000; stroke-width: 0.8; stroke-linejoin: miter; stroke-linecap: square"/>
   </g>
   <g id="patch_4">
    <path d="M 709.2 265.27 
L 709.2 26.16 
" style="fill: none; stroke: #000000; stroke-width: 0.8; stroke-linejoin: miter; stroke-linecap: square"/>
   </g>
   <g id="patch_5">
    <path d="M 58.075 265.27 
L 709.2 265.27 
" style="fill: none; stroke: #000000; stroke-width: 0.8; stroke-linejoin: miter; stroke-linecap: square"/>
   </g>
   <g id="patch_6">
    <path d="M 58.075 26.16 
L 709.2 26.16 
" style="fill: none; stroke: #000000; stroke-width: 0.8; stroke-linejoin: miter; stroke-linecap: square"/>
   </g>
   <g id="text_6">
    <!-- One Realization of AR(1) Process with ϕ=-1.1 -->
    <g transform="translate(248.323437 20.16) scale(0.12 -0.12)">
     <defs>
      <path id="DejaVuSans-4f" d="M 2522 4238 
Q 1834 4238 1429 3725 
Q 1025 3213 1025 2328 
Q 1025 1447 1429 934 
Q 1834 422 2522 422 
Q 3209 422 3611 934 
Q 4013 1447 4013 2328 
Q 4013 3213 3611 3725 
Q 3209 4238 2522 4238 
z
M 2522 4750 
Q 3503 4750 4090 4092 
Q 4678 3434 4678 2328 
Q 4678 1225 4090 567 
Q 3503 -91 2522 -91 
Q 1538 -91 948 565 
Q 359 1222 359 2328 
Q 359 3434 948 4092 
Q 1538 4750 2522 4750 
z
" transform="scale(0.015625)"/>
      <path id="DejaVuSans-6e" d="M 3513 2113 
L 3513 0 
L 2938 0 
L 2938 2094 
Q 2938 2591 2744 2837 
Q 2550 3084 2163 3084 
Q 1697 3084 1428 2787 
Q 1159 2491 1159 1978 
L 1159 0 
L 581 0 
L 581 3500 
L 1159 3500 
L 1159 2956 
Q 1366 3272 1645 3428 
Q 1925 3584 2291 3584 
Q 2894 3584 3203 3211 
Q 3513 2838 3513 2113 
z
" transform="scale(0.015625)"/>
      <path id="DejaVuSans-65" d="M 3597 1894 
L 3597 1613 
L 953 1613 
Q 991 1019 1311 708 
Q 1631 397 2203 397 
Q 2534 397 2845 478 
Q 3156 559 3463 722 
L 3463 178 
Q 3153 47 2828 -22 
Q 2503 -91 2169 -91 
Q 1331 -91 842 396 
Q 353 884 353 1716 
Q 353 2575 817 3079 
Q 1281 3584 2069 3584 
Q 2775 3584 3186 3129 
Q 3597 2675 3597 1894 
z
M 3022 2063 
Q 3016 2534 2758 2815 
Q 2500 3097 2075 3097 
Q 1594 3097 1305 2825 
Q 1016 2553 972 2059 
L 3022 2063 
z
" transform="scale(0.015625)"/>
      <path id="DejaVuSans-20" transform="scale(0.015625)"/>
      <path id="DejaVuSans-52" d="M 2841 2188 
Q 3044 2119 3236 1894 
Q 3428 1669 3622 1275 
L 4263 0 
L 3584 0 
L 2988 1197 
Q 2756 1666 2539 1819 
Q 2322 1972 1947 1972 
L 1259 1972 
L 1259 0 
L 628 0 
L 628 4666 
L 2053 4666 
Q 2853 4666 3247 4331 
Q 3641 3997 3641 3322 
Q 3641 2881 3436 2590 
Q 3231 2300 2841 2188 
z
M 1259 4147 
L 1259 2491 
L 2053 2491 
Q 2509 2491 2742 2702 
Q 2975 2913 2975 3322 
Q 2975 3731 2742 3939 
Q 2509 4147 2053 4147 
L 1259 4147 
z
" transform="scale(0.015625)"/>
      <path id="DejaVuSans-61" d="M 2194 1759 
Q 1497 1759 1228 1600 
Q 959 1441 959 1056 
Q 959 750 1161 570 
Q 1363 391 1709 391 
Q 2188 391 2477 730 
Q 2766 1069 2766 1631 
L 2766 1759 
L 2194 1759 
z
M 3341 1997 
L 3341 0 
L 2766 0 
L 2766 531 
Q 2569 213 2275 61 
Q 1981 -91 1556 -91 
Q 1019 -91 701 211 
Q 384 513 384 1019 
Q 384 1609 779 1909 
Q 1175 2209 1959 2209 
L 2766 2209 
L 2766 2266 
Q 2766 2663 2505 2880 
Q 2244 3097 1772 3097 
Q 1472 3097 1187 3025 
Q 903 2953 641 2809 
L 641 3341 
Q 956 3463 1253 3523 
Q 1550 3584 1831 3584 
Q 2591 3584 2966 3190 
Q 3341 2797 3341 1997 
z
" transform="scale(0.015625)"/>
      <path id="DejaVuSans-6c" d="M 603 4863 
L 1178 4863 
L 1178 0 
L 603 0 
L 603 4863 
z
" transform="scale(0.015625)"/>
      <path id="DejaVuSans-69" d="M 603 3500 
L 1178 3500 
L 1178 0 
L 603 0 
L 603 3500 
z
M 603 4863 
L 1178 4863 
L 1178 4134 
L 603 4134 
L 603 4863 
z
" transform="scale(0.015625)"/>
      <path id="DejaVuSans-7a" d="M 353 3500 
L 3084 3500 
L 3084 2975 
L 922 459 
L 3084 459 
L 3084 0 
L 275 0 
L 275 525 
L 2438 3041 
L 353 3041 
L 353 3500 
z
" transform="scale(0.015625)"/>
      <path id="DejaVuSans-74" d="M 1172 4494 
L 1172 3500 
L 2356 3500 
L 2356 3053 
L 1172 3053 
L 1172 1153 
Q 1172 725 1289 603 
Q 1406 481 1766 481 
L 2356 481 
L 2356 0 
L 1766 0 
Q 1100 0 847 248 
Q 594 497 594 1153 
L 594 3053 
L 172 3053 
L 172 3500 
L 594 3500 
L 594 4494 
L 1172 4494 
z
" transform="scale(0.015625)"/>
      <path id="DejaVuSans-6f" d="M 1959 3097 
Q 1497 3097 1228 2736 
Q 959 2375 959 1747 
Q 959 1119 1226 758 
Q 1494 397 1959 397 
Q 2419 397 2687 759 
Q 2956 1122 2956 1747 
Q 2956 2369 2687 2733 
Q 2419 3097 1959 3097 
z
M 1959 3584 
Q 2709 3584 3137 3096 
Q 3566 2609 3566 1747 
Q 3566 888 3137 398 
Q 2709 -91 1959 -91 
Q 1206 -91 779 398 
Q 353 888 353 1747 
Q 353 2609 779 3096 
Q 1206 3584 1959 3584 
z
" transform="scale(0.015625)"/>
      <path id="DejaVuSans-66" d="M 2375 4863 
L 2375 4384 
L 1825 4384 
Q 1516 4384 1395 4259 
Q 1275 4134 1275 3809 
L 1275 3500 
L 2222 3500 
L 2222 3053 
L 1275 3053 
L 1275 0 
L 697 0 
L 697 3053 
L 147 3053 
L 147 3500 
L 697 3500 
L 697 3744 
Q 697 4328 969 4595 
Q 1241 4863 1831 4863 
L 2375 4863 
z
" transform="scale(0.015625)"/>
      <path id="DejaVuSans-41" d="M 2188 4044 
L 1331 1722 
L 3047 1722 
L 2188 4044 
z
M 1831 4666 
L 2547 4666 
L 4325 0 
L 3669 0 
L 3244 1197 
L 1141 1197 
L 716 0 
L 50 0 
L 1831 4666 
z
" transform="scale(0.015625)"/>
      <path id="DejaVuSans-28" d="M 1984 4856 
Q 1566 4138 1362 3434 
Q 1159 2731 1159 2009 
Q 1159 1288 1364 580 
Q 1569 -128 1984 -844 
L 1484 -844 
Q 1016 -109 783 600 
Q 550 1309 550 2009 
Q 550 2706 781 3412 
Q 1013 4119 1484 4856 
L 1984 4856 
z
" transform="scale(0.015625)"/>
      <path id="DejaVuSans-31" d="M 794 531 
L 1825 531 
L 1825 4091 
L 703 3866 
L 703 4441 
L 1819 4666 
L 2450 4666 
L 2450 531 
L 3481 531 
L 3481 0 
L 794 0 
L 794 531 
z
" transform="scale(0.015625)"/>
      <path id="DejaVuSans-29" d="M 513 4856 
L 1013 4856 
Q 1481 4119 1714 3412 
Q 1947 2706 1947 2009 
Q 1947 1309 1714 600 
Q 1481 -109 1013 -844 
L 513 -844 
Q 928 -128 1133 580 
Q 1338 1288 1338 2009 
Q 1338 2731 1133 3434 
Q 928 4138 513 4856 
z
" transform="scale(0.015625)"/>
      <path id="DejaVuSans-50" d="M 1259 4147 
L 1259 2394 
L 2053 2394 
Q 2494 2394 2734 2622 
Q 2975 2850 2975 3272 
Q 2975 3691 2734 3919 
Q 2494 4147 2053 4147 
L 1259 4147 
z
M 628 4666 
L 2053 4666 
Q 2838 4666 3239 4311 
Q 3641 3956 3641 3272 
Q 3641 2581 3239 2228 
Q 2838 1875 2053 1875 
L 1259 1875 
L 1259 0 
L 628 0 
L 628 4666 
z
" transform="scale(0.015625)"/>
      <path id="DejaVuSans-72" d="M 2631 2963 
Q 2534 3019 2420 3045 
Q 2306 3072 2169 3072 
Q 1681 3072 1420 2755 
Q 1159 2438 1159 1844 
L 1159 0 
L 581 0 
L 581 3500 
L 1159 3500 
L 1159 2956 
Q 1341 3275 1631 3429 
Q 1922 3584 2338 3584 
Q 2397 3584 2469 3576 
Q 2541 3569 2628 3553 
L 2631 2963 
z
" transform="scale(0.015625)"/>
      <path id="DejaVuSans-63" d="M 3122 3366 
L 3122 2828 
Q 2878 2963 2633 3030 
Q 2388 3097 2138 3097 
Q 1578 3097 1268 2742 
Q 959 2388 959 1747 
Q 959 1106 1268 751 
Q 1578 397 2138 397 
Q 2388 397 2633 464 
Q 2878 531 3122 666 
L 3122 134 
Q 2881 22 2623 -34 
Q 2366 -91 2075 -91 
Q 1284 -91 818 406 
Q 353 903 353 1747 
Q 353 2603 823 3093 
Q 1294 3584 2113 3584 
Q 2378 3584 2631 3529 
Q 2884 3475 3122 3366 
z
" transform="scale(0.015625)"/>
      <path id="DejaVuSans-73" d="M 2834 3397 
L 2834 2853 
Q 2591 2978 2328 3040 
Q 2066 3103 1784 3103 
Q 1356 3103 1142 2972 
Q 928 2841 928 2578 
Q 928 2378 1081 2264 
Q 1234 2150 1697 2047 
L 1894 2003 
Q 2506 1872 2764 1633 
Q 3022 1394 3022 966 
Q 3022 478 2636 193 
Q 2250 -91 1575 -91 
Q 1294 -91 989 -36 
Q 684 19 347 128 
L 347 722 
Q 666 556 975 473 
Q 1284 391 1588 391 
Q 1994 391 2212 530 
Q 2431 669 2431 922 
Q 2431 1156 2273 1281 
Q 2116 1406 1581 1522 
L 1381 1569 
Q 847 1681 609 1914 
Q 372 2147 372 2553 
Q 372 3047 722 3315 
Q 1072 3584 1716 3584 
Q 2034 3584 2315 3537 
Q 2597 3491 2834 3397 
z
" transform="scale(0.015625)"/>
      <path id="DejaVuSans-77" d="M 269 3500 
L 844 3500 
L 1563 769 
L 2278 3500 
L 2956 3500 
L 3675 769 
L 4391 3500 
L 4966 3500 
L 4050 0 
L 3372 0 
L 2619 2869 
L 1863 0 
L 1184 0 
L 269 3500 
z
" transform="scale(0.015625)"/>
      <path id="DejaVuSans-68" d="M 3513 2113 
L 3513 0 
L 2938 0 
L 2938 2094 
Q 2938 2591 2744 2837 
Q 2550 3084 2163 3084 
Q 1697 3084 1428 2787 
Q 1159 2491 1159 1978 
L 1159 0 
L 581 0 
L 581 4863 
L 1159 4863 
L 1159 2956 
Q 1366 3272 1645 3428 
Q 1925 3584 2291 3584 
Q 2894 3584 3203 3211 
Q 3513 2838 3513 2113 
z
" transform="scale(0.015625)"/>
      <path id="DejaVuSans-3d5" d="M 2388 4863 
L 2388 3572 
Q 3009 3572 3425 3094 
Q 3853 2606 3853 1747 
Q 3853 888 3425 400 
Q 3009 -78 2388 -78 
L 2388 -1331 
L 1816 -1331 
L 1816 -78 
Q 1194 -78 775 400 
Q 350 888 350 1747 
Q 350 2606 775 3094 
Q 1194 3572 1816 3572 
L 1816 4863 
L 2388 4863 
z
M 2388 434 
Q 2741 434 2981 756 
Q 3244 1116 3247 1747 
Q 3250 2372 2981 2738 
Q 2741 3059 2388 3059 
L 2388 434 
z
M 1816 434 
L 1816 3059 
Q 1463 3059 1225 2738 
Q 953 2372 956 1747 
Q 959 1116 1225 756 
Q 1463 434 1816 434 
z
" transform="scale(0.015625)"/>
      <path id="DejaVuSans-3d" d="M 678 2906 
L 4684 2906 
L 4684 2381 
L 678 2381 
L 678 2906 
z
M 678 1631 
L 4684 1631 
L 4684 1100 
L 678 1100 
L 678 1631 
z
" transform="scale(0.015625)"/>
      <path id="DejaVuSans-2d" d="M 313 2009 
L 1997 2009 
L 1997 1497 
L 313 1497 
L 313 2009 
z
" transform="scale(0.015625)"/>
      <path id="DejaVuSans-2e" d="M 684 794 
L 1344 794 
L 1344 0 
L 684 0 
L 684 794 
z
" transform="scale(0.015625)"/>
     </defs>
     <use xlink:href="#DejaVuSans-4f"/>
     <use xlink:href="#DejaVuSans-6e" x="78.710938"/>
     <use xlink:href="#DejaVuSans-65" x="142.089844"/>
     <use xlink:href="#DejaVuSans-20" x="203.613281"/>
     <use xlink:href="#DejaVuSans-52" x="235.400391"/>
     <use xlink:href="#DejaVuSans-65" x="300.382812"/>
     <use xlink:href="#DejaVuSans-61" x="361.90625"/>
     <use xlink:href="#DejaVuSans-6c" x="423.185547"/>
     <use xlink:href="#DejaVuSans-69" x="450.96875"/>
     <use xlink:href="#DejaVuSans-7a" x="478.751953"/>
     <use xlink:href="#DejaVuSans-61" x="531.242188"/>
     <use xlink:href="#DejaVuSans-74" x="592.521484"/>
     <use xlink:href="#DejaVuSans-69" x="631.730469"/>
     <use xlink:href="#DejaVuSans-6f" x="659.513672"/>
     <use xlink:href="#DejaVuSans-6e" x="720.695312"/>
     <use xlink:href="#DejaVuSans-20" x="784.074219"/>
     <use xlink:href="#DejaVuSans-6f" x="815.861328"/>
     <use xlink:href="#DejaVuSans-66" x="877.042969"/>
     <use xlink:href="#DejaVuSans-20" x="912.248047"/>
     <use xlink:href="#DejaVuSans-41" x="944.035156"/>
     <use xlink:href="#DejaVuSans-52" x="1012.443359"/>
     <use xlink:href="#DejaVuSans-28" x="1081.925781"/>
     <use xlink:href="#DejaVuSans-31" x="1120.939453"/>
     <use xlink:href="#DejaVuSans-29" x="1184.5625"/>
     <use xlink:href="#DejaVuSans-20" x="1223.576172"/>
     <use xlink:href="#DejaVuSans-50" x="1255.363281"/>
     <use xlink:href="#DejaVuSans-72" x="1313.916016"/>
     <use xlink:href="#DejaVuSans-6f" x="1352.779297"/>
     <use xlink:href="#DejaVuSans-63" x="1413.960938"/>
     <use xlink:href="#DejaVuSans-65" x="1468.941406"/>
     <use xlink:href="#DejaVuSans-73" x="1530.464844"/>
     <use xlink:href="#DejaVuSans-73" x="1582.564453"/>
     <use xlink:href="#DejaVuSans-20" x="1634.664062"/>
     <use xlink:href="#DejaVuSans-77" x="1666.451172"/>
     <use xlink:href="#DejaVuSans-69" x="1748.238281"/>
     <use xlink:href="#DejaVuSans-74" x="1776.021484"/>
     <use xlink:href="#DejaVuSans-68" x="1815.230469"/>
     <use xlink:href="#DejaVuSans-20" x="1878.609375"/>
     <use xlink:href="#DejaVuSans-3d5" x="1910.396484"/>
     <use xlink:href="#DejaVuSans-3d" x="1976.363281"/>
     <use xlink:href="#DejaVuSans-2d" x="2060.152344"/>
     <use xlink:href="#DejaVuSans-31" x="2096.236328"/>
     <use xlink:href="#DejaVuSans-2e" x="2159.859375"/>
     <use xlink:href="#DejaVuSans-31" x="2191.646484"/>
    </g>
   </g>
   <g id="legend_1">
    <g id="patch_7">
     <path d="M 65.075 48.838125 
L 241.120313 48.838125 
Q 243.120313 48.838125 243.120313 46.838125 
L 243.120313 33.16 
Q 243.120313 31.16 241.120313 31.16 
L 65.075 31.16 
Q 63.075 31.16 63.075 33.16 
L 63.075 46.838125 
Q 63.075 48.838125 65.075 48.838125 
z
" style="fill: #ffffff; opacity: 0.8; stroke: #cccccc; stroke-linejoin: miter"/>
    </g>
    <g id="line2d_13">
     <path d="M 67.075 39.258438 
L 77.075 39.258438 
L 87.075 39.258438 
" style="fill: none; stroke: #1f77b4; stroke-width: 1.5; stroke-linecap: square"/>
    </g>
    <g id="text_7">
     <!-- AR(1) with c=1, σ=1, ϕ=-1.1 -->
     <g transform="translate(95.075 42.758438) scale(0.1 -0.1)">
      <defs>
       <path id="DejaVuSans-2c" d="M 750 794 
L 1409 794 
L 1409 256 
L 897 -744 
L 494 -744 
L 750 256 
L 750 794 
z
" transform="scale(0.015625)"/>
       <path id="DejaVuSans-3c3" d="M 1959 3044 
Q 1484 3044 1228 2700 
Q 959 2341 959 1747 
Q 959 1119 1226 758 
Q 1494 397 1959 397 
Q 2419 397 2687 759 
Q 2956 1122 2956 1747 
Q 2956 2319 2688 2700 
Q 2441 3044 1959 3044 
z
M 1959 3500 
L 3869 3500 
L 3869 2925 
L 3225 2925 
Q 3566 2438 3566 1747 
Q 3566 888 3138 400 
Q 2709 -91 1959 -91 
Q 1206 -91 781 400 
Q 353 888 353 1747 
Q 353 2613 781 3097 
Q 1134 3500 1959 3500 
z
" transform="scale(0.015625)"/>
      </defs>
      <use xlink:href="#DejaVuSans-41"/>
      <use xlink:href="#DejaVuSans-52" x="68.408203"/>
      <use xlink:href="#DejaVuSans-28" x="137.890625"/>
      <use xlink:href="#DejaVuSans-31" x="176.904297"/>
      <use xlink:href="#DejaVuSans-29" x="240.527344"/>
      <use xlink:href="#DejaVuSans-20" x="279.541016"/>
      <use xlink:href="#DejaVuSans-77" x="311.328125"/>
      <use xlink:href="#DejaVuSans-69" x="393.115234"/>
      <use xlink:href="#DejaVuSans-74" x="420.898438"/>
      <use xlink:href="#DejaVuSans-68" x="460.107422"/>
      <use xlink:href="#DejaVuSans-20" x="523.486328"/>
      <use xlink:href="#DejaVuSans-63" x="555.273438"/>
      <use xlink:href="#DejaVuSans-3d" x="610.253906"/>
      <use xlink:href="#DejaVuSans-31" x="694.042969"/>
      <use xlink:href="#DejaVuSans-2c" x="757.666016"/>
      <use xlink:href="#DejaVuSans-20" x="789.453125"/>
      <use xlink:href="#DejaVuSans-3c3" x="821.240234"/>
      <use xlink:href="#DejaVuSans-3d" x="884.619141"/>
      <use xlink:href="#DejaVuSans-31" x="968.408203"/>
      <use xlink:href="#DejaVuSans-2c" x="1032.03125"/>
      <use xlink:href="#DejaVuSans-20" x="1063.818359"/>
      <use xlink:href="#DejaVuSans-3d5" x="1095.605469"/>
      <use xlink:href="#DejaVuSans-3d" x="1161.572266"/>
      <use xlink:href="#DejaVuSans-2d" x="1245.361328"/>
      <use xlink:href="#DejaVuSans-31" x="1281.445312"/>
      <use xlink:href="#DejaVuSans-2e" x="1345.068359"/>
      <use xlink:href="#DejaVuSans-31" x="1376.855469"/>
     </g>
    </g>
   </g>
  </g>
  <g id="axes_2">
   <g id="patch_8">
    <path d="M 58.075 534.04 
L 709.2 534.04 
L 709.2 294.93 
L 58.075 294.93 
z
" style="fill: #ffffff"/>
   </g>
   <g id="matplotlib.axis_3">
    <g id="xtick_7">
     <g id="line2d_14">
      <g>
       <use xlink:href="#m0dc945c0d1" x="87.671591" y="534.04" style="stroke: #000000; stroke-width: 0.8"/>
      </g>
     </g>
     <g id="text_8">
      <!-- 0 -->
      <g transform="translate(84.490341 548.638438) scale(0.1 -0.1)">
       <use xlink:href="#DejaVuSans-30"/>
      </g>
     </g>
    </g>
    <g id="xtick_8">
     <g id="line2d_15">
      <g>
       <use xlink:href="#m0dc945c0d1" x="207.253776" y="534.04" style="stroke: #000000; stroke-width: 0.8"/>
      </g>
     </g>
     <g id="text_9">
      <!-- 20 -->
      <g transform="translate(200.891276 548.638438) scale(0.1 -0.1)">
       <use xlink:href="#DejaVuSans-32"/>
       <use xlink:href="#DejaVuSans-30" x="63.623047"/>
      </g>
     </g>
    </g>
    <g id="xtick_9">
     <g id="line2d_16">
      <g>
       <use xlink:href="#m0dc945c0d1" x="326.835962" y="534.04" style="stroke: #000000; stroke-width: 0.8"/>
      </g>
     </g>
     <g id="text_10">
      <!-- 40 -->
      <g transform="translate(320.473462 548.638438) scale(0.1 -0.1)">
       <use xlink:href="#DejaVuSans-34"/>
       <use xlink:href="#DejaVuSans-30" x="63.623047"/>
      </g>
     </g>
    </g>
    <g id="xtick_10">
     <g id="line2d_17">
      <g>
       <use xlink:href="#m0dc945c0d1" x="446.418147" y="534.04" style="stroke: #000000; stroke-width: 0.8"/>
      </g>
     </g>
     <g id="text_11">
      <!-- 60 -->
      <g transform="translate(440.055647 548.638438) scale(0.1 -0.1)">
       <defs>
        <path id="DejaVuSans-36" d="M 2113 2584 
Q 1688 2584 1439 2293 
Q 1191 2003 1191 1497 
Q 1191 994 1439 701 
Q 1688 409 2113 409 
Q 2538 409 2786 701 
Q 3034 994 3034 1497 
Q 3034 2003 2786 2293 
Q 2538 2584 2113 2584 
z
M 3366 4563 
L 3366 3988 
Q 3128 4100 2886 4159 
Q 2644 4219 2406 4219 
Q 1781 4219 1451 3797 
Q 1122 3375 1075 2522 
Q 1259 2794 1537 2939 
Q 1816 3084 2150 3084 
Q 2853 3084 3261 2657 
Q 3669 2231 3669 1497 
Q 3669 778 3244 343 
Q 2819 -91 2113 -91 
Q 1303 -91 875 529 
Q 447 1150 447 2328 
Q 447 3434 972 4092 
Q 1497 4750 2381 4750 
Q 2619 4750 2861 4703 
Q 3103 4656 3366 4563 
z
" transform="scale(0.015625)"/>
       </defs>
       <use xlink:href="#DejaVuSans-36"/>
       <use xlink:href="#DejaVuSans-30" x="63.623047"/>
      </g>
     </g>
    </g>
    <g id="xtick_11">
     <g id="line2d_18">
      <g>
       <use xlink:href="#m0dc945c0d1" x="566.000333" y="534.04" style="stroke: #000000; stroke-width: 0.8"/>
      </g>
     </g>
     <g id="text_12">
      <!-- 80 -->
      <g transform="translate(559.637833 548.638438) scale(0.1 -0.1)">
       <defs>
        <path id="DejaVuSans-38" d="M 2034 2216 
Q 1584 2216 1326 1975 
Q 1069 1734 1069 1313 
Q 1069 891 1326 650 
Q 1584 409 2034 409 
Q 2484 409 2743 651 
Q 3003 894 3003 1313 
Q 3003 1734 2745 1975 
Q 2488 2216 2034 2216 
z
M 1403 2484 
Q 997 2584 770 2862 
Q 544 3141 544 3541 
Q 544 4100 942 4425 
Q 1341 4750 2034 4750 
Q 2731 4750 3128 4425 
Q 3525 4100 3525 3541 
Q 3525 3141 3298 2862 
Q 3072 2584 2669 2484 
Q 3125 2378 3379 2068 
Q 3634 1759 3634 1313 
Q 3634 634 3220 271 
Q 2806 -91 2034 -91 
Q 1263 -91 848 271 
Q 434 634 434 1313 
Q 434 1759 690 2068 
Q 947 2378 1403 2484 
z
M 1172 3481 
Q 1172 3119 1398 2916 
Q 1625 2713 2034 2713 
Q 2441 2713 2670 2916 
Q 2900 3119 2900 3481 
Q 2900 3844 2670 4047 
Q 2441 4250 2034 4250 
Q 1625 4250 1398 4047 
Q 1172 3844 1172 3481 
z
" transform="scale(0.015625)"/>
       </defs>
       <use xlink:href="#DejaVuSans-38"/>
       <use xlink:href="#DejaVuSans-30" x="63.623047"/>
      </g>
     </g>
    </g>
    <g id="xtick_12">
     <g id="line2d_19">
      <g>
       <use xlink:href="#m0dc945c0d1" x="685.582518" y="534.04" style="stroke: #000000; stroke-width: 0.8"/>
      </g>
     </g>
     <g id="text_13">
      <!-- 100 -->
      <g transform="translate(676.038768 548.638438) scale(0.1 -0.1)">
       <use xlink:href="#DejaVuSans-31"/>
       <use xlink:href="#DejaVuSans-30" x="63.623047"/>
       <use xlink:href="#DejaVuSans-30" x="127.246094"/>
      </g>
     </g>
    </g>
    <g id="text_14">
     <!-- t -->
     <g transform="translate(381.677344 562.316562) scale(0.1 -0.1)">
      <use xlink:href="#DejaVuSans-74"/>
     </g>
    </g>
   </g>
   <g id="matplotlib.axis_4">
    <g id="ytick_6">
     <g id="line2d_20">
      <g>
       <use xlink:href="#mdb3dab76ed" x="58.075" y="511.35831" style="stroke: #000000; stroke-width: 0.8"/>
      </g>
     </g>
     <g id="text_15">
      <!-- −60000 -->
      <g transform="translate(10.882812 515.157529) scale(0.1 -0.1)">
       <use xlink:href="#DejaVuSans-2212"/>
       <use xlink:href="#DejaVuSans-36" x="83.789062"/>
       <use xlink:href="#DejaVuSans-30" x="147.412109"/>
       <use xlink:href="#DejaVuSans-30" x="211.035156"/>
       <use xlink:href="#DejaVuSans-30" x="274.658203"/>
       <use xlink:href="#DejaVuSans-30" x="338.28125"/>
      </g>
     </g>
    </g>
    <g id="ytick_7">
     <g id="line2d_21">
      <g>
       <use xlink:href="#mdb3dab76ed" x="58.075" y="479.672523" style="stroke: #000000; stroke-width: 0.8"/>
      </g>
     </g>
     <g id="text_16">
      <!-- −40000 -->
      <g transform="translate(10.882812 483.471742) scale(0.1 -0.1)">
       <use xlink:href="#DejaVuSans-2212"/>
       <use xlink:href="#DejaVuSans-34" x="83.789062"/>
       <use xlink:href="#DejaVuSans-30" x="147.412109"/>
       <use xlink:href="#DejaVuSans-30" x="211.035156"/>
       <use xlink:href="#DejaVuSans-30" x="274.658203"/>
       <use xlink:href="#DejaVuSans-30" x="338.28125"/>
      </g>
     </g>
    </g>
    <g id="ytick_8">
     <g id="line2d_22">
      <g>
       <use xlink:href="#mdb3dab76ed" x="58.075" y="447.986736" style="stroke: #000000; stroke-width: 0.8"/>
      </g>
     </g>
     <g id="text_17">
      <!-- −20000 -->
      <g transform="translate(10.882812 451.785955) scale(0.1 -0.1)">
       <use xlink:href="#DejaVuSans-2212"/>
       <use xlink:href="#DejaVuSans-32" x="83.789062"/>
       <use xlink:href="#DejaVuSans-30" x="147.412109"/>
       <use xlink:href="#DejaVuSans-30" x="211.035156"/>
       <use xlink:href="#DejaVuSans-30" x="274.658203"/>
       <use xlink:href="#DejaVuSans-30" x="338.28125"/>
      </g>
     </g>
    </g>
    <g id="ytick_9">
     <g id="line2d_23">
      <g>
       <use xlink:href="#mdb3dab76ed" x="58.075" y="416.300949" style="stroke: #000000; stroke-width: 0.8"/>
      </g>
     </g>
     <g id="text_18">
      <!-- 0 -->
      <g transform="translate(44.7125 420.100168) scale(0.1 -0.1)">
       <use xlink:href="#DejaVuSans-30"/>
      </g>
     </g>
    </g>
    <g id="ytick_10">
     <g id="line2d_24">
      <g>
       <use xlink:href="#mdb3dab76ed" x="58.075" y="384.615162" style="stroke: #000000; stroke-width: 0.8"/>
      </g>
     </g>
     <g id="text_19">
      <!-- 20000 -->
      <g transform="translate(19.2625 388.414381) scale(0.1 -0.1)">
       <use xlink:href="#DejaVuSans-32"/>
       <use xlink:href="#DejaVuSans-30" x="63.623047"/>
       <use xlink:href="#DejaVuSans-30" x="127.246094"/>
       <use xlink:href="#DejaVuSans-30" x="190.869141"/>
       <use xlink:href="#DejaVuSans-30" x="254.492188"/>
      </g>
     </g>
    </g>
    <g id="ytick_11">
     <g id="line2d_25">
      <g>
       <use xlink:href="#mdb3dab76ed" x="58.075" y="352.929375" style="stroke: #000000; stroke-width: 0.8"/>
      </g>
     </g>
     <g id="text_20">
      <!-- 40000 -->
      <g transform="translate(19.2625 356.728594) scale(0.1 -0.1)">
       <use xlink:href="#DejaVuSans-34"/>
       <use xlink:href="#DejaVuSans-30" x="63.623047"/>
       <use xlink:href="#DejaVuSans-30" x="127.246094"/>
       <use xlink:href="#DejaVuSans-30" x="190.869141"/>
       <use xlink:href="#DejaVuSans-30" x="254.492188"/>
      </g>
     </g>
    </g>
    <g id="ytick_12">
     <g id="line2d_26">
      <g>
       <use xlink:href="#mdb3dab76ed" x="58.075" y="321.243588" style="stroke: #000000; stroke-width: 0.8"/>
      </g>
     </g>
     <g id="text_21">
      <!-- 60000 -->
      <g transform="translate(19.2625 325.042807) scale(0.1 -0.1)">
       <use xlink:href="#DejaVuSans-36"/>
       <use xlink:href="#DejaVuSans-30" x="63.623047"/>
       <use xlink:href="#DejaVuSans-30" x="127.246094"/>
       <use xlink:href="#DejaVuSans-30" x="190.869141"/>
       <use xlink:href="#DejaVuSans-30" x="254.492188"/>
      </g>
     </g>
    </g>
   </g>
   <g id="line2d_27">
    <path d="M 87.671591 416.298088 
L 93.6507 416.303179 
L 99.629809 416.299466 
L 105.608919 416.301886 
L 111.588028 416.29724 
L 117.567137 416.303736 
L 123.546247 416.294979 
L 129.525356 416.306161 
L 135.504465 416.291239 
L 141.483574 416.30993 
L 147.462684 416.290858 
L 153.441793 416.312465 
L 159.420902 416.285687 
L 165.400011 416.316212 
L 171.379121 416.282478 
L 177.35823 416.317782 
L 183.337339 416.280806 
L 189.316449 416.32322 
L 195.295558 416.27341 
L 201.274667 416.330375 
L 207.253776 416.267234 
L 213.232886 416.335421 
L 219.211995 416.259288 
L 225.191104 416.342425 
L 231.170213 416.254388 
L 237.149323 416.349178 
L 243.128432 416.243461 
L 249.107541 416.36334 
L 255.086651 416.231498 
L 261.06576 416.378009 
L 267.044869 416.21703 
L 273.023978 416.391716 
L 279.003088 416.197758 
L 284.982197 416.413786 
L 290.961306 416.176687 
L 296.940416 416.437276 
L 302.919525 416.148946 
L 308.898634 416.465217 
L 314.877743 416.119347 
L 320.856853 416.500236 
L 326.835962 416.079124 
L 332.815071 416.545882 
L 338.79418 416.033529 
L 344.77329 416.5924 
L 350.752399 415.977475 
L 356.731508 416.654035 
L 362.710618 415.910301 
L 368.689727 416.728758 
L 374.668836 415.82957 
L 380.647945 416.819951 
L 386.627055 415.730947 
L 392.606164 416.929165 
L 398.585273 415.604914 
L 404.564382 417.066979 
L 410.543492 415.454689 
L 416.522601 417.22884 
L 422.50171 415.278655 
L 428.48082 417.426209 
L 434.459929 415.062554 
L 440.439038 417.659589 
L 446.418147 414.80272 
L 452.397257 417.946619 
L 458.376366 414.489185 
L 464.355475 418.290203 
L 470.334584 414.1117 
L 476.313694 418.70564 
L 482.292803 413.654088 
L 488.271912 419.205965 
L 494.251022 413.104525 
L 500.230131 419.817707 
L 506.20924 412.430735 
L 512.188349 420.557017 
L 518.167459 411.618204 
L 524.146568 421.448698 
L 530.125677 410.635797 
L 536.104787 422.533993 
L 542.083896 409.443025 
L 548.063005 423.842675 
L 554.042114 408.002975 
L 560.021224 425.429426 
L 566.000333 406.258627 
L 571.979442 427.346562 
L 577.958551 404.150117 
L 583.937661 429.664247 
L 589.91677 401.600624 
L 595.895879 432.465694 
L 601.874989 398.516404 
L 607.854098 435.860267 
L 613.833207 394.784844 
L 619.812316 439.966981 
L 625.791426 390.268963 
L 631.770535 444.934099 
L 637.749644 384.801893 
L 643.728753 450.948944 
L 649.707863 378.186042 
L 655.686972 458.225167 
L 661.666081 370.183244 
L 667.645191 467.030167 
L 673.6243 360.493015 
L 679.603409 477.687641 
" clip-path="url(#pb713bd5e01)" style="fill: none; stroke: #1f77b4; stroke-width: 1.5; stroke-linecap: square"/>
   </g>
   <g id="line2d_28">
    <path d="M 87.671591 416.300391 
L 93.6507 416.298491 
L 99.629809 416.301693 
L 105.608919 416.298559 
L 111.588028 416.301333 
L 117.567137 416.29936 
L 123.546247 416.301497 
L 129.525356 416.298583 
L 135.504465 416.301107 
L 141.483574 416.301627 
L 147.462684 416.297831 
L 153.441793 416.303037 
L 159.420902 416.293448 
L 165.400011 416.307621 
L 171.379121 416.290964 
L 177.35823 416.31105 
L 183.337339 416.288228 
L 189.316449 416.313048 
L 195.295558 416.283022 
L 201.274667 416.319151 
L 207.253776 416.278249 
L 213.232886 416.323787 
L 219.211995 416.272269 
L 225.191104 416.330627 
L 231.170213 416.264547 
L 237.149323 416.340268 
L 243.128432 416.257068 
L 249.107541 416.349472 
L 255.086651 416.243614 
L 261.06576 416.363017 
L 267.044869 416.231992 
L 273.023978 416.380217 
L 279.003088 416.212734 
L 284.982197 416.39829 
L 290.961306 416.191796 
L 296.940416 416.41954 
L 302.919525 416.165762 
L 308.898634 416.444726 
L 314.877743 416.139554 
L 320.856853 416.476732 
L 326.835962 416.103584 
L 332.815071 416.515987 
L 338.79418 416.062714 
L 344.77329 416.563378 
L 350.752399 416.011019 
L 356.731508 416.620901 
L 362.710618 415.950577 
L 368.689727 416.681913 
L 374.668836 415.880938 
L 380.647945 416.761288 
L 386.627055 415.793586 
L 392.606164 416.853866 
L 398.585273 415.690519 
L 404.564382 416.96962 
L 410.543492 415.56408 
L 416.522601 417.107472 
L 422.50171 415.411881 
L 428.48082 417.279635 
L 434.459929 415.224113 
L 440.439038 417.48482 
L 446.418147 414.998008 
L 452.397257 417.73226 
L 458.376366 414.725037 
L 464.355475 418.033607 
L 470.334584 414.3918 
L 476.313694 418.398696 
L 482.292803 413.992905 
L 488.271912 418.837697 
L 494.251022 413.507599 
L 500.230131 419.371527 
L 506.20924 412.922466 
L 512.188349 420.013458 
L 518.167459 412.216566 
L 524.146568 420.789532 
L 530.125677 411.361466 
L 536.104787 421.733893 
L 542.083896 410.325729 
L 548.063005 422.873897 
L 554.042114 409.067399 
L 560.021224 424.257253 
L 566.000333 407.548952 
L 571.979442 425.924206 
L 577.958551 405.713351 
L 583.937661 427.946228 
L 589.91677 403.488342 
L 595.895879 430.393289 
L 601.874989 400.799588 
L 607.854098 433.351033 
L 613.833207 397.54533 
L 619.812316 436.930048 
L 625.791426 393.606035 
L 631.770535 441.26359 
L 637.749644 388.841245 
L 643.728753 446.505088 
L 649.707863 383.077434 
L 655.686972 452.845135 
L 661.666081 376.099393 
L 667.645191 460.521076 
L 673.6243 367.656894 
L 679.603409 469.808199 
" clip-path="url(#pb713bd5e01)" style="fill: none; stroke: #ff7f0e; stroke-width: 1.5; stroke-linecap: square"/>
   </g>
   <g id="line2d_29">
    <path d="M 87.671591 416.300518 
L 93.6507 416.300844 
L 99.629809 416.301794 
L 105.608919 416.300364 
L 111.588028 416.301666 
L 117.567137 416.296935 
L 123.546247 416.303392 
L 129.525356 416.297611 
L 135.504465 416.304762 
L 141.483574 416.295263 
L 147.462684 416.305969 
L 153.441793 416.293434 
L 159.420902 416.30832 
L 165.400011 416.292025 
L 171.379121 416.307124 
L 177.35823 416.295265 
L 183.337339 416.306688 
L 189.316449 416.29514 
L 195.295558 416.306192 
L 201.274667 416.295089 
L 207.253776 416.308125 
L 213.232886 416.292157 
L 219.211995 416.308469 
L 225.191104 416.292809 
L 231.170213 416.307579 
L 237.149323 416.288682 
L 243.128432 416.311566 
L 249.107541 416.287384 
L 255.086651 416.316353 
L 261.06576 416.27975 
L 267.044869 416.324185 
L 273.023978 416.27444 
L 279.003088 416.327176 
L 284.982197 416.269221 
L 290.961306 416.333672 
L 296.940416 416.263966 
L 302.919525 416.34425 
L 308.898634 416.25202 
L 314.877743 416.357346 
L 320.856853 416.23633 
L 326.835962 416.371413 
L 332.815071 416.220034 
L 338.79418 416.388525 
L 344.77329 416.204584 
L 350.752399 416.406302 
L 356.731508 416.184348 
L 362.710618 416.425933 
L 368.689727 416.158653 
L 374.668836 416.456363 
L 380.647945 416.128004 
L 386.627055 416.492961 
L 392.606164 416.086216 
L 398.585273 416.534869 
L 404.564382 416.038731 
L 410.543492 416.590051 
L 416.522601 415.980704 
L 422.50171 416.653891 
L 428.48082 415.908126 
L 434.459929 416.731907 
L 440.439038 415.82506 
L 446.418147 416.821497 
L 452.397257 415.727535 
L 458.376366 416.929351 
L 464.355475 415.607011 
L 470.334584 417.061401 
L 476.313694 415.461499 
L 482.292803 417.220988 
L 488.271912 415.287178 
L 494.251022 417.415073 
L 500.230131 415.074105 
L 506.20924 417.648483 
L 512.188349 414.815979 
L 518.167459 417.935702 
L 524.146568 414.50151 
L 530.125677 418.278864 
L 536.104787 414.124548 
L 542.083896 418.694208 
L 548.063005 413.668986 
L 554.042114 419.194078 
L 560.021224 413.118432 
L 566.000333 419.800306 
L 571.979442 412.451997 
L 577.958551 420.53257 
L 583.937661 411.644196 
L 589.91677 421.422229 
L 595.895879 410.665818 
L 601.874989 422.496732 
L 607.854098 409.485143 
L 613.833207 423.798555 
L 619.812316 408.053936 
L 625.791426 425.373191 
L 631.770535 406.322361 
L 637.749644 427.274632 
L 643.728753 404.229994 
L 649.707863 429.576731 
L 655.686972 401.697087 
L 661.666081 432.360582 
L 667.645191 398.635406 
L 673.6243 435.733308 
L 679.603409 394.925226 
" clip-path="url(#pb713bd5e01)" style="fill: none; stroke: #2ca02c; stroke-width: 1.5; stroke-linecap: square"/>
   </g>
   <g id="line2d_30">
    <path d="M 87.671591 416.298237 
L 93.6507 416.305065 
L 99.629809 416.291502 
L 105.608919 416.311277 
L 111.588028 416.287896 
L 117.567137 416.317497 
L 123.546247 416.282837 
L 129.525356 416.319787 
L 135.504465 416.279568 
L 141.483574 416.32265 
L 147.462684 416.272511 
L 153.441793 416.331076 
L 159.420902 416.266287 
L 165.400011 416.334453 
L 171.379121 416.26607 
L 177.35823 416.338761 
L 183.337339 416.261875 
L 189.316449 416.342803 
L 195.295558 416.252325 
L 201.274667 416.353537 
L 207.253776 416.242861 
L 213.232886 416.365062 
L 219.211995 416.232536 
L 225.191104 416.374262 
L 231.170213 416.219981 
L 237.149323 416.389882 
L 243.128432 416.199074 
L 249.107541 416.411992 
L 255.086651 416.17568 
L 261.06576 416.438286 
L 267.044869 416.148298 
L 273.023978 416.465124 
L 279.003088 416.120509 
L 284.982197 416.499716 
L 290.961306 416.079983 
L 296.940416 416.540484 
L 302.919525 416.035307 
L 308.898634 416.590244 
L 314.877743 415.98305 
L 320.856853 416.650068 
L 326.835962 415.916236 
L 332.815071 416.72516 
L 338.79418 415.832152 
L 344.77329 416.816483 
L 350.752399 415.732506 
L 356.731508 416.926068 
L 362.710618 415.613811 
L 368.689727 417.05529 
L 374.668836 415.468718 
L 380.647945 417.215256 
L 386.627055 415.293791 
L 392.606164 417.405498 
L 398.585273 415.085597 
L 404.564382 417.639357 
L 410.543492 414.828006 
L 416.522601 417.91972 
L 422.50171 414.521487 
L 428.48082 418.255501 
L 434.459929 414.151758 
L 440.439038 418.663699 
L 446.418147 413.698974 
L 452.397257 419.161602 
L 458.376366 413.154109 
L 464.355475 419.759123 
L 470.334584 412.494452 
L 476.313694 420.483288 
L 482.292803 411.698805 
L 488.271912 421.363357 
L 494.251022 410.729564 
L 500.230131 422.427427 
L 506.20924 409.562975 
L 512.188349 423.708671 
L 518.167459 408.149573 
L 524.146568 425.264567 
L 530.125677 406.436116 
L 536.104787 427.150577 
L 542.083896 404.363427 
L 548.063005 429.430681 
L 554.042114 401.858303 
L 560.021224 432.185809 
L 566.000333 398.826961 
L 571.979442 435.51921 
L 577.958551 395.158098 
L 583.937661 439.557498 
L 589.91677 390.715664 
L 595.895879 444.443103 
L 601.874989 385.34159 
L 607.854098 450.353293 
L 613.833207 378.84317 
L 619.812316 457.503906 
L 625.791426 370.978017 
L 631.770535 466.157514 
L 637.749644 361.455604 
L 643.728753 476.627711 
L 649.707863 349.940898 
L 655.686972 489.297143 
L 661.666081 336.004115 
L 667.645191 504.624237 
L 673.6243 319.144315 
L 679.603409 523.171364 
" clip-path="url(#pb713bd5e01)" style="fill: none; stroke: #d62728; stroke-width: 1.5; stroke-linecap: square"/>
   </g>
   <g id="line2d_31">
    <path d="M 87.671591 416.301407 
L 93.6507 416.297846 
L 99.629809 416.304712 
L 105.608919 416.29419 
L 111.588028 416.307752 
L 117.567137 416.293316 
L 123.546247 416.309518 
L 129.525356 416.289145 
L 135.504465 416.312602 
L 141.483574 416.284161 
L 147.462684 416.316886 
L 153.441793 416.283078 
L 159.420902 416.317549 
L 165.400011 416.284765 
L 171.379121 416.316888 
L 177.35823 416.282892 
L 183.337339 416.32028 
L 189.316449 416.280271 
L 195.295558 416.323034 
L 201.274667 416.273381 
L 207.253776 416.329099 
L 213.232886 416.270075 
L 219.211995 416.336119 
L 225.191104 416.25997 
L 231.170213 416.343085 
L 237.149323 416.254366 
L 243.128432 416.350395 
L 249.107541 416.242466 
L 255.086651 416.364167 
L 261.06576 416.230382 
L 267.044869 416.378582 
L 273.023978 416.213724 
L 279.003088 416.396408 
L 284.982197 416.192981 
L 290.961306 416.417982 
L 296.940416 416.168543 
L 302.919525 416.443395 
L 308.898634 416.144266 
L 314.877743 416.473335 
L 320.856853 416.109146 
L 326.835962 416.506684 
L 332.815071 416.074318 
L 338.79418 416.551037 
L 344.77329 416.026802 
L 350.752399 416.602712 
L 356.731508 415.966613 
L 362.710618 416.66675 
L 368.689727 415.897916 
L 374.668836 416.741689 
L 380.647945 415.815857 
L 386.627055 416.832241 
L 392.606164 415.715592 
L 398.585273 416.939487 
L 404.564382 415.597424 
L 410.543492 417.074147 
L 416.522601 415.44903 
L 422.50171 417.237821 
L 428.48082 415.267572 
L 434.459929 417.431902 
L 440.439038 415.055995 
L 446.418147 417.670521 
L 452.397257 414.792337 
L 458.376366 417.96197 
L 464.355475 414.473005 
L 470.334584 418.312763 
L 476.313694 414.083427 
L 482.292803 418.737616 
L 488.271912 413.619083 
L 494.251022 419.248439 
L 500.230131 413.056452 
L 506.20924 419.870324 
L 512.188349 412.374916 
L 518.167459 420.620078 
L 524.146568 411.547156 
L 530.125677 421.526526 
L 536.104787 410.550225 
L 542.083896 422.624111 
L 548.063005 409.344806 
L 554.042114 423.951036 
L 560.021224 407.88418 
L 566.000333 425.557771 
L 571.979442 406.117476 
L 577.958551 427.501768 
L 583.937661 403.980379 
L 589.91677 429.851391 
L 595.895879 401.394826 
L 601.874989 432.696314 
L 607.854098 398.26416 
L 613.833207 436.141253 
L 619.812316 394.475031 
L 625.791426 440.306477 
L 631.770535 389.891759 
L 637.749644 445.34734 
L 643.728753 384.346392 
L 649.707863 451.44946 
L 655.686972 377.636228 
L 661.666081 458.829998 
L 667.645191 369.520113 
L 673.6243 467.759374 
L 679.603409 359.694053 
" clip-path="url(#pb713bd5e01)" style="fill: none; stroke: #9467bd; stroke-width: 1.5; stroke-linecap: square"/>
   </g>
   <g id="line2d_32">
    <path d="M 87.671591 416.301341 
L 93.6507 416.298733 
L 99.629809 416.303162 
L 105.608919 416.298987 
L 111.588028 416.301883 
L 117.567137 416.295251 
L 123.546247 416.306434 
L 129.525356 416.293246 
L 135.504465 416.307461 
L 141.483574 416.294834 
L 147.462684 416.305629 
L 153.441793 416.294457 
L 159.420902 416.306338 
L 165.400011 416.294278 
L 171.379121 416.312794 
L 177.35823 416.289008 
L 183.337339 416.313542 
L 189.316449 416.289191 
L 195.295558 416.311997 
L 201.274667 416.288167 
L 207.253776 416.311948 
L 213.232886 416.288342 
L 219.211995 416.312209 
L 225.191104 416.287206 
L 231.170213 416.314062 
L 237.149323 416.281146 
L 243.128432 416.319356 
L 249.107541 416.278375 
L 255.086651 416.323344 
L 261.06576 416.277074 
L 267.044869 416.325398 
L 273.023978 416.271761 
L 279.003088 416.331035 
L 284.982197 416.268361 
L 290.961306 416.333427 
L 296.940416 416.264905 
L 302.919525 416.341102 
L 308.898634 416.252862 
L 314.877743 416.353802 
L 320.856853 416.240453 
L 326.835962 416.363386 
L 332.815071 416.230294 
L 338.79418 416.377663 
L 344.77329 416.216843 
L 350.752399 416.389887 
L 356.731508 416.201684 
L 362.710618 416.411366 
L 368.689727 416.176383 
L 374.668836 416.435737 
L 380.647945 416.14981 
L 386.627055 416.466798 
L 392.606164 416.115066 
L 398.585273 416.502374 
L 404.564382 416.080686 
L 410.543492 416.540531 
L 416.522601 416.035615 
L 422.50171 416.591239 
L 428.48082 415.980597 
L 434.459929 416.650963 
L 440.439038 415.916562 
L 446.418147 416.722633 
L 452.397257 415.837431 
L 458.376366 416.806174 
L 464.355475 415.746443 
L 470.334584 416.910005 
L 476.313694 415.629516 
L 482.292803 417.035232 
L 488.271912 415.492128 
L 494.251022 417.187393 
L 500.230131 415.324 
L 506.20924 417.371851 
L 512.188349 415.118564 
L 518.167459 417.601607 
L 524.146568 414.869515 
L 530.125677 417.873221 
L 536.104787 414.569488 
L 542.083896 418.204378 
L 548.063005 414.205935 
L 554.042114 418.605887 
L 560.021224 413.763906 
L 566.000333 419.090174 
L 571.979442 413.229038 
L 577.958551 419.675421 
L 583.937661 412.587744 
L 589.91677 420.383145 
L 595.895879 411.808941 
L 601.874989 421.242081 
L 607.854098 410.866235 
L 613.833207 422.279435 
L 619.812316 409.721655 
L 625.791426 423.534786 
L 631.770535 408.340281 
L 637.749644 425.055117 
L 643.728753 406.668079 
L 649.707863 426.896365 
L 655.686972 404.646172 
L 661.666081 429.120465 
L 667.645191 402.196915 
L 673.6243 431.813453 
L 679.603409 399.237167 
" clip-path="url(#pb713bd5e01)" style="fill: none; stroke: #8c564b; stroke-width: 1.5; stroke-linecap: square"/>
   </g>
   <g id="line2d_33">
    <path d="M 87.671591 416.297883 
L 93.6507 416.303289 
L 99.629809 416.299122 
L 105.608919 416.299422 
L 111.588028 416.29922 
L 117.567137 416.301982 
L 123.546247 416.298131 
L 129.525356 416.303178 
L 135.504465 416.298062 
L 141.483574 416.303016 
L 147.462684 416.298645 
L 153.441793 416.301546 
L 159.420902 416.297861 
L 165.400011 416.305609 
L 171.379121 416.294321 
L 177.35823 416.305846 
L 183.337339 416.294986 
L 189.316449 416.304954 
L 195.295558 416.293219 
L 201.274667 416.307289 
L 207.253776 416.29174 
L 213.232886 416.312146 
L 219.211995 416.288032 
L 225.191104 416.310875 
L 231.170213 416.288847 
L 237.149323 416.310714 
L 243.128432 416.288741 
L 249.107541 416.309938 
L 255.086651 416.287594 
L 261.06576 416.315984 
L 267.044869 416.281318 
L 273.023978 416.320905 
L 279.003088 416.277107 
L 284.982197 416.328295 
L 290.961306 416.273025 
L 296.940416 416.329823 
L 302.919525 416.267981 
L 308.898634 416.338085 
L 314.877743 416.258432 
L 320.856853 416.346963 
L 326.835962 416.249358 
L 332.815071 416.357888 
L 338.79418 416.235253 
L 344.77329 416.374329 
L 350.752399 416.222467 
L 356.731508 416.385012 
L 362.710618 416.208532 
L 368.689727 416.400917 
L 374.668836 416.191796 
L 380.647945 416.420602 
L 386.627055 416.168917 
L 392.606164 416.445583 
L 398.585273 416.137111 
L 404.564382 416.477527 
L 410.543492 416.1053 
L 416.522601 416.515612 
L 422.50171 416.063551 
L 428.48082 416.559812 
L 434.459929 416.013655 
L 440.439038 416.617252 
L 446.418147 415.952507 
L 452.397257 416.683401 
L 458.376366 415.878947 
L 464.355475 416.761063 
L 470.334584 415.793597 
L 476.313694 416.8549 
L 482.292803 415.690287 
L 488.271912 416.971445 
L 494.251022 415.563049 
L 500.230131 417.108254 
L 506.20924 415.411767 
L 512.188349 417.276445 
L 518.167459 415.22623 
L 524.146568 417.479602 
L 530.125677 415.003165 
L 536.104787 417.726548 
L 542.083896 414.731907 
L 548.063005 418.026051 
L 554.042114 414.402526 
L 560.021224 418.385802 
L 566.000333 414.006332 
L 571.979442 418.826132 
L 577.958551 413.523827 
L 583.937661 419.35534 
L 589.91677 412.940875 
L 595.895879 419.995958 
L 601.874989 412.234683 
L 607.854098 420.769618 
L 613.833207 411.387429 
L 619.812316 421.705416 
L 625.791426 410.355043 
L 631.770535 422.842126 
L 637.749644 409.102936 
L 643.728753 424.216322 
L 649.707863 407.593147 
L 655.686972 425.87826 
L 661.666081 405.764214 
L 667.645191 427.890992 
L 673.6243 403.55202 
L 679.603409 430.324335 
" clip-path="url(#pb713bd5e01)" style="fill: none; stroke: #e377c2; stroke-width: 1.5; stroke-linecap: square"/>
   </g>
   <g id="line2d_34">
    <path d="M 87.671591 416.300528 
L 93.6507 416.298669 
L 99.629809 416.300679 
L 105.608919 416.300225 
L 111.588028 416.298008 
L 117.567137 416.301546 
L 123.546247 416.298389 
L 129.525356 416.303866 
L 135.504465 416.295352 
L 141.483574 416.30691 
L 147.462684 416.293064 
L 153.441793 416.306657 
L 159.420902 416.293725 
L 165.400011 416.306865 
L 171.379121 416.289748 
L 177.35823 416.312271 
L 183.337339 416.288912 
L 189.316449 416.312871 
L 195.295558 416.286879 
L 201.274667 416.312592 
L 207.253776 416.286643 
L 213.232886 416.313276 
L 219.211995 416.288199 
L 225.191104 416.313404 
L 231.170213 416.284767 
L 237.149323 416.316018 
L 243.128432 416.280284 
L 249.107541 416.320299 
L 255.086651 416.27543 
L 261.06576 416.324115 
L 267.044869 416.276893 
L 273.023978 416.327708 
L 279.003088 416.27034 
L 284.982197 416.333981 
L 290.961306 416.267012 
L 296.940416 416.335355 
L 302.919525 416.260053 
L 308.898634 416.343244 
L 314.877743 416.253996 
L 320.856853 416.349982 
L 326.835962 416.245897 
L 332.815071 416.361272 
L 338.79418 416.23449 
L 344.77329 416.372221 
L 350.752399 416.218696 
L 356.731508 416.389717 
L 362.710618 416.201599 
L 368.689727 416.409201 
L 374.668836 416.178823 
L 380.647945 416.433417 
L 386.627055 416.154669 
L 392.606164 416.460953 
L 398.585273 416.124179 
L 404.564382 416.494654 
L 410.543492 416.087517 
L 416.522601 416.533525 
L 422.50171 416.045409 
L 428.48082 416.580293 
L 434.459929 415.992179 
L 440.439038 416.640441 
L 446.418147 415.925404 
L 452.397257 416.713941 
L 458.376366 415.84802 
L 464.355475 416.795663 
L 470.334584 415.756032 
L 476.313694 416.899574 
L 482.292803 415.642125 
L 488.271912 417.021114 
L 494.251022 415.506532 
L 500.230131 417.172738 
L 506.20924 415.340929 
L 512.188349 417.355509 
L 518.167459 415.140933 
L 524.146568 417.574894 
L 530.125677 414.900149 
L 536.104787 417.841022 
L 542.083896 414.606781 
L 548.063005 418.162208 
L 554.042114 414.252757 
L 560.021224 418.551073 
L 566.000333 413.824327 
L 571.979442 419.023567 
L 577.958551 413.302989 
L 583.937661 419.595925 
L 589.91677 412.677976 
L 595.895879 420.283255 
L 601.874989 411.917328 
L 607.854098 421.120309 
L 613.833207 411.00044 
L 619.812316 422.131518 
L 625.791426 409.88685 
L 631.770535 423.355127 
L 637.749644 408.539515 
L 643.728753 424.837122 
L 649.707863 406.911925 
L 655.686972 426.6288 
L 661.666081 404.93802 
L 667.645191 428.798267 
L 673.6243 402.55228 
L 679.603409 431.423796 
" clip-path="url(#pb713bd5e01)" style="fill: none; stroke: #7f7f7f; stroke-width: 1.5; stroke-linecap: square"/>
   </g>
   <g id="line2d_35">
    <path d="M 87.671591 416.300463 
L 93.6507 416.29917 
L 99.629809 416.301613 
L 105.608919 416.297572 
L 111.588028 416.304228 
L 117.567137 416.296028 
L 123.546247 416.304397 
L 129.525356 416.29605 
L 135.504465 416.30735 
L 141.483574 416.288027 
L 147.462684 416.314701 
L 153.441793 416.283502 
L 159.420902 416.31844 
L 165.400011 416.282403 
L 171.379121 416.322721 
L 177.35823 416.273619 
L 183.337339 416.33005 
L 189.316449 416.267193 
L 195.295558 416.338635 
L 201.274667 416.258632 
L 207.253776 416.346501 
L 213.232886 416.250664 
L 219.211995 416.355482 
L 225.191104 416.237413 
L 231.170213 416.368733 
L 237.149323 416.226415 
L 243.128432 416.38003 
L 249.107541 416.2126 
L 255.086651 416.396867 
L 261.06576 416.194494 
L 267.044869 416.416872 
L 273.023978 416.173649 
L 279.003088 416.437966 
L 284.982197 416.149539 
L 290.961306 416.46393 
L 296.940416 416.120117 
L 302.919525 416.498523 
L 308.898634 416.079475 
L 314.877743 416.542326 
L 320.856853 416.03489 
L 326.835962 416.589955 
L 332.815071 415.978699 
L 338.79418 416.652283 
L 344.77329 415.911289 
L 350.752399 416.726821 
L 356.731508 415.830396 
L 362.710618 416.818202 
L 368.689727 415.728501 
L 374.668836 416.928584 
L 380.647945 415.605761 
L 386.627055 417.063063 
L 392.606164 415.46295 
L 398.585273 417.222263 
L 404.564382 415.285078 
L 410.543492 417.416874 
L 416.522601 415.070527 
L 422.50171 417.652607 
L 428.48082 414.811442 
L 434.459929 417.940596 
L 440.439038 414.496393 
L 446.418147 418.285845 
L 452.397257 414.114485 
L 458.376366 418.706726 
L 464.355475 413.65158 
L 470.334584 419.212141 
L 476.313694 413.098078 
L 482.292803 419.820993 
L 488.271912 412.428144 
L 494.251022 420.558917 
L 500.230131 411.618191 
L 506.20924 421.452312 
L 512.188349 410.632125 
L 518.167459 422.535121 
L 524.146568 409.441503 
L 530.125677 423.847252 
L 536.104787 407.995444 
L 542.083896 425.438121 
L 548.063005 406.248593 
L 554.042114 427.356965 
L 560.021224 404.137894 
L 566.000333 429.679293 
L 571.979442 401.582441 
L 577.958551 432.491463 
L 583.937661 398.487676 
L 589.91677 435.894354 
L 595.895879 394.746973 
L 601.874989 440.006754 
L 607.854098 390.225532 
L 613.833207 444.980225 
L 619.812316 384.752221 
L 625.791426 451.006532 
L 631.770535 378.123116 
L 637.749644 458.293052 
L 643.728753 370.109402 
L 649.707863 467.111074 
L 655.686972 360.409908 
L 661.666081 477.778742 
L 667.645191 348.673324 
L 673.6243 490.688673 
L 679.603409 334.474584 
" clip-path="url(#pb713bd5e01)" style="fill: none; stroke: #bcbd22; stroke-width: 1.5; stroke-linecap: square"/>
   </g>
   <g id="line2d_36">
    <path d="M 87.671591 416.300622 
L 93.6507 416.299664 
L 99.629809 416.301007 
L 105.608919 416.299656 
L 111.588028 416.298758 
L 117.567137 416.304098 
L 123.546247 416.294596 
L 129.525356 416.306645 
L 135.504465 416.291278 
L 141.483574 416.310951 
L 147.462684 416.287513 
L 153.441793 416.317201 
L 159.420902 416.279549 
L 165.400011 416.324009 
L 171.379121 416.275862 
L 177.35823 416.326567 
L 183.337339 416.271447 
L 189.316449 416.331526 
L 195.295558 416.266898 
L 201.274667 416.336621 
L 207.253776 416.257493 
L 213.232886 416.349755 
L 219.211995 416.244045 
L 225.191104 416.363022 
L 231.170213 416.227353 
L 237.149323 416.378929 
L 243.128432 416.213493 
L 249.107541 416.396196 
L 255.086651 416.197052 
L 261.06576 416.411905 
L 267.044869 416.175356 
L 273.023978 416.438068 
L 279.003088 416.147529 
L 284.982197 416.467451 
L 290.961306 416.116882 
L 296.940416 416.501592 
L 302.919525 416.078778 
L 308.898634 416.542779 
L 314.877743 416.033598 
L 320.856853 416.595294 
L 326.835962 415.97502 
L 332.815071 416.658527 
L 338.79418 415.908273 
L 344.77329 416.732958 
L 350.752399 415.824542 
L 356.731508 416.821791 
L 362.710618 415.724324 
L 368.689727 416.935126 
L 374.668836 415.602691 
L 380.647945 417.069915 
L 386.627055 415.455181 
L 392.606164 417.229125 
L 398.585273 415.277268 
L 404.564382 417.426104 
L 410.543492 415.059303 
L 416.522601 417.662537 
L 422.50171 414.800519 
L 428.48082 417.950649 
L 434.459929 414.486847 
L 440.439038 418.294478 
L 446.418147 414.106996 
L 452.397257 418.712553 
L 458.376366 413.647873 
L 464.355475 419.216137 
L 470.334584 413.09461 
L 476.313694 419.8242 
L 482.292803 412.422881 
L 488.271912 420.568093 
L 494.251022 411.604627 
L 500.230131 421.46732 
L 506.20924 410.617342 
L 512.188349 422.552322 
L 518.167459 409.42109 
L 524.146568 423.867031 
L 530.125677 407.975226 
L 536.104787 425.45807 
L 542.083896 406.226242 
L 548.063005 427.382043 
L 554.042114 404.109945 
L 560.021224 429.711325 
L 566.000333 401.545308 
L 571.979442 432.527098 
L 577.958551 398.448938 
L 583.937661 435.936082 
L 589.91677 394.703069 
L 595.895879 440.055722 
L 601.874989 390.170475 
L 607.854098 445.041041 
L 613.833207 384.683149 
L 619.812316 451.076745 
L 625.791426 378.046587 
L 631.770535 458.377401 
L 637.749644 370.014191 
L 643.728753 467.213065 
L 649.707863 360.295982 
L 655.686972 477.905943 
L 661.666081 348.531415 
L 667.645191 490.846872 
L 673.6243 334.297296 
L 679.603409 506.504274 
" clip-path="url(#pb713bd5e01)" style="fill: none; stroke: #17becf; stroke-width: 1.5; stroke-linecap: square"/>
   </g>
   <g id="line2d_37">
    <path d="M 87.671591 416.297163 
L 93.6507 416.301772 
L 99.629809 416.297525 
L 105.608919 416.300903 
L 111.588028 416.300486 
L 117.567137 416.299237 
L 123.546247 416.301794 
L 129.525356 416.296552 
L 135.504465 416.304567 
L 141.483574 416.296626 
L 147.462684 416.30371 
L 153.441793 416.294341 
L 159.420902 416.306695 
L 165.400011 416.291858 
L 171.379121 416.306026 
L 177.35823 416.292022 
L 183.337339 416.309329 
L 189.316449 416.289307 
L 195.295558 416.313314 
L 201.274667 416.284921 
L 207.253776 416.31861 
L 213.232886 416.279636 
L 219.211995 416.323973 
L 225.191104 416.271678 
L 231.170213 416.332975 
L 237.149323 416.265055 
L 243.128432 416.34023 
L 249.107541 416.254024 
L 255.086651 416.350504 
L 261.06576 416.24524 
L 267.044869 416.356409 
L 273.023978 416.237278 
L 279.003088 416.368807 
L 284.982197 416.225699 
L 290.961306 416.381679 
L 296.940416 416.213406 
L 302.919525 416.394189 
L 308.898634 416.196142 
L 314.877743 416.413413 
L 320.856853 416.173172 
L 326.835962 416.4401 
L 332.815071 416.143692 
L 338.79418 416.472729 
L 344.77329 416.110828 
L 350.752399 416.509856 
L 356.731508 416.068766 
L 362.710618 416.554508 
L 368.689727 416.021812 
L 374.668836 416.60682 
L 380.647945 415.960922 
L 386.627055 416.674569 
L 392.606164 415.887196 
L 398.585273 416.758642 
L 404.564382 415.797792 
L 410.543492 416.85486 
L 416.522601 415.690172 
L 422.50171 416.971242 
L 428.48082 415.564494 
L 434.459929 417.111628 
L 440.439038 415.407465 
L 446.418147 417.281703 
L 452.397257 415.222903 
L 458.376366 417.486414 
L 464.355475 414.99735 
L 470.334584 417.734158 
L 476.313694 414.72301 
L 482.292803 418.036581 
L 488.271912 414.391218 
L 494.251022 418.399044 
L 500.230131 413.992828 
L 506.20924 418.838577 
L 512.188349 413.505155 
L 518.167459 419.37456 
L 524.146568 412.920496 
L 530.125677 420.018794 
L 536.104787 412.209425 
L 542.083896 420.800757 
L 548.063005 411.347776 
L 554.042114 421.747804 
L 560.021224 410.309061 
L 566.000333 422.891696 
L 571.979442 409.046647 
L 577.958551 424.279172 
L 583.937661 407.523232 
L 589.91677 425.956378 
L 595.895879 405.680392 
L 601.874989 427.981646 
L 607.854098 403.449169 
L 613.833207 430.437328 
L 619.812316 400.74789 
L 625.791426 433.406534 
L 631.770535 397.482001 
L 637.749644 436.999739 
L 643.728753 393.531919 
L 649.707863 441.343726 
L 655.686972 388.753073 
L 661.666081 446.602547 
L 667.645191 382.971078 
L 673.6243 452.961808 
L 679.603409 375.972297 
" clip-path="url(#pb713bd5e01)" style="fill: none; stroke: #1f77b4; stroke-width: 1.5; stroke-linecap: square"/>
   </g>
   <g id="line2d_38">
    <path d="M 87.671591 416.30071 
L 93.6507 416.304373 
L 99.629809 416.296134 
L 105.608919 416.306195 
L 111.588028 416.29862 
L 117.567137 416.302472 
L 123.546247 416.295802 
L 129.525356 416.304846 
L 135.504465 416.295017 
L 141.483574 416.306544 
L 147.462684 416.294158 
L 153.441793 416.307722 
L 159.420902 416.290868 
L 165.400011 416.310112 
L 171.379121 416.288679 
L 177.35823 416.3128 
L 183.337339 416.285884 
L 189.316449 416.316229 
L 195.295558 416.282498 
L 201.274667 416.317903 
L 207.253776 416.283578 
L 213.232886 416.319942 
L 219.211995 416.279162 
L 225.191104 416.326322 
L 231.170213 416.271786 
L 237.149323 416.331402 
L 243.128432 416.264329 
L 249.107541 416.337919 
L 255.086651 416.263232 
L 261.06576 416.342574 
L 267.044869 416.253765 
L 273.023978 416.353012 
L 279.003088 416.243738 
L 284.982197 416.363029 
L 290.961306 416.23033 
L 296.940416 416.377126 
L 302.919525 416.216768 
L 308.898634 416.392608 
L 314.877743 416.197261 
L 320.856853 416.412891 
L 326.835962 416.174408 
L 332.815071 416.440167 
L 338.79418 416.143954 
L 344.77329 416.471472 
L 350.752399 416.111175 
L 356.731508 416.505258 
L 362.710618 416.07403 
L 368.689727 416.553715 
L 374.668836 416.019445 
L 380.647945 416.608464 
L 386.627055 415.962301 
L 392.606164 416.674625 
L 398.585273 415.888271 
L 404.564382 416.755064 
L 410.543492 415.799835 
L 416.522601 416.85099 
L 422.50171 415.693557 
L 428.48082 416.964366 
L 434.459929 415.568296 
L 440.439038 417.106127 
L 446.418147 415.411027 
L 452.397257 417.279448 
L 458.376366 415.222539 
L 464.355475 417.485053 
L 470.334584 414.997347 
L 476.313694 417.733088 
L 482.292803 414.723243 
L 488.271912 418.03527 
L 494.251022 414.393116 
L 500.230131 418.39871 
L 506.20924 413.991569 
L 512.188349 418.838306 
L 518.167459 413.509171 
L 524.146568 419.368103 
L 530.125677 412.924542 
L 536.104787 420.012108 
L 542.083896 412.215353 
L 548.063005 420.793592 
L 554.042114 411.357542 
L 560.021224 421.73927 
L 566.000333 410.315559 
L 571.979442 422.883544 
L 577.958551 409.058721 
L 583.937661 424.263878 
L 589.91677 407.539324 
L 595.895879 425.93683 
L 601.874989 405.704667 
L 607.854098 427.953932 
L 613.833207 403.479983 
L 619.812316 430.404358 
L 625.791426 400.786374 
L 631.770535 433.365476 
L 637.749644 397.528536 
L 643.728753 436.950461 
L 649.707863 393.587524 
L 655.686972 441.285386 
L 661.666081 388.816095 
L 667.645191 446.531891 
L 673.6243 383.046485 
L 679.603409 452.878762 
" clip-path="url(#pb713bd5e01)" style="fill: none; stroke: #ff7f0e; stroke-width: 1.5; stroke-linecap: square"/>
   </g>
   <g id="line2d_39">
    <path d="M 87.671591 416.301701 
L 93.6507 416.297717 
L 99.629809 416.304222 
L 105.608919 416.29299 
L 111.588028 416.308171 
L 117.567137 416.29146 
L 123.546247 416.309242 
L 129.525356 416.287212 
L 135.504465 416.316591 
L 141.483574 416.281955 
L 147.462684 416.318871 
L 153.441793 416.279067 
L 159.420902 416.323595 
L 165.400011 416.274729 
L 171.379121 416.32763 
L 177.35823 416.26853 
L 183.337339 416.335655 
L 189.316449 416.2597 
L 195.295558 416.347157 
L 201.274667 416.246908 
L 207.253776 416.358347 
L 213.232886 416.235957 
L 219.211995 416.372511 
L 225.191104 416.221115 
L 231.170213 416.387364 
L 237.149323 416.205241 
L 243.128432 416.404666 
L 249.107541 416.185583 
L 255.086651 416.427043 
L 261.06576 416.16024 
L 267.044869 416.453469 
L 273.023978 416.130204 
L 279.003088 416.488241 
L 284.982197 416.09393 
L 290.961306 416.527107 
L 296.940416 416.049019 
L 302.919525 416.57563 
L 308.898634 415.996355 
L 314.877743 416.634056 
L 320.856853 415.933844 
L 326.835962 416.703276 
L 332.815071 415.856009 
L 338.79418 416.78864 
L 344.77329 415.763223 
L 350.752399 416.889847 
L 356.731508 415.650677 
L 362.710618 417.015576 
L 368.689727 415.514393 
L 374.668836 417.163799 
L 380.647945 415.349216 
L 386.627055 417.341295 
L 392.606164 415.156675 
L 398.585273 417.557075 
L 404.564382 414.919101 
L 410.543492 417.815908 
L 416.522601 414.629516 
L 422.50171 418.137077 
L 428.48082 414.281233 
L 434.459929 418.522929 
L 440.439038 413.855922 
L 446.418147 418.987953 
L 452.397257 413.348431 
L 458.376366 419.547835 
L 464.355475 412.7291 
L 470.334584 420.228265 
L 476.313694 411.979124 
L 482.292803 421.054562 
L 488.271912 411.06805 
L 494.251022 422.054857 
L 500.230131 409.96836 
L 506.20924 423.263404 
L 512.188349 408.638999 
L 518.167459 424.726316 
L 524.146568 407.031903 
L 530.125677 426.495373 
L 536.104787 405.084737 
L 542.083896 428.636427 
L 548.063005 402.728829 
L 554.042114 431.226074 
L 560.021224 399.883191 
L 566.000333 434.361753 
L 571.979442 396.43231 
L 577.958551 438.155782 
L 583.937661 392.258591 
L 589.91677 442.748695 
L 595.895879 387.205207 
L 601.874989 448.305995 
L 607.854098 381.093855 
L 613.833207 455.026197 
L 619.812316 373.703537 
L 625.791426 463.160415 
L 631.770535 364.753723 
L 637.749644 473.001931 
L 643.728753 353.927059 
L 649.707863 484.913144 
L 655.686972 340.82743 
L 661.666081 499.320519 
L 667.645191 324.978084 
L 673.6243 516.754765 
L 679.603409 305.798636 
" clip-path="url(#pb713bd5e01)" style="fill: none; stroke: #2ca02c; stroke-width: 1.5; stroke-linecap: square"/>
   </g>
   <g id="line2d_40">
    <path d="M 87.671591 416.30022 
L 93.6507 416.299116 
L 99.629809 416.301506 
L 105.608919 416.297197 
L 111.588028 416.305456 
L 117.567137 416.294118 
L 123.546247 416.30408 
L 129.525356 416.294327 
L 135.504465 416.305384 
L 141.483574 416.293609 
L 147.462684 416.305788 
L 153.441793 416.292798 
L 159.420902 416.310668 
L 165.400011 416.291376 
L 171.379121 416.313006 
L 177.35823 416.286492 
L 183.337339 416.31511 
L 189.316449 416.282578 
L 195.295558 416.319382 
L 201.274667 416.279547 
L 207.253776 416.322879 
L 213.232886 416.275864 
L 219.211995 416.325176 
L 225.191104 416.271069 
L 231.170213 416.333357 
L 237.149323 416.265083 
L 243.128432 416.334021 
L 249.107541 416.261657 
L 255.086651 416.340553 
L 261.06576 416.25894 
L 267.044869 416.342939 
L 273.023978 416.256116 
L 279.003088 416.346467 
L 284.982197 416.249425 
L 290.961306 416.353761 
L 296.940416 416.24372 
L 302.919525 416.366799 
L 308.898634 416.227528 
L 314.877743 416.37934 
L 320.856853 416.212843 
L 326.835962 416.397804 
L 332.815071 416.193887 
L 338.79418 416.417435 
L 344.77329 416.170458 
L 350.752399 416.441176 
L 356.731508 416.145721 
L 362.710618 416.471958 
L 368.689727 416.109228 
L 374.668836 416.511445 
L 380.647945 416.066795 
L 386.627055 416.554366 
L 392.606164 416.020364 
L 398.585273 416.605644 
L 404.564382 415.962897 
L 410.543492 416.671592 
L 416.522601 415.892234 
L 422.50171 416.750307 
L 428.48082 415.804604 
L 434.459929 416.844204 
L 440.439038 415.702109 
L 446.418147 416.958102 
L 452.397257 415.575965 
L 458.376366 417.096564 
L 464.355475 415.426814 
L 470.334584 417.258949 
L 476.313694 415.243467 
L 482.292803 417.461453 
L 488.271912 415.023581 
L 494.251022 417.705089 
L 500.230131 414.755278 
L 506.20924 418.000544 
L 512.188349 414.430396 
L 518.167459 418.356701 
L 524.146568 414.038471 
L 530.125677 418.788186 
L 536.104787 413.563295 
L 542.083896 419.313749 
L 548.063005 412.987704 
L 554.042114 419.94452 
L 560.021224 412.292222 
L 566.000333 420.711645 
L 571.979442 411.449232 
L 577.958551 421.638628 
L 583.937661 410.426922 
L 589.91677 422.762473 
L 595.895879 409.191745 
L 601.874989 424.119547 
L 607.854098 407.699501 
L 613.833207 425.761237 
L 619.812316 405.893152 
L 625.791426 427.746092 
L 631.770535 403.710057 
L 637.749644 430.1493 
L 643.728753 401.065604 
L 649.707863 433.056664 
L 655.686972 397.866552 
L 661.666081 436.579434 
L 667.645191 393.99327 
L 673.6243 440.837647 
L 679.603409 389.309374 
" clip-path="url(#pb713bd5e01)" style="fill: none; stroke: #d62728; stroke-width: 1.5; stroke-linecap: square"/>
   </g>
   <g id="line2d_41">
    <path d="M 87.671591 416.296349 
L 93.6507 416.301343 
L 99.629809 416.298697 
L 105.608919 416.300391 
L 111.588028 416.299115 
L 117.567137 416.30143 
L 123.546247 416.296972 
L 129.525356 416.302828 
L 135.504465 416.296577 
L 141.483574 416.301967 
L 147.462684 416.294336 
L 153.441793 416.308297 
L 159.420902 416.2946 
L 165.400011 416.305343 
L 171.379121 416.294883 
L 177.35823 416.308144 
L 183.337339 416.29082 
L 189.316449 416.312671 
L 195.295558 416.287536 
L 201.274667 416.31744 
L 207.253776 416.280208 
L 213.232886 416.322839 
L 219.211995 416.276459 
L 225.191104 416.326911 
L 231.170213 416.270751 
L 237.149323 416.33041 
L 243.128432 416.267576 
L 249.107541 416.334847 
L 255.086651 416.263256 
L 261.06576 416.342039 
L 267.044869 416.254823 
L 273.023978 416.35284 
L 279.003088 416.24328 
L 284.982197 416.363824 
L 290.961306 416.229935 
L 296.940416 416.378165 
L 302.919525 416.216349 
L 308.898634 416.390049 
L 314.877743 416.201108 
L 320.856853 416.411885 
L 326.835962 416.177315 
L 332.815071 416.438216 
L 338.79418 416.146602 
L 344.77329 416.469843 
L 350.752399 416.113683 
L 356.731508 416.505686 
L 362.710618 416.07769 
L 368.689727 416.545173 
L 374.668836 416.032112 
L 380.647945 416.594649 
L 386.627055 415.975809 
L 392.606164 416.659662 
L 398.585273 415.904803 
L 404.564382 416.738081 
L 410.543492 415.81789 
L 416.522601 416.829771 
L 422.50171 415.719488 
L 428.48082 416.936328 
L 434.459929 415.600992 
L 440.439038 417.070426 
L 446.418147 415.447245 
L 452.397257 417.238846 
L 458.376366 415.265733 
L 464.355475 417.435913 
L 470.334584 415.050382 
L 476.313694 417.675111 
L 482.292803 414.785774 
L 488.271912 417.966569 
L 494.251022 414.465866 
L 500.230131 418.32017 
L 506.20924 414.080821 
L 512.188349 418.741564 
L 518.167459 413.613289 
L 524.146568 419.256404 
L 530.125677 413.047881 
L 536.104787 419.876857 
L 542.083896 412.36779 
L 548.063005 420.626847 
L 554.042114 411.53977 
L 560.021224 421.535778 
L 566.000333 410.542076 
L 571.979442 422.632691 
L 577.958551 409.336987 
L 583.937661 423.959989 
L 589.91677 407.873259 
L 595.895879 425.564863 
L 601.874989 406.109814 
L 607.854098 427.509737 
L 613.833207 403.968863 
L 619.812316 429.864618 
L 625.791426 401.378166 
L 631.770535 432.713233 
L 637.749644 398.245132 
L 643.728753 436.162137 
L 649.707863 394.450973 
L 655.686972 440.332615 
L 661.666081 389.862819 
L 667.645191 445.379312 
L 673.6243 384.313987 
L 679.603409 451.485475 
" clip-path="url(#pb713bd5e01)" style="fill: none; stroke: #9467bd; stroke-width: 1.5; stroke-linecap: square"/>
   </g>
   <g id="line2d_42">
    <path d="M 87.671591 416.29801 
L 93.6507 416.303708 
L 99.629809 416.294727 
L 105.608919 416.306907 
L 111.588028 416.292172 
L 117.567137 416.310266 
L 123.546247 416.290598 
L 129.525356 416.309707 
L 135.504465 416.290067 
L 141.483574 416.310149 
L 147.462684 416.288572 
L 153.441793 416.313333 
L 159.420902 416.287438 
L 165.400011 416.312754 
L 171.379121 416.285313 
L 177.35823 416.317023 
L 183.337339 416.280628 
L 189.316449 416.320039 
L 195.295558 416.278161 
L 201.274667 416.325792 
L 207.253776 416.272143 
L 213.232886 416.331227 
L 219.211995 416.267009 
L 225.191104 416.335533 
L 231.170213 416.265356 
L 237.149323 416.338942 
L 243.128432 416.257793 
L 249.107541 416.344174 
L 255.086651 416.253074 
L 261.06576 416.352617 
L 267.044869 416.243493 
L 273.023978 416.361175 
L 279.003088 416.234332 
L 284.982197 416.372573 
L 290.961306 416.218775 
L 296.940416 416.388406 
L 302.919525 416.205062 
L 308.898634 416.404985 
L 314.877743 416.185895 
L 320.856853 416.428332 
L 326.835962 416.162684 
L 332.815071 416.44725 
L 338.79418 416.134534 
L 344.77329 416.480908 
L 350.752399 416.101096 
L 356.731508 416.520688 
L 362.710618 416.057064 
L 368.689727 416.566015 
L 374.668836 416.009323 
L 380.647945 416.619958 
L 386.627055 415.946611 
L 392.606164 416.689274 
L 398.585273 415.872089 
L 404.564382 416.768648 
L 410.543492 415.786057 
L 416.522601 416.866226 
L 422.50171 415.676812 
L 428.48082 416.986714 
L 434.459929 415.54465 
L 440.439038 417.129313 
L 446.418147 415.387771 
L 452.397257 417.303245 
L 458.376366 415.196787 
L 464.355475 417.514258 
L 470.334584 414.962 
L 476.313694 417.776763 
L 482.292803 414.676543 
L 488.271912 418.085291 
L 494.251022 414.336228 
L 500.230131 418.462337 
L 506.20924 413.92007 
L 512.188349 418.918048 
L 518.167459 413.420604 
L 524.146568 419.467191 
L 530.125677 412.81668 
L 536.104787 420.132524 
L 542.083896 412.083428 
L 548.063005 420.936318 
L 554.042114 411.203008 
L 560.021224 421.906422 
L 566.000333 410.132366 
L 571.979442 423.084751 
L 577.958551 408.837997 
L 583.937661 424.507761 
L 589.91677 407.272175 
L 595.895879 426.231185 
L 601.874989 405.375246 
L 607.854098 428.317686 
L 613.833207 403.078471 
L 619.812316 430.841311 
L 625.791426 400.303156 
L 631.770535 433.897302 
L 637.749644 396.943819 
L 643.728753 437.590945 
L 649.707863 392.880596 
L 655.686972 442.058845 
L 661.666081 387.96434 
L 667.645191 447.46978 
L 673.6243 382.014697 
L 679.603409 454.013734 
" clip-path="url(#pb713bd5e01)" style="fill: none; stroke: #8c564b; stroke-width: 1.5; stroke-linecap: square"/>
   </g>
   <g id="line2d_43">
    <path d="M 87.671591 416.301449 
L 93.6507 416.300096 
L 99.629809 416.300718 
L 105.608919 416.299806 
L 111.588028 416.301381 
L 117.567137 416.296369 
L 123.546247 416.30358 
L 129.525356 416.299303 
L 135.504465 416.301318 
L 141.483574 416.298321 
L 147.462684 416.303552 
L 153.441793 416.295362 
L 159.420902 416.306113 
L 165.400011 416.293719 
L 171.379121 416.305352 
L 177.35823 416.293074 
L 183.337339 416.305618 
L 189.316449 416.295639 
L 195.295558 416.305952 
L 201.274667 416.290628 
L 207.253776 416.312742 
L 213.232886 416.290496 
L 219.211995 416.309427 
L 225.191104 416.290135 
L 231.170213 416.310384 
L 237.149323 416.289806 
L 243.128432 416.306713 
L 249.107541 416.292372 
L 255.086651 416.3098 
L 261.06576 416.29132 
L 267.044869 416.310671 
L 273.023978 416.288013 
L 279.003088 416.316703 
L 284.982197 416.284889 
L 290.961306 416.314227 
L 296.940416 416.284425 
L 302.919525 416.316539 
L 308.898634 416.281618 
L 314.877743 416.318533 
L 320.856853 416.279662 
L 326.835962 416.324201 
L 332.815071 416.273793 
L 338.79418 416.326724 
L 344.77329 416.271302 
L 350.752399 416.331832 
L 356.731508 416.264135 
L 362.710618 416.339618 
L 368.689727 416.254924 
L 374.668836 416.349523 
L 380.647945 416.24686 
L 386.627055 416.36135 
L 392.606164 416.232824 
L 398.585273 416.37588 
L 404.564382 416.218924 
L 410.543492 416.392198 
L 416.522601 416.19683 
L 422.50171 416.413007 
L 428.48082 416.177148 
L 434.459929 416.436833 
L 440.439038 416.14971 
L 446.418147 416.464751 
L 452.397257 416.120917 
L 458.376366 416.497224 
L 464.355475 416.084465 
L 470.334584 416.537785 
L 476.313694 416.040191 
L 482.292803 416.582775 
L 488.271912 415.989362 
L 494.251022 416.642139 
L 500.230131 415.924366 
L 506.20924 416.713559 
L 512.188349 415.846277 
L 518.167459 416.798975 
L 524.146568 415.752017 
L 530.125677 416.903074 
L 536.104787 415.635275 
L 542.083896 417.031226 
L 548.063005 415.494639 
L 554.042114 417.186528 
L 560.021224 415.328574 
L 566.000333 417.367306 
L 571.979442 415.127871 
L 577.958551 417.588595 
L 583.937661 414.884529 
L 589.91677 417.855153 
L 595.895879 414.590313 
L 601.874989 418.183903 
L 607.854098 414.225387 
L 613.833207 418.582174 
L 619.812316 413.79164 
L 625.791426 419.060285 
L 631.770535 413.263607 
L 637.749644 419.640478 
L 643.728753 412.622975 
L 649.707863 420.34625 
L 655.686972 411.847489 
L 661.666081 421.195043 
L 667.645191 410.917221 
L 673.6243 422.222616 
L 679.603409 409.784322 
" clip-path="url(#pb713bd5e01)" style="fill: none; stroke: #e377c2; stroke-width: 1.5; stroke-linecap: square"/>
   </g>
   <g id="line2d_44">
    <path d="M 87.671591 416.300577 
L 93.6507 416.298676 
L 99.629809 416.303348 
L 105.608919 416.297929 
L 111.588028 416.29869 
L 117.567137 416.300548 
L 123.546247 416.297112 
L 129.525356 416.303973 
L 135.504465 416.294251 
L 141.483574 416.307632 
L 147.462684 416.293005 
L 153.441793 416.306327 
L 159.420902 416.294465 
L 165.400011 416.309866 
L 171.379121 416.290519 
L 177.35823 416.308029 
L 183.337339 416.291568 
L 189.316449 416.312386 
L 195.295558 416.287471 
L 201.274667 416.313856 
L 207.253776 416.284611 
L 213.232886 416.316857 
L 219.211995 416.283076 
L 225.191104 416.319532 
L 231.170213 416.28252 
L 237.149323 416.321369 
L 243.128432 416.278883 
L 249.107541 416.321279 
L 255.086651 416.277135 
L 261.06576 416.32302 
L 267.044869 416.274637 
L 273.023978 416.33132 
L 279.003088 416.263776 
L 284.982197 416.340317 
L 290.961306 416.25582 
L 296.940416 416.347375 
L 302.919525 416.246501 
L 308.898634 416.360003 
L 314.877743 416.23223 
L 320.856853 416.373587 
L 326.835962 416.21972 
L 332.815071 416.387966 
L 338.79418 416.205155 
L 344.77329 416.404125 
L 350.752399 416.184018 
L 356.731508 416.429269 
L 362.710618 416.15868 
L 368.689727 416.455486 
L 374.668836 416.128684 
L 380.647945 416.488615 
L 386.627055 416.097216 
L 392.606164 416.52263 
L 398.585273 416.056681 
L 404.564382 416.569074 
L 410.543492 416.004953 
L 416.522601 416.622898 
L 422.50171 415.946587 
L 428.48082 416.690258 
L 434.459929 415.869861 
L 440.439038 416.770731 
L 446.418147 415.779826 
L 452.397257 416.87125 
L 458.376366 415.672988 
L 464.355475 416.987923 
L 470.334584 415.544669 
L 476.313694 417.12958 
L 482.292803 415.390097 
L 488.271912 417.300875 
L 494.251022 415.20301 
L 500.230131 417.504853 
L 506.20924 414.975367 
L 512.188349 417.757292 
L 518.167459 414.699749 
L 524.146568 418.061513 
L 530.125677 414.361542 
L 536.104787 418.429772 
L 542.083896 413.956521 
L 548.063005 418.877694 
L 554.042114 413.466833 
L 560.021224 419.416088 
L 566.000333 412.874095 
L 571.979442 420.066263 
L 577.958551 412.155268 
L 583.937661 420.860737 
L 589.91677 411.283504 
L 595.895879 421.819373 
L 601.874989 410.228194 
L 607.854098 422.980533 
L 613.833207 408.954143 
L 619.812316 424.383296 
L 625.791426 407.40815 
L 631.770535 426.080523 
L 637.749644 405.53925 
L 643.728753 428.139404 
L 649.707863 403.27565 
L 655.686972 430.629283 
L 661.666081 400.538965 
L 667.645191 433.637593 
L 673.6243 397.225818 
L 679.603409 437.282168 
" clip-path="url(#pb713bd5e01)" style="fill: none; stroke: #7f7f7f; stroke-width: 1.5; stroke-linecap: square"/>
   </g>
   <g id="line2d_45">
    <path d="M 87.671591 416.299509 
L 93.6507 416.300553 
L 99.629809 416.30021 
L 105.608919 416.299937 
L 111.588028 416.299549 
L 117.567137 416.299605 
L 123.546247 416.30314 
L 129.525356 416.297524 
L 135.504465 416.300575 
L 141.483574 416.300087 
L 147.462684 416.299654 
L 153.441793 416.300213 
L 159.420902 416.302315 
L 165.400011 416.29941 
L 171.379121 416.300527 
L 177.35823 416.298825 
L 183.337339 416.302315 
L 189.316449 416.299027 
L 195.295558 416.300244 
L 201.274667 416.300848 
L 207.253776 416.298478 
L 213.232886 416.301947 
L 219.211995 416.299937 
L 225.191104 416.300731 
L 231.170213 416.301097 
L 237.149323 416.299109 
L 243.128432 416.303096 
L 249.107541 416.29643 
L 255.086651 416.30771 
L 261.06576 416.288673 
L 267.044869 416.315343 
L 273.023978 416.282176 
L 279.003088 416.320191 
L 284.982197 416.275813 
L 290.961306 416.326904 
L 296.940416 416.271449 
L 302.919525 416.328841 
L 308.898634 416.269066 
L 314.877743 416.334874 
L 320.856853 416.261681 
L 326.835962 416.343515 
L 332.815071 416.251544 
L 338.79418 416.355959 
L 344.77329 416.239551 
L 350.752399 416.369893 
L 356.731508 416.225317 
L 362.710618 416.385391 
L 368.689727 416.210008 
L 374.668836 416.397507 
L 380.647945 416.192567 
L 386.627055 416.416459 
L 392.606164 416.172595 
L 398.585273 416.443029 
L 404.564382 416.145828 
L 410.543492 416.472169 
L 416.522601 416.112428 
L 422.50171 416.506085 
L 428.48082 416.076364 
L 434.459929 416.544739 
L 440.439038 416.031315 
L 446.418147 416.59423 
L 452.397257 415.977079 
L 458.376366 416.656076 
L 464.355475 415.908048 
L 470.334584 416.734857 
L 476.313694 415.821193 
L 482.292803 416.825392 
L 488.271912 415.722703 
L 494.251022 416.936608 
L 500.230131 415.600643 
L 506.20924 417.069866 
L 512.188349 415.451298 
L 518.167459 417.232036 
L 524.146568 415.274821 
L 530.125677 417.425755 
L 536.104787 415.060341 
L 542.083896 417.664362 
L 548.063005 414.801195 
L 554.042114 417.947432 
L 560.021224 414.48758 
L 566.000333 418.291888 
L 571.979442 414.11087 
L 577.958551 418.708448 
L 583.937661 413.652236 
L 589.91677 419.214124 
L 595.895879 413.092989 
L 601.874989 419.828439 
L 607.854098 412.420962 
L 613.833207 420.570181 
L 619.812316 411.605314 
L 625.791426 421.465878 
L 631.770535 410.618637 
L 637.749644 422.549869 
L 643.728753 409.424698 
L 649.707863 423.862739 
L 655.686972 407.980173 
L 661.666081 425.451987 
L 667.645191 406.233375 
L 673.6243 427.370411 
L 679.603409 404.123046 
" clip-path="url(#pb713bd5e01)" style="fill: none; stroke: #bcbd22; stroke-width: 1.5; stroke-linecap: square"/>
   </g>
   <g id="line2d_46">
    <path d="M 87.671591 416.299108 
L 93.6507 416.300946 
L 99.629809 416.297674 
L 105.608919 416.30118 
L 111.588028 416.298867 
L 117.567137 416.305464 
L 123.546247 416.295099 
L 129.525356 416.308101 
L 135.504465 416.292473 
L 141.483574 416.305897 
L 147.462684 416.29301 
L 153.441793 416.307531 
L 159.420902 416.290324 
L 165.400011 416.311467 
L 171.379121 416.287783 
L 177.35823 416.314082 
L 183.337339 416.282786 
L 189.316449 416.318779 
L 195.295558 416.278784 
L 201.274667 416.324457 
L 207.253776 416.273595 
L 213.232886 416.331756 
L 219.211995 416.264095 
L 225.191104 416.3403 
L 231.170213 416.252145 
L 237.149323 416.349992 
L 243.128432 416.246865 
L 249.107541 416.359995 
L 255.086651 416.234091 
L 261.06576 416.371197 
L 267.044869 416.219605 
L 273.023978 416.388509 
L 279.003088 416.204131 
L 284.982197 416.403468 
L 290.961306 416.18468 
L 296.940416 416.426698 
L 302.919525 416.161026 
L 308.898634 416.451633 
L 314.877743 416.135027 
L 320.856853 416.48267 
L 326.835962 416.09764 
L 332.815071 416.523289 
L 338.79418 416.054212 
L 344.77329 416.572998 
L 350.752399 415.996484 
L 356.731508 416.635479 
L 362.710618 415.931876 
L 368.689727 416.705893 
L 374.668836 415.854761 
L 380.647945 416.790699 
L 386.627055 415.761712 
L 392.606164 416.893304 
L 398.585273 415.648779 
L 404.564382 417.014256 
L 410.543492 415.519454 
L 416.522601 417.158366 
L 422.50171 415.359274 
L 428.48082 417.336719 
L 434.459929 415.160605 
L 440.439038 417.556238 
L 446.418147 414.918589 
L 452.397257 417.81837 
L 458.376366 414.629729 
L 464.355475 418.13767 
L 470.334584 414.279751 
L 476.313694 418.520148 
L 482.292803 413.860199 
L 488.271912 418.984474 
L 494.251022 413.348173 
L 500.230131 419.54631 
L 506.20924 412.731508 
L 512.188349 420.225383 
L 518.167459 411.982461 
L 524.146568 421.051667 
L 530.125677 411.073371 
L 536.104787 422.050281 
L 542.083896 409.973862 
L 548.063005 423.257461 
L 554.042114 408.645458 
L 560.021224 424.719741 
L 566.000333 407.038882 
L 571.979442 426.486246 
L 577.958551 405.095081 
L 583.937661 428.622698 
L 589.91677 402.747361 
L 595.895879 431.206729 
L 601.874989 399.901635 
L 607.854098 434.337613 
L 613.833207 396.459805 
L 619.812316 438.124635 
L 625.791426 392.293312 
L 631.770535 442.708991 
L 637.749644 387.250114 
L 643.728753 448.253956 
L 649.707863 381.149563 
L 655.686972 454.963339 
L 661.666081 373.771275 
L 667.645191 463.08405 
L 673.6243 364.837881 
L 679.603409 472.905635 
" clip-path="url(#pb713bd5e01)" style="fill: none; stroke: #17becf; stroke-width: 1.5; stroke-linecap: square"/>
   </g>
   <g id="patch_9">
    <path d="M 58.075 534.04 
L 58.075 294.93 
" style="fill: none; stroke: #000000; stroke-width: 0.8; stroke-linejoin: miter; stroke-linecap: square"/>
   </g>
   <g id="patch_10">
    <path d="M 709.2 534.04 
L 709.2 294.93 
" style="fill: none; stroke: #000000; stroke-width: 0.8; stroke-linejoin: miter; stroke-linecap: square"/>
   </g>
   <g id="patch_11">
    <path d="M 58.075 534.04 
L 709.2 534.04 
" style="fill: none; stroke: #000000; stroke-width: 0.8; stroke-linejoin: miter; stroke-linecap: square"/>
   </g>
   <g id="patch_12">
    <path d="M 58.075 294.93 
L 709.2 294.93 
" style="fill: none; stroke: #000000; stroke-width: 0.8; stroke-linejoin: miter; stroke-linecap: square"/>
   </g>
   <g id="text_22">
    <!-- 20 Realizations of AR(1) Process with ϕ=-1.1 -->
    <g transform="translate(249.780312 288.93) scale(0.12 -0.12)">
     <use xlink:href="#DejaVuSans-32"/>
     <use xlink:href="#DejaVuSans-30" x="63.623047"/>
     <use xlink:href="#DejaVuSans-20" x="127.246094"/>
     <use xlink:href="#DejaVuSans-52" x="159.033203"/>
     <use xlink:href="#DejaVuSans-65" x="224.015625"/>
     <use xlink:href="#DejaVuSans-61" x="285.539062"/>
     <use xlink:href="#DejaVuSans-6c" x="346.818359"/>
     <use xlink:href="#DejaVuSans-69" x="374.601562"/>
     <use xlink:href="#DejaVuSans-7a" x="402.384766"/>
     <use xlink:href="#DejaVuSans-61" x="454.875"/>
     <use xlink:href="#DejaVuSans-74" x="516.154297"/>
     <use xlink:href="#DejaVuSans-69" x="555.363281"/>
     <use xlink:href="#DejaVuSans-6f" x="583.146484"/>
     <use xlink:href="#DejaVuSans-6e" x="644.328125"/>
     <use xlink:href="#DejaVuSans-73" x="707.707031"/>
     <use xlink:href="#DejaVuSans-20" x="759.806641"/>
     <use xlink:href="#DejaVuSans-6f" x="791.59375"/>
     <use xlink:href="#DejaVuSans-66" x="852.775391"/>
     <use xlink:href="#DejaVuSans-20" x="887.980469"/>
     <use xlink:href="#DejaVuSans-41" x="919.767578"/>
     <use xlink:href="#DejaVuSans-52" x="988.175781"/>
     <use xlink:href="#DejaVuSans-28" x="1057.658203"/>
     <use xlink:href="#DejaVuSans-31" x="1096.671875"/>
     <use xlink:href="#DejaVuSans-29" x="1160.294922"/>
     <use xlink:href="#DejaVuSans-20" x="1199.308594"/>
     <use xlink:href="#DejaVuSans-50" x="1231.095703"/>
     <use xlink:href="#DejaVuSans-72" x="1289.648438"/>
     <use xlink:href="#DejaVuSans-6f" x="1328.511719"/>
     <use xlink:href="#DejaVuSans-63" x="1389.693359"/>
     <use xlink:href="#DejaVuSans-65" x="1444.673828"/>
     <use xlink:href="#DejaVuSans-73" x="1506.197266"/>
     <use xlink:href="#DejaVuSans-73" x="1558.296875"/>
     <use xlink:href="#DejaVuSans-20" x="1610.396484"/>
     <use xlink:href="#DejaVuSans-77" x="1642.183594"/>
     <use xlink:href="#DejaVuSans-69" x="1723.970703"/>
     <use xlink:href="#DejaVuSans-74" x="1751.753906"/>
     <use xlink:href="#DejaVuSans-68" x="1790.962891"/>
     <use xlink:href="#DejaVuSans-20" x="1854.341797"/>
     <use xlink:href="#DejaVuSans-3d5" x="1886.128906"/>
     <use xlink:href="#DejaVuSans-3d" x="1952.095703"/>
     <use xlink:href="#DejaVuSans-2d" x="2035.884766"/>
     <use xlink:href="#DejaVuSans-31" x="2071.96875"/>
     <use xlink:href="#DejaVuSans-2e" x="2135.591797"/>
     <use xlink:href="#DejaVuSans-31" x="2167.378906"/>
    </g>
   </g>
  </g>
 </g>
 <defs>
  <clipPath id="p4bbc410052">
   <rect x="58.075" y="26.16" width="651.125" height="239.11"/>
  </clipPath>
  <clipPath id="pb713bd5e01">
   <rect x="58.075" y="294.93" width="651.125" height="239.11"/>
  </clipPath>
 </defs>
</svg>
