<?xml version="1.0" encoding="utf-8" standalone="no"?>
<!DOCTYPE svg PUBLIC "-//W3C//DTD SVG 1.1//EN"
  "http://www.w3.org/Graphics/SVG/1.1/DTD/svg11.dtd">
<svg xmlns:xlink="http://www.w3.org/1999/xlink" width="720pt" height="576pt" viewBox="0 0 720 576" xmlns="http://www.w3.org/2000/svg" version="1.1">
 <metadata>
  <rdf:RDF xmlns:dc="http://purl.org/dc/elements/1.1/" xmlns:cc="http://creativecommons.org/ns#" xmlns:rdf="http://www.w3.org/1999/02/22-rdf-syntax-ns#">
   <cc:Work>
    <dc:type rdf:resource="http://purl.org/dc/dcmitype/StillImage"/>
    <dc:date>2024-02-20T02:13:56.620692</dc:date>
    <dc:format>image/svg+xml</dc:format>
    <dc:creator>
     <cc:Agent>
      <dc:title>Matplotlib v3.8.2, https://matplotlib.org/</dc:title>
     </cc:Agent>
    </dc:creator>
   </cc:Work>
  </rdf:RDF>
 </metadata>
 <defs>
  <style type="text/css">*{stroke-linejoin: round; stroke-linecap: butt}</style>
 </defs>
 <g id="figure_1">
  <g id="patch_1">
   <path d="M 0 576 
L 720 576 
L 720 0 
L 0 0 
z
" style="fill: #ffffff"/>
  </g>
  <g id="axes_1">
   <g id="patch_2">
    <path d="M 32.515 265.27 
L 709.2 265.27 
L 709.2 26.16 
L 32.515 26.16 
z
" style="fill: #ffffff"/>
   </g>
   <g id="matplotlib.axis_1">
    <g id="xtick_1">
     <g id="line2d_1">
      <defs>
       <path id="m5459c3afe1" d="M 0 0 
L 0 3.5 
" style="stroke: #000000; stroke-width: 0.8"/>
      </defs>
      <g>
       <use xlink:href="#m5459c3afe1" x="63.273409" y="265.27" style="stroke: #000000; stroke-width: 0.8"/>
      </g>
     </g>
    </g>
    <g id="xtick_2">
     <g id="line2d_2">
      <g>
       <use xlink:href="#m5459c3afe1" x="187.549809" y="265.27" style="stroke: #000000; stroke-width: 0.8"/>
      </g>
     </g>
    </g>
    <g id="xtick_3">
     <g id="line2d_3">
      <g>
       <use xlink:href="#m5459c3afe1" x="311.82621" y="265.27" style="stroke: #000000; stroke-width: 0.8"/>
      </g>
     </g>
    </g>
    <g id="xtick_4">
     <g id="line2d_4">
      <g>
       <use xlink:href="#m5459c3afe1" x="436.10261" y="265.27" style="stroke: #000000; stroke-width: 0.8"/>
      </g>
     </g>
    </g>
    <g id="xtick_5">
     <g id="line2d_5">
      <g>
       <use xlink:href="#m5459c3afe1" x="560.379011" y="265.27" style="stroke: #000000; stroke-width: 0.8"/>
      </g>
     </g>
    </g>
    <g id="xtick_6">
     <g id="line2d_6">
      <g>
       <use xlink:href="#m5459c3afe1" x="684.655411" y="265.27" style="stroke: #000000; stroke-width: 0.8"/>
      </g>
     </g>
    </g>
   </g>
   <g id="matplotlib.axis_2">
    <g id="ytick_1">
     <g id="line2d_7">
      <defs>
       <path id="mc04066a5b7" d="M 0 0 
L -3.5 0 
" style="stroke: #000000; stroke-width: 0.8"/>
      </defs>
      <g>
       <use xlink:href="#mc04066a5b7" x="32.515" y="229.225296" style="stroke: #000000; stroke-width: 0.8"/>
      </g>
     </g>
     <g id="text_1">
      <!-- 0 -->
      <g transform="translate(19.1525 233.024515) scale(0.1 -0.1)">
       <defs>
        <path id="DejaVuSans-30" d="M 2034 4250 
Q 1547 4250 1301 3770 
Q 1056 3291 1056 2328 
Q 1056 1369 1301 889 
Q 1547 409 2034 409 
Q 2525 409 2770 889 
Q 3016 1369 3016 2328 
Q 3016 3291 2770 3770 
Q 2525 4250 2034 4250 
z
M 2034 4750 
Q 2819 4750 3233 4129 
Q 3647 3509 3647 2328 
Q 3647 1150 3233 529 
Q 2819 -91 2034 -91 
Q 1250 -91 836 529 
Q 422 1150 422 2328 
Q 422 3509 836 4129 
Q 1250 4750 2034 4750 
z
" transform="scale(0.015625)"/>
       </defs>
       <use xlink:href="#DejaVuSans-30"/>
      </g>
     </g>
    </g>
    <g id="ytick_2">
     <g id="line2d_8">
      <g>
       <use xlink:href="#mc04066a5b7" x="32.515" y="190.399363" style="stroke: #000000; stroke-width: 0.8"/>
      </g>
     </g>
     <g id="text_2">
      <!-- 1 -->
      <g transform="translate(19.1525 194.198582) scale(0.1 -0.1)">
       <defs>
        <path id="DejaVuSans-31" d="M 794 531 
L 1825 531 
L 1825 4091 
L 703 3866 
L 703 4441 
L 1819 4666 
L 2450 4666 
L 2450 531 
L 3481 531 
L 3481 0 
L 794 0 
L 794 531 
z
" transform="scale(0.015625)"/>
       </defs>
       <use xlink:href="#DejaVuSans-31"/>
      </g>
     </g>
    </g>
    <g id="ytick_3">
     <g id="line2d_9">
      <g>
       <use xlink:href="#mc04066a5b7" x="32.515" y="151.573431" style="stroke: #000000; stroke-width: 0.8"/>
      </g>
     </g>
     <g id="text_3">
      <!-- 2 -->
      <g transform="translate(19.1525 155.372649) scale(0.1 -0.1)">
       <defs>
        <path id="DejaVuSans-32" d="M 1228 531 
L 3431 531 
L 3431 0 
L 469 0 
L 469 531 
Q 828 903 1448 1529 
Q 2069 2156 2228 2338 
Q 2531 2678 2651 2914 
Q 2772 3150 2772 3378 
Q 2772 3750 2511 3984 
Q 2250 4219 1831 4219 
Q 1534 4219 1204 4116 
Q 875 4013 500 3803 
L 500 4441 
Q 881 4594 1212 4672 
Q 1544 4750 1819 4750 
Q 2544 4750 2975 4387 
Q 3406 4025 3406 3419 
Q 3406 3131 3298 2873 
Q 3191 2616 2906 2266 
Q 2828 2175 2409 1742 
Q 1991 1309 1228 531 
z
" transform="scale(0.015625)"/>
       </defs>
       <use xlink:href="#DejaVuSans-32"/>
      </g>
     </g>
    </g>
    <g id="ytick_4">
     <g id="line2d_10">
      <g>
       <use xlink:href="#mc04066a5b7" x="32.515" y="112.747498" style="stroke: #000000; stroke-width: 0.8"/>
      </g>
     </g>
     <g id="text_4">
      <!-- 3 -->
      <g transform="translate(19.1525 116.546717) scale(0.1 -0.1)">
       <defs>
        <path id="DejaVuSans-33" d="M 2597 2516 
Q 3050 2419 3304 2112 
Q 3559 1806 3559 1356 
Q 3559 666 3084 287 
Q 2609 -91 1734 -91 
Q 1441 -91 1130 -33 
Q 819 25 488 141 
L 488 750 
Q 750 597 1062 519 
Q 1375 441 1716 441 
Q 2309 441 2620 675 
Q 2931 909 2931 1356 
Q 2931 1769 2642 2001 
Q 2353 2234 1838 2234 
L 1294 2234 
L 1294 2753 
L 1863 2753 
Q 2328 2753 2575 2939 
Q 2822 3125 2822 3475 
Q 2822 3834 2567 4026 
Q 2313 4219 1838 4219 
Q 1578 4219 1281 4162 
Q 984 4106 628 3988 
L 628 4550 
Q 988 4650 1302 4700 
Q 1616 4750 1894 4750 
Q 2613 4750 3031 4423 
Q 3450 4097 3450 3541 
Q 3450 3153 3228 2886 
Q 3006 2619 2597 2516 
z
" transform="scale(0.015625)"/>
       </defs>
       <use xlink:href="#DejaVuSans-33"/>
      </g>
     </g>
    </g>
    <g id="ytick_5">
     <g id="line2d_11">
      <g>
       <use xlink:href="#mc04066a5b7" x="32.515" y="73.921565" style="stroke: #000000; stroke-width: 0.8"/>
      </g>
     </g>
     <g id="text_5">
      <!-- 4 -->
      <g transform="translate(19.1525 77.720784) scale(0.1 -0.1)">
       <defs>
        <path id="DejaVuSans-34" d="M 2419 4116 
L 825 1625 
L 2419 1625 
L 2419 4116 
z
M 2253 4666 
L 3047 4666 
L 3047 1625 
L 3713 1625 
L 3713 1100 
L 3047 1100 
L 3047 0 
L 2419 0 
L 2419 1100 
L 313 1100 
L 313 1709 
L 2253 4666 
z
" transform="scale(0.015625)"/>
       </defs>
       <use xlink:href="#DejaVuSans-34"/>
      </g>
     </g>
    </g>
    <g id="ytick_6">
     <g id="line2d_12">
      <g>
       <use xlink:href="#mc04066a5b7" x="32.515" y="35.095633" style="stroke: #000000; stroke-width: 0.8"/>
      </g>
     </g>
     <g id="text_6">
      <!-- 5 -->
      <g transform="translate(19.1525 38.894851) scale(0.1 -0.1)">
       <defs>
        <path id="DejaVuSans-35" d="M 691 4666 
L 3169 4666 
L 3169 4134 
L 1269 4134 
L 1269 2991 
Q 1406 3038 1543 3061 
Q 1681 3084 1819 3084 
Q 2600 3084 3056 2656 
Q 3513 2228 3513 1497 
Q 3513 744 3044 326 
Q 2575 -91 1722 -91 
Q 1428 -91 1123 -41 
Q 819 9 494 109 
L 494 744 
Q 775 591 1075 516 
Q 1375 441 1709 441 
Q 2250 441 2565 725 
Q 2881 1009 2881 1497 
Q 2881 1984 2565 2268 
Q 2250 2553 1709 2553 
Q 1456 2553 1204 2497 
Q 953 2441 691 2322 
L 691 4666 
z
" transform="scale(0.015625)"/>
       </defs>
       <use xlink:href="#DejaVuSans-35"/>
      </g>
     </g>
    </g>
   </g>
   <g id="line2d_13">
    <path d="M 63.273409 221.085025 
L 69.487229 155.461142 
L 75.701049 127.033108 
L 81.914869 163.118008 
L 88.128689 196.858455 
L 94.342509 175.969611 
L 100.556329 51.270407 
L 106.770149 102.857168 
L 112.983969 140.288736 
L 119.197789 174.526046 
L 125.411609 135.229627 
L 131.625429 212.865151 
L 137.839249 231.570263 
L 144.053069 249.201375 
L 150.266889 184.15757 
L 156.480709 205.30457 
L 162.694529 178.159328 
L 168.908349 151.875988 
L 175.122169 53.132802 
L 181.335989 37.028636 
L 187.549809 46.858639 
L 193.763629 57.744391 
L 199.977449 81.054207 
L 206.19127 54.621761 
L 212.40509 146.694896 
L 218.61891 147.182596 
L 224.83273 76.118984 
L 231.04655 211.603091 
L 237.26037 182.988807 
L 243.47419 105.425786 
L 249.68801 166.289346 
L 255.90183 108.784913 
L 262.11565 57.833528 
L 268.32947 93.123087 
L 274.54329 157.564642 
L 280.75711 246.098286 
L 286.97093 162.580553 
L 293.18475 124.481106 
L 299.39857 137.186198 
L 305.61239 113.741473 
L 311.82621 56.285726 
L 318.04003 97.322095 
L 324.25385 192.788065 
L 330.46767 225.207469 
L 336.68149 194.174283 
L 342.89531 233.977288 
L 349.10913 224.502509 
L 355.32295 172.501569 
L 361.53677 165.732945 
L 367.75059 221.156644 
L 373.96441 169.094542 
L 380.17823 170.613228 
L 386.39205 206.408026 
L 392.60587 225.337367 
L 398.81969 193.296457 
L 405.03351 215.043874 
L 411.24733 177.336079 
L 417.46115 157.933338 
L 423.67497 147.984046 
L 429.88879 186.449064 
L 436.10261 188.837581 
L 442.31643 144.034321 
L 448.53025 162.430384 
L 454.74407 142.519184 
L 460.95789 104.300816 
L 467.17171 204.26603 
L 473.38553 177.037596 
L 479.59935 192.179741 
L 485.81317 142.066733 
L 492.02699 141.369841 
L 498.24081 153.237412 
L 504.45463 122.19115 
L 510.66845 145.231928 
L 516.88227 123.466757 
L 523.09609 217.488355 
L 529.30991 136.534694 
L 535.52373 135.548656 
L 541.737551 189.88445 
L 547.951371 232.351519 
L 554.165191 204.584088 
L 560.379011 128.941005 
L 566.592831 118.593346 
L 572.806651 142.977313 
L 579.020471 167.357934 
L 585.234291 97.491363 
L 591.448111 93.576667 
L 597.661931 172.971277 
L 603.875751 235.789141 
L 610.089571 240.473232 
L 616.303391 93.908359 
L 622.517211 120.747928 
L 628.731031 146.337863 
L 634.944851 208.798676 
L 641.158671 177.423898 
L 647.372491 254.401364 
L 653.586311 190.031729 
L 659.800131 170.311202 
L 666.013951 156.710373 
L 672.227771 183.292486 
L 678.441591 190.154897 
" clip-path="url(#pc5adf13401)" style="fill: none; stroke: #1f77b4; stroke-width: 1.5; stroke-linecap: square"/>
   </g>
   <g id="patch_3">
    <path d="M 32.515 265.27 
L 32.515 26.16 
" style="fill: none; stroke: #000000; stroke-width: 0.8; stroke-linejoin: miter; stroke-linecap: square"/>
   </g>
   <g id="patch_4">
    <path d="M 709.2 265.27 
L 709.2 26.16 
" style="fill: none; stroke: #000000; stroke-width: 0.8; stroke-linejoin: miter; stroke-linecap: square"/>
   </g>
   <g id="patch_5">
    <path d="M 32.515 265.27 
L 709.2 265.27 
" style="fill: none; stroke: #000000; stroke-width: 0.8; stroke-linejoin: miter; stroke-linecap: square"/>
   </g>
   <g id="patch_6">
    <path d="M 32.515 26.16 
L 709.2 26.16 
" style="fill: none; stroke: #000000; stroke-width: 0.8; stroke-linejoin: miter; stroke-linecap: square"/>
   </g>
   <g id="text_7">
    <!-- One Realization of AR(1) Process with ϕ=0.5 -->
    <g transform="translate(237.708125 20.16) scale(0.12 -0.12)">
     <defs>
      <path id="DejaVuSans-4f" d="M 2522 4238 
Q 1834 4238 1429 3725 
Q 1025 3213 1025 2328 
Q 1025 1447 1429 934 
Q 1834 422 2522 422 
Q 3209 422 3611 934 
Q 4013 1447 4013 2328 
Q 4013 3213 3611 3725 
Q 3209 4238 2522 4238 
z
M 2522 4750 
Q 3503 4750 4090 4092 
Q 4678 3434 4678 2328 
Q 4678 1225 4090 567 
Q 3503 -91 2522 -91 
Q 1538 -91 948 565 
Q 359 1222 359 2328 
Q 359 3434 948 4092 
Q 1538 4750 2522 4750 
z
" transform="scale(0.015625)"/>
      <path id="DejaVuSans-6e" d="M 3513 2113 
L 3513 0 
L 2938 0 
L 2938 2094 
Q 2938 2591 2744 2837 
Q 2550 3084 2163 3084 
Q 1697 3084 1428 2787 
Q 1159 2491 1159 1978 
L 1159 0 
L 581 0 
L 581 3500 
L 1159 3500 
L 1159 2956 
Q 1366 3272 1645 3428 
Q 1925 3584 2291 3584 
Q 2894 3584 3203 3211 
Q 3513 2838 3513 2113 
z
" transform="scale(0.015625)"/>
      <path id="DejaVuSans-65" d="M 3597 1894 
L 3597 1613 
L 953 1613 
Q 991 1019 1311 708 
Q 1631 397 2203 397 
Q 2534 397 2845 478 
Q 3156 559 3463 722 
L 3463 178 
Q 3153 47 2828 -22 
Q 2503 -91 2169 -91 
Q 1331 -91 842 396 
Q 353 884 353 1716 
Q 353 2575 817 3079 
Q 1281 3584 2069 3584 
Q 2775 3584 3186 3129 
Q 3597 2675 3597 1894 
z
M 3022 2063 
Q 3016 2534 2758 2815 
Q 2500 3097 2075 3097 
Q 1594 3097 1305 2825 
Q 1016 2553 972 2059 
L 3022 2063 
z
" transform="scale(0.015625)"/>
      <path id="DejaVuSans-20" transform="scale(0.015625)"/>
      <path id="DejaVuSans-52" d="M 2841 2188 
Q 3044 2119 3236 1894 
Q 3428 1669 3622 1275 
L 4263 0 
L 3584 0 
L 2988 1197 
Q 2756 1666 2539 1819 
Q 2322 1972 1947 1972 
L 1259 1972 
L 1259 0 
L 628 0 
L 628 4666 
L 2053 4666 
Q 2853 4666 3247 4331 
Q 3641 3997 3641 3322 
Q 3641 2881 3436 2590 
Q 3231 2300 2841 2188 
z
M 1259 4147 
L 1259 2491 
L 2053 2491 
Q 2509 2491 2742 2702 
Q 2975 2913 2975 3322 
Q 2975 3731 2742 3939 
Q 2509 4147 2053 4147 
L 1259 4147 
z
" transform="scale(0.015625)"/>
      <path id="DejaVuSans-61" d="M 2194 1759 
Q 1497 1759 1228 1600 
Q 959 1441 959 1056 
Q 959 750 1161 570 
Q 1363 391 1709 391 
Q 2188 391 2477 730 
Q 2766 1069 2766 1631 
L 2766 1759 
L 2194 1759 
z
M 3341 1997 
L 3341 0 
L 2766 0 
L 2766 531 
Q 2569 213 2275 61 
Q 1981 -91 1556 -91 
Q 1019 -91 701 211 
Q 384 513 384 1019 
Q 384 1609 779 1909 
Q 1175 2209 1959 2209 
L 2766 2209 
L 2766 2266 
Q 2766 2663 2505 2880 
Q 2244 3097 1772 3097 
Q 1472 3097 1187 3025 
Q 903 2953 641 2809 
L 641 3341 
Q 956 3463 1253 3523 
Q 1550 3584 1831 3584 
Q 2591 3584 2966 3190 
Q 3341 2797 3341 1997 
z
" transform="scale(0.015625)"/>
      <path id="DejaVuSans-6c" d="M 603 4863 
L 1178 4863 
L 1178 0 
L 603 0 
L 603 4863 
z
" transform="scale(0.015625)"/>
      <path id="DejaVuSans-69" d="M 603 3500 
L 1178 3500 
L 1178 0 
L 603 0 
L 603 3500 
z
M 603 4863 
L 1178 4863 
L 1178 4134 
L 603 4134 
L 603 4863 
z
" transform="scale(0.015625)"/>
      <path id="DejaVuSans-7a" d="M 353 3500 
L 3084 3500 
L 3084 2975 
L 922 459 
L 3084 459 
L 3084 0 
L 275 0 
L 275 525 
L 2438 3041 
L 353 3041 
L 353 3500 
z
" transform="scale(0.015625)"/>
      <path id="DejaVuSans-74" d="M 1172 4494 
L 1172 3500 
L 2356 3500 
L 2356 3053 
L 1172 3053 
L 1172 1153 
Q 1172 725 1289 603 
Q 1406 481 1766 481 
L 2356 481 
L 2356 0 
L 1766 0 
Q 1100 0 847 248 
Q 594 497 594 1153 
L 594 3053 
L 172 3053 
L 172 3500 
L 594 3500 
L 594 4494 
L 1172 4494 
z
" transform="scale(0.015625)"/>
      <path id="DejaVuSans-6f" d="M 1959 3097 
Q 1497 3097 1228 2736 
Q 959 2375 959 1747 
Q 959 1119 1226 758 
Q 1494 397 1959 397 
Q 2419 397 2687 759 
Q 2956 1122 2956 1747 
Q 2956 2369 2687 2733 
Q 2419 3097 1959 3097 
z
M 1959 3584 
Q 2709 3584 3137 3096 
Q 3566 2609 3566 1747 
Q 3566 888 3137 398 
Q 2709 -91 1959 -91 
Q 1206 -91 779 398 
Q 353 888 353 1747 
Q 353 2609 779 3096 
Q 1206 3584 1959 3584 
z
" transform="scale(0.015625)"/>
      <path id="DejaVuSans-66" d="M 2375 4863 
L 2375 4384 
L 1825 4384 
Q 1516 4384 1395 4259 
Q 1275 4134 1275 3809 
L 1275 3500 
L 2222 3500 
L 2222 3053 
L 1275 3053 
L 1275 0 
L 697 0 
L 697 3053 
L 147 3053 
L 147 3500 
L 697 3500 
L 697 3744 
Q 697 4328 969 4595 
Q 1241 4863 1831 4863 
L 2375 4863 
z
" transform="scale(0.015625)"/>
      <path id="DejaVuSans-41" d="M 2188 4044 
L 1331 1722 
L 3047 1722 
L 2188 4044 
z
M 1831 4666 
L 2547 4666 
L 4325 0 
L 3669 0 
L 3244 1197 
L 1141 1197 
L 716 0 
L 50 0 
L 1831 4666 
z
" transform="scale(0.015625)"/>
      <path id="DejaVuSans-28" d="M 1984 4856 
Q 1566 4138 1362 3434 
Q 1159 2731 1159 2009 
Q 1159 1288 1364 580 
Q 1569 -128 1984 -844 
L 1484 -844 
Q 1016 -109 783 600 
Q 550 1309 550 2009 
Q 550 2706 781 3412 
Q 1013 4119 1484 4856 
L 1984 4856 
z
" transform="scale(0.015625)"/>
      <path id="DejaVuSans-29" d="M 513 4856 
L 1013 4856 
Q 1481 4119 1714 3412 
Q 1947 2706 1947 2009 
Q 1947 1309 1714 600 
Q 1481 -109 1013 -844 
L 513 -844 
Q 928 -128 1133 580 
Q 1338 1288 1338 2009 
Q 1338 2731 1133 3434 
Q 928 4138 513 4856 
z
" transform="scale(0.015625)"/>
      <path id="DejaVuSans-50" d="M 1259 4147 
L 1259 2394 
L 2053 2394 
Q 2494 2394 2734 2622 
Q 2975 2850 2975 3272 
Q 2975 3691 2734 3919 
Q 2494 4147 2053 4147 
L 1259 4147 
z
M 628 4666 
L 2053 4666 
Q 2838 4666 3239 4311 
Q 3641 3956 3641 3272 
Q 3641 2581 3239 2228 
Q 2838 1875 2053 1875 
L 1259 1875 
L 1259 0 
L 628 0 
L 628 4666 
z
" transform="scale(0.015625)"/>
      <path id="DejaVuSans-72" d="M 2631 2963 
Q 2534 3019 2420 3045 
Q 2306 3072 2169 3072 
Q 1681 3072 1420 2755 
Q 1159 2438 1159 1844 
L 1159 0 
L 581 0 
L 581 3500 
L 1159 3500 
L 1159 2956 
Q 1341 3275 1631 3429 
Q 1922 3584 2338 3584 
Q 2397 3584 2469 3576 
Q 2541 3569 2628 3553 
L 2631 2963 
z
" transform="scale(0.015625)"/>
      <path id="DejaVuSans-63" d="M 3122 3366 
L 3122 2828 
Q 2878 2963 2633 3030 
Q 2388 3097 2138 3097 
Q 1578 3097 1268 2742 
Q 959 2388 959 1747 
Q 959 1106 1268 751 
Q 1578 397 2138 397 
Q 2388 397 2633 464 
Q 2878 531 3122 666 
L 3122 134 
Q 2881 22 2623 -34 
Q 2366 -91 2075 -91 
Q 1284 -91 818 406 
Q 353 903 353 1747 
Q 353 2603 823 3093 
Q 1294 3584 2113 3584 
Q 2378 3584 2631 3529 
Q 2884 3475 3122 3366 
z
" transform="scale(0.015625)"/>
      <path id="DejaVuSans-73" d="M 2834 3397 
L 2834 2853 
Q 2591 2978 2328 3040 
Q 2066 3103 1784 3103 
Q 1356 3103 1142 2972 
Q 928 2841 928 2578 
Q 928 2378 1081 2264 
Q 1234 2150 1697 2047 
L 1894 2003 
Q 2506 1872 2764 1633 
Q 3022 1394 3022 966 
Q 3022 478 2636 193 
Q 2250 -91 1575 -91 
Q 1294 -91 989 -36 
Q 684 19 347 128 
L 347 722 
Q 666 556 975 473 
Q 1284 391 1588 391 
Q 1994 391 2212 530 
Q 2431 669 2431 922 
Q 2431 1156 2273 1281 
Q 2116 1406 1581 1522 
L 1381 1569 
Q 847 1681 609 1914 
Q 372 2147 372 2553 
Q 372 3047 722 3315 
Q 1072 3584 1716 3584 
Q 2034 3584 2315 3537 
Q 2597 3491 2834 3397 
z
" transform="scale(0.015625)"/>
      <path id="DejaVuSans-77" d="M 269 3500 
L 844 3500 
L 1563 769 
L 2278 3500 
L 2956 3500 
L 3675 769 
L 4391 3500 
L 4966 3500 
L 4050 0 
L 3372 0 
L 2619 2869 
L 1863 0 
L 1184 0 
L 269 3500 
z
" transform="scale(0.015625)"/>
      <path id="DejaVuSans-68" d="M 3513 2113 
L 3513 0 
L 2938 0 
L 2938 2094 
Q 2938 2591 2744 2837 
Q 2550 3084 2163 3084 
Q 1697 3084 1428 2787 
Q 1159 2491 1159 1978 
L 1159 0 
L 581 0 
L 581 4863 
L 1159 4863 
L 1159 2956 
Q 1366 3272 1645 3428 
Q 1925 3584 2291 3584 
Q 2894 3584 3203 3211 
Q 3513 2838 3513 2113 
z
" transform="scale(0.015625)"/>
      <path id="DejaVuSans-3d5" d="M 2388 4863 
L 2388 3572 
Q 3009 3572 3425 3094 
Q 3853 2606 3853 1747 
Q 3853 888 3425 400 
Q 3009 -78 2388 -78 
L 2388 -1331 
L 1816 -1331 
L 1816 -78 
Q 1194 -78 775 400 
Q 350 888 350 1747 
Q 350 2606 775 3094 
Q 1194 3572 1816 3572 
L 1816 4863 
L 2388 4863 
z
M 2388 434 
Q 2741 434 2981 756 
Q 3244 1116 3247 1747 
Q 3250 2372 2981 2738 
Q 2741 3059 2388 3059 
L 2388 434 
z
M 1816 434 
L 1816 3059 
Q 1463 3059 1225 2738 
Q 953 2372 956 1747 
Q 959 1116 1225 756 
Q 1463 434 1816 434 
z
" transform="scale(0.015625)"/>
      <path id="DejaVuSans-3d" d="M 678 2906 
L 4684 2906 
L 4684 2381 
L 678 2381 
L 678 2906 
z
M 678 1631 
L 4684 1631 
L 4684 1100 
L 678 1100 
L 678 1631 
z
" transform="scale(0.015625)"/>
      <path id="DejaVuSans-2e" d="M 684 794 
L 1344 794 
L 1344 0 
L 684 0 
L 684 794 
z
" transform="scale(0.015625)"/>
     </defs>
     <use xlink:href="#DejaVuSans-4f"/>
     <use xlink:href="#DejaVuSans-6e" x="78.710938"/>
     <use xlink:href="#DejaVuSans-65" x="142.089844"/>
     <use xlink:href="#DejaVuSans-20" x="203.613281"/>
     <use xlink:href="#DejaVuSans-52" x="235.400391"/>
     <use xlink:href="#DejaVuSans-65" x="300.382812"/>
     <use xlink:href="#DejaVuSans-61" x="361.90625"/>
     <use xlink:href="#DejaVuSans-6c" x="423.185547"/>
     <use xlink:href="#DejaVuSans-69" x="450.96875"/>
     <use xlink:href="#DejaVuSans-7a" x="478.751953"/>
     <use xlink:href="#DejaVuSans-61" x="531.242188"/>
     <use xlink:href="#DejaVuSans-74" x="592.521484"/>
     <use xlink:href="#DejaVuSans-69" x="631.730469"/>
     <use xlink:href="#DejaVuSans-6f" x="659.513672"/>
     <use xlink:href="#DejaVuSans-6e" x="720.695312"/>
     <use xlink:href="#DejaVuSans-20" x="784.074219"/>
     <use xlink:href="#DejaVuSans-6f" x="815.861328"/>
     <use xlink:href="#DejaVuSans-66" x="877.042969"/>
     <use xlink:href="#DejaVuSans-20" x="912.248047"/>
     <use xlink:href="#DejaVuSans-41" x="944.035156"/>
     <use xlink:href="#DejaVuSans-52" x="1012.443359"/>
     <use xlink:href="#DejaVuSans-28" x="1081.925781"/>
     <use xlink:href="#DejaVuSans-31" x="1120.939453"/>
     <use xlink:href="#DejaVuSans-29" x="1184.5625"/>
     <use xlink:href="#DejaVuSans-20" x="1223.576172"/>
     <use xlink:href="#DejaVuSans-50" x="1255.363281"/>
     <use xlink:href="#DejaVuSans-72" x="1313.916016"/>
     <use xlink:href="#DejaVuSans-6f" x="1352.779297"/>
     <use xlink:href="#DejaVuSans-63" x="1413.960938"/>
     <use xlink:href="#DejaVuSans-65" x="1468.941406"/>
     <use xlink:href="#DejaVuSans-73" x="1530.464844"/>
     <use xlink:href="#DejaVuSans-73" x="1582.564453"/>
     <use xlink:href="#DejaVuSans-20" x="1634.664062"/>
     <use xlink:href="#DejaVuSans-77" x="1666.451172"/>
     <use xlink:href="#DejaVuSans-69" x="1748.238281"/>
     <use xlink:href="#DejaVuSans-74" x="1776.021484"/>
     <use xlink:href="#DejaVuSans-68" x="1815.230469"/>
     <use xlink:href="#DejaVuSans-20" x="1878.609375"/>
     <use xlink:href="#DejaVuSans-3d5" x="1910.396484"/>
     <use xlink:href="#DejaVuSans-3d" x="1976.363281"/>
     <use xlink:href="#DejaVuSans-30" x="2060.152344"/>
     <use xlink:href="#DejaVuSans-2e" x="2123.775391"/>
     <use xlink:href="#DejaVuSans-35" x="2155.5625"/>
    </g>
   </g>
   <g id="legend_1">
    <g id="patch_7">
     <path d="M 529.7625 48.838125 
L 702.2 48.838125 
Q 704.2 48.838125 704.2 46.838125 
L 704.2 33.16 
Q 704.2 31.16 702.2 31.16 
L 529.7625 31.16 
Q 527.7625 31.16 527.7625 33.16 
L 527.7625 46.838125 
Q 527.7625 48.838125 529.7625 48.838125 
z
" style="fill: #ffffff; opacity: 0.8; stroke: #cccccc; stroke-linejoin: miter"/>
    </g>
    <g id="line2d_14">
     <path d="M 531.7625 39.258438 
L 541.7625 39.258438 
L 551.7625 39.258438 
" style="fill: none; stroke: #1f77b4; stroke-width: 1.5; stroke-linecap: square"/>
    </g>
    <g id="text_8">
     <!-- AR(1) with c=1, σ=1, ϕ=0.5 -->
     <g transform="translate(559.7625 42.758438) scale(0.1 -0.1)">
      <defs>
       <path id="DejaVuSans-2c" d="M 750 794 
L 1409 794 
L 1409 256 
L 897 -744 
L 494 -744 
L 750 256 
L 750 794 
z
" transform="scale(0.015625)"/>
       <path id="DejaVuSans-3c3" d="M 1959 3044 
Q 1484 3044 1228 2700 
Q 959 2341 959 1747 
Q 959 1119 1226 758 
Q 1494 397 1959 397 
Q 2419 397 2687 759 
Q 2956 1122 2956 1747 
Q 2956 2319 2688 2700 
Q 2441 3044 1959 3044 
z
M 1959 3500 
L 3869 3500 
L 3869 2925 
L 3225 2925 
Q 3566 2438 3566 1747 
Q 3566 888 3138 400 
Q 2709 -91 1959 -91 
Q 1206 -91 781 400 
Q 353 888 353 1747 
Q 353 2613 781 3097 
Q 1134 3500 1959 3500 
z
" transform="scale(0.015625)"/>
      </defs>
      <use xlink:href="#DejaVuSans-41"/>
      <use xlink:href="#DejaVuSans-52" x="68.408203"/>
      <use xlink:href="#DejaVuSans-28" x="137.890625"/>
      <use xlink:href="#DejaVuSans-31" x="176.904297"/>
      <use xlink:href="#DejaVuSans-29" x="240.527344"/>
      <use xlink:href="#DejaVuSans-20" x="279.541016"/>
      <use xlink:href="#DejaVuSans-77" x="311.328125"/>
      <use xlink:href="#DejaVuSans-69" x="393.115234"/>
      <use xlink:href="#DejaVuSans-74" x="420.898438"/>
      <use xlink:href="#DejaVuSans-68" x="460.107422"/>
      <use xlink:href="#DejaVuSans-20" x="523.486328"/>
      <use xlink:href="#DejaVuSans-63" x="555.273438"/>
      <use xlink:href="#DejaVuSans-3d" x="610.253906"/>
      <use xlink:href="#DejaVuSans-31" x="694.042969"/>
      <use xlink:href="#DejaVuSans-2c" x="757.666016"/>
      <use xlink:href="#DejaVuSans-20" x="789.453125"/>
      <use xlink:href="#DejaVuSans-3c3" x="821.240234"/>
      <use xlink:href="#DejaVuSans-3d" x="884.619141"/>
      <use xlink:href="#DejaVuSans-31" x="968.408203"/>
      <use xlink:href="#DejaVuSans-2c" x="1032.03125"/>
      <use xlink:href="#DejaVuSans-20" x="1063.818359"/>
      <use xlink:href="#DejaVuSans-3d5" x="1095.605469"/>
      <use xlink:href="#DejaVuSans-3d" x="1161.572266"/>
      <use xlink:href="#DejaVuSans-30" x="1245.361328"/>
      <use xlink:href="#DejaVuSans-2e" x="1308.984375"/>
      <use xlink:href="#DejaVuSans-35" x="1340.771484"/>
     </g>
    </g>
   </g>
  </g>
  <g id="axes_2">
   <g id="patch_8">
    <path d="M 32.515 534.04 
L 709.2 534.04 
L 709.2 294.93 
L 32.515 294.93 
z
" style="fill: #ffffff"/>
   </g>
   <g id="matplotlib.axis_3">
    <g id="xtick_7">
     <g id="line2d_15">
      <g>
       <use xlink:href="#m5459c3afe1" x="63.273409" y="534.04" style="stroke: #000000; stroke-width: 0.8"/>
      </g>
     </g>
     <g id="text_9">
      <!-- 0 -->
      <g transform="translate(60.092159 548.638438) scale(0.1 -0.1)">
       <use xlink:href="#DejaVuSans-30"/>
      </g>
     </g>
    </g>
    <g id="xtick_8">
     <g id="line2d_16">
      <g>
       <use xlink:href="#m5459c3afe1" x="187.549809" y="534.04" style="stroke: #000000; stroke-width: 0.8"/>
      </g>
     </g>
     <g id="text_10">
      <!-- 20 -->
      <g transform="translate(181.187309 548.638438) scale(0.1 -0.1)">
       <use xlink:href="#DejaVuSans-32"/>
       <use xlink:href="#DejaVuSans-30" x="63.623047"/>
      </g>
     </g>
    </g>
    <g id="xtick_9">
     <g id="line2d_17">
      <g>
       <use xlink:href="#m5459c3afe1" x="311.82621" y="534.04" style="stroke: #000000; stroke-width: 0.8"/>
      </g>
     </g>
     <g id="text_11">
      <!-- 40 -->
      <g transform="translate(305.46371 548.638438) scale(0.1 -0.1)">
       <use xlink:href="#DejaVuSans-34"/>
       <use xlink:href="#DejaVuSans-30" x="63.623047"/>
      </g>
     </g>
    </g>
    <g id="xtick_10">
     <g id="line2d_18">
      <g>
       <use xlink:href="#m5459c3afe1" x="436.10261" y="534.04" style="stroke: #000000; stroke-width: 0.8"/>
      </g>
     </g>
     <g id="text_12">
      <!-- 60 -->
      <g transform="translate(429.74011 548.638438) scale(0.1 -0.1)">
       <defs>
        <path id="DejaVuSans-36" d="M 2113 2584 
Q 1688 2584 1439 2293 
Q 1191 2003 1191 1497 
Q 1191 994 1439 701 
Q 1688 409 2113 409 
Q 2538 409 2786 701 
Q 3034 994 3034 1497 
Q 3034 2003 2786 2293 
Q 2538 2584 2113 2584 
z
M 3366 4563 
L 3366 3988 
Q 3128 4100 2886 4159 
Q 2644 4219 2406 4219 
Q 1781 4219 1451 3797 
Q 1122 3375 1075 2522 
Q 1259 2794 1537 2939 
Q 1816 3084 2150 3084 
Q 2853 3084 3261 2657 
Q 3669 2231 3669 1497 
Q 3669 778 3244 343 
Q 2819 -91 2113 -91 
Q 1303 -91 875 529 
Q 447 1150 447 2328 
Q 447 3434 972 4092 
Q 1497 4750 2381 4750 
Q 2619 4750 2861 4703 
Q 3103 4656 3366 4563 
z
" transform="scale(0.015625)"/>
       </defs>
       <use xlink:href="#DejaVuSans-36"/>
       <use xlink:href="#DejaVuSans-30" x="63.623047"/>
      </g>
     </g>
    </g>
    <g id="xtick_11">
     <g id="line2d_19">
      <g>
       <use xlink:href="#m5459c3afe1" x="560.379011" y="534.04" style="stroke: #000000; stroke-width: 0.8"/>
      </g>
     </g>
     <g id="text_13">
      <!-- 80 -->
      <g transform="translate(554.016511 548.638438) scale(0.1 -0.1)">
       <defs>
        <path id="DejaVuSans-38" d="M 2034 2216 
Q 1584 2216 1326 1975 
Q 1069 1734 1069 1313 
Q 1069 891 1326 650 
Q 1584 409 2034 409 
Q 2484 409 2743 651 
Q 3003 894 3003 1313 
Q 3003 1734 2745 1975 
Q 2488 2216 2034 2216 
z
M 1403 2484 
Q 997 2584 770 2862 
Q 544 3141 544 3541 
Q 544 4100 942 4425 
Q 1341 4750 2034 4750 
Q 2731 4750 3128 4425 
Q 3525 4100 3525 3541 
Q 3525 3141 3298 2862 
Q 3072 2584 2669 2484 
Q 3125 2378 3379 2068 
Q 3634 1759 3634 1313 
Q 3634 634 3220 271 
Q 2806 -91 2034 -91 
Q 1263 -91 848 271 
Q 434 634 434 1313 
Q 434 1759 690 2068 
Q 947 2378 1403 2484 
z
M 1172 3481 
Q 1172 3119 1398 2916 
Q 1625 2713 2034 2713 
Q 2441 2713 2670 2916 
Q 2900 3119 2900 3481 
Q 2900 3844 2670 4047 
Q 2441 4250 2034 4250 
Q 1625 4250 1398 4047 
Q 1172 3844 1172 3481 
z
" transform="scale(0.015625)"/>
       </defs>
       <use xlink:href="#DejaVuSans-38"/>
       <use xlink:href="#DejaVuSans-30" x="63.623047"/>
      </g>
     </g>
    </g>
    <g id="xtick_12">
     <g id="line2d_20">
      <g>
       <use xlink:href="#m5459c3afe1" x="684.655411" y="534.04" style="stroke: #000000; stroke-width: 0.8"/>
      </g>
     </g>
     <g id="text_14">
      <!-- 100 -->
      <g transform="translate(675.111661 548.638438) scale(0.1 -0.1)">
       <use xlink:href="#DejaVuSans-31"/>
       <use xlink:href="#DejaVuSans-30" x="63.623047"/>
       <use xlink:href="#DejaVuSans-30" x="127.246094"/>
      </g>
     </g>
    </g>
    <g id="text_15">
     <!-- t -->
     <g transform="translate(368.897344 562.316562) scale(0.1 -0.1)">
      <use xlink:href="#DejaVuSans-74"/>
     </g>
    </g>
   </g>
   <g id="matplotlib.axis_4">
    <g id="ytick_7">
     <g id="line2d_21">
      <g>
       <use xlink:href="#mc04066a5b7" x="32.515" y="521.922403" style="stroke: #000000; stroke-width: 0.8"/>
      </g>
     </g>
     <g id="text_16">
      <!-- −2 -->
      <g transform="translate(10.772813 525.721622) scale(0.1 -0.1)">
       <defs>
        <path id="DejaVuSans-2212" d="M 678 2272 
L 4684 2272 
L 4684 1741 
L 678 1741 
L 678 2272 
z
" transform="scale(0.015625)"/>
       </defs>
       <use xlink:href="#DejaVuSans-2212"/>
       <use xlink:href="#DejaVuSans-32" x="83.789062"/>
      </g>
     </g>
    </g>
    <g id="ytick_8">
     <g id="line2d_22">
      <g>
       <use xlink:href="#mc04066a5b7" x="32.515" y="494.344034" style="stroke: #000000; stroke-width: 0.8"/>
      </g>
     </g>
     <g id="text_17">
      <!-- −1 -->
      <g transform="translate(10.772813 498.143252) scale(0.1 -0.1)">
       <use xlink:href="#DejaVuSans-2212"/>
       <use xlink:href="#DejaVuSans-31" x="83.789062"/>
      </g>
     </g>
    </g>
    <g id="ytick_9">
     <g id="line2d_23">
      <g>
       <use xlink:href="#mc04066a5b7" x="32.515" y="466.765664" style="stroke: #000000; stroke-width: 0.8"/>
      </g>
     </g>
     <g id="text_18">
      <!-- 0 -->
      <g transform="translate(19.1525 470.564883) scale(0.1 -0.1)">
       <use xlink:href="#DejaVuSans-30"/>
      </g>
     </g>
    </g>
    <g id="ytick_10">
     <g id="line2d_24">
      <g>
       <use xlink:href="#mc04066a5b7" x="32.515" y="439.187295" style="stroke: #000000; stroke-width: 0.8"/>
      </g>
     </g>
     <g id="text_19">
      <!-- 1 -->
      <g transform="translate(19.1525 442.986514) scale(0.1 -0.1)">
       <use xlink:href="#DejaVuSans-31"/>
      </g>
     </g>
    </g>
    <g id="ytick_11">
     <g id="line2d_25">
      <g>
       <use xlink:href="#mc04066a5b7" x="32.515" y="411.608925" style="stroke: #000000; stroke-width: 0.8"/>
      </g>
     </g>
     <g id="text_20">
      <!-- 2 -->
      <g transform="translate(19.1525 415.408144) scale(0.1 -0.1)">
       <use xlink:href="#DejaVuSans-32"/>
      </g>
     </g>
    </g>
    <g id="ytick_12">
     <g id="line2d_26">
      <g>
       <use xlink:href="#mc04066a5b7" x="32.515" y="384.030556" style="stroke: #000000; stroke-width: 0.8"/>
      </g>
     </g>
     <g id="text_21">
      <!-- 3 -->
      <g transform="translate(19.1525 387.829775) scale(0.1 -0.1)">
       <use xlink:href="#DejaVuSans-33"/>
      </g>
     </g>
    </g>
    <g id="ytick_13">
     <g id="line2d_27">
      <g>
       <use xlink:href="#mc04066a5b7" x="32.515" y="356.452187" style="stroke: #000000; stroke-width: 0.8"/>
      </g>
     </g>
     <g id="text_22">
      <!-- 4 -->
      <g transform="translate(19.1525 360.251405) scale(0.1 -0.1)">
       <use xlink:href="#DejaVuSans-34"/>
      </g>
     </g>
    </g>
    <g id="ytick_14">
     <g id="line2d_28">
      <g>
       <use xlink:href="#mc04066a5b7" x="32.515" y="328.873817" style="stroke: #000000; stroke-width: 0.8"/>
      </g>
     </g>
     <g id="text_23">
      <!-- 5 -->
      <g transform="translate(19.1525 332.673036) scale(0.1 -0.1)">
       <use xlink:href="#DejaVuSans-35"/>
      </g>
     </g>
    </g>
    <g id="ytick_15">
     <g id="line2d_29">
      <g>
       <use xlink:href="#mc04066a5b7" x="32.515" y="301.295448" style="stroke: #000000; stroke-width: 0.8"/>
      </g>
     </g>
     <g id="text_24">
      <!-- 6 -->
      <g transform="translate(19.1525 305.094666) scale(0.1 -0.1)">
       <use xlink:href="#DejaVuSans-36"/>
      </g>
     </g>
    </g>
   </g>
   <g id="line2d_30">
    <path d="M 63.273409 468.580676 
L 69.487229 436.853447 
L 75.701049 424.572371 
L 81.914869 392.696708 
L 88.128689 412.252186 
L 94.342509 456.555512 
L 100.556329 475.69331 
L 106.770149 438.434268 
L 112.983969 406.964619 
L 119.197789 406.646986 
L 125.411609 426.070659 
L 131.625429 381.535203 
L 137.839249 408.316839 
L 144.053069 347.37743 
L 150.266889 381.986962 
L 156.480709 478.27306 
L 162.694529 433.672518 
L 168.908349 395.800209 
L 175.122169 368.330184 
L 181.335989 403.051522 
L 187.549809 429.194548 
L 193.763629 369.555771 
L 199.977449 419.234051 
L 206.19127 375.066975 
L 212.40509 394.934063 
L 218.61891 385.720249 
L 224.83273 370.469464 
L 231.04655 362.673868 
L 237.26037 434.455422 
L 243.47419 441.510874 
L 249.68801 400.043636 
L 255.90183 361.745225 
L 262.11565 421.508915 
L 268.32947 435.883413 
L 274.54329 423.829035 
L 280.75711 393.015219 
L 286.97093 351.94687 
L 293.18475 380.68804 
L 299.39857 456.934735 
L 305.61239 421.72511 
L 311.82621 433.510626 
L 318.04003 446.278598 
L 324.25385 428.518744 
L 330.46767 424.415512 
L 336.68149 452.953597 
L 342.89531 410.962791 
L 349.10913 412.807901 
L 355.32295 424.446301 
L 361.53677 417.011784 
L 367.75059 379.047054 
L 373.96441 389.028376 
L 380.17823 415.378296 
L 386.39205 347.065896 
L 392.60587 413.516651 
L 398.81969 408.778237 
L 405.03351 443.746354 
L 411.24733 451.988866 
L 417.46115 402.520505 
L 423.67497 411.71503 
L 429.88879 392.007322 
L 436.10261 433.449482 
L 442.31643 371.532837 
L 448.53025 427.684711 
L 454.74407 478.361545 
L 460.95789 483.775539 
L 467.17171 467.169826 
L 473.38553 430.065099 
L 479.59935 383.139511 
L 485.81317 398.684449 
L 492.02699 403.485874 
L 498.24081 399.440205 
L 504.45463 400.837208 
L 510.66845 361.798408 
L 516.88227 365.306345 
L 523.09609 355.068858 
L 529.30991 352.610974 
L 535.52373 335.142043 
L 541.737551 387.972179 
L 547.951371 404.077087 
L 554.165191 381.474446 
L 560.379011 446.937382 
L 566.592831 457.594196 
L 572.806651 440.464185 
L 579.020471 412.498289 
L 585.234291 405.896156 
L 591.448111 394.065521 
L 597.661931 375.424579 
L 603.875751 441.816984 
L 610.089571 440.488737 
L 616.303391 369.023248 
L 622.517211 397.563158 
L 628.731031 439.358598 
L 634.944851 440.382569 
L 641.158671 431.736573 
L 647.372491 450.378904 
L 653.586311 425.060183 
L 659.800131 405.045609 
L 666.013951 441.942857 
L 672.227771 432.500099 
L 678.441591 428.819352 
" clip-path="url(#p50c6fe0169)" style="fill: none; stroke: #1f77b4; stroke-width: 1.5; stroke-linecap: square"/>
   </g>
   <g id="line2d_31">
    <path d="M 63.273409 402.632673 
L 69.487229 387.461097 
L 75.701049 374.460051 
L 81.914869 371.789306 
L 88.128689 415.851289 
L 94.342509 393.083877 
L 100.556329 396.713039 
L 106.770149 440.579099 
L 112.983969 435.682769 
L 119.197789 423.687885 
L 125.411609 422.4643 
L 131.625429 406.02976 
L 137.839249 366.968371 
L 144.053069 360.335972 
L 150.266889 370.219986 
L 156.480709 432.698103 
L 162.694529 460.524429 
L 168.908349 411.829659 
L 175.122169 431.375165 
L 181.335989 463.328959 
L 187.549809 469.29084 
L 193.763629 448.340303 
L 199.977449 408.549306 
L 206.19127 390.966009 
L 212.40509 367.720246 
L 218.61891 398.38943 
L 224.83273 441.772726 
L 231.04655 403.505491 
L 237.26037 408.211335 
L 243.47419 411.091085 
L 249.68801 422.439378 
L 255.90183 431.362389 
L 262.11565 432.750876 
L 268.32947 384.062042 
L 274.54329 376.955726 
L 280.75711 398.614512 
L 286.97093 372.271791 
L 293.18475 369.170845 
L 299.39857 374.95482 
L 305.61239 415.05242 
L 311.82621 449.71181 
L 318.04003 472.244305 
L 324.25385 373.739658 
L 330.46767 361.770259 
L 336.68149 476.3666 
L 342.89531 412.693887 
L 349.10913 420.381034 
L 355.32295 395.478076 
L 361.53677 379.346876 
L 367.75059 457.27052 
L 373.96441 419.922671 
L 380.17823 430.613811 
L 386.39205 465.355072 
L 392.60587 470.599997 
L 398.81969 376.555296 
L 405.03351 408.11788 
L 411.24733 408.999181 
L 417.46115 476.891952 
L 423.67497 430.574712 
L 429.88879 378.695745 
L 436.10261 380.759213 
L 442.31643 368.501223 
L 448.53025 381.065193 
L 454.74407 394.393332 
L 460.95789 376.235232 
L 467.17171 417.72361 
L 473.38553 389.774645 
L 479.59935 387.935293 
L 485.81317 379.241726 
L 492.02699 382.595589 
L 498.24081 347.965248 
L 504.45463 389.399111 
L 510.66845 419.319061 
L 516.88227 461.593806 
L 523.09609 429.420919 
L 529.30991 448.628569 
L 535.52373 428.778725 
L 541.737551 381.491525 
L 547.951371 375.787452 
L 554.165191 401.890455 
L 560.379011 437.46017 
L 566.592831 454.666221 
L 572.806651 432.11211 
L 579.020471 411.593521 
L 585.234291 410.693065 
L 591.448111 425.83304 
L 597.661931 429.044034 
L 603.875751 461.898576 
L 610.089571 443.852782 
L 616.303391 427.078738 
L 622.517211 452.539308 
L 628.731031 439.151218 
L 634.944851 406.150564 
L 641.158671 416.81711 
L 647.372491 418.626954 
L 653.586311 379.132977 
L 659.800131 432.542996 
L 666.013951 433.984621 
L 672.227771 415.528378 
L 678.441591 442.306766 
" clip-path="url(#p50c6fe0169)" style="fill: none; stroke: #ff7f0e; stroke-width: 1.5; stroke-linecap: square"/>
   </g>
   <g id="line2d_32">
    <path d="M 63.273409 487.883247 
L 69.487229 449.579055 
L 75.701049 481.558186 
L 81.914869 442.590268 
L 88.128689 436.612468 
L 94.342509 403.628634 
L 100.556329 368.096224 
L 106.770149 388.419476 
L 112.983969 434.432529 
L 119.197789 409.467041 
L 125.411609 395.164919 
L 131.625429 347.89136 
L 137.839249 401.188151 
L 144.053069 382.56058 
L 150.266889 470.353669 
L 156.480709 451.571448 
L 162.694529 412.502335 
L 168.908349 421.52945 
L 175.122169 414.796305 
L 181.335989 383.573965 
L 187.549809 332.78324 
L 193.763629 367.205329 
L 199.977449 433.298756 
L 206.19127 427.094259 
L 212.40509 392.916448 
L 218.61891 392.870255 
L 224.83273 385.118838 
L 231.04655 416.438555 
L 237.26037 398.545813 
L 243.47419 416.85599 
L 249.68801 422.575514 
L 255.90183 383.681929 
L 262.11565 395.740397 
L 268.32947 388.71157 
L 274.54329 437.98291 
L 280.75711 462.743473 
L 286.97093 431.606006 
L 293.18475 370.38311 
L 299.39857 366.94609 
L 305.61239 400.674705 
L 311.82621 398.238503 
L 318.04003 387.584716 
L 324.25385 417.104526 
L 330.46767 439.245592 
L 336.68149 372.634754 
L 342.89531 358.215446 
L 349.10913 305.798636 
L 355.32295 392.341474 
L 361.53677 393.907988 
L 367.75059 415.749559 
L 373.96441 439.363793 
L 380.17823 390.177824 
L 386.39205 370.153672 
L 392.60587 361.555748 
L 398.81969 416.288435 
L 405.03351 407.704275 
L 411.24733 397.597799 
L 417.46115 349.582406 
L 423.67497 362.348426 
L 429.88879 366.783231 
L 436.10261 376.544957 
L 442.31643 410.295744 
L 448.53025 421.900401 
L 454.74407 464.186363 
L 460.95789 402.302145 
L 467.17171 410.118531 
L 473.38553 354.536363 
L 479.59935 396.967649 
L 485.81317 404.868571 
L 492.02699 428.155867 
L 498.24081 460.691488 
L 504.45463 383.643882 
L 510.66845 366.171964 
L 516.88227 360.422847 
L 523.09609 385.551103 
L 529.30991 424.795845 
L 535.52373 406.972147 
L 541.737551 403.552498 
L 547.951371 416.162794 
L 554.165191 431.61776 
L 560.379011 370.25048 
L 566.592831 356.410356 
L 572.806651 421.658973 
L 579.020471 447.416232 
L 585.234291 423.291598 
L 591.448111 409.08764 
L 597.661931 416.724943 
L 603.875751 405.399125 
L 610.089571 462.7725 
L 616.303391 357.735901 
L 622.517211 390.315154 
L 628.731031 370.179422 
L 634.944851 394.591529 
L 641.158671 383.678616 
L 647.372491 347.703303 
L 653.586311 372.575618 
L 659.800131 355.411445 
L 666.013951 430.933654 
L 672.227771 432.065313 
L 678.441591 457.520743 
" clip-path="url(#p50c6fe0169)" style="fill: none; stroke: #2ca02c; stroke-width: 1.5; stroke-linecap: square"/>
   </g>
   <g id="line2d_33">
    <path d="M 63.273409 441.238821 
L 69.487229 437.545836 
L 75.701049 399.035965 
L 81.914869 446.611771 
L 88.128689 393.454601 
L 94.342509 370.574579 
L 100.556329 409.207912 
L 106.770149 399.0003 
L 112.983969 425.097606 
L 119.197789 425.562151 
L 125.411609 430.073743 
L 131.625429 442.850157 
L 137.839249 409.173445 
L 144.053069 362.229915 
L 150.266889 413.514191 
L 156.480709 420.192909 
L 162.694529 445.750581 
L 168.908349 393.671908 
L 175.122169 400.928774 
L 181.335989 442.529264 
L 187.549809 414.702293 
L 193.763629 418.583365 
L 199.977449 397.185468 
L 206.19127 434.640879 
L 212.40509 438.528159 
L 218.61891 454.058655 
L 224.83273 464.954252 
L 231.04655 457.930695 
L 237.26037 426.268085 
L 243.47419 379.936193 
L 249.68801 453.675285 
L 255.90183 476.581142 
L 262.11565 439.178678 
L 268.32947 440.437701 
L 274.54329 364.820251 
L 280.75711 351.427864 
L 286.97093 370.368691 
L 293.18475 364.322197 
L 299.39857 333.699189 
L 305.61239 343.628437 
L 311.82621 366.714967 
L 318.04003 422.948549 
L 324.25385 390.986409 
L 330.46767 392.235028 
L 336.68149 400.256371 
L 342.89531 395.825571 
L 349.10913 420.516331 
L 355.32295 373.913338 
L 361.53677 376.619924 
L 367.75059 435.73776 
L 373.96441 446.513132 
L 380.17823 365.873467 
L 386.39205 408.196598 
L 392.60587 384.312183 
L 398.81969 418.389194 
L 405.03351 448.16751 
L 411.24733 447.511821 
L 417.46115 380.285034 
L 423.67497 419.417573 
L 429.88879 392.977065 
L 436.10261 365.258851 
L 442.31643 390.345706 
L 448.53025 395.789752 
L 454.74407 406.986212 
L 460.95789 410.619598 
L 467.17171 426.00616 
L 473.38553 429.925177 
L 479.59935 380.191009 
L 485.81317 398.49097 
L 492.02699 364.263829 
L 498.24081 374.699501 
L 504.45463 413.348653 
L 510.66845 437.457672 
L 516.88227 413.226443 
L 523.09609 420.444777 
L 529.30991 412.590031 
L 535.52373 414.312111 
L 541.737551 358.484354 
L 547.951371 382.26327 
L 554.165191 346.296372 
L 560.379011 349.338766 
L 566.592831 378.957974 
L 572.806651 386.478099 
L 579.020471 413.438144 
L 585.234291 451.577971 
L 591.448111 411.202948 
L 597.661931 383.685818 
L 603.875751 378.18812 
L 610.089571 373.975195 
L 616.303391 472.495477 
L 622.517211 501.490457 
L 628.731031 472.6015 
L 634.944851 462.022152 
L 641.158671 449.179705 
L 647.372491 402.412182 
L 653.586311 455.050157 
L 659.800131 433.150199 
L 666.013951 431.77278 
L 672.227771 427.489588 
L 678.441591 430.599805 
" clip-path="url(#p50c6fe0169)" style="fill: none; stroke: #d62728; stroke-width: 1.5; stroke-linecap: square"/>
   </g>
   <g id="line2d_34">
    <path d="M 63.273409 461.053639 
L 69.487229 436.215059 
L 75.701049 466.476696 
L 81.914869 465.087513 
L 88.128689 508.731621 
L 94.342509 498.783046 
L 100.556329 447.860111 
L 106.770149 458.58246 
L 112.983969 408.295723 
L 119.197789 396.374184 
L 125.411609 380.164209 
L 131.625429 428.671503 
L 137.839249 461.119848 
L 144.053069 464.019353 
L 150.266889 424.127382 
L 156.480709 387.722788 
L 162.694529 410.989137 
L 168.908349 383.369207 
L 175.122169 401.660107 
L 181.335989 383.356945 
L 187.549809 417.523511 
L 193.763629 366.448868 
L 199.977449 415.411044 
L 206.19127 440.695044 
L 212.40509 360.601887 
L 218.61891 378.064639 
L 224.83273 391.020091 
L 231.04655 355.422177 
L 237.26037 381.657014 
L 243.47419 373.237677 
L 249.68801 467.449282 
L 255.90183 420.963698 
L 262.11565 417.613594 
L 268.32947 423.20325 
L 274.54329 357.945351 
L 280.75711 410.892406 
L 286.97093 451.622115 
L 293.18475 431.084135 
L 299.39857 382.277035 
L 305.61239 394.978943 
L 311.82621 410.56802 
L 318.04003 373.985353 
L 324.25385 427.398381 
L 330.46767 436.770396 
L 336.68149 413.423639 
L 342.89531 408.166169 
L 349.10913 430.744631 
L 355.32295 405.462564 
L 361.53677 395.09748 
L 367.75059 353.269637 
L 373.96441 405.485551 
L 380.17823 357.014162 
L 386.39205 373.669227 
L 392.60587 386.700562 
L 398.81969 392.967998 
L 405.03351 420.508296 
L 411.24733 425.419482 
L 417.46115 433.484491 
L 423.67497 471.736235 
L 429.88879 448.919471 
L 436.10261 386.987247 
L 442.31643 465.600667 
L 448.53025 425.848898 
L 454.74407 490.977248 
L 460.95789 448.395136 
L 467.17171 429.072993 
L 473.38553 418.858983 
L 479.59935 390.841325 
L 485.81317 410.775393 
L 492.02699 368.001659 
L 498.24081 341.22523 
L 504.45463 339.811849 
L 510.66845 377.293202 
L 516.88227 417.207794 
L 523.09609 437.993645 
L 529.30991 424.61907 
L 535.52373 425.709924 
L 541.737551 386.006827 
L 547.951371 389.955715 
L 554.165191 347.170472 
L 560.379011 399.340578 
L 566.592831 387.259848 
L 572.806651 447.730909 
L 579.020471 438.934557 
L 585.234291 404.974229 
L 591.448111 390.793429 
L 597.661931 419.78634 
L 603.875751 410.257591 
L 610.089571 419.826454 
L 616.303391 453.021713 
L 622.517211 407.332878 
L 628.731031 439.928932 
L 634.944851 446.798733 
L 641.158671 429.999236 
L 647.372491 398.197709 
L 653.586311 439.771712 
L 659.800131 380.100516 
L 666.013951 366.710384 
L 672.227771 402.96448 
L 678.441591 401.75461 
" clip-path="url(#p50c6fe0169)" style="fill: none; stroke: #9467bd; stroke-width: 1.5; stroke-linecap: square"/>
   </g>
   <g id="line2d_35">
    <path d="M 63.273409 457.464321 
L 69.487229 393.596386 
L 75.701049 412.293429 
L 81.914869 431.754573 
L 88.128689 423.69003 
L 94.342509 391.180182 
L 100.556329 386.028779 
L 106.770149 366.07096 
L 112.983969 391.922559 
L 119.197789 413.982171 
L 125.411609 442.750759 
L 131.625429 425.780409 
L 137.839249 443.690847 
L 144.053069 426.638202 
L 150.266889 384.322491 
L 156.480709 364.964672 
L 162.694529 367.468013 
L 168.908349 400.372833 
L 175.122169 410.477632 
L 181.335989 401.691853 
L 187.549809 443.894953 
L 193.763629 450.174718 
L 199.977449 463.336984 
L 206.19127 380.094779 
L 212.40509 415.108202 
L 218.61891 404.451561 
L 224.83273 399.501001 
L 231.04655 447.062465 
L 237.26037 451.73771 
L 243.47419 414.068532 
L 249.68801 421.947101 
L 255.90183 408.828707 
L 262.11565 419.213178 
L 268.32947 398.377106 
L 274.54329 416.943258 
L 280.75711 429.748685 
L 286.97093 426.641859 
L 293.18475 413.240124 
L 299.39857 366.620131 
L 305.61239 391.913308 
L 311.82621 376.98218 
L 318.04003 406.013903 
L 324.25385 446.115067 
L 330.46767 440.682429 
L 336.68149 479.737666 
L 342.89531 452.226019 
L 349.10913 454.310076 
L 355.32295 438.868882 
L 361.53677 407.630556 
L 367.75059 404.224482 
L 373.96441 458.061401 
L 380.17823 453.756781 
L 386.39205 451.889065 
L 392.60587 409.877109 
L 398.81969 421.745988 
L 405.03351 419.005978 
L 411.24733 383.970692 
L 417.46115 382.175653 
L 423.67497 383.639237 
L 429.88879 395.467698 
L 436.10261 415.408686 
L 442.31643 417.886704 
L 448.53025 426.855306 
L 454.74407 417.424311 
L 460.95789 386.342281 
L 467.17171 414.053637 
L 473.38553 459.490252 
L 479.59935 455.347054 
L 485.81317 435.400966 
L 492.02699 421.455842 
L 498.24081 389.416262 
L 504.45463 411.396556 
L 510.66845 405.596565 
L 516.88227 447.570293 
L 523.09609 455.448463 
L 529.30991 439.893691 
L 535.52373 419.089189 
L 541.737551 397.117087 
L 547.951371 414.622622 
L 554.165191 425.479663 
L 560.379011 407.362326 
L 566.592831 402.08539 
L 572.806651 438.712888 
L 579.020471 464.48495 
L 585.234291 459.316743 
L 591.448111 452.653871 
L 597.661931 435.608396 
L 603.875751 421.756205 
L 610.089571 393.555628 
L 616.303391 384.121607 
L 622.517211 383.100215 
L 628.731031 390.120357 
L 634.944851 401.595127 
L 641.158671 430.342841 
L 647.372491 366.566135 
L 653.586311 407.461944 
L 659.800131 456.340828 
L 666.013951 474.128708 
L 672.227771 391.485911 
L 678.441591 386.979654 
" clip-path="url(#p50c6fe0169)" style="fill: none; stroke: #8c564b; stroke-width: 1.5; stroke-linecap: square"/>
   </g>
   <g id="line2d_36">
    <path d="M 63.273409 448.955184 
L 69.487229 379.621971 
L 75.701049 364.413397 
L 81.914869 413.072774 
L 88.128689 406.156047 
L 94.342509 436.545208 
L 100.556329 385.893493 
L 106.770149 411.159729 
L 112.983969 407.588056 
L 119.197789 427.490724 
L 125.411609 407.64534 
L 131.625429 375.967526 
L 137.839249 359.65418 
L 144.053069 376.83079 
L 150.266889 359.660836 
L 156.480709 341.403036 
L 162.694529 415.977328 
L 168.908349 432.349111 
L 175.122169 447.27211 
L 181.335989 454.846469 
L 187.549809 422.03566 
L 193.763629 428.901168 
L 199.977449 391.859946 
L 206.19127 444.37542 
L 212.40509 469.23736 
L 218.61891 447.989294 
L 224.83273 461.707237 
L 231.04655 438.233783 
L 237.26037 443.229224 
L 243.47419 389.144603 
L 249.68801 363.635214 
L 255.90183 371.82493 
L 262.11565 362.296357 
L 268.32947 392.248568 
L 274.54329 383.983802 
L 280.75711 388.436257 
L 286.97093 383.888383 
L 293.18475 381.047113 
L 299.39857 387.833773 
L 305.61239 379.286872 
L 311.82621 448.336874 
L 318.04003 407.762707 
L 324.25385 408.249446 
L 330.46767 407.839834 
L 336.68149 418.748197 
L 342.89531 442.307005 
L 349.10913 417.335739 
L 355.32295 448.83307 
L 361.53677 426.552958 
L 367.75059 424.341924 
L 373.96441 469.901287 
L 380.17823 444.365462 
L 386.39205 416.214053 
L 392.60587 443.212339 
L 398.81969 409.440281 
L 405.03351 422.09734 
L 411.24733 441.426794 
L 417.46115 435.541704 
L 423.67497 459.85932 
L 429.88879 432.04565 
L 436.10261 418.931519 
L 442.31643 385.305351 
L 448.53025 367.148339 
L 454.74407 371.951162 
L 460.95789 366.392986 
L 467.17171 364.900133 
L 473.38553 424.734208 
L 479.59935 453.815461 
L 485.81317 428.355662 
L 492.02699 425.915359 
L 498.24081 405.938349 
L 504.45463 459.508292 
L 510.66845 444.42913 
L 516.88227 442.374258 
L 523.09609 457.905597 
L 529.30991 409.809823 
L 535.52373 430.633451 
L 541.737551 397.491459 
L 547.951371 393.535362 
L 554.165191 434.708574 
L 560.379011 399.799275 
L 566.592831 359.793145 
L 572.806651 406.045639 
L 579.020471 407.221647 
L 585.234291 411.830726 
L 591.448111 458.100296 
L 597.661931 446.397464 
L 603.875751 395.42964 
L 610.089571 403.99067 
L 616.303391 412.014465 
L 622.517211 455.092113 
L 628.731031 432.085009 
L 634.944851 385.430044 
L 641.158671 454.147009 
L 647.372491 423.710603 
L 653.586311 425.597819 
L 659.800131 408.678661 
L 666.013951 363.838268 
L 672.227771 390.15497 
L 678.441591 416.905094 
" clip-path="url(#p50c6fe0169)" style="fill: none; stroke: #e377c2; stroke-width: 1.5; stroke-linecap: square"/>
   </g>
   <g id="line2d_37">
    <path d="M 63.273409 457.675557 
L 69.487229 429.106028 
L 75.701049 448.373567 
L 81.914869 382.117803 
L 88.128689 402.456729 
L 94.342509 433.16572 
L 100.556329 464.298049 
L 106.770149 452.875831 
L 112.983969 451.245318 
L 119.197789 422.347325 
L 125.411609 396.061559 
L 131.625429 385.500431 
L 137.839249 358.623758 
L 144.053069 377.251371 
L 150.266889 410.616754 
L 156.480709 435.877976 
L 162.694529 452.647951 
L 168.908349 446.958825 
L 175.122169 452.769515 
L 181.335989 431.203842 
L 187.549809 424.507987 
L 193.763629 395.893123 
L 199.977449 394.468719 
L 206.19127 359.120688 
L 212.40509 369.032422 
L 218.61891 420.884295 
L 224.83273 404.608109 
L 231.04655 411.140315 
L 237.26037 378.635437 
L 243.47419 404.774846 
L 249.68801 383.096414 
L 255.90183 393.206879 
L 262.11565 380.357903 
L 268.32947 396.836767 
L 274.54329 373.183391 
L 280.75711 393.543917 
L 286.97093 365.815432 
L 293.18475 355.952553 
L 299.39857 398.731305 
L 305.61239 358.880338 
L 311.82621 350.891391 
L 318.04003 404.919312 
L 324.25385 398.693743 
L 330.46767 425.484642 
L 336.68149 441.438416 
L 342.89531 455.210526 
L 349.10913 470.484875 
L 355.32295 473.336382 
L 361.53677 473.664846 
L 367.75059 425.703138 
L 373.96441 440.293578 
L 380.17823 392.508194 
L 386.39205 389.669496 
L 392.60587 372.151684 
L 398.81969 371.256536 
L 405.03351 418.378022 
L 411.24733 416.787508 
L 417.46115 414.20826 
L 423.67497 384.799598 
L 429.88879 385.707441 
L 436.10261 416.354845 
L 442.31643 417.246452 
L 448.53025 382.776685 
L 454.74407 399.159834 
L 460.95789 422.797734 
L 467.17171 404.757626 
L 473.38553 396.788044 
L 479.59935 363.849296 
L 485.81317 347.499513 
L 492.02699 364.587505 
L 498.24081 365.641563 
L 504.45463 390.902451 
L 510.66845 440.41442 
L 516.88227 406.983689 
L 523.09609 420.707143 
L 529.30991 396.861105 
L 535.52373 403.81873 
L 541.737551 411.396243 
L 547.951371 364.810532 
L 554.165191 354.941206 
L 560.379011 332.66765 
L 566.592831 401.027886 
L 572.806651 365.922383 
L 579.020471 407.105333 
L 585.234291 398.610588 
L 591.448111 460.314457 
L 597.661931 456.436146 
L 603.875751 494.955762 
L 610.089571 455.023279 
L 616.303391 431.902713 
L 622.517211 412.342585 
L 628.731031 395.909443 
L 634.944851 406.250844 
L 641.158671 425.043054 
L 647.372491 401.935277 
L 653.586311 392.173841 
L 659.800131 381.056127 
L 666.013951 486.776986 
L 672.227771 453.982518 
L 678.441591 404.908889 
" clip-path="url(#p50c6fe0169)" style="fill: none; stroke: #7f7f7f; stroke-width: 1.5; stroke-linecap: square"/>
   </g>
   <g id="line2d_38">
    <path d="M 63.273409 418.018896 
L 69.487229 424.221316 
L 75.701049 366.68354 
L 81.914869 357.539225 
L 88.128689 430.975524 
L 94.342509 475.219306 
L 100.556329 482.57756 
L 106.770149 447.620315 
L 112.983969 441.686899 
L 119.197789 369.896059 
L 125.411609 387.137649 
L 131.625429 403.169756 
L 137.839249 484.570266 
L 144.053069 488.864323 
L 150.266889 448.534274 
L 156.480709 497.301946 
L 162.694529 483.298668 
L 168.908349 482.19378 
L 175.122169 463.422878 
L 181.335989 428.705105 
L 187.549809 418.51945 
L 193.763629 384.944118 
L 199.977449 374.417604 
L 206.19127 434.142709 
L 212.40509 407.981904 
L 218.61891 441.995626 
L 224.83273 434.788658 
L 231.04655 435.981435 
L 237.26037 376.920489 
L 243.47419 394.443399 
L 249.68801 435.409056 
L 255.90183 404.974548 
L 262.11565 432.57069 
L 268.32947 409.687302 
L 274.54329 424.18377 
L 280.75711 387.158408 
L 286.97093 395.095893 
L 293.18475 401.579123 
L 299.39857 397.218958 
L 305.61239 384.168519 
L 311.82621 441.667043 
L 318.04003 386.780197 
L 324.25385 380.44832 
L 330.46767 447.146269 
L 336.68149 376.940974 
L 342.89531 344.683311 
L 349.10913 337.384873 
L 355.32295 372.910135 
L 361.53677 373.054839 
L 367.75059 389.786687 
L 373.96441 394.656417 
L 380.17823 353.023877 
L 386.39205 374.052476 
L 392.60587 423.100954 
L 398.81969 420.281802 
L 405.03351 409.422152 
L 411.24733 408.727297 
L 417.46115 321.435008 
L 423.67497 393.697892 
L 429.88879 387.645013 
L 436.10261 395.569326 
L 442.31643 372.563772 
L 448.53025 401.652416 
L 454.74407 399.747158 
L 460.95789 453.050892 
L 467.17171 418.543927 
L 473.38553 401.237594 
L 479.59935 408.894152 
L 485.81317 397.500503 
L 492.02699 386.520698 
L 498.24081 384.355928 
L 504.45463 404.388173 
L 510.66845 420.873518 
L 516.88227 385.448529 
L 523.09609 374.261918 
L 529.30991 418.477074 
L 535.52373 398.67711 
L 541.737551 401.145722 
L 547.951371 380.687045 
L 554.165191 391.45857 
L 560.379011 401.352062 
L 566.592831 418.196343 
L 572.806651 428.428904 
L 579.020471 467.127049 
L 585.234291 416.543643 
L 591.448111 449.144135 
L 597.661931 464.192995 
L 603.875751 413.67538 
L 610.089571 452.294595 
L 616.303391 458.674429 
L 622.517211 412.154468 
L 628.731031 433.347981 
L 634.944851 431.510475 
L 641.158671 416.691987 
L 647.372491 377.945331 
L 653.586311 381.745271 
L 659.800131 327.006478 
L 666.013951 398.120421 
L 672.227771 357.100168 
L 678.441591 390.13411 
" clip-path="url(#p50c6fe0169)" style="fill: none; stroke: #bcbd22; stroke-width: 1.5; stroke-linecap: square"/>
   </g>
   <g id="line2d_39">
    <path d="M 63.273409 418.706133 
L 69.487229 388.153961 
L 75.701049 397.700161 
L 81.914869 414.870252 
L 88.128689 484.56856 
L 94.342509 458.904656 
L 100.556329 426.110526 
L 106.770149 433.899811 
L 112.983969 508.309384 
L 119.197789 454.600572 
L 125.411609 399.509353 
L 131.625429 428.193268 
L 137.839249 483.763444 
L 144.053069 451.291467 
L 150.266889 475.880651 
L 156.480709 490.501806 
L 162.694529 423.68731 
L 168.908349 438.592049 
L 175.122169 340.723106 
L 181.335989 418.325032 
L 187.549809 333.662595 
L 193.763629 321.170675 
L 199.977449 370.151986 
L 206.19127 369.98003 
L 212.40509 419.373443 
L 218.61891 381.692064 
L 224.83273 438.759444 
L 231.04655 447.130625 
L 237.26037 442.806318 
L 243.47419 421.495111 
L 249.68801 428.734282 
L 255.90183 404.358362 
L 262.11565 447.661582 
L 268.32947 365.959093 
L 274.54329 376.050543 
L 280.75711 419.056967 
L 286.97093 441.667973 
L 293.18475 391.076858 
L 299.39857 432.44858 
L 305.61239 432.174408 
L 311.82621 462.882048 
L 318.04003 435.730554 
L 324.25385 425.082074 
L 330.46767 397.883428 
L 336.68149 425.96619 
L 342.89531 388.606085 
L 349.10913 384.745016 
L 355.32295 421.19252 
L 361.53677 465.38896 
L 367.75059 451.976307 
L 373.96441 453.44282 
L 380.17823 413.460299 
L 386.39205 430.112643 
L 392.60587 404.848592 
L 398.81969 358.537662 
L 405.03351 365.561558 
L 411.24733 371.014696 
L 417.46115 433.008705 
L 423.67497 445.29697 
L 429.88879 410.935726 
L 436.10261 428.795059 
L 442.31643 424.929701 
L 448.53025 383.010823 
L 454.74407 434.034654 
L 460.95789 429.161865 
L 467.17171 400.067378 
L 473.38553 418.400338 
L 479.59935 414.823074 
L 485.81317 421.273485 
L 492.02699 426.71117 
L 498.24081 418.157738 
L 504.45463 412.270489 
L 510.66845 362.983837 
L 516.88227 406.236383 
L 523.09609 372.577449 
L 529.30991 412.28157 
L 535.52373 444.511727 
L 541.737551 457.227457 
L 547.951371 424.013562 
L 554.165191 402.875214 
L 560.379011 391.052847 
L 566.592831 407.523896 
L 572.806651 412.98032 
L 579.020471 390.598607 
L 585.234291 410.813666 
L 591.448111 433.313508 
L 597.661931 443.338982 
L 603.875751 501.464065 
L 610.089571 496.800558 
L 616.303391 469.396293 
L 622.517211 441.92791 
L 628.731031 448.246988 
L 634.944851 384.068304 
L 641.158671 431.135107 
L 647.372491 411.807553 
L 653.586311 453.056787 
L 659.800131 467.803113 
L 666.013951 453.550066 
L 672.227771 452.581786 
L 678.441591 425.450497 
" clip-path="url(#p50c6fe0169)" style="fill: none; stroke: #17becf; stroke-width: 1.5; stroke-linecap: square"/>
   </g>
   <g id="line2d_40">
    <path d="M 63.273409 441.948878 
L 69.487229 454.824252 
L 75.701049 425.205377 
L 81.914869 427.918917 
L 88.128689 410.344981 
L 94.342509 410.972187 
L 100.556329 405.271088 
L 106.770149 404.888906 
L 112.983969 431.912266 
L 119.197789 446.101425 
L 125.411609 429.814507 
L 131.625429 418.938113 
L 137.839249 411.069743 
L 144.053069 442.22192 
L 150.266889 412.863098 
L 156.480709 406.053963 
L 162.694529 435.997526 
L 168.908349 446.928664 
L 175.122169 422.322183 
L 181.335989 472.43102 
L 187.549809 451.920618 
L 193.763629 439.738864 
L 199.977449 408.341135 
L 206.19127 399.547307 
L 212.40509 401.863017 
L 218.61891 415.845659 
L 224.83273 412.303801 
L 231.04655 395.919323 
L 237.26037 419.385292 
L 243.47419 390.578634 
L 249.68801 409.082622 
L 255.90183 458.672642 
L 262.11565 444.04125 
L 268.32947 420.488658 
L 274.54329 397.699695 
L 280.75711 429.872305 
L 286.97093 384.402905 
L 293.18475 423.059816 
L 299.39857 465.875787 
L 305.61239 449.697827 
L 311.82621 447.435915 
L 318.04003 430.748311 
L 324.25385 366.636899 
L 330.46767 410.726534 
L 336.68149 429.974705 
L 342.89531 428.837244 
L 349.10913 401.376183 
L 355.32295 400.419699 
L 361.53677 388.578242 
L 367.75059 433.834909 
L 373.96441 463.358587 
L 380.17823 433.319236 
L 386.39205 424.280048 
L 392.60587 415.732747 
L 398.81969 422.944791 
L 405.03351 467.047826 
L 411.24733 490.861631 
L 417.46115 428.909807 
L 423.67497 389.813655 
L 429.88879 397.152237 
L 436.10261 393.935129 
L 442.31643 381.915593 
L 448.53025 345.158125 
L 454.74407 401.867269 
L 460.95789 370.2462 
L 467.17171 359.535418 
L 473.38553 414.227965 
L 479.59935 387.866064 
L 485.81317 389.953758 
L 492.02699 357.20406 
L 498.24081 409.638393 
L 504.45463 410.230588 
L 510.66845 395.762197 
L 516.88227 381.900597 
L 523.09609 379.514722 
L 529.30991 396.510461 
L 535.52373 376.948442 
L 541.737551 413.701079 
L 547.951371 374.136452 
L 554.165191 382.891861 
L 560.379011 397.965753 
L 566.592831 383.816024 
L 572.806651 401.05142 
L 579.020471 363.705078 
L 585.234291 410.189057 
L 591.448111 394.519244 
L 597.661931 380.808826 
L 603.875751 334.53194 
L 610.089571 391.731169 
L 616.303391 421.824055 
L 622.517211 394.352384 
L 628.731031 433.220482 
L 634.944851 418.584381 
L 641.158671 390.904582 
L 647.372491 391.392414 
L 653.586311 433.56724 
L 659.800131 434.072514 
L 666.013951 427.191597 
L 672.227771 408.009658 
L 678.441591 438.185106 
" clip-path="url(#p50c6fe0169)" style="fill: none; stroke: #1f77b4; stroke-width: 1.5; stroke-linecap: square"/>
   </g>
   <g id="line2d_41">
    <path d="M 63.273409 428.549664 
L 69.487229 413.073847 
L 75.701049 404.267139 
L 81.914869 431.083675 
L 88.128689 421.102742 
L 94.342509 395.456693 
L 100.556329 431.741774 
L 106.770149 389.961233 
L 112.983969 410.776043 
L 119.197789 407.58571 
L 125.411609 430.053425 
L 131.625429 451.396074 
L 137.839249 413.2306 
L 144.053069 444.898991 
L 150.266889 431.81695 
L 156.480709 401.454634 
L 162.694529 419.251482 
L 168.908349 409.672674 
L 175.122169 404.425397 
L 181.335989 392.176572 
L 187.549809 377.664329 
L 193.763629 360.012783 
L 199.977449 374.221943 
L 206.19127 443.621377 
L 212.40509 385.758464 
L 218.61891 421.941598 
L 224.83273 444.011883 
L 231.04655 390.515083 
L 237.26037 391.048883 
L 243.47419 364.621583 
L 249.68801 403.133512 
L 255.90183 421.193981 
L 262.11565 416.294161 
L 268.32947 387.917821 
L 274.54329 381.21241 
L 280.75711 402.307455 
L 286.97093 368.713717 
L 293.18475 404.760919 
L 299.39857 437.021488 
L 305.61239 427.457595 
L 311.82621 448.604939 
L 318.04003 421.339634 
L 324.25385 436.482764 
L 330.46767 423.418479 
L 336.68149 412.299835 
L 342.89531 372.729718 
L 349.10913 409.299075 
L 355.32295 403.163302 
L 361.53677 400.673358 
L 367.75059 421.454105 
L 373.96441 409.682037 
L 380.17823 418.863681 
L 386.39205 384.062537 
L 392.60587 389.9779 
L 398.81969 445.557324 
L 405.03351 400.95778 
L 411.24733 349.860102 
L 417.46115 366.864097 
L 423.67497 419.779754 
L 429.88879 447.507265 
L 436.10261 423.494058 
L 442.31643 426.76174 
L 448.53025 421.450086 
L 454.74407 462.427375 
L 460.95789 438.886999 
L 467.17171 419.555476 
L 473.38553 426.766539 
L 479.59935 379.63363 
L 485.81317 463.280011 
L 492.02699 441.851101 
L 498.24081 453.155862 
L 504.45463 435.582861 
L 510.66845 448.950683 
L 516.88227 419.921633 
L 523.09609 381.541007 
L 529.30991 405.845167 
L 535.52373 415.370211 
L 541.737551 429.32883 
L 547.951371 401.197461 
L 554.165191 449.864573 
L 560.379011 444.184489 
L 566.592831 436.181839 
L 572.806651 459.47746 
L 579.020471 466.163961 
L 585.234291 447.884338 
L 591.448111 414.651237 
L 597.661931 387.264157 
L 603.875751 421.117354 
L 610.089571 395.132823 
L 616.303391 396.519633 
L 622.517211 378.230764 
L 628.731031 345.430851 
L 634.944851 386.837194 
L 641.158671 393.667291 
L 647.372491 405.104103 
L 653.586311 391.034737 
L 659.800131 410.937203 
L 666.013951 399.409876 
L 672.227771 394.185837 
L 678.441591 413.926858 
" clip-path="url(#p50c6fe0169)" style="fill: none; stroke: #ff7f0e; stroke-width: 1.5; stroke-linecap: square"/>
   </g>
   <g id="line2d_42">
    <path d="M 63.273409 476.77878 
L 69.487229 461.507265 
L 75.701049 457.453349 
L 81.914869 452.382377 
L 88.128689 466.202141 
L 94.342509 425.726709 
L 100.556329 404.114537 
L 106.770149 399.340233 
L 112.983969 413.471472 
L 119.197789 405.140152 
L 125.411609 464.934533 
L 131.625429 472.565012 
L 137.839249 432.805819 
L 144.053069 423.78988 
L 150.266889 480.698688 
L 156.480709 419.145874 
L 162.694529 476.792915 
L 168.908349 408.537842 
L 175.122169 387.592237 
L 181.335989 386.516238 
L 187.549809 337.057331 
L 193.763629 410.922314 
L 199.977449 390.156577 
L 206.19127 392.423016 
L 212.40509 390.337993 
L 218.61891 425.477176 
L 224.83273 397.455626 
L 231.04655 417.903823 
L 237.26037 421.605901 
L 243.47419 428.708631 
L 249.68801 424.262194 
L 255.90183 408.658154 
L 262.11565 388.145134 
L 268.32947 422.791613 
L 274.54329 446.940436 
L 280.75711 439.467753 
L 286.97093 416.843555 
L 293.18475 417.185117 
L 299.39857 442.13672 
L 305.61239 444.957241 
L 311.82621 452.609986 
L 318.04003 456.31556 
L 324.25385 470.600357 
L 330.46767 465.692082 
L 336.68149 437.744281 
L 342.89531 427.959374 
L 349.10913 456.864354 
L 355.32295 435.828795 
L 361.53677 403.044491 
L 367.75059 415.123948 
L 373.96441 425.209182 
L 380.17823 411.398742 
L 386.39205 373.910264 
L 392.60587 369.497028 
L 398.81969 394.228736 
L 405.03351 405.184878 
L 411.24733 381.94999 
L 417.46115 408.42252 
L 423.67497 354.823251 
L 429.88879 434.158238 
L 436.10261 433.166936 
L 442.31643 400.744993 
L 448.53025 385.666397 
L 454.74407 363.889143 
L 460.95789 375.929307 
L 467.17171 388.639798 
L 473.38553 393.510634 
L 479.59935 396.680107 
L 485.81317 409.016545 
L 492.02699 404.783138 
L 498.24081 378.984338 
L 504.45463 416.18635 
L 510.66845 429.163128 
L 516.88227 412.122863 
L 523.09609 452.797173 
L 529.30991 379.418647 
L 535.52373 309.152454 
L 541.737551 416.340318 
L 547.951371 464.164981 
L 554.165191 399.784631 
L 560.379011 393.569199 
L 566.592831 390.16845 
L 572.806651 393.903447 
L 579.020471 369.26409 
L 585.234291 393.534861 
L 591.448111 429.881822 
L 597.661931 435.677872 
L 603.875751 415.984924 
L 610.089571 422.616903 
L 616.303391 428.912949 
L 622.517211 434.134156 
L 628.731031 401.538603 
L 634.944851 415.917703 
L 641.158671 438.689351 
L 647.372491 464.298665 
L 653.586311 459.569786 
L 659.800131 436.325564 
L 666.013951 413.770649 
L 672.227771 386.739886 
L 678.441591 416.703689 
" clip-path="url(#p50c6fe0169)" style="fill: none; stroke: #2ca02c; stroke-width: 1.5; stroke-linecap: square"/>
   </g>
   <g id="line2d_43">
    <path d="M 63.273409 467.421489 
L 69.487229 477.764536 
L 75.701049 457.207873 
L 81.914869 491.607561 
L 88.128689 474.277008 
L 94.342509 459.710444 
L 100.556329 411.927994 
L 106.770149 438.476045 
L 112.983969 435.719051 
L 119.197789 411.921117 
L 125.411609 424.98871 
L 131.625429 395.463019 
L 137.839249 385.253223 
L 144.053069 399.23493 
L 150.266889 380.370641 
L 156.480709 404.037339 
L 162.694529 438.183326 
L 168.908349 347.780674 
L 175.122169 360.22885 
L 181.335989 410.402291 
L 187.549809 402.85637 
L 193.763629 399.134345 
L 199.977449 427.033868 
L 206.19127 444.672728 
L 212.40509 407.5108 
L 218.61891 402.322279 
L 224.83273 459.455795 
L 231.04655 461.412322 
L 237.26037 445.791388 
L 243.47419 403.660607 
L 249.68801 395.643284 
L 255.90183 395.924937 
L 262.11565 392.260971 
L 268.32947 369.599207 
L 274.54329 355.675576 
L 280.75711 396.334433 
L 286.97093 419.055221 
L 293.18475 389.993283 
L 299.39857 418.436811 
L 305.61239 418.572961 
L 311.82621 428.08661 
L 318.04003 425.744988 
L 324.25385 439.955267 
L 330.46767 464.333991 
L 336.68149 431.042098 
L 342.89531 438.110585 
L 349.10913 415.031459 
L 355.32295 448.595286 
L 361.53677 432.966332 
L 367.75059 422.733307 
L 373.96441 416.369858 
L 380.17823 399.922188 
L 386.39205 392.755872 
L 392.60587 423.346815 
L 398.81969 376.707758 
L 405.03351 409.490606 
L 411.24733 376.8259 
L 417.46115 423.183763 
L 423.67497 413.7102 
L 429.88879 455.062096 
L 436.10261 446.676627 
L 442.31643 394.239115 
L 448.53025 458.459517 
L 454.74407 452.645854 
L 460.95789 407.364217 
L 467.17171 428.035782 
L 473.38553 363.985049 
L 479.59935 411.69251 
L 485.81317 436.585164 
L 492.02699 372.091248 
L 498.24081 378.82212 
L 504.45463 409.791933 
L 510.66845 378.663072 
L 516.88227 382.038278 
L 523.09609 437.067836 
L 529.30991 403.546092 
L 535.52373 422.667672 
L 541.737551 468.84925 
L 547.951371 429.346399 
L 554.165191 414.109537 
L 560.379011 387.033082 
L 566.592831 382.272014 
L 572.806651 419.419185 
L 579.020471 435.393953 
L 585.234291 418.372729 
L 591.448111 401.935751 
L 597.661931 427.020424 
L 603.875751 410.619305 
L 610.089571 405.819057 
L 616.303391 433.661118 
L 622.517211 416.650442 
L 628.731031 384.06202 
L 634.944851 386.213406 
L 641.158671 420.087865 
L 647.372491 476.592681 
L 653.586311 483.248355 
L 659.800131 421.61143 
L 666.013951 404.318849 
L 672.227771 420.414066 
L 678.441591 436.381374 
" clip-path="url(#p50c6fe0169)" style="fill: none; stroke: #d62728; stroke-width: 1.5; stroke-linecap: square"/>
   </g>
   <g id="line2d_44">
    <path d="M 63.273409 369.372975 
L 69.487229 367.642907 
L 75.701049 398.021061 
L 81.914869 391.359102 
L 88.128689 385.87355 
L 94.342509 424.695436 
L 100.556329 381.333552 
L 106.770149 382.060898 
L 112.983969 410.520448 
L 119.197789 456.618963 
L 125.411609 449.119258 
L 131.625429 418.387104 
L 137.839249 407.896348 
L 144.053069 459.936146 
L 150.266889 463.651193 
L 156.480709 445.341269 
L 162.694529 402.857935 
L 168.908349 425.19516 
L 175.122169 419.619925 
L 181.335989 441.817585 
L 187.549809 416.520084 
L 193.763629 385.200589 
L 199.977449 419.413428 
L 206.19127 408.769037 
L 212.40509 388.07533 
L 218.61891 427.0733 
L 224.83273 408.849245 
L 231.04655 391.331 
L 237.26037 429.974963 
L 243.47419 458.264861 
L 249.68801 414.681282 
L 255.90183 412.859559 
L 262.11565 386.04501 
L 268.32947 369.042548 
L 274.54329 357.047433 
L 280.75711 412.55082 
L 286.97093 401.144139 
L 293.18475 393.797222 
L 299.39857 415.45615 
L 305.61239 434.413935 
L 311.82621 419.961862 
L 318.04003 453.29274 
L 324.25385 412.754019 
L 330.46767 399.925645 
L 336.68149 439.364348 
L 342.89531 479.435419 
L 349.10913 460.906533 
L 355.32295 435.914128 
L 361.53677 401.503571 
L 367.75059 420.904399 
L 373.96441 393.663246 
L 380.17823 355.425317 
L 386.39205 407.228511 
L 392.60587 422.856116 
L 398.81969 433.894075 
L 405.03351 396.2386 
L 411.24733 388.018599 
L 417.46115 466.534901 
L 423.67497 399.81121 
L 429.88879 435.973977 
L 436.10261 435.073665 
L 442.31643 418.187538 
L 448.53025 410.095395 
L 454.74407 420.536414 
L 460.95789 349.734088 
L 467.17171 409.447155 
L 473.38553 414.493993 
L 479.59935 455.513054 
L 485.81317 460.809109 
L 492.02699 442.633658 
L 498.24081 428.38792 
L 504.45463 438.73771 
L 510.66845 389.701552 
L 516.88227 408.939736 
L 523.09609 418.348118 
L 529.30991 407.358988 
L 535.52373 408.10337 
L 541.737551 411.669731 
L 547.951371 367.884515 
L 554.165191 414.859477 
L 560.379011 500.936904 
L 566.592831 415.493049 
L 572.806651 380.919572 
L 579.020471 374.602141 
L 585.234291 407.283942 
L 591.448111 443.583445 
L 597.661931 424.270986 
L 603.875751 389.741869 
L 610.089571 381.142856 
L 616.303391 377.136252 
L 622.517211 415.288926 
L 628.731031 431.445177 
L 634.944851 430.003568 
L 641.158671 412.14091 
L 647.372491 424.401112 
L 653.586311 398.892145 
L 659.800131 416.753735 
L 666.013951 397.023167 
L 672.227771 423.242874 
L 678.441591 428.584055 
" clip-path="url(#p50c6fe0169)" style="fill: none; stroke: #9467bd; stroke-width: 1.5; stroke-linecap: square"/>
   </g>
   <g id="line2d_45">
    <path d="M 63.273409 460.975707 
L 69.487229 454.196821 
L 75.701049 423.721077 
L 81.914869 412.338714 
L 88.128689 427.808731 
L 94.342509 409.232452 
L 100.556329 401.930997 
L 106.770149 360.6118 
L 112.983969 394.094928 
L 119.197789 423.988145 
L 125.411609 435.212347 
L 131.625429 417.316448 
L 137.839249 430.044443 
L 144.053069 374.999951 
L 150.266889 354.221999 
L 156.480709 391.401122 
L 162.694529 440.748937 
L 168.908349 427.173174 
L 175.122169 425.64171 
L 181.335989 428.465217 
L 187.549809 411.394958 
L 193.763629 461.419636 
L 199.977449 444.414102 
L 206.19127 386.046232 
L 212.40509 410.383239 
L 218.61891 426.59431 
L 224.83273 394.827803 
L 231.04655 382.740214 
L 237.26037 384.423164 
L 243.47419 427.317066 
L 249.68801 435.776107 
L 255.90183 437.982196 
L 262.11565 444.58175 
L 268.32947 498.019201 
L 274.54329 470.38597 
L 280.75711 468.220756 
L 286.97093 433.802222 
L 293.18475 476.159379 
L 299.39857 484.557348 
L 305.61239 484.173818 
L 311.82621 408.802045 
L 318.04003 374.260265 
L 324.25385 420.04355 
L 330.46767 481.561634 
L 336.68149 522.266931 
L 342.89531 497.882767 
L 349.10913 456.368319 
L 355.32295 419.109571 
L 361.53677 405.063427 
L 367.75059 398.675394 
L 373.96441 449.487352 
L 380.17823 426.837747 
L 386.39205 409.254258 
L 392.60587 385.207079 
L 398.81969 382.529753 
L 405.03351 389.893597 
L 411.24733 407.402837 
L 417.46115 430.290589 
L 423.67497 431.517755 
L 429.88879 404.848696 
L 436.10261 424.787618 
L 442.31643 390.435285 
L 448.53025 432.356321 
L 454.74407 388.253117 
L 460.95789 321.056297 
L 467.17171 416.822815 
L 473.38553 429.18226 
L 479.59935 382.914312 
L 485.81317 348.37608 
L 492.02699 353.190499 
L 498.24081 373.868302 
L 504.45463 419.050503 
L 510.66845 377.920597 
L 516.88227 391.800118 
L 523.09609 426.974698 
L 529.30991 383.382207 
L 535.52373 388.470769 
L 541.737551 421.887635 
L 547.951371 420.711979 
L 554.165191 393.130244 
L 560.379011 398.941028 
L 566.592831 394.573199 
L 572.806651 417.06197 
L 579.020471 418.561562 
L 585.234291 380.880724 
L 591.448111 388.738107 
L 597.661931 381.331658 
L 603.875751 395.794571 
L 610.089571 447.720273 
L 616.303391 414.826589 
L 622.517211 433.179676 
L 628.731031 420.943344 
L 634.944851 472.510871 
L 641.158671 493.431093 
L 647.372491 429.167034 
L 653.586311 466.114715 
L 659.800131 441.013563 
L 666.013951 447.556263 
L 672.227771 434.443591 
L 678.441591 449.339225 
" clip-path="url(#p50c6fe0169)" style="fill: none; stroke: #8c564b; stroke-width: 1.5; stroke-linecap: square"/>
   </g>
   <g id="line2d_46">
    <path d="M 63.273409 468.858795 
L 69.487229 404.235249 
L 75.701049 424.782682 
L 81.914869 440.979716 
L 88.128689 431.894417 
L 94.342509 439.331737 
L 100.556329 474.742056 
L 106.770149 523.171364 
L 112.983969 446.723812 
L 119.197789 459.826921 
L 125.411609 489.634701 
L 131.625429 417.323053 
L 137.839249 359.15357 
L 144.053069 391.970105 
L 150.266889 394.086832 
L 156.480709 397.793396 
L 162.694529 381.084766 
L 168.908349 397.460894 
L 175.122169 434.29166 
L 181.335989 436.041836 
L 187.549809 457.974789 
L 193.763629 485.844072 
L 199.977449 442.080934 
L 206.19127 426.035886 
L 212.40509 444.165549 
L 218.61891 446.817861 
L 224.83273 448.009689 
L 231.04655 424.84536 
L 237.26037 390.886743 
L 243.47419 377.634359 
L 249.68801 397.998128 
L 255.90183 396.411419 
L 262.11565 424.698838 
L 268.32947 432.613506 
L 274.54329 443.005212 
L 280.75711 420.975737 
L 286.97093 423.932562 
L 293.18475 442.947879 
L 299.39857 474.172577 
L 305.61239 431.559188 
L 311.82621 416.702243 
L 318.04003 384.390402 
L 324.25385 429.373482 
L 330.46767 370.020952 
L 336.68149 376.325411 
L 342.89531 408.137202 
L 349.10913 458.309768 
L 355.32295 463.503204 
L 361.53677 463.768648 
L 367.75059 423.46449 
L 373.96441 461.220167 
L 380.17823 437.338485 
L 386.39205 433.769595 
L 392.60587 436.82725 
L 398.81969 432.908602 
L 405.03351 413.632121 
L 411.24733 430.46451 
L 417.46115 444.509419 
L 423.67497 434.544299 
L 429.88879 413.157597 
L 436.10261 352.057877 
L 442.31643 374.517436 
L 448.53025 406.738355 
L 454.74407 416.262959 
L 460.95789 428.323228 
L 467.17171 470.257228 
L 473.38553 462.239599 
L 479.59935 438.382964 
L 485.81317 426.79689 
L 492.02699 428.591792 
L 498.24081 405.125378 
L 504.45463 407.051383 
L 510.66845 440.663962 
L 516.88227 428.533649 
L 523.09609 450.924337 
L 529.30991 405.011099 
L 535.52373 417.164871 
L 541.737551 406.061403 
L 547.951371 433.698199 
L 554.165191 443.421221 
L 560.379011 438.485583 
L 566.592831 409.366788 
L 572.806651 399.278758 
L 579.020471 361.507336 
L 585.234291 399.399819 
L 591.448111 375.342023 
L 597.661931 407.292811 
L 603.875751 388.063844 
L 610.089571 394.169826 
L 616.303391 384.740697 
L 622.517211 407.275213 
L 628.731031 434.21992 
L 634.944851 398.44336 
L 641.158671 395.121652 
L 647.372491 397.813436 
L 653.586311 368.534269 
L 659.800131 345.332422 
L 666.013951 398.082311 
L 672.227771 368.772985 
L 678.441591 376.42949 
" clip-path="url(#p50c6fe0169)" style="fill: none; stroke: #e377c2; stroke-width: 1.5; stroke-linecap: square"/>
   </g>
   <g id="line2d_47">
    <path d="M 63.273409 418.589128 
L 69.487229 387.081483 
L 75.701049 420.122055 
L 81.914869 431.631512 
L 88.128689 440.197116 
L 94.342509 460.977579 
L 100.556329 470.587006 
L 106.770149 454.925581 
L 112.983969 442.033578 
L 119.197789 358.692153 
L 125.411609 381.053221 
L 131.625429 386.864133 
L 137.839249 360.296928 
L 144.053069 406.057031 
L 150.266889 411.044974 
L 156.480709 395.693007 
L 162.694529 426.146245 
L 168.908349 420.378389 
L 175.122169 407.066959 
L 181.335989 374.206721 
L 187.549809 399.594408 
L 193.763629 402.210529 
L 199.977449 373.996019 
L 206.19127 431.486115 
L 212.40509 471.018891 
L 218.61891 469.604593 
L 224.83273 444.474305 
L 231.04655 417.287251 
L 237.26037 377.178349 
L 243.47419 401.066015 
L 249.68801 427.39603 
L 255.90183 397.726299 
L 262.11565 410.351205 
L 268.32947 437.195718 
L 274.54329 467.840163 
L 280.75711 431.830718 
L 286.97093 399.923933 
L 293.18475 443.185398 
L 299.39857 469.414007 
L 305.61239 436.201519 
L 311.82621 397.218939 
L 318.04003 480.898994 
L 324.25385 472.384646 
L 330.46767 418.587148 
L 336.68149 390.080248 
L 342.89531 389.730378 
L 349.10913 378.83317 
L 355.32295 415.51586 
L 361.53677 380.685372 
L 367.75059 408.820617 
L 373.96441 406.915291 
L 380.17823 427.425294 
L 386.39205 426.480626 
L 392.60587 376.578864 
L 398.81969 409.66054 
L 405.03351 417.450103 
L 411.24733 431.57102 
L 417.46115 396.868809 
L 423.67497 421.662027 
L 429.88879 474.797546 
L 436.10261 445.499223 
L 442.31643 407.441422 
L 448.53025 406.921649 
L 454.74407 446.396865 
L 460.95789 462.53947 
L 467.17171 431.150757 
L 473.38553 398.103597 
L 479.59935 394.08052 
L 485.81317 370.75696 
L 492.02699 397.444443 
L 498.24081 412.549162 
L 504.45463 402.44734 
L 510.66845 364.963249 
L 516.88227 379.006834 
L 523.09609 389.778447 
L 529.30991 376.455493 
L 535.52373 424.534739 
L 541.737551 428.708719 
L 547.951371 426.951934 
L 554.165191 432.143143 
L 560.379011 437.043119 
L 566.592831 393.536253 
L 572.806651 436.707133 
L 579.020471 426.111255 
L 585.234291 462.971386 
L 591.448111 438.736529 
L 597.661931 399.06114 
L 603.875751 404.806578 
L 610.089571 421.888769 
L 616.303391 402.772848 
L 622.517211 409.949284 
L 628.731031 384.688591 
L 634.944851 377.035465 
L 641.158671 432.49572 
L 647.372491 465.993972 
L 653.586311 459.067419 
L 659.800131 435.801763 
L 666.013951 478.779168 
L 672.227771 475.46275 
L 678.441591 470.113033 
" clip-path="url(#p50c6fe0169)" style="fill: none; stroke: #7f7f7f; stroke-width: 1.5; stroke-linecap: square"/>
   </g>
   <g id="line2d_48">
    <path d="M 63.273409 484.858998 
L 69.487229 445.4294 
L 75.701049 443.987853 
L 81.914869 461.310011 
L 88.128689 424.951677 
L 94.342509 458.447832 
L 100.556329 439.604099 
L 106.770149 416.484106 
L 112.983969 464.000598 
L 119.197789 460.882329 
L 125.411609 435.829997 
L 131.625429 443.429451 
L 137.839249 406.778183 
L 144.053069 415.357387 
L 150.266889 402.763199 
L 156.480709 391.266997 
L 162.694529 407.794966 
L 168.908349 429.130626 
L 175.122169 417.962328 
L 181.335989 393.132385 
L 187.549809 374.624609 
L 193.763629 379.295277 
L 199.977449 379.236055 
L 206.19127 374.224009 
L 212.40509 372.089284 
L 218.61891 416.947626 
L 224.83273 420.404894 
L 231.04655 427.14508 
L 237.26037 413.741362 
L 243.47419 394.230233 
L 249.68801 365.144625 
L 255.90183 362.782266 
L 262.11565 371.327672 
L 268.32947 366.941124 
L 274.54329 374.000792 
L 280.75711 377.369849 
L 286.97093 385.691055 
L 293.18475 382.627192 
L 299.39857 408.413728 
L 305.61239 370.909928 
L 311.82621 421.517301 
L 318.04003 385.406807 
L 324.25385 398.464526 
L 330.46767 356.320801 
L 336.68149 407.380283 
L 342.89531 435.402255 
L 349.10913 434.785673 
L 355.32295 409.522829 
L 361.53677 380.724702 
L 367.75059 459.335926 
L 373.96441 461.292117 
L 380.17823 488.727906 
L 386.39205 421.537455 
L 392.60587 440.367606 
L 398.81969 460.403529 
L 405.03351 470.279408 
L 411.24733 417.664711 
L 417.46115 382.25621 
L 423.67497 401.90407 
L 429.88879 417.66506 
L 436.10261 403.784178 
L 442.31643 426.347441 
L 448.53025 409.620315 
L 454.74407 393.134938 
L 460.95789 376.599964 
L 467.17171 403.06821 
L 473.38553 402.369206 
L 479.59935 422.748471 
L 485.81317 449.997439 
L 492.02699 388.651932 
L 498.24081 381.732776 
L 504.45463 386.253958 
L 510.66845 360.448234 
L 516.88227 423.488485 
L 523.09609 487.734263 
L 529.30991 430.206035 
L 535.52373 481.214588 
L 541.737551 470.08582 
L 547.951371 446.129846 
L 554.165191 475.506066 
L 560.379011 433.195528 
L 566.592831 441.391548 
L 572.806651 445.475924 
L 579.020471 431.746828 
L 585.234291 400.789391 
L 591.448111 407.945928 
L 597.661931 473.900572 
L 603.875751 469.931066 
L 610.089571 450.630229 
L 616.303391 462.957647 
L 622.517211 446.841114 
L 628.731031 392.491138 
L 634.944851 345.47819 
L 641.158671 363.507083 
L 647.372491 402.301835 
L 653.586311 388.092237 
L 659.800131 421.242463 
L 666.013951 429.548679 
L 672.227771 393.293766 
L 678.441591 445.834404 
" clip-path="url(#p50c6fe0169)" style="fill: none; stroke: #bcbd22; stroke-width: 1.5; stroke-linecap: square"/>
   </g>
   <g id="line2d_49">
    <path d="M 63.273409 432.696311 
L 69.487229 421.070901 
L 75.701049 431.348706 
L 81.914869 407.850949 
L 88.128689 427.798554 
L 94.342509 426.841927 
L 100.556329 401.173831 
L 106.770149 420.742523 
L 112.983969 412.068186 
L 119.197789 396.583688 
L 125.411609 379.402105 
L 131.625429 370.736543 
L 137.839249 370.924632 
L 144.053069 402.910441 
L 150.266889 383.50951 
L 156.480709 382.504822 
L 162.694529 383.249532 
L 168.908349 356.565442 
L 175.122169 347.317984 
L 181.335989 342.353337 
L 187.549809 415.873317 
L 193.763629 403.162383 
L 199.977449 410.761679 
L 206.19127 418.854455 
L 212.40509 409.572972 
L 218.61891 368.317152 
L 224.83273 377.488505 
L 231.04655 385.148325 
L 237.26037 410.963105 
L 243.47419 412.071555 
L 249.68801 442.883456 
L 255.90183 437.713873 
L 262.11565 444.172093 
L 268.32947 415.195831 
L 274.54329 392.21023 
L 280.75711 362.216759 
L 286.97093 350.806154 
L 293.18475 372.447582 
L 299.39857 433.036139 
L 305.61239 400.472561 
L 311.82621 393.255285 
L 318.04003 409.105787 
L 324.25385 408.085575 
L 330.46767 414.049976 
L 336.68149 393.618977 
L 342.89531 422.8845 
L 349.10913 428.682713 
L 355.32295 404.883576 
L 361.53677 404.051124 
L 367.75059 396.680587 
L 373.96441 380.480367 
L 380.17823 413.859477 
L 386.39205 436.100727 
L 392.60587 451.498923 
L 398.81969 459.922945 
L 405.03351 453.270747 
L 411.24733 423.601759 
L 417.46115 408.589907 
L 423.67497 421.296984 
L 429.88879 386.407531 
L 436.10261 422.103472 
L 442.31643 432.988075 
L 448.53025 425.663062 
L 454.74407 436.221758 
L 460.95789 436.964782 
L 467.17171 452.555515 
L 473.38553 440.993673 
L 479.59935 458.02624 
L 485.81317 400.655998 
L 492.02699 435.625492 
L 498.24081 444.812743 
L 504.45463 435.211137 
L 510.66845 443.341493 
L 516.88227 439.488927 
L 523.09609 436.752279 
L 529.30991 421.639045 
L 535.52373 386.474901 
L 541.737551 421.286474 
L 547.951371 428.58101 
L 554.165191 414.075696 
L 560.379011 386.140494 
L 566.592831 410.011581 
L 572.806651 390.342268 
L 579.020471 444.602309 
L 585.234291 447.510624 
L 591.448111 443.838032 
L 597.661931 418.484044 
L 603.875751 404.154667 
L 610.089571 403.946842 
L 616.303391 403.334104 
L 622.517211 426.486954 
L 628.731031 500.591551 
L 634.944851 447.526311 
L 641.158671 461.91711 
L 647.372491 470.14018 
L 653.586311 441.189892 
L 659.800131 437.128447 
L 666.013951 398.696765 
L 672.227771 428.861787 
L 678.441591 425.662249 
" clip-path="url(#p50c6fe0169)" style="fill: none; stroke: #17becf; stroke-width: 1.5; stroke-linecap: square"/>
   </g>
   <g id="patch_9">
    <path d="M 32.515 534.04 
L 32.515 294.93 
" style="fill: none; stroke: #000000; stroke-width: 0.8; stroke-linejoin: miter; stroke-linecap: square"/>
   </g>
   <g id="patch_10">
    <path d="M 709.2 534.04 
L 709.2 294.93 
" style="fill: none; stroke: #000000; stroke-width: 0.8; stroke-linejoin: miter; stroke-linecap: square"/>
   </g>
   <g id="patch_11">
    <path d="M 32.515 534.04 
L 709.2 534.04 
" style="fill: none; stroke: #000000; stroke-width: 0.8; stroke-linejoin: miter; stroke-linecap: square"/>
   </g>
   <g id="patch_12">
    <path d="M 32.515 294.93 
L 709.2 294.93 
" style="fill: none; stroke: #000000; stroke-width: 0.8; stroke-linejoin: miter; stroke-linecap: square"/>
   </g>
   <g id="text_25">
    <!-- 20 Realizations of AR(1) Process with ϕ=0.5 -->
    <g transform="translate(239.165 288.93) scale(0.12 -0.12)">
     <use xlink:href="#DejaVuSans-32"/>
     <use xlink:href="#DejaVuSans-30" x="63.623047"/>
     <use xlink:href="#DejaVuSans-20" x="127.246094"/>
     <use xlink:href="#DejaVuSans-52" x="159.033203"/>
     <use xlink:href="#DejaVuSans-65" x="224.015625"/>
     <use xlink:href="#DejaVuSans-61" x="285.539062"/>
     <use xlink:href="#DejaVuSans-6c" x="346.818359"/>
     <use xlink:href="#DejaVuSans-69" x="374.601562"/>
     <use xlink:href="#DejaVuSans-7a" x="402.384766"/>
     <use xlink:href="#DejaVuSans-61" x="454.875"/>
     <use xlink:href="#DejaVuSans-74" x="516.154297"/>
     <use xlink:href="#DejaVuSans-69" x="555.363281"/>
     <use xlink:href="#DejaVuSans-6f" x="583.146484"/>
     <use xlink:href="#DejaVuSans-6e" x="644.328125"/>
     <use xlink:href="#DejaVuSans-73" x="707.707031"/>
     <use xlink:href="#DejaVuSans-20" x="759.806641"/>
     <use xlink:href="#DejaVuSans-6f" x="791.59375"/>
     <use xlink:href="#DejaVuSans-66" x="852.775391"/>
     <use xlink:href="#DejaVuSans-20" x="887.980469"/>
     <use xlink:href="#DejaVuSans-41" x="919.767578"/>
     <use xlink:href="#DejaVuSans-52" x="988.175781"/>
     <use xlink:href="#DejaVuSans-28" x="1057.658203"/>
     <use xlink:href="#DejaVuSans-31" x="1096.671875"/>
     <use xlink:href="#DejaVuSans-29" x="1160.294922"/>
     <use xlink:href="#DejaVuSans-20" x="1199.308594"/>
     <use xlink:href="#DejaVuSans-50" x="1231.095703"/>
     <use xlink:href="#DejaVuSans-72" x="1289.648438"/>
     <use xlink:href="#DejaVuSans-6f" x="1328.511719"/>
     <use xlink:href="#DejaVuSans-63" x="1389.693359"/>
     <use xlink:href="#DejaVuSans-65" x="1444.673828"/>
     <use xlink:href="#DejaVuSans-73" x="1506.197266"/>
     <use xlink:href="#DejaVuSans-73" x="1558.296875"/>
     <use xlink:href="#DejaVuSans-20" x="1610.396484"/>
     <use xlink:href="#DejaVuSans-77" x="1642.183594"/>
     <use xlink:href="#DejaVuSans-69" x="1723.970703"/>
     <use xlink:href="#DejaVuSans-74" x="1751.753906"/>
     <use xlink:href="#DejaVuSans-68" x="1790.962891"/>
     <use xlink:href="#DejaVuSans-20" x="1854.341797"/>
     <use xlink:href="#DejaVuSans-3d5" x="1886.128906"/>
     <use xlink:href="#DejaVuSans-3d" x="1952.095703"/>
     <use xlink:href="#DejaVuSans-30" x="2035.884766"/>
     <use xlink:href="#DejaVuSans-2e" x="2099.507812"/>
     <use xlink:href="#DejaVuSans-35" x="2131.294922"/>
    </g>
   </g>
  </g>
 </g>
 <defs>
  <clipPath id="pc5adf13401">
   <rect x="32.515" y="26.16" width="676.685" height="239.11"/>
  </clipPath>
  <clipPath id="p50c6fe0169">
   <rect x="32.515" y="294.93" width="676.685" height="239.11"/>
  </clipPath>
 </defs>
</svg>
