<?xml version="1.0" encoding="utf-8" standalone="no"?>
<!DOCTYPE svg PUBLIC "-//W3C//DTD SVG 1.1//EN"
  "http://www.w3.org/Graphics/SVG/1.1/DTD/svg11.dtd">
<svg xmlns:xlink="http://www.w3.org/1999/xlink" width="720pt" height="576pt" viewBox="0 0 720 576" xmlns="http://www.w3.org/2000/svg" version="1.1">
 <metadata>
  <rdf:RDF xmlns:dc="http://purl.org/dc/elements/1.1/" xmlns:cc="http://creativecommons.org/ns#" xmlns:rdf="http://www.w3.org/1999/02/22-rdf-syntax-ns#">
   <cc:Work>
    <dc:type rdf:resource="http://purl.org/dc/dcmitype/StillImage"/>
    <dc:date>2024-02-20T02:13:55.330498</dc:date>
    <dc:format>image/svg+xml</dc:format>
    <dc:creator>
     <cc:Agent>
      <dc:title>Matplotlib v3.8.2, https://matplotlib.org/</dc:title>
     </cc:Agent>
    </dc:creator>
   </cc:Work>
  </rdf:RDF>
 </metadata>
 <defs>
  <style type="text/css">*{stroke-linejoin: round; stroke-linecap: butt}</style>
 </defs>
 <g id="figure_1">
  <g id="patch_1">
   <path d="M 0 576 
L 720 576 
L 720 0 
L 0 0 
z
" style="fill: #ffffff"/>
  </g>
  <g id="axes_1">
   <g id="patch_2">
    <path d="M 36.925 265.27 
L 709.2 265.27 
L 709.2 26.16 
L 36.925 26.16 
z
" style="fill: #ffffff"/>
   </g>
   <g id="matplotlib.axis_1">
    <g id="xtick_1">
     <g id="line2d_1">
      <defs>
       <path id="md5f05f6e2a" d="M 0 0 
L 0 3.5 
" style="stroke: #000000; stroke-width: 0.8"/>
      </defs>
      <g>
       <use xlink:href="#md5f05f6e2a" x="67.482955" y="265.27" style="stroke: #000000; stroke-width: 0.8"/>
      </g>
     </g>
    </g>
    <g id="xtick_2">
     <g id="line2d_2">
      <g>
       <use xlink:href="#md5f05f6e2a" x="190.949438" y="265.27" style="stroke: #000000; stroke-width: 0.8"/>
      </g>
     </g>
    </g>
    <g id="xtick_3">
     <g id="line2d_3">
      <g>
       <use xlink:href="#md5f05f6e2a" x="314.415921" y="265.27" style="stroke: #000000; stroke-width: 0.8"/>
      </g>
     </g>
    </g>
    <g id="xtick_4">
     <g id="line2d_4">
      <g>
       <use xlink:href="#md5f05f6e2a" x="437.882404" y="265.27" style="stroke: #000000; stroke-width: 0.8"/>
      </g>
     </g>
    </g>
    <g id="xtick_5">
     <g id="line2d_5">
      <g>
       <use xlink:href="#md5f05f6e2a" x="561.348887" y="265.27" style="stroke: #000000; stroke-width: 0.8"/>
      </g>
     </g>
    </g>
    <g id="xtick_6">
     <g id="line2d_6">
      <g>
       <use xlink:href="#md5f05f6e2a" x="684.81537" y="265.27" style="stroke: #000000; stroke-width: 0.8"/>
      </g>
     </g>
    </g>
   </g>
   <g id="matplotlib.axis_2">
    <g id="ytick_1">
     <g id="line2d_7">
      <defs>
       <path id="mf8fe01d7dd" d="M 0 0 
L -3.5 0 
" style="stroke: #000000; stroke-width: 0.8"/>
      </defs>
      <g>
       <use xlink:href="#mf8fe01d7dd" x="36.925" y="254.164573" style="stroke: #000000; stroke-width: 0.8"/>
      </g>
     </g>
     <g id="text_1">
      <!-- 0 -->
      <g transform="translate(23.5625 257.963792) scale(0.1 -0.1)">
       <defs>
        <path id="DejaVuSans-30" d="M 2034 4250 
Q 1547 4250 1301 3770 
Q 1056 3291 1056 2328 
Q 1056 1369 1301 889 
Q 1547 409 2034 409 
Q 2525 409 2770 889 
Q 3016 1369 3016 2328 
Q 3016 3291 2770 3770 
Q 2525 4250 2034 4250 
z
M 2034 4750 
Q 2819 4750 3233 4129 
Q 3647 3509 3647 2328 
Q 3647 1150 3233 529 
Q 2819 -91 2034 -91 
Q 1250 -91 836 529 
Q 422 1150 422 2328 
Q 422 3509 836 4129 
Q 1250 4750 2034 4750 
z
" transform="scale(0.015625)"/>
       </defs>
       <use xlink:href="#DejaVuSans-30"/>
      </g>
     </g>
    </g>
    <g id="ytick_2">
     <g id="line2d_8">
      <g>
       <use xlink:href="#mf8fe01d7dd" x="36.925" y="208.076933" style="stroke: #000000; stroke-width: 0.8"/>
      </g>
     </g>
     <g id="text_2">
      <!-- 20 -->
      <g transform="translate(17.2 211.876152) scale(0.1 -0.1)">
       <defs>
        <path id="DejaVuSans-32" d="M 1228 531 
L 3431 531 
L 3431 0 
L 469 0 
L 469 531 
Q 828 903 1448 1529 
Q 2069 2156 2228 2338 
Q 2531 2678 2651 2914 
Q 2772 3150 2772 3378 
Q 2772 3750 2511 3984 
Q 2250 4219 1831 4219 
Q 1534 4219 1204 4116 
Q 875 4013 500 3803 
L 500 4441 
Q 881 4594 1212 4672 
Q 1544 4750 1819 4750 
Q 2544 4750 2975 4387 
Q 3406 4025 3406 3419 
Q 3406 3131 3298 2873 
Q 3191 2616 2906 2266 
Q 2828 2175 2409 1742 
Q 1991 1309 1228 531 
z
" transform="scale(0.015625)"/>
       </defs>
       <use xlink:href="#DejaVuSans-32"/>
       <use xlink:href="#DejaVuSans-30" x="63.623047"/>
      </g>
     </g>
    </g>
    <g id="ytick_3">
     <g id="line2d_9">
      <g>
       <use xlink:href="#mf8fe01d7dd" x="36.925" y="161.989293" style="stroke: #000000; stroke-width: 0.8"/>
      </g>
     </g>
     <g id="text_3">
      <!-- 40 -->
      <g transform="translate(17.2 165.788512) scale(0.1 -0.1)">
       <defs>
        <path id="DejaVuSans-34" d="M 2419 4116 
L 825 1625 
L 2419 1625 
L 2419 4116 
z
M 2253 4666 
L 3047 4666 
L 3047 1625 
L 3713 1625 
L 3713 1100 
L 3047 1100 
L 3047 0 
L 2419 0 
L 2419 1100 
L 313 1100 
L 313 1709 
L 2253 4666 
z
" transform="scale(0.015625)"/>
       </defs>
       <use xlink:href="#DejaVuSans-34"/>
       <use xlink:href="#DejaVuSans-30" x="63.623047"/>
      </g>
     </g>
    </g>
    <g id="ytick_4">
     <g id="line2d_10">
      <g>
       <use xlink:href="#mf8fe01d7dd" x="36.925" y="115.901653" style="stroke: #000000; stroke-width: 0.8"/>
      </g>
     </g>
     <g id="text_4">
      <!-- 60 -->
      <g transform="translate(17.2 119.700872) scale(0.1 -0.1)">
       <defs>
        <path id="DejaVuSans-36" d="M 2113 2584 
Q 1688 2584 1439 2293 
Q 1191 2003 1191 1497 
Q 1191 994 1439 701 
Q 1688 409 2113 409 
Q 2538 409 2786 701 
Q 3034 994 3034 1497 
Q 3034 2003 2786 2293 
Q 2538 2584 2113 2584 
z
M 3366 4563 
L 3366 3988 
Q 3128 4100 2886 4159 
Q 2644 4219 2406 4219 
Q 1781 4219 1451 3797 
Q 1122 3375 1075 2522 
Q 1259 2794 1537 2939 
Q 1816 3084 2150 3084 
Q 2853 3084 3261 2657 
Q 3669 2231 3669 1497 
Q 3669 778 3244 343 
Q 2819 -91 2113 -91 
Q 1303 -91 875 529 
Q 447 1150 447 2328 
Q 447 3434 972 4092 
Q 1497 4750 2381 4750 
Q 2619 4750 2861 4703 
Q 3103 4656 3366 4563 
z
" transform="scale(0.015625)"/>
       </defs>
       <use xlink:href="#DejaVuSans-36"/>
       <use xlink:href="#DejaVuSans-30" x="63.623047"/>
      </g>
     </g>
    </g>
    <g id="ytick_5">
     <g id="line2d_11">
      <g>
       <use xlink:href="#mf8fe01d7dd" x="36.925" y="69.814013" style="stroke: #000000; stroke-width: 0.8"/>
      </g>
     </g>
     <g id="text_5">
      <!-- 80 -->
      <g transform="translate(17.2 73.613232) scale(0.1 -0.1)">
       <defs>
        <path id="DejaVuSans-38" d="M 2034 2216 
Q 1584 2216 1326 1975 
Q 1069 1734 1069 1313 
Q 1069 891 1326 650 
Q 1584 409 2034 409 
Q 2484 409 2743 651 
Q 3003 894 3003 1313 
Q 3003 1734 2745 1975 
Q 2488 2216 2034 2216 
z
M 1403 2484 
Q 997 2584 770 2862 
Q 544 3141 544 3541 
Q 544 4100 942 4425 
Q 1341 4750 2034 4750 
Q 2731 4750 3128 4425 
Q 3525 4100 3525 3541 
Q 3525 3141 3298 2862 
Q 3072 2584 2669 2484 
Q 3125 2378 3379 2068 
Q 3634 1759 3634 1313 
Q 3634 634 3220 271 
Q 2806 -91 2034 -91 
Q 1263 -91 848 271 
Q 434 634 434 1313 
Q 434 1759 690 2068 
Q 947 2378 1403 2484 
z
M 1172 3481 
Q 1172 3119 1398 2916 
Q 1625 2713 2034 2713 
Q 2441 2713 2670 2916 
Q 2900 3119 2900 3481 
Q 2900 3844 2670 4047 
Q 2441 4250 2034 4250 
Q 1625 4250 1398 4047 
Q 1172 3844 1172 3481 
z
" transform="scale(0.015625)"/>
       </defs>
       <use xlink:href="#DejaVuSans-38"/>
       <use xlink:href="#DejaVuSans-30" x="63.623047"/>
      </g>
     </g>
    </g>
   </g>
   <g id="line2d_12">
    <path d="M 67.482955 254.401364 
L 73.656279 251.768902 
L 79.829603 250.539811 
L 86.002927 245.156232 
L 92.176251 239.344966 
L 98.349575 236.860023 
L 104.522899 232.451745 
L 110.696224 234.215522 
L 116.869548 236.123078 
L 123.042872 229.353068 
L 129.216196 227.682683 
L 135.38952 230.859977 
L 141.562844 224.97368 
L 147.736169 222.106866 
L 153.909493 218.755898 
L 160.082817 216.41442 
L 166.256141 211.2611 
L 172.429465 209.337429 
L 178.602789 207.823492 
L 184.776113 204.127986 
L 190.949438 203.556645 
L 197.122762 199.112464 
L 203.296086 192.581164 
L 209.46941 188.379568 
L 215.642734 190.177005 
L 221.816058 193.778676 
L 227.989382 191.265129 
L 234.162707 188.433062 
L 240.336031 187.949616 
L 246.509355 185.638751 
L 252.682679 183.42931 
L 258.856003 182.042458 
L 265.029327 179.364492 
L 271.202652 177.800633 
L 277.375976 177.257503 
L 283.5493 173.528566 
L 289.722624 171.790386 
L 295.895948 174.381638 
L 302.069272 170.208822 
L 308.242596 166.008076 
L 314.415921 166.201214 
L 320.589245 166.812118 
L 326.762569 165.467965 
L 332.935893 161.529163 
L 339.109217 159.719167 
L 345.282541 155.87339 
L 351.455865 155.977545 
L 357.62919 151.405876 
L 363.802514 150.55573 
L 369.975838 152.767974 
L 376.149162 149.252034 
L 382.322486 146.643968 
L 388.49581 142.239116 
L 394.669135 139.524726 
L 400.842459 138.981029 
L 407.015783 137.151995 
L 413.189107 132.071249 
L 419.362431 129.625804 
L 425.535755 127.228594 
L 431.709079 122.738208 
L 437.882404 122.725995 
L 444.055728 123.417379 
L 450.229052 120.356796 
L 456.402376 121.295573 
L 462.5757 120.242126 
L 468.749024 119.846633 
L 474.922348 115.967964 
L 481.095673 112.382727 
L 487.268997 109.381094 
L 493.442321 105.114538 
L 499.615645 100.928861 
L 505.788969 99.645837 
L 511.962293 98.445072 
L 518.135618 100.475121 
L 524.308942 98.632487 
L 530.482266 95.563225 
L 536.65559 97.485262 
L 542.828914 98.931758 
L 549.002238 95.509252 
L 555.175562 91.742736 
L 561.348887 89.329415 
L 567.522211 84.720419 
L 573.695535 83.585643 
L 579.868859 81.910491 
L 586.042183 79.255974 
L 592.215507 81.756923 
L 598.388831 76.029789 
L 604.562156 70.909798 
L 610.73548 67.529173 
L 616.908804 65.139994 
L 623.082128 57.826562 
L 629.255452 59.665448 
L 635.428776 58.257219 
L 641.602101 54.619258 
L 647.775425 47.54219 
L 653.948749 41.796472 
L 660.122073 40.812958 
L 666.295397 38.997653 
L 672.468721 37.028636 
L 678.642045 38.172062 
" clip-path="url(#p43c5b1acd9)" style="fill: none; stroke: #1f77b4; stroke-width: 1.5; stroke-linecap: square"/>
   </g>
   <g id="patch_3">
    <path d="M 36.925 265.27 
L 36.925 26.16 
" style="fill: none; stroke: #000000; stroke-width: 0.8; stroke-linejoin: miter; stroke-linecap: square"/>
   </g>
   <g id="patch_4">
    <path d="M 709.2 265.27 
L 709.2 26.16 
" style="fill: none; stroke: #000000; stroke-width: 0.8; stroke-linejoin: miter; stroke-linecap: square"/>
   </g>
   <g id="patch_5">
    <path d="M 36.925 265.27 
L 709.2 265.27 
" style="fill: none; stroke: #000000; stroke-width: 0.8; stroke-linejoin: miter; stroke-linecap: square"/>
   </g>
   <g id="patch_6">
    <path d="M 36.925 26.16 
L 709.2 26.16 
" style="fill: none; stroke: #000000; stroke-width: 0.8; stroke-linejoin: miter; stroke-linecap: square"/>
   </g>
   <g id="text_6">
    <!-- One Realization of AR(1) Process with ϕ=1 -->
    <g transform="translate(245.6375 20.16) scale(0.12 -0.12)">
     <defs>
      <path id="DejaVuSans-4f" d="M 2522 4238 
Q 1834 4238 1429 3725 
Q 1025 3213 1025 2328 
Q 1025 1447 1429 934 
Q 1834 422 2522 422 
Q 3209 422 3611 934 
Q 4013 1447 4013 2328 
Q 4013 3213 3611 3725 
Q 3209 4238 2522 4238 
z
M 2522 4750 
Q 3503 4750 4090 4092 
Q 4678 3434 4678 2328 
Q 4678 1225 4090 567 
Q 3503 -91 2522 -91 
Q 1538 -91 948 565 
Q 359 1222 359 2328 
Q 359 3434 948 4092 
Q 1538 4750 2522 4750 
z
" transform="scale(0.015625)"/>
      <path id="DejaVuSans-6e" d="M 3513 2113 
L 3513 0 
L 2938 0 
L 2938 2094 
Q 2938 2591 2744 2837 
Q 2550 3084 2163 3084 
Q 1697 3084 1428 2787 
Q 1159 2491 1159 1978 
L 1159 0 
L 581 0 
L 581 3500 
L 1159 3500 
L 1159 2956 
Q 1366 3272 1645 3428 
Q 1925 3584 2291 3584 
Q 2894 3584 3203 3211 
Q 3513 2838 3513 2113 
z
" transform="scale(0.015625)"/>
      <path id="DejaVuSans-65" d="M 3597 1894 
L 3597 1613 
L 953 1613 
Q 991 1019 1311 708 
Q 1631 397 2203 397 
Q 2534 397 2845 478 
Q 3156 559 3463 722 
L 3463 178 
Q 3153 47 2828 -22 
Q 2503 -91 2169 -91 
Q 1331 -91 842 396 
Q 353 884 353 1716 
Q 353 2575 817 3079 
Q 1281 3584 2069 3584 
Q 2775 3584 3186 3129 
Q 3597 2675 3597 1894 
z
M 3022 2063 
Q 3016 2534 2758 2815 
Q 2500 3097 2075 3097 
Q 1594 3097 1305 2825 
Q 1016 2553 972 2059 
L 3022 2063 
z
" transform="scale(0.015625)"/>
      <path id="DejaVuSans-20" transform="scale(0.015625)"/>
      <path id="DejaVuSans-52" d="M 2841 2188 
Q 3044 2119 3236 1894 
Q 3428 1669 3622 1275 
L 4263 0 
L 3584 0 
L 2988 1197 
Q 2756 1666 2539 1819 
Q 2322 1972 1947 1972 
L 1259 1972 
L 1259 0 
L 628 0 
L 628 4666 
L 2053 4666 
Q 2853 4666 3247 4331 
Q 3641 3997 3641 3322 
Q 3641 2881 3436 2590 
Q 3231 2300 2841 2188 
z
M 1259 4147 
L 1259 2491 
L 2053 2491 
Q 2509 2491 2742 2702 
Q 2975 2913 2975 3322 
Q 2975 3731 2742 3939 
Q 2509 4147 2053 4147 
L 1259 4147 
z
" transform="scale(0.015625)"/>
      <path id="DejaVuSans-61" d="M 2194 1759 
Q 1497 1759 1228 1600 
Q 959 1441 959 1056 
Q 959 750 1161 570 
Q 1363 391 1709 391 
Q 2188 391 2477 730 
Q 2766 1069 2766 1631 
L 2766 1759 
L 2194 1759 
z
M 3341 1997 
L 3341 0 
L 2766 0 
L 2766 531 
Q 2569 213 2275 61 
Q 1981 -91 1556 -91 
Q 1019 -91 701 211 
Q 384 513 384 1019 
Q 384 1609 779 1909 
Q 1175 2209 1959 2209 
L 2766 2209 
L 2766 2266 
Q 2766 2663 2505 2880 
Q 2244 3097 1772 3097 
Q 1472 3097 1187 3025 
Q 903 2953 641 2809 
L 641 3341 
Q 956 3463 1253 3523 
Q 1550 3584 1831 3584 
Q 2591 3584 2966 3190 
Q 3341 2797 3341 1997 
z
" transform="scale(0.015625)"/>
      <path id="DejaVuSans-6c" d="M 603 4863 
L 1178 4863 
L 1178 0 
L 603 0 
L 603 4863 
z
" transform="scale(0.015625)"/>
      <path id="DejaVuSans-69" d="M 603 3500 
L 1178 3500 
L 1178 0 
L 603 0 
L 603 3500 
z
M 603 4863 
L 1178 4863 
L 1178 4134 
L 603 4134 
L 603 4863 
z
" transform="scale(0.015625)"/>
      <path id="DejaVuSans-7a" d="M 353 3500 
L 3084 3500 
L 3084 2975 
L 922 459 
L 3084 459 
L 3084 0 
L 275 0 
L 275 525 
L 2438 3041 
L 353 3041 
L 353 3500 
z
" transform="scale(0.015625)"/>
      <path id="DejaVuSans-74" d="M 1172 4494 
L 1172 3500 
L 2356 3500 
L 2356 3053 
L 1172 3053 
L 1172 1153 
Q 1172 725 1289 603 
Q 1406 481 1766 481 
L 2356 481 
L 2356 0 
L 1766 0 
Q 1100 0 847 248 
Q 594 497 594 1153 
L 594 3053 
L 172 3053 
L 172 3500 
L 594 3500 
L 594 4494 
L 1172 4494 
z
" transform="scale(0.015625)"/>
      <path id="DejaVuSans-6f" d="M 1959 3097 
Q 1497 3097 1228 2736 
Q 959 2375 959 1747 
Q 959 1119 1226 758 
Q 1494 397 1959 397 
Q 2419 397 2687 759 
Q 2956 1122 2956 1747 
Q 2956 2369 2687 2733 
Q 2419 3097 1959 3097 
z
M 1959 3584 
Q 2709 3584 3137 3096 
Q 3566 2609 3566 1747 
Q 3566 888 3137 398 
Q 2709 -91 1959 -91 
Q 1206 -91 779 398 
Q 353 888 353 1747 
Q 353 2609 779 3096 
Q 1206 3584 1959 3584 
z
" transform="scale(0.015625)"/>
      <path id="DejaVuSans-66" d="M 2375 4863 
L 2375 4384 
L 1825 4384 
Q 1516 4384 1395 4259 
Q 1275 4134 1275 3809 
L 1275 3500 
L 2222 3500 
L 2222 3053 
L 1275 3053 
L 1275 0 
L 697 0 
L 697 3053 
L 147 3053 
L 147 3500 
L 697 3500 
L 697 3744 
Q 697 4328 969 4595 
Q 1241 4863 1831 4863 
L 2375 4863 
z
" transform="scale(0.015625)"/>
      <path id="DejaVuSans-41" d="M 2188 4044 
L 1331 1722 
L 3047 1722 
L 2188 4044 
z
M 1831 4666 
L 2547 4666 
L 4325 0 
L 3669 0 
L 3244 1197 
L 1141 1197 
L 716 0 
L 50 0 
L 1831 4666 
z
" transform="scale(0.015625)"/>
      <path id="DejaVuSans-28" d="M 1984 4856 
Q 1566 4138 1362 3434 
Q 1159 2731 1159 2009 
Q 1159 1288 1364 580 
Q 1569 -128 1984 -844 
L 1484 -844 
Q 1016 -109 783 600 
Q 550 1309 550 2009 
Q 550 2706 781 3412 
Q 1013 4119 1484 4856 
L 1984 4856 
z
" transform="scale(0.015625)"/>
      <path id="DejaVuSans-31" d="M 794 531 
L 1825 531 
L 1825 4091 
L 703 3866 
L 703 4441 
L 1819 4666 
L 2450 4666 
L 2450 531 
L 3481 531 
L 3481 0 
L 794 0 
L 794 531 
z
" transform="scale(0.015625)"/>
      <path id="DejaVuSans-29" d="M 513 4856 
L 1013 4856 
Q 1481 4119 1714 3412 
Q 1947 2706 1947 2009 
Q 1947 1309 1714 600 
Q 1481 -109 1013 -844 
L 513 -844 
Q 928 -128 1133 580 
Q 1338 1288 1338 2009 
Q 1338 2731 1133 3434 
Q 928 4138 513 4856 
z
" transform="scale(0.015625)"/>
      <path id="DejaVuSans-50" d="M 1259 4147 
L 1259 2394 
L 2053 2394 
Q 2494 2394 2734 2622 
Q 2975 2850 2975 3272 
Q 2975 3691 2734 3919 
Q 2494 4147 2053 4147 
L 1259 4147 
z
M 628 4666 
L 2053 4666 
Q 2838 4666 3239 4311 
Q 3641 3956 3641 3272 
Q 3641 2581 3239 2228 
Q 2838 1875 2053 1875 
L 1259 1875 
L 1259 0 
L 628 0 
L 628 4666 
z
" transform="scale(0.015625)"/>
      <path id="DejaVuSans-72" d="M 2631 2963 
Q 2534 3019 2420 3045 
Q 2306 3072 2169 3072 
Q 1681 3072 1420 2755 
Q 1159 2438 1159 1844 
L 1159 0 
L 581 0 
L 581 3500 
L 1159 3500 
L 1159 2956 
Q 1341 3275 1631 3429 
Q 1922 3584 2338 3584 
Q 2397 3584 2469 3576 
Q 2541 3569 2628 3553 
L 2631 2963 
z
" transform="scale(0.015625)"/>
      <path id="DejaVuSans-63" d="M 3122 3366 
L 3122 2828 
Q 2878 2963 2633 3030 
Q 2388 3097 2138 3097 
Q 1578 3097 1268 2742 
Q 959 2388 959 1747 
Q 959 1106 1268 751 
Q 1578 397 2138 397 
Q 2388 397 2633 464 
Q 2878 531 3122 666 
L 3122 134 
Q 2881 22 2623 -34 
Q 2366 -91 2075 -91 
Q 1284 -91 818 406 
Q 353 903 353 1747 
Q 353 2603 823 3093 
Q 1294 3584 2113 3584 
Q 2378 3584 2631 3529 
Q 2884 3475 3122 3366 
z
" transform="scale(0.015625)"/>
      <path id="DejaVuSans-73" d="M 2834 3397 
L 2834 2853 
Q 2591 2978 2328 3040 
Q 2066 3103 1784 3103 
Q 1356 3103 1142 2972 
Q 928 2841 928 2578 
Q 928 2378 1081 2264 
Q 1234 2150 1697 2047 
L 1894 2003 
Q 2506 1872 2764 1633 
Q 3022 1394 3022 966 
Q 3022 478 2636 193 
Q 2250 -91 1575 -91 
Q 1294 -91 989 -36 
Q 684 19 347 128 
L 347 722 
Q 666 556 975 473 
Q 1284 391 1588 391 
Q 1994 391 2212 530 
Q 2431 669 2431 922 
Q 2431 1156 2273 1281 
Q 2116 1406 1581 1522 
L 1381 1569 
Q 847 1681 609 1914 
Q 372 2147 372 2553 
Q 372 3047 722 3315 
Q 1072 3584 1716 3584 
Q 2034 3584 2315 3537 
Q 2597 3491 2834 3397 
z
" transform="scale(0.015625)"/>
      <path id="DejaVuSans-77" d="M 269 3500 
L 844 3500 
L 1563 769 
L 2278 3500 
L 2956 3500 
L 3675 769 
L 4391 3500 
L 4966 3500 
L 4050 0 
L 3372 0 
L 2619 2869 
L 1863 0 
L 1184 0 
L 269 3500 
z
" transform="scale(0.015625)"/>
      <path id="DejaVuSans-68" d="M 3513 2113 
L 3513 0 
L 2938 0 
L 2938 2094 
Q 2938 2591 2744 2837 
Q 2550 3084 2163 3084 
Q 1697 3084 1428 2787 
Q 1159 2491 1159 1978 
L 1159 0 
L 581 0 
L 581 4863 
L 1159 4863 
L 1159 2956 
Q 1366 3272 1645 3428 
Q 1925 3584 2291 3584 
Q 2894 3584 3203 3211 
Q 3513 2838 3513 2113 
z
" transform="scale(0.015625)"/>
      <path id="DejaVuSans-3d5" d="M 2388 4863 
L 2388 3572 
Q 3009 3572 3425 3094 
Q 3853 2606 3853 1747 
Q 3853 888 3425 400 
Q 3009 -78 2388 -78 
L 2388 -1331 
L 1816 -1331 
L 1816 -78 
Q 1194 -78 775 400 
Q 350 888 350 1747 
Q 350 2606 775 3094 
Q 1194 3572 1816 3572 
L 1816 4863 
L 2388 4863 
z
M 2388 434 
Q 2741 434 2981 756 
Q 3244 1116 3247 1747 
Q 3250 2372 2981 2738 
Q 2741 3059 2388 3059 
L 2388 434 
z
M 1816 434 
L 1816 3059 
Q 1463 3059 1225 2738 
Q 953 2372 956 1747 
Q 959 1116 1225 756 
Q 1463 434 1816 434 
z
" transform="scale(0.015625)"/>
      <path id="DejaVuSans-3d" d="M 678 2906 
L 4684 2906 
L 4684 2381 
L 678 2381 
L 678 2906 
z
M 678 1631 
L 4684 1631 
L 4684 1100 
L 678 1100 
L 678 1631 
z
" transform="scale(0.015625)"/>
     </defs>
     <use xlink:href="#DejaVuSans-4f"/>
     <use xlink:href="#DejaVuSans-6e" x="78.710938"/>
     <use xlink:href="#DejaVuSans-65" x="142.089844"/>
     <use xlink:href="#DejaVuSans-20" x="203.613281"/>
     <use xlink:href="#DejaVuSans-52" x="235.400391"/>
     <use xlink:href="#DejaVuSans-65" x="300.382812"/>
     <use xlink:href="#DejaVuSans-61" x="361.90625"/>
     <use xlink:href="#DejaVuSans-6c" x="423.185547"/>
     <use xlink:href="#DejaVuSans-69" x="450.96875"/>
     <use xlink:href="#DejaVuSans-7a" x="478.751953"/>
     <use xlink:href="#DejaVuSans-61" x="531.242188"/>
     <use xlink:href="#DejaVuSans-74" x="592.521484"/>
     <use xlink:href="#DejaVuSans-69" x="631.730469"/>
     <use xlink:href="#DejaVuSans-6f" x="659.513672"/>
     <use xlink:href="#DejaVuSans-6e" x="720.695312"/>
     <use xlink:href="#DejaVuSans-20" x="784.074219"/>
     <use xlink:href="#DejaVuSans-6f" x="815.861328"/>
     <use xlink:href="#DejaVuSans-66" x="877.042969"/>
     <use xlink:href="#DejaVuSans-20" x="912.248047"/>
     <use xlink:href="#DejaVuSans-41" x="944.035156"/>
     <use xlink:href="#DejaVuSans-52" x="1012.443359"/>
     <use xlink:href="#DejaVuSans-28" x="1081.925781"/>
     <use xlink:href="#DejaVuSans-31" x="1120.939453"/>
     <use xlink:href="#DejaVuSans-29" x="1184.5625"/>
     <use xlink:href="#DejaVuSans-20" x="1223.576172"/>
     <use xlink:href="#DejaVuSans-50" x="1255.363281"/>
     <use xlink:href="#DejaVuSans-72" x="1313.916016"/>
     <use xlink:href="#DejaVuSans-6f" x="1352.779297"/>
     <use xlink:href="#DejaVuSans-63" x="1413.960938"/>
     <use xlink:href="#DejaVuSans-65" x="1468.941406"/>
     <use xlink:href="#DejaVuSans-73" x="1530.464844"/>
     <use xlink:href="#DejaVuSans-73" x="1582.564453"/>
     <use xlink:href="#DejaVuSans-20" x="1634.664062"/>
     <use xlink:href="#DejaVuSans-77" x="1666.451172"/>
     <use xlink:href="#DejaVuSans-69" x="1748.238281"/>
     <use xlink:href="#DejaVuSans-74" x="1776.021484"/>
     <use xlink:href="#DejaVuSans-68" x="1815.230469"/>
     <use xlink:href="#DejaVuSans-20" x="1878.609375"/>
     <use xlink:href="#DejaVuSans-3d5" x="1910.396484"/>
     <use xlink:href="#DejaVuSans-3d" x="1976.363281"/>
     <use xlink:href="#DejaVuSans-31" x="2060.152344"/>
    </g>
   </g>
   <g id="legend_1">
    <g id="patch_7">
     <path d="M 43.925 48.838125 
L 206.821875 48.838125 
Q 208.821875 48.838125 208.821875 46.838125 
L 208.821875 33.16 
Q 208.821875 31.16 206.821875 31.16 
L 43.925 31.16 
Q 41.925 31.16 41.925 33.16 
L 41.925 46.838125 
Q 41.925 48.838125 43.925 48.838125 
z
" style="fill: #ffffff; opacity: 0.8; stroke: #cccccc; stroke-linejoin: miter"/>
    </g>
    <g id="line2d_13">
     <path d="M 45.925 39.258438 
L 55.925 39.258438 
L 65.925 39.258438 
" style="fill: none; stroke: #1f77b4; stroke-width: 1.5; stroke-linecap: square"/>
    </g>
    <g id="text_7">
     <!-- AR(1) with c=1, σ=1, ϕ=1 -->
     <g transform="translate(73.925 42.758438) scale(0.1 -0.1)">
      <defs>
       <path id="DejaVuSans-2c" d="M 750 794 
L 1409 794 
L 1409 256 
L 897 -744 
L 494 -744 
L 750 256 
L 750 794 
z
" transform="scale(0.015625)"/>
       <path id="DejaVuSans-3c3" d="M 1959 3044 
Q 1484 3044 1228 2700 
Q 959 2341 959 1747 
Q 959 1119 1226 758 
Q 1494 397 1959 397 
Q 2419 397 2687 759 
Q 2956 1122 2956 1747 
Q 2956 2319 2688 2700 
Q 2441 3044 1959 3044 
z
M 1959 3500 
L 3869 3500 
L 3869 2925 
L 3225 2925 
Q 3566 2438 3566 1747 
Q 3566 888 3138 400 
Q 2709 -91 1959 -91 
Q 1206 -91 781 400 
Q 353 888 353 1747 
Q 353 2613 781 3097 
Q 1134 3500 1959 3500 
z
" transform="scale(0.015625)"/>
      </defs>
      <use xlink:href="#DejaVuSans-41"/>
      <use xlink:href="#DejaVuSans-52" x="68.408203"/>
      <use xlink:href="#DejaVuSans-28" x="137.890625"/>
      <use xlink:href="#DejaVuSans-31" x="176.904297"/>
      <use xlink:href="#DejaVuSans-29" x="240.527344"/>
      <use xlink:href="#DejaVuSans-20" x="279.541016"/>
      <use xlink:href="#DejaVuSans-77" x="311.328125"/>
      <use xlink:href="#DejaVuSans-69" x="393.115234"/>
      <use xlink:href="#DejaVuSans-74" x="420.898438"/>
      <use xlink:href="#DejaVuSans-68" x="460.107422"/>
      <use xlink:href="#DejaVuSans-20" x="523.486328"/>
      <use xlink:href="#DejaVuSans-63" x="555.273438"/>
      <use xlink:href="#DejaVuSans-3d" x="610.253906"/>
      <use xlink:href="#DejaVuSans-31" x="694.042969"/>
      <use xlink:href="#DejaVuSans-2c" x="757.666016"/>
      <use xlink:href="#DejaVuSans-20" x="789.453125"/>
      <use xlink:href="#DejaVuSans-3c3" x="821.240234"/>
      <use xlink:href="#DejaVuSans-3d" x="884.619141"/>
      <use xlink:href="#DejaVuSans-31" x="968.408203"/>
      <use xlink:href="#DejaVuSans-2c" x="1032.03125"/>
      <use xlink:href="#DejaVuSans-20" x="1063.818359"/>
      <use xlink:href="#DejaVuSans-3d5" x="1095.605469"/>
      <use xlink:href="#DejaVuSans-3d" x="1161.572266"/>
      <use xlink:href="#DejaVuSans-31" x="1245.361328"/>
     </g>
    </g>
   </g>
  </g>
  <g id="axes_2">
   <g id="patch_8">
    <path d="M 36.925 534.04 
L 709.2 534.04 
L 709.2 294.93 
L 36.925 294.93 
z
" style="fill: #ffffff"/>
   </g>
   <g id="matplotlib.axis_3">
    <g id="xtick_7">
     <g id="line2d_14">
      <g>
       <use xlink:href="#md5f05f6e2a" x="67.482955" y="534.04" style="stroke: #000000; stroke-width: 0.8"/>
      </g>
     </g>
     <g id="text_8">
      <!-- 0 -->
      <g transform="translate(64.301705 548.638438) scale(0.1 -0.1)">
       <use xlink:href="#DejaVuSans-30"/>
      </g>
     </g>
    </g>
    <g id="xtick_8">
     <g id="line2d_15">
      <g>
       <use xlink:href="#md5f05f6e2a" x="190.949438" y="534.04" style="stroke: #000000; stroke-width: 0.8"/>
      </g>
     </g>
     <g id="text_9">
      <!-- 20 -->
      <g transform="translate(184.586938 548.638438) scale(0.1 -0.1)">
       <use xlink:href="#DejaVuSans-32"/>
       <use xlink:href="#DejaVuSans-30" x="63.623047"/>
      </g>
     </g>
    </g>
    <g id="xtick_9">
     <g id="line2d_16">
      <g>
       <use xlink:href="#md5f05f6e2a" x="314.415921" y="534.04" style="stroke: #000000; stroke-width: 0.8"/>
      </g>
     </g>
     <g id="text_10">
      <!-- 40 -->
      <g transform="translate(308.053421 548.638438) scale(0.1 -0.1)">
       <use xlink:href="#DejaVuSans-34"/>
       <use xlink:href="#DejaVuSans-30" x="63.623047"/>
      </g>
     </g>
    </g>
    <g id="xtick_10">
     <g id="line2d_17">
      <g>
       <use xlink:href="#md5f05f6e2a" x="437.882404" y="534.04" style="stroke: #000000; stroke-width: 0.8"/>
      </g>
     </g>
     <g id="text_11">
      <!-- 60 -->
      <g transform="translate(431.519904 548.638438) scale(0.1 -0.1)">
       <use xlink:href="#DejaVuSans-36"/>
       <use xlink:href="#DejaVuSans-30" x="63.623047"/>
      </g>
     </g>
    </g>
    <g id="xtick_11">
     <g id="line2d_18">
      <g>
       <use xlink:href="#md5f05f6e2a" x="561.348887" y="534.04" style="stroke: #000000; stroke-width: 0.8"/>
      </g>
     </g>
     <g id="text_12">
      <!-- 80 -->
      <g transform="translate(554.986387 548.638438) scale(0.1 -0.1)">
       <use xlink:href="#DejaVuSans-38"/>
       <use xlink:href="#DejaVuSans-30" x="63.623047"/>
      </g>
     </g>
    </g>
    <g id="xtick_12">
     <g id="line2d_19">
      <g>
       <use xlink:href="#md5f05f6e2a" x="684.81537" y="534.04" style="stroke: #000000; stroke-width: 0.8"/>
      </g>
     </g>
     <g id="text_13">
      <!-- 100 -->
      <g transform="translate(675.27162 548.638438) scale(0.1 -0.1)">
       <use xlink:href="#DejaVuSans-31"/>
       <use xlink:href="#DejaVuSans-30" x="63.623047"/>
       <use xlink:href="#DejaVuSans-30" x="127.246094"/>
      </g>
     </g>
    </g>
    <g id="text_14">
     <!-- t -->
     <g transform="translate(371.102344 562.316562) scale(0.1 -0.1)">
      <use xlink:href="#DejaVuSans-74"/>
     </g>
    </g>
   </g>
   <g id="matplotlib.axis_4">
    <g id="ytick_6">
     <g id="line2d_20">
      <g>
       <use xlink:href="#mf8fe01d7dd" x="36.925" y="520.762724" style="stroke: #000000; stroke-width: 0.8"/>
      </g>
     </g>
     <g id="text_15">
      <!-- 0 -->
      <g transform="translate(23.5625 524.561943) scale(0.1 -0.1)">
       <use xlink:href="#DejaVuSans-30"/>
      </g>
     </g>
    </g>
    <g id="ytick_7">
     <g id="line2d_21">
      <g>
       <use xlink:href="#mf8fe01d7dd" x="36.925" y="483.873412" style="stroke: #000000; stroke-width: 0.8"/>
      </g>
     </g>
     <g id="text_16">
      <!-- 20 -->
      <g transform="translate(17.2 487.67263) scale(0.1 -0.1)">
       <use xlink:href="#DejaVuSans-32"/>
       <use xlink:href="#DejaVuSans-30" x="63.623047"/>
      </g>
     </g>
    </g>
    <g id="ytick_8">
     <g id="line2d_22">
      <g>
       <use xlink:href="#mf8fe01d7dd" x="36.925" y="446.9841" style="stroke: #000000; stroke-width: 0.8"/>
      </g>
     </g>
     <g id="text_17">
      <!-- 40 -->
      <g transform="translate(17.2 450.783318) scale(0.1 -0.1)">
       <use xlink:href="#DejaVuSans-34"/>
       <use xlink:href="#DejaVuSans-30" x="63.623047"/>
      </g>
     </g>
    </g>
    <g id="ytick_9">
     <g id="line2d_23">
      <g>
       <use xlink:href="#mf8fe01d7dd" x="36.925" y="410.094787" style="stroke: #000000; stroke-width: 0.8"/>
      </g>
     </g>
     <g id="text_18">
      <!-- 60 -->
      <g transform="translate(17.2 413.894006) scale(0.1 -0.1)">
       <use xlink:href="#DejaVuSans-36"/>
       <use xlink:href="#DejaVuSans-30" x="63.623047"/>
      </g>
     </g>
    </g>
    <g id="ytick_10">
     <g id="line2d_24">
      <g>
       <use xlink:href="#mf8fe01d7dd" x="36.925" y="373.205475" style="stroke: #000000; stroke-width: 0.8"/>
      </g>
     </g>
     <g id="text_19">
      <!-- 80 -->
      <g transform="translate(17.2 377.004694) scale(0.1 -0.1)">
       <use xlink:href="#DejaVuSans-38"/>
       <use xlink:href="#DejaVuSans-30" x="63.623047"/>
      </g>
     </g>
    </g>
    <g id="ytick_11">
     <g id="line2d_25">
      <g>
       <use xlink:href="#mf8fe01d7dd" x="36.925" y="336.316163" style="stroke: #000000; stroke-width: 0.8"/>
      </g>
     </g>
     <g id="text_20">
      <!-- 100 -->
      <g transform="translate(10.8375 340.115382) scale(0.1 -0.1)">
       <use xlink:href="#DejaVuSans-31"/>
       <use xlink:href="#DejaVuSans-30" x="63.623047"/>
       <use xlink:href="#DejaVuSans-30" x="127.246094"/>
      </g>
     </g>
    </g>
    <g id="ytick_12">
     <g id="line2d_26">
      <g>
       <use xlink:href="#mf8fe01d7dd" x="36.925" y="299.426851" style="stroke: #000000; stroke-width: 0.8"/>
      </g>
     </g>
     <g id="text_21">
      <!-- 120 -->
      <g transform="translate(10.8375 303.22607) scale(0.1 -0.1)">
       <use xlink:href="#DejaVuSans-31"/>
       <use xlink:href="#DejaVuSans-32" x="63.623047"/>
       <use xlink:href="#DejaVuSans-30" x="127.246094"/>
      </g>
     </g>
    </g>
   </g>
   <g id="line2d_27">
    <path d="M 67.482955 519.551113 
L 73.656279 516.061367 
L 79.829603 512.253682 
L 86.002927 511.418463 
L 92.176251 506.013518 
L 98.349575 502.453085 
L 104.522899 502.265545 
L 110.696224 501.077931 
L 116.869548 499.558149 
L 123.042872 498.365214 
L 129.216196 494.92889 
L 135.38952 494.106099 
L 141.562844 492.275484 
L 147.736169 486.752423 
L 153.909493 485.611983 
L 160.082817 484.107125 
L 166.256141 485.543785 
L 172.429465 481.660995 
L 178.602789 480.267303 
L 184.776113 480.42851 
L 190.949438 475.888815 
L 197.122762 474.693642 
L 203.296086 469.956884 
L 209.46941 464.468875 
L 215.642734 463.417221 
L 221.816058 458.460803 
L 227.989382 454.7693 
L 234.162707 455.062172 
L 240.336031 451.082261 
L 246.509355 447.606253 
L 252.682679 447.630175 
L 258.856003 447.611314 
L 265.029327 445.085023 
L 271.202652 442.009426 
L 277.375976 441.74798 
L 283.5493 441.984343 
L 289.722624 440.63341 
L 295.895948 439.944213 
L 302.069272 438.425062 
L 308.242596 435.91538 
L 314.415921 433.368238 
L 320.589245 430.722494 
L 326.762569 427.803866 
L 332.935893 423.201934 
L 339.109217 421.881213 
L 345.282541 419.380395 
L 351.455865 415.442415 
L 357.62919 414.410814 
L 363.802514 409.934075 
L 369.975838 405.850248 
L 376.149162 403.259594 
L 382.322486 399.438931 
L 388.49581 398.514699 
L 394.669135 396.660875 
L 400.842459 396.624191 
L 407.015783 393.4721 
L 413.189107 395.563826 
L 419.362431 393.468668 
L 425.535755 392.230164 
L 431.709079 389.709182 
L 437.882404 386.156219 
L 444.055728 386.75505 
L 450.229052 381.318709 
L 456.402376 382.318391 
L 462.5757 382.253415 
L 468.749024 380.656322 
L 474.922348 377.881717 
L 481.095673 376.851968 
L 487.268997 375.338368 
L 493.442321 374.994605 
L 499.615645 370.825665 
L 505.788969 369.189054 
L 511.962293 370.321222 
L 518.135618 367.249148 
L 524.308942 363.761722 
L 530.482266 359.682743 
L 536.65559 358.697559 
L 542.828914 355.679327 
L 549.002238 355.80339 
L 555.175562 353.9682 
L 561.348887 352.59324 
L 567.522211 352.291997 
L 573.695535 349.645958 
L 579.868859 350.339975 
L 586.042183 347.86138 
L 592.215507 340.686543 
L 598.388831 338.695739 
L 604.562156 336.75533 
L 610.73548 334.849627 
L 616.908804 333.53018 
L 623.082128 335.707571 
L 629.255452 336.463578 
L 635.428776 335.547514 
L 641.602101 332.918893 
L 647.775425 329.737389 
L 653.948749 326.397959 
L 660.122073 324.46559 
L 666.295397 322.269897 
L 672.468721 320.395437 
L 678.642045 317.009906 
" clip-path="url(#p7f9d586097)" style="fill: none; stroke: #1f77b4; stroke-width: 1.5; stroke-linecap: square"/>
   </g>
   <g id="line2d_28">
    <path d="M 67.482955 517.351649 
L 73.656279 515.73985 
L 79.829603 512.110403 
L 86.002927 510.62961 
L 92.176251 504.528902 
L 98.349575 506.642705 
L 104.522899 508.454471 
L 110.696224 507.148996 
L 116.869548 505.874046 
L 123.042872 508.324591 
L 129.216196 507.388779 
L 135.38952 509.044232 
L 141.562844 513.854331 
L 147.736169 513.124729 
L 153.909493 508.818287 
L 160.082817 508.505828 
L 166.256141 506.613364 
L 172.429465 503.669705 
L 178.602789 504.924703 
L 184.776113 505.218513 
L 190.949438 503.960151 
L 197.122762 501.547294 
L 203.296086 499.644765 
L 209.46941 498.911122 
L 215.642734 497.266295 
L 221.816058 493.242262 
L 227.989382 493.030085 
L 234.162707 491.221604 
L 240.336031 486.518529 
L 246.509355 484.424215 
L 252.682679 480.443059 
L 258.856003 477.816593 
L 265.029327 477.04838 
L 271.202652 473.13803 
L 277.375976 467.474935 
L 283.5493 467.581118 
L 289.722624 465.996168 
L 295.895948 464.821561 
L 302.069272 463.432933 
L 308.242596 459.987211 
L 314.415921 459.073918 
L 320.589245 460.198822 
L 326.762569 457.061554 
L 332.935893 454.766422 
L 339.109217 453.787875 
L 345.282541 451.66787 
L 351.455865 449.520251 
L 357.62919 451.224528 
L 363.802514 450.422603 
L 369.975838 449.584364 
L 376.149162 447.145515 
L 382.322486 445.962315 
L 388.49581 445.964891 
L 394.669135 444.107976 
L 400.842459 442.49606 
L 407.015783 440.967812 
L 413.189107 436.371153 
L 419.362431 431.003259 
L 425.535755 426.78772 
L 431.709079 425.485513 
L 437.882404 423.273469 
L 444.055728 419.842811 
L 450.229052 418.074652 
L 456.402376 416.295879 
L 462.5757 414.147835 
L 468.749024 409.736484 
L 474.922348 406.311385 
L 481.095673 403.765685 
L 487.268997 402.087552 
L 493.442321 401.298783 
L 499.615645 398.213732 
L 505.788969 400.445651 
L 511.962293 397.663158 
L 518.135618 395.46141 
L 524.308942 393.562996 
L 530.482266 392.530054 
L 536.65559 389.517041 
L 542.828914 388.809217 
L 549.002238 383.383887 
L 555.175562 381.789473 
L 561.348887 381.709788 
L 567.522211 379.120652 
L 573.695535 378.379997 
L 579.868859 376.177438 
L 586.042183 371.866845 
L 592.215507 371.665053 
L 598.388831 369.050483 
L 604.562156 366.099105 
L 610.73548 365.954528 
L 616.908804 365.109916 
L 623.082128 366.190545 
L 629.255452 366.756194 
L 635.428776 364.955615 
L 641.602101 362.877576 
L 647.775425 364.272501 
L 653.948749 363.339594 
L 660.122073 362.628293 
L 666.295397 360.916872 
L 672.468721 358.66756 
L 678.642045 356.21088 
" clip-path="url(#p7f9d586097)" style="fill: none; stroke: #ff7f0e; stroke-width: 1.5; stroke-linecap: square"/>
   </g>
   <g id="line2d_29">
    <path d="M 67.482955 517.941438 
L 73.656279 513.270102 
L 79.829603 510.264623 
L 86.002927 512.190913 
L 92.176251 508.907235 
L 98.349575 508.413486 
L 104.522899 506.74688 
L 110.696224 503.443582 
L 116.869548 501.177545 
L 123.042872 498.871141 
L 129.216196 495.016618 
L 135.38952 492.544549 
L 141.562844 488.318819 
L 147.736169 484.916398 
L 153.909493 481.283992 
L 160.082817 476.238204 
L 166.256141 473.86059 
L 172.429465 472.704104 
L 178.602789 469.828541 
L 184.776113 468.311873 
L 190.949438 467.517843 
L 197.122762 464.478507 
L 203.296086 463.066038 
L 209.46941 462.276568 
L 215.642734 459.974542 
L 221.816058 459.76762 
L 227.989382 461.85704 
L 234.162707 460.041342 
L 240.336031 460.490581 
L 246.509355 458.751873 
L 252.682679 456.923823 
L 258.856003 454.409018 
L 265.029327 450.859689 
L 271.202652 448.094462 
L 277.375976 445.191298 
L 283.5493 442.93928 
L 289.722624 441.76126 
L 295.895948 440.558093 
L 302.069272 438.973236 
L 308.242596 438.710187 
L 314.415921 439.190376 
L 320.589245 437.711915 
L 326.762569 438.976752 
L 332.935893 438.040626 
L 339.109217 433.110512 
L 345.282541 433.51792 
L 351.455865 429.690213 
L 357.62919 428.399021 
L 363.802514 425.772591 
L 369.975838 420.137964 
L 376.149162 416.698829 
L 382.322486 414.25107 
L 388.49581 410.833315 
L 394.669135 407.711505 
L 400.842459 405.564709 
L 407.015783 399.661516 
L 413.189107 397.016584 
L 419.362431 395.621179 
L 425.535755 393.017088 
L 431.709079 391.68249 
L 437.882404 392.295559 
L 444.055728 388.40053 
L 450.229052 387.733758 
L 456.402376 385.624703 
L 462.5757 385.467379 
L 468.749024 384.149939 
L 474.922348 383.699644 
L 481.095673 380.455836 
L 487.268997 384.223582 
L 493.442321 384.151395 
L 499.615645 384.00545 
L 505.788969 381.053648 
L 511.962293 380.377752 
L 518.135618 376.83437 
L 524.308942 373.383576 
L 530.482266 375.223298 
L 536.65559 374.432562 
L 542.828914 370.476415 
L 549.002238 367.622041 
L 555.175562 372.703357 
L 561.348887 370.253704 
L 567.522211 367.895066 
L 573.695535 362.9896 
L 579.868859 360.815639 
L 586.042183 358.803232 
L 592.215507 357.482288 
L 598.388831 354.392003 
L 604.562156 351.367564 
L 610.73548 347.831139 
L 616.908804 344.134608 
L 623.082128 338.020848 
L 629.255452 333.117584 
L 635.428776 332.27707 
L 641.602101 325.699885 
L 647.775425 322.429906 
L 653.948749 323.601377 
L 660.122073 318.552443 
L 666.295397 317.937279 
L 672.468721 312.807124 
L 678.642045 310.599629 
" clip-path="url(#p7f9d586097)" style="fill: none; stroke: #2ca02c; stroke-width: 1.5; stroke-linecap: square"/>
   </g>
   <g id="line2d_30">
    <path d="M 67.482955 515.817193 
L 73.656279 513.212157 
L 79.829603 513.290327 
L 86.002927 510.854093 
L 92.176251 508.138965 
L 98.349575 508.351483 
L 104.522899 508.460198 
L 110.696224 509.638177 
L 116.869548 510.882305 
L 123.042872 508.943027 
L 129.216196 509.163534 
L 135.38952 505.252402 
L 141.562844 503.930144 
L 147.736169 499.692783 
L 153.909493 497.065014 
L 160.082817 498.501762 
L 166.256141 497.86236 
L 172.429465 495.70515 
L 178.602789 495.980359 
L 184.776113 493.432368 
L 190.949438 492.330843 
L 197.122762 488.640408 
L 203.296086 487.654952 
L 209.46941 487.675305 
L 215.642734 484.653444 
L 221.816058 483.377347 
L 227.989382 481.348028 
L 234.162707 475.772954 
L 240.336031 473.637422 
L 246.509355 470.605127 
L 252.682679 470.951415 
L 258.856003 470.142937 
L 265.029327 468.12146 
L 271.202652 463.668092 
L 277.375976 462.96071 
L 283.5493 464.759609 
L 289.722624 463.1399 
L 295.895948 457.137592 
L 302.069272 453.427718 
L 308.242596 451.207201 
L 314.415921 448.304665 
L 320.589245 445.319891 
L 326.762569 442.95273 
L 332.935893 439.199533 
L 339.109217 435.910969 
L 345.282541 435.730992 
L 351.455865 431.527725 
L 357.62919 429.875627 
L 363.802514 426.734902 
L 369.975838 424.919556 
L 376.149162 420.720044 
L 382.322486 418.940823 
L 388.49581 416.506935 
L 394.669135 413.526179 
L 400.842459 410.311918 
L 407.015783 408.015008 
L 413.189107 408.046999 
L 419.362431 409.458026 
L 425.535755 406.183128 
L 431.709079 404.481274 
L 437.882404 406.119105 
L 444.055728 405.497726 
L 450.229052 403.64068 
L 456.402376 402.244968 
L 462.5757 399.963692 
L 468.749024 395.827141 
L 474.922348 393.544448 
L 481.095673 391.979059 
L 487.268997 387.337821 
L 493.442321 384.06359 
L 499.615645 381.711771 
L 505.788969 378.18597 
L 511.962293 375.579269 
L 518.135618 372.663467 
L 524.308942 369.579666 
L 530.482266 366.59286 
L 536.65559 363.291866 
L 542.828914 359.350106 
L 549.002238 357.076398 
L 555.175562 354.052497 
L 561.348887 355.842244 
L 567.522211 355.808948 
L 573.695535 355.593763 
L 579.868859 353.455225 
L 586.042183 353.266525 
L 592.215507 347.651222 
L 598.388831 346.733549 
L 604.562156 346.972152 
L 610.73548 342.563473 
L 616.908804 340.260804 
L 623.082128 338.182942 
L 629.255452 336.653253 
L 635.428776 335.879643 
L 641.602101 335.665986 
L 647.775425 334.103729 
L 653.948749 333.123456 
L 660.122073 332.258502 
L 666.295397 329.749446 
L 672.468721 329.498003 
L 678.642045 324.008304 
" clip-path="url(#p7f9d586097)" style="fill: none; stroke: #d62728; stroke-width: 1.5; stroke-linecap: square"/>
   </g>
   <g id="line2d_31">
    <path d="M 67.482955 518.133332 
L 73.656279 517.126855 
L 79.829603 513.519217 
L 86.002927 512.900625 
L 92.176251 513.557242 
L 98.349575 508.891366 
L 104.522899 509.113053 
L 110.696224 504.527522 
L 116.869548 500.977511 
L 123.042872 503.252532 
L 129.216196 501.517957 
L 135.38952 500.720772 
L 141.562844 500.464044 
L 147.736169 497.362596 
L 153.909493 493.447135 
L 160.082817 490.302451 
L 166.256141 487.527641 
L 172.429465 486.699303 
L 178.602789 485.116365 
L 184.776113 486.319171 
L 190.949438 483.498028 
L 197.122762 480.928653 
L 203.296086 479.297571 
L 209.46941 474.969616 
L 215.642734 470.354122 
L 221.816058 468.163726 
L 227.989382 466.589643 
L 234.162707 465.142863 
L 240.336031 467.02546 
L 246.509355 462.464531 
L 252.682679 459.159894 
L 258.856003 460.424117 
L 265.029327 456.07559 
L 271.202652 455.261682 
L 277.375976 456.772636 
L 283.5493 456.272621 
L 289.722624 453.087014 
L 295.895948 449.220115 
L 302.069272 447.438831 
L 308.242596 445.940533 
L 314.415921 445.507615 
L 320.589245 444.661483 
L 326.762569 441.837084 
L 332.935893 441.981195 
L 339.109217 439.606114 
L 345.282541 438.661215 
L 351.455865 434.574639 
L 357.62919 434.68843 
L 363.802514 432.558834 
L 369.975838 429.996358 
L 376.149162 427.29047 
L 382.322486 427.145266 
L 388.49581 427.30467 
L 394.669135 427.478059 
L 400.842459 424.707106 
L 407.015783 425.242154 
L 413.189107 425.778833 
L 419.362431 423.910355 
L 425.535755 422.019051 
L 431.709079 420.791499 
L 437.882404 419.211834 
L 444.055728 420.400985 
L 450.229052 418.448528 
L 456.402376 417.488881 
L 462.5757 415.036182 
L 468.749024 414.712436 
L 474.922348 412.061937 
L 481.095673 410.024395 
L 487.268997 409.679953 
L 493.442321 409.498254 
L 499.615645 406.487138 
L 505.788969 401.291344 
L 511.962293 398.362824 
L 518.135618 397.695761 
L 524.308942 394.271357 
L 530.482266 391.878637 
L 536.65559 390.897459 
L 542.828914 387.769738 
L 549.002238 386.590818 
L 555.175562 385.864191 
L 561.348887 380.870683 
L 567.522211 381.070268 
L 573.695535 377.344473 
L 579.868859 373.377084 
L 586.042183 372.743716 
L 592.215507 373.772756 
L 598.388831 369.502005 
L 604.562156 364.778618 
L 610.73548 362.60247 
L 616.908804 359.641553 
L 623.082128 357.208342 
L 629.255452 355.879329 
L 635.428776 352.614513 
L 641.602101 348.949793 
L 647.775425 348.021025 
L 653.948749 344.281622 
L 660.122073 339.730561 
L 666.295397 336.407152 
L 672.468721 337.970586 
L 678.642045 335.163772 
" clip-path="url(#p7f9d586097)" style="fill: none; stroke: #9467bd; stroke-width: 1.5; stroke-linecap: square"/>
   </g>
   <g id="line2d_32">
    <path d="M 67.482955 518.517628 
L 73.656279 520.159957 
L 79.829603 519.361495 
L 86.002927 515.39344 
L 92.176251 516.942092 
L 98.349575 517.202124 
L 104.522899 515.089412 
L 110.696224 514.261923 
L 116.869548 513.918687 
L 123.042872 514.384588 
L 129.216196 510.850712 
L 135.38952 509.135682 
L 141.562844 507.654923 
L 147.736169 506.606118 
L 153.909493 505.586907 
L 160.082817 503.762539 
L 166.256141 500.071275 
L 172.429465 498.823868 
L 178.602789 494.836396 
L 184.776113 500.447324 
L 190.949438 500.680438 
L 197.122762 499.563481 
L 203.296086 494.888818 
L 209.46941 496.523599 
L 215.642734 495.828334 
L 221.816058 494.795542 
L 227.989382 495.779117 
L 234.162707 496.083871 
L 240.336031 493.272035 
L 246.509355 489.625278 
L 252.682679 483.286638 
L 258.856003 483.424144 
L 265.029327 478.932314 
L 271.202652 475.852154 
L 277.375976 474.231453 
L 283.5493 472.350942 
L 289.722624 468.416431 
L 295.895948 467.568853 
L 302.069272 469.502505 
L 308.242596 468.138339 
L 314.415921 463.575425 
L 320.589245 461.295409 
L 326.762569 460.280656 
L 332.935893 458.237485 
L 339.109217 455.741886 
L 345.282541 454.890206 
L 351.455865 452.277088 
L 357.62919 452.079112 
L 363.802514 449.995043 
L 369.975838 444.91167 
L 376.149162 440.978059 
L 382.322486 437.799011 
L 388.49581 438.1011 
L 394.669135 437.213301 
L 400.842459 433.642707 
L 407.015783 433.630311 
L 413.189107 434.377915 
L 419.362431 436.106924 
L 425.535755 433.836032 
L 431.709079 432.556872 
L 437.882404 429.987286 
L 444.055728 429.184824 
L 450.229052 428.658477 
L 456.402376 427.161708 
L 462.5757 424.947943 
L 468.749024 421.862026 
L 474.922348 416.779782 
L 481.095673 414.557449 
L 487.268997 409.753297 
L 493.442321 405.3864 
L 499.615645 402.863285 
L 505.788969 403.607235 
L 511.962293 402.757717 
L 518.135618 401.006305 
L 524.308942 398.108155 
L 530.482266 396.848749 
L 536.65559 392.859111 
L 542.828914 388.699991 
L 549.002238 387.074698 
L 555.175562 384.644779 
L 561.348887 384.486599 
L 567.522211 383.010625 
L 573.695535 380.207779 
L 579.868859 376.281254 
L 586.042183 376.888352 
L 592.215507 372.654242 
L 598.388831 371.00119 
L 604.562156 366.291458 
L 610.73548 363.888382 
L 616.908804 359.859717 
L 623.082128 354.35295 
L 629.255452 350.159488 
L 635.428776 350.431162 
L 641.602101 349.733443 
L 647.775425 350.584537 
L 653.948749 347.115376 
L 660.122073 347.745642 
L 666.295397 344.400051 
L 672.468721 344.399564 
L 678.642045 342.291696 
" clip-path="url(#p7f9d586097)" style="fill: none; stroke: #8c564b; stroke-width: 1.5; stroke-linecap: square"/>
   </g>
   <g id="line2d_33">
    <path d="M 67.482955 517.505873 
L 73.656279 514.249994 
L 79.829603 509.522 
L 86.002927 505.11582 
L 92.176251 502.616658 
L 98.349575 500.428634 
L 104.522899 497.990319 
L 110.696224 496.624402 
L 116.869548 496.279588 
L 123.042872 493.359022 
L 129.216196 492.529197 
L 135.38952 492.733091 
L 141.562844 492.445023 
L 147.736169 491.81246 
L 153.909493 487.572968 
L 160.082817 487.607046 
L 166.256141 482.804512 
L 172.429465 480.978417 
L 178.602789 479.914069 
L 184.776113 476.274002 
L 190.949438 477.29921 
L 197.122762 473.693755 
L 203.296086 470.029314 
L 209.46941 466.771693 
L 215.642734 464.797742 
L 221.816058 460.763287 
L 227.989382 460.905629 
L 234.162707 460.669061 
L 240.336031 460.929684 
L 246.509355 459.313051 
L 252.682679 456.908837 
L 258.856003 451.855922 
L 265.029327 450.199118 
L 271.202652 448.367778 
L 277.375976 446.288939 
L 283.5493 442.885212 
L 289.722624 442.497112 
L 295.895948 442.656639 
L 302.069272 441.439645 
L 308.242596 440.302564 
L 314.415921 434.920776 
L 320.589245 432.591743 
L 326.762569 428.260295 
L 332.935893 426.405087 
L 339.109217 427.004189 
L 345.282541 424.290498 
L 351.455865 422.728983 
L 357.62919 417.99193 
L 363.802514 414.478765 
L 369.975838 414.459575 
L 376.149162 414.225718 
L 382.322486 410.782933 
L 388.49581 406.533067 
L 394.669135 403.341796 
L 400.842459 400.766299 
L 407.015783 400.884539 
L 413.189107 400.018988 
L 419.362431 396.31668 
L 425.535755 395.821919 
L 431.709079 393.953247 
L 437.882404 390.539741 
L 444.055728 389.57555 
L 450.229052 385.972483 
L 456.402376 385.180007 
L 462.5757 381.635866 
L 468.749024 380.714027 
L 474.922348 375.573538 
L 481.095673 375.607027 
L 487.268997 372.522837 
L 493.442321 374.291563 
L 499.615645 373.974745 
L 505.788969 372.360059 
L 511.962293 371.992865 
L 518.135618 367.374464 
L 524.308942 367.380999 
L 530.482266 364.651455 
L 536.65559 361.244303 
L 542.828914 358.183405 
L 549.002238 356.278248 
L 555.175562 350.078297 
L 561.348887 351.366994 
L 567.522211 351.923078 
L 573.695535 348.276931 
L 579.868859 344.476836 
L 586.042183 343.818459 
L 592.215507 341.427995 
L 598.388831 338.601335 
L 604.562156 337.004264 
L 610.73548 337.092309 
L 616.908804 334.211547 
L 623.082128 332.144978 
L 629.255452 330.093781 
L 635.428776 331.915871 
L 641.602101 331.607702 
L 647.775425 333.807773 
L 653.948749 327.61726 
L 660.122073 325.016364 
L 666.295397 321.758903 
L 672.468721 320.806201 
L 678.642045 320.748254 
" clip-path="url(#p7f9d586097)" style="fill: none; stroke: #e377c2; stroke-width: 1.5; stroke-linecap: square"/>
   </g>
   <g id="line2d_34">
    <path d="M 67.482955 522.33336 
L 73.656279 521.793578 
L 79.829603 520.634359 
L 86.002927 515.572382 
L 92.176251 515.05691 
L 98.349575 514.396731 
L 104.522899 514.624033 
L 110.696224 515.134672 
L 116.869548 513.254217 
L 123.042872 508.863999 
L 129.216196 507.974953 
L 135.38952 506.089052 
L 141.562844 506.435234 
L 147.736169 503.809816 
L 153.909493 499.195281 
L 160.082817 498.441574 
L 166.256141 498.3618 
L 172.429465 496.658656 
L 178.602789 496.136869 
L 184.776113 493.994867 
L 190.949438 493.202425 
L 197.122762 490.793807 
L 203.296086 492.099186 
L 209.46941 489.667133 
L 215.642734 486.601859 
L 221.816058 483.144751 
L 227.989382 481.495068 
L 234.162707 479.622633 
L 240.336031 478.467663 
L 246.509355 475.772112 
L 252.682679 469.327963 
L 258.856003 467.339894 
L 265.029327 466.152068 
L 271.202652 465.280307 
L 277.375976 463.528992 
L 283.5493 458.829558 
L 289.722624 457.327433 
L 295.895948 455.008754 
L 302.069272 453.153028 
L 308.242596 449.546748 
L 314.415921 449.666509 
L 320.589245 449.372448 
L 326.762569 448.048929 
L 332.935893 447.157468 
L 339.109217 444.56214 
L 345.282541 443.356865 
L 351.455865 442.041161 
L 357.62919 442.297557 
L 363.802514 438.773873 
L 369.975838 437.978704 
L 376.149162 436.405726 
L 382.322486 433.614935 
L 388.49581 434.293054 
L 394.669135 430.925053 
L 400.842459 428.478084 
L 407.015783 424.544337 
L 413.189107 421.102155 
L 419.362431 417.847216 
L 425.535755 419.086204 
L 431.709079 419.043739 
L 437.882404 415.136565 
L 444.055728 414.3745 
L 450.229052 412.462565 
L 456.402376 410.26899 
L 462.5757 410.750086 
L 468.749024 413.371704 
L 474.922348 410.298475 
L 481.095673 409.964838 
L 487.268997 406.973761 
L 493.442321 404.138612 
L 499.615645 401.336057 
L 505.788969 395.312986 
L 511.962293 391.776278 
L 518.135618 389.345788 
L 524.308942 390.198143 
L 530.482266 391.02427 
L 536.65559 386.348292 
L 542.828914 382.257532 
L 549.002238 381.178585 
L 555.175562 380.263221 
L 561.348887 377.809279 
L 567.522211 375.011444 
L 573.695535 374.227684 
L 579.868859 370.994228 
L 586.042183 369.839805 
L 592.215507 366.164664 
L 598.388831 363.988234 
L 604.562156 363.600214 
L 610.73548 358.570441 
L 616.908804 356.875304 
L 623.082128 357.078781 
L 629.255452 357.581795 
L 635.428776 355.175683 
L 641.602101 355.681421 
L 647.775425 356.364749 
L 653.948749 353.958606 
L 660.122073 351.354402 
L 666.295397 350.984121 
L 672.468721 349.996497 
L 678.642045 350.917669 
" clip-path="url(#p7f9d586097)" style="fill: none; stroke: #7f7f7f; stroke-width: 1.5; stroke-linecap: square"/>
   </g>
   <g id="line2d_35">
    <path d="M 67.482955 521.12789 
L 73.656279 519.747067 
L 79.829603 514.081765 
L 86.002927 510.719889 
L 92.176251 505.200579 
L 98.349575 500.751301 
L 104.522899 501.202876 
L 110.696224 498.401867 
L 116.869548 495.995882 
L 123.042872 494.935627 
L 129.216196 490.149632 
L 135.38952 488.151604 
L 141.562844 487.014034 
L 147.736169 485.216147 
L 153.909493 482.850861 
L 160.082817 480.105379 
L 166.256141 481.500095 
L 172.429465 480.487778 
L 178.602789 480.313568 
L 184.776113 479.641375 
L 190.949438 477.097977 
L 197.122762 473.738246 
L 203.296086 469.452979 
L 209.46941 465.360868 
L 215.642734 460.969671 
L 221.816058 457.092753 
L 227.989382 453.742972 
L 234.162707 450.824049 
L 240.336031 450.133139 
L 246.509355 447.209803 
L 252.682679 445.809359 
L 258.856003 441.654524 
L 265.029327 443.22317 
L 271.202652 442.492981 
L 277.375976 440.750149 
L 283.5493 434.541298 
L 289.722624 433.064662 
L 295.895948 432.988291 
L 302.069272 431.579248 
L 308.242596 429.023927 
L 314.415921 427.60175 
L 320.589245 425.860631 
L 326.762569 424.955696 
L 332.935893 421.03844 
L 339.109217 419.702231 
L 345.282541 415.806623 
L 351.455865 410.433877 
L 357.62919 408.721763 
L 363.802514 406.376026 
L 369.975838 407.452165 
L 376.149162 404.504785 
L 382.322486 403.866057 
L 388.49581 401.22092 
L 394.669135 400.771424 
L 400.842459 399.683635 
L 407.015783 396.951725 
L 413.189107 396.893619 
L 419.362431 398.214221 
L 425.535755 397.195429 
L 431.709079 397.577801 
L 437.882404 398.00631 
L 444.055728 398.527232 
L 450.229052 395.801048 
L 456.402376 394.437779 
L 462.5757 390.985856 
L 468.749024 388.214601 
L 474.922348 387.540526 
L 481.095673 385.143988 
L 487.268997 380.785289 
L 493.442321 378.551223 
L 499.615645 377.849643 
L 505.788969 376.393023 
L 511.962293 373.256366 
L 518.135618 370.265681 
L 524.308942 364.419757 
L 530.482266 362.761279 
L 536.65559 362.069313 
L 542.828914 362.036183 
L 549.002238 359.721021 
L 555.175562 357.544005 
L 561.348887 354.974056 
L 567.522211 352.794647 
L 573.695535 349.99092 
L 579.868859 348.817548 
L 586.042183 347.521488 
L 592.215507 344.333535 
L 598.388831 343.581995 
L 604.562156 339.317848 
L 610.73548 337.750077 
L 616.908804 338.660965 
L 623.082128 338.515329 
L 629.255452 337.504195 
L 635.428776 334.954057 
L 641.602101 329.129012 
L 647.775425 327.190437 
L 653.948749 326.968372 
L 660.122073 322.697002 
L 666.295397 322.548122 
L 672.468721 321.641322 
L 678.642045 318.63551 
" clip-path="url(#p7f9d586097)" style="fill: none; stroke: #bcbd22; stroke-width: 1.5; stroke-linecap: square"/>
   </g>
   <g id="line2d_36">
    <path d="M 67.482955 520.855213 
L 73.656279 519.584886 
L 79.829603 519.390164 
L 86.002927 517.308705 
L 92.176251 517.321367 
L 98.349575 517.494836 
L 104.522899 517.363618 
L 110.696224 514.11621 
L 116.869548 511.448185 
L 123.042872 509.846453 
L 129.216196 508.426052 
L 135.38952 504.908708 
L 141.562844 503.905185 
L 147.736169 501.234341 
L 153.909493 497.768705 
L 160.082817 496.214516 
L 166.256141 496.118216 
L 172.429465 492.929995 
L 178.602789 492.343487 
L 184.776113 491.313252 
L 190.949438 487.917513 
L 197.122762 483.925494 
L 203.296086 480.364846 
L 209.46941 478.162394 
L 215.642734 476.512491 
L 221.816058 473.589089 
L 227.989382 473.021708 
L 234.162707 474.221753 
L 240.336031 470.350227 
L 246.509355 470.88004 
L 252.682679 466.74601 
L 258.856003 465.321226 
L 265.029327 461.232531 
L 271.202652 458.173777 
L 277.375976 457.224722 
L 283.5493 456.852041 
L 289.722624 457.006721 
L 295.895948 453.195627 
L 302.069272 452.150814 
L 308.242596 448.470104 
L 314.415921 450.416566 
L 320.589245 446.809856 
L 326.762569 448.448206 
L 332.935893 448.307238 
L 339.109217 447.403055 
L 345.282541 444.200944 
L 351.455865 442.37852 
L 357.62919 439.821473 
L 363.802514 437.290186 
L 369.975838 436.56253 
L 376.149162 435.733282 
L 382.322486 436.525007 
L 388.49581 434.198236 
L 394.669135 433.74334 
L 400.842459 431.424098 
L 407.015783 427.939048 
L 413.189107 426.117844 
L 419.362431 423.543538 
L 425.535755 422.898854 
L 431.709079 422.298008 
L 437.882404 420.535448 
L 444.055728 418.874044 
L 450.229052 417.382563 
L 456.402376 415.350819 
L 462.5757 414.47109 
L 468.749024 415.410491 
L 474.922348 411.609458 
L 481.095673 410.476676 
L 487.268997 407.435972 
L 493.442321 404.016727 
L 499.615645 402.071425 
L 505.788969 398.610813 
L 511.962293 397.520019 
L 518.135618 395.146447 
L 524.308942 395.297307 
L 530.482266 391.826272 
L 536.65559 388.805366 
L 542.828914 385.251676 
L 549.002238 382.453798 
L 555.175562 379.709773 
L 561.348887 377.143796 
L 567.522211 377.305042 
L 573.695535 373.368011 
L 579.868859 371.109918 
L 586.042183 370.672662 
L 592.215507 367.177371 
L 598.388831 367.247097 
L 604.562156 363.965142 
L 610.73548 364.032161 
L 616.908804 361.670279 
L 623.082128 358.312025 
L 629.255452 358.580796 
L 635.428776 355.082207 
L 641.602101 352.859609 
L 647.775425 353.363826 
L 653.948749 351.998871 
L 660.122073 345.336415 
L 666.295397 343.80324 
L 672.468721 338.833458 
L 678.642045 334.393764 
" clip-path="url(#p7f9d586097)" style="fill: none; stroke: #17becf; stroke-width: 1.5; stroke-linecap: square"/>
   </g>
   <g id="line2d_37">
    <path d="M 67.482955 519.816529 
L 73.656279 521.567902 
L 79.829603 519.632019 
L 86.002927 520.070178 
L 92.176251 518.937194 
L 98.349575 512.479147 
L 104.522899 512.585355 
L 110.696224 508.461494 
L 116.869548 506.82395 
L 123.042872 503.687632 
L 129.216196 501.373808 
L 135.38952 500.714761 
L 141.562844 500.45174 
L 147.736169 499.846444 
L 153.909493 496.165173 
L 160.082817 494.013983 
L 166.256141 493.999049 
L 172.429465 493.594296 
L 178.602789 490.950671 
L 184.776113 489.562734 
L 190.949438 486.358412 
L 197.122762 486.073717 
L 203.296086 483.798236 
L 209.46941 479.077112 
L 215.642734 475.039872 
L 221.816058 470.864901 
L 227.989382 470.021882 
L 234.162707 468.177072 
L 240.336031 466.885474 
L 246.509355 466.013212 
L 252.682679 464.142377 
L 258.856003 464.894814 
L 265.029327 463.763621 
L 271.202652 461.830067 
L 277.375976 459.452594 
L 283.5493 451.579322 
L 289.722624 448.824557 
L 295.895948 448.138804 
L 302.069272 445.497033 
L 308.242596 442.72013 
L 314.415921 443.094006 
L 320.589245 442.446001 
L 326.762569 438.486559 
L 332.935893 436.842412 
L 339.109217 433.853433 
L 345.282541 431.665703 
L 351.455865 430.439957 
L 357.62919 429.705863 
L 363.802514 427.791719 
L 369.975838 425.908422 
L 376.149162 428.131878 
L 382.322486 428.451134 
L 388.49581 426.463416 
L 394.669135 424.267032 
L 400.842459 421.914802 
L 407.015783 422.033605 
L 413.189107 415.110098 
L 419.362431 413.181972 
L 425.535755 410.022086 
L 431.709079 409.543947 
L 437.882404 408.367645 
L 444.055728 406.233413 
L 450.229052 406.48748 
L 456.402376 405.822627 
L 462.5757 400.169774 
L 468.749024 397.691267 
L 474.922348 397.378384 
L 481.095673 394.194934 
L 487.268997 389.692486 
L 493.442321 387.021249 
L 499.615645 382.804298 
L 505.788969 384.018015 
L 511.962293 382.802381 
L 518.135618 381.202128 
L 524.308942 379.746781 
L 530.482266 376.596377 
L 536.65559 373.463813 
L 542.828914 371.32867 
L 549.002238 367.130522 
L 555.175562 363.728287 
L 561.348887 360.170413 
L 567.522211 358.339228 
L 573.695535 356.434448 
L 579.868859 356.792176 
L 586.042183 354.593453 
L 592.215507 352.382575 
L 598.388831 350.557418 
L 604.562156 348.63697 
L 610.73548 346.98125 
L 616.908804 343.397828 
L 623.082128 339.510887 
L 629.255452 337.03414 
L 635.428776 333.838647 
L 641.602101 333.596065 
L 647.775425 333.30458 
L 653.948749 331.300699 
L 660.122073 332.380716 
L 666.295397 328.852188 
L 672.468721 327.950037 
L 678.642045 328.394552 
" clip-path="url(#p7f9d586097)" style="fill: none; stroke: #1f77b4; stroke-width: 1.5; stroke-linecap: square"/>
   </g>
   <g id="line2d_38">
    <path d="M 67.482955 521.702694 
L 73.656279 520.947676 
L 79.829603 520.063108 
L 86.002927 517.500466 
L 92.176251 515.107856 
L 98.349575 511.925738 
L 104.522899 509.404854 
L 110.696224 507.956894 
L 116.869548 505.98376 
L 123.042872 504.818213 
L 129.216196 503.46406 
L 135.38952 502.69075 
L 141.562844 499.849644 
L 147.736169 498.030247 
L 153.909493 496.411744 
L 160.082817 492.674179 
L 166.256141 492.050776 
L 172.429465 490.758221 
L 178.602789 488.112916 
L 184.776113 482.168347 
L 190.949438 478.589046 
L 197.122762 478.5938 
L 203.296086 478.729181 
L 209.46941 474.839347 
L 215.642734 471.849048 
L 221.816058 467.119807 
L 227.989382 463.644005 
L 234.162707 462.543673 
L 240.336031 462.685896 
L 246.509355 461.934279 
L 252.682679 461.308467 
L 258.856003 457.598312 
L 265.029327 457.851797 
L 271.202652 454.245545 
L 277.375976 452.56789 
L 283.5493 454.458902 
L 289.722624 453.577353 
L 295.895948 451.679174 
L 302.069272 448.722416 
L 308.242596 448.018059 
L 314.415921 446.348313 
L 320.589245 445.55683 
L 326.762569 449.579302 
L 332.935893 446.311384 
L 339.109217 445.278734 
L 345.282541 441.877116 
L 351.455865 439.578256 
L 357.62919 438.079661 
L 363.802514 436.514985 
L 369.975838 435.814763 
L 376.149162 431.877184 
L 382.322486 430.461032 
L 388.49581 428.599711 
L 394.669135 424.755388 
L 400.842459 423.048712 
L 407.015783 420.234654 
L 413.189107 415.343442 
L 419.362431 413.774557 
L 425.535755 412.182422 
L 431.709079 409.08751 
L 437.882404 407.45073 
L 444.055728 403.824526 
L 450.229052 402.322648 
L 456.402376 398.870521 
L 462.5757 398.992418 
L 468.749024 396.388641 
L 474.922348 394.478923 
L 481.095673 393.335721 
L 487.268997 391.284067 
L 493.442321 388.18357 
L 499.615645 386.411887 
L 505.788969 382.729526 
L 511.962293 380.532853 
L 518.135618 376.806605 
L 524.308942 375.76839 
L 530.482266 376.492139 
L 536.65559 372.669124 
L 542.828914 370.193923 
L 549.002238 366.644804 
L 555.175562 366.995863 
L 561.348887 366.439303 
L 567.522211 362.812872 
L 573.695535 363.270017 
L 579.868859 359.14412 
L 586.042183 356.516199 
L 592.215507 354.711053 
L 598.388831 353.728431 
L 604.562156 350.274009 
L 610.73548 347.813681 
L 616.908804 349.264023 
L 623.082128 349.487534 
L 629.255452 349.666082 
L 635.428776 347.35128 
L 641.602101 346.493862 
L 647.775425 346.910268 
L 653.948749 345.721112 
L 660.122073 348.349451 
L 666.295397 346.770977 
L 672.468721 345.094876 
L 678.642045 340.776194 
" clip-path="url(#p7f9d586097)" style="fill: none; stroke: #ff7f0e; stroke-width: 1.5; stroke-linecap: square"/>
   </g>
   <g id="line2d_39">
    <path d="M 67.482955 521.540342 
L 73.656279 517.497439 
L 79.829603 517.670149 
L 86.002927 516.902965 
L 92.176251 515.236946 
L 98.349575 512.30342 
L 104.522899 512.69576 
L 110.696224 510.776937 
L 116.869548 513.918046 
L 123.042872 515.225507 
L 129.216196 516.797046 
L 135.38952 512.66834 
L 141.562844 513.690152 
L 147.736169 512.264067 
L 153.909493 508.839821 
L 160.082817 509.587494 
L 166.256141 508.969332 
L 172.429465 503.362472 
L 178.602789 502.144699 
L 184.776113 500.830081 
L 190.949438 499.472057 
L 197.122762 498.816834 
L 203.296086 496.552231 
L 209.46941 496.159994 
L 215.642734 497.158815 
L 221.816058 493.248259 
L 227.989382 489.871503 
L 234.162707 489.035127 
L 240.336031 488.408183 
L 246.509355 486.345482 
L 252.682679 486.263931 
L 258.856003 483.732836 
L 265.029327 482.321656 
L 271.202652 484.347541 
L 277.375976 479.485502 
L 283.5493 480.618286 
L 289.722624 476.827578 
L 295.895948 473.834889 
L 302.069272 472.091015 
L 308.242596 470.608877 
L 314.415921 470.289495 
L 320.589245 469.413863 
L 326.762569 468.405583 
L 332.935893 466.781962 
L 339.109217 464.936985 
L 345.282541 462.775954 
L 351.455865 460.035695 
L 357.62919 455.768841 
L 363.802514 452.848866 
L 369.975838 453.162841 
L 376.149162 451.797615 
L 382.322486 448.733804 
L 388.49581 448.515595 
L 394.669135 445.713935 
L 400.842459 443.557489 
L 407.015783 438.741532 
L 413.189107 433.619652 
L 419.362431 433.861877 
L 425.535755 432.533534 
L 431.709079 429.91026 
L 437.882404 426.950198 
L 444.055728 424.317236 
L 450.229052 423.599956 
L 456.402376 421.600865 
L 462.5757 419.533158 
L 468.749024 420.672001 
L 474.922348 422.98991 
L 481.095673 419.137588 
L 487.268997 417.196132 
L 493.442321 414.117283 
L 499.615645 414.15386 
L 505.788969 410.863701 
L 511.962293 410.183453 
L 518.135618 411.128839 
L 524.308942 409.283244 
L 530.482266 408.418899 
L 536.65559 407.722515 
L 542.828914 407.109708 
L 549.002238 404.147234 
L 555.175562 400.01172 
L 561.348887 398.673537 
L 567.522211 395.69296 
L 573.695535 393.820075 
L 579.868859 392.68858 
L 586.042183 394.104057 
L 592.215507 391.538065 
L 598.388831 388.393339 
L 604.562156 385.453821 
L 610.73548 384.401072 
L 616.908804 385.183264 
L 623.082128 380.643414 
L 629.255452 373.531033 
L 635.428776 373.472243 
L 641.602101 371.069203 
L 647.775425 369.429699 
L 653.948749 366.701884 
L 660.122073 366.42203 
L 666.295397 364.535686 
L 672.468721 362.915695 
L 678.642045 360.399878 
" clip-path="url(#p7f9d586097)" style="fill: none; stroke: #2ca02c; stroke-width: 1.5; stroke-linecap: square"/>
   </g>
   <g id="line2d_40">
    <path d="M 67.482955 517.200765 
L 73.656279 513.988961 
L 79.829603 510.027458 
L 86.002927 510.195643 
L 92.176251 507.157791 
L 98.349575 505.228249 
L 104.522899 502.884802 
L 110.696224 499.941265 
L 116.869548 497.052297 
L 123.042872 493.591991 
L 129.216196 489.658196 
L 135.38952 485.912505 
L 141.562844 480.955291 
L 147.736169 476.558911 
L 153.909493 472.045847 
L 160.082817 472.765003 
L 166.256141 471.988468 
L 172.429465 468.780967 
L 178.602789 467.500111 
L 184.776113 467.401316 
L 190.949438 463.257765 
L 197.122762 461.268629 
L 203.296086 458.672574 
L 209.46941 457.402735 
L 215.642734 454.843796 
L 221.816058 453.483519 
L 227.989382 453.573184 
L 234.162707 455.336966 
L 240.336031 454.278165 
L 246.509355 452.094 
L 252.682679 448.265669 
L 258.856003 444.695169 
L 265.029327 441.458072 
L 271.202652 440.879791 
L 277.375976 437.560651 
L 283.5493 434.979732 
L 289.722624 435.325233 
L 295.895948 431.679106 
L 302.069272 430.296353 
L 308.242596 430.066319 
L 314.415921 430.383757 
L 320.589245 427.246896 
L 326.762569 422.665164 
L 332.935893 419.844391 
L 339.109217 419.54171 
L 345.282541 419.319788 
L 351.455865 415.125672 
L 357.62919 411.647382 
L 363.802514 410.641316 
L 369.975838 408.026782 
L 376.149162 404.753461 
L 382.322486 402.045591 
L 388.49581 399.913503 
L 394.669135 399.309829 
L 400.842459 398.284143 
L 407.015783 396.707754 
L 413.189107 396.885323 
L 419.362431 395.393761 
L 425.535755 394.50025 
L 431.709079 390.624438 
L 437.882404 387.747438 
L 444.055728 384.780563 
L 450.229052 385.950566 
L 456.402376 384.011386 
L 462.5757 379.683482 
L 468.749024 379.093419 
L 474.922348 376.533238 
L 481.095673 374.28506 
L 487.268997 371.70405 
L 493.442321 371.554049 
L 499.615645 366.697357 
L 505.788969 365.342129 
L 511.962293 364.344957 
L 518.135618 366.263331 
L 524.308942 363.168754 
L 530.482266 359.763412 
L 536.65559 360.527734 
L 542.828914 359.454118 
L 549.002238 355.654534 
L 555.175562 355.007166 
L 561.348887 350.583203 
L 567.522211 351.186298 
L 573.695535 349.243574 
L 579.868859 348.805838 
L 586.042183 345.197738 
L 592.215507 340.093038 
L 598.388831 338.237756 
L 604.562156 337.15232 
L 610.73548 335.670925 
L 616.908804 333.670753 
L 623.082128 329.849874 
L 629.255452 327.985285 
L 635.428776 325.856196 
L 641.602101 324.442797 
L 647.775425 323.330862 
L 653.948749 316.770735 
L 660.122073 313.208711 
L 666.295397 309.926093 
L 672.468721 308.201466 
L 678.642045 305.798636 
" clip-path="url(#p7f9d586097)" style="fill: none; stroke: #d62728; stroke-width: 1.5; stroke-linecap: square"/>
   </g>
   <g id="line2d_41">
    <path d="M 67.482955 519.81874 
L 73.656279 518.261732 
L 79.829603 514.466421 
L 86.002927 513.983235 
L 92.176251 512.545021 
L 98.349575 511.940578 
L 104.522899 511.046682 
L 110.696224 510.787505 
L 116.869548 509.180966 
L 123.042872 510.434525 
L 129.216196 508.444647 
L 135.38952 505.986255 
L 141.562844 504.033436 
L 147.736169 501.967176 
L 153.909493 500.960006 
L 160.082817 497.682735 
L 166.256141 495.507998 
L 172.429465 492.815507 
L 178.602789 491.434641 
L 184.776113 489.42509 
L 190.949438 487.76342 
L 197.122762 484.566108 
L 203.296086 485.057832 
L 209.46941 483.005404 
L 215.642734 482.584688 
L 221.816058 479.959619 
L 227.989382 478.550692 
L 234.162707 480.820501 
L 240.336031 476.170178 
L 246.509355 471.880975 
L 252.682679 467.161272 
L 258.856003 464.158224 
L 265.029327 467.093493 
L 271.202652 467.005586 
L 277.375976 466.007043 
L 283.5493 466.7639 
L 289.722624 466.544183 
L 295.895948 466.371216 
L 302.069272 465.246394 
L 308.242596 463.658376 
L 314.415921 461.802015 
L 320.589245 461.16805 
L 326.762569 461.853231 
L 332.935893 462.282566 
L 339.109217 462.20435 
L 345.282541 462.214746 
L 351.455865 462.04047 
L 357.62919 459.402123 
L 363.802514 458.43437 
L 369.975838 457.024155 
L 376.149162 455.52956 
L 382.322486 456.228252 
L 388.49581 455.550803 
L 394.669135 453.726759 
L 400.842459 455.400412 
L 407.015783 452.766788 
L 413.189107 446.668343 
L 419.362431 444.674116 
L 425.535755 440.189893 
L 431.709079 439.268866 
L 437.882404 438.367255 
L 444.055728 436.595417 
L 450.229052 436.230693 
L 456.402376 434.723466 
L 462.5757 431.164789 
L 468.749024 429.554935 
L 474.922348 428.949632 
L 481.095673 428.960326 
L 487.268997 426.71184 
L 493.442321 425.260853 
L 499.615645 426.00749 
L 505.788969 422.592843 
L 511.962293 420.554911 
L 518.135618 420.962591 
L 524.308942 417.96264 
L 530.482266 417.638769 
L 536.65559 417.369342 
L 542.828914 416.592558 
L 549.002238 416.862789 
L 555.175562 413.751987 
L 561.348887 410.962685 
L 567.522211 409.07361 
L 573.695535 404.695451 
L 579.868859 403.300378 
L 586.042183 401.779285 
L 592.215507 402.030422 
L 598.388831 399.523852 
L 604.562156 400.307408 
L 610.73548 398.496277 
L 616.908804 396.756091 
L 623.082128 396.219894 
L 629.255452 394.069804 
L 635.428776 392.733848 
L 641.602101 388.655106 
L 647.775425 387.734488 
L 653.948749 385.52782 
L 660.122073 383.774269 
L 666.295397 381.06469 
L 672.468721 380.537482 
L 678.642045 381.31556 
" clip-path="url(#p7f9d586097)" style="fill: none; stroke: #9467bd; stroke-width: 1.5; stroke-linecap: square"/>
   </g>
   <g id="line2d_42">
    <path d="M 67.482955 519.296742 
L 73.656279 517.408234 
L 79.829603 516.233534 
L 86.002927 514.633245 
L 92.176251 514.719485 
L 98.349575 507.25186 
L 104.522899 504.21187 
L 110.696224 503.839015 
L 116.869548 506.613958 
L 123.042872 505.997258 
L 129.216196 507.598677 
L 135.38952 504.987854 
L 141.562844 501.871642 
L 147.736169 498.418947 
L 153.909493 497.036683 
L 160.082817 497.082439 
L 166.256141 496.155175 
L 172.429465 495.44246 
L 178.602789 495.194547 
L 184.776113 494.689379 
L 190.949438 491.395009 
L 197.122762 488.731515 
L 203.296086 487.135012 
L 209.46941 484.136543 
L 215.642734 483.777049 
L 221.816058 483.715164 
L 227.989382 485.66739 
L 234.162707 484.762102 
L 240.336031 482.462605 
L 246.509355 481.880689 
L 252.682679 484.445982 
L 258.856003 483.028462 
L 265.029327 481.831893 
L 271.202652 480.130075 
L 277.375976 477.690358 
L 283.5493 475.09036 
L 289.722624 473.773594 
L 295.895948 470.085947 
L 302.069272 466.649058 
L 308.242596 464.24502 
L 314.415921 462.101661 
L 320.589245 462.273038 
L 326.762569 459.298259 
L 332.935893 458.002427 
L 339.109217 458.6292 
L 345.282541 456.845112 
L 351.455865 456.925475 
L 357.62919 455.769424 
L 363.802514 455.875757 
L 369.975838 453.579015 
L 376.149162 452.14268 
L 382.322486 450.295075 
L 388.49581 448.800814 
L 394.669135 446.25984 
L 400.842459 443.47982 
L 407.015783 440.734981 
L 413.189107 436.364623 
L 419.362431 433.557116 
L 425.535755 431.372473 
L 431.709079 431.867009 
L 437.882404 432.18748 
L 444.055728 429.570844 
L 450.229052 426.508036 
L 456.402376 419.141789 
L 462.5757 415.945662 
L 468.749024 414.692155 
L 474.922348 414.015516 
L 481.095673 410.978798 
L 487.268997 409.488503 
L 493.442321 406.831716 
L 499.615645 404.620113 
L 505.788969 399.562728 
L 511.962293 396.975527 
L 518.135618 397.932509 
L 524.308942 396.20962 
L 530.482266 395.606362 
L 536.65559 394.154788 
L 542.828914 389.163939 
L 549.002238 385.447432 
L 555.175562 380.628995 
L 561.348887 378.165105 
L 567.522211 379.465337 
L 573.695535 381.434832 
L 579.868859 378.963649 
L 586.042183 375.383618 
L 592.215507 372.289378 
L 598.388831 371.210965 
L 604.562156 368.983399 
L 610.73548 366.048302 
L 616.908804 364.16241 
L 623.082128 363.142386 
L 629.255452 359.119408 
L 635.428776 358.257704 
L 641.602101 358.155098 
L 647.775425 356.532686 
L 653.948749 357.481429 
L 660.122073 354.375424 
L 666.295397 351.963843 
L 672.468721 349.553044 
L 678.642045 345.84748 
" clip-path="url(#p7f9d586097)" style="fill: none; stroke: #8c564b; stroke-width: 1.5; stroke-linecap: square"/>
   </g>
   <g id="line2d_43">
    <path d="M 67.482955 520.726632 
L 73.656279 520.640165 
L 79.829603 516.985851 
L 86.002927 510.746673 
L 92.176251 508.522052 
L 98.349575 504.785597 
L 104.522899 503.481911 
L 110.696224 501.175509 
L 116.869548 495.390219 
L 123.042872 492.340314 
L 129.216196 491.846334 
L 135.38952 490.662551 
L 141.562844 487.35133 
L 147.736169 484.591479 
L 153.909493 483.830941 
L 160.082817 478.828493 
L 166.256141 477.625084 
L 172.429465 473.977533 
L 178.602789 470.694469 
L 184.776113 469.217282 
L 190.949438 464.596882 
L 197.122762 460.490521 
L 203.296086 459.168425 
L 209.46941 457.313924 
L 215.642734 456.321302 
L 221.816058 455.365878 
L 227.989382 452.087664 
L 234.162707 450.122099 
L 240.336031 447.760686 
L 246.509355 446.998503 
L 252.682679 446.14761 
L 258.856003 443.316696 
L 265.029327 442.789903 
L 271.202652 439.202592 
L 277.375976 435.793291 
L 283.5493 434.280927 
L 289.722624 433.322137 
L 295.895948 434.329253 
L 302.069272 431.820483 
L 308.242596 433.664274 
L 314.415921 431.393342 
L 320.589245 430.621646 
L 326.762569 427.298789 
L 332.935893 426.776732 
L 339.109217 423.616258 
L 345.282541 423.872073 
L 351.455865 420.364925 
L 357.62919 418.106932 
L 363.802514 418.221433 
L 369.975838 418.056402 
L 376.149162 417.38023 
L 382.322486 416.676649 
L 388.49581 412.925905 
L 394.669135 414.509113 
L 400.842459 414.146559 
L 407.015783 412.028227 
L 413.189107 411.305681 
L 419.362431 408.065149 
L 425.535755 404.627823 
L 431.709079 402.910882 
L 437.882404 401.400229 
L 444.055728 400.536057 
L 450.229052 399.466005 
L 456.402376 398.988473 
L 462.5757 398.855136 
L 468.749024 398.410807 
L 474.922348 398.973182 
L 481.095673 397.456194 
L 487.268997 396.168538 
L 493.442321 395.367424 
L 499.615645 397.343776 
L 505.788969 396.256334 
L 511.962293 394.202463 
L 518.135618 394.070253 
L 524.308942 390.129043 
L 530.482266 385.64732 
L 536.65559 384.193731 
L 542.828914 382.126571 
L 549.002238 382.658532 
L 555.175562 381.330351 
L 561.348887 379.953596 
L 567.522211 375.479271 
L 573.695535 376.099214 
L 579.868859 375.479768 
L 586.042183 372.762149 
L 592.215507 372.102648 
L 598.388831 369.182378 
L 604.562156 367.46747 
L 610.73548 360.647777 
L 616.908804 360.357786 
L 623.082128 354.186456 
L 629.255452 352.448837 
L 635.428776 349.589475 
L 641.602101 349.745148 
L 647.775425 346.402568 
L 653.948749 345.237327 
L 660.122073 344.752601 
L 666.295397 341.702119 
L 672.468721 340.322607 
L 678.642045 336.67535 
" clip-path="url(#p7f9d586097)" style="fill: none; stroke: #e377c2; stroke-width: 1.5; stroke-linecap: square"/>
   </g>
   <g id="line2d_44">
    <path d="M 67.482955 520.432879 
L 73.656279 516.837764 
L 79.829603 515.63152 
L 86.002927 512.834463 
L 92.176251 512.691077 
L 98.349575 510.695216 
L 104.522899 510.891249 
L 110.696224 510.515738 
L 116.869548 509.122991 
L 123.042872 506.590526 
L 129.216196 502.073012 
L 135.38952 500.340989 
L 141.562844 499.629419 
L 147.736169 496.176615 
L 153.909493 494.306078 
L 160.082817 495.155886 
L 166.256141 495.634928 
L 172.429465 493.302513 
L 178.602789 491.46238 
L 184.776113 490.215503 
L 190.949438 487.229994 
L 197.122762 484.037478 
L 203.296086 481.494988 
L 209.46941 481.489943 
L 215.642734 480.625884 
L 221.816058 476.957 
L 227.989382 474.343275 
L 234.162707 472.884099 
L 240.336031 469.939136 
L 246.509355 468.739768 
L 252.682679 465.908711 
L 258.856003 466.156425 
L 265.029327 462.564289 
L 271.202652 460.963354 
L 277.375976 456.8595 
L 283.5493 455.775733 
L 289.722624 453.071852 
L 295.895948 452.273188 
L 302.069272 449.447802 
L 308.242596 447.400127 
L 314.415921 444.787265 
L 320.589245 442.39289 
L 326.762569 438.825333 
L 332.935893 435.64997 
L 339.109217 435.197276 
L 345.282541 434.038143 
L 351.455865 431.677512 
L 357.62919 430.511268 
L 363.802514 426.842347 
L 369.975838 424.027343 
L 376.149162 422.833608 
L 382.322486 420.752724 
L 388.49581 418.601597 
L 394.669135 417.332577 
L 400.842459 414.477421 
L 407.015783 412.951943 
L 413.189107 411.062729 
L 419.362431 407.714379 
L 425.535755 404.879775 
L 431.709079 401.727535 
L 437.882404 401.062826 
L 444.055728 398.960423 
L 450.229052 397.520606 
L 456.402376 397.872927 
L 462.5757 398.7997 
L 468.749024 398.748898 
L 474.922348 396.571691 
L 481.095673 397.257417 
L 487.268997 397.615111 
L 493.442321 397.744407 
L 499.615645 395.102059 
L 505.788969 390.287322 
L 511.962293 389.524892 
L 518.135618 387.80605 
L 524.308942 386.412326 
L 530.482266 388.286818 
L 536.65559 385.700845 
L 542.828914 383.569796 
L 549.002238 380.967561 
L 555.175562 380.563545 
L 561.348887 377.763786 
L 567.522211 377.296444 
L 573.695535 377.256176 
L 579.868859 374.343246 
L 586.042183 370.915096 
L 592.215507 367.476908 
L 598.388831 365.707786 
L 604.562156 366.171768 
L 610.73548 364.221518 
L 616.908804 359.89977 
L 623.082128 356.440411 
L 629.255452 356.374639 
L 635.428776 353.675261 
L 641.602101 352.057015 
L 647.775425 349.99755 
L 653.948749 345.60815 
L 660.122073 345.62117 
L 666.295397 347.035202 
L 672.468721 344.674064 
L 678.642045 342.665532 
" clip-path="url(#p7f9d586097)" style="fill: none; stroke: #7f7f7f; stroke-width: 1.5; stroke-linecap: square"/>
   </g>
   <g id="line2d_45">
    <path d="M 67.482955 523.171364 
L 73.656279 520.107708 
L 79.829603 515.674749 
L 86.002927 517.284392 
L 92.176251 513.010877 
L 98.349575 508.965868 
L 104.522899 508.740219 
L 110.696224 506.166344 
L 116.869548 500.774598 
L 123.042872 499.62934 
L 129.216196 499.105461 
L 135.38952 499.267092 
L 141.562844 499.199124 
L 147.736169 496.450336 
L 153.909493 494.301136 
L 160.082817 494.679357 
L 166.256141 493.38333 
L 172.429465 492.909838 
L 178.602789 491.322987 
L 184.776113 487.036586 
L 190.949438 487.294429 
L 197.122762 483.167532 
L 203.296086 484.704911 
L 209.46941 480.739495 
L 215.642734 481.121824 
L 221.816058 477.740524 
L 227.989382 475.102913 
L 234.162707 470.898776 
L 240.336031 470.31285 
L 246.509355 468.618357 
L 252.682679 465.981844 
L 258.856003 462.803602 
L 265.029327 459.933149 
L 271.202652 455.900577 
L 277.375976 450.009354 
L 283.5493 448.028154 
L 289.722624 446.081829 
L 295.895948 446.381446 
L 302.069272 444.304004 
L 308.242596 442.067622 
L 314.415921 439.406446 
L 320.589245 437.731172 
L 326.762569 436.126914 
L 332.935893 432.490189 
L 339.109217 425.519151 
L 345.282541 422.596883 
L 351.455865 422.580717 
L 357.62919 423.072025 
L 363.802514 420.866692 
L 369.975838 417.601443 
L 376.149162 419.076075 
L 382.322486 415.167783 
L 388.49581 412.163314 
L 394.669135 407.852861 
L 400.842459 405.382143 
L 407.015783 403.511155 
L 413.189107 402.418421 
L 419.362431 402.867539 
L 425.535755 399.405634 
L 431.709079 399.14564 
L 437.882404 397.80518 
L 444.055728 395.955628 
L 450.229052 393.591318 
L 456.402376 392.19695 
L 462.5757 390.364781 
L 468.749024 389.686379 
L 474.922348 387.415922 
L 481.095673 384.420282 
L 487.268997 382.814386 
L 493.442321 383.682286 
L 499.615645 382.900456 
L 505.788969 379.368846 
L 511.962293 376.450326 
L 518.135618 373.748872 
L 524.308942 376.244185 
L 530.482266 376.52264 
L 536.65559 373.486607 
L 542.828914 370.628698 
L 549.002238 367.886394 
L 555.175562 365.183021 
L 561.348887 360.429457 
L 567.522211 357.008662 
L 573.695535 355.2111 
L 579.868859 352.36404 
L 586.042183 349.677855 
L 592.215507 350.14832 
L 598.388831 346.472623 
L 604.562156 347.663049 
L 610.73548 347.614018 
L 616.908804 344.478712 
L 623.082128 342.677709 
L 629.255452 341.872562 
L 635.428776 340.470044 
L 641.602101 339.093509 
L 647.775425 337.65204 
L 653.948749 337.854365 
L 660.122073 336.666335 
L 666.295397 338.291968 
L 672.468721 337.980724 
L 678.642045 339.852685 
" clip-path="url(#p7f9d586097)" style="fill: none; stroke: #bcbd22; stroke-width: 1.5; stroke-linecap: square"/>
   </g>
   <g id="line2d_46">
    <path d="M 67.482955 518.037878 
L 73.656279 517.633163 
L 79.829603 515.75613 
L 86.002927 511.237526 
L 92.176251 508.123387 
L 98.349575 502.599809 
L 104.522899 502.462001 
L 110.696224 501.552998 
L 116.869548 500.234233 
L 123.042872 497.859176 
L 129.216196 496.320963 
L 135.38952 495.360604 
L 141.562844 494.924316 
L 147.736169 493.862978 
L 153.909493 490.878718 
L 160.082817 488.589847 
L 166.256141 485.60775 
L 172.429465 485.839744 
L 178.602789 483.849647 
L 184.776113 480.928403 
L 190.949438 482.957967 
L 197.122762 481.734042 
L 203.296086 481.244833 
L 209.46941 481.374785 
L 215.642734 479.490422 
L 221.816058 477.863659 
L 227.989382 477.445539 
L 234.162707 476.010563 
L 240.336031 472.679734 
L 246.509355 474.380849 
L 252.682679 471.912939 
L 258.856003 471.919653 
L 265.029327 472.093714 
L 271.202652 471.003547 
L 277.375976 470.238634 
L 283.5493 467.757325 
L 289.722624 463.000945 
L 295.895948 460.61966 
L 302.069272 459.048618 
L 308.242596 457.073237 
L 314.415921 452.139738 
L 320.589245 449.584313 
L 326.762569 446.288147 
L 332.935893 444.444852 
L 339.109217 441.545375 
L 345.282541 437.471879 
L 351.455865 433.768323 
L 357.62919 430.709576 
L 363.802514 427.720727 
L 369.975838 427.160276 
L 376.149162 424.436595 
L 382.322486 422.274797 
L 388.49581 419.922442 
L 394.669135 416.213103 
L 400.842459 414.702368 
L 407.015783 413.008439 
L 413.189107 408.534438 
L 419.362431 407.322764 
L 425.535755 407.910693 
L 431.709079 406.477654 
L 437.882404 406.940319 
L 444.055728 407.010848 
L 450.229052 403.898997 
L 456.402376 399.629884 
L 462.5757 396.564739 
L 468.749024 392.634275 
L 474.922348 389.934382 
L 481.095673 388.394607 
L 487.268997 382.572488 
L 493.442321 380.067227 
L 499.615645 378.678851 
L 505.788969 377.271858 
L 511.962293 374.93999 
L 518.135618 372.790078 
L 524.308942 368.977638 
L 530.482266 367.636335 
L 536.65559 364.434647 
L 542.828914 361.33018 
L 549.002238 362.845474 
L 555.175562 360.586632 
L 561.348887 360.136347 
L 567.522211 361.459268 
L 573.695535 360.633554 
L 579.868859 358.568959 
L 586.042183 357.334264 
L 592.215507 357.036298 
L 598.388831 350.351458 
L 604.562156 347.378247 
L 610.73548 344.575398 
L 616.908804 344.391606 
L 623.082128 340.605225 
L 629.255452 342.009573 
L 635.428776 340.80461 
L 641.602101 339.406407 
L 647.775425 335.746529 
L 653.948749 334.426003 
L 660.122073 334.529496 
L 666.295397 335.752937 
L 672.468721 331.303826 
L 678.642045 327.855078 
" clip-path="url(#p7f9d586097)" style="fill: none; stroke: #17becf; stroke-width: 1.5; stroke-linecap: square"/>
   </g>
   <g id="patch_9">
    <path d="M 36.925 534.04 
L 36.925 294.93 
" style="fill: none; stroke: #000000; stroke-width: 0.8; stroke-linejoin: miter; stroke-linecap: square"/>
   </g>
   <g id="patch_10">
    <path d="M 709.2 534.04 
L 709.2 294.93 
" style="fill: none; stroke: #000000; stroke-width: 0.8; stroke-linejoin: miter; stroke-linecap: square"/>
   </g>
   <g id="patch_11">
    <path d="M 36.925 534.04 
L 709.2 534.04 
" style="fill: none; stroke: #000000; stroke-width: 0.8; stroke-linejoin: miter; stroke-linecap: square"/>
   </g>
   <g id="patch_12">
    <path d="M 36.925 294.93 
L 709.2 294.93 
" style="fill: none; stroke: #000000; stroke-width: 0.8; stroke-linejoin: miter; stroke-linecap: square"/>
   </g>
   <g id="text_22">
    <!-- 20 Realizations of AR(1) Process with ϕ=1 -->
    <g transform="translate(247.094375 288.93) scale(0.12 -0.12)">
     <use xlink:href="#DejaVuSans-32"/>
     <use xlink:href="#DejaVuSans-30" x="63.623047"/>
     <use xlink:href="#DejaVuSans-20" x="127.246094"/>
     <use xlink:href="#DejaVuSans-52" x="159.033203"/>
     <use xlink:href="#DejaVuSans-65" x="224.015625"/>
     <use xlink:href="#DejaVuSans-61" x="285.539062"/>
     <use xlink:href="#DejaVuSans-6c" x="346.818359"/>
     <use xlink:href="#DejaVuSans-69" x="374.601562"/>
     <use xlink:href="#DejaVuSans-7a" x="402.384766"/>
     <use xlink:href="#DejaVuSans-61" x="454.875"/>
     <use xlink:href="#DejaVuSans-74" x="516.154297"/>
     <use xlink:href="#DejaVuSans-69" x="555.363281"/>
     <use xlink:href="#DejaVuSans-6f" x="583.146484"/>
     <use xlink:href="#DejaVuSans-6e" x="644.328125"/>
     <use xlink:href="#DejaVuSans-73" x="707.707031"/>
     <use xlink:href="#DejaVuSans-20" x="759.806641"/>
     <use xlink:href="#DejaVuSans-6f" x="791.59375"/>
     <use xlink:href="#DejaVuSans-66" x="852.775391"/>
     <use xlink:href="#DejaVuSans-20" x="887.980469"/>
     <use xlink:href="#DejaVuSans-41" x="919.767578"/>
     <use xlink:href="#DejaVuSans-52" x="988.175781"/>
     <use xlink:href="#DejaVuSans-28" x="1057.658203"/>
     <use xlink:href="#DejaVuSans-31" x="1096.671875"/>
     <use xlink:href="#DejaVuSans-29" x="1160.294922"/>
     <use xlink:href="#DejaVuSans-20" x="1199.308594"/>
     <use xlink:href="#DejaVuSans-50" x="1231.095703"/>
     <use xlink:href="#DejaVuSans-72" x="1289.648438"/>
     <use xlink:href="#DejaVuSans-6f" x="1328.511719"/>
     <use xlink:href="#DejaVuSans-63" x="1389.693359"/>
     <use xlink:href="#DejaVuSans-65" x="1444.673828"/>
     <use xlink:href="#DejaVuSans-73" x="1506.197266"/>
     <use xlink:href="#DejaVuSans-73" x="1558.296875"/>
     <use xlink:href="#DejaVuSans-20" x="1610.396484"/>
     <use xlink:href="#DejaVuSans-77" x="1642.183594"/>
     <use xlink:href="#DejaVuSans-69" x="1723.970703"/>
     <use xlink:href="#DejaVuSans-74" x="1751.753906"/>
     <use xlink:href="#DejaVuSans-68" x="1790.962891"/>
     <use xlink:href="#DejaVuSans-20" x="1854.341797"/>
     <use xlink:href="#DejaVuSans-3d5" x="1886.128906"/>
     <use xlink:href="#DejaVuSans-3d" x="1952.095703"/>
     <use xlink:href="#DejaVuSans-31" x="2035.884766"/>
    </g>
   </g>
  </g>
 </g>
 <defs>
  <clipPath id="p43c5b1acd9">
   <rect x="36.925" y="26.16" width="672.275" height="239.11"/>
  </clipPath>
  <clipPath id="p7f9d586097">
   <rect x="36.925" y="294.93" width="672.275" height="239.11"/>
  </clipPath>
 </defs>
</svg>
