<?xml version="1.0" encoding="utf-8" standalone="no"?>
<!DOCTYPE svg PUBLIC "-//W3C//DTD SVG 1.1//EN"
  "http://www.w3.org/Graphics/SVG/1.1/DTD/svg11.dtd">
<svg xmlns:xlink="http://www.w3.org/1999/xlink" width="864pt" height="576pt" viewBox="0 0 864 576" xmlns="http://www.w3.org/2000/svg" version="1.1">
 <metadata>
  <rdf:RDF xmlns:dc="http://purl.org/dc/elements/1.1/" xmlns:cc="http://creativecommons.org/ns#" xmlns:rdf="http://www.w3.org/1999/02/22-rdf-syntax-ns#">
   <cc:Work>
    <dc:type rdf:resource="http://purl.org/dc/dcmitype/StillImage"/>
    <dc:date>2024-02-20T02:47:22.523913</dc:date>
    <dc:format>image/svg+xml</dc:format>
    <dc:creator>
     <cc:Agent>
      <dc:title>Matplotlib v3.8.2, https://matplotlib.org/</dc:title>
     </cc:Agent>
    </dc:creator>
   </cc:Work>
  </rdf:RDF>
 </metadata>
 <defs>
  <style type="text/css">*{stroke-linejoin: round; stroke-linecap: butt}</style>
 </defs>
 <g id="figure_1">
  <g id="patch_1">
   <path d="M 0 576 
L 864 576 
L 864 0 
L 0 0 
z
" style="fill: #ffffff"/>
  </g>
  <g id="axes_1">
   <g id="patch_2">
    <path d="M 108 512.64 
L 777.6 512.64 
L 777.6 69.12 
L 108 69.12 
z
" style="fill: #ffffff"/>
   </g>
   <g id="matplotlib.axis_1">
    <g id="xtick_1">
     <g id="line2d_1">
      <defs>
       <path id="m60eb44896c" d="M 0 0 
L 0 3.5 
" style="stroke: #000000; stroke-width: 0.8"/>
      </defs>
      <g>
       <use xlink:href="#m60eb44896c" x="138.436364" y="512.64" style="stroke: #000000; stroke-width: 0.8"/>
      </g>
     </g>
     <g id="text_1">
      <!-- 2010 -->
      <g transform="translate(125.711364 527.238438) scale(0.1 -0.1)">
       <defs>
        <path id="DejaVuSans-32" d="M 1228 531 
L 3431 531 
L 3431 0 
L 469 0 
L 469 531 
Q 828 903 1448 1529 
Q 2069 2156 2228 2338 
Q 2531 2678 2651 2914 
Q 2772 3150 2772 3378 
Q 2772 3750 2511 3984 
Q 2250 4219 1831 4219 
Q 1534 4219 1204 4116 
Q 875 4013 500 3803 
L 500 4441 
Q 881 4594 1212 4672 
Q 1544 4750 1819 4750 
Q 2544 4750 2975 4387 
Q 3406 4025 3406 3419 
Q 3406 3131 3298 2873 
Q 3191 2616 2906 2266 
Q 2828 2175 2409 1742 
Q 1991 1309 1228 531 
z
" transform="scale(0.015625)"/>
        <path id="DejaVuSans-30" d="M 2034 4250 
Q 1547 4250 1301 3770 
Q 1056 3291 1056 2328 
Q 1056 1369 1301 889 
Q 1547 409 2034 409 
Q 2525 409 2770 889 
Q 3016 1369 3016 2328 
Q 3016 3291 2770 3770 
Q 2525 4250 2034 4250 
z
M 2034 4750 
Q 2819 4750 3233 4129 
Q 3647 3509 3647 2328 
Q 3647 1150 3233 529 
Q 2819 -91 2034 -91 
Q 1250 -91 836 529 
Q 422 1150 422 2328 
Q 422 3509 836 4129 
Q 1250 4750 2034 4750 
z
" transform="scale(0.015625)"/>
        <path id="DejaVuSans-31" d="M 794 531 
L 1825 531 
L 1825 4091 
L 703 3866 
L 703 4441 
L 1819 4666 
L 2450 4666 
L 2450 531 
L 3481 531 
L 3481 0 
L 794 0 
L 794 531 
z
" transform="scale(0.015625)"/>
       </defs>
       <use xlink:href="#DejaVuSans-32"/>
       <use xlink:href="#DejaVuSans-30" x="63.623047"/>
       <use xlink:href="#DejaVuSans-31" x="127.246094"/>
       <use xlink:href="#DejaVuSans-30" x="190.869141"/>
      </g>
     </g>
    </g>
    <g id="xtick_2">
     <g id="line2d_2">
      <g>
       <use xlink:href="#m60eb44896c" x="212.203115" y="512.64" style="stroke: #000000; stroke-width: 0.8"/>
      </g>
     </g>
     <g id="text_2">
      <!-- 2011 -->
      <g transform="translate(199.478115 527.238438) scale(0.1 -0.1)">
       <use xlink:href="#DejaVuSans-32"/>
       <use xlink:href="#DejaVuSans-30" x="63.623047"/>
       <use xlink:href="#DejaVuSans-31" x="127.246094"/>
       <use xlink:href="#DejaVuSans-31" x="190.869141"/>
      </g>
     </g>
    </g>
    <g id="xtick_3">
     <g id="line2d_3">
      <g>
       <use xlink:href="#m60eb44896c" x="285.969866" y="512.64" style="stroke: #000000; stroke-width: 0.8"/>
      </g>
     </g>
     <g id="text_3">
      <!-- 2012 -->
      <g transform="translate(273.244866 527.238438) scale(0.1 -0.1)">
       <use xlink:href="#DejaVuSans-32"/>
       <use xlink:href="#DejaVuSans-30" x="63.623047"/>
       <use xlink:href="#DejaVuSans-31" x="127.246094"/>
       <use xlink:href="#DejaVuSans-32" x="190.869141"/>
      </g>
     </g>
    </g>
    <g id="xtick_4">
     <g id="line2d_4">
      <g>
       <use xlink:href="#m60eb44896c" x="359.938718" y="512.64" style="stroke: #000000; stroke-width: 0.8"/>
      </g>
     </g>
     <g id="text_4">
      <!-- 2013 -->
      <g transform="translate(347.213718 527.238438) scale(0.1 -0.1)">
       <defs>
        <path id="DejaVuSans-33" d="M 2597 2516 
Q 3050 2419 3304 2112 
Q 3559 1806 3559 1356 
Q 3559 666 3084 287 
Q 2609 -91 1734 -91 
Q 1441 -91 1130 -33 
Q 819 25 488 141 
L 488 750 
Q 750 597 1062 519 
Q 1375 441 1716 441 
Q 2309 441 2620 675 
Q 2931 909 2931 1356 
Q 2931 1769 2642 2001 
Q 2353 2234 1838 2234 
L 1294 2234 
L 1294 2753 
L 1863 2753 
Q 2328 2753 2575 2939 
Q 2822 3125 2822 3475 
Q 2822 3834 2567 4026 
Q 2313 4219 1838 4219 
Q 1578 4219 1281 4162 
Q 984 4106 628 3988 
L 628 4550 
Q 988 4650 1302 4700 
Q 1616 4750 1894 4750 
Q 2613 4750 3031 4423 
Q 3450 4097 3450 3541 
Q 3450 3153 3228 2886 
Q 3006 2619 2597 2516 
z
" transform="scale(0.015625)"/>
       </defs>
       <use xlink:href="#DejaVuSans-32"/>
       <use xlink:href="#DejaVuSans-30" x="63.623047"/>
       <use xlink:href="#DejaVuSans-31" x="127.246094"/>
       <use xlink:href="#DejaVuSans-33" x="190.869141"/>
      </g>
     </g>
    </g>
    <g id="xtick_5">
     <g id="line2d_5">
      <g>
       <use xlink:href="#m60eb44896c" x="433.705469" y="512.64" style="stroke: #000000; stroke-width: 0.8"/>
      </g>
     </g>
     <g id="text_5">
      <!-- 2014 -->
      <g transform="translate(420.980469 527.238438) scale(0.1 -0.1)">
       <defs>
        <path id="DejaVuSans-34" d="M 2419 4116 
L 825 1625 
L 2419 1625 
L 2419 4116 
z
M 2253 4666 
L 3047 4666 
L 3047 1625 
L 3713 1625 
L 3713 1100 
L 3047 1100 
L 3047 0 
L 2419 0 
L 2419 1100 
L 313 1100 
L 313 1709 
L 2253 4666 
z
" transform="scale(0.015625)"/>
       </defs>
       <use xlink:href="#DejaVuSans-32"/>
       <use xlink:href="#DejaVuSans-30" x="63.623047"/>
       <use xlink:href="#DejaVuSans-31" x="127.246094"/>
       <use xlink:href="#DejaVuSans-34" x="190.869141"/>
      </g>
     </g>
    </g>
    <g id="xtick_6">
     <g id="line2d_6">
      <g>
       <use xlink:href="#m60eb44896c" x="507.47222" y="512.64" style="stroke: #000000; stroke-width: 0.8"/>
      </g>
     </g>
     <g id="text_6">
      <!-- 2015 -->
      <g transform="translate(494.74722 527.238438) scale(0.1 -0.1)">
       <defs>
        <path id="DejaVuSans-35" d="M 691 4666 
L 3169 4666 
L 3169 4134 
L 1269 4134 
L 1269 2991 
Q 1406 3038 1543 3061 
Q 1681 3084 1819 3084 
Q 2600 3084 3056 2656 
Q 3513 2228 3513 1497 
Q 3513 744 3044 326 
Q 2575 -91 1722 -91 
Q 1428 -91 1123 -41 
Q 819 9 494 109 
L 494 744 
Q 775 591 1075 516 
Q 1375 441 1709 441 
Q 2250 441 2565 725 
Q 2881 1009 2881 1497 
Q 2881 1984 2565 2268 
Q 2250 2553 1709 2553 
Q 1456 2553 1204 2497 
Q 953 2441 691 2322 
L 691 4666 
z
" transform="scale(0.015625)"/>
       </defs>
       <use xlink:href="#DejaVuSans-32"/>
       <use xlink:href="#DejaVuSans-30" x="63.623047"/>
       <use xlink:href="#DejaVuSans-31" x="127.246094"/>
       <use xlink:href="#DejaVuSans-35" x="190.869141"/>
      </g>
     </g>
    </g>
    <g id="xtick_7">
     <g id="line2d_7">
      <g>
       <use xlink:href="#m60eb44896c" x="581.238971" y="512.64" style="stroke: #000000; stroke-width: 0.8"/>
      </g>
     </g>
     <g id="text_7">
      <!-- 2016 -->
      <g transform="translate(568.513971 527.238438) scale(0.1 -0.1)">
       <defs>
        <path id="DejaVuSans-36" d="M 2113 2584 
Q 1688 2584 1439 2293 
Q 1191 2003 1191 1497 
Q 1191 994 1439 701 
Q 1688 409 2113 409 
Q 2538 409 2786 701 
Q 3034 994 3034 1497 
Q 3034 2003 2786 2293 
Q 2538 2584 2113 2584 
z
M 3366 4563 
L 3366 3988 
Q 3128 4100 2886 4159 
Q 2644 4219 2406 4219 
Q 1781 4219 1451 3797 
Q 1122 3375 1075 2522 
Q 1259 2794 1537 2939 
Q 1816 3084 2150 3084 
Q 2853 3084 3261 2657 
Q 3669 2231 3669 1497 
Q 3669 778 3244 343 
Q 2819 -91 2113 -91 
Q 1303 -91 875 529 
Q 447 1150 447 2328 
Q 447 3434 972 4092 
Q 1497 4750 2381 4750 
Q 2619 4750 2861 4703 
Q 3103 4656 3366 4563 
z
" transform="scale(0.015625)"/>
       </defs>
       <use xlink:href="#DejaVuSans-32"/>
       <use xlink:href="#DejaVuSans-30" x="63.623047"/>
       <use xlink:href="#DejaVuSans-31" x="127.246094"/>
       <use xlink:href="#DejaVuSans-36" x="190.869141"/>
      </g>
     </g>
    </g>
    <g id="xtick_8">
     <g id="line2d_8">
      <g>
       <use xlink:href="#m60eb44896c" x="655.207823" y="512.64" style="stroke: #000000; stroke-width: 0.8"/>
      </g>
     </g>
     <g id="text_8">
      <!-- 2017 -->
      <g transform="translate(642.482823 527.238438) scale(0.1 -0.1)">
       <defs>
        <path id="DejaVuSans-37" d="M 525 4666 
L 3525 4666 
L 3525 4397 
L 1831 0 
L 1172 0 
L 2766 4134 
L 525 4134 
L 525 4666 
z
" transform="scale(0.015625)"/>
       </defs>
       <use xlink:href="#DejaVuSans-32"/>
       <use xlink:href="#DejaVuSans-30" x="63.623047"/>
       <use xlink:href="#DejaVuSans-31" x="127.246094"/>
       <use xlink:href="#DejaVuSans-37" x="190.869141"/>
      </g>
     </g>
    </g>
    <g id="xtick_9">
     <g id="line2d_9">
      <g>
       <use xlink:href="#m60eb44896c" x="728.974574" y="512.64" style="stroke: #000000; stroke-width: 0.8"/>
      </g>
     </g>
     <g id="text_9">
      <!-- 2018 -->
      <g transform="translate(716.249574 527.238438) scale(0.1 -0.1)">
       <defs>
        <path id="DejaVuSans-38" d="M 2034 2216 
Q 1584 2216 1326 1975 
Q 1069 1734 1069 1313 
Q 1069 891 1326 650 
Q 1584 409 2034 409 
Q 2484 409 2743 651 
Q 3003 894 3003 1313 
Q 3003 1734 2745 1975 
Q 2488 2216 2034 2216 
z
M 1403 2484 
Q 997 2584 770 2862 
Q 544 3141 544 3541 
Q 544 4100 942 4425 
Q 1341 4750 2034 4750 
Q 2731 4750 3128 4425 
Q 3525 4100 3525 3541 
Q 3525 3141 3298 2862 
Q 3072 2584 2669 2484 
Q 3125 2378 3379 2068 
Q 3634 1759 3634 1313 
Q 3634 634 3220 271 
Q 2806 -91 2034 -91 
Q 1263 -91 848 271 
Q 434 634 434 1313 
Q 434 1759 690 2068 
Q 947 2378 1403 2484 
z
M 1172 3481 
Q 1172 3119 1398 2916 
Q 1625 2713 2034 2713 
Q 2441 2713 2670 2916 
Q 2900 3119 2900 3481 
Q 2900 3844 2670 4047 
Q 2441 4250 2034 4250 
Q 1625 4250 1398 4047 
Q 1172 3844 1172 3481 
z
" transform="scale(0.015625)"/>
       </defs>
       <use xlink:href="#DejaVuSans-32"/>
       <use xlink:href="#DejaVuSans-30" x="63.623047"/>
       <use xlink:href="#DejaVuSans-31" x="127.246094"/>
       <use xlink:href="#DejaVuSans-38" x="190.869141"/>
      </g>
     </g>
    </g>
    <g id="text_10">
     <!-- t -->
     <g transform="translate(440.839844 540.916563) scale(0.1 -0.1)">
      <defs>
       <path id="DejaVuSans-74" d="M 1172 4494 
L 1172 3500 
L 2356 3500 
L 2356 3053 
L 1172 3053 
L 1172 1153 
Q 1172 725 1289 603 
Q 1406 481 1766 481 
L 2356 481 
L 2356 0 
L 1766 0 
Q 1100 0 847 248 
Q 594 497 594 1153 
L 594 3053 
L 172 3053 
L 172 3500 
L 594 3500 
L 594 4494 
L 1172 4494 
z
" transform="scale(0.015625)"/>
      </defs>
      <use xlink:href="#DejaVuSans-74"/>
     </g>
    </g>
   </g>
   <g id="matplotlib.axis_2">
    <g id="ytick_1">
     <g id="line2d_10">
      <defs>
       <path id="m77acb51988" d="M 0 0 
L -3.5 0 
" style="stroke: #000000; stroke-width: 0.8"/>
      </defs>
      <g>
       <use xlink:href="#m77acb51988" x="108" y="493.061802" style="stroke: #000000; stroke-width: 0.8"/>
      </g>
     </g>
     <g id="text_11">
      <!-- 0 -->
      <g transform="translate(94.6375 496.86102) scale(0.1 -0.1)">
       <use xlink:href="#DejaVuSans-30"/>
      </g>
     </g>
    </g>
    <g id="ytick_2">
     <g id="line2d_11">
      <g>
       <use xlink:href="#m77acb51988" x="108" y="442.455896" style="stroke: #000000; stroke-width: 0.8"/>
      </g>
     </g>
     <g id="text_12">
      <!-- 10000 -->
      <g transform="translate(69.1875 446.255115) scale(0.1 -0.1)">
       <use xlink:href="#DejaVuSans-31"/>
       <use xlink:href="#DejaVuSans-30" x="63.623047"/>
       <use xlink:href="#DejaVuSans-30" x="127.246094"/>
       <use xlink:href="#DejaVuSans-30" x="190.869141"/>
       <use xlink:href="#DejaVuSans-30" x="254.492188"/>
      </g>
     </g>
    </g>
    <g id="ytick_3">
     <g id="line2d_12">
      <g>
       <use xlink:href="#m77acb51988" x="108" y="391.849991" style="stroke: #000000; stroke-width: 0.8"/>
      </g>
     </g>
     <g id="text_13">
      <!-- 20000 -->
      <g transform="translate(69.1875 395.64921) scale(0.1 -0.1)">
       <use xlink:href="#DejaVuSans-32"/>
       <use xlink:href="#DejaVuSans-30" x="63.623047"/>
       <use xlink:href="#DejaVuSans-30" x="127.246094"/>
       <use xlink:href="#DejaVuSans-30" x="190.869141"/>
       <use xlink:href="#DejaVuSans-30" x="254.492188"/>
      </g>
     </g>
    </g>
    <g id="ytick_4">
     <g id="line2d_13">
      <g>
       <use xlink:href="#m77acb51988" x="108" y="341.244085" style="stroke: #000000; stroke-width: 0.8"/>
      </g>
     </g>
     <g id="text_14">
      <!-- 30000 -->
      <g transform="translate(69.1875 345.043304) scale(0.1 -0.1)">
       <use xlink:href="#DejaVuSans-33"/>
       <use xlink:href="#DejaVuSans-30" x="63.623047"/>
       <use xlink:href="#DejaVuSans-30" x="127.246094"/>
       <use xlink:href="#DejaVuSans-30" x="190.869141"/>
       <use xlink:href="#DejaVuSans-30" x="254.492188"/>
      </g>
     </g>
    </g>
    <g id="ytick_5">
     <g id="line2d_14">
      <g>
       <use xlink:href="#m77acb51988" x="108" y="290.63818" style="stroke: #000000; stroke-width: 0.8"/>
      </g>
     </g>
     <g id="text_15">
      <!-- 40000 -->
      <g transform="translate(69.1875 294.437399) scale(0.1 -0.1)">
       <use xlink:href="#DejaVuSans-34"/>
       <use xlink:href="#DejaVuSans-30" x="63.623047"/>
       <use xlink:href="#DejaVuSans-30" x="127.246094"/>
       <use xlink:href="#DejaVuSans-30" x="190.869141"/>
       <use xlink:href="#DejaVuSans-30" x="254.492188"/>
      </g>
     </g>
    </g>
    <g id="ytick_6">
     <g id="line2d_15">
      <g>
       <use xlink:href="#m77acb51988" x="108" y="240.032275" style="stroke: #000000; stroke-width: 0.8"/>
      </g>
     </g>
     <g id="text_16">
      <!-- 50000 -->
      <g transform="translate(69.1875 243.831493) scale(0.1 -0.1)">
       <use xlink:href="#DejaVuSans-35"/>
       <use xlink:href="#DejaVuSans-30" x="63.623047"/>
       <use xlink:href="#DejaVuSans-30" x="127.246094"/>
       <use xlink:href="#DejaVuSans-30" x="190.869141"/>
       <use xlink:href="#DejaVuSans-30" x="254.492188"/>
      </g>
     </g>
    </g>
    <g id="ytick_7">
     <g id="line2d_16">
      <g>
       <use xlink:href="#m77acb51988" x="108" y="189.426369" style="stroke: #000000; stroke-width: 0.8"/>
      </g>
     </g>
     <g id="text_17">
      <!-- 60000 -->
      <g transform="translate(69.1875 193.225588) scale(0.1 -0.1)">
       <use xlink:href="#DejaVuSans-36"/>
       <use xlink:href="#DejaVuSans-30" x="63.623047"/>
       <use xlink:href="#DejaVuSans-30" x="127.246094"/>
       <use xlink:href="#DejaVuSans-30" x="190.869141"/>
       <use xlink:href="#DejaVuSans-30" x="254.492188"/>
      </g>
     </g>
    </g>
    <g id="ytick_8">
     <g id="line2d_17">
      <g>
       <use xlink:href="#m77acb51988" x="108" y="138.820464" style="stroke: #000000; stroke-width: 0.8"/>
      </g>
     </g>
     <g id="text_18">
      <!-- 70000 -->
      <g transform="translate(69.1875 142.619683) scale(0.1 -0.1)">
       <use xlink:href="#DejaVuSans-37"/>
       <use xlink:href="#DejaVuSans-30" x="63.623047"/>
       <use xlink:href="#DejaVuSans-30" x="127.246094"/>
       <use xlink:href="#DejaVuSans-30" x="190.869141"/>
       <use xlink:href="#DejaVuSans-30" x="254.492188"/>
      </g>
     </g>
    </g>
    <g id="ytick_9">
     <g id="line2d_18">
      <g>
       <use xlink:href="#m77acb51988" x="108" y="88.214558" style="stroke: #000000; stroke-width: 0.8"/>
      </g>
     </g>
     <g id="text_19">
      <!-- 80000 -->
      <g transform="translate(69.1875 92.013777) scale(0.1 -0.1)">
       <use xlink:href="#DejaVuSans-38"/>
       <use xlink:href="#DejaVuSans-30" x="63.623047"/>
       <use xlink:href="#DejaVuSans-30" x="127.246094"/>
       <use xlink:href="#DejaVuSans-30" x="190.869141"/>
       <use xlink:href="#DejaVuSans-30" x="254.492188"/>
      </g>
     </g>
    </g>
   </g>
   <g id="line2d_19">
    <path d="M 138.436364 492.48 
L 144.701485 491.504095 
L 150.360304 490.631385 
L 156.625426 488.690674 
L 162.688446 485.884671 
L 168.953568 482.143702 
L 175.016588 480.88167 
L 181.28171 473.958628 
L 187.546831 477.3082 
L 193.609852 477.7358 
L 199.874973 477.878612 
L 205.937993 479.522269 
L 212.203115 479.308407 
L 218.468236 475.342855 
L 224.127055 475.222551 
L 230.392177 468.799422 
L 236.455197 459.922392 
L 242.720319 449.892037 
L 248.783339 450.951452 
L 255.048461 433.202935 
L 261.313582 447.488268 
L 267.376603 452.083175 
L 273.641724 454.824163 
L 279.704745 460.875229 
L 285.969866 461.970833 
L 292.234987 454.431834 
L 298.095907 455.744537 
L 304.361029 444.150542 
L 310.424049 428.385044 
L 316.689171 411.35614 
L 322.752191 415.356176 
L 329.017313 385.123888 
L 335.282434 413.01022 
L 341.345455 422.483773 
L 347.610576 428.398605 
L 353.673597 439.573448 
L 359.938718 442.253299 
L 366.203839 431.092073 
L 371.862658 433.943804 
L 378.12778 416.691571 
L 384.1908 393.269443 
L 390.455922 368.604348 
L 396.518942 376.04874 
L 402.784064 332.503095 
L 409.049185 375.173344 
L 415.112206 390.036504 
L 421.377327 399.670508 
L 427.440348 416.283818 
L 433.705469 420.877357 
L 439.97059 405.681439 
L 445.62941 410.280697 
L 451.894531 387.083541 
L 457.957552 355.597027 
L 464.222673 322.649819 
L 470.285694 333.834994 
L 476.550815 275.947443 
L 482.815936 334.587665 
L 488.878957 355.377078 
L 495.144078 368.920549 
L 501.207099 391.604599 
L 507.47222 398.188243 
L 513.737342 378.616357 
L 519.396161 385.332837 
L 525.661282 355.712626 
L 531.724303 315.56231 
L 537.989424 274.036107 
L 544.052445 289.354672 
L 550.317566 216.319801 
L 556.582687 291.767239 
L 562.645708 318.904668 
L 568.910829 336.597178 
L 574.97385 365.619564 
L 581.238971 374.282483 
L 587.504093 350.19709 
L 593.365013 359.162214 
L 599.630134 322.68303 
L 605.693155 273.742462 
L 611.958276 223.273614 
L 618.021297 242.760899 
L 624.286418 154.145199 
L 630.551539 247.128218 
L 636.61456 280.759645 
L 642.879681 302.817858 
L 648.942702 338.658071 
L 655.207823 349.432237 
L 661.472945 320.7942 
L 667.131764 331.660817 
L 673.396885 288.449796 
L 679.459906 230.248096 
L 685.725027 170.385454 
L 691.788048 194.365822 
L 698.053169 89.28 
L 704.31829 200.793247 
L 710.381311 241.275941 
L 716.646432 267.944598 
L 722.709453 310.653253 
L 728.974574 323.590191 
L 735.239696 290.197594 
L 740.898515 303.423075 
L 747.163636 253.028787 
" clip-path="url(#p07c34c8ac2)" style="fill: none; stroke: #ffa500; stroke-width: 1.5; stroke-linecap: square"/>
   </g>
   <g id="line2d_20">
    <path d="M 138.436364 371.656759 
L 144.701485 484.642283 
L 150.360304 484.351722 
L 156.625426 480.992199 
L 162.688446 479.268834 
L 168.953568 476.383017 
L 175.016588 472.700133 
L 181.28171 471.174434 
L 187.546831 465.730867 
L 193.609852 466.764675 
L 199.874973 470.397814 
L 205.937993 469.642409 
L 212.203115 471.023097 
L 218.468236 471.34342 
L 224.127055 467.236279 
L 230.392177 465.85682 
L 236.455197 461.312443 
L 242.720319 451.277767 
L 248.783339 441.320393 
L 255.048461 441.601025 
L 261.313582 429.229209 
L 267.376603 435.636786 
L 273.641724 449.988814 
L 279.704745 449.600479 
L 285.969866 454.504786 
L 292.234987 456.6816 
L 298.095907 448.483159 
L 304.361029 446.772683 
L 310.424049 439.202856 
L 316.689171 420.850522 
L 322.752191 403.922449 
L 329.017313 406.572087 
L 335.282434 386.221693 
L 341.345455 399.627003 
L 347.610576 426.73889 
L 353.673597 426.65317 
L 359.938718 435.695137 
L 366.203839 440.038333 
L 371.862658 427.578254 
L 378.12778 425.530475 
L 384.1908 414.551941 
L 390.455922 387.00101 
L 396.518942 362.424696 
L 402.784064 367.912249 
L 409.049185 339.209997 
L 415.112206 360.232058 
L 421.377327 401.212194 
L 427.440348 401.724433 
L 433.705469 415.211617 
L 439.97059 421.95354 
L 445.62941 404.879222 
L 451.894531 402.439647 
L 457.957552 387.993917 
L 464.222673 350.720666 
L 470.285694 317.871267 
L 476.550815 326.367768 
L 482.815936 288.695811 
L 488.878957 317.952859 
L 495.144078 373.994558 
L 501.207099 375.091662 
L 507.47222 393.486759 
L 513.737342 402.850435 
L 519.396161 380.689943 
L 525.661282 378.049199 
L 531.724303 359.939869 
L 537.989424 312.135907 
L 544.052445 270.69341 
L 550.317566 282.632046 
L 556.582687 235.496673 
L 562.645708 273.342143 
L 568.910829 345.350339 
L 574.97385 347.131265 
L 581.238971 370.624088 
L 587.504093 382.705755 
L 593.365013 355.28467 
L 599.630134 352.486044 
L 605.693155 330.411454 
L 611.958276 271.776825 
L 618.021297 221.50839 
L 624.286418 236.836697 
L 630.551539 179.975291 
L 636.61456 226.900666 
L 642.879681 315.383976 
L 648.942702 317.86762 
L 655.207823 346.913476 
L 661.472945 361.836955 
L 667.131764 328.984221 
L 673.396885 325.695589 
L 679.459906 299.663823 
L 685.725027 229.928548 
L 691.788048 170.234612 
L 698.053169 189.233562 
L 704.31829 122.101991 
L 710.381311 178.593486 
L 716.646432 284.478232 
L 722.709453 287.698141 
L 728.974574 322.315146 
L 735.239696 340.068368 
L 740.898515 301.606058 
L 747.163636 298.150765 
" clip-path="url(#p07c34c8ac2)" style="fill: none; stroke-dasharray: 5.55,2.4; stroke-dashoffset: 0; stroke: #ff0000; stroke-width: 1.5"/>
   </g>
   <g id="line2d_21">
    <path d="M 144.701485 492.48 
L 150.360304 491.504095 
L 156.625426 490.631385 
L 162.688446 488.690674 
L 168.953568 485.884671 
L 175.016588 482.143702 
L 181.28171 480.88167 
L 187.546831 473.958628 
L 193.609852 477.3082 
L 199.874973 477.7358 
L 205.937993 477.878612 
L 212.203115 479.522269 
L 218.468236 479.308407 
L 224.127055 475.342855 
L 230.392177 475.222551 
L 236.455197 468.799422 
L 242.720319 459.922392 
L 248.783339 449.892037 
L 255.048461 450.951452 
L 261.313582 433.202935 
L 267.376603 447.488268 
L 273.641724 452.083175 
L 279.704745 454.824163 
L 285.969866 460.875229 
L 292.234987 461.970833 
L 298.095907 454.431834 
L 304.361029 455.744537 
L 310.424049 444.150542 
L 316.689171 428.385044 
L 322.752191 411.35614 
L 329.017313 415.356176 
L 335.282434 385.123888 
L 341.345455 413.01022 
L 347.610576 422.483773 
L 353.673597 428.398605 
L 359.938718 439.573448 
L 366.203839 442.253299 
L 371.862658 431.092073 
L 378.12778 433.943804 
L 384.1908 416.691571 
L 390.455922 393.269443 
L 396.518942 368.604348 
L 402.784064 376.04874 
L 409.049185 332.503095 
L 415.112206 375.173344 
L 421.377327 390.036504 
L 427.440348 399.670508 
L 433.705469 416.283818 
L 439.97059 420.877357 
L 445.62941 405.681439 
L 451.894531 410.280697 
L 457.957552 387.083541 
L 464.222673 355.597027 
L 470.285694 322.649819 
L 476.550815 333.834994 
L 482.815936 275.947443 
L 488.878957 334.587665 
L 495.144078 355.377078 
L 501.207099 368.920549 
L 507.47222 391.604599 
L 513.737342 398.188243 
L 519.396161 378.616357 
L 525.661282 385.332837 
L 531.724303 355.712626 
L 537.989424 315.56231 
L 544.052445 274.036107 
L 550.317566 289.354672 
L 556.582687 216.319801 
L 562.645708 291.767239 
L 568.910829 318.904668 
L 574.97385 336.597178 
L 581.238971 365.619564 
L 587.504093 374.282483 
L 593.365013 350.19709 
L 599.630134 359.162214 
L 605.693155 322.68303 
L 611.958276 273.742462 
L 618.021297 223.273614 
L 624.286418 242.760899 
L 630.551539 154.145199 
L 636.61456 247.128218 
L 642.879681 280.759645 
L 648.942702 302.817858 
L 655.207823 338.658071 
L 661.472945 349.432237 
L 667.131764 320.7942 
L 673.396885 331.660817 
L 679.459906 288.449796 
L 685.725027 230.248096 
L 691.788048 170.385454 
L 698.053169 194.365822 
L 704.31829 89.28 
L 710.381311 200.793247 
L 716.646432 241.275941 
L 722.709453 267.944598 
L 728.974574 310.653253 
L 735.239696 323.590191 
L 740.898515 290.197594 
L 747.163636 303.423075 
" clip-path="url(#p07c34c8ac2)" style="fill: none; stroke-dasharray: 5.55,2.4; stroke-dashoffset: 0; stroke: #0000ff; stroke-width: 1.5"/>
   </g>
   <g id="patch_3">
    <path d="M 108 512.64 
L 108 69.12 
" style="fill: none; stroke: #000000; stroke-width: 0.8; stroke-linejoin: miter; stroke-linecap: square"/>
   </g>
   <g id="patch_4">
    <path d="M 777.6 512.64 
L 777.6 69.12 
" style="fill: none; stroke: #000000; stroke-width: 0.8; stroke-linejoin: miter; stroke-linecap: square"/>
   </g>
   <g id="patch_5">
    <path d="M 108 512.64 
L 777.6 512.64 
" style="fill: none; stroke: #000000; stroke-width: 0.8; stroke-linejoin: miter; stroke-linecap: square"/>
   </g>
   <g id="patch_6">
    <path d="M 108 69.12 
L 777.6 69.12 
" style="fill: none; stroke: #000000; stroke-width: 0.8; stroke-linejoin: miter; stroke-linecap: square"/>
   </g>
   <g id="text_20">
    <!-- Original Time Series and Model Fitted Values -->
    <g transform="translate(308.952188 63.12) scale(0.12 -0.12)">
     <defs>
      <path id="DejaVuSans-4f" d="M 2522 4238 
Q 1834 4238 1429 3725 
Q 1025 3213 1025 2328 
Q 1025 1447 1429 934 
Q 1834 422 2522 422 
Q 3209 422 3611 934 
Q 4013 1447 4013 2328 
Q 4013 3213 3611 3725 
Q 3209 4238 2522 4238 
z
M 2522 4750 
Q 3503 4750 4090 4092 
Q 4678 3434 4678 2328 
Q 4678 1225 4090 567 
Q 3503 -91 2522 -91 
Q 1538 -91 948 565 
Q 359 1222 359 2328 
Q 359 3434 948 4092 
Q 1538 4750 2522 4750 
z
" transform="scale(0.015625)"/>
      <path id="DejaVuSans-72" d="M 2631 2963 
Q 2534 3019 2420 3045 
Q 2306 3072 2169 3072 
Q 1681 3072 1420 2755 
Q 1159 2438 1159 1844 
L 1159 0 
L 581 0 
L 581 3500 
L 1159 3500 
L 1159 2956 
Q 1341 3275 1631 3429 
Q 1922 3584 2338 3584 
Q 2397 3584 2469 3576 
Q 2541 3569 2628 3553 
L 2631 2963 
z
" transform="scale(0.015625)"/>
      <path id="DejaVuSans-69" d="M 603 3500 
L 1178 3500 
L 1178 0 
L 603 0 
L 603 3500 
z
M 603 4863 
L 1178 4863 
L 1178 4134 
L 603 4134 
L 603 4863 
z
" transform="scale(0.015625)"/>
      <path id="DejaVuSans-67" d="M 2906 1791 
Q 2906 2416 2648 2759 
Q 2391 3103 1925 3103 
Q 1463 3103 1205 2759 
Q 947 2416 947 1791 
Q 947 1169 1205 825 
Q 1463 481 1925 481 
Q 2391 481 2648 825 
Q 2906 1169 2906 1791 
z
M 3481 434 
Q 3481 -459 3084 -895 
Q 2688 -1331 1869 -1331 
Q 1566 -1331 1297 -1286 
Q 1028 -1241 775 -1147 
L 775 -588 
Q 1028 -725 1275 -790 
Q 1522 -856 1778 -856 
Q 2344 -856 2625 -561 
Q 2906 -266 2906 331 
L 2906 616 
Q 2728 306 2450 153 
Q 2172 0 1784 0 
Q 1141 0 747 490 
Q 353 981 353 1791 
Q 353 2603 747 3093 
Q 1141 3584 1784 3584 
Q 2172 3584 2450 3431 
Q 2728 3278 2906 2969 
L 2906 3500 
L 3481 3500 
L 3481 434 
z
" transform="scale(0.015625)"/>
      <path id="DejaVuSans-6e" d="M 3513 2113 
L 3513 0 
L 2938 0 
L 2938 2094 
Q 2938 2591 2744 2837 
Q 2550 3084 2163 3084 
Q 1697 3084 1428 2787 
Q 1159 2491 1159 1978 
L 1159 0 
L 581 0 
L 581 3500 
L 1159 3500 
L 1159 2956 
Q 1366 3272 1645 3428 
Q 1925 3584 2291 3584 
Q 2894 3584 3203 3211 
Q 3513 2838 3513 2113 
z
" transform="scale(0.015625)"/>
      <path id="DejaVuSans-61" d="M 2194 1759 
Q 1497 1759 1228 1600 
Q 959 1441 959 1056 
Q 959 750 1161 570 
Q 1363 391 1709 391 
Q 2188 391 2477 730 
Q 2766 1069 2766 1631 
L 2766 1759 
L 2194 1759 
z
M 3341 1997 
L 3341 0 
L 2766 0 
L 2766 531 
Q 2569 213 2275 61 
Q 1981 -91 1556 -91 
Q 1019 -91 701 211 
Q 384 513 384 1019 
Q 384 1609 779 1909 
Q 1175 2209 1959 2209 
L 2766 2209 
L 2766 2266 
Q 2766 2663 2505 2880 
Q 2244 3097 1772 3097 
Q 1472 3097 1187 3025 
Q 903 2953 641 2809 
L 641 3341 
Q 956 3463 1253 3523 
Q 1550 3584 1831 3584 
Q 2591 3584 2966 3190 
Q 3341 2797 3341 1997 
z
" transform="scale(0.015625)"/>
      <path id="DejaVuSans-6c" d="M 603 4863 
L 1178 4863 
L 1178 0 
L 603 0 
L 603 4863 
z
" transform="scale(0.015625)"/>
      <path id="DejaVuSans-20" transform="scale(0.015625)"/>
      <path id="DejaVuSans-54" d="M -19 4666 
L 3928 4666 
L 3928 4134 
L 2272 4134 
L 2272 0 
L 1638 0 
L 1638 4134 
L -19 4134 
L -19 4666 
z
" transform="scale(0.015625)"/>
      <path id="DejaVuSans-6d" d="M 3328 2828 
Q 3544 3216 3844 3400 
Q 4144 3584 4550 3584 
Q 5097 3584 5394 3201 
Q 5691 2819 5691 2113 
L 5691 0 
L 5113 0 
L 5113 2094 
Q 5113 2597 4934 2840 
Q 4756 3084 4391 3084 
Q 3944 3084 3684 2787 
Q 3425 2491 3425 1978 
L 3425 0 
L 2847 0 
L 2847 2094 
Q 2847 2600 2669 2842 
Q 2491 3084 2119 3084 
Q 1678 3084 1418 2786 
Q 1159 2488 1159 1978 
L 1159 0 
L 581 0 
L 581 3500 
L 1159 3500 
L 1159 2956 
Q 1356 3278 1631 3431 
Q 1906 3584 2284 3584 
Q 2666 3584 2933 3390 
Q 3200 3197 3328 2828 
z
" transform="scale(0.015625)"/>
      <path id="DejaVuSans-65" d="M 3597 1894 
L 3597 1613 
L 953 1613 
Q 991 1019 1311 708 
Q 1631 397 2203 397 
Q 2534 397 2845 478 
Q 3156 559 3463 722 
L 3463 178 
Q 3153 47 2828 -22 
Q 2503 -91 2169 -91 
Q 1331 -91 842 396 
Q 353 884 353 1716 
Q 353 2575 817 3079 
Q 1281 3584 2069 3584 
Q 2775 3584 3186 3129 
Q 3597 2675 3597 1894 
z
M 3022 2063 
Q 3016 2534 2758 2815 
Q 2500 3097 2075 3097 
Q 1594 3097 1305 2825 
Q 1016 2553 972 2059 
L 3022 2063 
z
" transform="scale(0.015625)"/>
      <path id="DejaVuSans-53" d="M 3425 4513 
L 3425 3897 
Q 3066 4069 2747 4153 
Q 2428 4238 2131 4238 
Q 1616 4238 1336 4038 
Q 1056 3838 1056 3469 
Q 1056 3159 1242 3001 
Q 1428 2844 1947 2747 
L 2328 2669 
Q 3034 2534 3370 2195 
Q 3706 1856 3706 1288 
Q 3706 609 3251 259 
Q 2797 -91 1919 -91 
Q 1588 -91 1214 -16 
Q 841 59 441 206 
L 441 856 
Q 825 641 1194 531 
Q 1563 422 1919 422 
Q 2459 422 2753 634 
Q 3047 847 3047 1241 
Q 3047 1584 2836 1778 
Q 2625 1972 2144 2069 
L 1759 2144 
Q 1053 2284 737 2584 
Q 422 2884 422 3419 
Q 422 4038 858 4394 
Q 1294 4750 2059 4750 
Q 2388 4750 2728 4690 
Q 3069 4631 3425 4513 
z
" transform="scale(0.015625)"/>
      <path id="DejaVuSans-73" d="M 2834 3397 
L 2834 2853 
Q 2591 2978 2328 3040 
Q 2066 3103 1784 3103 
Q 1356 3103 1142 2972 
Q 928 2841 928 2578 
Q 928 2378 1081 2264 
Q 1234 2150 1697 2047 
L 1894 2003 
Q 2506 1872 2764 1633 
Q 3022 1394 3022 966 
Q 3022 478 2636 193 
Q 2250 -91 1575 -91 
Q 1294 -91 989 -36 
Q 684 19 347 128 
L 347 722 
Q 666 556 975 473 
Q 1284 391 1588 391 
Q 1994 391 2212 530 
Q 2431 669 2431 922 
Q 2431 1156 2273 1281 
Q 2116 1406 1581 1522 
L 1381 1569 
Q 847 1681 609 1914 
Q 372 2147 372 2553 
Q 372 3047 722 3315 
Q 1072 3584 1716 3584 
Q 2034 3584 2315 3537 
Q 2597 3491 2834 3397 
z
" transform="scale(0.015625)"/>
      <path id="DejaVuSans-64" d="M 2906 2969 
L 2906 4863 
L 3481 4863 
L 3481 0 
L 2906 0 
L 2906 525 
Q 2725 213 2448 61 
Q 2172 -91 1784 -91 
Q 1150 -91 751 415 
Q 353 922 353 1747 
Q 353 2572 751 3078 
Q 1150 3584 1784 3584 
Q 2172 3584 2448 3432 
Q 2725 3281 2906 2969 
z
M 947 1747 
Q 947 1113 1208 752 
Q 1469 391 1925 391 
Q 2381 391 2643 752 
Q 2906 1113 2906 1747 
Q 2906 2381 2643 2742 
Q 2381 3103 1925 3103 
Q 1469 3103 1208 2742 
Q 947 2381 947 1747 
z
" transform="scale(0.015625)"/>
      <path id="DejaVuSans-4d" d="M 628 4666 
L 1569 4666 
L 2759 1491 
L 3956 4666 
L 4897 4666 
L 4897 0 
L 4281 0 
L 4281 4097 
L 3078 897 
L 2444 897 
L 1241 4097 
L 1241 0 
L 628 0 
L 628 4666 
z
" transform="scale(0.015625)"/>
      <path id="DejaVuSans-6f" d="M 1959 3097 
Q 1497 3097 1228 2736 
Q 959 2375 959 1747 
Q 959 1119 1226 758 
Q 1494 397 1959 397 
Q 2419 397 2687 759 
Q 2956 1122 2956 1747 
Q 2956 2369 2687 2733 
Q 2419 3097 1959 3097 
z
M 1959 3584 
Q 2709 3584 3137 3096 
Q 3566 2609 3566 1747 
Q 3566 888 3137 398 
Q 2709 -91 1959 -91 
Q 1206 -91 779 398 
Q 353 888 353 1747 
Q 353 2609 779 3096 
Q 1206 3584 1959 3584 
z
" transform="scale(0.015625)"/>
      <path id="DejaVuSans-46" d="M 628 4666 
L 3309 4666 
L 3309 4134 
L 1259 4134 
L 1259 2759 
L 3109 2759 
L 3109 2228 
L 1259 2228 
L 1259 0 
L 628 0 
L 628 4666 
z
" transform="scale(0.015625)"/>
      <path id="DejaVuSans-56" d="M 1831 0 
L 50 4666 
L 709 4666 
L 2188 738 
L 3669 4666 
L 4325 4666 
L 2547 0 
L 1831 0 
z
" transform="scale(0.015625)"/>
      <path id="DejaVuSans-75" d="M 544 1381 
L 544 3500 
L 1119 3500 
L 1119 1403 
Q 1119 906 1312 657 
Q 1506 409 1894 409 
Q 2359 409 2629 706 
Q 2900 1003 2900 1516 
L 2900 3500 
L 3475 3500 
L 3475 0 
L 2900 0 
L 2900 538 
Q 2691 219 2414 64 
Q 2138 -91 1772 -91 
Q 1169 -91 856 284 
Q 544 659 544 1381 
z
M 1991 3584 
L 1991 3584 
z
" transform="scale(0.015625)"/>
     </defs>
     <use xlink:href="#DejaVuSans-4f"/>
     <use xlink:href="#DejaVuSans-72" x="78.710938"/>
     <use xlink:href="#DejaVuSans-69" x="119.824219"/>
     <use xlink:href="#DejaVuSans-67" x="147.607422"/>
     <use xlink:href="#DejaVuSans-69" x="211.083984"/>
     <use xlink:href="#DejaVuSans-6e" x="238.867188"/>
     <use xlink:href="#DejaVuSans-61" x="302.246094"/>
     <use xlink:href="#DejaVuSans-6c" x="363.525391"/>
     <use xlink:href="#DejaVuSans-20" x="391.308594"/>
     <use xlink:href="#DejaVuSans-54" x="423.095703"/>
     <use xlink:href="#DejaVuSans-69" x="481.054688"/>
     <use xlink:href="#DejaVuSans-6d" x="508.837891"/>
     <use xlink:href="#DejaVuSans-65" x="606.25"/>
     <use xlink:href="#DejaVuSans-20" x="667.773438"/>
     <use xlink:href="#DejaVuSans-53" x="699.560547"/>
     <use xlink:href="#DejaVuSans-65" x="763.037109"/>
     <use xlink:href="#DejaVuSans-72" x="824.560547"/>
     <use xlink:href="#DejaVuSans-69" x="865.673828"/>
     <use xlink:href="#DejaVuSans-65" x="893.457031"/>
     <use xlink:href="#DejaVuSans-73" x="954.980469"/>
     <use xlink:href="#DejaVuSans-20" x="1007.080078"/>
     <use xlink:href="#DejaVuSans-61" x="1038.867188"/>
     <use xlink:href="#DejaVuSans-6e" x="1100.146484"/>
     <use xlink:href="#DejaVuSans-64" x="1163.525391"/>
     <use xlink:href="#DejaVuSans-20" x="1227.001953"/>
     <use xlink:href="#DejaVuSans-4d" x="1258.789062"/>
     <use xlink:href="#DejaVuSans-6f" x="1345.068359"/>
     <use xlink:href="#DejaVuSans-64" x="1406.25"/>
     <use xlink:href="#DejaVuSans-65" x="1469.726562"/>
     <use xlink:href="#DejaVuSans-6c" x="1531.25"/>
     <use xlink:href="#DejaVuSans-20" x="1559.033203"/>
     <use xlink:href="#DejaVuSans-46" x="1590.820312"/>
     <use xlink:href="#DejaVuSans-69" x="1641.089844"/>
     <use xlink:href="#DejaVuSans-74" x="1668.873047"/>
     <use xlink:href="#DejaVuSans-74" x="1708.082031"/>
     <use xlink:href="#DejaVuSans-65" x="1747.291016"/>
     <use xlink:href="#DejaVuSans-64" x="1808.814453"/>
     <use xlink:href="#DejaVuSans-20" x="1872.291016"/>
     <use xlink:href="#DejaVuSans-56" x="1904.078125"/>
     <use xlink:href="#DejaVuSans-61" x="1964.736328"/>
     <use xlink:href="#DejaVuSans-6c" x="2026.015625"/>
     <use xlink:href="#DejaVuSans-75" x="2053.798828"/>
     <use xlink:href="#DejaVuSans-65" x="2117.177734"/>
     <use xlink:href="#DejaVuSans-73" x="2178.701172"/>
    </g>
   </g>
   <g id="legend_1">
    <g id="patch_7">
     <path d="M 115 121.154375 
L 275.839063 121.154375 
Q 277.839063 121.154375 277.839063 119.154375 
L 277.839063 76.12 
Q 277.839063 74.12 275.839063 74.12 
L 115 74.12 
Q 113 74.12 113 76.12 
L 113 119.154375 
Q 113 121.154375 115 121.154375 
z
" style="fill: #ffffff; opacity: 0.8; stroke: #cccccc; stroke-linejoin: miter"/>
    </g>
    <g id="line2d_22">
     <path d="M 117 82.218438 
L 127 82.218438 
L 137 82.218438 
" style="fill: none; stroke: #ffa500; stroke-width: 1.5; stroke-linecap: square"/>
    </g>
    <g id="text_21">
     <!-- Original Time Series -->
     <g transform="translate(145 85.718438) scale(0.1 -0.1)">
      <use xlink:href="#DejaVuSans-4f"/>
      <use xlink:href="#DejaVuSans-72" x="78.710938"/>
      <use xlink:href="#DejaVuSans-69" x="119.824219"/>
      <use xlink:href="#DejaVuSans-67" x="147.607422"/>
      <use xlink:href="#DejaVuSans-69" x="211.083984"/>
      <use xlink:href="#DejaVuSans-6e" x="238.867188"/>
      <use xlink:href="#DejaVuSans-61" x="302.246094"/>
      <use xlink:href="#DejaVuSans-6c" x="363.525391"/>
      <use xlink:href="#DejaVuSans-20" x="391.308594"/>
      <use xlink:href="#DejaVuSans-54" x="423.095703"/>
      <use xlink:href="#DejaVuSans-69" x="481.054688"/>
      <use xlink:href="#DejaVuSans-6d" x="508.837891"/>
      <use xlink:href="#DejaVuSans-65" x="606.25"/>
      <use xlink:href="#DejaVuSans-20" x="667.773438"/>
      <use xlink:href="#DejaVuSans-53" x="699.560547"/>
      <use xlink:href="#DejaVuSans-65" x="763.037109"/>
      <use xlink:href="#DejaVuSans-72" x="824.560547"/>
      <use xlink:href="#DejaVuSans-69" x="865.673828"/>
      <use xlink:href="#DejaVuSans-65" x="893.457031"/>
      <use xlink:href="#DejaVuSans-73" x="954.980469"/>
     </g>
    </g>
    <g id="line2d_23">
     <path d="M 117 96.896563 
L 127 96.896563 
L 137 96.896563 
" style="fill: none; stroke-dasharray: 5.55,2.4; stroke-dashoffset: 0; stroke: #ff0000; stroke-width: 1.5"/>
    </g>
    <g id="text_22">
     <!-- AR(3) Fitted Values -->
     <g transform="translate(145 100.396563) scale(0.1 -0.1)">
      <defs>
       <path id="DejaVuSans-41" d="M 2188 4044 
L 1331 1722 
L 3047 1722 
L 2188 4044 
z
M 1831 4666 
L 2547 4666 
L 4325 0 
L 3669 0 
L 3244 1197 
L 1141 1197 
L 716 0 
L 50 0 
L 1831 4666 
z
" transform="scale(0.015625)"/>
       <path id="DejaVuSans-52" d="M 2841 2188 
Q 3044 2119 3236 1894 
Q 3428 1669 3622 1275 
L 4263 0 
L 3584 0 
L 2988 1197 
Q 2756 1666 2539 1819 
Q 2322 1972 1947 1972 
L 1259 1972 
L 1259 0 
L 628 0 
L 628 4666 
L 2053 4666 
Q 2853 4666 3247 4331 
Q 3641 3997 3641 3322 
Q 3641 2881 3436 2590 
Q 3231 2300 2841 2188 
z
M 1259 4147 
L 1259 2491 
L 2053 2491 
Q 2509 2491 2742 2702 
Q 2975 2913 2975 3322 
Q 2975 3731 2742 3939 
Q 2509 4147 2053 4147 
L 1259 4147 
z
" transform="scale(0.015625)"/>
       <path id="DejaVuSans-28" d="M 1984 4856 
Q 1566 4138 1362 3434 
Q 1159 2731 1159 2009 
Q 1159 1288 1364 580 
Q 1569 -128 1984 -844 
L 1484 -844 
Q 1016 -109 783 600 
Q 550 1309 550 2009 
Q 550 2706 781 3412 
Q 1013 4119 1484 4856 
L 1984 4856 
z
" transform="scale(0.015625)"/>
       <path id="DejaVuSans-29" d="M 513 4856 
L 1013 4856 
Q 1481 4119 1714 3412 
Q 1947 2706 1947 2009 
Q 1947 1309 1714 600 
Q 1481 -109 1013 -844 
L 513 -844 
Q 928 -128 1133 580 
Q 1338 1288 1338 2009 
Q 1338 2731 1133 3434 
Q 928 4138 513 4856 
z
" transform="scale(0.015625)"/>
      </defs>
      <use xlink:href="#DejaVuSans-41"/>
      <use xlink:href="#DejaVuSans-52" x="68.408203"/>
      <use xlink:href="#DejaVuSans-28" x="137.890625"/>
      <use xlink:href="#DejaVuSans-33" x="176.904297"/>
      <use xlink:href="#DejaVuSans-29" x="240.527344"/>
      <use xlink:href="#DejaVuSans-20" x="279.541016"/>
      <use xlink:href="#DejaVuSans-46" x="311.328125"/>
      <use xlink:href="#DejaVuSans-69" x="361.597656"/>
      <use xlink:href="#DejaVuSans-74" x="389.380859"/>
      <use xlink:href="#DejaVuSans-74" x="428.589844"/>
      <use xlink:href="#DejaVuSans-65" x="467.798828"/>
      <use xlink:href="#DejaVuSans-64" x="529.322266"/>
      <use xlink:href="#DejaVuSans-20" x="592.798828"/>
      <use xlink:href="#DejaVuSans-56" x="624.585938"/>
      <use xlink:href="#DejaVuSans-61" x="685.244141"/>
      <use xlink:href="#DejaVuSans-6c" x="746.523438"/>
      <use xlink:href="#DejaVuSans-75" x="774.306641"/>
      <use xlink:href="#DejaVuSans-65" x="837.685547"/>
      <use xlink:href="#DejaVuSans-73" x="899.208984"/>
     </g>
    </g>
    <g id="line2d_24">
     <path d="M 117 111.574688 
L 127 111.574688 
L 137 111.574688 
" style="fill: none; stroke-dasharray: 5.55,2.4; stroke-dashoffset: 0; stroke: #0000ff; stroke-width: 1.5"/>
    </g>
    <g id="text_23">
     <!-- Naive Model Fitted Values -->
     <g transform="translate(145 115.074688) scale(0.1 -0.1)">
      <defs>
       <path id="DejaVuSans-4e" d="M 628 4666 
L 1478 4666 
L 3547 763 
L 3547 4666 
L 4159 4666 
L 4159 0 
L 3309 0 
L 1241 3903 
L 1241 0 
L 628 0 
L 628 4666 
z
" transform="scale(0.015625)"/>
       <path id="DejaVuSans-76" d="M 191 3500 
L 800 3500 
L 1894 563 
L 2988 3500 
L 3597 3500 
L 2284 0 
L 1503 0 
L 191 3500 
z
" transform="scale(0.015625)"/>
      </defs>
      <use xlink:href="#DejaVuSans-4e"/>
      <use xlink:href="#DejaVuSans-61" x="74.804688"/>
      <use xlink:href="#DejaVuSans-69" x="136.083984"/>
      <use xlink:href="#DejaVuSans-76" x="163.867188"/>
      <use xlink:href="#DejaVuSans-65" x="223.046875"/>
      <use xlink:href="#DejaVuSans-20" x="284.570312"/>
      <use xlink:href="#DejaVuSans-4d" x="316.357422"/>
      <use xlink:href="#DejaVuSans-6f" x="402.636719"/>
      <use xlink:href="#DejaVuSans-64" x="463.818359"/>
      <use xlink:href="#DejaVuSans-65" x="527.294922"/>
      <use xlink:href="#DejaVuSans-6c" x="588.818359"/>
      <use xlink:href="#DejaVuSans-20" x="616.601562"/>
      <use xlink:href="#DejaVuSans-46" x="648.388672"/>
      <use xlink:href="#DejaVuSans-69" x="698.658203"/>
      <use xlink:href="#DejaVuSans-74" x="726.441406"/>
      <use xlink:href="#DejaVuSans-74" x="765.650391"/>
      <use xlink:href="#DejaVuSans-65" x="804.859375"/>
      <use xlink:href="#DejaVuSans-64" x="866.382812"/>
      <use xlink:href="#DejaVuSans-20" x="929.859375"/>
      <use xlink:href="#DejaVuSans-56" x="961.646484"/>
      <use xlink:href="#DejaVuSans-61" x="1022.304688"/>
      <use xlink:href="#DejaVuSans-6c" x="1083.583984"/>
      <use xlink:href="#DejaVuSans-75" x="1111.367188"/>
      <use xlink:href="#DejaVuSans-65" x="1174.746094"/>
      <use xlink:href="#DejaVuSans-73" x="1236.269531"/>
     </g>
    </g>
   </g>
  </g>
 </g>
 <defs>
  <clipPath id="p07c34c8ac2">
   <rect x="108" y="69.12" width="669.6" height="443.52"/>
  </clipPath>
 </defs>
</svg>
