<?xml version="1.0" encoding="utf-8" standalone="no"?>
<!DOCTYPE svg PUBLIC "-//W3C//DTD SVG 1.1//EN"
  "http://www.w3.org/Graphics/SVG/1.1/DTD/svg11.dtd">
<svg xmlns:xlink="http://www.w3.org/1999/xlink" width="720pt" height="432pt" viewBox="0 0 720 432" xmlns="http://www.w3.org/2000/svg" version="1.1">
 <metadata>
  <rdf:RDF xmlns:dc="http://purl.org/dc/elements/1.1/" xmlns:cc="http://creativecommons.org/ns#" xmlns:rdf="http://www.w3.org/1999/02/22-rdf-syntax-ns#">
   <cc:Work>
    <dc:type rdf:resource="http://purl.org/dc/dcmitype/StillImage"/>
    <dc:date>2024-02-16T16:43:21.579054</dc:date>
    <dc:format>image/svg+xml</dc:format>
    <dc:creator>
     <cc:Agent>
      <dc:title>Matplotlib v3.8.2, https://matplotlib.org/</dc:title>
     </cc:Agent>
    </dc:creator>
   </cc:Work>
  </rdf:RDF>
 </metadata>
 <defs>
  <style type="text/css">*{stroke-linejoin: round; stroke-linecap: butt}</style>
 </defs>
 <g id="figure_1">
  <g id="patch_1">
   <path d="M 0 432 
L 720 432 
L 720 0 
L 0 0 
z
" style="fill: #ffffff"/>
  </g>
  <g id="axes_1">
   <g id="patch_2">
    <path d="M 90 149.675294 
L 648 149.675294 
L 648 51.84 
L 90 51.84 
z
" style="fill: #ffffff"/>
   </g>
   <g id="matplotlib.axis_1">
    <g id="xtick_1">
     <g id="line2d_1">
      <defs>
       <path id="m8a308921f1" d="M 0 0 
L 0 3.5 
" style="stroke: #000000; stroke-width: 0.8"/>
      </defs>
      <g>
       <use xlink:href="#m8a308921f1" x="115.363636" y="149.675294" style="stroke: #000000; stroke-width: 0.8"/>
      </g>
     </g>
    </g>
    <g id="xtick_2">
     <g id="line2d_2">
      <g>
       <use xlink:href="#m8a308921f1" x="217.842975" y="149.675294" style="stroke: #000000; stroke-width: 0.8"/>
      </g>
     </g>
    </g>
    <g id="xtick_3">
     <g id="line2d_3">
      <g>
       <use xlink:href="#m8a308921f1" x="320.322314" y="149.675294" style="stroke: #000000; stroke-width: 0.8"/>
      </g>
     </g>
    </g>
    <g id="xtick_4">
     <g id="line2d_4">
      <g>
       <use xlink:href="#m8a308921f1" x="422.801653" y="149.675294" style="stroke: #000000; stroke-width: 0.8"/>
      </g>
     </g>
    </g>
    <g id="xtick_5">
     <g id="line2d_5">
      <g>
       <use xlink:href="#m8a308921f1" x="525.280992" y="149.675294" style="stroke: #000000; stroke-width: 0.8"/>
      </g>
     </g>
    </g>
    <g id="xtick_6">
     <g id="line2d_6">
      <g>
       <use xlink:href="#m8a308921f1" x="627.760331" y="149.675294" style="stroke: #000000; stroke-width: 0.8"/>
      </g>
     </g>
    </g>
   </g>
   <g id="matplotlib.axis_2">
    <g id="ytick_1">
     <g id="line2d_7">
      <defs>
       <path id="m17b26a5466" d="M 0 0 
L -3.5 0 
" style="stroke: #000000; stroke-width: 0.8"/>
      </defs>
      <g>
       <use xlink:href="#m17b26a5466" x="90" y="128.025613" style="stroke: #000000; stroke-width: 0.8"/>
      </g>
     </g>
     <g id="text_1">
      <!-- 0 -->
      <g transform="translate(76.6375 131.824832) scale(0.1 -0.1)">
       <defs>
        <path id="DejaVuSans-30" d="M 2034 4250 
Q 1547 4250 1301 3770 
Q 1056 3291 1056 2328 
Q 1056 1369 1301 889 
Q 1547 409 2034 409 
Q 2525 409 2770 889 
Q 3016 1369 3016 2328 
Q 3016 3291 2770 3770 
Q 2525 4250 2034 4250 
z
M 2034 4750 
Q 2819 4750 3233 4129 
Q 3647 3509 3647 2328 
Q 3647 1150 3233 529 
Q 2819 -91 2034 -91 
Q 1250 -91 836 529 
Q 422 1150 422 2328 
Q 422 3509 836 4129 
Q 1250 4750 2034 4750 
z
" transform="scale(0.015625)"/>
       </defs>
       <use xlink:href="#DejaVuSans-30"/>
      </g>
     </g>
    </g>
    <g id="ytick_2">
     <g id="line2d_8">
      <g>
       <use xlink:href="#m17b26a5466" x="90" y="103.161917" style="stroke: #000000; stroke-width: 0.8"/>
      </g>
     </g>
     <g id="text_2">
      <!-- 2 -->
      <g transform="translate(76.6375 106.961136) scale(0.1 -0.1)">
       <defs>
        <path id="DejaVuSans-32" d="M 1228 531 
L 3431 531 
L 3431 0 
L 469 0 
L 469 531 
Q 828 903 1448 1529 
Q 2069 2156 2228 2338 
Q 2531 2678 2651 2914 
Q 2772 3150 2772 3378 
Q 2772 3750 2511 3984 
Q 2250 4219 1831 4219 
Q 1534 4219 1204 4116 
Q 875 4013 500 3803 
L 500 4441 
Q 881 4594 1212 4672 
Q 1544 4750 1819 4750 
Q 2544 4750 2975 4387 
Q 3406 4025 3406 3419 
Q 3406 3131 3298 2873 
Q 3191 2616 2906 2266 
Q 2828 2175 2409 1742 
Q 1991 1309 1228 531 
z
" transform="scale(0.015625)"/>
       </defs>
       <use xlink:href="#DejaVuSans-32"/>
      </g>
     </g>
    </g>
    <g id="ytick_3">
     <g id="line2d_9">
      <g>
       <use xlink:href="#m17b26a5466" x="90" y="78.298221" style="stroke: #000000; stroke-width: 0.8"/>
      </g>
     </g>
     <g id="text_3">
      <!-- 4 -->
      <g transform="translate(76.6375 82.09744) scale(0.1 -0.1)">
       <defs>
        <path id="DejaVuSans-34" d="M 2419 4116 
L 825 1625 
L 2419 1625 
L 2419 4116 
z
M 2253 4666 
L 3047 4666 
L 3047 1625 
L 3713 1625 
L 3713 1100 
L 3047 1100 
L 3047 0 
L 2419 0 
L 2419 1100 
L 313 1100 
L 313 1709 
L 2253 4666 
z
" transform="scale(0.015625)"/>
       </defs>
       <use xlink:href="#DejaVuSans-34"/>
      </g>
     </g>
    </g>
    <g id="ytick_4">
     <g id="line2d_10">
      <g>
       <use xlink:href="#m17b26a5466" x="90" y="53.434525" style="stroke: #000000; stroke-width: 0.8"/>
      </g>
     </g>
     <g id="text_4">
      <!-- 6 -->
      <g transform="translate(76.6375 57.233744) scale(0.1 -0.1)">
       <defs>
        <path id="DejaVuSans-36" d="M 2113 2584 
Q 1688 2584 1439 2293 
Q 1191 2003 1191 1497 
Q 1191 994 1439 701 
Q 1688 409 2113 409 
Q 2538 409 2786 701 
Q 3034 994 3034 1497 
Q 3034 2003 2786 2293 
Q 2538 2584 2113 2584 
z
M 3366 4563 
L 3366 3988 
Q 3128 4100 2886 4159 
Q 2644 4219 2406 4219 
Q 1781 4219 1451 3797 
Q 1122 3375 1075 2522 
Q 1259 2794 1537 2939 
Q 1816 3084 2150 3084 
Q 2853 3084 3261 2657 
Q 3669 2231 3669 1497 
Q 3669 778 3244 343 
Q 2819 -91 2113 -91 
Q 1303 -91 875 529 
Q 447 1150 447 2328 
Q 447 3434 972 4092 
Q 1497 4750 2381 4750 
Q 2619 4750 2861 4703 
Q 3103 4656 3366 4563 
z
" transform="scale(0.015625)"/>
       </defs>
       <use xlink:href="#DejaVuSans-36"/>
      </g>
     </g>
    </g>
   </g>
   <g id="line2d_11">
    <path d="M 115.363636 114.35875 
L 120.487603 115.937541 
L 125.61157 113.983372 
L 130.735537 111.80695 
L 135.859504 116.175957 
L 140.983471 116.175916 
L 146.107438 111.667258 
L 151.231405 113.685639 
L 156.355372 116.761052 
L 161.479339 114.24476 
L 166.603306 116.745993 
L 171.727273 116.751741 
L 176.85124 114.992157 
L 181.975207 120.350887 
L 187.099174 119.882548 
L 192.22314 116.99182 
L 197.347107 118.112038 
L 202.471074 114.81243 
L 207.595041 117.851448 
L 212.719008 119.105274 
L 217.842975 111.94962 
L 222.966942 116.155128 
L 228.090909 115.425865 
L 233.214876 119.136216 
L 238.338843 116.947302 
L 243.46281 115.31797 
L 248.586777 118.45556 
L 253.710744 114.659641 
L 258.834711 117.087175 
L 263.958678 116.319023 
L 269.082645 117.08983 
L 274.206612 110.988317 
L 279.330579 115.627324 
L 284.454545 118.223625 
L 289.578512 113.548614 
L 294.702479 118.629234 
L 299.826446 115.074453 
L 304.950413 120.466229 
L 310.07438 118.896126 
L 315.198347 115.104295 
L 320.322314 113.757664 
L 325.446281 115.16768 
L 330.570248 115.881309 
L 335.694215 116.34242 
L 340.818182 119.269917 
L 345.942149 117.383564 
L 351.066116 116.739083 
L 356.190083 112.965368 
L 361.31405 114.739403 
L 366.438017 119.977334 
L 371.561983 114.787972 
L 376.68595 116.551222 
L 381.809917 117.276843 
L 386.933884 114.072912 
L 392.057851 113.030319 
L 397.181818 113.278258 
L 402.305785 117.68037 
L 407.429752 116.362581 
L 412.553719 114.770122 
L 417.677686 113.168199 
L 422.801653 116.785169 
L 427.92562 116.055382 
L 433.049587 118.344523 
L 438.173554 118.567977 
L 443.297521 113.573526 
L 448.421488 112.221651 
L 453.545455 115.772809 
L 458.669421 113.098611 
L 463.793388 114.694604 
L 468.917355 117.197771 
L 474.041322 114.695202 
L 479.165289 111.769638 
L 484.289256 115.682842 
L 489.413223 111.703483 
L 494.53719 122.10742 
L 499.661157 113.550212 
L 504.785124 115.377334 
L 509.909091 116.337208 
L 515.033058 115.365614 
L 520.157025 120.535596 
L 525.280992 116.139951 
L 530.404959 114.705851 
L 535.528926 111.919174 
L 540.652893 116.882376 
L 545.77686 117.603979 
L 550.900826 116.841318 
L 556.024793 113.317737 
L 561.14876 114.776368 
L 566.272727 116.910945 
L 571.396694 114.317592 
L 576.520661 115.352394 
L 581.644628 113.185356 
L 586.768595 117.339328 
L 591.892562 116.408454 
L 597.016529 116.568691 
L 602.140496 119.232604 
L 607.264463 114.857501 
L 612.38843 114.944685 
L 617.512397 115.581051 
L 622.636364 116.177035 
" clip-path="url(#p07b888b83f)" style="fill: none; stroke: #1f77b4; stroke-width: 1.5; stroke-linecap: square"/>
   </g>
   <g id="patch_3">
    <path d="M 90 149.675294 
L 90 51.84 
" style="fill: none; stroke: #000000; stroke-width: 0.8; stroke-linejoin: miter; stroke-linecap: square"/>
   </g>
   <g id="patch_4">
    <path d="M 648 149.675294 
L 648 51.84 
" style="fill: none; stroke: #000000; stroke-width: 0.8; stroke-linejoin: miter; stroke-linecap: square"/>
   </g>
   <g id="patch_5">
    <path d="M 90 149.675294 
L 648 149.675294 
" style="fill: none; stroke: #000000; stroke-width: 0.8; stroke-linejoin: miter; stroke-linecap: square"/>
   </g>
   <g id="patch_6">
    <path d="M 90 51.84 
L 648 51.84 
" style="fill: none; stroke: #000000; stroke-width: 0.8; stroke-linejoin: miter; stroke-linecap: square"/>
   </g>
   <g id="legend_1">
    <g id="patch_7">
     <path d="M 496.257812 74.518125 
L 641 74.518125 
Q 643 74.518125 643 72.518125 
L 643 58.84 
Q 643 56.84 641 56.84 
L 496.257812 56.84 
Q 494.257812 56.84 494.257812 58.84 
L 494.257812 72.518125 
Q 494.257812 74.518125 496.257812 74.518125 
z
" style="fill: #ffffff; opacity: 0.8; stroke: #cccccc; stroke-linejoin: miter"/>
    </g>
    <g id="line2d_12">
     <path d="M 498.257812 64.938437 
L 508.257812 64.938437 
L 518.257812 64.938437 
" style="fill: none; stroke: #1f77b4; stroke-width: 1.5; stroke-linecap: square"/>
    </g>
    <g id="text_5">
     <!-- AR(0) with c=1, σ=0.2 -->
     <g transform="translate(526.257812 68.438437) scale(0.1 -0.1)">
      <defs>
       <path id="DejaVuSans-41" d="M 2188 4044 
L 1331 1722 
L 3047 1722 
L 2188 4044 
z
M 1831 4666 
L 2547 4666 
L 4325 0 
L 3669 0 
L 3244 1197 
L 1141 1197 
L 716 0 
L 50 0 
L 1831 4666 
z
" transform="scale(0.015625)"/>
       <path id="DejaVuSans-52" d="M 2841 2188 
Q 3044 2119 3236 1894 
Q 3428 1669 3622 1275 
L 4263 0 
L 3584 0 
L 2988 1197 
Q 2756 1666 2539 1819 
Q 2322 1972 1947 1972 
L 1259 1972 
L 1259 0 
L 628 0 
L 628 4666 
L 2053 4666 
Q 2853 4666 3247 4331 
Q 3641 3997 3641 3322 
Q 3641 2881 3436 2590 
Q 3231 2300 2841 2188 
z
M 1259 4147 
L 1259 2491 
L 2053 2491 
Q 2509 2491 2742 2702 
Q 2975 2913 2975 3322 
Q 2975 3731 2742 3939 
Q 2509 4147 2053 4147 
L 1259 4147 
z
" transform="scale(0.015625)"/>
       <path id="DejaVuSans-28" d="M 1984 4856 
Q 1566 4138 1362 3434 
Q 1159 2731 1159 2009 
Q 1159 1288 1364 580 
Q 1569 -128 1984 -844 
L 1484 -844 
Q 1016 -109 783 600 
Q 550 1309 550 2009 
Q 550 2706 781 3412 
Q 1013 4119 1484 4856 
L 1984 4856 
z
" transform="scale(0.015625)"/>
       <path id="DejaVuSans-29" d="M 513 4856 
L 1013 4856 
Q 1481 4119 1714 3412 
Q 1947 2706 1947 2009 
Q 1947 1309 1714 600 
Q 1481 -109 1013 -844 
L 513 -844 
Q 928 -128 1133 580 
Q 1338 1288 1338 2009 
Q 1338 2731 1133 3434 
Q 928 4138 513 4856 
z
" transform="scale(0.015625)"/>
       <path id="DejaVuSans-20" transform="scale(0.015625)"/>
       <path id="DejaVuSans-77" d="M 269 3500 
L 844 3500 
L 1563 769 
L 2278 3500 
L 2956 3500 
L 3675 769 
L 4391 3500 
L 4966 3500 
L 4050 0 
L 3372 0 
L 2619 2869 
L 1863 0 
L 1184 0 
L 269 3500 
z
" transform="scale(0.015625)"/>
       <path id="DejaVuSans-69" d="M 603 3500 
L 1178 3500 
L 1178 0 
L 603 0 
L 603 3500 
z
M 603 4863 
L 1178 4863 
L 1178 4134 
L 603 4134 
L 603 4863 
z
" transform="scale(0.015625)"/>
       <path id="DejaVuSans-74" d="M 1172 4494 
L 1172 3500 
L 2356 3500 
L 2356 3053 
L 1172 3053 
L 1172 1153 
Q 1172 725 1289 603 
Q 1406 481 1766 481 
L 2356 481 
L 2356 0 
L 1766 0 
Q 1100 0 847 248 
Q 594 497 594 1153 
L 594 3053 
L 172 3053 
L 172 3500 
L 594 3500 
L 594 4494 
L 1172 4494 
z
" transform="scale(0.015625)"/>
       <path id="DejaVuSans-68" d="M 3513 2113 
L 3513 0 
L 2938 0 
L 2938 2094 
Q 2938 2591 2744 2837 
Q 2550 3084 2163 3084 
Q 1697 3084 1428 2787 
Q 1159 2491 1159 1978 
L 1159 0 
L 581 0 
L 581 4863 
L 1159 4863 
L 1159 2956 
Q 1366 3272 1645 3428 
Q 1925 3584 2291 3584 
Q 2894 3584 3203 3211 
Q 3513 2838 3513 2113 
z
" transform="scale(0.015625)"/>
       <path id="DejaVuSans-63" d="M 3122 3366 
L 3122 2828 
Q 2878 2963 2633 3030 
Q 2388 3097 2138 3097 
Q 1578 3097 1268 2742 
Q 959 2388 959 1747 
Q 959 1106 1268 751 
Q 1578 397 2138 397 
Q 2388 397 2633 464 
Q 2878 531 3122 666 
L 3122 134 
Q 2881 22 2623 -34 
Q 2366 -91 2075 -91 
Q 1284 -91 818 406 
Q 353 903 353 1747 
Q 353 2603 823 3093 
Q 1294 3584 2113 3584 
Q 2378 3584 2631 3529 
Q 2884 3475 3122 3366 
z
" transform="scale(0.015625)"/>
       <path id="DejaVuSans-3d" d="M 678 2906 
L 4684 2906 
L 4684 2381 
L 678 2381 
L 678 2906 
z
M 678 1631 
L 4684 1631 
L 4684 1100 
L 678 1100 
L 678 1631 
z
" transform="scale(0.015625)"/>
       <path id="DejaVuSans-31" d="M 794 531 
L 1825 531 
L 1825 4091 
L 703 3866 
L 703 4441 
L 1819 4666 
L 2450 4666 
L 2450 531 
L 3481 531 
L 3481 0 
L 794 0 
L 794 531 
z
" transform="scale(0.015625)"/>
       <path id="DejaVuSans-2c" d="M 750 794 
L 1409 794 
L 1409 256 
L 897 -744 
L 494 -744 
L 750 256 
L 750 794 
z
" transform="scale(0.015625)"/>
       <path id="DejaVuSans-3c3" d="M 1959 3044 
Q 1484 3044 1228 2700 
Q 959 2341 959 1747 
Q 959 1119 1226 758 
Q 1494 397 1959 397 
Q 2419 397 2687 759 
Q 2956 1122 2956 1747 
Q 2956 2319 2688 2700 
Q 2441 3044 1959 3044 
z
M 1959 3500 
L 3869 3500 
L 3869 2925 
L 3225 2925 
Q 3566 2438 3566 1747 
Q 3566 888 3138 400 
Q 2709 -91 1959 -91 
Q 1206 -91 781 400 
Q 353 888 353 1747 
Q 353 2613 781 3097 
Q 1134 3500 1959 3500 
z
" transform="scale(0.015625)"/>
       <path id="DejaVuSans-2e" d="M 684 794 
L 1344 794 
L 1344 0 
L 684 0 
L 684 794 
z
" transform="scale(0.015625)"/>
      </defs>
      <use xlink:href="#DejaVuSans-41"/>
      <use xlink:href="#DejaVuSans-52" x="68.408203"/>
      <use xlink:href="#DejaVuSans-28" x="137.890625"/>
      <use xlink:href="#DejaVuSans-30" x="176.904297"/>
      <use xlink:href="#DejaVuSans-29" x="240.527344"/>
      <use xlink:href="#DejaVuSans-20" x="279.541016"/>
      <use xlink:href="#DejaVuSans-77" x="311.328125"/>
      <use xlink:href="#DejaVuSans-69" x="393.115234"/>
      <use xlink:href="#DejaVuSans-74" x="420.898438"/>
      <use xlink:href="#DejaVuSans-68" x="460.107422"/>
      <use xlink:href="#DejaVuSans-20" x="523.486328"/>
      <use xlink:href="#DejaVuSans-63" x="555.273438"/>
      <use xlink:href="#DejaVuSans-3d" x="610.253906"/>
      <use xlink:href="#DejaVuSans-31" x="694.042969"/>
      <use xlink:href="#DejaVuSans-2c" x="757.666016"/>
      <use xlink:href="#DejaVuSans-20" x="789.453125"/>
      <use xlink:href="#DejaVuSans-3c3" x="821.240234"/>
      <use xlink:href="#DejaVuSans-3d" x="884.619141"/>
      <use xlink:href="#DejaVuSans-30" x="968.408203"/>
      <use xlink:href="#DejaVuSans-2e" x="1032.03125"/>
      <use xlink:href="#DejaVuSans-32" x="1063.818359"/>
     </g>
    </g>
   </g>
  </g>
  <g id="axes_2">
   <g id="patch_8">
    <path d="M 90 267.077647 
L 648 267.077647 
L 648 169.242353 
L 90 169.242353 
z
" style="fill: #ffffff"/>
   </g>
   <g id="matplotlib.axis_3">
    <g id="xtick_7">
     <g id="line2d_13">
      <g>
       <use xlink:href="#m8a308921f1" x="115.363636" y="267.077647" style="stroke: #000000; stroke-width: 0.8"/>
      </g>
     </g>
    </g>
    <g id="xtick_8">
     <g id="line2d_14">
      <g>
       <use xlink:href="#m8a308921f1" x="217.842975" y="267.077647" style="stroke: #000000; stroke-width: 0.8"/>
      </g>
     </g>
    </g>
    <g id="xtick_9">
     <g id="line2d_15">
      <g>
       <use xlink:href="#m8a308921f1" x="320.322314" y="267.077647" style="stroke: #000000; stroke-width: 0.8"/>
      </g>
     </g>
    </g>
    <g id="xtick_10">
     <g id="line2d_16">
      <g>
       <use xlink:href="#m8a308921f1" x="422.801653" y="267.077647" style="stroke: #000000; stroke-width: 0.8"/>
      </g>
     </g>
    </g>
    <g id="xtick_11">
     <g id="line2d_17">
      <g>
       <use xlink:href="#m8a308921f1" x="525.280992" y="267.077647" style="stroke: #000000; stroke-width: 0.8"/>
      </g>
     </g>
    </g>
    <g id="xtick_12">
     <g id="line2d_18">
      <g>
       <use xlink:href="#m8a308921f1" x="627.760331" y="267.077647" style="stroke: #000000; stroke-width: 0.8"/>
      </g>
     </g>
    </g>
   </g>
   <g id="matplotlib.axis_4">
    <g id="ytick_5">
     <g id="line2d_19">
      <g>
       <use xlink:href="#m17b26a5466" x="90" y="245.427966" style="stroke: #000000; stroke-width: 0.8"/>
      </g>
     </g>
     <g id="text_6">
      <!-- 0 -->
      <g transform="translate(76.6375 249.227185) scale(0.1 -0.1)">
       <use xlink:href="#DejaVuSans-30"/>
      </g>
     </g>
    </g>
    <g id="ytick_6">
     <g id="line2d_20">
      <g>
       <use xlink:href="#m17b26a5466" x="90" y="220.56427" style="stroke: #000000; stroke-width: 0.8"/>
      </g>
     </g>
     <g id="text_7">
      <!-- 2 -->
      <g transform="translate(76.6375 224.363489) scale(0.1 -0.1)">
       <use xlink:href="#DejaVuSans-32"/>
      </g>
     </g>
    </g>
    <g id="ytick_7">
     <g id="line2d_21">
      <g>
       <use xlink:href="#m17b26a5466" x="90" y="195.700574" style="stroke: #000000; stroke-width: 0.8"/>
      </g>
     </g>
     <g id="text_8">
      <!-- 4 -->
      <g transform="translate(76.6375 199.499793) scale(0.1 -0.1)">
       <use xlink:href="#DejaVuSans-34"/>
      </g>
     </g>
    </g>
    <g id="ytick_8">
     <g id="line2d_22">
      <g>
       <use xlink:href="#m17b26a5466" x="90" y="170.836878" style="stroke: #000000; stroke-width: 0.8"/>
      </g>
     </g>
     <g id="text_9">
      <!-- 6 -->
      <g transform="translate(76.6375 174.636097) scale(0.1 -0.1)">
       <use xlink:href="#DejaVuSans-36"/>
      </g>
     </g>
    </g>
   </g>
   <g id="line2d_23">
    <path d="M 115.363636 261.378949 
L 120.487603 258.905694 
L 125.61157 258.711929 
L 130.735537 259.854572 
L 135.859504 258.26083 
L 140.983471 256.855194 
L 146.107438 253.170059 
L 151.231405 257.425749 
L 156.355372 257.219448 
L 161.479339 258.044914 
L 166.603306 262.630588 
L 171.727273 257.925737 
L 176.85124 257.710059 
L 181.975207 251.735284 
L 187.099174 258.338094 
L 192.22314 257.110056 
L 197.347107 257.94612 
L 202.471074 260.765579 
L 207.595041 255.018334 
L 212.719008 255.99023 
L 217.842975 255.893016 
L 222.966942 260.120887 
L 228.090909 254.371949 
L 233.214876 261.345334 
L 238.338843 256.40067 
L 243.46281 252.413532 
L 248.586777 260.322653 
L 253.710744 259.267839 
L 258.834711 257.612044 
L 263.958678 259.11164 
L 269.082645 261.715336 
L 274.206612 257.689341 
L 279.330579 260.501093 
L 284.454545 256.682288 
L 289.578512 260.145842 
L 294.702479 254.006104 
L 299.826446 259.807271 
L 304.950413 258.660578 
L 310.07438 255.837109 
L 315.198347 260.920197 
L 320.322314 257.294264 
L 325.446281 254.609774 
L 330.570248 261.856611 
L 335.694215 257.400746 
L 340.818182 257.213649 
L 345.942149 255.915913 
L 351.066116 260.93533 
L 356.190083 261.142957 
L 361.31405 256.562074 
L 366.438017 257.1214 
L 371.561983 257.236996 
L 376.68595 256.998416 
L 381.809917 259.550607 
L 386.933884 257.282345 
L 392.057851 257.131127 
L 397.181818 259.635955 
L 402.305785 253.220809 
L 407.429752 256.68169 
L 412.553719 260.821835 
L 417.677686 256.227379 
L 422.801653 260.283233 
L 427.92562 255.902831 
L 433.049587 254.979117 
L 438.173554 259.900333 
L 443.297521 255.464505 
L 448.421488 256.833488 
L 453.545455 255.815868 
L 458.669421 253.143685 
L 463.793388 258.469939 
L 468.917355 259.733881 
L 474.041322 260.071475 
L 479.165289 259.88822 
L 484.289256 258.051517 
L 489.413223 257.011584 
L 494.53719 257.171858 
L 499.661157 255.803131 
L 504.785124 257.827486 
L 509.909091 254.245791 
L 515.033058 258.517849 
L 520.157025 251.096468 
L 525.280992 256.304174 
L 530.404959 259.991024 
L 535.528926 260.522448 
L 540.652893 256.660209 
L 545.77686 258.415425 
L 550.900826 256.084545 
L 556.024793 256.68317 
L 561.14876 258.040893 
L 566.272727 259.965256 
L 571.396694 261.626284 
L 576.520661 258.970015 
L 581.644628 255.73049 
L 586.768595 257.327498 
L 591.892562 260.957181 
L 597.016529 257.429222 
L 602.140496 256.901772 
L 607.264463 260.05741 
L 612.38843 257.477596 
L 617.512397 257.715085 
L 622.636364 260.70166 
" clip-path="url(#pa67f4b8b0f)" style="fill: none; stroke: #1f77b4; stroke-width: 1.5; stroke-linecap: square"/>
   </g>
   <g id="patch_9">
    <path d="M 90 267.077647 
L 90 169.242353 
" style="fill: none; stroke: #000000; stroke-width: 0.8; stroke-linejoin: miter; stroke-linecap: square"/>
   </g>
   <g id="patch_10">
    <path d="M 648 267.077647 
L 648 169.242353 
" style="fill: none; stroke: #000000; stroke-width: 0.8; stroke-linejoin: miter; stroke-linecap: square"/>
   </g>
   <g id="patch_11">
    <path d="M 90 267.077647 
L 648 267.077647 
" style="fill: none; stroke: #000000; stroke-width: 0.8; stroke-linejoin: miter; stroke-linecap: square"/>
   </g>
   <g id="patch_12">
    <path d="M 90 169.242353 
L 648 169.242353 
" style="fill: none; stroke: #000000; stroke-width: 0.8; stroke-linejoin: miter; stroke-linecap: square"/>
   </g>
   <g id="legend_2">
    <g id="patch_13">
     <path d="M 492.65 191.920478 
L 641 191.920478 
Q 643 191.920478 643 189.920478 
L 643 176.242353 
Q 643 174.242353 641 174.242353 
L 492.65 174.242353 
Q 490.65 174.242353 490.65 176.242353 
L 490.65 189.920478 
Q 490.65 191.920478 492.65 191.920478 
z
" style="fill: #ffffff; opacity: 0.8; stroke: #cccccc; stroke-linejoin: miter"/>
    </g>
    <g id="line2d_24">
     <path d="M 494.65 182.34079 
L 504.65 182.34079 
L 514.65 182.34079 
" style="fill: none; stroke: #1f77b4; stroke-width: 1.5; stroke-linecap: square"/>
    </g>
    <g id="text_10">
     <!-- AR(0) with c=-1, σ=0.2 -->
     <g transform="translate(522.65 185.84079) scale(0.1 -0.1)">
      <defs>
       <path id="DejaVuSans-2d" d="M 313 2009 
L 1997 2009 
L 1997 1497 
L 313 1497 
L 313 2009 
z
" transform="scale(0.015625)"/>
      </defs>
      <use xlink:href="#DejaVuSans-41"/>
      <use xlink:href="#DejaVuSans-52" x="68.408203"/>
      <use xlink:href="#DejaVuSans-28" x="137.890625"/>
      <use xlink:href="#DejaVuSans-30" x="176.904297"/>
      <use xlink:href="#DejaVuSans-29" x="240.527344"/>
      <use xlink:href="#DejaVuSans-20" x="279.541016"/>
      <use xlink:href="#DejaVuSans-77" x="311.328125"/>
      <use xlink:href="#DejaVuSans-69" x="393.115234"/>
      <use xlink:href="#DejaVuSans-74" x="420.898438"/>
      <use xlink:href="#DejaVuSans-68" x="460.107422"/>
      <use xlink:href="#DejaVuSans-20" x="523.486328"/>
      <use xlink:href="#DejaVuSans-63" x="555.273438"/>
      <use xlink:href="#DejaVuSans-3d" x="610.253906"/>
      <use xlink:href="#DejaVuSans-2d" x="694.042969"/>
      <use xlink:href="#DejaVuSans-31" x="730.126953"/>
      <use xlink:href="#DejaVuSans-2c" x="793.75"/>
      <use xlink:href="#DejaVuSans-20" x="825.537109"/>
      <use xlink:href="#DejaVuSans-3c3" x="857.324219"/>
      <use xlink:href="#DejaVuSans-3d" x="920.703125"/>
      <use xlink:href="#DejaVuSans-30" x="1004.492188"/>
      <use xlink:href="#DejaVuSans-2e" x="1068.115234"/>
      <use xlink:href="#DejaVuSans-32" x="1099.902344"/>
     </g>
    </g>
   </g>
  </g>
  <g id="axes_3">
   <g id="patch_14">
    <path d="M 90 384.48 
L 648 384.48 
L 648 286.644706 
L 90 286.644706 
z
" style="fill: #ffffff"/>
   </g>
   <g id="matplotlib.axis_5">
    <g id="xtick_13">
     <g id="line2d_25">
      <g>
       <use xlink:href="#m8a308921f1" x="115.363636" y="384.48" style="stroke: #000000; stroke-width: 0.8"/>
      </g>
     </g>
     <g id="text_11">
      <!-- 0 -->
      <g transform="translate(112.182386 399.078438) scale(0.1 -0.1)">
       <use xlink:href="#DejaVuSans-30"/>
      </g>
     </g>
    </g>
    <g id="xtick_14">
     <g id="line2d_26">
      <g>
       <use xlink:href="#m8a308921f1" x="217.842975" y="384.48" style="stroke: #000000; stroke-width: 0.8"/>
      </g>
     </g>
     <g id="text_12">
      <!-- 20 -->
      <g transform="translate(211.480475 399.078438) scale(0.1 -0.1)">
       <use xlink:href="#DejaVuSans-32"/>
       <use xlink:href="#DejaVuSans-30" x="63.623047"/>
      </g>
     </g>
    </g>
    <g id="xtick_15">
     <g id="line2d_27">
      <g>
       <use xlink:href="#m8a308921f1" x="320.322314" y="384.48" style="stroke: #000000; stroke-width: 0.8"/>
      </g>
     </g>
     <g id="text_13">
      <!-- 40 -->
      <g transform="translate(313.959814 399.078438) scale(0.1 -0.1)">
       <use xlink:href="#DejaVuSans-34"/>
       <use xlink:href="#DejaVuSans-30" x="63.623047"/>
      </g>
     </g>
    </g>
    <g id="xtick_16">
     <g id="line2d_28">
      <g>
       <use xlink:href="#m8a308921f1" x="422.801653" y="384.48" style="stroke: #000000; stroke-width: 0.8"/>
      </g>
     </g>
     <g id="text_14">
      <!-- 60 -->
      <g transform="translate(416.439153 399.078438) scale(0.1 -0.1)">
       <use xlink:href="#DejaVuSans-36"/>
       <use xlink:href="#DejaVuSans-30" x="63.623047"/>
      </g>
     </g>
    </g>
    <g id="xtick_17">
     <g id="line2d_29">
      <g>
       <use xlink:href="#m8a308921f1" x="525.280992" y="384.48" style="stroke: #000000; stroke-width: 0.8"/>
      </g>
     </g>
     <g id="text_15">
      <!-- 80 -->
      <g transform="translate(518.918492 399.078438) scale(0.1 -0.1)">
       <defs>
        <path id="DejaVuSans-38" d="M 2034 2216 
Q 1584 2216 1326 1975 
Q 1069 1734 1069 1313 
Q 1069 891 1326 650 
Q 1584 409 2034 409 
Q 2484 409 2743 651 
Q 3003 894 3003 1313 
Q 3003 1734 2745 1975 
Q 2488 2216 2034 2216 
z
M 1403 2484 
Q 997 2584 770 2862 
Q 544 3141 544 3541 
Q 544 4100 942 4425 
Q 1341 4750 2034 4750 
Q 2731 4750 3128 4425 
Q 3525 4100 3525 3541 
Q 3525 3141 3298 2862 
Q 3072 2584 2669 2484 
Q 3125 2378 3379 2068 
Q 3634 1759 3634 1313 
Q 3634 634 3220 271 
Q 2806 -91 2034 -91 
Q 1263 -91 848 271 
Q 434 634 434 1313 
Q 434 1759 690 2068 
Q 947 2378 1403 2484 
z
M 1172 3481 
Q 1172 3119 1398 2916 
Q 1625 2713 2034 2713 
Q 2441 2713 2670 2916 
Q 2900 3119 2900 3481 
Q 2900 3844 2670 4047 
Q 2441 4250 2034 4250 
Q 1625 4250 1398 4047 
Q 1172 3844 1172 3481 
z
" transform="scale(0.015625)"/>
       </defs>
       <use xlink:href="#DejaVuSans-38"/>
       <use xlink:href="#DejaVuSans-30" x="63.623047"/>
      </g>
     </g>
    </g>
    <g id="xtick_18">
     <g id="line2d_30">
      <g>
       <use xlink:href="#m8a308921f1" x="627.760331" y="384.48" style="stroke: #000000; stroke-width: 0.8"/>
      </g>
     </g>
     <g id="text_16">
      <!-- 100 -->
      <g transform="translate(618.216581 399.078438) scale(0.1 -0.1)">
       <use xlink:href="#DejaVuSans-31"/>
       <use xlink:href="#DejaVuSans-30" x="63.623047"/>
       <use xlink:href="#DejaVuSans-30" x="127.246094"/>
      </g>
     </g>
    </g>
    <g id="text_17">
     <!-- t -->
     <g transform="translate(367.039844 412.756563) scale(0.1 -0.1)">
      <use xlink:href="#DejaVuSans-74"/>
     </g>
    </g>
   </g>
   <g id="matplotlib.axis_6">
    <g id="ytick_9">
     <g id="line2d_31">
      <g>
       <use xlink:href="#m17b26a5466" x="90" y="362.830319" style="stroke: #000000; stroke-width: 0.8"/>
      </g>
     </g>
     <g id="text_18">
      <!-- 0 -->
      <g transform="translate(76.6375 366.629538) scale(0.1 -0.1)">
       <use xlink:href="#DejaVuSans-30"/>
      </g>
     </g>
    </g>
    <g id="ytick_10">
     <g id="line2d_32">
      <g>
       <use xlink:href="#m17b26a5466" x="90" y="337.966623" style="stroke: #000000; stroke-width: 0.8"/>
      </g>
     </g>
     <g id="text_19">
      <!-- 2 -->
      <g transform="translate(76.6375 341.765842) scale(0.1 -0.1)">
       <use xlink:href="#DejaVuSans-32"/>
      </g>
     </g>
    </g>
    <g id="ytick_11">
     <g id="line2d_33">
      <g>
       <use xlink:href="#m17b26a5466" x="90" y="313.102927" style="stroke: #000000; stroke-width: 0.8"/>
      </g>
     </g>
     <g id="text_20">
      <!-- 4 -->
      <g transform="translate(76.6375 316.902146) scale(0.1 -0.1)">
       <use xlink:href="#DejaVuSans-34"/>
      </g>
     </g>
    </g>
    <g id="ytick_12">
     <g id="line2d_34">
      <g>
       <use xlink:href="#m17b26a5466" x="90" y="288.239231" style="stroke: #000000; stroke-width: 0.8"/>
      </g>
     </g>
     <g id="text_21">
      <!-- 6 -->
      <g transform="translate(76.6375 292.03845) scale(0.1 -0.1)">
       <use xlink:href="#DejaVuSans-36"/>
      </g>
     </g>
    </g>
   </g>
   <g id="line2d_35">
    <path d="M 115.363636 299.781488 
L 120.487603 299.276762 
L 125.61157 297.978213 
L 130.735537 298.050938 
L 135.859504 304.096474 
L 140.983471 303.002859 
L 146.107438 299.390511 
L 151.231405 299.393617 
L 156.355372 299.39048 
L 161.479339 291.091765 
L 166.603306 299.251634 
L 171.727273 297.847643 
L 176.85124 298.299078 
L 181.975207 299.05148 
L 187.099174 301.454955 
L 192.22314 298.784001 
L 197.347107 302.592608 
L 202.471074 301.259898 
L 207.595041 301.877872 
L 212.719008 300.46751 
L 217.842975 294.915982 
L 222.966942 305.313791 
L 228.090909 298.964783 
L 233.214876 304.680887 
L 238.338843 301.844476 
L 243.46281 297.963545 
L 248.586777 300.511255 
L 253.710744 303.350751 
L 258.834711 302.449589 
L 263.958678 298.981348 
L 269.082645 302.48704 
L 274.206612 300.132883 
L 279.330579 300.557771 
L 284.454545 302.291198 
L 289.578512 295.340442 
L 294.702479 299.094922 
L 299.826446 305.706332 
L 304.950413 300.207485 
L 310.07438 302.316525 
L 315.198347 298.551615 
L 320.322314 302.641579 
L 325.446281 300.956356 
L 330.570248 299.415494 
L 335.694215 298.518492 
L 340.818182 303.65546 
L 345.942149 301.502773 
L 351.066116 301.851969 
L 356.190083 302.295497 
L 361.31405 296.281507 
L 366.438017 299.664145 
L 371.561983 303.806103 
L 376.68595 298.388935 
L 381.809917 295.394614 
L 386.933884 298.103989 
L 392.057851 304.448794 
L 397.181818 301.875064 
L 402.305785 297.52107 
L 407.429752 302.430607 
L 412.553719 299.56758 
L 417.677686 298.745053 
L 422.801653 302.975771 
L 427.92562 300.819081 
L 433.049587 308.730068 
L 438.173554 303.218085 
L 443.297521 301.299057 
L 448.421488 303.773529 
L 453.545455 296.612301 
L 458.669421 304.226939 
L 463.793388 301.765192 
L 468.917355 300.34601 
L 474.041322 297.087541 
L 479.165289 304.241163 
L 484.289256 297.779024 
L 489.413223 300.645636 
L 494.53719 303.111472 
L 499.661157 299.522119 
L 504.785124 300.176143 
L 509.909091 302.16344 
L 515.033058 300.497525 
L 520.157025 301.629111 
L 525.280992 300.388833 
L 530.404959 299.024778 
L 535.528926 296.727655 
L 540.652893 303.748746 
L 545.77686 295.36757 
L 550.900826 305.524691 
L 556.024793 301.048473 
L 561.14876 299.208305 
L 566.272727 299.972429 
L 571.396694 302.21934 
L 576.520661 301.188548 
L 581.644628 301.896862 
L 586.768595 302.136458 
L 591.892562 298.558654 
L 597.016529 299.783407 
L 602.140496 302.393908 
L 607.264463 298.434341 
L 612.38843 299.907019 
L 617.512397 298.650003 
L 622.636364 299.105589 
" clip-path="url(#p217850e8d8)" style="fill: none; stroke: #1f77b4; stroke-width: 1.5; stroke-linecap: square"/>
   </g>
   <g id="patch_15">
    <path d="M 90 384.48 
L 90 286.644706 
" style="fill: none; stroke: #000000; stroke-width: 0.8; stroke-linejoin: miter; stroke-linecap: square"/>
   </g>
   <g id="patch_16">
    <path d="M 648 384.48 
L 648 286.644706 
" style="fill: none; stroke: #000000; stroke-width: 0.8; stroke-linejoin: miter; stroke-linecap: square"/>
   </g>
   <g id="patch_17">
    <path d="M 90 384.48 
L 648 384.48 
" style="fill: none; stroke: #000000; stroke-width: 0.8; stroke-linejoin: miter; stroke-linecap: square"/>
   </g>
   <g id="patch_18">
    <path d="M 90 286.644706 
L 648 286.644706 
" style="fill: none; stroke: #000000; stroke-width: 0.8; stroke-linejoin: miter; stroke-linecap: square"/>
   </g>
   <g id="legend_3">
    <g id="patch_19">
     <path d="M 97 379.48 
L 241.742188 379.48 
Q 243.742188 379.48 243.742188 377.48 
L 243.742188 363.801875 
Q 243.742188 361.801875 241.742188 361.801875 
L 97 361.801875 
Q 95 361.801875 95 363.801875 
L 95 377.48 
Q 95 379.48 97 379.48 
z
" style="fill: #ffffff; opacity: 0.8; stroke: #cccccc; stroke-linejoin: miter"/>
    </g>
    <g id="line2d_36">
     <path d="M 99 369.900312 
L 109 369.900312 
L 119 369.900312 
" style="fill: none; stroke: #1f77b4; stroke-width: 1.5; stroke-linecap: square"/>
    </g>
    <g id="text_22">
     <!-- AR(0) with c=5, σ=0.2 -->
     <g transform="translate(127 373.400312) scale(0.1 -0.1)">
      <defs>
       <path id="DejaVuSans-35" d="M 691 4666 
L 3169 4666 
L 3169 4134 
L 1269 4134 
L 1269 2991 
Q 1406 3038 1543 3061 
Q 1681 3084 1819 3084 
Q 2600 3084 3056 2656 
Q 3513 2228 3513 1497 
Q 3513 744 3044 326 
Q 2575 -91 1722 -91 
Q 1428 -91 1123 -41 
Q 819 9 494 109 
L 494 744 
Q 775 591 1075 516 
Q 1375 441 1709 441 
Q 2250 441 2565 725 
Q 2881 1009 2881 1497 
Q 2881 1984 2565 2268 
Q 2250 2553 1709 2553 
Q 1456 2553 1204 2497 
Q 953 2441 691 2322 
L 691 4666 
z
" transform="scale(0.015625)"/>
      </defs>
      <use xlink:href="#DejaVuSans-41"/>
      <use xlink:href="#DejaVuSans-52" x="68.408203"/>
      <use xlink:href="#DejaVuSans-28" x="137.890625"/>
      <use xlink:href="#DejaVuSans-30" x="176.904297"/>
      <use xlink:href="#DejaVuSans-29" x="240.527344"/>
      <use xlink:href="#DejaVuSans-20" x="279.541016"/>
      <use xlink:href="#DejaVuSans-77" x="311.328125"/>
      <use xlink:href="#DejaVuSans-69" x="393.115234"/>
      <use xlink:href="#DejaVuSans-74" x="420.898438"/>
      <use xlink:href="#DejaVuSans-68" x="460.107422"/>
      <use xlink:href="#DejaVuSans-20" x="523.486328"/>
      <use xlink:href="#DejaVuSans-63" x="555.273438"/>
      <use xlink:href="#DejaVuSans-3d" x="610.253906"/>
      <use xlink:href="#DejaVuSans-35" x="694.042969"/>
      <use xlink:href="#DejaVuSans-2c" x="757.666016"/>
      <use xlink:href="#DejaVuSans-20" x="789.453125"/>
      <use xlink:href="#DejaVuSans-3c3" x="821.240234"/>
      <use xlink:href="#DejaVuSans-3d" x="884.619141"/>
      <use xlink:href="#DejaVuSans-30" x="968.408203"/>
      <use xlink:href="#DejaVuSans-2e" x="1032.03125"/>
      <use xlink:href="#DejaVuSans-32" x="1063.818359"/>
     </g>
    </g>
   </g>
  </g>
 </g>
 <defs>
  <clipPath id="p07b888b83f">
   <rect x="90" y="51.84" width="558" height="97.835294"/>
  </clipPath>
  <clipPath id="pa67f4b8b0f">
   <rect x="90" y="169.242353" width="558" height="97.835294"/>
  </clipPath>
  <clipPath id="p217850e8d8">
   <rect x="90" y="286.644706" width="558" height="97.835294"/>
  </clipPath>
 </defs>
</svg>
