<?xml version="1.0" encoding="utf-8" standalone="no"?>
<!DOCTYPE svg PUBLIC "-//W3C//DTD SVG 1.1//EN"
  "http://www.w3.org/Graphics/SVG/1.1/DTD/svg11.dtd">
<svg xmlns:xlink="http://www.w3.org/1999/xlink" width="720pt" height="576pt" viewBox="0 0 720 576" xmlns="http://www.w3.org/2000/svg" version="1.1">
 <metadata>
  <rdf:RDF xmlns:dc="http://purl.org/dc/elements/1.1/" xmlns:cc="http://creativecommons.org/ns#" xmlns:rdf="http://www.w3.org/1999/02/22-rdf-syntax-ns#">
   <cc:Work>
    <dc:type rdf:resource="http://purl.org/dc/dcmitype/StillImage"/>
    <dc:date>2024-02-17T10:58:50.635290</dc:date>
    <dc:format>image/svg+xml</dc:format>
    <dc:creator>
     <cc:Agent>
      <dc:title>Matplotlib v3.8.2, https://matplotlib.org/</dc:title>
     </cc:Agent>
    </dc:creator>
   </cc:Work>
  </rdf:RDF>
 </metadata>
 <defs>
  <style type="text/css">*{stroke-linejoin: round; stroke-linecap: butt}</style>
 </defs>
 <g id="figure_1">
  <g id="patch_1">
   <path d="M 0 576 
L 720 576 
L 720 0 
L 0 0 
z
" style="fill: #ffffff"/>
  </g>
  <g id="axes_1">
   <g id="patch_2">
    <path d="M 32.515 265.27 
L 709.2 265.27 
L 709.2 26.16 
L 32.515 26.16 
z
" style="fill: #ffffff"/>
   </g>
   <g id="matplotlib.axis_1">
    <g id="xtick_1">
     <g id="line2d_1">
      <defs>
       <path id="m4168f9c6a2" d="M 0 0 
L 0 3.5 
" style="stroke: #000000; stroke-width: 0.8"/>
      </defs>
      <g>
       <use xlink:href="#m4168f9c6a2" x="63.273409" y="265.27" style="stroke: #000000; stroke-width: 0.8"/>
      </g>
     </g>
    </g>
    <g id="xtick_2">
     <g id="line2d_2">
      <g>
       <use xlink:href="#m4168f9c6a2" x="187.549809" y="265.27" style="stroke: #000000; stroke-width: 0.8"/>
      </g>
     </g>
    </g>
    <g id="xtick_3">
     <g id="line2d_3">
      <g>
       <use xlink:href="#m4168f9c6a2" x="311.82621" y="265.27" style="stroke: #000000; stroke-width: 0.8"/>
      </g>
     </g>
    </g>
    <g id="xtick_4">
     <g id="line2d_4">
      <g>
       <use xlink:href="#m4168f9c6a2" x="436.10261" y="265.27" style="stroke: #000000; stroke-width: 0.8"/>
      </g>
     </g>
    </g>
    <g id="xtick_5">
     <g id="line2d_5">
      <g>
       <use xlink:href="#m4168f9c6a2" x="560.379011" y="265.27" style="stroke: #000000; stroke-width: 0.8"/>
      </g>
     </g>
    </g>
    <g id="xtick_6">
     <g id="line2d_6">
      <g>
       <use xlink:href="#m4168f9c6a2" x="684.655411" y="265.27" style="stroke: #000000; stroke-width: 0.8"/>
      </g>
     </g>
    </g>
   </g>
   <g id="matplotlib.axis_2">
    <g id="ytick_1">
     <g id="line2d_7">
      <defs>
       <path id="meec6798a59" d="M 0 0 
L -3.5 0 
" style="stroke: #000000; stroke-width: 0.8"/>
      </defs>
      <g>
       <use xlink:href="#meec6798a59" x="32.515" y="243.93434" style="stroke: #000000; stroke-width: 0.8"/>
      </g>
     </g>
     <g id="text_1">
      <!-- 0 -->
      <g transform="translate(19.1525 247.733559) scale(0.1 -0.1)">
       <defs>
        <path id="DejaVuSans-30" d="M 2034 4250 
Q 1547 4250 1301 3770 
Q 1056 3291 1056 2328 
Q 1056 1369 1301 889 
Q 1547 409 2034 409 
Q 2525 409 2770 889 
Q 3016 1369 3016 2328 
Q 3016 3291 2770 3770 
Q 2525 4250 2034 4250 
z
M 2034 4750 
Q 2819 4750 3233 4129 
Q 3647 3509 3647 2328 
Q 3647 1150 3233 529 
Q 2819 -91 2034 -91 
Q 1250 -91 836 529 
Q 422 1150 422 2328 
Q 422 3509 836 4129 
Q 1250 4750 2034 4750 
z
" transform="scale(0.015625)"/>
       </defs>
       <use xlink:href="#DejaVuSans-30"/>
      </g>
     </g>
    </g>
    <g id="ytick_2">
     <g id="line2d_8">
      <g>
       <use xlink:href="#meec6798a59" x="32.515" y="195.608849" style="stroke: #000000; stroke-width: 0.8"/>
      </g>
     </g>
     <g id="text_2">
      <!-- 1 -->
      <g transform="translate(19.1525 199.408067) scale(0.1 -0.1)">
       <defs>
        <path id="DejaVuSans-31" d="M 794 531 
L 1825 531 
L 1825 4091 
L 703 3866 
L 703 4441 
L 1819 4666 
L 2450 4666 
L 2450 531 
L 3481 531 
L 3481 0 
L 794 0 
L 794 531 
z
" transform="scale(0.015625)"/>
       </defs>
       <use xlink:href="#DejaVuSans-31"/>
      </g>
     </g>
    </g>
    <g id="ytick_3">
     <g id="line2d_9">
      <g>
       <use xlink:href="#meec6798a59" x="32.515" y="147.283357" style="stroke: #000000; stroke-width: 0.8"/>
      </g>
     </g>
     <g id="text_3">
      <!-- 2 -->
      <g transform="translate(19.1525 151.082576) scale(0.1 -0.1)">
       <defs>
        <path id="DejaVuSans-32" d="M 1228 531 
L 3431 531 
L 3431 0 
L 469 0 
L 469 531 
Q 828 903 1448 1529 
Q 2069 2156 2228 2338 
Q 2531 2678 2651 2914 
Q 2772 3150 2772 3378 
Q 2772 3750 2511 3984 
Q 2250 4219 1831 4219 
Q 1534 4219 1204 4116 
Q 875 4013 500 3803 
L 500 4441 
Q 881 4594 1212 4672 
Q 1544 4750 1819 4750 
Q 2544 4750 2975 4387 
Q 3406 4025 3406 3419 
Q 3406 3131 3298 2873 
Q 3191 2616 2906 2266 
Q 2828 2175 2409 1742 
Q 1991 1309 1228 531 
z
" transform="scale(0.015625)"/>
       </defs>
       <use xlink:href="#DejaVuSans-32"/>
      </g>
     </g>
    </g>
    <g id="ytick_4">
     <g id="line2d_10">
      <g>
       <use xlink:href="#meec6798a59" x="32.515" y="98.957865" style="stroke: #000000; stroke-width: 0.8"/>
      </g>
     </g>
     <g id="text_4">
      <!-- 3 -->
      <g transform="translate(19.1525 102.757084) scale(0.1 -0.1)">
       <defs>
        <path id="DejaVuSans-33" d="M 2597 2516 
Q 3050 2419 3304 2112 
Q 3559 1806 3559 1356 
Q 3559 666 3084 287 
Q 2609 -91 1734 -91 
Q 1441 -91 1130 -33 
Q 819 25 488 141 
L 488 750 
Q 750 597 1062 519 
Q 1375 441 1716 441 
Q 2309 441 2620 675 
Q 2931 909 2931 1356 
Q 2931 1769 2642 2001 
Q 2353 2234 1838 2234 
L 1294 2234 
L 1294 2753 
L 1863 2753 
Q 2328 2753 2575 2939 
Q 2822 3125 2822 3475 
Q 2822 3834 2567 4026 
Q 2313 4219 1838 4219 
Q 1578 4219 1281 4162 
Q 984 4106 628 3988 
L 628 4550 
Q 988 4650 1302 4700 
Q 1616 4750 1894 4750 
Q 2613 4750 3031 4423 
Q 3450 4097 3450 3541 
Q 3450 3153 3228 2886 
Q 3006 2619 2597 2516 
z
" transform="scale(0.015625)"/>
       </defs>
       <use xlink:href="#DejaVuSans-33"/>
      </g>
     </g>
    </g>
    <g id="ytick_5">
     <g id="line2d_11">
      <g>
       <use xlink:href="#meec6798a59" x="32.515" y="50.632374" style="stroke: #000000; stroke-width: 0.8"/>
      </g>
     </g>
     <g id="text_5">
      <!-- 4 -->
      <g transform="translate(19.1525 54.431593) scale(0.1 -0.1)">
       <defs>
        <path id="DejaVuSans-34" d="M 2419 4116 
L 825 1625 
L 2419 1625 
L 2419 4116 
z
M 2253 4666 
L 3047 4666 
L 3047 1625 
L 3713 1625 
L 3713 1100 
L 3047 1100 
L 3047 0 
L 2419 0 
L 2419 1100 
L 313 1100 
L 313 1709 
L 2253 4666 
z
" transform="scale(0.015625)"/>
       </defs>
       <use xlink:href="#DejaVuSans-34"/>
      </g>
     </g>
    </g>
   </g>
   <g id="line2d_12">
    <path d="M 63.273409 184.307203 
L 69.487229 109.496523 
L 75.701049 98.171124 
L 81.914869 130.907511 
L 88.128689 73.741849 
L 94.342509 224.795401 
L 100.556329 86.871928 
L 106.770149 199.518954 
L 112.983969 203.705725 
L 119.197789 177.471901 
L 125.411609 169.456379 
L 131.625429 109.73456 
L 137.839249 179.629433 
L 144.053069 150.85471 
L 150.266889 177.011418 
L 156.480709 147.884554 
L 162.694529 150.714107 
L 168.908349 144.507571 
L 175.122169 172.470852 
L 181.335989 184.526196 
L 187.549809 152.022191 
L 193.763629 104.047258 
L 199.977449 154.577451 
L 206.19127 192.914022 
L 212.40509 140.452926 
L 218.61891 145.438908 
L 224.83273 106.226902 
L 231.04655 170.528225 
L 237.26037 244.898052 
L 243.47419 221.848389 
L 249.68801 221.600239 
L 255.90183 188.249286 
L 262.11565 198.54218 
L 268.32947 137.10276 
L 274.54329 156.118062 
L 280.75711 144.428955 
L 286.97093 138.238389 
L 293.18475 133.339572 
L 299.39857 141.477516 
L 305.61239 119.705407 
L 311.82621 171.944807 
L 318.04003 91.986523 
L 324.25385 131.065725 
L 330.46767 202.555798 
L 336.68149 165.83084 
L 342.89531 197.690814 
L 349.10913 140.334467 
L 355.32295 37.028636 
L 361.53677 130.16748 
L 367.75059 122.663362 
L 373.96441 219.80903 
L 380.17823 161.611 
L 386.39205 197.249733 
L 392.60587 202.461985 
L 398.81969 228.092882 
L 405.03351 152.306552 
L 411.24733 101.116476 
L 417.46115 123.069815 
L 423.67497 176.950431 
L 429.88879 85.302412 
L 436.10261 152.556823 
L 442.31643 254.401364 
L 448.53025 178.690486 
L 454.74407 216.375701 
L 460.95789 134.054523 
L 467.17171 159.087607 
L 473.38553 124.010743 
L 479.59935 67.918857 
L 485.81317 166.019806 
L 492.02699 184.000771 
L 498.24081 169.298906 
L 504.45463 83.988208 
L 510.66845 147.452451 
L 516.88227 176.097587 
L 523.09609 138.584094 
L 529.30991 170.828587 
L 535.52373 151.685084 
L 541.737551 224.463029 
L 547.951371 78.86461 
L 554.165191 178.202695 
L 560.379011 178.291883 
L 566.592831 164.357282 
L 572.806651 63.388725 
L 579.020471 169.359865 
L 585.234291 62.458133 
L 591.448111 68.279803 
L 597.661931 87.625244 
L 603.875751 165.037207 
L 610.089571 128.559601 
L 616.303391 172.884326 
L 622.517211 98.871814 
L 628.731031 170.004635 
L 634.944851 164.112436 
L 641.158671 182.531741 
L 647.372491 212.630082 
L 653.586311 144.132075 
L 659.800131 119.831409 
L 666.013951 75.131371 
L 672.227771 197.220703 
L 678.441591 120.825458 
" clip-path="url(#p2d5b83f60f)" style="fill: none; stroke: #1f77b4; stroke-width: 1.5; stroke-linecap: square"/>
   </g>
   <g id="patch_3">
    <path d="M 32.515 265.27 
L 32.515 26.16 
" style="fill: none; stroke: #000000; stroke-width: 0.8; stroke-linejoin: miter; stroke-linecap: square"/>
   </g>
   <g id="patch_4">
    <path d="M 709.2 265.27 
L 709.2 26.16 
" style="fill: none; stroke: #000000; stroke-width: 0.8; stroke-linejoin: miter; stroke-linecap: square"/>
   </g>
   <g id="patch_5">
    <path d="M 32.515 265.27 
L 709.2 265.27 
" style="fill: none; stroke: #000000; stroke-width: 0.8; stroke-linejoin: miter; stroke-linecap: square"/>
   </g>
   <g id="patch_6">
    <path d="M 32.515 26.16 
L 709.2 26.16 
" style="fill: none; stroke: #000000; stroke-width: 0.8; stroke-linejoin: miter; stroke-linecap: square"/>
   </g>
   <g id="text_6">
    <!-- One Realization of AR(1) Process with ϕ=0.5 -->
    <g transform="translate(237.708125 20.16) scale(0.12 -0.12)">
     <defs>
      <path id="DejaVuSans-4f" d="M 2522 4238 
Q 1834 4238 1429 3725 
Q 1025 3213 1025 2328 
Q 1025 1447 1429 934 
Q 1834 422 2522 422 
Q 3209 422 3611 934 
Q 4013 1447 4013 2328 
Q 4013 3213 3611 3725 
Q 3209 4238 2522 4238 
z
M 2522 4750 
Q 3503 4750 4090 4092 
Q 4678 3434 4678 2328 
Q 4678 1225 4090 567 
Q 3503 -91 2522 -91 
Q 1538 -91 948 565 
Q 359 1222 359 2328 
Q 359 3434 948 4092 
Q 1538 4750 2522 4750 
z
" transform="scale(0.015625)"/>
      <path id="DejaVuSans-6e" d="M 3513 2113 
L 3513 0 
L 2938 0 
L 2938 2094 
Q 2938 2591 2744 2837 
Q 2550 3084 2163 3084 
Q 1697 3084 1428 2787 
Q 1159 2491 1159 1978 
L 1159 0 
L 581 0 
L 581 3500 
L 1159 3500 
L 1159 2956 
Q 1366 3272 1645 3428 
Q 1925 3584 2291 3584 
Q 2894 3584 3203 3211 
Q 3513 2838 3513 2113 
z
" transform="scale(0.015625)"/>
      <path id="DejaVuSans-65" d="M 3597 1894 
L 3597 1613 
L 953 1613 
Q 991 1019 1311 708 
Q 1631 397 2203 397 
Q 2534 397 2845 478 
Q 3156 559 3463 722 
L 3463 178 
Q 3153 47 2828 -22 
Q 2503 -91 2169 -91 
Q 1331 -91 842 396 
Q 353 884 353 1716 
Q 353 2575 817 3079 
Q 1281 3584 2069 3584 
Q 2775 3584 3186 3129 
Q 3597 2675 3597 1894 
z
M 3022 2063 
Q 3016 2534 2758 2815 
Q 2500 3097 2075 3097 
Q 1594 3097 1305 2825 
Q 1016 2553 972 2059 
L 3022 2063 
z
" transform="scale(0.015625)"/>
      <path id="DejaVuSans-20" transform="scale(0.015625)"/>
      <path id="DejaVuSans-52" d="M 2841 2188 
Q 3044 2119 3236 1894 
Q 3428 1669 3622 1275 
L 4263 0 
L 3584 0 
L 2988 1197 
Q 2756 1666 2539 1819 
Q 2322 1972 1947 1972 
L 1259 1972 
L 1259 0 
L 628 0 
L 628 4666 
L 2053 4666 
Q 2853 4666 3247 4331 
Q 3641 3997 3641 3322 
Q 3641 2881 3436 2590 
Q 3231 2300 2841 2188 
z
M 1259 4147 
L 1259 2491 
L 2053 2491 
Q 2509 2491 2742 2702 
Q 2975 2913 2975 3322 
Q 2975 3731 2742 3939 
Q 2509 4147 2053 4147 
L 1259 4147 
z
" transform="scale(0.015625)"/>
      <path id="DejaVuSans-61" d="M 2194 1759 
Q 1497 1759 1228 1600 
Q 959 1441 959 1056 
Q 959 750 1161 570 
Q 1363 391 1709 391 
Q 2188 391 2477 730 
Q 2766 1069 2766 1631 
L 2766 1759 
L 2194 1759 
z
M 3341 1997 
L 3341 0 
L 2766 0 
L 2766 531 
Q 2569 213 2275 61 
Q 1981 -91 1556 -91 
Q 1019 -91 701 211 
Q 384 513 384 1019 
Q 384 1609 779 1909 
Q 1175 2209 1959 2209 
L 2766 2209 
L 2766 2266 
Q 2766 2663 2505 2880 
Q 2244 3097 1772 3097 
Q 1472 3097 1187 3025 
Q 903 2953 641 2809 
L 641 3341 
Q 956 3463 1253 3523 
Q 1550 3584 1831 3584 
Q 2591 3584 2966 3190 
Q 3341 2797 3341 1997 
z
" transform="scale(0.015625)"/>
      <path id="DejaVuSans-6c" d="M 603 4863 
L 1178 4863 
L 1178 0 
L 603 0 
L 603 4863 
z
" transform="scale(0.015625)"/>
      <path id="DejaVuSans-69" d="M 603 3500 
L 1178 3500 
L 1178 0 
L 603 0 
L 603 3500 
z
M 603 4863 
L 1178 4863 
L 1178 4134 
L 603 4134 
L 603 4863 
z
" transform="scale(0.015625)"/>
      <path id="DejaVuSans-7a" d="M 353 3500 
L 3084 3500 
L 3084 2975 
L 922 459 
L 3084 459 
L 3084 0 
L 275 0 
L 275 525 
L 2438 3041 
L 353 3041 
L 353 3500 
z
" transform="scale(0.015625)"/>
      <path id="DejaVuSans-74" d="M 1172 4494 
L 1172 3500 
L 2356 3500 
L 2356 3053 
L 1172 3053 
L 1172 1153 
Q 1172 725 1289 603 
Q 1406 481 1766 481 
L 2356 481 
L 2356 0 
L 1766 0 
Q 1100 0 847 248 
Q 594 497 594 1153 
L 594 3053 
L 172 3053 
L 172 3500 
L 594 3500 
L 594 4494 
L 1172 4494 
z
" transform="scale(0.015625)"/>
      <path id="DejaVuSans-6f" d="M 1959 3097 
Q 1497 3097 1228 2736 
Q 959 2375 959 1747 
Q 959 1119 1226 758 
Q 1494 397 1959 397 
Q 2419 397 2687 759 
Q 2956 1122 2956 1747 
Q 2956 2369 2687 2733 
Q 2419 3097 1959 3097 
z
M 1959 3584 
Q 2709 3584 3137 3096 
Q 3566 2609 3566 1747 
Q 3566 888 3137 398 
Q 2709 -91 1959 -91 
Q 1206 -91 779 398 
Q 353 888 353 1747 
Q 353 2609 779 3096 
Q 1206 3584 1959 3584 
z
" transform="scale(0.015625)"/>
      <path id="DejaVuSans-66" d="M 2375 4863 
L 2375 4384 
L 1825 4384 
Q 1516 4384 1395 4259 
Q 1275 4134 1275 3809 
L 1275 3500 
L 2222 3500 
L 2222 3053 
L 1275 3053 
L 1275 0 
L 697 0 
L 697 3053 
L 147 3053 
L 147 3500 
L 697 3500 
L 697 3744 
Q 697 4328 969 4595 
Q 1241 4863 1831 4863 
L 2375 4863 
z
" transform="scale(0.015625)"/>
      <path id="DejaVuSans-41" d="M 2188 4044 
L 1331 1722 
L 3047 1722 
L 2188 4044 
z
M 1831 4666 
L 2547 4666 
L 4325 0 
L 3669 0 
L 3244 1197 
L 1141 1197 
L 716 0 
L 50 0 
L 1831 4666 
z
" transform="scale(0.015625)"/>
      <path id="DejaVuSans-28" d="M 1984 4856 
Q 1566 4138 1362 3434 
Q 1159 2731 1159 2009 
Q 1159 1288 1364 580 
Q 1569 -128 1984 -844 
L 1484 -844 
Q 1016 -109 783 600 
Q 550 1309 550 2009 
Q 550 2706 781 3412 
Q 1013 4119 1484 4856 
L 1984 4856 
z
" transform="scale(0.015625)"/>
      <path id="DejaVuSans-29" d="M 513 4856 
L 1013 4856 
Q 1481 4119 1714 3412 
Q 1947 2706 1947 2009 
Q 1947 1309 1714 600 
Q 1481 -109 1013 -844 
L 513 -844 
Q 928 -128 1133 580 
Q 1338 1288 1338 2009 
Q 1338 2731 1133 3434 
Q 928 4138 513 4856 
z
" transform="scale(0.015625)"/>
      <path id="DejaVuSans-50" d="M 1259 4147 
L 1259 2394 
L 2053 2394 
Q 2494 2394 2734 2622 
Q 2975 2850 2975 3272 
Q 2975 3691 2734 3919 
Q 2494 4147 2053 4147 
L 1259 4147 
z
M 628 4666 
L 2053 4666 
Q 2838 4666 3239 4311 
Q 3641 3956 3641 3272 
Q 3641 2581 3239 2228 
Q 2838 1875 2053 1875 
L 1259 1875 
L 1259 0 
L 628 0 
L 628 4666 
z
" transform="scale(0.015625)"/>
      <path id="DejaVuSans-72" d="M 2631 2963 
Q 2534 3019 2420 3045 
Q 2306 3072 2169 3072 
Q 1681 3072 1420 2755 
Q 1159 2438 1159 1844 
L 1159 0 
L 581 0 
L 581 3500 
L 1159 3500 
L 1159 2956 
Q 1341 3275 1631 3429 
Q 1922 3584 2338 3584 
Q 2397 3584 2469 3576 
Q 2541 3569 2628 3553 
L 2631 2963 
z
" transform="scale(0.015625)"/>
      <path id="DejaVuSans-63" d="M 3122 3366 
L 3122 2828 
Q 2878 2963 2633 3030 
Q 2388 3097 2138 3097 
Q 1578 3097 1268 2742 
Q 959 2388 959 1747 
Q 959 1106 1268 751 
Q 1578 397 2138 397 
Q 2388 397 2633 464 
Q 2878 531 3122 666 
L 3122 134 
Q 2881 22 2623 -34 
Q 2366 -91 2075 -91 
Q 1284 -91 818 406 
Q 353 903 353 1747 
Q 353 2603 823 3093 
Q 1294 3584 2113 3584 
Q 2378 3584 2631 3529 
Q 2884 3475 3122 3366 
z
" transform="scale(0.015625)"/>
      <path id="DejaVuSans-73" d="M 2834 3397 
L 2834 2853 
Q 2591 2978 2328 3040 
Q 2066 3103 1784 3103 
Q 1356 3103 1142 2972 
Q 928 2841 928 2578 
Q 928 2378 1081 2264 
Q 1234 2150 1697 2047 
L 1894 2003 
Q 2506 1872 2764 1633 
Q 3022 1394 3022 966 
Q 3022 478 2636 193 
Q 2250 -91 1575 -91 
Q 1294 -91 989 -36 
Q 684 19 347 128 
L 347 722 
Q 666 556 975 473 
Q 1284 391 1588 391 
Q 1994 391 2212 530 
Q 2431 669 2431 922 
Q 2431 1156 2273 1281 
Q 2116 1406 1581 1522 
L 1381 1569 
Q 847 1681 609 1914 
Q 372 2147 372 2553 
Q 372 3047 722 3315 
Q 1072 3584 1716 3584 
Q 2034 3584 2315 3537 
Q 2597 3491 2834 3397 
z
" transform="scale(0.015625)"/>
      <path id="DejaVuSans-77" d="M 269 3500 
L 844 3500 
L 1563 769 
L 2278 3500 
L 2956 3500 
L 3675 769 
L 4391 3500 
L 4966 3500 
L 4050 0 
L 3372 0 
L 2619 2869 
L 1863 0 
L 1184 0 
L 269 3500 
z
" transform="scale(0.015625)"/>
      <path id="DejaVuSans-68" d="M 3513 2113 
L 3513 0 
L 2938 0 
L 2938 2094 
Q 2938 2591 2744 2837 
Q 2550 3084 2163 3084 
Q 1697 3084 1428 2787 
Q 1159 2491 1159 1978 
L 1159 0 
L 581 0 
L 581 4863 
L 1159 4863 
L 1159 2956 
Q 1366 3272 1645 3428 
Q 1925 3584 2291 3584 
Q 2894 3584 3203 3211 
Q 3513 2838 3513 2113 
z
" transform="scale(0.015625)"/>
      <path id="DejaVuSans-3d5" d="M 2388 4863 
L 2388 3572 
Q 3009 3572 3425 3094 
Q 3853 2606 3853 1747 
Q 3853 888 3425 400 
Q 3009 -78 2388 -78 
L 2388 -1331 
L 1816 -1331 
L 1816 -78 
Q 1194 -78 775 400 
Q 350 888 350 1747 
Q 350 2606 775 3094 
Q 1194 3572 1816 3572 
L 1816 4863 
L 2388 4863 
z
M 2388 434 
Q 2741 434 2981 756 
Q 3244 1116 3247 1747 
Q 3250 2372 2981 2738 
Q 2741 3059 2388 3059 
L 2388 434 
z
M 1816 434 
L 1816 3059 
Q 1463 3059 1225 2738 
Q 953 2372 956 1747 
Q 959 1116 1225 756 
Q 1463 434 1816 434 
z
" transform="scale(0.015625)"/>
      <path id="DejaVuSans-3d" d="M 678 2906 
L 4684 2906 
L 4684 2381 
L 678 2381 
L 678 2906 
z
M 678 1631 
L 4684 1631 
L 4684 1100 
L 678 1100 
L 678 1631 
z
" transform="scale(0.015625)"/>
      <path id="DejaVuSans-2e" d="M 684 794 
L 1344 794 
L 1344 0 
L 684 0 
L 684 794 
z
" transform="scale(0.015625)"/>
      <path id="DejaVuSans-35" d="M 691 4666 
L 3169 4666 
L 3169 4134 
L 1269 4134 
L 1269 2991 
Q 1406 3038 1543 3061 
Q 1681 3084 1819 3084 
Q 2600 3084 3056 2656 
Q 3513 2228 3513 1497 
Q 3513 744 3044 326 
Q 2575 -91 1722 -91 
Q 1428 -91 1123 -41 
Q 819 9 494 109 
L 494 744 
Q 775 591 1075 516 
Q 1375 441 1709 441 
Q 2250 441 2565 725 
Q 2881 1009 2881 1497 
Q 2881 1984 2565 2268 
Q 2250 2553 1709 2553 
Q 1456 2553 1204 2497 
Q 953 2441 691 2322 
L 691 4666 
z
" transform="scale(0.015625)"/>
     </defs>
     <use xlink:href="#DejaVuSans-4f"/>
     <use xlink:href="#DejaVuSans-6e" x="78.710938"/>
     <use xlink:href="#DejaVuSans-65" x="142.089844"/>
     <use xlink:href="#DejaVuSans-20" x="203.613281"/>
     <use xlink:href="#DejaVuSans-52" x="235.400391"/>
     <use xlink:href="#DejaVuSans-65" x="300.382812"/>
     <use xlink:href="#DejaVuSans-61" x="361.90625"/>
     <use xlink:href="#DejaVuSans-6c" x="423.185547"/>
     <use xlink:href="#DejaVuSans-69" x="450.96875"/>
     <use xlink:href="#DejaVuSans-7a" x="478.751953"/>
     <use xlink:href="#DejaVuSans-61" x="531.242188"/>
     <use xlink:href="#DejaVuSans-74" x="592.521484"/>
     <use xlink:href="#DejaVuSans-69" x="631.730469"/>
     <use xlink:href="#DejaVuSans-6f" x="659.513672"/>
     <use xlink:href="#DejaVuSans-6e" x="720.695312"/>
     <use xlink:href="#DejaVuSans-20" x="784.074219"/>
     <use xlink:href="#DejaVuSans-6f" x="815.861328"/>
     <use xlink:href="#DejaVuSans-66" x="877.042969"/>
     <use xlink:href="#DejaVuSans-20" x="912.248047"/>
     <use xlink:href="#DejaVuSans-41" x="944.035156"/>
     <use xlink:href="#DejaVuSans-52" x="1012.443359"/>
     <use xlink:href="#DejaVuSans-28" x="1081.925781"/>
     <use xlink:href="#DejaVuSans-31" x="1120.939453"/>
     <use xlink:href="#DejaVuSans-29" x="1184.5625"/>
     <use xlink:href="#DejaVuSans-20" x="1223.576172"/>
     <use xlink:href="#DejaVuSans-50" x="1255.363281"/>
     <use xlink:href="#DejaVuSans-72" x="1313.916016"/>
     <use xlink:href="#DejaVuSans-6f" x="1352.779297"/>
     <use xlink:href="#DejaVuSans-63" x="1413.960938"/>
     <use xlink:href="#DejaVuSans-65" x="1468.941406"/>
     <use xlink:href="#DejaVuSans-73" x="1530.464844"/>
     <use xlink:href="#DejaVuSans-73" x="1582.564453"/>
     <use xlink:href="#DejaVuSans-20" x="1634.664062"/>
     <use xlink:href="#DejaVuSans-77" x="1666.451172"/>
     <use xlink:href="#DejaVuSans-69" x="1748.238281"/>
     <use xlink:href="#DejaVuSans-74" x="1776.021484"/>
     <use xlink:href="#DejaVuSans-68" x="1815.230469"/>
     <use xlink:href="#DejaVuSans-20" x="1878.609375"/>
     <use xlink:href="#DejaVuSans-3d5" x="1910.396484"/>
     <use xlink:href="#DejaVuSans-3d" x="1976.363281"/>
     <use xlink:href="#DejaVuSans-30" x="2060.152344"/>
     <use xlink:href="#DejaVuSans-2e" x="2123.775391"/>
     <use xlink:href="#DejaVuSans-35" x="2155.5625"/>
    </g>
   </g>
   <g id="legend_1">
    <g id="patch_7">
     <path d="M 529.7625 48.838125 
L 702.2 48.838125 
Q 704.2 48.838125 704.2 46.838125 
L 704.2 33.16 
Q 704.2 31.16 702.2 31.16 
L 529.7625 31.16 
Q 527.7625 31.16 527.7625 33.16 
L 527.7625 46.838125 
Q 527.7625 48.838125 529.7625 48.838125 
z
" style="fill: #ffffff; opacity: 0.8; stroke: #cccccc; stroke-linejoin: miter"/>
    </g>
    <g id="line2d_13">
     <path d="M 531.7625 39.258438 
L 541.7625 39.258438 
L 551.7625 39.258438 
" style="fill: none; stroke: #1f77b4; stroke-width: 1.5; stroke-linecap: square"/>
    </g>
    <g id="text_7">
     <!-- AR(1) with c=1, σ=1, ϕ=0.5 -->
     <g transform="translate(559.7625 42.758438) scale(0.1 -0.1)">
      <defs>
       <path id="DejaVuSans-2c" d="M 750 794 
L 1409 794 
L 1409 256 
L 897 -744 
L 494 -744 
L 750 256 
L 750 794 
z
" transform="scale(0.015625)"/>
       <path id="DejaVuSans-3c3" d="M 1959 3044 
Q 1484 3044 1228 2700 
Q 959 2341 959 1747 
Q 959 1119 1226 758 
Q 1494 397 1959 397 
Q 2419 397 2687 759 
Q 2956 1122 2956 1747 
Q 2956 2319 2688 2700 
Q 2441 3044 1959 3044 
z
M 1959 3500 
L 3869 3500 
L 3869 2925 
L 3225 2925 
Q 3566 2438 3566 1747 
Q 3566 888 3138 400 
Q 2709 -91 1959 -91 
Q 1206 -91 781 400 
Q 353 888 353 1747 
Q 353 2613 781 3097 
Q 1134 3500 1959 3500 
z
" transform="scale(0.015625)"/>
      </defs>
      <use xlink:href="#DejaVuSans-41"/>
      <use xlink:href="#DejaVuSans-52" x="68.408203"/>
      <use xlink:href="#DejaVuSans-28" x="137.890625"/>
      <use xlink:href="#DejaVuSans-31" x="176.904297"/>
      <use xlink:href="#DejaVuSans-29" x="240.527344"/>
      <use xlink:href="#DejaVuSans-20" x="279.541016"/>
      <use xlink:href="#DejaVuSans-77" x="311.328125"/>
      <use xlink:href="#DejaVuSans-69" x="393.115234"/>
      <use xlink:href="#DejaVuSans-74" x="420.898438"/>
      <use xlink:href="#DejaVuSans-68" x="460.107422"/>
      <use xlink:href="#DejaVuSans-20" x="523.486328"/>
      <use xlink:href="#DejaVuSans-63" x="555.273438"/>
      <use xlink:href="#DejaVuSans-3d" x="610.253906"/>
      <use xlink:href="#DejaVuSans-31" x="694.042969"/>
      <use xlink:href="#DejaVuSans-2c" x="757.666016"/>
      <use xlink:href="#DejaVuSans-20" x="789.453125"/>
      <use xlink:href="#DejaVuSans-3c3" x="821.240234"/>
      <use xlink:href="#DejaVuSans-3d" x="884.619141"/>
      <use xlink:href="#DejaVuSans-31" x="968.408203"/>
      <use xlink:href="#DejaVuSans-2c" x="1032.03125"/>
      <use xlink:href="#DejaVuSans-20" x="1063.818359"/>
      <use xlink:href="#DejaVuSans-3d5" x="1095.605469"/>
      <use xlink:href="#DejaVuSans-3d" x="1161.572266"/>
      <use xlink:href="#DejaVuSans-30" x="1245.361328"/>
      <use xlink:href="#DejaVuSans-2e" x="1308.984375"/>
      <use xlink:href="#DejaVuSans-35" x="1340.771484"/>
     </g>
    </g>
   </g>
  </g>
  <g id="axes_2">
   <g id="patch_8">
    <path d="M 32.515 534.04 
L 709.2 534.04 
L 709.2 294.93 
L 32.515 294.93 
z
" style="fill: #ffffff"/>
   </g>
   <g id="matplotlib.axis_3">
    <g id="xtick_7">
     <g id="line2d_14">
      <g>
       <use xlink:href="#m4168f9c6a2" x="63.273409" y="534.04" style="stroke: #000000; stroke-width: 0.8"/>
      </g>
     </g>
     <g id="text_8">
      <!-- 0 -->
      <g transform="translate(60.092159 548.638438) scale(0.1 -0.1)">
       <use xlink:href="#DejaVuSans-30"/>
      </g>
     </g>
    </g>
    <g id="xtick_8">
     <g id="line2d_15">
      <g>
       <use xlink:href="#m4168f9c6a2" x="187.549809" y="534.04" style="stroke: #000000; stroke-width: 0.8"/>
      </g>
     </g>
     <g id="text_9">
      <!-- 20 -->
      <g transform="translate(181.187309 548.638438) scale(0.1 -0.1)">
       <use xlink:href="#DejaVuSans-32"/>
       <use xlink:href="#DejaVuSans-30" x="63.623047"/>
      </g>
     </g>
    </g>
    <g id="xtick_9">
     <g id="line2d_16">
      <g>
       <use xlink:href="#m4168f9c6a2" x="311.82621" y="534.04" style="stroke: #000000; stroke-width: 0.8"/>
      </g>
     </g>
     <g id="text_10">
      <!-- 40 -->
      <g transform="translate(305.46371 548.638438) scale(0.1 -0.1)">
       <use xlink:href="#DejaVuSans-34"/>
       <use xlink:href="#DejaVuSans-30" x="63.623047"/>
      </g>
     </g>
    </g>
    <g id="xtick_10">
     <g id="line2d_17">
      <g>
       <use xlink:href="#m4168f9c6a2" x="436.10261" y="534.04" style="stroke: #000000; stroke-width: 0.8"/>
      </g>
     </g>
     <g id="text_11">
      <!-- 60 -->
      <g transform="translate(429.74011 548.638438) scale(0.1 -0.1)">
       <defs>
        <path id="DejaVuSans-36" d="M 2113 2584 
Q 1688 2584 1439 2293 
Q 1191 2003 1191 1497 
Q 1191 994 1439 701 
Q 1688 409 2113 409 
Q 2538 409 2786 701 
Q 3034 994 3034 1497 
Q 3034 2003 2786 2293 
Q 2538 2584 2113 2584 
z
M 3366 4563 
L 3366 3988 
Q 3128 4100 2886 4159 
Q 2644 4219 2406 4219 
Q 1781 4219 1451 3797 
Q 1122 3375 1075 2522 
Q 1259 2794 1537 2939 
Q 1816 3084 2150 3084 
Q 2853 3084 3261 2657 
Q 3669 2231 3669 1497 
Q 3669 778 3244 343 
Q 2819 -91 2113 -91 
Q 1303 -91 875 529 
Q 447 1150 447 2328 
Q 447 3434 972 4092 
Q 1497 4750 2381 4750 
Q 2619 4750 2861 4703 
Q 3103 4656 3366 4563 
z
" transform="scale(0.015625)"/>
       </defs>
       <use xlink:href="#DejaVuSans-36"/>
       <use xlink:href="#DejaVuSans-30" x="63.623047"/>
      </g>
     </g>
    </g>
    <g id="xtick_11">
     <g id="line2d_18">
      <g>
       <use xlink:href="#m4168f9c6a2" x="560.379011" y="534.04" style="stroke: #000000; stroke-width: 0.8"/>
      </g>
     </g>
     <g id="text_12">
      <!-- 80 -->
      <g transform="translate(554.016511 548.638438) scale(0.1 -0.1)">
       <defs>
        <path id="DejaVuSans-38" d="M 2034 2216 
Q 1584 2216 1326 1975 
Q 1069 1734 1069 1313 
Q 1069 891 1326 650 
Q 1584 409 2034 409 
Q 2484 409 2743 651 
Q 3003 894 3003 1313 
Q 3003 1734 2745 1975 
Q 2488 2216 2034 2216 
z
M 1403 2484 
Q 997 2584 770 2862 
Q 544 3141 544 3541 
Q 544 4100 942 4425 
Q 1341 4750 2034 4750 
Q 2731 4750 3128 4425 
Q 3525 4100 3525 3541 
Q 3525 3141 3298 2862 
Q 3072 2584 2669 2484 
Q 3125 2378 3379 2068 
Q 3634 1759 3634 1313 
Q 3634 634 3220 271 
Q 2806 -91 2034 -91 
Q 1263 -91 848 271 
Q 434 634 434 1313 
Q 434 1759 690 2068 
Q 947 2378 1403 2484 
z
M 1172 3481 
Q 1172 3119 1398 2916 
Q 1625 2713 2034 2713 
Q 2441 2713 2670 2916 
Q 2900 3119 2900 3481 
Q 2900 3844 2670 4047 
Q 2441 4250 2034 4250 
Q 1625 4250 1398 4047 
Q 1172 3844 1172 3481 
z
" transform="scale(0.015625)"/>
       </defs>
       <use xlink:href="#DejaVuSans-38"/>
       <use xlink:href="#DejaVuSans-30" x="63.623047"/>
      </g>
     </g>
    </g>
    <g id="xtick_12">
     <g id="line2d_19">
      <g>
       <use xlink:href="#m4168f9c6a2" x="684.655411" y="534.04" style="stroke: #000000; stroke-width: 0.8"/>
      </g>
     </g>
     <g id="text_13">
      <!-- 100 -->
      <g transform="translate(675.111661 548.638438) scale(0.1 -0.1)">
       <use xlink:href="#DejaVuSans-31"/>
       <use xlink:href="#DejaVuSans-30" x="63.623047"/>
       <use xlink:href="#DejaVuSans-30" x="127.246094"/>
      </g>
     </g>
    </g>
    <g id="text_14">
     <!-- t -->
     <g transform="translate(368.897344 562.316562) scale(0.1 -0.1)">
      <use xlink:href="#DejaVuSans-74"/>
     </g>
    </g>
   </g>
   <g id="matplotlib.axis_4">
    <g id="ytick_6">
     <g id="line2d_20">
      <g>
       <use xlink:href="#meec6798a59" x="32.515" y="507.254203" style="stroke: #000000; stroke-width: 0.8"/>
      </g>
     </g>
     <g id="text_15">
      <!-- −2 -->
      <g transform="translate(10.772813 511.053422) scale(0.1 -0.1)">
       <defs>
        <path id="DejaVuSans-2212" d="M 678 2272 
L 4684 2272 
L 4684 1741 
L 678 1741 
L 678 2272 
z
" transform="scale(0.015625)"/>
       </defs>
       <use xlink:href="#DejaVuSans-2212"/>
       <use xlink:href="#DejaVuSans-32" x="83.789062"/>
      </g>
     </g>
    </g>
    <g id="ytick_7">
     <g id="line2d_21">
      <g>
       <use xlink:href="#meec6798a59" x="32.515" y="479.54126" style="stroke: #000000; stroke-width: 0.8"/>
      </g>
     </g>
     <g id="text_16">
      <!-- −1 -->
      <g transform="translate(10.772813 483.340479) scale(0.1 -0.1)">
       <use xlink:href="#DejaVuSans-2212"/>
       <use xlink:href="#DejaVuSans-31" x="83.789062"/>
      </g>
     </g>
    </g>
    <g id="ytick_8">
     <g id="line2d_22">
      <g>
       <use xlink:href="#meec6798a59" x="32.515" y="451.828318" style="stroke: #000000; stroke-width: 0.8"/>
      </g>
     </g>
     <g id="text_17">
      <!-- 0 -->
      <g transform="translate(19.1525 455.627536) scale(0.1 -0.1)">
       <use xlink:href="#DejaVuSans-30"/>
      </g>
     </g>
    </g>
    <g id="ytick_9">
     <g id="line2d_23">
      <g>
       <use xlink:href="#meec6798a59" x="32.515" y="424.115375" style="stroke: #000000; stroke-width: 0.8"/>
      </g>
     </g>
     <g id="text_18">
      <!-- 1 -->
      <g transform="translate(19.1525 427.914594) scale(0.1 -0.1)">
       <use xlink:href="#DejaVuSans-31"/>
      </g>
     </g>
    </g>
    <g id="ytick_10">
     <g id="line2d_24">
      <g>
       <use xlink:href="#meec6798a59" x="32.515" y="396.402432" style="stroke: #000000; stroke-width: 0.8"/>
      </g>
     </g>
     <g id="text_19">
      <!-- 2 -->
      <g transform="translate(19.1525 400.201651) scale(0.1 -0.1)">
       <use xlink:href="#DejaVuSans-32"/>
      </g>
     </g>
    </g>
    <g id="ytick_11">
     <g id="line2d_25">
      <g>
       <use xlink:href="#meec6798a59" x="32.515" y="368.689489" style="stroke: #000000; stroke-width: 0.8"/>
      </g>
     </g>
     <g id="text_20">
      <!-- 3 -->
      <g transform="translate(19.1525 372.488708) scale(0.1 -0.1)">
       <use xlink:href="#DejaVuSans-33"/>
      </g>
     </g>
    </g>
    <g id="ytick_12">
     <g id="line2d_26">
      <g>
       <use xlink:href="#meec6798a59" x="32.515" y="340.976546" style="stroke: #000000; stroke-width: 0.8"/>
      </g>
     </g>
     <g id="text_21">
      <!-- 4 -->
      <g transform="translate(19.1525 344.775765) scale(0.1 -0.1)">
       <use xlink:href="#DejaVuSans-34"/>
      </g>
     </g>
    </g>
    <g id="ytick_13">
     <g id="line2d_27">
      <g>
       <use xlink:href="#meec6798a59" x="32.515" y="313.263604" style="stroke: #000000; stroke-width: 0.8"/>
      </g>
     </g>
     <g id="text_22">
      <!-- 5 -->
      <g transform="translate(19.1525 317.062822) scale(0.1 -0.1)">
       <use xlink:href="#DejaVuSans-35"/>
      </g>
     </g>
    </g>
   </g>
   <g id="line2d_28">
    <path d="M 63.273409 354.682013 
L 69.487229 388.058526 
L 75.701049 339.710334 
L 81.914869 375.349356 
L 88.128689 423.909407 
L 94.342509 418.625894 
L 100.556329 378.465346 
L 106.770149 410.662226 
L 112.983969 420.16948 
L 119.197789 391.837232 
L 125.411609 394.035027 
L 131.625429 379.017107 
L 137.839249 381.118813 
L 144.053069 375.468793 
L 150.266889 397.915951 
L 156.480709 390.737245 
L 162.694529 419.270074 
L 168.908349 372.129966 
L 175.122169 401.843818 
L 181.335989 367.839439 
L 187.549809 388.594872 
L 193.763629 386.900665 
L 199.977449 405.368473 
L 206.19127 429.041676 
L 212.40509 461.074499 
L 218.61891 457.984603 
L 224.83273 436.169985 
L 231.04655 410.414413 
L 237.26037 375.407838 
L 243.47419 398.258386 
L 249.68801 421.772137 
L 255.90183 449.069157 
L 262.11565 409.431819 
L 268.32947 364.584735 
L 274.54329 345.399845 
L 280.75711 351.226813 
L 286.97093 356.118708 
L 293.18475 329.214419 
L 299.39857 353.605471 
L 305.61239 357.097797 
L 311.82621 385.639979 
L 318.04003 428.767436 
L 324.25385 431.536399 
L 330.46767 414.22324 
L 336.68149 403.628294 
L 342.89531 346.632313 
L 349.10913 369.264943 
L 355.32295 350.164467 
L 361.53677 385.34072 
L 367.75059 399.509032 
L 373.96441 434.786445 
L 380.17823 436.166532 
L 386.39205 401.680277 
L 392.60587 398.83184 
L 398.81969 371.485532 
L 405.03351 378.920902 
L 411.24733 397.429197 
L 417.46115 337.380186 
L 423.67497 369.493653 
L 429.88879 350.717863 
L 436.10261 384.678835 
L 442.31643 370.875544 
L 448.53025 357.920943 
L 454.74407 371.383762 
L 460.95789 449.142747 
L 467.17171 422.26676 
L 473.38553 375.234927 
L 479.59935 371.200633 
L 485.81317 371.446025 
L 492.02699 431.653037 
L 498.24081 433.993665 
L 504.45463 403.798118 
L 510.66845 388.727347 
L 516.88227 358.902898 
L 523.09609 381.667349 
L 529.30991 377.788311 
L 535.52373 386.641593 
L 541.737551 418.8731 
L 547.951371 470.152382 
L 554.165191 421.33286 
L 560.379011 404.047057 
L 566.592831 417.356194 
L 572.806651 451.751363 
L 579.020471 406.624963 
L 585.234291 408.883125 
L 591.448111 387.210141 
L 597.661931 340.148016 
L 603.875751 427.620576 
L 610.089571 431.399501 
L 616.303391 419.703381 
L 622.517211 367.735392 
L 628.731031 427.418455 
L 634.944851 358.262038 
L 641.158671 373.567268 
L 647.372491 387.645311 
L 653.586311 397.51269 
L 659.800131 409.047694 
L 666.013951 373.678663 
L 672.227771 414.652402 
L 678.441591 395.954974 
" clip-path="url(#p6d7027aa06)" style="fill: none; stroke: #1f77b4; stroke-width: 1.5; stroke-linecap: square"/>
   </g>
   <g id="line2d_29">
    <path d="M 63.273409 434.762179 
L 69.487229 436.703266 
L 75.701049 344.887867 
L 81.914869 359.03202 
L 88.128689 360.721833 
L 94.342509 347.03099 
L 100.556329 411.106501 
L 106.770149 355.193301 
L 112.983969 445.328453 
L 119.197789 442.170222 
L 125.411609 432.007446 
L 131.625429 398.083672 
L 137.839249 391.181725 
L 144.053069 398.415006 
L 150.266889 397.741201 
L 156.480709 424.175713 
L 162.694529 451.781788 
L 168.908349 403.958335 
L 175.122169 380.955746 
L 181.335989 344.768087 
L 187.549809 392.478958 
L 193.763629 375.240747 
L 199.977449 393.683938 
L 206.19127 362.05162 
L 212.40509 350.90543 
L 218.61891 367.800697 
L 224.83273 391.510944 
L 231.04655 367.32643 
L 237.26037 363.936803 
L 243.47419 399.137475 
L 249.68801 434.567162 
L 255.90183 423.480893 
L 262.11565 367.945086 
L 268.32947 350.401226 
L 274.54329 404.227697 
L 280.75711 432.677059 
L 286.97093 379.214505 
L 293.18475 419.280281 
L 299.39857 393.727284 
L 305.61239 412.138005 
L 311.82621 359.457145 
L 318.04003 399.280527 
L 324.25385 366.155567 
L 330.46767 376.156022 
L 336.68149 379.290165 
L 342.89531 442.449348 
L 349.10913 480.475102 
L 355.32295 444.551298 
L 361.53677 413.634371 
L 367.75059 436.200945 
L 373.96441 446.472587 
L 380.17823 405.87745 
L 386.39205 385.541587 
L 392.60587 394.78922 
L 398.81969 373.97414 
L 405.03351 417.728887 
L 411.24733 416.929664 
L 417.46115 360.99851 
L 423.67497 376.807064 
L 429.88879 383.104256 
L 436.10261 325.848778 
L 442.31643 399.905495 
L 448.53025 376.082534 
L 454.74407 340.128526 
L 460.95789 377.268248 
L 467.17171 363.012441 
L 473.38553 406.922087 
L 479.59935 420.693635 
L 485.81317 397.879481 
L 492.02699 375.010324 
L 498.24081 354.641929 
L 504.45463 332.023153 
L 510.66845 366.081935 
L 516.88227 348.163689 
L 523.09609 381.769335 
L 529.30991 364.086279 
L 535.52373 374.49423 
L 541.737551 373.097285 
L 547.951371 373.013209 
L 554.165191 429.178919 
L 560.379011 443.9434 
L 566.592831 417.331191 
L 572.806651 453.62628 
L 579.020471 401.97905 
L 585.234291 375.037361 
L 591.448111 376.653037 
L 597.661931 417.597658 
L 603.875751 368.752333 
L 610.089571 326.120281 
L 616.303391 357.185425 
L 622.517211 362.645491 
L 628.731031 373.93319 
L 634.944851 370.46972 
L 641.158671 386.749401 
L 647.372491 392.533793 
L 653.586311 369.368013 
L 659.800131 317.881074 
L 666.013951 395.941847 
L 672.227771 399.049089 
L 678.441591 430.439794 
" clip-path="url(#p6d7027aa06)" style="fill: none; stroke: #ff7f0e; stroke-width: 1.5; stroke-linecap: square"/>
   </g>
   <g id="line2d_30">
    <path d="M 63.273409 379.99568 
L 69.487229 404.487005 
L 75.701049 440.440059 
L 81.914869 400.735206 
L 88.128689 350.228825 
L 94.342509 354.925379 
L 100.556329 369.988353 
L 106.770149 371.856894 
L 112.983969 344.920265 
L 119.197789 394.887983 
L 125.411609 398.74482 
L 131.625429 410.119002 
L 137.839249 435.625702 
L 144.053069 425.114312 
L 150.266889 380.06016 
L 156.480709 372.529083 
L 162.694529 366.610018 
L 168.908349 377.446955 
L 175.122169 372.421851 
L 181.335989 406.598856 
L 187.549809 410.078074 
L 193.763629 397.91925 
L 199.977449 389.47006 
L 206.19127 384.062898 
L 212.40509 394.066343 
L 218.61891 405.693901 
L 224.83273 313.537031 
L 231.04655 329.839988 
L 237.26037 351.671678 
L 243.47419 380.499949 
L 249.68801 400.955792 
L 255.90183 402.303981 
L 262.11565 391.238058 
L 268.32947 445.932648 
L 274.54329 464.659944 
L 280.75711 448.181073 
L 286.97093 416.551309 
L 293.18475 413.107834 
L 299.39857 363.792044 
L 305.61239 421.178815 
L 311.82621 429.612618 
L 318.04003 370.881309 
L 324.25385 380.008168 
L 330.46767 363.683708 
L 336.68149 323.196981 
L 342.89531 379.027069 
L 349.10913 390.467043 
L 355.32295 400.984489 
L 361.53677 452.860984 
L 367.75059 433.233717 
L 373.96441 390.401249 
L 380.17823 378.420513 
L 386.39205 370.254856 
L 392.60587 393.735103 
L 398.81969 413.251153 
L 405.03351 369.651983 
L 411.24733 396.809329 
L 417.46115 388.456002 
L 423.67497 387.902732 
L 429.88879 351.644102 
L 436.10261 347.102572 
L 442.31643 407.64793 
L 448.53025 434.935774 
L 454.74407 399.625808 
L 460.95789 399.797106 
L 467.17171 410.713918 
L 473.38553 375.412138 
L 479.59935 380.712234 
L 485.81317 387.103584 
L 492.02699 370.141662 
L 498.24081 393.667421 
L 504.45463 351.56665 
L 510.66845 395.823659 
L 516.88227 377.907608 
L 523.09609 347.419293 
L 529.30991 410.079773 
L 535.52373 412.755931 
L 541.737551 372.925253 
L 547.951371 352.593191 
L 554.165191 379.250459 
L 560.379011 408.186344 
L 566.592831 375.802593 
L 572.806651 353.302884 
L 579.020471 407.128907 
L 585.234291 435.129659 
L 591.448111 409.52352 
L 597.661931 385.521541 
L 603.875751 399.250071 
L 610.089571 379.001021 
L 616.303391 407.381702 
L 622.517211 460.49645 
L 628.731031 440.196987 
L 634.944851 416.547361 
L 641.158671 414.119233 
L 647.372491 437.369139 
L 653.586311 467.202762 
L 659.800131 446.04951 
L 666.013951 396.349288 
L 672.227771 361.562932 
L 678.441591 346.067649 
" clip-path="url(#p6d7027aa06)" style="fill: none; stroke: #2ca02c; stroke-width: 1.5; stroke-linecap: square"/>
   </g>
   <g id="line2d_31">
    <path d="M 63.273409 446.726629 
L 69.487229 453.537128 
L 75.701049 411.206573 
L 81.914869 386.204012 
L 88.128689 380.213345 
L 94.342509 444.123509 
L 100.556329 444.286893 
L 106.770149 421.167426 
L 112.983969 395.282679 
L 119.197789 374.578211 
L 125.411609 381.492632 
L 131.625429 379.780539 
L 137.839249 385.739614 
L 144.053069 372.070492 
L 150.266889 375.566034 
L 156.480709 384.162449 
L 162.694529 397.71973 
L 168.908349 394.808256 
L 175.122169 382.175891 
L 181.335989 381.876631 
L 187.549809 378.585711 
L 193.763629 350.283297 
L 199.977449 365.994392 
L 206.19127 399.184071 
L 212.40509 373.305907 
L 218.61891 422.715546 
L 224.83273 439.528136 
L 231.04655 408.657968 
L 237.26037 388.219329 
L 243.47419 426.814914 
L 249.68801 422.217672 
L 255.90183 426.106419 
L 262.11565 424.741658 
L 268.32947 384.422174 
L 274.54329 370.832957 
L 280.75711 384.147627 
L 286.97093 405.405241 
L 293.18475 438.306601 
L 299.39857 377.997012 
L 305.61239 370.790504 
L 311.82621 403.180348 
L 318.04003 379.84917 
L 324.25385 390.071904 
L 330.46767 401.193817 
L 336.68149 386.737133 
L 342.89531 412.118881 
L 349.10913 413.787161 
L 355.32295 401.728753 
L 361.53677 412.906855 
L 367.75059 386.112323 
L 373.96441 339.460045 
L 380.17823 388.835059 
L 386.39205 438.764268 
L 392.60587 473.057461 
L 398.81969 438.899861 
L 405.03351 436.029389 
L 411.24733 410.455484 
L 417.46115 399.754286 
L 423.67497 442.508216 
L 429.88879 469.751096 
L 436.10261 424.875583 
L 442.31643 406.885876 
L 448.53025 413.444824 
L 454.74407 450.847953 
L 460.95789 410.561554 
L 467.17171 368.233913 
L 473.38553 374.614461 
L 479.59935 408.994442 
L 485.81317 401.463765 
L 492.02699 436.79214 
L 498.24081 387.278081 
L 504.45463 389.572109 
L 510.66845 441.988102 
L 516.88227 427.527838 
L 523.09609 399.125687 
L 529.30991 406.993789 
L 535.52373 409.343993 
L 541.737551 436.805001 
L 547.951371 400.903198 
L 554.165191 416.623805 
L 560.379011 466.274566 
L 566.592831 441.627133 
L 572.806651 391.824237 
L 579.020471 404.836288 
L 585.234291 352.454682 
L 591.448111 362.540593 
L 597.661931 370.083527 
L 603.875751 386.801273 
L 610.089571 393.494264 
L 616.303391 402.248592 
L 622.517211 407.702287 
L 628.731031 387.340468 
L 634.944851 417.806087 
L 641.158671 436.920444 
L 647.372491 447.788478 
L 653.586311 365.404348 
L 659.800131 366.206027 
L 666.013951 372.865855 
L 672.227771 413.940987 
L 678.441591 387.89706 
" clip-path="url(#p6d7027aa06)" style="fill: none; stroke: #d62728; stroke-width: 1.5; stroke-linecap: square"/>
   </g>
   <g id="line2d_32">
    <path d="M 63.273409 427.34591 
L 69.487229 405.938919 
L 75.701049 428.235699 
L 81.914869 407.877544 
L 88.128689 413.885662 
L 94.342509 426.361385 
L 100.556329 391.037662 
L 106.770149 436.334455 
L 112.983969 400.716831 
L 119.197789 379.590507 
L 125.411609 412.373984 
L 131.625429 427.121924 
L 137.839249 417.942876 
L 144.053069 399.356601 
L 150.266889 402.115578 
L 156.480709 387.243713 
L 162.694529 342.965718 
L 168.908349 383.754401 
L 175.122169 437.611101 
L 181.335989 394.117993 
L 187.549809 348.610612 
L 193.763629 361.621755 
L 199.977449 409.15681 
L 206.19127 406.213043 
L 212.40509 432.305315 
L 218.61891 396.538456 
L 224.83273 433.918678 
L 231.04655 423.478007 
L 237.26037 437.773376 
L 243.47419 413.573219 
L 249.68801 415.140231 
L 255.90183 400.872734 
L 262.11565 398.018183 
L 268.32947 424.553533 
L 274.54329 393.105374 
L 280.75711 396.105343 
L 286.97093 423.648935 
L 293.18475 347.923014 
L 299.39857 358.959441 
L 305.61239 381.928238 
L 311.82621 349.945853 
L 318.04003 322.132012 
L 324.25385 363.295282 
L 330.46767 370.22145 
L 336.68149 410.692407 
L 342.89531 407.626564 
L 349.10913 407.531107 
L 355.32295 396.844669 
L 361.53677 387.401778 
L 367.75059 376.387611 
L 373.96441 379.809244 
L 380.17823 421.659079 
L 386.39205 435.038441 
L 392.60587 430.863 
L 398.81969 421.454433 
L 405.03351 379.808385 
L 411.24733 420.33387 
L 417.46115 418.273174 
L 423.67497 380.927105 
L 429.88879 396.975256 
L 436.10261 383.929371 
L 442.31643 394.033022 
L 448.53025 388.101507 
L 454.74407 398.583616 
L 460.95789 379.006677 
L 467.17171 430.522614 
L 473.38553 423.530968 
L 479.59935 401.747798 
L 485.81317 384.284849 
L 492.02699 348.96953 
L 498.24081 383.522425 
L 504.45463 348.961635 
L 510.66845 390.945523 
L 516.88227 356.853276 
L 523.09609 353.973434 
L 529.30991 400.502558 
L 535.52373 389.943534 
L 541.737551 394.592879 
L 547.951371 378.160865 
L 554.165191 393.469161 
L 560.379011 403.450494 
L 566.592831 361.984823 
L 572.806651 381.929474 
L 579.020471 366.263358 
L 585.234291 387.578048 
L 591.448111 345.802096 
L 597.661931 389.900913 
L 603.875751 410.171397 
L 610.089571 361.038057 
L 616.303391 391.051018 
L 622.517211 349.356245 
L 628.731031 348.163811 
L 634.944851 376.56892 
L 641.158671 436.737374 
L 647.372491 417.10527 
L 653.586311 403.937383 
L 659.800131 367.822869 
L 666.013951 338.092105 
L 672.227771 386.230279 
L 678.441591 369.113251 
" clip-path="url(#p6d7027aa06)" style="fill: none; stroke: #9467bd; stroke-width: 1.5; stroke-linecap: square"/>
   </g>
   <g id="line2d_33">
    <path d="M 63.273409 402.903829 
L 69.487229 369.905706 
L 75.701049 369.333904 
L 81.914869 436.700495 
L 88.128689 420.858677 
L 94.342509 440.658612 
L 100.556329 424.145324 
L 106.770149 383.115077 
L 112.983969 381.302127 
L 119.197789 357.035303 
L 125.411609 367.247861 
L 131.625429 417.805579 
L 137.839249 476.964094 
L 144.053069 432.559334 
L 150.266889 420.409415 
L 156.480709 435.479965 
L 162.694529 463.070584 
L 168.908349 450.098405 
L 175.122169 428.64035 
L 181.335989 394.067957 
L 187.549809 390.007672 
L 193.763629 348.640776 
L 199.977449 401.22124 
L 206.19127 374.395101 
L 212.40509 384.087979 
L 218.61891 370.99388 
L 224.83273 395.795267 
L 231.04655 366.399433 
L 237.26037 373.219386 
L 243.47419 403.640329 
L 249.68801 400.354602 
L 255.90183 405.017315 
L 262.11565 387.153302 
L 268.32947 424.472952 
L 274.54329 411.251114 
L 280.75711 392.871646 
L 286.97093 393.721866 
L 293.18475 357.734443 
L 299.39857 355.617989 
L 305.61239 376.217525 
L 311.82621 380.304886 
L 318.04003 380.159897 
L 324.25385 377.104545 
L 330.46767 437.347844 
L 336.68149 425.231319 
L 342.89531 451.955051 
L 349.10913 388.753815 
L 355.32295 394.264443 
L 361.53677 400.691484 
L 367.75059 373.694065 
L 373.96441 373.344385 
L 380.17823 416.151192 
L 386.39205 408.241809 
L 392.60587 411.610583 
L 398.81969 452.352648 
L 405.03351 443.507126 
L 411.24733 425.041221 
L 417.46115 413.907455 
L 423.67497 446.231938 
L 429.88879 389.401143 
L 436.10261 395.731364 
L 442.31643 395.026192 
L 448.53025 384.611353 
L 454.74407 412.346805 
L 460.95789 391.727651 
L 467.17171 404.23776 
L 473.38553 425.16712 
L 479.59935 394.892858 
L 485.81317 354.308973 
L 492.02699 355.268547 
L 498.24081 350.257065 
L 504.45463 387.757955 
L 510.66845 436.354938 
L 516.88227 375.082589 
L 523.09609 328.805857 
L 529.30991 319.848429 
L 535.52373 367.431047 
L 541.737551 413.915055 
L 547.951371 434.691947 
L 554.165191 462.208374 
L 560.379011 432.28118 
L 566.592831 369.843745 
L 572.806651 387.048977 
L 579.020471 383.347447 
L 585.234291 351.7531 
L 591.448111 385.276436 
L 597.661931 334.428867 
L 603.875751 310.208851 
L 610.089571 356.939123 
L 616.303391 392.675951 
L 622.517211 375.216674 
L 628.731031 395.440492 
L 634.944851 427.97301 
L 641.158671 376.680828 
L 647.372491 352.830293 
L 653.586311 370.306678 
L 659.800131 418.352254 
L 666.013951 441.451134 
L 672.227771 415.955144 
L 678.441591 420.031685 
" clip-path="url(#p6d7027aa06)" style="fill: none; stroke: #8c564b; stroke-width: 1.5; stroke-linecap: square"/>
   </g>
   <g id="line2d_34">
    <path d="M 63.273409 433.568064 
L 69.487229 386.663641 
L 75.701049 371.21448 
L 81.914869 345.616067 
L 88.128689 398.462334 
L 94.342509 406.943231 
L 100.556329 380.639215 
L 106.770149 376.103254 
L 112.983969 343.786073 
L 119.197789 358.439943 
L 125.411609 326.204646 
L 131.625429 346.338056 
L 137.839249 341.934458 
L 144.053069 378.133996 
L 150.266889 386.872274 
L 156.480709 366.392403 
L 162.694529 336.697046 
L 168.908349 346.340437 
L 175.122169 373.676369 
L 181.335989 346.869394 
L 187.549809 432.382092 
L 193.763629 453.806565 
L 199.977449 406.214408 
L 206.19127 400.917436 
L 212.40509 381.879369 
L 218.61891 387.355978 
L 224.83273 376.05662 
L 231.04655 408.799025 
L 237.26037 386.79088 
L 243.47419 364.038503 
L 249.68801 346.395418 
L 255.90183 315.59741 
L 262.11565 349.235235 
L 268.32947 365.227951 
L 274.54329 423.026783 
L 280.75711 424.441581 
L 286.97093 415.772879 
L 293.18475 376.98021 
L 299.39857 403.62396 
L 305.61239 377.944271 
L 311.82621 387.218294 
L 318.04003 396.720213 
L 324.25385 389.663738 
L 330.46767 403.873179 
L 336.68149 412.02769 
L 342.89531 451.459695 
L 349.10913 430.802605 
L 355.32295 426.903848 
L 361.53677 425.952492 
L 367.75059 399.624683 
L 373.96441 379.760928 
L 380.17823 381.646887 
L 386.39205 361.438775 
L 392.60587 362.970089 
L 398.81969 387.863136 
L 405.03351 404.959894 
L 411.24733 392.011938 
L 417.46115 378.30641 
L 423.67497 348.616042 
L 429.88879 339.498326 
L 436.10261 382.95619 
L 442.31643 392.506205 
L 448.53025 375.85844 
L 454.74407 356.533075 
L 460.95789 350.446146 
L 467.17171 375.194532 
L 473.38553 420.55114 
L 479.59935 436.160253 
L 485.81317 408.725865 
L 492.02699 393.080071 
L 498.24081 425.18889 
L 504.45463 409.560506 
L 510.66845 385.488384 
L 516.88227 422.849287 
L 523.09609 379.003135 
L 529.30991 398.165283 
L 535.52373 362.431697 
L 541.737551 394.200602 
L 547.951371 423.75233 
L 554.165191 422.773705 
L 560.379011 412.224903 
L 566.592831 415.079589 
L 572.806651 411.727046 
L 579.020471 394.809582 
L 585.234291 400.349891 
L 591.448111 400.20833 
L 597.661931 445.673075 
L 603.875751 410.182649 
L 610.089571 405.764626 
L 616.303391 356.457572 
L 622.517211 402.468118 
L 628.731031 449.54846 
L 634.944851 405.846949 
L 641.158671 391.521407 
L 647.372491 421.908566 
L 653.586311 451.549344 
L 659.800131 381.370101 
L 666.013951 349.697106 
L 672.227771 441.984516 
L 678.441591 431.892183 
" clip-path="url(#p6d7027aa06)" style="fill: none; stroke: #e377c2; stroke-width: 1.5; stroke-linecap: square"/>
   </g>
   <g id="line2d_35">
    <path d="M 63.273409 377.995716 
L 69.487229 400.392168 
L 75.701049 411.993609 
L 81.914869 412.034114 
L 88.128689 435.281627 
L 94.342509 463.086382 
L 100.556329 400.575224 
L 106.770149 449.562033 
L 112.983969 416.129613 
L 119.197789 381.696296 
L 125.411609 429.267115 
L 131.625429 438.448971 
L 137.839249 383.804936 
L 144.053069 375.335686 
L 150.266889 402.975863 
L 156.480709 366.371289 
L 162.694529 347.950205 
L 168.908349 364.720077 
L 175.122169 405.507343 
L 181.335989 412.412768 
L 187.549809 396.470981 
L 193.763629 401.663224 
L 199.977449 373.011561 
L 206.19127 427.101538 
L 212.40509 453.162425 
L 218.61891 419.769958 
L 224.83273 421.708337 
L 231.04655 426.432747 
L 237.26037 460.415644 
L 243.47419 427.867365 
L 249.68801 413.596898 
L 255.90183 386.889839 
L 262.11565 389.736544 
L 268.32947 396.744337 
L 274.54329 363.955233 
L 280.75711 416.551164 
L 286.97093 391.611874 
L 293.18475 440.319559 
L 299.39857 441.59447 
L 305.61239 452.604749 
L 311.82621 402.833662 
L 318.04003 401.430757 
L 324.25385 399.290809 
L 330.46767 428.517449 
L 336.68149 420.765329 
L 342.89531 429.741751 
L 349.10913 402.445425 
L 355.32295 426.88998 
L 361.53677 374.793691 
L 367.75059 432.033327 
L 373.96441 436.568917 
L 380.17823 370.005513 
L 386.39205 395.262948 
L 392.60587 432.271847 
L 398.81969 408.266022 
L 405.03351 415.508745 
L 411.24733 429.120013 
L 417.46115 443.131028 
L 423.67497 343.04695 
L 429.88879 376.695935 
L 436.10261 439.912321 
L 442.31643 376.762284 
L 448.53025 369.647785 
L 454.74407 404.266149 
L 460.95789 426.193766 
L 467.17171 392.634186 
L 473.38553 401.361143 
L 479.59935 452.2563 
L 485.81317 374.799687 
L 492.02699 397.628213 
L 498.24081 355.568628 
L 504.45463 340.556335 
L 510.66845 396.220304 
L 516.88227 367.678636 
L 523.09609 400.093924 
L 529.30991 449.979945 
L 535.52373 434.958053 
L 541.737551 404.660537 
L 547.951371 413.355279 
L 554.165191 413.388069 
L 560.379011 373.20367 
L 566.592831 381.851789 
L 572.806651 412.497389 
L 579.020471 384.994584 
L 585.234291 385.220336 
L 591.448111 460.692474 
L 597.661931 416.676533 
L 603.875751 395.680756 
L 610.089571 395.483978 
L 616.303391 371.231558 
L 622.517211 402.451 
L 628.731031 390.101317 
L 634.944851 436.67693 
L 641.158671 405.258008 
L 647.372491 346.705189 
L 653.586311 399.124207 
L 659.800131 418.819673 
L 666.013951 427.28767 
L 672.227771 408.242417 
L 678.441591 431.782288 
" clip-path="url(#p6d7027aa06)" style="fill: none; stroke: #7f7f7f; stroke-width: 1.5; stroke-linecap: square"/>
   </g>
   <g id="line2d_36">
    <path d="M 63.273409 412.44137 
L 69.487229 380.953474 
L 75.701049 373.869619 
L 81.914869 434.144021 
L 88.128689 387.694202 
L 94.342509 366.071107 
L 100.556329 358.230555 
L 106.770149 366.983938 
L 112.983969 375.591091 
L 119.197789 357.386213 
L 125.411609 323.588103 
L 131.625429 386.406824 
L 137.839249 361.5266 
L 144.053069 381.353846 
L 150.266889 392.471761 
L 156.480709 437.018884 
L 162.694529 424.60301 
L 168.908349 438.139868 
L 175.122169 430.125921 
L 181.335989 443.698153 
L 187.549809 432.490865 
L 193.763629 425.701162 
L 199.977449 408.370433 
L 206.19127 447.135903 
L 212.40509 461.828729 
L 218.61891 419.085871 
L 224.83273 429.843509 
L 231.04655 383.344588 
L 237.26037 383.630623 
L 243.47419 373.201363 
L 249.68801 345.707462 
L 255.90183 379.637945 
L 262.11565 403.940906 
L 268.32947 376.014225 
L 274.54329 372.088208 
L 280.75711 389.436794 
L 286.97093 354.358218 
L 293.18475 381.262239 
L 299.39857 387.924082 
L 305.61239 391.575115 
L 311.82621 419.889121 
L 318.04003 405.995657 
L 324.25385 362.49071 
L 330.46767 367.115189 
L 336.68149 380.897952 
L 342.89531 393.133239 
L 349.10913 385.598537 
L 355.32295 370.222245 
L 361.53677 366.428537 
L 367.75059 390.612437 
L 373.96441 384.506781 
L 380.17823 377.154064 
L 386.39205 414.690585 
L 392.60587 400.884345 
L 398.81969 458.53948 
L 405.03351 414.098527 
L 411.24733 386.95043 
L 417.46115 370.959728 
L 423.67497 394.628991 
L 429.88879 386.951114 
L 436.10261 352.214822 
L 442.31643 335.128909 
L 448.53025 366.574132 
L 454.74407 377.627325 
L 460.95789 356.228262 
L 467.17171 417.906987 
L 473.38553 416.108089 
L 479.59935 369.242673 
L 485.81317 355.796876 
L 492.02699 365.866268 
L 498.24081 422.865397 
L 504.45463 411.017074 
L 510.66845 420.058045 
L 516.88227 399.056176 
L 523.09609 420.158682 
L 529.30991 436.706371 
L 535.52373 473.777895 
L 541.737551 401.23036 
L 547.951371 409.895213 
L 554.165191 398.793851 
L 560.379011 397.660166 
L 566.592831 426.613035 
L 572.806651 446.400127 
L 579.020471 449.26152 
L 585.234291 442.873102 
L 591.448111 409.478029 
L 597.661931 424.991909 
L 603.875751 362.296775 
L 610.089571 350.884226 
L 616.303391 351.241307 
L 622.517211 377.13797 
L 628.731031 344.805025 
L 634.944851 376.645306 
L 641.158671 387.390215 
L 647.372491 387.185829 
L 653.586311 372.344549 
L 659.800131 366.722893 
L 666.013951 394.729782 
L 672.227771 410.336932 
L 678.441591 385.636088 
" clip-path="url(#p6d7027aa06)" style="fill: none; stroke: #bcbd22; stroke-width: 1.5; stroke-linecap: square"/>
   </g>
   <g id="line2d_37">
    <path d="M 63.273409 404.294064 
L 69.487229 411.249165 
L 75.701049 447.811451 
L 81.914869 427.852281 
L 88.128689 394.847621 
L 94.342509 345.591613 
L 100.556329 404.195963 
L 106.770149 412.120742 
L 112.983969 415.053106 
L 119.197789 368.154413 
L 125.411609 383.246754 
L 131.625429 414.969282 
L 137.839249 390.202767 
L 144.053069 404.516324 
L 150.266889 434.390752 
L 156.480709 440.137968 
L 162.694529 370.214794 
L 168.908349 372.661045 
L 175.122169 381.54539 
L 181.335989 395.899202 
L 187.549809 388.054513 
L 193.763629 384.46231 
L 199.977449 382.335513 
L 206.19127 386.186277 
L 212.40509 367.217396 
L 218.61891 381.169625 
L 224.83273 415.887591 
L 231.04655 423.117052 
L 237.26037 464.604174 
L 243.47419 374.334236 
L 249.68801 361.458865 
L 255.90183 401.934345 
L 262.11565 406.979139 
L 268.32947 419.340507 
L 274.54329 365.122947 
L 280.75711 420.111664 
L 286.97093 405.08458 
L 293.18475 403.751132 
L 299.39857 377.16265 
L 305.61239 389.664943 
L 311.82621 441.758829 
L 318.04003 426.039845 
L 324.25385 438.162614 
L 330.46767 415.07714 
L 336.68149 365.99452 
L 342.89531 429.403068 
L 349.10913 435.079277 
L 355.32295 431.057603 
L 361.53677 424.306138 
L 367.75059 389.843225 
L 373.96441 397.932255 
L 380.17823 385.644226 
L 386.39205 408.365342 
L 392.60587 396.012007 
L 398.81969 374.652158 
L 405.03351 405.821471 
L 411.24733 379.458218 
L 417.46115 386.478922 
L 423.67497 362.467897 
L 429.88879 385.017103 
L 436.10261 380.144356 
L 442.31643 389.398712 
L 448.53025 395.566897 
L 454.74407 388.80894 
L 460.95789 377.729172 
L 467.17171 421.694923 
L 473.38553 369.318471 
L 479.59935 434.397187 
L 485.81317 434.377968 
L 492.02699 418.002674 
L 498.24081 395.774955 
L 504.45463 352.408315 
L 510.66845 425.904099 
L 516.88227 425.222964 
L 523.09609 469.753513 
L 529.30991 432.201634 
L 535.52373 406.772882 
L 541.737551 357.502025 
L 547.951371 373.609084 
L 554.165191 356.07275 
L 560.379011 360.057747 
L 566.592831 390.292098 
L 572.806651 432.393714 
L 579.020471 406.77695 
L 585.234291 442.940229 
L 591.448111 383.777331 
L 597.661931 394.581099 
L 603.875751 362.369882 
L 610.089571 392.694312 
L 616.303391 387.097726 
L 622.517211 385.948406 
L 628.731031 392.423724 
L 634.944851 406.403346 
L 641.158671 390.526778 
L 647.372491 419.131315 
L 653.586311 441.283885 
L 659.800131 384.400768 
L 666.013951 370.249635 
L 672.227771 381.499983 
L 678.441591 342.805212 
" clip-path="url(#p6d7027aa06)" style="fill: none; stroke: #17becf; stroke-width: 1.5; stroke-linecap: square"/>
   </g>
   <g id="line2d_38">
    <path d="M 63.273409 431.535945 
L 69.487229 377.31319 
L 75.701049 381.992136 
L 81.914869 417.596143 
L 88.128689 355.784655 
L 94.342509 348.638031 
L 100.556329 375.87408 
L 106.770149 365.986201 
L 112.983969 392.382126 
L 119.197789 371.414119 
L 125.411609 450.172099 
L 131.625429 451.548962 
L 137.839249 396.837528 
L 144.053069 403.538669 
L 150.266889 394.218943 
L 156.480709 432.634082 
L 162.694529 363.308424 
L 168.908349 346.862348 
L 175.122169 377.193968 
L 181.335989 398.013513 
L 187.549809 368.674606 
L 193.763629 327.598429 
L 199.977449 335.568927 
L 206.19127 305.798636 
L 212.40509 376.661604 
L 218.61891 409.239638 
L 224.83273 435.770092 
L 231.04655 403.843775 
L 237.26037 395.256612 
L 243.47419 400.040535 
L 249.68801 375.794545 
L 255.90183 351.947037 
L 262.11565 416.455329 
L 268.32947 422.972732 
L 274.54329 386.95899 
L 280.75711 404.643126 
L 286.97093 422.643418 
L 293.18475 381.296256 
L 299.39857 424.585186 
L 305.61239 418.851473 
L 311.82621 398.519259 
L 318.04003 413.363084 
L 324.25385 383.17921 
L 330.46767 405.556076 
L 336.68149 361.942263 
L 342.89531 382.657147 
L 349.10913 370.926919 
L 355.32295 362.990156 
L 361.53677 397.087274 
L 367.75059 453.653008 
L 373.96441 415.030117 
L 380.17823 403.712952 
L 386.39205 384.654117 
L 392.60587 396.806017 
L 398.81969 408.532643 
L 405.03351 346.80684 
L 411.24733 412.4079 
L 417.46115 384.065238 
L 423.67497 406.157744 
L 429.88879 410.585501 
L 436.10261 412.281819 
L 442.31643 426.607654 
L 448.53025 395.674739 
L 454.74407 357.499759 
L 460.95789 363.925634 
L 467.17171 377.299014 
L 473.38553 414.187892 
L 479.59935 390.972413 
L 485.81317 333.928628 
L 492.02699 375.715699 
L 498.24081 396.478677 
L 504.45463 411.989985 
L 510.66845 417.759317 
L 516.88227 483.161204 
L 523.09609 428.557096 
L 529.30991 435.912503 
L 535.52373 460.782597 
L 541.737551 407.719405 
L 547.951371 432.046815 
L 554.165191 423.61014 
L 560.379011 369.366852 
L 566.592831 421.938159 
L 572.806651 451.643103 
L 579.020471 416.5595 
L 585.234291 374.625289 
L 591.448111 429.143502 
L 597.661931 401.474685 
L 603.875751 382.837351 
L 610.089571 446.685288 
L 616.303391 399.415038 
L 622.517211 373.615407 
L 628.731031 393.649415 
L 634.944851 360.31972 
L 641.158671 346.866548 
L 647.372491 368.776789 
L 653.586311 395.100491 
L 659.800131 422.711385 
L 666.013951 410.597904 
L 672.227771 387.710472 
L 678.441591 401.040347 
" clip-path="url(#p6d7027aa06)" style="fill: none; stroke: #1f77b4; stroke-width: 1.5; stroke-linecap: square"/>
   </g>
   <g id="line2d_39">
    <path d="M 63.273409 485.014595 
L 69.487229 405.548718 
L 75.701049 395.70393 
L 81.914869 406.573693 
L 88.128689 377.733681 
L 94.342509 344.815834 
L 100.556329 448.258348 
L 106.770149 410.295666 
L 112.983969 442.885697 
L 119.197789 405.812244 
L 125.411609 397.562099 
L 131.625429 379.364412 
L 137.839249 401.719043 
L 144.053069 450.973734 
L 150.266889 436.169111 
L 156.480709 405.010826 
L 162.694529 372.56712 
L 168.908349 416.95967 
L 175.122169 378.218184 
L 181.335989 405.264756 
L 187.549809 390.789041 
L 193.763629 407.726398 
L 199.977449 397.015931 
L 206.19127 371.992628 
L 212.40509 418.201701 
L 218.61891 426.14426 
L 224.83273 406.147488 
L 231.04655 334.720009 
L 237.26037 389.482748 
L 243.47419 336.404476 
L 249.68801 310.854986 
L 255.90183 356.325487 
L 262.11565 384.626644 
L 268.32947 409.693701 
L 274.54329 404.938159 
L 280.75711 439.654631 
L 286.97093 420.141339 
L 293.18475 366.788928 
L 299.39857 398.530645 
L 305.61239 404.137718 
L 311.82621 447.413683 
L 318.04003 411.541696 
L 324.25385 396.642498 
L 330.46767 394.757085 
L 336.68149 401.588674 
L 342.89531 407.108737 
L 349.10913 387.846452 
L 355.32295 392.923035 
L 361.53677 385.933936 
L 367.75059 385.210377 
L 373.96441 359.672929 
L 380.17823 359.276182 
L 386.39205 372.494538 
L 392.60587 342.368542 
L 398.81969 357.738609 
L 405.03351 340.906164 
L 411.24733 351.834132 
L 417.46115 425.16328 
L 423.67497 374.622045 
L 429.88879 381.766107 
L 436.10261 390.524089 
L 442.31643 385.66627 
L 448.53025 400.59485 
L 454.74407 392.207003 
L 460.95789 410.707345 
L 467.17171 368.241054 
L 473.38553 385.469604 
L 479.59935 401.538542 
L 485.81317 424.602903 
L 492.02699 403.0541 
L 498.24081 394.542977 
L 504.45463 384.708316 
L 510.66845 419.023547 
L 516.88227 452.086432 
L 523.09609 406.907456 
L 529.30991 360.511149 
L 535.52373 406.90007 
L 541.737551 357.603156 
L 547.951371 369.134783 
L 554.165191 382.964341 
L 560.379011 400.700631 
L 566.592831 436.9206 
L 572.806651 389.288652 
L 579.020471 414.339877 
L 585.234291 426.981892 
L 591.448111 384.202965 
L 597.661931 442.485711 
L 603.875751 461.667451 
L 610.089571 429.537495 
L 616.303391 404.842189 
L 622.517211 387.188887 
L 628.731031 400.159384 
L 634.944851 328.156918 
L 641.158671 368.595248 
L 647.372491 388.894604 
L 653.586311 414.735364 
L 659.800131 402.135075 
L 666.013951 382.226368 
L 672.227771 355.95971 
L 678.441591 417.453521 
" clip-path="url(#p6d7027aa06)" style="fill: none; stroke: #ff7f0e; stroke-width: 1.5; stroke-linecap: square"/>
   </g>
   <g id="line2d_40">
    <path d="M 63.273409 430.93263 
L 69.487229 401.288059 
L 75.701049 382.576154 
L 81.914869 389.30781 
L 88.128689 377.822957 
L 94.342509 409.531464 
L 100.556329 359.792804 
L 106.770149 350.588972 
L 112.983969 410.767609 
L 119.197789 433.37929 
L 125.411609 443.904143 
L 131.625429 401.364745 
L 137.839249 434.487175 
L 144.053069 424.618462 
L 150.266889 397.90925 
L 156.480709 398.989494 
L 162.694529 390.521428 
L 168.908349 422.99846 
L 175.122169 393.215281 
L 181.335989 411.802762 
L 187.549809 413.098764 
L 193.763629 398.162352 
L 199.977449 394.425791 
L 206.19127 394.749555 
L 212.40509 416.378072 
L 218.61891 414.691647 
L 224.83273 405.486526 
L 231.04655 439.052137 
L 237.26037 430.545434 
L 243.47419 402.730183 
L 249.68801 434.967835 
L 255.90183 383.632852 
L 262.11565 354.832922 
L 268.32947 410.124464 
L 274.54329 365.639813 
L 280.75711 385.000191 
L 286.97093 379.103041 
L 293.18475 401.516399 
L 299.39857 373.379127 
L 305.61239 373.636719 
L 311.82621 407.582158 
L 318.04003 434.283472 
L 324.25385 455.81223 
L 330.46767 420.898911 
L 336.68149 392.785804 
L 342.89531 376.553943 
L 349.10913 389.747791 
L 355.32295 425.138888 
L 361.53677 429.67296 
L 367.75059 381.102724 
L 373.96441 402.183062 
L 380.17823 395.318222 
L 386.39205 425.669767 
L 392.60587 401.708393 
L 398.81969 411.739199 
L 405.03351 375.063326 
L 411.24733 364.295318 
L 417.46115 394.086346 
L 423.67497 398.754622 
L 429.88879 412.85158 
L 436.10261 443.963677 
L 442.31643 443.945307 
L 448.53025 414.680684 
L 454.74407 396.52766 
L 460.95789 392.348347 
L 467.17171 402.7373 
L 473.38553 373.711845 
L 479.59935 383.296205 
L 485.81317 370.360085 
L 492.02699 432.537788 
L 498.24081 523.171364 
L 504.45463 451.922296 
L 510.66845 463.646813 
L 516.88227 435.912285 
L 523.09609 424.529356 
L 529.30991 366.474352 
L 535.52373 370.35331 
L 541.737551 378.78143 
L 547.951371 364.396443 
L 554.165191 370.187285 
L 560.379011 395.978435 
L 566.592831 366.496682 
L 572.806651 412.203999 
L 579.020471 395.345085 
L 585.234291 438.761472 
L 591.448111 411.930067 
L 597.661931 398.817939 
L 603.875751 351.150685 
L 610.089571 417.14659 
L 616.303391 423.426863 
L 622.517211 387.115697 
L 628.731031 382.466436 
L 634.944851 384.437651 
L 641.158671 416.917375 
L 647.372491 423.033219 
L 653.586311 375.214075 
L 659.800131 387.235725 
L 666.013951 381.416757 
L 672.227771 392.101802 
L 678.441591 427.038898 
" clip-path="url(#p6d7027aa06)" style="fill: none; stroke: #2ca02c; stroke-width: 1.5; stroke-linecap: square"/>
   </g>
   <g id="line2d_41">
    <path d="M 63.273409 398.23674 
L 69.487229 383.373536 
L 75.701049 325.992002 
L 81.914869 389.341966 
L 88.128689 370.076283 
L 94.342509 419.5861 
L 100.556329 403.63373 
L 106.770149 372.95621 
L 112.983969 442.104283 
L 119.197789 424.932639 
L 125.411609 426.275735 
L 131.625429 430.792386 
L 137.839249 402.922033 
L 144.053069 368.604733 
L 150.266889 386.197128 
L 156.480709 385.605146 
L 162.694529 387.835957 
L 168.908349 392.069214 
L 175.122169 424.424713 
L 181.335989 379.695311 
L 187.549809 379.868139 
L 193.763629 377.191957 
L 199.977449 409.14795 
L 206.19127 415.50154 
L 212.40509 410.833183 
L 218.61891 446.132917 
L 224.83273 468.048073 
L 231.04655 448.873746 
L 237.26037 408.157501 
L 243.47419 420.380326 
L 249.68801 436.625469 
L 255.90183 439.091287 
L 262.11565 430.365738 
L 268.32947 423.190558 
L 274.54329 349.783523 
L 280.75711 343.866336 
L 286.97093 341.734878 
L 293.18475 336.683854 
L 299.39857 394.223409 
L 305.61239 429.188241 
L 311.82621 443.46997 
L 318.04003 382.953109 
L 324.25385 404.842065 
L 330.46767 435.301011 
L 336.68149 427.795894 
L 342.89531 418.711625 
L 349.10913 400.118507 
L 355.32295 391.305878 
L 361.53677 416.805476 
L 367.75059 387.602397 
L 373.96441 409.716349 
L 380.17823 407.390267 
L 386.39205 382.863819 
L 392.60587 407.419885 
L 398.81969 417.689562 
L 405.03351 390.649134 
L 411.24733 417.296094 
L 417.46115 417.512982 
L 423.67497 391.556456 
L 429.88879 337.054498 
L 436.10261 349.950924 
L 442.31643 360.078439 
L 448.53025 363.530362 
L 454.74407 409.707658 
L 460.95789 399.851519 
L 467.17171 398.951893 
L 473.38553 388.765108 
L 479.59935 389.354989 
L 485.81317 382.356115 
L 492.02699 398.010946 
L 498.24081 395.582464 
L 504.45463 430.019191 
L 510.66845 422.076383 
L 516.88227 370.695317 
L 523.09609 374.713757 
L 529.30991 386.137878 
L 535.52373 338.722999 
L 541.737551 405.275458 
L 547.951371 431.585223 
L 554.165191 366.529554 
L 560.379011 380.19228 
L 566.592831 395.020046 
L 572.806651 428.94472 
L 579.020471 400.266595 
L 585.234291 383.245928 
L 591.448111 420.15584 
L 597.661931 412.166585 
L 603.875751 413.58264 
L 610.089571 397.898656 
L 616.303391 428.168262 
L 622.517211 377.590199 
L 628.731031 361.616143 
L 634.944851 389.073951 
L 641.158671 398.735791 
L 647.372491 401.349771 
L 653.586311 420.445322 
L 659.800131 420.712611 
L 666.013951 416.047509 
L 672.227771 361.527641 
L 678.441591 352.731458 
" clip-path="url(#p6d7027aa06)" style="fill: none; stroke: #d62728; stroke-width: 1.5; stroke-linecap: square"/>
   </g>
   <g id="line2d_42">
    <path d="M 63.273409 398.213342 
L 69.487229 387.05616 
L 75.701049 422.693715 
L 81.914869 410.697914 
L 88.128689 376.655082 
L 94.342509 421.398973 
L 100.556329 391.25994 
L 106.770149 329.464849 
L 112.983969 333.507577 
L 119.197789 325.768096 
L 125.411609 355.034455 
L 131.625429 348.894201 
L 137.839249 392.542141 
L 144.053069 372.416558 
L 150.266889 366.274474 
L 156.480709 373.304161 
L 162.694529 348.382858 
L 168.908349 387.323959 
L 175.122169 397.04711 
L 181.335989 394.079237 
L 187.549809 423.774384 
L 193.763629 403.799456 
L 199.977449 447.737564 
L 206.19127 393.055807 
L 212.40509 393.436661 
L 218.61891 409.355022 
L 224.83273 426.001675 
L 231.04655 417.702929 
L 237.26037 387.978978 
L 243.47419 377.011246 
L 249.68801 406.259372 
L 255.90183 424.777151 
L 262.11565 392.385195 
L 268.32947 414.412186 
L 274.54329 403.747033 
L 280.75711 396.645127 
L 286.97093 387.87562 
L 293.18475 368.353826 
L 299.39857 417.378549 
L 305.61239 459.85434 
L 311.82621 443.85402 
L 318.04003 370.202572 
L 324.25385 327.262107 
L 330.46767 311.084962 
L 336.68149 359.091779 
L 342.89531 427.134759 
L 349.10913 476.701104 
L 355.32295 453.568572 
L 361.53677 430.474705 
L 367.75059 377.394411 
L 373.96441 362.848979 
L 380.17823 373.323641 
L 386.39205 409.523254 
L 392.60587 429.588872 
L 398.81969 405.953026 
L 405.03351 381.860395 
L 411.24733 378.271231 
L 417.46115 416.008585 
L 423.67497 388.173594 
L 429.88879 380.484767 
L 436.10261 418.114916 
L 442.31643 428.994516 
L 448.53025 393.618225 
L 454.74407 401.509222 
L 460.95789 354.915879 
L 467.17171 361.771388 
L 473.38553 392.572893 
L 479.59935 394.770489 
L 485.81317 393.82992 
L 492.02699 415.302015 
L 498.24081 431.142728 
L 504.45463 394.335002 
L 510.66845 371.943707 
L 516.88227 367.440508 
L 523.09609 339.927546 
L 529.30991 383.17912 
L 535.52373 343.391806 
L 541.737551 394.864294 
L 547.951371 423.69786 
L 554.165191 458.823786 
L 560.379011 439.967409 
L 566.592831 432.144549 
L 572.806651 399.698221 
L 579.020471 391.291391 
L 585.234291 426.907714 
L 591.448111 422.538673 
L 597.661931 419.764858 
L 603.875751 457.30134 
L 610.089571 454.036806 
L 616.303391 446.581133 
L 622.517211 381.761814 
L 628.731031 383.77646 
L 634.944851 371.738801 
L 641.158671 425.602217 
L 647.372491 377.907127 
L 653.586311 351.097412 
L 659.800131 429.129942 
L 666.013951 432.312589 
L 672.227771 400.618388 
L 678.441591 380.652509 
" clip-path="url(#p6d7027aa06)" style="fill: none; stroke: #9467bd; stroke-width: 1.5; stroke-linecap: square"/>
   </g>
   <g id="line2d_43">
    <path d="M 63.273409 442.91846 
L 69.487229 428.126735 
L 75.701049 428.819771 
L 81.914869 409.551092 
L 88.128689 369.799422 
L 94.342509 404.468774 
L 100.556329 372.699922 
L 106.770149 406.21361 
L 112.983969 424.798266 
L 119.197789 387.914683 
L 125.411609 366.608987 
L 131.625429 357.910635 
L 137.839249 413.621152 
L 144.053069 417.924665 
L 150.266889 384.356113 
L 156.480709 389.228026 
L 162.694529 422.570417 
L 168.908349 396.785086 
L 175.122169 416.403172 
L 181.335989 356.671237 
L 187.549809 333.724732 
L 193.763629 348.322264 
L 199.977449 334.644847 
L 206.19127 363.728081 
L 212.40509 358.852731 
L 218.61891 336.675603 
L 224.83273 359.735527 
L 231.04655 385.140967 
L 237.26037 438.01179 
L 243.47419 419.510986 
L 249.68801 385.137229 
L 255.90183 364.563546 
L 262.11565 366.505549 
L 268.32947 396.454981 
L 274.54329 451.21225 
L 280.75711 437.531209 
L 286.97093 425.401112 
L 293.18475 419.573955 
L 299.39857 390.846176 
L 305.61239 338.595367 
L 311.82621 364.075542 
L 318.04003 386.245263 
L 324.25385 398.507647 
L 330.46767 394.007971 
L 336.68149 418.159659 
L 342.89531 403.94999 
L 349.10913 387.682874 
L 355.32295 386.231635 
L 361.53677 378.6372 
L 367.75059 375.499393 
L 373.96441 435.055384 
L 380.17823 398.079362 
L 386.39205 415.836693 
L 392.60587 436.488491 
L 398.81969 447.053072 
L 405.03351 409.713038 
L 411.24733 409.225941 
L 417.46115 449.426491 
L 423.67497 409.666627 
L 429.88879 442.930307 
L 436.10261 415.791508 
L 442.31643 399.487463 
L 448.53025 373.403001 
L 454.74407 335.526988 
L 460.95789 403.783907 
L 467.17171 401.547374 
L 473.38553 406.632967 
L 479.59935 389.497219 
L 485.81317 386.973009 
L 492.02699 401.457815 
L 498.24081 411.14882 
L 504.45463 434.715765 
L 510.66845 388.182547 
L 516.88227 379.56659 
L 523.09609 362.550454 
L 529.30991 388.078433 
L 535.52373 410.443276 
L 541.737551 433.306138 
L 547.951371 404.907623 
L 554.165191 429.470757 
L 560.379011 361.704701 
L 566.592831 415.29219 
L 572.806651 398.263384 
L 579.020471 353.910753 
L 585.234291 358.554052 
L 591.448111 372.609807 
L 597.661931 411.345651 
L 603.875751 442.166932 
L 610.089571 397.944327 
L 616.303391 355.433607 
L 622.517211 388.079844 
L 628.731031 423.807885 
L 634.944851 478.228267 
L 641.158671 464.49523 
L 647.372491 433.598596 
L 653.586311 370.684103 
L 659.800131 364.888752 
L 666.013951 372.190778 
L 672.227771 395.385098 
L 678.441591 412.055003 
" clip-path="url(#p6d7027aa06)" style="fill: none; stroke: #8c564b; stroke-width: 1.5; stroke-linecap: square"/>
   </g>
   <g id="line2d_44">
    <path d="M 63.273409 385.160743 
L 69.487229 385.218532 
L 75.701049 449.079735 
L 81.914869 441.406849 
L 88.128689 442.688332 
L 94.342509 434.683965 
L 100.556329 399.943288 
L 106.770149 401.150474 
L 112.983969 400.90662 
L 119.197789 362.254319 
L 125.411609 398.629362 
L 131.625429 345.853442 
L 137.839249 389.731846 
L 144.053069 390.595194 
L 150.266889 401.291792 
L 156.480709 395.426805 
L 162.694529 383.593666 
L 168.908349 377.975198 
L 175.122169 408.059912 
L 181.335989 433.350442 
L 187.549809 345.506181 
L 193.763629 384.366937 
L 199.977449 371.00745 
L 206.19127 428.257413 
L 212.40509 420.078814 
L 218.61891 411.765692 
L 224.83273 390.980965 
L 231.04655 469.138914 
L 237.26037 428.166428 
L 243.47419 444.147149 
L 249.68801 411.286216 
L 255.90183 432.564056 
L 262.11565 438.191187 
L 268.32947 424.879836 
L 274.54329 439.80428 
L 280.75711 431.281815 
L 286.97093 446.914078 
L 293.18475 472.460803 
L 299.39857 406.221032 
L 305.61239 437.229055 
L 311.82621 421.767517 
L 318.04003 388.220147 
L 324.25385 409.3532 
L 330.46767 425.745592 
L 336.68149 404.804289 
L 342.89531 369.622124 
L 349.10913 415.417445 
L 355.32295 410.070977 
L 361.53677 451.249228 
L 367.75059 434.722587 
L 373.96441 414.614597 
L 380.17823 429.192678 
L 386.39205 425.462144 
L 392.60587 449.958396 
L 398.81969 421.044339 
L 405.03351 379.466991 
L 411.24733 418.339797 
L 417.46115 424.627181 
L 423.67497 396.587771 
L 429.88879 362.904501 
L 436.10261 421.03415 
L 442.31643 413.395813 
L 448.53025 397.052734 
L 454.74407 399.555866 
L 460.95789 466.618346 
L 467.17171 417.62371 
L 473.38553 364.90779 
L 479.59935 377.42207 
L 485.81317 415.487234 
L 492.02699 420.165099 
L 498.24081 359.234266 
L 504.45463 352.600609 
L 510.66845 356.7645 
L 516.88227 366.706224 
L 523.09609 399.876383 
L 529.30991 403.697825 
L 535.52373 402.209597 
L 541.737551 384.075693 
L 547.951371 348.422479 
L 554.165191 341.420015 
L 560.379011 408.246541 
L 566.592831 396.116927 
L 572.806651 375.841799 
L 579.020471 368.971675 
L 585.234291 400.124973 
L 591.448111 317.50516 
L 597.661931 392.345568 
L 603.875751 424.392339 
L 610.089571 403.923779 
L 616.303391 341.500263 
L 622.517211 392.124768 
L 628.731031 401.630486 
L 634.944851 369.161481 
L 641.158671 383.276969 
L 647.372491 399.112558 
L 653.586311 382.082143 
L 659.800131 381.690012 
L 666.013951 360.489731 
L 672.227771 342.655678 
L 678.441591 361.021097 
" clip-path="url(#p6d7027aa06)" style="fill: none; stroke: #e377c2; stroke-width: 1.5; stroke-linecap: square"/>
   </g>
   <g id="line2d_45">
    <path d="M 63.273409 416.030602 
L 69.487229 400.282872 
L 75.701049 384.787405 
L 81.914869 389.065978 
L 88.128689 392.751068 
L 94.342509 361.414691 
L 100.556329 336.89252 
L 106.770149 408.426205 
L 112.983969 402.136603 
L 119.197789 418.355267 
L 125.411609 415.996784 
L 131.625429 395.044699 
L 137.839249 377.171458 
L 144.053069 389.894299 
L 150.266889 446.172657 
L 156.480709 448.031797 
L 162.694529 397.372471 
L 168.908349 472.832732 
L 175.122169 401.710481 
L 181.335989 384.61164 
L 187.549809 354.031923 
L 193.763629 380.720114 
L 199.977449 445.688884 
L 206.19127 409.119043 
L 212.40509 367.436348 
L 218.61891 356.292628 
L 224.83273 394.712661 
L 231.04655 393.153142 
L 237.26037 409.544248 
L 243.47419 425.677625 
L 249.68801 384.5634 
L 255.90183 423.67006 
L 262.11565 434.80653 
L 268.32947 446.20028 
L 274.54329 462.6005 
L 280.75711 425.443895 
L 286.97093 378.734496 
L 293.18475 392.691943 
L 299.39857 436.27589 
L 305.61239 393.061826 
L 311.82621 348.016373 
L 318.04003 390.118679 
L 324.25385 406.522703 
L 330.46767 387.172094 
L 336.68149 346.840368 
L 342.89531 386.027534 
L 349.10913 428.141088 
L 355.32295 394.773292 
L 361.53677 373.443334 
L 367.75059 384.752963 
L 373.96441 406.045212 
L 380.17823 373.666661 
L 386.39205 370.401115 
L 392.60587 404.697383 
L 398.81969 399.189348 
L 405.03351 435.255684 
L 411.24733 396.821015 
L 417.46115 403.878987 
L 423.67497 412.215539 
L 429.88879 405.220034 
L 436.10261 399.694188 
L 442.31643 373.247164 
L 448.53025 368.44394 
L 454.74407 386.757747 
L 460.95789 370.416598 
L 467.17171 372.303906 
L 473.38553 396.175501 
L 479.59935 399.745273 
L 485.81317 402.181545 
L 492.02699 385.28971 
L 498.24081 401.017348 
L 504.45463 409.529277 
L 510.66845 348.405796 
L 516.88227 346.361278 
L 523.09609 392.460338 
L 529.30991 378.60893 
L 535.52373 384.225852 
L 541.737551 379.463107 
L 547.951371 384.126637 
L 554.165191 357.296036 
L 560.379011 367.271077 
L 566.592831 383.557415 
L 572.806651 361.097756 
L 579.020471 372.285079 
L 585.234291 380.977227 
L 591.448111 379.987339 
L 597.661931 390.789067 
L 603.875751 393.340042 
L 610.089571 411.130271 
L 616.303391 424.583406 
L 622.517211 438.166243 
L 628.731031 455.860291 
L 634.944851 450.510918 
L 641.158671 428.286127 
L 647.372491 409.486588 
L 653.586311 410.462936 
L 659.800131 468.71616 
L 666.013951 388.922874 
L 672.227771 362.553092 
L 678.441591 367.124445 
" clip-path="url(#p6d7027aa06)" style="fill: none; stroke: #7f7f7f; stroke-width: 1.5; stroke-linecap: square"/>
   </g>
   <g id="line2d_46">
    <path d="M 63.273409 371.253195 
L 69.487229 410.913449 
L 75.701049 351.346294 
L 81.914869 400.623285 
L 88.128689 391.896728 
L 94.342509 429.451361 
L 100.556329 412.51968 
L 106.770149 393.759246 
L 112.983969 399.367763 
L 119.197789 378.101453 
L 125.411609 384.507961 
L 131.625429 404.932846 
L 137.839249 416.375704 
L 144.053069 383.916261 
L 150.266889 408.276462 
L 156.480709 376.970937 
L 162.694529 352.801742 
L 168.908349 420.847059 
L 175.122169 377.228021 
L 181.335989 329.71485 
L 187.549809 356.074875 
L 193.763629 359.636268 
L 199.977449 349.280881 
L 206.19127 380.476082 
L 212.40509 383.387736 
L 218.61891 426.31542 
L 224.83273 407.516942 
L 231.04655 388.155538 
L 237.26037 377.974588 
L 243.47419 357.662456 
L 249.68801 398.504492 
L 255.90183 412.213563 
L 262.11565 351.777911 
L 268.32947 378.256213 
L 274.54329 381.785798 
L 280.75711 390.95116 
L 286.97093 416.44799 
L 293.18475 361.432439 
L 299.39857 393.541594 
L 305.61239 426.212412 
L 311.82621 423.798762 
L 318.04003 465.573761 
L 324.25385 449.037189 
L 330.46767 449.549503 
L 336.68149 405.865203 
L 342.89531 419.796108 
L 349.10913 383.49561 
L 355.32295 351.192914 
L 361.53677 352.149006 
L 367.75059 380.244762 
L 373.96441 384.412899 
L 380.17823 432.669486 
L 386.39205 418.243379 
L 392.60587 431.168188 
L 398.81969 394.543483 
L 405.03351 324.174417 
L 411.24733 346.436896 
L 417.46115 426.600017 
L 423.67497 421.511976 
L 429.88879 405.56262 
L 436.10261 398.561595 
L 442.31643 417.734996 
L 448.53025 400.270958 
L 454.74407 432.77005 
L 460.95789 440.772442 
L 467.17171 400.690484 
L 473.38553 426.693475 
L 479.59935 396.632526 
L 485.81317 434.46935 
L 492.02699 366.527372 
L 498.24081 402.9222 
L 504.45463 405.860775 
L 510.66845 391.969337 
L 516.88227 409.853395 
L 523.09609 399.153713 
L 529.30991 381.833244 
L 535.52373 362.496419 
L 541.737551 357.514702 
L 547.951371 381.719941 
L 554.165191 393.124784 
L 560.379011 329.662897 
L 566.592831 336.708443 
L 572.806651 392.101884 
L 579.020471 391.481192 
L 585.234291 403.229614 
L 591.448111 403.566533 
L 597.661931 434.057412 
L 603.875751 426.645527 
L 610.089571 361.320438 
L 616.303391 362.813527 
L 622.517211 448.645393 
L 628.731031 388.804924 
L 634.944851 362.406837 
L 641.158671 389.361488 
L 647.372491 373.004476 
L 653.586311 408.519935 
L 659.800131 415.493353 
L 666.013951 364.418763 
L 672.227771 387.941037 
L 678.441591 443.987501 
" clip-path="url(#p6d7027aa06)" style="fill: none; stroke: #bcbd22; stroke-width: 1.5; stroke-linecap: square"/>
   </g>
   <g id="line2d_47">
    <path d="M 63.273409 425.869693 
L 69.487229 413.313978 
L 75.701049 371.647886 
L 81.914869 383.627854 
L 88.128689 401.69843 
L 94.342509 370.08885 
L 100.556329 379.898188 
L 106.770149 408.935646 
L 112.983969 370.660658 
L 119.197789 378.164607 
L 125.411609 387.202433 
L 131.625429 386.872067 
L 137.839249 421.308621 
L 144.053069 423.478365 
L 150.266889 409.841114 
L 156.480709 408.516477 
L 162.694529 367.19672 
L 168.908349 375.77462 
L 175.122169 362.396622 
L 181.335989 379.139154 
L 187.549809 358.497931 
L 193.763629 366.433517 
L 199.977449 381.046054 
L 206.19127 389.092356 
L 212.40509 419.197697 
L 218.61891 393.751938 
L 224.83273 396.191377 
L 231.04655 410.208579 
L 237.26037 372.642194 
L 243.47419 419.169478 
L 249.68801 419.49456 
L 255.90183 379.467385 
L 262.11565 379.190839 
L 268.32947 389.122947 
L 274.54329 385.806643 
L 280.75711 386.132443 
L 286.97093 433.29862 
L 293.18475 424.529601 
L 299.39857 365.667444 
L 305.61239 399.30675 
L 311.82621 406.675649 
L 318.04003 416.548946 
L 324.25385 408.887137 
L 330.46767 418.804834 
L 336.68149 394.114594 
L 342.89531 389.790378 
L 349.10913 371.659124 
L 355.32295 413.15545 
L 361.53677 414.210778 
L 367.75059 411.562043 
L 373.96441 391.354921 
L 380.17823 415.86117 
L 386.39205 380.75634 
L 392.60587 355.700318 
L 398.81969 403.455938 
L 405.03351 413.532717 
L 411.24733 419.708962 
L 417.46115 335.104529 
L 423.67497 377.667277 
L 429.88879 340.542917 
L 436.10261 403.574774 
L 442.31643 427.414744 
L 448.53025 430.93642 
L 454.74407 437.105966 
L 460.95789 424.178461 
L 467.17171 429.932776 
L 473.38553 435.873971 
L 479.59935 384.033533 
L 485.81317 356.30306 
L 492.02699 350.044946 
L 498.24081 358.702136 
L 504.45463 374.982101 
L 510.66845 399.46645 
L 516.88227 424.34924 
L 523.09609 400.316157 
L 529.30991 430.884046 
L 535.52373 441.187713 
L 541.737551 386.844453 
L 547.951371 338.950865 
L 554.165191 356.777283 
L 560.379011 345.926674 
L 566.592831 377.977733 
L 572.806651 424.260971 
L 579.020471 393.366624 
L 585.234291 379.107846 
L 591.448111 385.768992 
L 597.661931 397.802649 
L 603.875751 370.436854 
L 610.089571 410.737206 
L 616.303391 425.013556 
L 622.517211 438.645592 
L 628.731031 415.169161 
L 634.944851 435.934513 
L 641.158671 435.130837 
L 647.372491 435.325198 
L 653.586311 423.086039 
L 659.800131 450.963758 
L 666.013951 421.266388 
L 672.227771 374.267955 
L 678.441591 381.580329 
" clip-path="url(#p6d7027aa06)" style="fill: none; stroke: #17becf; stroke-width: 1.5; stroke-linecap: square"/>
   </g>
   <g id="patch_9">
    <path d="M 32.515 534.04 
L 32.515 294.93 
" style="fill: none; stroke: #000000; stroke-width: 0.8; stroke-linejoin: miter; stroke-linecap: square"/>
   </g>
   <g id="patch_10">
    <path d="M 709.2 534.04 
L 709.2 294.93 
" style="fill: none; stroke: #000000; stroke-width: 0.8; stroke-linejoin: miter; stroke-linecap: square"/>
   </g>
   <g id="patch_11">
    <path d="M 32.515 534.04 
L 709.2 534.04 
" style="fill: none; stroke: #000000; stroke-width: 0.8; stroke-linejoin: miter; stroke-linecap: square"/>
   </g>
   <g id="patch_12">
    <path d="M 32.515 294.93 
L 709.2 294.93 
" style="fill: none; stroke: #000000; stroke-width: 0.8; stroke-linejoin: miter; stroke-linecap: square"/>
   </g>
   <g id="text_23">
    <!-- Five Realizations of AR(1) Process with ϕ=0.5 -->
    <g transform="translate(234.874063 288.93) scale(0.12 -0.12)">
     <defs>
      <path id="DejaVuSans-46" d="M 628 4666 
L 3309 4666 
L 3309 4134 
L 1259 4134 
L 1259 2759 
L 3109 2759 
L 3109 2228 
L 1259 2228 
L 1259 0 
L 628 0 
L 628 4666 
z
" transform="scale(0.015625)"/>
      <path id="DejaVuSans-76" d="M 191 3500 
L 800 3500 
L 1894 563 
L 2988 3500 
L 3597 3500 
L 2284 0 
L 1503 0 
L 191 3500 
z
" transform="scale(0.015625)"/>
     </defs>
     <use xlink:href="#DejaVuSans-46"/>
     <use xlink:href="#DejaVuSans-69" x="50.269531"/>
     <use xlink:href="#DejaVuSans-76" x="78.052734"/>
     <use xlink:href="#DejaVuSans-65" x="137.232422"/>
     <use xlink:href="#DejaVuSans-20" x="198.755859"/>
     <use xlink:href="#DejaVuSans-52" x="230.542969"/>
     <use xlink:href="#DejaVuSans-65" x="295.525391"/>
     <use xlink:href="#DejaVuSans-61" x="357.048828"/>
     <use xlink:href="#DejaVuSans-6c" x="418.328125"/>
     <use xlink:href="#DejaVuSans-69" x="446.111328"/>
     <use xlink:href="#DejaVuSans-7a" x="473.894531"/>
     <use xlink:href="#DejaVuSans-61" x="526.384766"/>
     <use xlink:href="#DejaVuSans-74" x="587.664062"/>
     <use xlink:href="#DejaVuSans-69" x="626.873047"/>
     <use xlink:href="#DejaVuSans-6f" x="654.65625"/>
     <use xlink:href="#DejaVuSans-6e" x="715.837891"/>
     <use xlink:href="#DejaVuSans-73" x="779.216797"/>
     <use xlink:href="#DejaVuSans-20" x="831.316406"/>
     <use xlink:href="#DejaVuSans-6f" x="863.103516"/>
     <use xlink:href="#DejaVuSans-66" x="924.285156"/>
     <use xlink:href="#DejaVuSans-20" x="959.490234"/>
     <use xlink:href="#DejaVuSans-41" x="991.277344"/>
     <use xlink:href="#DejaVuSans-52" x="1059.685547"/>
     <use xlink:href="#DejaVuSans-28" x="1129.167969"/>
     <use xlink:href="#DejaVuSans-31" x="1168.181641"/>
     <use xlink:href="#DejaVuSans-29" x="1231.804688"/>
     <use xlink:href="#DejaVuSans-20" x="1270.818359"/>
     <use xlink:href="#DejaVuSans-50" x="1302.605469"/>
     <use xlink:href="#DejaVuSans-72" x="1361.158203"/>
     <use xlink:href="#DejaVuSans-6f" x="1400.021484"/>
     <use xlink:href="#DejaVuSans-63" x="1461.203125"/>
     <use xlink:href="#DejaVuSans-65" x="1516.183594"/>
     <use xlink:href="#DejaVuSans-73" x="1577.707031"/>
     <use xlink:href="#DejaVuSans-73" x="1629.806641"/>
     <use xlink:href="#DejaVuSans-20" x="1681.90625"/>
     <use xlink:href="#DejaVuSans-77" x="1713.693359"/>
     <use xlink:href="#DejaVuSans-69" x="1795.480469"/>
     <use xlink:href="#DejaVuSans-74" x="1823.263672"/>
     <use xlink:href="#DejaVuSans-68" x="1862.472656"/>
     <use xlink:href="#DejaVuSans-20" x="1925.851562"/>
     <use xlink:href="#DejaVuSans-3d5" x="1957.638672"/>
     <use xlink:href="#DejaVuSans-3d" x="2023.605469"/>
     <use xlink:href="#DejaVuSans-30" x="2107.394531"/>
     <use xlink:href="#DejaVuSans-2e" x="2171.017578"/>
     <use xlink:href="#DejaVuSans-35" x="2202.804688"/>
    </g>
   </g>
  </g>
 </g>
 <defs>
  <clipPath id="p2d5b83f60f">
   <rect x="32.515" y="26.16" width="676.685" height="239.11"/>
  </clipPath>
  <clipPath id="p6d7027aa06">
   <rect x="32.515" y="294.93" width="676.685" height="239.11"/>
  </clipPath>
 </defs>
</svg>
