<?xml version="1.0" encoding="utf-8" standalone="no"?>
<!DOCTYPE svg PUBLIC "-//W3C//DTD SVG 1.1//EN"
  "http://www.w3.org/Graphics/SVG/1.1/DTD/svg11.dtd">
<svg xmlns:xlink="http://www.w3.org/1999/xlink" width="720pt" height="576pt" viewBox="0 0 720 576" xmlns="http://www.w3.org/2000/svg" version="1.1">
 <metadata>
  <rdf:RDF xmlns:dc="http://purl.org/dc/elements/1.1/" xmlns:cc="http://creativecommons.org/ns#" xmlns:rdf="http://www.w3.org/1999/02/22-rdf-syntax-ns#">
   <cc:Work>
    <dc:type rdf:resource="http://purl.org/dc/dcmitype/StillImage"/>
    <dc:date>2024-02-17T10:58:47.840462</dc:date>
    <dc:format>image/svg+xml</dc:format>
    <dc:creator>
     <cc:Agent>
      <dc:title>Matplotlib v3.8.2, https://matplotlib.org/</dc:title>
     </cc:Agent>
    </dc:creator>
   </cc:Work>
  </rdf:RDF>
 </metadata>
 <defs>
  <style type="text/css">*{stroke-linejoin: round; stroke-linecap: butt}</style>
 </defs>
 <g id="figure_1">
  <g id="patch_1">
   <path d="M 0 576 
L 720 576 
L 720 0 
L 0 0 
z
" style="fill: #ffffff"/>
  </g>
  <g id="axes_1">
   <g id="patch_2">
    <path d="M 36.925 265.27 
L 709.2 265.27 
L 709.2 26.16 
L 36.925 26.16 
z
" style="fill: #ffffff"/>
   </g>
   <g id="matplotlib.axis_1">
    <g id="xtick_1">
     <g id="line2d_1">
      <defs>
       <path id="m5654546c65" d="M 0 0 
L 0 3.5 
" style="stroke: #000000; stroke-width: 0.8"/>
      </defs>
      <g>
       <use xlink:href="#m5654546c65" x="67.482955" y="265.27" style="stroke: #000000; stroke-width: 0.8"/>
      </g>
     </g>
    </g>
    <g id="xtick_2">
     <g id="line2d_2">
      <g>
       <use xlink:href="#m5654546c65" x="190.949438" y="265.27" style="stroke: #000000; stroke-width: 0.8"/>
      </g>
     </g>
    </g>
    <g id="xtick_3">
     <g id="line2d_3">
      <g>
       <use xlink:href="#m5654546c65" x="314.415921" y="265.27" style="stroke: #000000; stroke-width: 0.8"/>
      </g>
     </g>
    </g>
    <g id="xtick_4">
     <g id="line2d_4">
      <g>
       <use xlink:href="#m5654546c65" x="437.882404" y="265.27" style="stroke: #000000; stroke-width: 0.8"/>
      </g>
     </g>
    </g>
    <g id="xtick_5">
     <g id="line2d_5">
      <g>
       <use xlink:href="#m5654546c65" x="561.348887" y="265.27" style="stroke: #000000; stroke-width: 0.8"/>
      </g>
     </g>
    </g>
    <g id="xtick_6">
     <g id="line2d_6">
      <g>
       <use xlink:href="#m5654546c65" x="684.81537" y="265.27" style="stroke: #000000; stroke-width: 0.8"/>
      </g>
     </g>
    </g>
   </g>
   <g id="matplotlib.axis_2">
    <g id="ytick_1">
     <g id="line2d_7">
      <defs>
       <path id="m99f9a57334" d="M 0 0 
L -3.5 0 
" style="stroke: #000000; stroke-width: 0.8"/>
      </defs>
      <g>
       <use xlink:href="#m99f9a57334" x="36.925" y="258.093487" style="stroke: #000000; stroke-width: 0.8"/>
      </g>
     </g>
     <g id="text_1">
      <!-- 0 -->
      <g transform="translate(23.5625 261.892705) scale(0.1 -0.1)">
       <defs>
        <path id="DejaVuSans-30" d="M 2034 4250 
Q 1547 4250 1301 3770 
Q 1056 3291 1056 2328 
Q 1056 1369 1301 889 
Q 1547 409 2034 409 
Q 2525 409 2770 889 
Q 3016 1369 3016 2328 
Q 3016 3291 2770 3770 
Q 2525 4250 2034 4250 
z
M 2034 4750 
Q 2819 4750 3233 4129 
Q 3647 3509 3647 2328 
Q 3647 1150 3233 529 
Q 2819 -91 2034 -91 
Q 1250 -91 836 529 
Q 422 1150 422 2328 
Q 422 3509 836 4129 
Q 1250 4750 2034 4750 
z
" transform="scale(0.015625)"/>
       </defs>
       <use xlink:href="#DejaVuSans-30"/>
      </g>
     </g>
    </g>
    <g id="ytick_2">
     <g id="line2d_8">
      <g>
       <use xlink:href="#m99f9a57334" x="36.925" y="208.757105" style="stroke: #000000; stroke-width: 0.8"/>
      </g>
     </g>
     <g id="text_2">
      <!-- 20 -->
      <g transform="translate(17.2 212.556324) scale(0.1 -0.1)">
       <defs>
        <path id="DejaVuSans-32" d="M 1228 531 
L 3431 531 
L 3431 0 
L 469 0 
L 469 531 
Q 828 903 1448 1529 
Q 2069 2156 2228 2338 
Q 2531 2678 2651 2914 
Q 2772 3150 2772 3378 
Q 2772 3750 2511 3984 
Q 2250 4219 1831 4219 
Q 1534 4219 1204 4116 
Q 875 4013 500 3803 
L 500 4441 
Q 881 4594 1212 4672 
Q 1544 4750 1819 4750 
Q 2544 4750 2975 4387 
Q 3406 4025 3406 3419 
Q 3406 3131 3298 2873 
Q 3191 2616 2906 2266 
Q 2828 2175 2409 1742 
Q 1991 1309 1228 531 
z
" transform="scale(0.015625)"/>
       </defs>
       <use xlink:href="#DejaVuSans-32"/>
       <use xlink:href="#DejaVuSans-30" x="63.623047"/>
      </g>
     </g>
    </g>
    <g id="ytick_3">
     <g id="line2d_9">
      <g>
       <use xlink:href="#m99f9a57334" x="36.925" y="159.420724" style="stroke: #000000; stroke-width: 0.8"/>
      </g>
     </g>
     <g id="text_3">
      <!-- 40 -->
      <g transform="translate(17.2 163.219942) scale(0.1 -0.1)">
       <defs>
        <path id="DejaVuSans-34" d="M 2419 4116 
L 825 1625 
L 2419 1625 
L 2419 4116 
z
M 2253 4666 
L 3047 4666 
L 3047 1625 
L 3713 1625 
L 3713 1100 
L 3047 1100 
L 3047 0 
L 2419 0 
L 2419 1100 
L 313 1100 
L 313 1709 
L 2253 4666 
z
" transform="scale(0.015625)"/>
       </defs>
       <use xlink:href="#DejaVuSans-34"/>
       <use xlink:href="#DejaVuSans-30" x="63.623047"/>
      </g>
     </g>
    </g>
    <g id="ytick_4">
     <g id="line2d_10">
      <g>
       <use xlink:href="#m99f9a57334" x="36.925" y="110.084342" style="stroke: #000000; stroke-width: 0.8"/>
      </g>
     </g>
     <g id="text_4">
      <!-- 60 -->
      <g transform="translate(17.2 113.883561) scale(0.1 -0.1)">
       <defs>
        <path id="DejaVuSans-36" d="M 2113 2584 
Q 1688 2584 1439 2293 
Q 1191 2003 1191 1497 
Q 1191 994 1439 701 
Q 1688 409 2113 409 
Q 2538 409 2786 701 
Q 3034 994 3034 1497 
Q 3034 2003 2786 2293 
Q 2538 2584 2113 2584 
z
M 3366 4563 
L 3366 3988 
Q 3128 4100 2886 4159 
Q 2644 4219 2406 4219 
Q 1781 4219 1451 3797 
Q 1122 3375 1075 2522 
Q 1259 2794 1537 2939 
Q 1816 3084 2150 3084 
Q 2853 3084 3261 2657 
Q 3669 2231 3669 1497 
Q 3669 778 3244 343 
Q 2819 -91 2113 -91 
Q 1303 -91 875 529 
Q 447 1150 447 2328 
Q 447 3434 972 4092 
Q 1497 4750 2381 4750 
Q 2619 4750 2861 4703 
Q 3103 4656 3366 4563 
z
" transform="scale(0.015625)"/>
       </defs>
       <use xlink:href="#DejaVuSans-36"/>
       <use xlink:href="#DejaVuSans-30" x="63.623047"/>
      </g>
     </g>
    </g>
    <g id="ytick_5">
     <g id="line2d_11">
      <g>
       <use xlink:href="#m99f9a57334" x="36.925" y="60.747961" style="stroke: #000000; stroke-width: 0.8"/>
      </g>
     </g>
     <g id="text_5">
      <!-- 80 -->
      <g transform="translate(17.2 64.54718) scale(0.1 -0.1)">
       <defs>
        <path id="DejaVuSans-38" d="M 2034 2216 
Q 1584 2216 1326 1975 
Q 1069 1734 1069 1313 
Q 1069 891 1326 650 
Q 1584 409 2034 409 
Q 2484 409 2743 651 
Q 3003 894 3003 1313 
Q 3003 1734 2745 1975 
Q 2488 2216 2034 2216 
z
M 1403 2484 
Q 997 2584 770 2862 
Q 544 3141 544 3541 
Q 544 4100 942 4425 
Q 1341 4750 2034 4750 
Q 2731 4750 3128 4425 
Q 3525 4100 3525 3541 
Q 3525 3141 3298 2862 
Q 3072 2584 2669 2484 
Q 3125 2378 3379 2068 
Q 3634 1759 3634 1313 
Q 3634 634 3220 271 
Q 2806 -91 2034 -91 
Q 1263 -91 848 271 
Q 434 634 434 1313 
Q 434 1759 690 2068 
Q 947 2378 1403 2484 
z
M 1172 3481 
Q 1172 3119 1398 2916 
Q 1625 2713 2034 2713 
Q 2441 2713 2670 2916 
Q 2900 3119 2900 3481 
Q 2900 3844 2670 4047 
Q 2441 4250 2034 4250 
Q 1625 4250 1398 4047 
Q 1172 3844 1172 3481 
z
" transform="scale(0.015625)"/>
       </defs>
       <use xlink:href="#DejaVuSans-38"/>
       <use xlink:href="#DejaVuSans-30" x="63.623047"/>
      </g>
     </g>
    </g>
   </g>
   <g id="line2d_12">
    <path d="M 67.482955 254.401364 
L 73.656279 252.275618 
L 79.829603 248.211068 
L 86.002927 241.98721 
L 92.176251 240.098005 
L 98.349575 238.208759 
L 104.522899 231.846308 
L 110.696224 227.486366 
L 116.869548 226.177656 
L 123.042872 222.372439 
L 129.216196 221.048787 
L 135.38952 219.730839 
L 141.562844 216.667143 
L 147.736169 218.92004 
L 153.909493 220.708282 
L 160.082817 219.628524 
L 166.256141 219.660176 
L 172.429465 216.418166 
L 178.602789 216.191278 
L 184.776113 217.208356 
L 190.949438 211.126047 
L 197.122762 209.216177 
L 203.296086 206.582778 
L 209.46941 207.630555 
L 215.642734 206.50663 
L 221.816058 203.766185 
L 227.989382 204.138659 
L 234.162707 200.74506 
L 240.336031 199.759908 
L 246.509355 198.012645 
L 252.682679 197.030127 
L 258.856003 189.994073 
L 265.029327 187.560549 
L 271.202652 187.702912 
L 277.375976 183.207023 
L 283.5493 183.751804 
L 289.722624 180.769757 
L 295.895948 183.137089 
L 302.069272 183.946665 
L 308.242596 180.994225 
L 314.415921 176.705742 
L 320.589245 173.816189 
L 326.762569 171.634653 
L 332.935893 169.910602 
L 339.109217 171.091029 
L 345.282541 170.399936 
L 351.455865 169.069429 
L 357.62919 163.994881 
L 363.802514 160.680418 
L 369.975838 162.5627 
L 376.149162 159.296424 
L 382.322486 157.779533 
L 388.49581 156.982558 
L 394.669135 153.006844 
L 400.842459 147.996736 
L 407.015783 143.232617 
L 413.189107 142.835996 
L 419.362431 141.131948 
L 425.535755 137.847962 
L 431.709079 132.97465 
L 437.882404 131.689867 
L 444.055728 129.681035 
L 450.229052 129.943344 
L 456.402376 130.42735 
L 462.5757 125.956177 
L 468.749024 120.143759 
L 474.922348 117.854576 
L 481.095673 112.912223 
L 487.268997 109.553313 
L 493.442321 108.677888 
L 499.615645 105.319571 
L 505.788969 99.058694 
L 511.962293 96.680251 
L 518.135618 90.353739 
L 524.308942 94.349357 
L 530.482266 89.855054 
L 536.65559 87.173505 
L 542.828914 85.444283 
L 549.002238 82.751107 
L 555.175562 85.187261 
L 561.348887 83.262332 
L 567.522211 79.914581 
L 573.695535 73.802065 
L 579.868859 72.613725 
L 586.042183 72.141313 
L 592.215507 70.912238 
L 598.388831 66.187287 
L 604.562156 62.909499 
L 610.73548 61.749502 
L 616.908804 58.016545 
L 623.082128 55.310254 
L 629.255452 50.453963 
L 635.428776 49.718981 
L 641.602101 48.060446 
L 647.775425 46.560886 
L 653.948749 47.704294 
L 660.122073 44.507 
L 666.295397 41.396204 
L 672.468721 38.916771 
L 678.642045 37.028636 
" clip-path="url(#p882c713363)" style="fill: none; stroke: #1f77b4; stroke-width: 1.5; stroke-linecap: square"/>
   </g>
   <g id="patch_3">
    <path d="M 36.925 265.27 
L 36.925 26.16 
" style="fill: none; stroke: #000000; stroke-width: 0.8; stroke-linejoin: miter; stroke-linecap: square"/>
   </g>
   <g id="patch_4">
    <path d="M 709.2 265.27 
L 709.2 26.16 
" style="fill: none; stroke: #000000; stroke-width: 0.8; stroke-linejoin: miter; stroke-linecap: square"/>
   </g>
   <g id="patch_5">
    <path d="M 36.925 265.27 
L 709.2 265.27 
" style="fill: none; stroke: #000000; stroke-width: 0.8; stroke-linejoin: miter; stroke-linecap: square"/>
   </g>
   <g id="patch_6">
    <path d="M 36.925 26.16 
L 709.2 26.16 
" style="fill: none; stroke: #000000; stroke-width: 0.8; stroke-linejoin: miter; stroke-linecap: square"/>
   </g>
   <g id="text_6">
    <!-- One Realization of AR(1) Process with ϕ=1 -->
    <g transform="translate(245.6375 20.16) scale(0.12 -0.12)">
     <defs>
      <path id="DejaVuSans-4f" d="M 2522 4238 
Q 1834 4238 1429 3725 
Q 1025 3213 1025 2328 
Q 1025 1447 1429 934 
Q 1834 422 2522 422 
Q 3209 422 3611 934 
Q 4013 1447 4013 2328 
Q 4013 3213 3611 3725 
Q 3209 4238 2522 4238 
z
M 2522 4750 
Q 3503 4750 4090 4092 
Q 4678 3434 4678 2328 
Q 4678 1225 4090 567 
Q 3503 -91 2522 -91 
Q 1538 -91 948 565 
Q 359 1222 359 2328 
Q 359 3434 948 4092 
Q 1538 4750 2522 4750 
z
" transform="scale(0.015625)"/>
      <path id="DejaVuSans-6e" d="M 3513 2113 
L 3513 0 
L 2938 0 
L 2938 2094 
Q 2938 2591 2744 2837 
Q 2550 3084 2163 3084 
Q 1697 3084 1428 2787 
Q 1159 2491 1159 1978 
L 1159 0 
L 581 0 
L 581 3500 
L 1159 3500 
L 1159 2956 
Q 1366 3272 1645 3428 
Q 1925 3584 2291 3584 
Q 2894 3584 3203 3211 
Q 3513 2838 3513 2113 
z
" transform="scale(0.015625)"/>
      <path id="DejaVuSans-65" d="M 3597 1894 
L 3597 1613 
L 953 1613 
Q 991 1019 1311 708 
Q 1631 397 2203 397 
Q 2534 397 2845 478 
Q 3156 559 3463 722 
L 3463 178 
Q 3153 47 2828 -22 
Q 2503 -91 2169 -91 
Q 1331 -91 842 396 
Q 353 884 353 1716 
Q 353 2575 817 3079 
Q 1281 3584 2069 3584 
Q 2775 3584 3186 3129 
Q 3597 2675 3597 1894 
z
M 3022 2063 
Q 3016 2534 2758 2815 
Q 2500 3097 2075 3097 
Q 1594 3097 1305 2825 
Q 1016 2553 972 2059 
L 3022 2063 
z
" transform="scale(0.015625)"/>
      <path id="DejaVuSans-20" transform="scale(0.015625)"/>
      <path id="DejaVuSans-52" d="M 2841 2188 
Q 3044 2119 3236 1894 
Q 3428 1669 3622 1275 
L 4263 0 
L 3584 0 
L 2988 1197 
Q 2756 1666 2539 1819 
Q 2322 1972 1947 1972 
L 1259 1972 
L 1259 0 
L 628 0 
L 628 4666 
L 2053 4666 
Q 2853 4666 3247 4331 
Q 3641 3997 3641 3322 
Q 3641 2881 3436 2590 
Q 3231 2300 2841 2188 
z
M 1259 4147 
L 1259 2491 
L 2053 2491 
Q 2509 2491 2742 2702 
Q 2975 2913 2975 3322 
Q 2975 3731 2742 3939 
Q 2509 4147 2053 4147 
L 1259 4147 
z
" transform="scale(0.015625)"/>
      <path id="DejaVuSans-61" d="M 2194 1759 
Q 1497 1759 1228 1600 
Q 959 1441 959 1056 
Q 959 750 1161 570 
Q 1363 391 1709 391 
Q 2188 391 2477 730 
Q 2766 1069 2766 1631 
L 2766 1759 
L 2194 1759 
z
M 3341 1997 
L 3341 0 
L 2766 0 
L 2766 531 
Q 2569 213 2275 61 
Q 1981 -91 1556 -91 
Q 1019 -91 701 211 
Q 384 513 384 1019 
Q 384 1609 779 1909 
Q 1175 2209 1959 2209 
L 2766 2209 
L 2766 2266 
Q 2766 2663 2505 2880 
Q 2244 3097 1772 3097 
Q 1472 3097 1187 3025 
Q 903 2953 641 2809 
L 641 3341 
Q 956 3463 1253 3523 
Q 1550 3584 1831 3584 
Q 2591 3584 2966 3190 
Q 3341 2797 3341 1997 
z
" transform="scale(0.015625)"/>
      <path id="DejaVuSans-6c" d="M 603 4863 
L 1178 4863 
L 1178 0 
L 603 0 
L 603 4863 
z
" transform="scale(0.015625)"/>
      <path id="DejaVuSans-69" d="M 603 3500 
L 1178 3500 
L 1178 0 
L 603 0 
L 603 3500 
z
M 603 4863 
L 1178 4863 
L 1178 4134 
L 603 4134 
L 603 4863 
z
" transform="scale(0.015625)"/>
      <path id="DejaVuSans-7a" d="M 353 3500 
L 3084 3500 
L 3084 2975 
L 922 459 
L 3084 459 
L 3084 0 
L 275 0 
L 275 525 
L 2438 3041 
L 353 3041 
L 353 3500 
z
" transform="scale(0.015625)"/>
      <path id="DejaVuSans-74" d="M 1172 4494 
L 1172 3500 
L 2356 3500 
L 2356 3053 
L 1172 3053 
L 1172 1153 
Q 1172 725 1289 603 
Q 1406 481 1766 481 
L 2356 481 
L 2356 0 
L 1766 0 
Q 1100 0 847 248 
Q 594 497 594 1153 
L 594 3053 
L 172 3053 
L 172 3500 
L 594 3500 
L 594 4494 
L 1172 4494 
z
" transform="scale(0.015625)"/>
      <path id="DejaVuSans-6f" d="M 1959 3097 
Q 1497 3097 1228 2736 
Q 959 2375 959 1747 
Q 959 1119 1226 758 
Q 1494 397 1959 397 
Q 2419 397 2687 759 
Q 2956 1122 2956 1747 
Q 2956 2369 2687 2733 
Q 2419 3097 1959 3097 
z
M 1959 3584 
Q 2709 3584 3137 3096 
Q 3566 2609 3566 1747 
Q 3566 888 3137 398 
Q 2709 -91 1959 -91 
Q 1206 -91 779 398 
Q 353 888 353 1747 
Q 353 2609 779 3096 
Q 1206 3584 1959 3584 
z
" transform="scale(0.015625)"/>
      <path id="DejaVuSans-66" d="M 2375 4863 
L 2375 4384 
L 1825 4384 
Q 1516 4384 1395 4259 
Q 1275 4134 1275 3809 
L 1275 3500 
L 2222 3500 
L 2222 3053 
L 1275 3053 
L 1275 0 
L 697 0 
L 697 3053 
L 147 3053 
L 147 3500 
L 697 3500 
L 697 3744 
Q 697 4328 969 4595 
Q 1241 4863 1831 4863 
L 2375 4863 
z
" transform="scale(0.015625)"/>
      <path id="DejaVuSans-41" d="M 2188 4044 
L 1331 1722 
L 3047 1722 
L 2188 4044 
z
M 1831 4666 
L 2547 4666 
L 4325 0 
L 3669 0 
L 3244 1197 
L 1141 1197 
L 716 0 
L 50 0 
L 1831 4666 
z
" transform="scale(0.015625)"/>
      <path id="DejaVuSans-28" d="M 1984 4856 
Q 1566 4138 1362 3434 
Q 1159 2731 1159 2009 
Q 1159 1288 1364 580 
Q 1569 -128 1984 -844 
L 1484 -844 
Q 1016 -109 783 600 
Q 550 1309 550 2009 
Q 550 2706 781 3412 
Q 1013 4119 1484 4856 
L 1984 4856 
z
" transform="scale(0.015625)"/>
      <path id="DejaVuSans-31" d="M 794 531 
L 1825 531 
L 1825 4091 
L 703 3866 
L 703 4441 
L 1819 4666 
L 2450 4666 
L 2450 531 
L 3481 531 
L 3481 0 
L 794 0 
L 794 531 
z
" transform="scale(0.015625)"/>
      <path id="DejaVuSans-29" d="M 513 4856 
L 1013 4856 
Q 1481 4119 1714 3412 
Q 1947 2706 1947 2009 
Q 1947 1309 1714 600 
Q 1481 -109 1013 -844 
L 513 -844 
Q 928 -128 1133 580 
Q 1338 1288 1338 2009 
Q 1338 2731 1133 3434 
Q 928 4138 513 4856 
z
" transform="scale(0.015625)"/>
      <path id="DejaVuSans-50" d="M 1259 4147 
L 1259 2394 
L 2053 2394 
Q 2494 2394 2734 2622 
Q 2975 2850 2975 3272 
Q 2975 3691 2734 3919 
Q 2494 4147 2053 4147 
L 1259 4147 
z
M 628 4666 
L 2053 4666 
Q 2838 4666 3239 4311 
Q 3641 3956 3641 3272 
Q 3641 2581 3239 2228 
Q 2838 1875 2053 1875 
L 1259 1875 
L 1259 0 
L 628 0 
L 628 4666 
z
" transform="scale(0.015625)"/>
      <path id="DejaVuSans-72" d="M 2631 2963 
Q 2534 3019 2420 3045 
Q 2306 3072 2169 3072 
Q 1681 3072 1420 2755 
Q 1159 2438 1159 1844 
L 1159 0 
L 581 0 
L 581 3500 
L 1159 3500 
L 1159 2956 
Q 1341 3275 1631 3429 
Q 1922 3584 2338 3584 
Q 2397 3584 2469 3576 
Q 2541 3569 2628 3553 
L 2631 2963 
z
" transform="scale(0.015625)"/>
      <path id="DejaVuSans-63" d="M 3122 3366 
L 3122 2828 
Q 2878 2963 2633 3030 
Q 2388 3097 2138 3097 
Q 1578 3097 1268 2742 
Q 959 2388 959 1747 
Q 959 1106 1268 751 
Q 1578 397 2138 397 
Q 2388 397 2633 464 
Q 2878 531 3122 666 
L 3122 134 
Q 2881 22 2623 -34 
Q 2366 -91 2075 -91 
Q 1284 -91 818 406 
Q 353 903 353 1747 
Q 353 2603 823 3093 
Q 1294 3584 2113 3584 
Q 2378 3584 2631 3529 
Q 2884 3475 3122 3366 
z
" transform="scale(0.015625)"/>
      <path id="DejaVuSans-73" d="M 2834 3397 
L 2834 2853 
Q 2591 2978 2328 3040 
Q 2066 3103 1784 3103 
Q 1356 3103 1142 2972 
Q 928 2841 928 2578 
Q 928 2378 1081 2264 
Q 1234 2150 1697 2047 
L 1894 2003 
Q 2506 1872 2764 1633 
Q 3022 1394 3022 966 
Q 3022 478 2636 193 
Q 2250 -91 1575 -91 
Q 1294 -91 989 -36 
Q 684 19 347 128 
L 347 722 
Q 666 556 975 473 
Q 1284 391 1588 391 
Q 1994 391 2212 530 
Q 2431 669 2431 922 
Q 2431 1156 2273 1281 
Q 2116 1406 1581 1522 
L 1381 1569 
Q 847 1681 609 1914 
Q 372 2147 372 2553 
Q 372 3047 722 3315 
Q 1072 3584 1716 3584 
Q 2034 3584 2315 3537 
Q 2597 3491 2834 3397 
z
" transform="scale(0.015625)"/>
      <path id="DejaVuSans-77" d="M 269 3500 
L 844 3500 
L 1563 769 
L 2278 3500 
L 2956 3500 
L 3675 769 
L 4391 3500 
L 4966 3500 
L 4050 0 
L 3372 0 
L 2619 2869 
L 1863 0 
L 1184 0 
L 269 3500 
z
" transform="scale(0.015625)"/>
      <path id="DejaVuSans-68" d="M 3513 2113 
L 3513 0 
L 2938 0 
L 2938 2094 
Q 2938 2591 2744 2837 
Q 2550 3084 2163 3084 
Q 1697 3084 1428 2787 
Q 1159 2491 1159 1978 
L 1159 0 
L 581 0 
L 581 4863 
L 1159 4863 
L 1159 2956 
Q 1366 3272 1645 3428 
Q 1925 3584 2291 3584 
Q 2894 3584 3203 3211 
Q 3513 2838 3513 2113 
z
" transform="scale(0.015625)"/>
      <path id="DejaVuSans-3d5" d="M 2388 4863 
L 2388 3572 
Q 3009 3572 3425 3094 
Q 3853 2606 3853 1747 
Q 3853 888 3425 400 
Q 3009 -78 2388 -78 
L 2388 -1331 
L 1816 -1331 
L 1816 -78 
Q 1194 -78 775 400 
Q 350 888 350 1747 
Q 350 2606 775 3094 
Q 1194 3572 1816 3572 
L 1816 4863 
L 2388 4863 
z
M 2388 434 
Q 2741 434 2981 756 
Q 3244 1116 3247 1747 
Q 3250 2372 2981 2738 
Q 2741 3059 2388 3059 
L 2388 434 
z
M 1816 434 
L 1816 3059 
Q 1463 3059 1225 2738 
Q 953 2372 956 1747 
Q 959 1116 1225 756 
Q 1463 434 1816 434 
z
" transform="scale(0.015625)"/>
      <path id="DejaVuSans-3d" d="M 678 2906 
L 4684 2906 
L 4684 2381 
L 678 2381 
L 678 2906 
z
M 678 1631 
L 4684 1631 
L 4684 1100 
L 678 1100 
L 678 1631 
z
" transform="scale(0.015625)"/>
     </defs>
     <use xlink:href="#DejaVuSans-4f"/>
     <use xlink:href="#DejaVuSans-6e" x="78.710938"/>
     <use xlink:href="#DejaVuSans-65" x="142.089844"/>
     <use xlink:href="#DejaVuSans-20" x="203.613281"/>
     <use xlink:href="#DejaVuSans-52" x="235.400391"/>
     <use xlink:href="#DejaVuSans-65" x="300.382812"/>
     <use xlink:href="#DejaVuSans-61" x="361.90625"/>
     <use xlink:href="#DejaVuSans-6c" x="423.185547"/>
     <use xlink:href="#DejaVuSans-69" x="450.96875"/>
     <use xlink:href="#DejaVuSans-7a" x="478.751953"/>
     <use xlink:href="#DejaVuSans-61" x="531.242188"/>
     <use xlink:href="#DejaVuSans-74" x="592.521484"/>
     <use xlink:href="#DejaVuSans-69" x="631.730469"/>
     <use xlink:href="#DejaVuSans-6f" x="659.513672"/>
     <use xlink:href="#DejaVuSans-6e" x="720.695312"/>
     <use xlink:href="#DejaVuSans-20" x="784.074219"/>
     <use xlink:href="#DejaVuSans-6f" x="815.861328"/>
     <use xlink:href="#DejaVuSans-66" x="877.042969"/>
     <use xlink:href="#DejaVuSans-20" x="912.248047"/>
     <use xlink:href="#DejaVuSans-41" x="944.035156"/>
     <use xlink:href="#DejaVuSans-52" x="1012.443359"/>
     <use xlink:href="#DejaVuSans-28" x="1081.925781"/>
     <use xlink:href="#DejaVuSans-31" x="1120.939453"/>
     <use xlink:href="#DejaVuSans-29" x="1184.5625"/>
     <use xlink:href="#DejaVuSans-20" x="1223.576172"/>
     <use xlink:href="#DejaVuSans-50" x="1255.363281"/>
     <use xlink:href="#DejaVuSans-72" x="1313.916016"/>
     <use xlink:href="#DejaVuSans-6f" x="1352.779297"/>
     <use xlink:href="#DejaVuSans-63" x="1413.960938"/>
     <use xlink:href="#DejaVuSans-65" x="1468.941406"/>
     <use xlink:href="#DejaVuSans-73" x="1530.464844"/>
     <use xlink:href="#DejaVuSans-73" x="1582.564453"/>
     <use xlink:href="#DejaVuSans-20" x="1634.664062"/>
     <use xlink:href="#DejaVuSans-77" x="1666.451172"/>
     <use xlink:href="#DejaVuSans-69" x="1748.238281"/>
     <use xlink:href="#DejaVuSans-74" x="1776.021484"/>
     <use xlink:href="#DejaVuSans-68" x="1815.230469"/>
     <use xlink:href="#DejaVuSans-20" x="1878.609375"/>
     <use xlink:href="#DejaVuSans-3d5" x="1910.396484"/>
     <use xlink:href="#DejaVuSans-3d" x="1976.363281"/>
     <use xlink:href="#DejaVuSans-31" x="2060.152344"/>
    </g>
   </g>
   <g id="legend_1">
    <g id="patch_7">
     <path d="M 43.925 48.838125 
L 206.821875 48.838125 
Q 208.821875 48.838125 208.821875 46.838125 
L 208.821875 33.16 
Q 208.821875 31.16 206.821875 31.16 
L 43.925 31.16 
Q 41.925 31.16 41.925 33.16 
L 41.925 46.838125 
Q 41.925 48.838125 43.925 48.838125 
z
" style="fill: #ffffff; opacity: 0.8; stroke: #cccccc; stroke-linejoin: miter"/>
    </g>
    <g id="line2d_13">
     <path d="M 45.925 39.258438 
L 55.925 39.258438 
L 65.925 39.258438 
" style="fill: none; stroke: #1f77b4; stroke-width: 1.5; stroke-linecap: square"/>
    </g>
    <g id="text_7">
     <!-- AR(1) with c=1, σ=1, ϕ=1 -->
     <g transform="translate(73.925 42.758438) scale(0.1 -0.1)">
      <defs>
       <path id="DejaVuSans-2c" d="M 750 794 
L 1409 794 
L 1409 256 
L 897 -744 
L 494 -744 
L 750 256 
L 750 794 
z
" transform="scale(0.015625)"/>
       <path id="DejaVuSans-3c3" d="M 1959 3044 
Q 1484 3044 1228 2700 
Q 959 2341 959 1747 
Q 959 1119 1226 758 
Q 1494 397 1959 397 
Q 2419 397 2687 759 
Q 2956 1122 2956 1747 
Q 2956 2319 2688 2700 
Q 2441 3044 1959 3044 
z
M 1959 3500 
L 3869 3500 
L 3869 2925 
L 3225 2925 
Q 3566 2438 3566 1747 
Q 3566 888 3138 400 
Q 2709 -91 1959 -91 
Q 1206 -91 781 400 
Q 353 888 353 1747 
Q 353 2613 781 3097 
Q 1134 3500 1959 3500 
z
" transform="scale(0.015625)"/>
      </defs>
      <use xlink:href="#DejaVuSans-41"/>
      <use xlink:href="#DejaVuSans-52" x="68.408203"/>
      <use xlink:href="#DejaVuSans-28" x="137.890625"/>
      <use xlink:href="#DejaVuSans-31" x="176.904297"/>
      <use xlink:href="#DejaVuSans-29" x="240.527344"/>
      <use xlink:href="#DejaVuSans-20" x="279.541016"/>
      <use xlink:href="#DejaVuSans-77" x="311.328125"/>
      <use xlink:href="#DejaVuSans-69" x="393.115234"/>
      <use xlink:href="#DejaVuSans-74" x="420.898438"/>
      <use xlink:href="#DejaVuSans-68" x="460.107422"/>
      <use xlink:href="#DejaVuSans-20" x="523.486328"/>
      <use xlink:href="#DejaVuSans-63" x="555.273438"/>
      <use xlink:href="#DejaVuSans-3d" x="610.253906"/>
      <use xlink:href="#DejaVuSans-31" x="694.042969"/>
      <use xlink:href="#DejaVuSans-2c" x="757.666016"/>
      <use xlink:href="#DejaVuSans-20" x="789.453125"/>
      <use xlink:href="#DejaVuSans-3c3" x="821.240234"/>
      <use xlink:href="#DejaVuSans-3d" x="884.619141"/>
      <use xlink:href="#DejaVuSans-31" x="968.408203"/>
      <use xlink:href="#DejaVuSans-2c" x="1032.03125"/>
      <use xlink:href="#DejaVuSans-20" x="1063.818359"/>
      <use xlink:href="#DejaVuSans-3d5" x="1095.605469"/>
      <use xlink:href="#DejaVuSans-3d" x="1161.572266"/>
      <use xlink:href="#DejaVuSans-31" x="1245.361328"/>
     </g>
    </g>
   </g>
  </g>
  <g id="axes_2">
   <g id="patch_8">
    <path d="M 36.925 534.04 
L 709.2 534.04 
L 709.2 294.93 
L 36.925 294.93 
z
" style="fill: #ffffff"/>
   </g>
   <g id="matplotlib.axis_3">
    <g id="xtick_7">
     <g id="line2d_14">
      <g>
       <use xlink:href="#m5654546c65" x="67.482955" y="534.04" style="stroke: #000000; stroke-width: 0.8"/>
      </g>
     </g>
     <g id="text_8">
      <!-- 0 -->
      <g transform="translate(64.301705 548.638438) scale(0.1 -0.1)">
       <use xlink:href="#DejaVuSans-30"/>
      </g>
     </g>
    </g>
    <g id="xtick_8">
     <g id="line2d_15">
      <g>
       <use xlink:href="#m5654546c65" x="190.949438" y="534.04" style="stroke: #000000; stroke-width: 0.8"/>
      </g>
     </g>
     <g id="text_9">
      <!-- 20 -->
      <g transform="translate(184.586938 548.638438) scale(0.1 -0.1)">
       <use xlink:href="#DejaVuSans-32"/>
       <use xlink:href="#DejaVuSans-30" x="63.623047"/>
      </g>
     </g>
    </g>
    <g id="xtick_9">
     <g id="line2d_16">
      <g>
       <use xlink:href="#m5654546c65" x="314.415921" y="534.04" style="stroke: #000000; stroke-width: 0.8"/>
      </g>
     </g>
     <g id="text_10">
      <!-- 40 -->
      <g transform="translate(308.053421 548.638438) scale(0.1 -0.1)">
       <use xlink:href="#DejaVuSans-34"/>
       <use xlink:href="#DejaVuSans-30" x="63.623047"/>
      </g>
     </g>
    </g>
    <g id="xtick_10">
     <g id="line2d_17">
      <g>
       <use xlink:href="#m5654546c65" x="437.882404" y="534.04" style="stroke: #000000; stroke-width: 0.8"/>
      </g>
     </g>
     <g id="text_11">
      <!-- 60 -->
      <g transform="translate(431.519904 548.638438) scale(0.1 -0.1)">
       <use xlink:href="#DejaVuSans-36"/>
       <use xlink:href="#DejaVuSans-30" x="63.623047"/>
      </g>
     </g>
    </g>
    <g id="xtick_11">
     <g id="line2d_18">
      <g>
       <use xlink:href="#m5654546c65" x="561.348887" y="534.04" style="stroke: #000000; stroke-width: 0.8"/>
      </g>
     </g>
     <g id="text_12">
      <!-- 80 -->
      <g transform="translate(554.986387 548.638438) scale(0.1 -0.1)">
       <use xlink:href="#DejaVuSans-38"/>
       <use xlink:href="#DejaVuSans-30" x="63.623047"/>
      </g>
     </g>
    </g>
    <g id="xtick_12">
     <g id="line2d_19">
      <g>
       <use xlink:href="#m5654546c65" x="684.81537" y="534.04" style="stroke: #000000; stroke-width: 0.8"/>
      </g>
     </g>
     <g id="text_13">
      <!-- 100 -->
      <g transform="translate(675.27162 548.638438) scale(0.1 -0.1)">
       <use xlink:href="#DejaVuSans-31"/>
       <use xlink:href="#DejaVuSans-30" x="63.623047"/>
       <use xlink:href="#DejaVuSans-30" x="127.246094"/>
      </g>
     </g>
    </g>
    <g id="text_14">
     <!-- t -->
     <g transform="translate(371.102344 562.316562) scale(0.1 -0.1)">
      <use xlink:href="#DejaVuSans-74"/>
     </g>
    </g>
   </g>
   <g id="matplotlib.axis_4">
    <g id="ytick_6">
     <g id="line2d_20">
      <g>
       <use xlink:href="#m99f9a57334" x="36.925" y="522.154225" style="stroke: #000000; stroke-width: 0.8"/>
      </g>
     </g>
     <g id="text_15">
      <!-- 0 -->
      <g transform="translate(23.5625 525.953444) scale(0.1 -0.1)">
       <use xlink:href="#DejaVuSans-30"/>
      </g>
     </g>
    </g>
    <g id="ytick_7">
     <g id="line2d_21">
      <g>
       <use xlink:href="#m99f9a57334" x="36.925" y="487.931783" style="stroke: #000000; stroke-width: 0.8"/>
      </g>
     </g>
     <g id="text_16">
      <!-- 20 -->
      <g transform="translate(17.2 491.731001) scale(0.1 -0.1)">
       <use xlink:href="#DejaVuSans-32"/>
       <use xlink:href="#DejaVuSans-30" x="63.623047"/>
      </g>
     </g>
    </g>
    <g id="ytick_8">
     <g id="line2d_22">
      <g>
       <use xlink:href="#m99f9a57334" x="36.925" y="453.70934" style="stroke: #000000; stroke-width: 0.8"/>
      </g>
     </g>
     <g id="text_17">
      <!-- 40 -->
      <g transform="translate(17.2 457.508558) scale(0.1 -0.1)">
       <use xlink:href="#DejaVuSans-34"/>
       <use xlink:href="#DejaVuSans-30" x="63.623047"/>
      </g>
     </g>
    </g>
    <g id="ytick_9">
     <g id="line2d_23">
      <g>
       <use xlink:href="#m99f9a57334" x="36.925" y="419.486897" style="stroke: #000000; stroke-width: 0.8"/>
      </g>
     </g>
     <g id="text_18">
      <!-- 60 -->
      <g transform="translate(17.2 423.286116) scale(0.1 -0.1)">
       <use xlink:href="#DejaVuSans-36"/>
       <use xlink:href="#DejaVuSans-30" x="63.623047"/>
      </g>
     </g>
    </g>
    <g id="ytick_10">
     <g id="line2d_24">
      <g>
       <use xlink:href="#m99f9a57334" x="36.925" y="385.264454" style="stroke: #000000; stroke-width: 0.8"/>
      </g>
     </g>
     <g id="text_19">
      <!-- 80 -->
      <g transform="translate(17.2 389.063673) scale(0.1 -0.1)">
       <use xlink:href="#DejaVuSans-38"/>
       <use xlink:href="#DejaVuSans-30" x="63.623047"/>
      </g>
     </g>
    </g>
    <g id="ytick_11">
     <g id="line2d_25">
      <g>
       <use xlink:href="#m99f9a57334" x="36.925" y="351.042011" style="stroke: #000000; stroke-width: 0.8"/>
      </g>
     </g>
     <g id="text_20">
      <!-- 100 -->
      <g transform="translate(10.8375 354.84123) scale(0.1 -0.1)">
       <use xlink:href="#DejaVuSans-31"/>
       <use xlink:href="#DejaVuSans-30" x="63.623047"/>
       <use xlink:href="#DejaVuSans-30" x="127.246094"/>
      </g>
     </g>
    </g>
    <g id="ytick_12">
     <g id="line2d_26">
      <g>
       <use xlink:href="#m99f9a57334" x="36.925" y="316.819569" style="stroke: #000000; stroke-width: 0.8"/>
      </g>
     </g>
     <g id="text_21">
      <!-- 120 -->
      <g transform="translate(10.8375 320.618787) scale(0.1 -0.1)">
       <use xlink:href="#DejaVuSans-31"/>
       <use xlink:href="#DejaVuSans-32" x="63.623047"/>
       <use xlink:href="#DejaVuSans-30" x="127.246094"/>
      </g>
     </g>
    </g>
   </g>
   <g id="line2d_27">
    <path d="M 67.482955 522.864975 
L 73.656279 521.873629 
L 79.829603 520.748933 
L 86.002927 520.410605 
L 92.176251 518.975463 
L 98.349575 516.57296 
L 104.522899 511.634344 
L 110.696224 509.624497 
L 116.869548 507.472675 
L 123.042872 505.888939 
L 129.216196 507.461069 
L 135.38952 505.795315 
L 141.562844 503.981132 
L 147.736169 498.055102 
L 153.909493 496.673133 
L 160.082817 494.446026 
L 166.256141 492.7943 
L 172.429465 493.082929 
L 178.602789 489.416297 
L 184.776113 486.418526 
L 190.949438 483.353851 
L 197.122762 483.198802 
L 203.296086 479.087328 
L 209.46941 479.774944 
L 215.642734 477.059638 
L 221.816058 471.600378 
L 227.989382 471.584185 
L 234.162707 470.842067 
L 240.336031 468.96043 
L 246.509355 468.110816 
L 252.682679 469.053068 
L 258.856003 467.224626 
L 265.029327 467.331236 
L 271.202652 464.809739 
L 277.375976 464.671864 
L 283.5493 460.308615 
L 289.722624 459.937735 
L 295.895948 458.777699 
L 302.069272 455.67455 
L 308.242596 456.069587 
L 314.415921 453.969253 
L 320.589245 450.02145 
L 326.762569 451.060928 
L 332.935893 449.033875 
L 339.109217 446.878061 
L 345.282541 443.829145 
L 351.455865 444.234596 
L 357.62919 444.782937 
L 363.802514 442.178709 
L 369.975838 439.95941 
L 376.149162 437.819664 
L 382.322486 435.515726 
L 388.49581 434.968209 
L 394.669135 432.859673 
L 400.842459 430.647068 
L 407.015783 430.158288 
L 413.189107 425.254598 
L 419.362431 422.73269 
L 425.535755 423.060034 
L 431.709079 420.225468 
L 437.882404 420.182145 
L 444.055728 417.124225 
L 450.229052 413.430605 
L 456.402376 413.12377 
L 462.5757 409.764194 
L 468.749024 407.346753 
L 474.922348 404.228986 
L 481.095673 399.272219 
L 487.268997 397.980986 
L 493.442321 397.559598 
L 499.615645 397.370544 
L 505.788969 397.055373 
L 511.962293 395.476181 
L 518.135618 393.181306 
L 524.308942 390.996733 
L 530.482266 387.870199 
L 536.65559 386.136829 
L 542.828914 381.938532 
L 549.002238 380.68027 
L 555.175562 374.314607 
L 561.348887 371.532891 
L 567.522211 371.28847 
L 573.695535 371.409776 
L 579.868859 368.873085 
L 586.042183 367.544335 
L 592.215507 364.611471 
L 598.388831 362.090581 
L 604.562156 360.504078 
L 610.73548 360.241923 
L 616.908804 361.12289 
L 623.082128 360.175809 
L 629.255452 356.999284 
L 635.428776 354.921822 
L 641.602101 355.342311 
L 647.775425 353.334855 
L 653.948749 350.964408 
L 660.122073 350.765673 
L 666.295397 348.791509 
L 672.468721 346.980784 
L 678.642045 347.225424 
" clip-path="url(#p17cbec05d7)" style="fill: none; stroke: #1f77b4; stroke-width: 1.5; stroke-linecap: square"/>
   </g>
   <g id="line2d_28">
    <path d="M 67.482955 519.830885 
L 73.656279 517.160192 
L 79.829603 513.595837 
L 86.002927 510.081531 
L 92.176251 510.727769 
L 98.349575 510.621381 
L 104.522899 508.02897 
L 110.696224 505.438698 
L 116.869548 502.846266 
L 123.042872 494.54265 
L 129.216196 491.854664 
L 135.38952 488.20045 
L 141.562844 484.856915 
L 147.736169 482.031183 
L 153.909493 480.859525 
L 160.082817 477.849713 
L 166.256141 477.46099 
L 172.429465 476.155093 
L 178.602789 475.274487 
L 184.776113 473.423268 
L 190.949438 467.751483 
L 197.122762 469.235479 
L 203.296086 466.350082 
L 209.46941 467.398514 
L 215.642734 466.494925 
L 221.816058 462.920475 
L 227.989382 461.099362 
L 234.162707 461.232393 
L 240.336031 460.745243 
L 246.509355 457.871246 
L 252.682679 457.40987 
L 258.856003 455.328361 
L 265.029327 453.53926 
L 271.202652 452.943106 
L 277.375976 447.563433 
L 283.5493 444.767598 
L 289.722624 446.521743 
L 295.895948 444.491574 
L 302.069272 443.91285 
L 308.242596 440.74311 
L 314.415921 440.388088 
L 320.589245 438.873293 
L 326.762569 436.298076 
L 332.935893 433.105541 
L 339.109217 433.448273 
L 345.282541 432.309523 
L 351.455865 431.411091 
L 357.62919 430.817895 
L 363.802514 426.085865 
L 369.975838 423.681769 
L 376.149162 424.128174 
L 382.322486 420.846478 
L 388.49581 415.504087 
L 394.669135 412.026291 
L 400.842459 412.914996 
L 407.015783 412.032458 
L 413.189107 408.153496 
L 419.362431 407.653283 
L 425.535755 405.182731 
L 431.709079 402.146116 
L 437.882404 402.021085 
L 444.055728 400.411818 
L 450.229052 404.2469 
L 456.402376 404.28863 
L 462.5757 403.009683 
L 468.749024 403.43367 
L 474.922348 398.929293 
L 481.095673 399.665317 
L 487.268997 398.707165 
L 493.442321 396.77233 
L 499.615645 392.595013 
L 505.788969 393.340826 
L 511.962293 389.639389 
L 518.135618 387.910757 
L 524.308942 387.879116 
L 530.482266 385.377278 
L 536.65559 383.325541 
L 542.828914 382.641463 
L 549.002238 380.810901 
L 555.175562 379.759097 
L 561.348887 377.853733 
L 567.522211 375.009625 
L 573.695535 370.584634 
L 579.868859 370.991565 
L 586.042183 365.630563 
L 592.215507 367.259701 
L 598.388831 365.808302 
L 604.562156 363.090497 
L 610.73548 360.898564 
L 616.908804 360.252956 
L 623.082128 358.897957 
L 629.255452 358.030419 
L 635.428776 357.327772 
L 641.602101 354.162877 
L 647.775425 351.840858 
L 653.948749 351.315389 
L 660.122073 348.064942 
L 666.295397 345.827992 
L 672.468721 342.725964 
L 678.642045 339.93747 
" clip-path="url(#p17cbec05d7)" style="fill: none; stroke: #ff7f0e; stroke-width: 1.5; stroke-linecap: square"/>
   </g>
   <g id="line2d_29">
    <path d="M 67.482955 521.861615 
L 73.656279 521.109031 
L 79.829603 518.119198 
L 86.002927 515.363658 
L 92.176251 513.688301 
L 98.349575 511.776417 
L 104.522899 507.879055 
L 110.696224 507.180183 
L 116.869548 504.532911 
L 123.042872 503.167765 
L 129.216196 501.829122 
L 135.38952 498.237858 
L 141.562844 495.114348 
L 147.736169 492.011212 
L 153.909493 488.066256 
L 160.082817 486.319193 
L 166.256141 483.441166 
L 172.429465 482.260949 
L 178.602789 479.995138 
L 184.776113 478.506707 
L 190.949438 476.629613 
L 197.122762 473.900104 
L 203.296086 473.589058 
L 209.46941 468.297605 
L 215.642734 468.307902 
L 221.816058 468.674405 
L 227.989382 464.981613 
L 234.162707 461.91586 
L 240.336031 459.136792 
L 246.509355 456.350494 
L 252.682679 454.660328 
L 258.856003 454.484517 
L 265.029327 452.643684 
L 271.202652 452.091269 
L 277.375976 448.711598 
L 283.5493 447.252109 
L 289.722624 446.953513 
L 295.895948 445.792321 
L 302.069272 443.374623 
L 308.242596 442.628102 
L 314.415921 442.3239 
L 320.589245 440.195799 
L 326.762569 438.065509 
L 332.935893 437.221829 
L 339.109217 436.316711 
L 345.282541 434.208523 
L 351.455865 434.97525 
L 357.62919 435.67247 
L 363.802514 435.190694 
L 369.975838 433.844806 
L 376.149162 431.601683 
L 382.322486 427.366046 
L 388.49581 424.187364 
L 394.669135 422.749916 
L 400.842459 421.071333 
L 407.015783 421.075661 
L 413.189107 419.396217 
L 419.362431 418.179025 
L 425.535755 415.915692 
L 431.709079 415.620063 
L 437.882404 413.020275 
L 444.055728 408.68645 
L 450.229052 407.16143 
L 456.402376 404.76293 
L 462.5757 401.870887 
L 468.749024 400.846302 
L 474.922348 398.75173 
L 481.095673 397.019061 
L 487.268997 395.140803 
L 493.442321 394.752395 
L 499.615645 392.999333 
L 505.788969 390.436075 
L 511.962293 386.241869 
L 518.135618 382.889317 
L 524.308942 377.493837 
L 530.482266 377.09574 
L 536.65559 373.891971 
L 542.828914 371.867128 
L 549.002238 366.408986 
L 555.175562 366.080961 
L 561.348887 365.806705 
L 567.522211 365.121217 
L 573.695535 367.04434 
L 579.868859 366.232849 
L 586.042183 365.820695 
L 592.215507 363.852231 
L 598.388831 361.556323 
L 604.562156 356.634843 
L 610.73548 353.29743 
L 616.908804 352.57346 
L 623.082128 352.399635 
L 629.255452 349.846779 
L 635.428776 350.394737 
L 641.602101 345.549766 
L 647.775425 341.820477 
L 653.948749 340.912172 
L 660.122073 342.132432 
L 666.295397 338.104669 
L 672.468721 336.589539 
L 678.642045 332.760362 
" clip-path="url(#p17cbec05d7)" style="fill: none; stroke: #2ca02c; stroke-width: 1.5; stroke-linecap: square"/>
   </g>
   <g id="line2d_30">
    <path d="M 67.482955 523.171364 
L 73.656279 522.485845 
L 79.829603 520.765751 
L 86.002927 518.974239 
L 92.176251 518.033234 
L 98.349575 515.256339 
L 104.522899 515.372046 
L 110.696224 513.904553 
L 116.869548 511.98759 
L 123.042872 509.3962 
L 129.216196 506.467418 
L 135.38952 506.680696 
L 141.562844 507.594631 
L 147.736169 503.697247 
L 153.909493 501.417495 
L 160.082817 500.987125 
L 166.256141 496.621792 
L 172.429465 494.712737 
L 178.602789 490.983693 
L 184.776113 489.157039 
L 190.949438 483.919725 
L 197.122762 479.205 
L 203.296086 477.919886 
L 209.46941 474.546288 
L 215.642734 471.730848 
L 221.816058 467.677831 
L 227.989382 467.61781 
L 234.162707 464.73277 
L 240.336031 461.210555 
L 246.509355 462.508851 
L 252.682679 462.822428 
L 258.856003 464.600681 
L 265.029327 463.350547 
L 271.202652 460.411623 
L 277.375976 456.129784 
L 283.5493 454.291877 
L 289.722624 449.793995 
L 295.895948 450.444395 
L 302.069272 451.647968 
L 308.242596 450.031895 
L 314.415921 447.66359 
L 320.589245 446.008412 
L 326.762569 447.834936 
L 332.935893 446.276309 
L 339.109217 446.797294 
L 345.282541 443.94028 
L 351.455865 441.601863 
L 357.62919 441.49899 
L 363.802514 440.667157 
L 369.975838 440.768479 
L 376.149162 439.164608 
L 382.322486 435.819121 
L 388.49581 435.794697 
L 394.669135 433.221089 
L 400.842459 432.417303 
L 407.015783 432.062883 
L 413.189107 430.534903 
L 419.362431 430.595207 
L 425.535755 429.831446 
L 431.709079 430.170039 
L 437.882404 425.097032 
L 444.055728 423.32557 
L 450.229052 422.811764 
L 456.402376 420.734496 
L 462.5757 419.215581 
L 468.749024 417.882565 
L 474.922348 415.120528 
L 481.095673 412.113218 
L 487.268997 411.309848 
L 493.442321 410.584021 
L 499.615645 409.343546 
L 505.788969 411.571292 
L 511.962293 412.452847 
L 518.135618 408.402836 
L 524.308942 403.876973 
L 530.482266 402.591982 
L 536.65559 399.894301 
L 542.828914 397.650591 
L 549.002238 390.671128 
L 555.175562 387.044277 
L 561.348887 385.552037 
L 567.522211 385.475961 
L 573.695535 386.513665 
L 579.868859 384.454392 
L 586.042183 384.037478 
L 592.215507 384.760006 
L 598.388831 384.155249 
L 604.562156 384.294788 
L 610.73548 379.69676 
L 616.908804 376.477045 
L 623.082128 374.779565 
L 629.255452 370.536077 
L 635.428776 368.692568 
L 641.602101 368.455209 
L 647.775425 364.137835 
L 653.948749 361.504572 
L 660.122073 361.568305 
L 666.295397 360.182876 
L 672.468721 359.970043 
L 678.642045 360.62506 
" clip-path="url(#p17cbec05d7)" style="fill: none; stroke: #d62728; stroke-width: 1.5; stroke-linecap: square"/>
   </g>
   <g id="line2d_31">
    <path d="M 67.482955 518.8583 
L 73.656279 513.879933 
L 79.829603 514.561931 
L 86.002927 511.8875 
L 92.176251 511.289706 
L 98.349575 510.412115 
L 104.522899 509.714651 
L 110.696224 509.481923 
L 116.869548 507.687774 
L 123.042872 507.398509 
L 129.216196 505.224603 
L 135.38952 503.599444 
L 141.562844 502.297191 
L 147.736169 502.139021 
L 153.909493 501.414825 
L 160.082817 498.411137 
L 166.256141 495.842884 
L 172.429465 495.804478 
L 178.602789 493.923386 
L 184.776113 490.926549 
L 190.949438 492.071983 
L 197.122762 489.431106 
L 203.296086 488.853814 
L 209.46941 486.166327 
L 215.642734 485.761235 
L 221.816058 487.138487 
L 227.989382 488.212288 
L 234.162707 486.418887 
L 240.336031 484.263348 
L 246.509355 484.099622 
L 252.682679 481.29579 
L 258.856003 482.427732 
L 265.029327 480.82968 
L 271.202652 481.190755 
L 277.375976 480.595004 
L 283.5493 478.802777 
L 289.722624 478.563927 
L 295.895948 477.510826 
L 302.069272 474.077814 
L 308.242596 473.353825 
L 314.415921 470.212731 
L 320.589245 470.434675 
L 326.762569 467.816994 
L 332.935893 463.639171 
L 339.109217 466.157335 
L 345.282541 465.809798 
L 351.455865 463.111235 
L 357.62919 461.747548 
L 363.802514 459.40135 
L 369.975838 458.72372 
L 376.149162 456.864433 
L 382.322486 455.419693 
L 388.49581 451.710353 
L 394.669135 449.563886 
L 400.842459 447.275085 
L 407.015783 446.268734 
L 413.189107 445.391966 
L 419.362431 444.421004 
L 425.535755 442.034926 
L 431.709079 441.044159 
L 437.882404 438.837197 
L 444.055728 433.574811 
L 450.229052 430.373088 
L 456.402376 429.219832 
L 462.5757 425.453286 
L 468.749024 424.440431 
L 474.922348 426.216788 
L 481.095673 426.230625 
L 487.268997 427.720656 
L 493.442321 426.611017 
L 499.615645 424.868379 
L 505.788969 420.288667 
L 511.962293 418.018133 
L 518.135618 416.681918 
L 524.308942 413.551582 
L 530.482266 415.623982 
L 536.65559 413.509695 
L 542.828914 410.479528 
L 549.002238 411.298448 
L 555.175562 407.630223 
L 561.348887 405.339892 
L 567.522211 404.339378 
L 573.695535 401.545489 
L 579.868859 395.948934 
L 586.042183 393.926616 
L 592.215507 391.790759 
L 598.388831 390.865659 
L 604.562156 390.608724 
L 610.73548 387.476796 
L 616.908804 387.230538 
L 623.082128 385.396957 
L 629.255452 384.503165 
L 635.428776 381.97245 
L 641.602101 379.690392 
L 647.775425 376.203912 
L 653.948749 375.36549 
L 660.122073 374.116157 
L 666.295397 374.079819 
L 672.468721 373.128937 
L 678.642045 370.772208 
" clip-path="url(#p17cbec05d7)" style="fill: none; stroke: #9467bd; stroke-width: 1.5; stroke-linecap: square"/>
   </g>
   <g id="line2d_32">
    <path d="M 67.482955 519.147803 
L 73.656279 519.014619 
L 79.829603 515.815494 
L 86.002927 511.78471 
L 92.176251 509.366151 
L 98.349575 504.443602 
L 104.522899 504.056527 
L 110.696224 504.475161 
L 116.869548 505.807647 
L 123.042872 501.53661 
L 129.216196 498.705788 
L 135.38952 497.089778 
L 141.562844 494.899596 
L 147.736169 495.114323 
L 153.909493 489.21822 
L 160.082817 487.285985 
L 166.256141 485.387675 
L 172.429465 482.434678 
L 178.602789 479.90049 
L 184.776113 477.806275 
L 190.949438 477.447751 
L 197.122762 474.929889 
L 203.296086 469.998393 
L 209.46941 465.985093 
L 215.642734 461.547834 
L 221.816058 460.711464 
L 227.989382 460.693677 
L 234.162707 459.197791 
L 240.336031 457.391317 
L 246.509355 453.8079 
L 252.682679 454.992791 
L 258.856003 450.664422 
L 265.029327 449.22367 
L 271.202652 448.242994 
L 277.375976 448.263706 
L 283.5493 449.384246 
L 289.722624 446.264578 
L 295.895948 444.428 
L 302.069272 444.924158 
L 308.242596 445.429074 
L 314.415921 444.292521 
L 320.589245 439.725499 
L 326.762569 438.458569 
L 332.935893 439.319508 
L 339.109217 438.028883 
L 345.282541 436.784424 
L 351.455865 439.688004 
L 357.62919 438.069787 
L 363.802514 436.753822 
L 369.975838 433.851406 
L 376.149162 428.976494 
L 382.322486 425.337682 
L 388.49581 424.086661 
L 394.669135 424.26894 
L 400.842459 418.154485 
L 407.015783 416.342032 
L 413.189107 414.607076 
L 419.362431 412.937234 
L 425.535755 410.887165 
L 431.709079 409.423061 
L 437.882404 408.693545 
L 444.055728 407.918165 
L 450.229052 406.263088 
L 456.402376 405.481832 
L 462.5757 404.990476 
L 468.749024 403.097239 
L 474.922348 401.822414 
L 481.095673 397.537776 
L 487.268997 400.362787 
L 493.442321 396.783963 
L 499.615645 392.940637 
L 505.788969 394.777339 
L 511.962293 393.652597 
L 518.135618 392.577056 
L 524.308942 393.274358 
L 530.482266 392.894175 
L 536.65559 393.083384 
L 542.828914 388.373913 
L 549.002238 385.061731 
L 555.175562 381.174823 
L 561.348887 378.228831 
L 567.522211 378.449655 
L 573.695535 377.636051 
L 579.868859 375.087549 
L 586.042183 375.467637 
L 592.215507 372.536487 
L 598.388831 371.236591 
L 604.562156 370.166833 
L 610.73548 367.239172 
L 616.908804 364.767861 
L 623.082128 363.674396 
L 629.255452 359.979519 
L 635.428776 360.118228 
L 641.602101 357.353165 
L 647.775425 354.627174 
L 653.948749 353.445724 
L 660.122073 351.176548 
L 666.295397 351.606234 
L 672.468721 348.313989 
L 678.642045 346.919257 
" clip-path="url(#p17cbec05d7)" style="fill: none; stroke: #8c564b; stroke-width: 1.5; stroke-linecap: square"/>
   </g>
   <g id="line2d_33">
    <path d="M 67.482955 521.337546 
L 73.656279 517.831441 
L 79.829603 517.325537 
L 86.002927 518.024464 
L 92.176251 518.976925 
L 98.349575 516.228845 
L 104.522899 516.708694 
L 110.696224 511.994905 
L 116.869548 513.846218 
L 123.042872 509.232252 
L 129.216196 507.160053 
L 135.38952 505.614419 
L 141.562844 504.83572 
L 147.736169 502.441627 
L 153.909493 500.794903 
L 160.082817 497.195896 
L 166.256141 495.289317 
L 172.429465 493.32101 
L 178.602789 492.232073 
L 184.776113 490.618392 
L 190.949438 488.380583 
L 197.122762 489.595768 
L 203.296086 490.191556 
L 209.46941 487.208618 
L 215.642734 485.205124 
L 221.816058 483.80882 
L 227.989382 482.066155 
L 234.162707 479.760278 
L 240.336031 478.972751 
L 246.509355 478.593403 
L 252.682679 476.547166 
L 258.856003 476.510159 
L 265.029327 474.100467 
L 271.202652 475.302673 
L 277.375976 471.83054 
L 283.5493 469.310746 
L 289.722624 467.161525 
L 295.895948 463.768899 
L 302.069272 459.207947 
L 308.242596 455.761113 
L 314.415921 457.199952 
L 320.589245 457.678342 
L 326.762569 457.036361 
L 332.935893 455.280594 
L 339.109217 452.683694 
L 345.282541 452.214408 
L 351.455865 450.183705 
L 357.62919 449.765135 
L 363.802514 449.100395 
L 369.975838 449.796242 
L 376.149162 449.664884 
L 382.322486 450.26666 
L 388.49581 450.225376 
L 394.669135 446.711344 
L 400.842459 446.624759 
L 407.015783 440.40931 
L 413.189107 437.854061 
L 419.362431 435.826661 
L 425.535755 435.584294 
L 431.709079 432.674856 
L 437.882404 431.948721 
L 444.055728 430.028825 
L 450.229052 423.937086 
L 456.402376 422.390334 
L 462.5757 418.712664 
L 468.749024 418.204763 
L 474.922348 416.55351 
L 481.095673 411.812332 
L 487.268997 411.174027 
L 493.442321 406.361584 
L 499.615645 403.439412 
L 505.788969 402.690739 
L 511.962293 399.89749 
L 518.135618 396.522209 
L 524.308942 393.747094 
L 530.482266 394.722818 
L 536.65559 394.255916 
L 542.828914 392.968329 
L 549.002238 391.384571 
L 555.175562 388.611403 
L 561.348887 386.596213 
L 567.522211 387.170028 
L 573.695535 384.808341 
L 579.868859 382.052432 
L 586.042183 379.38344 
L 592.215507 375.82297 
L 598.388831 372.684906 
L 604.562156 370.18807 
L 610.73548 368.59701 
L 616.908804 369.727995 
L 623.082128 367.281744 
L 629.255452 365.215243 
L 635.428776 363.039416 
L 641.602101 363.512966 
L 647.775425 363.651664 
L 653.948749 360.138469 
L 660.122073 358.49503 
L 666.295397 355.617777 
L 672.468721 353.858199 
L 678.642045 352.09616 
" clip-path="url(#p17cbec05d7)" style="fill: none; stroke: #e377c2; stroke-width: 1.5; stroke-linecap: square"/>
   </g>
   <g id="line2d_34">
    <path d="M 67.482955 518.837585 
L 73.656279 518.009478 
L 79.829603 516.133882 
L 86.002927 515.213769 
L 92.176251 514.246123 
L 98.349575 513.064032 
L 104.522899 510.972812 
L 110.696224 510.080887 
L 116.869548 506.221013 
L 123.042872 506.040673 
L 129.216196 504.649311 
L 135.38952 503.690623 
L 141.562844 499.503545 
L 147.736169 497.456093 
L 153.909493 493.979359 
L 160.082817 494.810212 
L 166.256141 492.642135 
L 172.429465 489.408746 
L 178.602789 487.556825 
L 184.776113 484.022536 
L 190.949438 483.196558 
L 197.122762 479.07387 
L 203.296086 473.429052 
L 209.46941 472.338791 
L 215.642734 471.389978 
L 221.816058 467.191938 
L 227.989382 462.777975 
L 234.162707 461.96153 
L 240.336031 460.969399 
L 246.509355 459.740445 
L 252.682679 460.329842 
L 258.856003 460.190645 
L 265.029327 460.197731 
L 271.202652 459.800404 
L 277.375976 458.148632 
L 283.5493 456.03674 
L 289.722624 451.672522 
L 295.895948 451.669705 
L 302.069272 448.274287 
L 308.242596 446.929326 
L 314.415921 445.302843 
L 320.589245 442.437022 
L 326.762569 442.647014 
L 332.935893 440.281542 
L 339.109217 438.2856 
L 345.282541 435.731834 
L 351.455865 433.525909 
L 357.62919 427.613468 
L 363.802514 426.993597 
L 369.975838 426.191076 
L 376.149162 425.546223 
L 382.322486 424.78559 
L 388.49581 424.165115 
L 394.669135 420.41944 
L 400.842459 416.277662 
L 407.015783 415.543156 
L 413.189107 415.256296 
L 419.362431 412.738525 
L 425.535755 411.972324 
L 431.709079 409.178178 
L 437.882404 407.11983 
L 444.055728 408.002331 
L 450.229052 403.643238 
L 456.402376 398.85915 
L 462.5757 398.196584 
L 468.749024 397.148867 
L 474.922348 394.948594 
L 481.095673 392.665175 
L 487.268997 389.827204 
L 493.442321 384.676376 
L 499.615645 383.268032 
L 505.788969 382.922894 
L 511.962293 383.571956 
L 518.135618 383.111544 
L 524.308942 381.457106 
L 530.482266 376.675276 
L 536.65559 375.84985 
L 542.828914 373.7558 
L 549.002238 372.072779 
L 555.175562 368.328171 
L 561.348887 362.293159 
L 567.522211 361.490418 
L 573.695535 360.616787 
L 579.868859 357.118978 
L 586.042183 354.241056 
L 592.215507 349.369992 
L 598.388831 346.659697 
L 604.562156 345.563368 
L 610.73548 342.841563 
L 616.908804 339.233314 
L 623.082128 336.118246 
L 629.255452 333.539117 
L 635.428776 330.002784 
L 641.602101 326.290854 
L 647.775425 322.214689 
L 653.948749 319.393545 
L 660.122073 317.968382 
L 666.295397 316.006215 
L 672.468721 312.230609 
L 678.642045 311.917363 
" clip-path="url(#p17cbec05d7)" style="fill: none; stroke: #7f7f7f; stroke-width: 1.5; stroke-linecap: square"/>
   </g>
   <g id="line2d_35">
    <path d="M 67.482955 519.812258 
L 73.656279 518.774187 
L 79.829603 517.013879 
L 86.002927 513.115169 
L 92.176251 511.077053 
L 98.349575 509.286473 
L 104.522899 509.90223 
L 110.696224 506.914177 
L 116.869548 504.098553 
L 123.042872 498.685838 
L 129.216196 497.501362 
L 135.38952 495.415246 
L 141.562844 493.277398 
L 147.736169 488.867061 
L 153.909493 487.319001 
L 160.082817 485.130439 
L 166.256141 482.379132 
L 172.429465 480.348699 
L 178.602789 479.401479 
L 184.776113 477.358245 
L 190.949438 473.810008 
L 197.122762 473.855379 
L 203.296086 471.916729 
L 209.46941 471.403599 
L 215.642734 467.647607 
L 221.816058 468.542843 
L 227.989382 467.788105 
L 234.162707 465.431527 
L 240.336031 461.041602 
L 246.509355 459.442987 
L 252.682679 458.681879 
L 258.856003 453.751867 
L 265.029327 454.518474 
L 271.202652 456.569777 
L 277.375976 454.105736 
L 283.5493 453.25369 
L 289.722624 453.290022 
L 295.895948 450.366816 
L 302.069272 448.238521 
L 308.242596 447.492606 
L 314.415921 447.972241 
L 320.589245 444.768238 
L 326.762569 441.944542 
L 332.935893 440.403122 
L 339.109217 435.532178 
L 345.282541 435.652102 
L 351.455865 436.55134 
L 357.62919 436.024157 
L 363.802514 434.391038 
L 369.975838 432.263532 
L 376.149162 430.965195 
L 382.322486 428.651663 
L 388.49581 429.082077 
L 394.669135 424.900498 
L 400.842459 423.329946 
L 407.015783 419.706994 
L 413.189107 417.409427 
L 419.362431 414.916745 
L 425.535755 412.230681 
L 431.709079 409.753475 
L 437.882404 406.942576 
L 444.055728 402.957111 
L 450.229052 400.909717 
L 456.402376 397.985403 
L 462.5757 396.42783 
L 468.749024 392.252491 
L 474.922348 391.698759 
L 481.095673 386.906008 
L 487.268997 385.263601 
L 493.442321 386.000709 
L 499.615645 384.070385 
L 505.788969 383.524625 
L 511.962293 380.37506 
L 518.135618 379.780657 
L 524.308942 378.833009 
L 530.482266 380.355122 
L 536.65559 379.417951 
L 542.828914 381.854382 
L 549.002238 382.853512 
L 555.175562 379.841227 
L 561.348887 376.785505 
L 567.522211 374.346373 
L 573.695535 374.289865 
L 579.868859 372.660383 
L 586.042183 370.955425 
L 592.215507 371.226406 
L 598.388831 366.942786 
L 604.562156 363.73039 
L 610.73548 362.397364 
L 616.908804 360.640237 
L 623.082128 358.572547 
L 629.255452 360.355082 
L 635.428776 359.066911 
L 641.602101 358.522747 
L 647.775425 358.525519 
L 653.948749 357.295394 
L 660.122073 352.508211 
L 666.295397 349.700528 
L 672.468721 348.966763 
L 678.642045 346.275882 
" clip-path="url(#p17cbec05d7)" style="fill: none; stroke: #bcbd22; stroke-width: 1.5; stroke-linecap: square"/>
   </g>
   <g id="line2d_36">
    <path d="M 67.482955 518.048635 
L 73.656279 514.755352 
L 79.829603 512.942195 
L 86.002927 512.338061 
L 92.176251 509.432193 
L 98.349575 507.047769 
L 104.522899 503.804862 
L 110.696224 501.006884 
L 116.869548 497.499849 
L 123.042872 496.704579 
L 129.216196 492.739235 
L 135.38952 490.689996 
L 141.562844 485.427849 
L 147.736169 484.896011 
L 153.909493 480.214443 
L 160.082817 478.164671 
L 166.256141 477.568205 
L 172.429465 476.685071 
L 178.602789 475.522102 
L 184.776113 473.08518 
L 190.949438 470.479422 
L 197.122762 469.749971 
L 203.296086 468.080523 
L 209.46941 462.703714 
L 215.642734 458.036555 
L 221.816058 455.578829 
L 227.989382 453.802679 
L 234.162707 451.886168 
L 240.336031 449.125242 
L 246.509355 449.164243 
L 252.682679 447.893523 
L 258.856003 449.037552 
L 265.029327 446.643311 
L 271.202652 443.824757 
L 277.375976 442.940426 
L 283.5493 438.53602 
L 289.722624 438.922333 
L 295.895948 439.716935 
L 302.069272 437.621749 
L 308.242596 434.118913 
L 314.415921 429.526385 
L 320.589245 428.60047 
L 326.762569 425.043593 
L 332.935893 423.398364 
L 339.109217 421.982628 
L 345.282541 418.759456 
L 351.455865 415.93213 
L 357.62919 416.918407 
L 363.802514 412.680744 
L 369.975838 408.608117 
L 376.149162 407.967409 
L 382.322486 405.579019 
L 388.49581 403.022551 
L 394.669135 400.865384 
L 400.842459 400.095901 
L 407.015783 399.534009 
L 413.189107 397.866613 
L 419.362431 394.148808 
L 425.535755 391.507519 
L 431.709079 390.430564 
L 437.882404 387.398971 
L 444.055728 390.562053 
L 450.229052 386.885252 
L 456.402376 388.150993 
L 462.5757 387.060052 
L 468.749024 387.264821 
L 474.922348 387.769057 
L 481.095673 384.071619 
L 487.268997 383.160791 
L 493.442321 380.856758 
L 499.615645 379.225923 
L 505.788969 376.698525 
L 511.962293 374.855952 
L 518.135618 375.340186 
L 524.308942 371.92433 
L 530.482266 371.058085 
L 536.65559 372.010465 
L 542.828914 371.0319 
L 549.002238 366.752795 
L 555.175562 363.586839 
L 561.348887 362.472303 
L 567.522211 361.358804 
L 573.695535 360.198039 
L 579.868859 354.933347 
L 586.042183 352.568687 
L 592.215507 350.121711 
L 598.388831 346.647648 
L 604.562156 344.527928 
L 610.73548 343.260059 
L 616.908804 341.884915 
L 623.082128 340.296312 
L 629.255452 338.648881 
L 635.428776 335.692696 
L 641.602101 333.892688 
L 647.775425 330.927929 
L 653.948749 329.354923 
L 660.122073 327.509247 
L 666.295397 329.21729 
L 672.468721 325.938219 
L 678.642045 323.634213 
" clip-path="url(#p17cbec05d7)" style="fill: none; stroke: #17becf; stroke-width: 1.5; stroke-linecap: square"/>
   </g>
   <g id="line2d_37">
    <path d="M 67.482955 518.735386 
L 73.656279 521.980111 
L 79.829603 516.695524 
L 86.002927 515.223257 
L 92.176251 511.615899 
L 98.349575 511.684183 
L 104.522899 508.924529 
L 110.696224 509.01593 
L 116.869548 508.372153 
L 123.042872 503.385889 
L 129.216196 502.001048 
L 135.38952 499.917872 
L 141.562844 496.717957 
L 147.736169 494.158663 
L 153.909493 492.190156 
L 160.082817 489.854541 
L 166.256141 484.030881 
L 172.429465 482.418352 
L 178.602789 480.363124 
L 184.776113 476.854204 
L 190.949438 473.251392 
L 197.122762 469.509116 
L 203.296086 466.705049 
L 209.46941 466.949748 
L 215.642734 462.443625 
L 221.816058 462.694039 
L 227.989382 460.465071 
L 234.162707 460.044607 
L 240.336031 458.443233 
L 246.509355 456.169559 
L 252.682679 453.908555 
L 258.856003 451.475475 
L 265.029327 447.003096 
L 271.202652 444.515921 
L 277.375976 443.222581 
L 283.5493 439.861788 
L 289.722624 436.115336 
L 295.895948 436.504801 
L 302.069272 433.771454 
L 308.242596 430.86054 
L 314.415921 429.658585 
L 320.589245 425.593461 
L 326.762569 424.139102 
L 332.935893 422.213103 
L 339.109217 420.798128 
L 345.282541 419.060348 
L 351.455865 419.225087 
L 357.62919 419.978068 
L 363.802514 415.538553 
L 369.975838 415.276685 
L 376.149162 415.261956 
L 382.322486 417.235547 
L 388.49581 416.617767 
L 394.669135 417.170613 
L 400.842459 412.649802 
L 407.015783 409.21076 
L 413.189107 408.677147 
L 419.362431 403.111832 
L 425.535755 399.720789 
L 431.709079 398.565493 
L 437.882404 401.13116 
L 444.055728 395.499955 
L 450.229052 396.166561 
L 456.402376 397.270917 
L 462.5757 393.810052 
L 468.749024 387.924216 
L 474.922348 383.844434 
L 481.095673 381.168394 
L 487.268997 378.439575 
L 493.442321 375.268154 
L 499.615645 372.258413 
L 505.788969 370.066138 
L 511.962293 368.176715 
L 518.135618 366.572697 
L 524.308942 366.1517 
L 530.482266 364.920847 
L 536.65559 366.106581 
L 542.828914 364.56373 
L 549.002238 364.544208 
L 555.175562 364.721462 
L 561.348887 362.702519 
L 567.522211 358.609511 
L 573.695535 355.327037 
L 579.868859 356.303233 
L 586.042183 356.285486 
L 592.215507 352.964589 
L 598.388831 352.934623 
L 604.562156 351.607876 
L 610.73548 348.955547 
L 616.908804 348.901381 
L 623.082128 347.009948 
L 629.255452 347.581507 
L 635.428776 346.899398 
L 641.602101 344.64109 
L 647.775425 345.655775 
L 653.948749 343.190946 
L 660.122073 341.513427 
L 666.295397 338.856927 
L 672.468721 336.76266 
L 678.642045 332.717327 
" clip-path="url(#p17cbec05d7)" style="fill: none; stroke: #1f77b4; stroke-width: 1.5; stroke-linecap: square"/>
   </g>
   <g id="line2d_38">
    <path d="M 67.482955 520.228829 
L 73.656279 519.252472 
L 79.829603 517.332084 
L 86.002927 514.691312 
L 92.176251 512.896585 
L 98.349575 511.116005 
L 104.522899 510.606077 
L 110.696224 510.029259 
L 116.869548 510.718166 
L 123.042872 506.013304 
L 129.216196 506.430584 
L 135.38952 505.905107 
L 141.562844 505.423268 
L 147.736169 502.180821 
L 153.909493 500.974393 
L 160.082817 497.128232 
L 166.256141 496.569535 
L 172.429465 494.381019 
L 178.602789 494.099278 
L 184.776113 488.717544 
L 190.949438 489.038548 
L 197.122762 486.797284 
L 203.296086 484.001693 
L 209.46941 481.58251 
L 215.642734 480.188437 
L 221.816058 478.699454 
L 227.989382 476.913365 
L 234.162707 475.453782 
L 240.336031 472.093345 
L 246.509355 466.599748 
L 252.682679 465.842562 
L 258.856003 466.47534 
L 265.029327 464.915279 
L 271.202652 458.789959 
L 277.375976 458.454023 
L 283.5493 453.938171 
L 289.722624 449.356298 
L 295.895948 448.592433 
L 302.069272 445.907712 
L 308.242596 441.410204 
L 314.415921 440.347816 
L 320.589245 438.985044 
L 326.762569 438.269249 
L 332.935893 438.2945 
L 339.109217 437.694371 
L 345.282541 438.07756 
L 351.455865 436.308117 
L 357.62919 435.914513 
L 363.802514 433.803355 
L 369.975838 434.75456 
L 376.149162 432.477261 
L 382.322486 429.339869 
L 388.49581 431.040272 
L 394.669135 428.689094 
L 400.842459 424.87728 
L 407.015783 425.236001 
L 413.189107 420.662904 
L 419.362431 418.234789 
L 425.535755 417.730028 
L 431.709079 416.114334 
L 437.882404 413.447846 
L 444.055728 411.606669 
L 450.229052 408.97367 
L 456.402376 408.837933 
L 462.5757 406.837014 
L 468.749024 407.54493 
L 474.922348 406.024129 
L 481.095673 405.859703 
L 487.268997 405.407162 
L 493.442321 401.580934 
L 499.615645 398.002447 
L 505.788969 395.249015 
L 511.962293 395.406973 
L 518.135618 394.237265 
L 524.308942 390.450384 
L 530.482266 388.496767 
L 536.65559 382.816989 
L 542.828914 380.432852 
L 549.002238 378.39311 
L 555.175562 377.210924 
L 561.348887 375.271297 
L 567.522211 373.82107 
L 573.695535 370.898287 
L 579.868859 367.55013 
L 586.042183 367.183932 
L 592.215507 367.750712 
L 598.388831 369.181562 
L 604.562156 366.601204 
L 610.73548 366.778077 
L 616.908804 368.750814 
L 623.082128 366.374786 
L 629.255452 360.397838 
L 635.428776 358.697104 
L 641.602101 355.551221 
L 647.775425 353.700079 
L 653.948749 352.158169 
L 660.122073 348.874395 
L 666.295397 347.659968 
L 672.468721 345.491305 
L 678.642045 343.229719 
" clip-path="url(#p17cbec05d7)" style="fill: none; stroke: #ff7f0e; stroke-width: 1.5; stroke-linecap: square"/>
   </g>
   <g id="line2d_39">
    <path d="M 67.482955 521.586288 
L 73.656279 518.17766 
L 79.829603 516.765915 
L 86.002927 516.347965 
L 92.176251 513.718809 
L 98.349575 513.545076 
L 104.522899 511.785732 
L 110.696224 510.090214 
L 116.869548 506.520992 
L 123.042872 503.997603 
L 129.216196 502.329305 
L 135.38952 499.218885 
L 141.562844 495.128948 
L 147.736169 492.463344 
L 153.909493 490.734507 
L 160.082817 491.268097 
L 166.256141 491.379514 
L 172.429465 490.190669 
L 178.602789 489.522497 
L 184.776113 488.131305 
L 190.949438 486.323248 
L 197.122762 483.705757 
L 203.296086 482.115267 
L 209.46941 479.571681 
L 215.642734 477.750235 
L 221.816058 479.419378 
L 227.989382 479.315573 
L 234.162707 477.851003 
L 240.336031 478.209816 
L 246.509355 475.472142 
L 252.682679 471.141719 
L 258.856003 467.345146 
L 265.029327 465.999251 
L 271.202652 461.737314 
L 277.375976 459.771804 
L 283.5493 458.637477 
L 289.722624 457.975962 
L 295.895948 456.782402 
L 302.069272 455.735498 
L 308.242596 453.732773 
L 314.415921 451.746889 
L 320.589245 450.030555 
L 326.762569 447.571778 
L 332.935893 443.823315 
L 339.109217 440.487389 
L 345.282541 441.317109 
L 351.455865 443.976058 
L 357.62919 440.6662 
L 363.802514 441.293975 
L 369.975838 439.967454 
L 376.149162 440.258538 
L 382.322486 441.630824 
L 388.49581 438.993193 
L 394.669135 435.983064 
L 400.842459 435.258421 
L 407.015783 437.980889 
L 413.189107 437.204458 
L 419.362431 434.822911 
L 425.535755 435.642387 
L 431.709079 433.617514 
L 437.882404 431.932589 
L 444.055728 429.230228 
L 450.229052 427.31449 
L 456.402376 427.268407 
L 462.5757 423.509805 
L 468.749024 422.069946 
L 474.922348 420.405546 
L 481.095673 420.291359 
L 487.268997 419.338747 
L 493.442321 419.14163 
L 499.615645 417.72644 
L 505.788969 413.086376 
L 511.962293 413.722744 
L 518.135618 414.772622 
L 524.308942 410.544148 
L 530.482266 409.191204 
L 536.65559 408.624947 
L 542.828914 405.134421 
L 549.002238 404.459581 
L 555.175562 399.623934 
L 561.348887 396.752797 
L 567.522211 395.876551 
L 573.695535 390.474011 
L 579.868859 389.799341 
L 586.042183 386.818403 
L 592.215507 384.595155 
L 598.388831 380.656595 
L 604.562156 376.273536 
L 610.73548 374.507651 
L 616.908804 374.085719 
L 623.082128 371.587528 
L 629.255452 371.03606 
L 635.428776 365.879786 
L 641.602101 363.935035 
L 647.775425 362.849023 
L 653.948749 360.82189 
L 660.122073 361.415866 
L 666.295397 361.367294 
L 672.468721 357.602117 
L 678.642045 357.015021 
" clip-path="url(#p17cbec05d7)" style="fill: none; stroke: #2ca02c; stroke-width: 1.5; stroke-linecap: square"/>
   </g>
   <g id="line2d_40">
    <path d="M 67.482955 522.234496 
L 73.656279 519.605095 
L 79.829603 515.865088 
L 86.002927 512.923749 
L 92.176251 509.508268 
L 98.349575 509.092115 
L 104.522899 509.813884 
L 110.696224 505.533797 
L 116.869548 504.374819 
L 123.042872 503.092903 
L 129.216196 499.109079 
L 135.38952 496.446179 
L 141.562844 493.954977 
L 147.736169 488.539272 
L 153.909493 487.929288 
L 160.082817 484.630518 
L 166.256141 482.821839 
L 172.429465 480.651123 
L 178.602789 476.324605 
L 184.776113 473.744513 
L 190.949438 471.112301 
L 197.122762 467.565988 
L 203.296086 466.479344 
L 209.46941 466.204212 
L 215.642734 466.280886 
L 221.816058 467.934441 
L 227.989382 462.704897 
L 234.162707 462.881499 
L 240.336031 461.548969 
L 246.509355 460.311508 
L 252.682679 458.074376 
L 258.856003 454.967427 
L 265.029327 451.78393 
L 271.202652 451.070525 
L 277.375976 449.645368 
L 283.5493 447.450717 
L 289.722624 446.165136 
L 295.895948 441.703649 
L 302.069272 439.152409 
L 308.242596 436.183821 
L 314.415921 433.338428 
L 320.589245 429.619349 
L 326.762569 427.598477 
L 332.935893 428.106393 
L 339.109217 425.711356 
L 345.282541 425.114785 
L 351.455865 424.30819 
L 357.62919 421.593728 
L 363.802514 417.763752 
L 369.975838 416.016231 
L 376.149162 413.776658 
L 382.322486 409.152838 
L 388.49581 407.029758 
L 394.669135 400.866839 
L 400.842459 398.18806 
L 407.015783 399.489818 
L 413.189107 396.489637 
L 419.362431 394.126306 
L 425.535755 390.208259 
L 431.709079 387.345242 
L 437.882404 385.871035 
L 444.055728 386.254836 
L 450.229052 384.901378 
L 456.402376 384.645601 
L 462.5757 383.927825 
L 468.749024 381.209573 
L 474.922348 376.641041 
L 481.095673 374.254587 
L 487.268997 374.589767 
L 493.442321 372.117876 
L 499.615645 368.359171 
L 505.788969 367.691462 
L 511.962293 366.209659 
L 518.135618 364.473404 
L 524.308942 364.105339 
L 530.482266 361.28493 
L 536.65559 359.780764 
L 542.828914 357.351771 
L 549.002238 357.159256 
L 555.175562 356.196679 
L 561.348887 353.249474 
L 567.522211 352.176315 
L 573.695535 347.510147 
L 579.868859 346.482851 
L 586.042183 344.387266 
L 592.215507 341.080367 
L 598.388831 341.796242 
L 604.562156 343.098078 
L 610.73548 343.997541 
L 616.908804 340.125983 
L 623.082128 339.359157 
L 629.255452 333.270644 
L 635.428776 332.525018 
L 641.602101 330.498106 
L 647.775425 326.148246 
L 653.948749 321.004454 
L 660.122073 315.765847 
L 666.295397 311.987063 
L 672.468721 308.523644 
L 678.642045 305.798636 
" clip-path="url(#p17cbec05d7)" style="fill: none; stroke: #d62728; stroke-width: 1.5; stroke-linecap: square"/>
   </g>
   <g id="line2d_41">
    <path d="M 67.482955 519.111232 
L 73.656279 518.343256 
L 79.829603 518.032172 
L 86.002927 516.326824 
L 92.176251 514.906909 
L 98.349575 513.971315 
L 104.522899 511.068589 
L 110.696224 507.722823 
L 116.869548 505.860426 
L 123.042872 501.621069 
L 129.216196 501.863517 
L 135.38952 500.48377 
L 141.562844 499.999218 
L 147.736169 501.481968 
L 153.909493 499.912323 
L 160.082817 498.409525 
L 166.256141 494.108706 
L 172.429465 491.318188 
L 178.602789 491.359574 
L 184.776113 486.475874 
L 190.949438 482.675414 
L 197.122762 479.968251 
L 203.296086 478.644671 
L 209.46941 478.575267 
L 215.642734 477.501036 
L 221.816058 473.926932 
L 227.989382 468.991052 
L 234.162707 464.639252 
L 240.336031 463.764611 
L 246.509355 463.969291 
L 252.682679 462.017095 
L 258.856003 463.331989 
L 265.029327 461.067887 
L 271.202652 459.609331 
L 277.375976 458.695654 
L 283.5493 459.713264 
L 289.722624 457.123309 
L 295.895948 456.323703 
L 302.069272 456.614452 
L 308.242596 459.818121 
L 314.415921 458.15408 
L 320.589245 453.410419 
L 326.762569 448.85668 
L 332.935893 447.927705 
L 339.109217 447.247041 
L 345.282541 444.733789 
L 351.455865 444.731026 
L 357.62919 442.503502 
L 363.802514 439.481522 
L 369.975838 435.670968 
L 376.149162 434.131221 
L 382.322486 432.76861 
L 388.49581 432.559823 
L 394.669135 432.263594 
L 400.842459 430.940005 
L 407.015783 428.600276 
L 413.189107 425.325899 
L 419.362431 424.989114 
L 425.535755 420.723819 
L 431.709079 419.476623 
L 437.882404 417.802063 
L 444.055728 417.369511 
L 450.229052 419.80656 
L 456.402376 416.582728 
L 462.5757 413.610776 
L 468.749024 412.38104 
L 474.922348 410.555289 
L 481.095673 407.961331 
L 487.268997 408.923916 
L 493.442321 408.118068 
L 499.615645 405.047862 
L 505.788969 405.482982 
L 511.962293 403.269546 
L 518.135618 403.879701 
L 524.308942 401.370461 
L 530.482266 399.720325 
L 536.65559 400.772891 
L 542.828914 397.068758 
L 549.002238 396.614611 
L 555.175562 396.28993 
L 561.348887 394.23561 
L 567.522211 390.559029 
L 573.695535 390.586102 
L 579.868859 388.769438 
L 586.042183 386.324558 
L 592.215507 383.427448 
L 598.388831 381.414413 
L 604.562156 380.33132 
L 610.73548 380.036306 
L 616.908804 378.177781 
L 623.082128 378.301219 
L 629.255452 381.588885 
L 635.428776 379.130756 
L 641.602101 375.872891 
L 647.775425 378.205034 
L 653.948749 378.221685 
L 660.122073 375.451114 
L 666.295397 370.219366 
L 672.468721 368.472663 
L 678.642045 368.007243 
" clip-path="url(#p17cbec05d7)" style="fill: none; stroke: #9467bd; stroke-width: 1.5; stroke-linecap: square"/>
   </g>
   <g id="line2d_42">
    <path d="M 67.482955 520.756061 
L 73.656279 516.692358 
L 79.829603 516.086559 
L 86.002927 515.742952 
L 92.176251 514.857863 
L 98.349575 514.778003 
L 104.522899 512.856977 
L 110.696224 508.365831 
L 116.869548 506.101881 
L 123.042872 504.822567 
L 129.216196 503.610769 
L 135.38952 504.574457 
L 141.562844 501.352227 
L 147.736169 499.774293 
L 153.909493 498.371994 
L 160.082817 491.197075 
L 166.256141 488.97475 
L 172.429465 488.550035 
L 178.602789 487.568462 
L 184.776113 483.892209 
L 190.949438 481.987268 
L 197.122762 482.737215 
L 203.296086 479.45318 
L 209.46941 478.885334 
L 215.642734 473.96877 
L 221.816058 470.409554 
L 227.989382 469.463854 
L 234.162707 465.560757 
L 240.336031 463.733525 
L 246.509355 460.563203 
L 252.682679 458.022644 
L 258.856003 457.759742 
L 265.029327 457.149812 
L 271.202652 453.676301 
L 277.375976 452.53802 
L 283.5493 451.51759 
L 289.722624 451.440799 
L 295.895948 449.004847 
L 302.069272 443.764493 
L 308.242596 443.88005 
L 314.415921 442.127486 
L 320.589245 437.999882 
L 326.762569 436.425036 
L 332.935893 433.93985 
L 339.109217 434.046613 
L 345.282541 431.602605 
L 351.455865 430.21171 
L 357.62919 426.813883 
L 363.802514 423.070998 
L 369.975838 416.928817 
L 376.149162 414.225871 
L 382.322486 411.957272 
L 388.49581 409.913535 
L 394.669135 408.806723 
L 400.842459 406.516414 
L 407.015783 405.310759 
L 413.189107 403.31138 
L 419.362431 399.345688 
L 425.535755 399.356883 
L 431.709079 395.695289 
L 437.882404 391.730422 
L 444.055728 390.22133 
L 450.229052 392.14096 
L 456.402376 391.469896 
L 462.5757 387.539458 
L 468.749024 385.867466 
L 474.922348 385.866272 
L 481.095673 385.018881 
L 487.268997 381.869355 
L 493.442321 379.222705 
L 499.615645 377.920425 
L 505.788969 376.836985 
L 511.962293 375.796208 
L 518.135618 375.663443 
L 524.308942 371.188216 
L 530.482266 370.028623 
L 536.65559 366.234794 
L 542.828914 361.920514 
L 549.002238 358.50116 
L 555.175562 357.528593 
L 561.348887 355.12664 
L 567.522211 353.456919 
L 573.695535 353.292141 
L 579.868859 351.026001 
L 586.042183 351.33236 
L 592.215507 347.588973 
L 598.388831 346.672868 
L 604.562156 344.617537 
L 610.73548 342.421675 
L 616.908804 341.153571 
L 623.082128 338.438544 
L 629.255452 337.54004 
L 635.428776 334.338021 
L 641.602101 334.930035 
L 647.775425 333.002662 
L 653.948749 327.973795 
L 660.122073 327.974362 
L 666.295397 327.422945 
L 672.468721 324.832463 
L 678.642045 322.814055 
" clip-path="url(#p17cbec05d7)" style="fill: none; stroke: #8c564b; stroke-width: 1.5; stroke-linecap: square"/>
   </g>
   <g id="line2d_43">
    <path d="M 67.482955 519.843132 
L 73.656279 517.294951 
L 79.829603 514.497743 
L 86.002927 510.887789 
L 92.176251 508.475417 
L 98.349575 507.177116 
L 104.522899 504.315138 
L 110.696224 499.353086 
L 116.869548 497.868917 
L 123.042872 497.825333 
L 129.216196 494.219861 
L 135.38952 492.714725 
L 141.562844 494.721306 
L 147.736169 491.560142 
L 153.909493 490.765032 
L 160.082817 489.208823 
L 166.256141 486.929642 
L 172.429465 484.892552 
L 178.602789 481.967471 
L 184.776113 481.001519 
L 190.949438 478.41241 
L 197.122762 477.145404 
L 203.296086 474.170087 
L 209.46941 471.405996 
L 215.642734 471.295524 
L 221.816058 467.726154 
L 227.989382 466.932131 
L 234.162707 463.838323 
L 240.336031 461.498727 
L 246.509355 456.642248 
L 252.682679 455.313504 
L 258.856003 454.200105 
L 265.029327 452.522212 
L 271.202652 451.329868 
L 277.375976 448.249948 
L 283.5493 449.30453 
L 289.722624 449.396387 
L 295.895948 449.512407 
L 302.069272 446.175192 
L 308.242596 441.537001 
L 314.415921 440.004605 
L 320.589245 438.582357 
L 326.762569 436.751367 
L 332.935893 433.052129 
L 339.109217 432.927822 
L 345.282541 430.808821 
L 351.455865 427.429017 
L 357.62919 424.860461 
L 363.802514 422.824942 
L 369.975838 419.400908 
L 376.149162 422.315346 
L 382.322486 419.444296 
L 388.49581 418.852378 
L 394.669135 420.273692 
L 400.842459 417.68784 
L 407.015783 413.62622 
L 413.189107 412.150289 
L 419.362431 408.808682 
L 425.535755 404.338755 
L 431.709079 400.377654 
L 437.882404 395.860352 
L 444.055728 392.879359 
L 450.229052 391.039161 
L 456.402376 392.069198 
L 462.5757 390.779119 
L 468.749024 390.510894 
L 474.922348 385.085024 
L 481.095673 383.674864 
L 487.268997 381.752923 
L 493.442321 379.098143 
L 499.615645 377.312411 
L 505.788969 372.70085 
L 511.962293 372.055157 
L 518.135618 370.011037 
L 524.308942 369.570373 
L 530.482266 370.117971 
L 536.65559 369.45366 
L 542.828914 367.805913 
L 549.002238 366.829379 
L 555.175562 366.303074 
L 561.348887 366.998333 
L 567.522211 365.429414 
L 573.695535 366.293052 
L 579.868859 363.281382 
L 586.042183 361.429195 
L 592.215507 362.212122 
L 598.388831 361.030094 
L 604.562156 360.606003 
L 610.73548 358.348735 
L 616.908804 354.343938 
L 623.082128 355.841465 
L 629.255452 353.933519 
L 635.428776 352.496404 
L 641.602101 349.636537 
L 647.775425 347.560609 
L 653.948749 347.136198 
L 660.122073 345.971017 
L 666.295397 345.621992 
L 672.468721 342.06969 
L 678.642045 340.322101 
" clip-path="url(#p17cbec05d7)" style="fill: none; stroke: #e377c2; stroke-width: 1.5; stroke-linecap: square"/>
   </g>
   <g id="line2d_44">
    <path d="M 67.482955 517.189934 
L 73.656279 515.58261 
L 79.829603 515.083658 
L 86.002927 515.962686 
L 92.176251 517.336956 
L 98.349575 518.336484 
L 104.522899 516.168276 
L 110.696224 513.586663 
L 116.869548 514.581151 
L 123.042872 511.338509 
L 129.216196 510.453963 
L 135.38952 508.49166 
L 141.562844 504.021832 
L 147.736169 500.776108 
L 153.909493 499.524475 
L 160.082817 499.338291 
L 166.256141 501.309188 
L 172.429465 500.828625 
L 178.602789 499.478773 
L 184.776113 499.456835 
L 190.949438 497.97031 
L 197.122762 496.127685 
L 203.296086 494.801319 
L 209.46941 494.20243 
L 215.642734 492.20272 
L 221.816058 489.735383 
L 227.989382 489.890067 
L 234.162707 485.764667 
L 240.336031 484.222241 
L 246.509355 482.478865 
L 252.682679 479.555902 
L 258.856003 477.445718 
L 265.029327 474.103663 
L 271.202652 471.901236 
L 277.375976 471.238069 
L 283.5493 468.90837 
L 289.722624 469.154303 
L 295.895948 467.257422 
L 302.069272 465.603161 
L 308.242596 464.248152 
L 314.415921 462.756973 
L 320.589245 464.265925 
L 326.762569 463.493738 
L 332.935893 461.623747 
L 339.109217 459.639091 
L 345.282541 459.686446 
L 351.455865 455.809544 
L 357.62919 455.580552 
L 363.802514 452.210571 
L 369.975838 449.768467 
L 376.149162 449.163118 
L 382.322486 444.414222 
L 388.49581 444.745559 
L 394.669135 441.461652 
L 400.842459 438.038411 
L 407.015783 437.474802 
L 413.189107 433.381001 
L 419.362431 432.097739 
L 425.535755 429.892627 
L 431.709079 427.736063 
L 437.882404 426.254759 
L 444.055728 423.156245 
L 450.229052 420.087367 
L 456.402376 421.368196 
L 462.5757 417.425189 
L 468.749024 418.558794 
L 474.922348 415.080859 
L 481.095673 411.441806 
L 487.268997 411.597461 
L 493.442321 410.589292 
L 499.615645 410.770166 
L 505.788969 409.4268 
L 511.962293 408.242762 
L 518.135618 405.197546 
L 524.308942 401.244325 
L 530.482266 397.145018 
L 536.65559 396.395834 
L 542.828914 395.042716 
L 549.002238 396.212162 
L 555.175562 395.879982 
L 561.348887 392.517881 
L 567.522211 388.042299 
L 573.695535 388.443299 
L 579.868859 387.745955 
L 586.042183 386.080016 
L 592.215507 383.889504 
L 598.388831 383.563713 
L 604.562156 381.12697 
L 610.73548 380.226645 
L 616.908804 378.540253 
L 623.082128 375.894371 
L 629.255452 374.17226 
L 635.428776 373.207847 
L 641.602101 371.684281 
L 647.775425 370.124359 
L 653.948749 369.046371 
L 660.122073 367.77808 
L 666.295397 363.331478 
L 672.468721 360.660554 
L 678.642045 359.455034 
" clip-path="url(#p17cbec05d7)" style="fill: none; stroke: #7f7f7f; stroke-width: 1.5; stroke-linecap: square"/>
   </g>
   <g id="line2d_45">
    <path d="M 67.482955 519.250529 
L 73.656279 518.110613 
L 79.829603 514.392131 
L 86.002927 512.048506 
L 92.176251 510.520991 
L 98.349575 508.043771 
L 104.522899 509.020609 
L 110.696224 509.237524 
L 116.869548 509.569353 
L 123.042872 507.613638 
L 129.216196 502.937971 
L 135.38952 497.408822 
L 141.562844 494.605916 
L 147.736169 492.037788 
L 153.909493 493.408496 
L 160.082817 492.625955 
L 166.256141 492.262827 
L 172.429465 491.614051 
L 178.602789 490.190643 
L 184.776113 489.287326 
L 190.949438 490.963027 
L 197.122762 487.97214 
L 203.296086 488.096612 
L 209.46941 485.976109 
L 215.642734 480.715978 
L 221.816058 480.578035 
L 227.989382 483.196544 
L 234.162707 481.97481 
L 240.336031 478.379812 
L 246.509355 473.317718 
L 252.682679 473.710505 
L 258.856003 471.14947 
L 265.029327 470.234551 
L 271.202652 468.704719 
L 277.375976 462.468803 
L 283.5493 463.329446 
L 289.722624 461.184145 
L 295.895948 458.672742 
L 302.069272 455.103707 
L 308.242596 453.224924 
L 314.415921 450.98669 
L 320.589245 449.945726 
L 326.762569 447.774095 
L 332.935893 446.650217 
L 339.109217 443.875509 
L 345.282541 442.796835 
L 351.455865 440.440448 
L 357.62919 438.779399 
L 363.802514 435.141467 
L 369.975838 433.518286 
L 376.149162 434.841039 
L 382.322486 430.970615 
L 388.49581 430.809311 
L 394.669135 430.216863 
L 400.842459 429.52499 
L 407.015783 425.462037 
L 413.189107 427.405314 
L 419.362431 420.325121 
L 425.535755 416.806956 
L 431.709079 414.713845 
L 437.882404 413.096653 
L 444.055728 410.896913 
L 450.229052 408.294087 
L 456.402376 405.478922 
L 462.5757 402.817093 
L 468.749024 400.952687 
L 474.922348 399.579235 
L 481.095673 398.12696 
L 487.268997 396.74935 
L 493.442321 393.098209 
L 499.615645 390.371439 
L 505.788969 393.691681 
L 511.962293 390.858232 
L 518.135618 388.813893 
L 524.308942 387.134783 
L 530.482266 386.088464 
L 536.65559 382.453848 
L 542.828914 379.121392 
L 549.002238 378.732758 
L 555.175562 376.32512 
L 561.348887 376.276621 
L 567.522211 376.926194 
L 573.695535 376.287461 
L 579.868859 373.100679 
L 586.042183 369.758643 
L 592.215507 367.169569 
L 598.388831 364.21772 
L 604.562156 361.623353 
L 610.73548 361.009885 
L 616.908804 358.55969 
L 623.082128 355.47897 
L 629.255452 352.477163 
L 635.428776 348.731665 
L 641.602101 345.808548 
L 647.775425 343.496055 
L 653.948749 339.953775 
L 660.122073 338.288034 
L 666.295397 338.085907 
L 672.468721 336.653813 
L 678.642045 336.21731 
" clip-path="url(#p17cbec05d7)" style="fill: none; stroke: #bcbd22; stroke-width: 1.5; stroke-linecap: square"/>
   </g>
   <g id="line2d_46">
    <path d="M 67.482955 521.598416 
L 73.656279 520.134583 
L 79.829603 519.779388 
L 86.002927 518.595225 
L 92.176251 520.124309 
L 98.349575 518.048216 
L 104.522899 516.335031 
L 110.696224 516.022047 
L 116.869548 513.182875 
L 123.042872 509.867456 
L 129.216196 510.907065 
L 135.38952 510.501058 
L 141.562844 510.106032 
L 147.736169 510.003199 
L 153.909493 506.872744 
L 160.082817 505.493282 
L 166.256141 504.234778 
L 172.429465 505.952509 
L 178.602789 503.154109 
L 184.776113 503.563509 
L 190.949438 501.749835 
L 197.122762 499.564087 
L 203.296086 495.524712 
L 209.46941 496.053141 
L 215.642734 499.508773 
L 221.816058 497.483062 
L 227.989382 492.691045 
L 234.162707 488.859934 
L 240.336031 486.790059 
L 246.509355 485.920187 
L 252.682679 482.827979 
L 258.856003 482.782714 
L 265.029327 480.256485 
L 271.202652 477.680442 
L 277.375976 474.155171 
L 283.5493 467.721934 
L 289.722624 465.33934 
L 295.895948 464.499117 
L 302.069272 462.831755 
L 308.242596 464.147738 
L 314.415921 463.625355 
L 320.589245 462.614565 
L 326.762569 461.800222 
L 332.935893 459.828402 
L 339.109217 459.524541 
L 345.282541 455.895199 
L 351.455865 454.183722 
L 357.62919 452.488514 
L 363.802514 451.33846 
L 369.975838 449.361787 
L 376.149162 446.238821 
L 382.322486 446.011465 
L 388.49581 445.42646 
L 394.669135 444.235051 
L 400.842459 444.826878 
L 407.015783 444.517606 
L 413.189107 443.621356 
L 419.362431 440.414047 
L 425.535755 438.253651 
L 431.709079 436.211272 
L 437.882404 433.04416 
L 444.055728 431.568098 
L 450.229052 429.188843 
L 456.402376 427.654345 
L 462.5757 425.489156 
L 468.749024 424.775205 
L 474.922348 427.237197 
L 481.095673 425.755843 
L 487.268997 421.610225 
L 493.442321 418.314235 
L 499.615645 414.9512 
L 505.788969 411.124907 
L 511.962293 409.262081 
L 518.135618 407.213328 
L 524.308942 406.559083 
L 530.482266 405.3888 
L 536.65559 402.624019 
L 542.828914 398.852903 
L 549.002238 397.380391 
L 555.175562 396.439597 
L 561.348887 394.727572 
L 567.522211 391.987711 
L 573.695535 392.747201 
L 579.868859 394.965125 
L 586.042183 394.196039 
L 592.215507 394.573705 
L 598.388831 393.732073 
L 604.562156 392.273821 
L 610.73548 391.338262 
L 616.908804 387.14179 
L 623.082128 384.871568 
L 629.255452 382.646298 
L 635.428776 379.870503 
L 641.602101 380.108063 
L 647.775425 376.618894 
L 653.948749 375.037414 
L 660.122073 372.179018 
L 666.295397 372.301974 
L 672.468721 373.249523 
L 678.642045 370.138892 
" clip-path="url(#p17cbec05d7)" style="fill: none; stroke: #17becf; stroke-width: 1.5; stroke-linecap: square"/>
   </g>
   <g id="patch_9">
    <path d="M 36.925 534.04 
L 36.925 294.93 
" style="fill: none; stroke: #000000; stroke-width: 0.8; stroke-linejoin: miter; stroke-linecap: square"/>
   </g>
   <g id="patch_10">
    <path d="M 709.2 534.04 
L 709.2 294.93 
" style="fill: none; stroke: #000000; stroke-width: 0.8; stroke-linejoin: miter; stroke-linecap: square"/>
   </g>
   <g id="patch_11">
    <path d="M 36.925 534.04 
L 709.2 534.04 
" style="fill: none; stroke: #000000; stroke-width: 0.8; stroke-linejoin: miter; stroke-linecap: square"/>
   </g>
   <g id="patch_12">
    <path d="M 36.925 294.93 
L 709.2 294.93 
" style="fill: none; stroke: #000000; stroke-width: 0.8; stroke-linejoin: miter; stroke-linecap: square"/>
   </g>
   <g id="text_22">
    <!-- Five Realizations of AR(1) Process with ϕ=1 -->
    <g transform="translate(242.803438 288.93) scale(0.12 -0.12)">
     <defs>
      <path id="DejaVuSans-46" d="M 628 4666 
L 3309 4666 
L 3309 4134 
L 1259 4134 
L 1259 2759 
L 3109 2759 
L 3109 2228 
L 1259 2228 
L 1259 0 
L 628 0 
L 628 4666 
z
" transform="scale(0.015625)"/>
      <path id="DejaVuSans-76" d="M 191 3500 
L 800 3500 
L 1894 563 
L 2988 3500 
L 3597 3500 
L 2284 0 
L 1503 0 
L 191 3500 
z
" transform="scale(0.015625)"/>
     </defs>
     <use xlink:href="#DejaVuSans-46"/>
     <use xlink:href="#DejaVuSans-69" x="50.269531"/>
     <use xlink:href="#DejaVuSans-76" x="78.052734"/>
     <use xlink:href="#DejaVuSans-65" x="137.232422"/>
     <use xlink:href="#DejaVuSans-20" x="198.755859"/>
     <use xlink:href="#DejaVuSans-52" x="230.542969"/>
     <use xlink:href="#DejaVuSans-65" x="295.525391"/>
     <use xlink:href="#DejaVuSans-61" x="357.048828"/>
     <use xlink:href="#DejaVuSans-6c" x="418.328125"/>
     <use xlink:href="#DejaVuSans-69" x="446.111328"/>
     <use xlink:href="#DejaVuSans-7a" x="473.894531"/>
     <use xlink:href="#DejaVuSans-61" x="526.384766"/>
     <use xlink:href="#DejaVuSans-74" x="587.664062"/>
     <use xlink:href="#DejaVuSans-69" x="626.873047"/>
     <use xlink:href="#DejaVuSans-6f" x="654.65625"/>
     <use xlink:href="#DejaVuSans-6e" x="715.837891"/>
     <use xlink:href="#DejaVuSans-73" x="779.216797"/>
     <use xlink:href="#DejaVuSans-20" x="831.316406"/>
     <use xlink:href="#DejaVuSans-6f" x="863.103516"/>
     <use xlink:href="#DejaVuSans-66" x="924.285156"/>
     <use xlink:href="#DejaVuSans-20" x="959.490234"/>
     <use xlink:href="#DejaVuSans-41" x="991.277344"/>
     <use xlink:href="#DejaVuSans-52" x="1059.685547"/>
     <use xlink:href="#DejaVuSans-28" x="1129.167969"/>
     <use xlink:href="#DejaVuSans-31" x="1168.181641"/>
     <use xlink:href="#DejaVuSans-29" x="1231.804688"/>
     <use xlink:href="#DejaVuSans-20" x="1270.818359"/>
     <use xlink:href="#DejaVuSans-50" x="1302.605469"/>
     <use xlink:href="#DejaVuSans-72" x="1361.158203"/>
     <use xlink:href="#DejaVuSans-6f" x="1400.021484"/>
     <use xlink:href="#DejaVuSans-63" x="1461.203125"/>
     <use xlink:href="#DejaVuSans-65" x="1516.183594"/>
     <use xlink:href="#DejaVuSans-73" x="1577.707031"/>
     <use xlink:href="#DejaVuSans-73" x="1629.806641"/>
     <use xlink:href="#DejaVuSans-20" x="1681.90625"/>
     <use xlink:href="#DejaVuSans-77" x="1713.693359"/>
     <use xlink:href="#DejaVuSans-69" x="1795.480469"/>
     <use xlink:href="#DejaVuSans-74" x="1823.263672"/>
     <use xlink:href="#DejaVuSans-68" x="1862.472656"/>
     <use xlink:href="#DejaVuSans-20" x="1925.851562"/>
     <use xlink:href="#DejaVuSans-3d5" x="1957.638672"/>
     <use xlink:href="#DejaVuSans-3d" x="2023.605469"/>
     <use xlink:href="#DejaVuSans-31" x="2107.394531"/>
    </g>
   </g>
  </g>
 </g>
 <defs>
  <clipPath id="p882c713363">
   <rect x="36.925" y="26.16" width="672.275" height="239.11"/>
  </clipPath>
  <clipPath id="p17cbec05d7">
   <rect x="36.925" y="294.93" width="672.275" height="239.11"/>
  </clipPath>
 </defs>
</svg>
