<?xml version="1.0" encoding="utf-8" standalone="no"?>
<!DOCTYPE svg PUBLIC "-//W3C//DTD SVG 1.1//EN"
  "http://www.w3.org/Graphics/SVG/1.1/DTD/svg11.dtd">
<svg xmlns:xlink="http://www.w3.org/1999/xlink" width="720pt" height="576pt" viewBox="0 0 720 576" xmlns="http://www.w3.org/2000/svg" version="1.1">
 <metadata>
  <rdf:RDF xmlns:dc="http://purl.org/dc/elements/1.1/" xmlns:cc="http://creativecommons.org/ns#" xmlns:rdf="http://www.w3.org/1999/02/22-rdf-syntax-ns#">
   <cc:Work>
    <dc:type rdf:resource="http://purl.org/dc/dcmitype/StillImage"/>
    <dc:date>2024-02-17T10:58:48.302343</dc:date>
    <dc:format>image/svg+xml</dc:format>
    <dc:creator>
     <cc:Agent>
      <dc:title>Matplotlib v3.8.2, https://matplotlib.org/</dc:title>
     </cc:Agent>
    </dc:creator>
   </cc:Work>
  </rdf:RDF>
 </metadata>
 <defs>
  <style type="text/css">*{stroke-linejoin: round; stroke-linecap: butt}</style>
 </defs>
 <g id="figure_1">
  <g id="patch_1">
   <path d="M 0 576 
L 720 576 
L 720 0 
L 0 0 
z
" style="fill: #ffffff"/>
  </g>
  <g id="axes_1">
   <g id="patch_2">
    <path d="M 38.905 265.27 
L 709.2 265.27 
L 709.2 26.16 
L 38.905 26.16 
z
" style="fill: #ffffff"/>
   </g>
   <g id="matplotlib.axis_1">
    <g id="xtick_1">
     <g id="line2d_1">
      <defs>
       <path id="mcd376eb625" d="M 0 0 
L 0 3.5 
" style="stroke: #000000; stroke-width: 0.8"/>
      </defs>
      <g>
       <use xlink:href="#mcd376eb625" x="69.372955" y="265.27" style="stroke: #000000; stroke-width: 0.8"/>
      </g>
     </g>
    </g>
    <g id="xtick_2">
     <g id="line2d_2">
      <g>
       <use xlink:href="#mcd376eb625" x="192.475801" y="265.27" style="stroke: #000000; stroke-width: 0.8"/>
      </g>
     </g>
    </g>
    <g id="xtick_3">
     <g id="line2d_3">
      <g>
       <use xlink:href="#mcd376eb625" x="315.578648" y="265.27" style="stroke: #000000; stroke-width: 0.8"/>
      </g>
     </g>
    </g>
    <g id="xtick_4">
     <g id="line2d_4">
      <g>
       <use xlink:href="#mcd376eb625" x="438.681494" y="265.27" style="stroke: #000000; stroke-width: 0.8"/>
      </g>
     </g>
    </g>
    <g id="xtick_5">
     <g id="line2d_5">
      <g>
       <use xlink:href="#mcd376eb625" x="561.784341" y="265.27" style="stroke: #000000; stroke-width: 0.8"/>
      </g>
     </g>
    </g>
    <g id="xtick_6">
     <g id="line2d_6">
      <g>
       <use xlink:href="#mcd376eb625" x="684.887188" y="265.27" style="stroke: #000000; stroke-width: 0.8"/>
      </g>
     </g>
    </g>
   </g>
   <g id="matplotlib.axis_2">
    <g id="ytick_1">
     <g id="line2d_7">
      <defs>
       <path id="md1a3d2f143" d="M 0 0 
L -3.5 0 
" style="stroke: #000000; stroke-width: 0.8"/>
      </defs>
      <g>
       <use xlink:href="#md1a3d2f143" x="38.905" y="255.68982" style="stroke: #000000; stroke-width: 0.8"/>
      </g>
     </g>
     <g id="text_1">
      <!-- −20 -->
      <g transform="translate(10.800313 259.489039) scale(0.1 -0.1)">
       <defs>
        <path id="DejaVuSans-2212" d="M 678 2272 
L 4684 2272 
L 4684 1741 
L 678 1741 
L 678 2272 
z
" transform="scale(0.015625)"/>
        <path id="DejaVuSans-32" d="M 1228 531 
L 3431 531 
L 3431 0 
L 469 0 
L 469 531 
Q 828 903 1448 1529 
Q 2069 2156 2228 2338 
Q 2531 2678 2651 2914 
Q 2772 3150 2772 3378 
Q 2772 3750 2511 3984 
Q 2250 4219 1831 4219 
Q 1534 4219 1204 4116 
Q 875 4013 500 3803 
L 500 4441 
Q 881 4594 1212 4672 
Q 1544 4750 1819 4750 
Q 2544 4750 2975 4387 
Q 3406 4025 3406 3419 
Q 3406 3131 3298 2873 
Q 3191 2616 2906 2266 
Q 2828 2175 2409 1742 
Q 1991 1309 1228 531 
z
" transform="scale(0.015625)"/>
        <path id="DejaVuSans-30" d="M 2034 4250 
Q 1547 4250 1301 3770 
Q 1056 3291 1056 2328 
Q 1056 1369 1301 889 
Q 1547 409 2034 409 
Q 2525 409 2770 889 
Q 3016 1369 3016 2328 
Q 3016 3291 2770 3770 
Q 2525 4250 2034 4250 
z
M 2034 4750 
Q 2819 4750 3233 4129 
Q 3647 3509 3647 2328 
Q 3647 1150 3233 529 
Q 2819 -91 2034 -91 
Q 1250 -91 836 529 
Q 422 1150 422 2328 
Q 422 3509 836 4129 
Q 1250 4750 2034 4750 
z
" transform="scale(0.015625)"/>
       </defs>
       <use xlink:href="#DejaVuSans-2212"/>
       <use xlink:href="#DejaVuSans-32" x="83.789062"/>
       <use xlink:href="#DejaVuSans-30" x="147.412109"/>
      </g>
     </g>
    </g>
    <g id="ytick_2">
     <g id="line2d_8">
      <g>
       <use xlink:href="#md1a3d2f143" x="38.905" y="202.641553" style="stroke: #000000; stroke-width: 0.8"/>
      </g>
     </g>
     <g id="text_2">
      <!-- −10 -->
      <g transform="translate(10.800313 206.440772) scale(0.1 -0.1)">
       <defs>
        <path id="DejaVuSans-31" d="M 794 531 
L 1825 531 
L 1825 4091 
L 703 3866 
L 703 4441 
L 1819 4666 
L 2450 4666 
L 2450 531 
L 3481 531 
L 3481 0 
L 794 0 
L 794 531 
z
" transform="scale(0.015625)"/>
       </defs>
       <use xlink:href="#DejaVuSans-2212"/>
       <use xlink:href="#DejaVuSans-31" x="83.789062"/>
       <use xlink:href="#DejaVuSans-30" x="147.412109"/>
      </g>
     </g>
    </g>
    <g id="ytick_3">
     <g id="line2d_9">
      <g>
       <use xlink:href="#md1a3d2f143" x="38.905" y="149.593286" style="stroke: #000000; stroke-width: 0.8"/>
      </g>
     </g>
     <g id="text_3">
      <!-- 0 -->
      <g transform="translate(25.5425 153.392505) scale(0.1 -0.1)">
       <use xlink:href="#DejaVuSans-30"/>
      </g>
     </g>
    </g>
    <g id="ytick_4">
     <g id="line2d_10">
      <g>
       <use xlink:href="#md1a3d2f143" x="38.905" y="96.545019" style="stroke: #000000; stroke-width: 0.8"/>
      </g>
     </g>
     <g id="text_4">
      <!-- 10 -->
      <g transform="translate(19.18 100.344238) scale(0.1 -0.1)">
       <use xlink:href="#DejaVuSans-31"/>
       <use xlink:href="#DejaVuSans-30" x="63.623047"/>
      </g>
     </g>
    </g>
    <g id="ytick_5">
     <g id="line2d_11">
      <g>
       <use xlink:href="#md1a3d2f143" x="38.905" y="43.496752" style="stroke: #000000; stroke-width: 0.8"/>
      </g>
     </g>
     <g id="text_5">
      <!-- 20 -->
      <g transform="translate(19.18 47.295971) scale(0.1 -0.1)">
       <use xlink:href="#DejaVuSans-32"/>
       <use xlink:href="#DejaVuSans-30" x="63.623047"/>
      </g>
     </g>
    </g>
   </g>
   <g id="line2d_12">
    <path d="M 69.372955 142.291672 
L 75.528097 156.375301 
L 81.683239 142.119857 
L 87.838382 145.791652 
L 93.993524 154.399718 
L 100.148666 130.767933 
L 106.303809 167.89145 
L 112.458951 122.603738 
L 118.614093 173.021272 
L 124.769236 117.660669 
L 130.924378 179.107508 
L 137.07952 115.637826 
L 143.234663 178.02685 
L 149.389805 121.171326 
L 155.544947 168.780475 
L 161.70009 127.82378 
L 167.855232 167.270649 
L 174.010374 131.885948 
L 180.165517 175.588534 
L 186.320659 119.306581 
L 192.475801 161.776658 
L 198.630944 127.942898 
L 204.786086 166.04102 
L 210.941228 129.235316 
L 217.096371 164.527253 
L 223.251513 126.452121 
L 229.406655 173.693632 
L 235.561798 114.27683 
L 241.71694 175.809942 
L 247.872082 114.261954 
L 254.027225 177.293755 
L 260.182367 116.483928 
L 266.337509 173.828405 
L 272.492652 116.913869 
L 278.647794 178.846001 
L 284.802936 118.078603 
L 290.958079 175.262813 
L 297.113221 110.401649 
L 303.268363 190.053345 
L 309.423506 111.613368 
L 315.578648 181.39435 
L 321.73379 112.217445 
L 327.888933 180.744753 
L 334.044075 111.842863 
L 340.199217 183.222932 
L 346.35436 102.755347 
L 352.509502 199.618917 
L 358.664644 98.657862 
L 364.819787 195.771633 
L 370.974929 106.826945 
L 377.130071 187.987678 
L 383.285213 97.080257 
L 389.440356 196.69069 
L 395.595498 95.967227 
L 401.75064 204.599474 
L 407.905783 92.551962 
L 414.060925 203.320136 
L 420.216067 92.247034 
L 426.37121 194.835814 
L 432.526352 96.087478 
L 438.681494 203.69036 
L 444.836637 88.883721 
L 450.991779 202.355045 
L 457.146921 85.478408 
L 463.302064 200.018844 
L 469.457206 99.247801 
L 475.612348 198.935404 
L 481.767491 101.617575 
L 487.922633 193.505606 
L 494.077775 97.90219 
L 500.232918 190.741918 
L 506.38806 103.542735 
L 512.543202 192.035746 
L 518.698345 101.04095 
L 524.853487 197.271084 
L 531.008629 85.526021 
L 537.163772 216.884088 
L 543.318914 76.017641 
L 549.474056 207.129225 
L 555.629199 86.716449 
L 561.784341 208.173421 
L 567.939483 87.604511 
L 574.094626 207.234182 
L 580.249768 79.364841 
L 586.40491 226.250449 
L 592.560053 59.496697 
L 598.715195 241.938895 
L 604.870337 53.357395 
L 611.02548 242.801418 
L 617.180622 47.958155 
L 623.335764 254.401364 
L 629.490907 37.028636 
L 635.646049 246.114498 
L 641.801191 54.99865 
L 647.956334 237.876738 
L 654.111476 59.516709 
L 660.266618 232.105779 
L 666.421761 61.674391 
L 672.576903 235.610332 
L 678.732045 55.683336 
" clip-path="url(#p0eb79b0e6a)" style="fill: none; stroke: #1f77b4; stroke-width: 1.5; stroke-linecap: square"/>
   </g>
   <g id="patch_3">
    <path d="M 38.905 265.27 
L 38.905 26.16 
" style="fill: none; stroke: #000000; stroke-width: 0.8; stroke-linejoin: miter; stroke-linecap: square"/>
   </g>
   <g id="patch_4">
    <path d="M 709.2 265.27 
L 709.2 26.16 
" style="fill: none; stroke: #000000; stroke-width: 0.8; stroke-linejoin: miter; stroke-linecap: square"/>
   </g>
   <g id="patch_5">
    <path d="M 38.905 265.27 
L 709.2 265.27 
" style="fill: none; stroke: #000000; stroke-width: 0.8; stroke-linejoin: miter; stroke-linecap: square"/>
   </g>
   <g id="patch_6">
    <path d="M 38.905 26.16 
L 709.2 26.16 
" style="fill: none; stroke: #000000; stroke-width: 0.8; stroke-linejoin: miter; stroke-linecap: square"/>
   </g>
   <g id="text_6">
    <!-- One Realization of AR(1) Process with ϕ=-1 -->
    <g transform="translate(244.462813 20.16) scale(0.12 -0.12)">
     <defs>
      <path id="DejaVuSans-4f" d="M 2522 4238 
Q 1834 4238 1429 3725 
Q 1025 3213 1025 2328 
Q 1025 1447 1429 934 
Q 1834 422 2522 422 
Q 3209 422 3611 934 
Q 4013 1447 4013 2328 
Q 4013 3213 3611 3725 
Q 3209 4238 2522 4238 
z
M 2522 4750 
Q 3503 4750 4090 4092 
Q 4678 3434 4678 2328 
Q 4678 1225 4090 567 
Q 3503 -91 2522 -91 
Q 1538 -91 948 565 
Q 359 1222 359 2328 
Q 359 3434 948 4092 
Q 1538 4750 2522 4750 
z
" transform="scale(0.015625)"/>
      <path id="DejaVuSans-6e" d="M 3513 2113 
L 3513 0 
L 2938 0 
L 2938 2094 
Q 2938 2591 2744 2837 
Q 2550 3084 2163 3084 
Q 1697 3084 1428 2787 
Q 1159 2491 1159 1978 
L 1159 0 
L 581 0 
L 581 3500 
L 1159 3500 
L 1159 2956 
Q 1366 3272 1645 3428 
Q 1925 3584 2291 3584 
Q 2894 3584 3203 3211 
Q 3513 2838 3513 2113 
z
" transform="scale(0.015625)"/>
      <path id="DejaVuSans-65" d="M 3597 1894 
L 3597 1613 
L 953 1613 
Q 991 1019 1311 708 
Q 1631 397 2203 397 
Q 2534 397 2845 478 
Q 3156 559 3463 722 
L 3463 178 
Q 3153 47 2828 -22 
Q 2503 -91 2169 -91 
Q 1331 -91 842 396 
Q 353 884 353 1716 
Q 353 2575 817 3079 
Q 1281 3584 2069 3584 
Q 2775 3584 3186 3129 
Q 3597 2675 3597 1894 
z
M 3022 2063 
Q 3016 2534 2758 2815 
Q 2500 3097 2075 3097 
Q 1594 3097 1305 2825 
Q 1016 2553 972 2059 
L 3022 2063 
z
" transform="scale(0.015625)"/>
      <path id="DejaVuSans-20" transform="scale(0.015625)"/>
      <path id="DejaVuSans-52" d="M 2841 2188 
Q 3044 2119 3236 1894 
Q 3428 1669 3622 1275 
L 4263 0 
L 3584 0 
L 2988 1197 
Q 2756 1666 2539 1819 
Q 2322 1972 1947 1972 
L 1259 1972 
L 1259 0 
L 628 0 
L 628 4666 
L 2053 4666 
Q 2853 4666 3247 4331 
Q 3641 3997 3641 3322 
Q 3641 2881 3436 2590 
Q 3231 2300 2841 2188 
z
M 1259 4147 
L 1259 2491 
L 2053 2491 
Q 2509 2491 2742 2702 
Q 2975 2913 2975 3322 
Q 2975 3731 2742 3939 
Q 2509 4147 2053 4147 
L 1259 4147 
z
" transform="scale(0.015625)"/>
      <path id="DejaVuSans-61" d="M 2194 1759 
Q 1497 1759 1228 1600 
Q 959 1441 959 1056 
Q 959 750 1161 570 
Q 1363 391 1709 391 
Q 2188 391 2477 730 
Q 2766 1069 2766 1631 
L 2766 1759 
L 2194 1759 
z
M 3341 1997 
L 3341 0 
L 2766 0 
L 2766 531 
Q 2569 213 2275 61 
Q 1981 -91 1556 -91 
Q 1019 -91 701 211 
Q 384 513 384 1019 
Q 384 1609 779 1909 
Q 1175 2209 1959 2209 
L 2766 2209 
L 2766 2266 
Q 2766 2663 2505 2880 
Q 2244 3097 1772 3097 
Q 1472 3097 1187 3025 
Q 903 2953 641 2809 
L 641 3341 
Q 956 3463 1253 3523 
Q 1550 3584 1831 3584 
Q 2591 3584 2966 3190 
Q 3341 2797 3341 1997 
z
" transform="scale(0.015625)"/>
      <path id="DejaVuSans-6c" d="M 603 4863 
L 1178 4863 
L 1178 0 
L 603 0 
L 603 4863 
z
" transform="scale(0.015625)"/>
      <path id="DejaVuSans-69" d="M 603 3500 
L 1178 3500 
L 1178 0 
L 603 0 
L 603 3500 
z
M 603 4863 
L 1178 4863 
L 1178 4134 
L 603 4134 
L 603 4863 
z
" transform="scale(0.015625)"/>
      <path id="DejaVuSans-7a" d="M 353 3500 
L 3084 3500 
L 3084 2975 
L 922 459 
L 3084 459 
L 3084 0 
L 275 0 
L 275 525 
L 2438 3041 
L 353 3041 
L 353 3500 
z
" transform="scale(0.015625)"/>
      <path id="DejaVuSans-74" d="M 1172 4494 
L 1172 3500 
L 2356 3500 
L 2356 3053 
L 1172 3053 
L 1172 1153 
Q 1172 725 1289 603 
Q 1406 481 1766 481 
L 2356 481 
L 2356 0 
L 1766 0 
Q 1100 0 847 248 
Q 594 497 594 1153 
L 594 3053 
L 172 3053 
L 172 3500 
L 594 3500 
L 594 4494 
L 1172 4494 
z
" transform="scale(0.015625)"/>
      <path id="DejaVuSans-6f" d="M 1959 3097 
Q 1497 3097 1228 2736 
Q 959 2375 959 1747 
Q 959 1119 1226 758 
Q 1494 397 1959 397 
Q 2419 397 2687 759 
Q 2956 1122 2956 1747 
Q 2956 2369 2687 2733 
Q 2419 3097 1959 3097 
z
M 1959 3584 
Q 2709 3584 3137 3096 
Q 3566 2609 3566 1747 
Q 3566 888 3137 398 
Q 2709 -91 1959 -91 
Q 1206 -91 779 398 
Q 353 888 353 1747 
Q 353 2609 779 3096 
Q 1206 3584 1959 3584 
z
" transform="scale(0.015625)"/>
      <path id="DejaVuSans-66" d="M 2375 4863 
L 2375 4384 
L 1825 4384 
Q 1516 4384 1395 4259 
Q 1275 4134 1275 3809 
L 1275 3500 
L 2222 3500 
L 2222 3053 
L 1275 3053 
L 1275 0 
L 697 0 
L 697 3053 
L 147 3053 
L 147 3500 
L 697 3500 
L 697 3744 
Q 697 4328 969 4595 
Q 1241 4863 1831 4863 
L 2375 4863 
z
" transform="scale(0.015625)"/>
      <path id="DejaVuSans-41" d="M 2188 4044 
L 1331 1722 
L 3047 1722 
L 2188 4044 
z
M 1831 4666 
L 2547 4666 
L 4325 0 
L 3669 0 
L 3244 1197 
L 1141 1197 
L 716 0 
L 50 0 
L 1831 4666 
z
" transform="scale(0.015625)"/>
      <path id="DejaVuSans-28" d="M 1984 4856 
Q 1566 4138 1362 3434 
Q 1159 2731 1159 2009 
Q 1159 1288 1364 580 
Q 1569 -128 1984 -844 
L 1484 -844 
Q 1016 -109 783 600 
Q 550 1309 550 2009 
Q 550 2706 781 3412 
Q 1013 4119 1484 4856 
L 1984 4856 
z
" transform="scale(0.015625)"/>
      <path id="DejaVuSans-29" d="M 513 4856 
L 1013 4856 
Q 1481 4119 1714 3412 
Q 1947 2706 1947 2009 
Q 1947 1309 1714 600 
Q 1481 -109 1013 -844 
L 513 -844 
Q 928 -128 1133 580 
Q 1338 1288 1338 2009 
Q 1338 2731 1133 3434 
Q 928 4138 513 4856 
z
" transform="scale(0.015625)"/>
      <path id="DejaVuSans-50" d="M 1259 4147 
L 1259 2394 
L 2053 2394 
Q 2494 2394 2734 2622 
Q 2975 2850 2975 3272 
Q 2975 3691 2734 3919 
Q 2494 4147 2053 4147 
L 1259 4147 
z
M 628 4666 
L 2053 4666 
Q 2838 4666 3239 4311 
Q 3641 3956 3641 3272 
Q 3641 2581 3239 2228 
Q 2838 1875 2053 1875 
L 1259 1875 
L 1259 0 
L 628 0 
L 628 4666 
z
" transform="scale(0.015625)"/>
      <path id="DejaVuSans-72" d="M 2631 2963 
Q 2534 3019 2420 3045 
Q 2306 3072 2169 3072 
Q 1681 3072 1420 2755 
Q 1159 2438 1159 1844 
L 1159 0 
L 581 0 
L 581 3500 
L 1159 3500 
L 1159 2956 
Q 1341 3275 1631 3429 
Q 1922 3584 2338 3584 
Q 2397 3584 2469 3576 
Q 2541 3569 2628 3553 
L 2631 2963 
z
" transform="scale(0.015625)"/>
      <path id="DejaVuSans-63" d="M 3122 3366 
L 3122 2828 
Q 2878 2963 2633 3030 
Q 2388 3097 2138 3097 
Q 1578 3097 1268 2742 
Q 959 2388 959 1747 
Q 959 1106 1268 751 
Q 1578 397 2138 397 
Q 2388 397 2633 464 
Q 2878 531 3122 666 
L 3122 134 
Q 2881 22 2623 -34 
Q 2366 -91 2075 -91 
Q 1284 -91 818 406 
Q 353 903 353 1747 
Q 353 2603 823 3093 
Q 1294 3584 2113 3584 
Q 2378 3584 2631 3529 
Q 2884 3475 3122 3366 
z
" transform="scale(0.015625)"/>
      <path id="DejaVuSans-73" d="M 2834 3397 
L 2834 2853 
Q 2591 2978 2328 3040 
Q 2066 3103 1784 3103 
Q 1356 3103 1142 2972 
Q 928 2841 928 2578 
Q 928 2378 1081 2264 
Q 1234 2150 1697 2047 
L 1894 2003 
Q 2506 1872 2764 1633 
Q 3022 1394 3022 966 
Q 3022 478 2636 193 
Q 2250 -91 1575 -91 
Q 1294 -91 989 -36 
Q 684 19 347 128 
L 347 722 
Q 666 556 975 473 
Q 1284 391 1588 391 
Q 1994 391 2212 530 
Q 2431 669 2431 922 
Q 2431 1156 2273 1281 
Q 2116 1406 1581 1522 
L 1381 1569 
Q 847 1681 609 1914 
Q 372 2147 372 2553 
Q 372 3047 722 3315 
Q 1072 3584 1716 3584 
Q 2034 3584 2315 3537 
Q 2597 3491 2834 3397 
z
" transform="scale(0.015625)"/>
      <path id="DejaVuSans-77" d="M 269 3500 
L 844 3500 
L 1563 769 
L 2278 3500 
L 2956 3500 
L 3675 769 
L 4391 3500 
L 4966 3500 
L 4050 0 
L 3372 0 
L 2619 2869 
L 1863 0 
L 1184 0 
L 269 3500 
z
" transform="scale(0.015625)"/>
      <path id="DejaVuSans-68" d="M 3513 2113 
L 3513 0 
L 2938 0 
L 2938 2094 
Q 2938 2591 2744 2837 
Q 2550 3084 2163 3084 
Q 1697 3084 1428 2787 
Q 1159 2491 1159 1978 
L 1159 0 
L 581 0 
L 581 4863 
L 1159 4863 
L 1159 2956 
Q 1366 3272 1645 3428 
Q 1925 3584 2291 3584 
Q 2894 3584 3203 3211 
Q 3513 2838 3513 2113 
z
" transform="scale(0.015625)"/>
      <path id="DejaVuSans-3d5" d="M 2388 4863 
L 2388 3572 
Q 3009 3572 3425 3094 
Q 3853 2606 3853 1747 
Q 3853 888 3425 400 
Q 3009 -78 2388 -78 
L 2388 -1331 
L 1816 -1331 
L 1816 -78 
Q 1194 -78 775 400 
Q 350 888 350 1747 
Q 350 2606 775 3094 
Q 1194 3572 1816 3572 
L 1816 4863 
L 2388 4863 
z
M 2388 434 
Q 2741 434 2981 756 
Q 3244 1116 3247 1747 
Q 3250 2372 2981 2738 
Q 2741 3059 2388 3059 
L 2388 434 
z
M 1816 434 
L 1816 3059 
Q 1463 3059 1225 2738 
Q 953 2372 956 1747 
Q 959 1116 1225 756 
Q 1463 434 1816 434 
z
" transform="scale(0.015625)"/>
      <path id="DejaVuSans-3d" d="M 678 2906 
L 4684 2906 
L 4684 2381 
L 678 2381 
L 678 2906 
z
M 678 1631 
L 4684 1631 
L 4684 1100 
L 678 1100 
L 678 1631 
z
" transform="scale(0.015625)"/>
      <path id="DejaVuSans-2d" d="M 313 2009 
L 1997 2009 
L 1997 1497 
L 313 1497 
L 313 2009 
z
" transform="scale(0.015625)"/>
     </defs>
     <use xlink:href="#DejaVuSans-4f"/>
     <use xlink:href="#DejaVuSans-6e" x="78.710938"/>
     <use xlink:href="#DejaVuSans-65" x="142.089844"/>
     <use xlink:href="#DejaVuSans-20" x="203.613281"/>
     <use xlink:href="#DejaVuSans-52" x="235.400391"/>
     <use xlink:href="#DejaVuSans-65" x="300.382812"/>
     <use xlink:href="#DejaVuSans-61" x="361.90625"/>
     <use xlink:href="#DejaVuSans-6c" x="423.185547"/>
     <use xlink:href="#DejaVuSans-69" x="450.96875"/>
     <use xlink:href="#DejaVuSans-7a" x="478.751953"/>
     <use xlink:href="#DejaVuSans-61" x="531.242188"/>
     <use xlink:href="#DejaVuSans-74" x="592.521484"/>
     <use xlink:href="#DejaVuSans-69" x="631.730469"/>
     <use xlink:href="#DejaVuSans-6f" x="659.513672"/>
     <use xlink:href="#DejaVuSans-6e" x="720.695312"/>
     <use xlink:href="#DejaVuSans-20" x="784.074219"/>
     <use xlink:href="#DejaVuSans-6f" x="815.861328"/>
     <use xlink:href="#DejaVuSans-66" x="877.042969"/>
     <use xlink:href="#DejaVuSans-20" x="912.248047"/>
     <use xlink:href="#DejaVuSans-41" x="944.035156"/>
     <use xlink:href="#DejaVuSans-52" x="1012.443359"/>
     <use xlink:href="#DejaVuSans-28" x="1081.925781"/>
     <use xlink:href="#DejaVuSans-31" x="1120.939453"/>
     <use xlink:href="#DejaVuSans-29" x="1184.5625"/>
     <use xlink:href="#DejaVuSans-20" x="1223.576172"/>
     <use xlink:href="#DejaVuSans-50" x="1255.363281"/>
     <use xlink:href="#DejaVuSans-72" x="1313.916016"/>
     <use xlink:href="#DejaVuSans-6f" x="1352.779297"/>
     <use xlink:href="#DejaVuSans-63" x="1413.960938"/>
     <use xlink:href="#DejaVuSans-65" x="1468.941406"/>
     <use xlink:href="#DejaVuSans-73" x="1530.464844"/>
     <use xlink:href="#DejaVuSans-73" x="1582.564453"/>
     <use xlink:href="#DejaVuSans-20" x="1634.664062"/>
     <use xlink:href="#DejaVuSans-77" x="1666.451172"/>
     <use xlink:href="#DejaVuSans-69" x="1748.238281"/>
     <use xlink:href="#DejaVuSans-74" x="1776.021484"/>
     <use xlink:href="#DejaVuSans-68" x="1815.230469"/>
     <use xlink:href="#DejaVuSans-20" x="1878.609375"/>
     <use xlink:href="#DejaVuSans-3d5" x="1910.396484"/>
     <use xlink:href="#DejaVuSans-3d" x="1976.363281"/>
     <use xlink:href="#DejaVuSans-2d" x="2060.152344"/>
     <use xlink:href="#DejaVuSans-31" x="2096.236328"/>
    </g>
   </g>
   <g id="legend_1">
    <g id="patch_7">
     <path d="M 45.905 48.838125 
L 212.409688 48.838125 
Q 214.409688 48.838125 214.409688 46.838125 
L 214.409688 33.16 
Q 214.409688 31.16 212.409688 31.16 
L 45.905 31.16 
Q 43.905 31.16 43.905 33.16 
L 43.905 46.838125 
Q 43.905 48.838125 45.905 48.838125 
z
" style="fill: #ffffff; opacity: 0.8; stroke: #cccccc; stroke-linejoin: miter"/>
    </g>
    <g id="line2d_13">
     <path d="M 47.905 39.258438 
L 57.905 39.258438 
L 67.905 39.258438 
" style="fill: none; stroke: #1f77b4; stroke-width: 1.5; stroke-linecap: square"/>
    </g>
    <g id="text_7">
     <!-- AR(1) with c=1, σ=1, ϕ=-1 -->
     <g transform="translate(75.905 42.758438) scale(0.1 -0.1)">
      <defs>
       <path id="DejaVuSans-2c" d="M 750 794 
L 1409 794 
L 1409 256 
L 897 -744 
L 494 -744 
L 750 256 
L 750 794 
z
" transform="scale(0.015625)"/>
       <path id="DejaVuSans-3c3" d="M 1959 3044 
Q 1484 3044 1228 2700 
Q 959 2341 959 1747 
Q 959 1119 1226 758 
Q 1494 397 1959 397 
Q 2419 397 2687 759 
Q 2956 1122 2956 1747 
Q 2956 2319 2688 2700 
Q 2441 3044 1959 3044 
z
M 1959 3500 
L 3869 3500 
L 3869 2925 
L 3225 2925 
Q 3566 2438 3566 1747 
Q 3566 888 3138 400 
Q 2709 -91 1959 -91 
Q 1206 -91 781 400 
Q 353 888 353 1747 
Q 353 2613 781 3097 
Q 1134 3500 1959 3500 
z
" transform="scale(0.015625)"/>
      </defs>
      <use xlink:href="#DejaVuSans-41"/>
      <use xlink:href="#DejaVuSans-52" x="68.408203"/>
      <use xlink:href="#DejaVuSans-28" x="137.890625"/>
      <use xlink:href="#DejaVuSans-31" x="176.904297"/>
      <use xlink:href="#DejaVuSans-29" x="240.527344"/>
      <use xlink:href="#DejaVuSans-20" x="279.541016"/>
      <use xlink:href="#DejaVuSans-77" x="311.328125"/>
      <use xlink:href="#DejaVuSans-69" x="393.115234"/>
      <use xlink:href="#DejaVuSans-74" x="420.898438"/>
      <use xlink:href="#DejaVuSans-68" x="460.107422"/>
      <use xlink:href="#DejaVuSans-20" x="523.486328"/>
      <use xlink:href="#DejaVuSans-63" x="555.273438"/>
      <use xlink:href="#DejaVuSans-3d" x="610.253906"/>
      <use xlink:href="#DejaVuSans-31" x="694.042969"/>
      <use xlink:href="#DejaVuSans-2c" x="757.666016"/>
      <use xlink:href="#DejaVuSans-20" x="789.453125"/>
      <use xlink:href="#DejaVuSans-3c3" x="821.240234"/>
      <use xlink:href="#DejaVuSans-3d" x="884.619141"/>
      <use xlink:href="#DejaVuSans-31" x="968.408203"/>
      <use xlink:href="#DejaVuSans-2c" x="1032.03125"/>
      <use xlink:href="#DejaVuSans-20" x="1063.818359"/>
      <use xlink:href="#DejaVuSans-3d5" x="1095.605469"/>
      <use xlink:href="#DejaVuSans-3d" x="1161.572266"/>
      <use xlink:href="#DejaVuSans-2d" x="1245.361328"/>
      <use xlink:href="#DejaVuSans-31" x="1281.445312"/>
     </g>
    </g>
   </g>
  </g>
  <g id="axes_2">
   <g id="patch_8">
    <path d="M 38.905 534.04 
L 709.2 534.04 
L 709.2 294.93 
L 38.905 294.93 
z
" style="fill: #ffffff"/>
   </g>
   <g id="matplotlib.axis_3">
    <g id="xtick_7">
     <g id="line2d_14">
      <g>
       <use xlink:href="#mcd376eb625" x="69.372955" y="534.04" style="stroke: #000000; stroke-width: 0.8"/>
      </g>
     </g>
     <g id="text_8">
      <!-- 0 -->
      <g transform="translate(66.191705 548.638438) scale(0.1 -0.1)">
       <use xlink:href="#DejaVuSans-30"/>
      </g>
     </g>
    </g>
    <g id="xtick_8">
     <g id="line2d_15">
      <g>
       <use xlink:href="#mcd376eb625" x="192.475801" y="534.04" style="stroke: #000000; stroke-width: 0.8"/>
      </g>
     </g>
     <g id="text_9">
      <!-- 20 -->
      <g transform="translate(186.113301 548.638438) scale(0.1 -0.1)">
       <use xlink:href="#DejaVuSans-32"/>
       <use xlink:href="#DejaVuSans-30" x="63.623047"/>
      </g>
     </g>
    </g>
    <g id="xtick_9">
     <g id="line2d_16">
      <g>
       <use xlink:href="#mcd376eb625" x="315.578648" y="534.04" style="stroke: #000000; stroke-width: 0.8"/>
      </g>
     </g>
     <g id="text_10">
      <!-- 40 -->
      <g transform="translate(309.216148 548.638438) scale(0.1 -0.1)">
       <defs>
        <path id="DejaVuSans-34" d="M 2419 4116 
L 825 1625 
L 2419 1625 
L 2419 4116 
z
M 2253 4666 
L 3047 4666 
L 3047 1625 
L 3713 1625 
L 3713 1100 
L 3047 1100 
L 3047 0 
L 2419 0 
L 2419 1100 
L 313 1100 
L 313 1709 
L 2253 4666 
z
" transform="scale(0.015625)"/>
       </defs>
       <use xlink:href="#DejaVuSans-34"/>
       <use xlink:href="#DejaVuSans-30" x="63.623047"/>
      </g>
     </g>
    </g>
    <g id="xtick_10">
     <g id="line2d_17">
      <g>
       <use xlink:href="#mcd376eb625" x="438.681494" y="534.04" style="stroke: #000000; stroke-width: 0.8"/>
      </g>
     </g>
     <g id="text_11">
      <!-- 60 -->
      <g transform="translate(432.318994 548.638438) scale(0.1 -0.1)">
       <defs>
        <path id="DejaVuSans-36" d="M 2113 2584 
Q 1688 2584 1439 2293 
Q 1191 2003 1191 1497 
Q 1191 994 1439 701 
Q 1688 409 2113 409 
Q 2538 409 2786 701 
Q 3034 994 3034 1497 
Q 3034 2003 2786 2293 
Q 2538 2584 2113 2584 
z
M 3366 4563 
L 3366 3988 
Q 3128 4100 2886 4159 
Q 2644 4219 2406 4219 
Q 1781 4219 1451 3797 
Q 1122 3375 1075 2522 
Q 1259 2794 1537 2939 
Q 1816 3084 2150 3084 
Q 2853 3084 3261 2657 
Q 3669 2231 3669 1497 
Q 3669 778 3244 343 
Q 2819 -91 2113 -91 
Q 1303 -91 875 529 
Q 447 1150 447 2328 
Q 447 3434 972 4092 
Q 1497 4750 2381 4750 
Q 2619 4750 2861 4703 
Q 3103 4656 3366 4563 
z
" transform="scale(0.015625)"/>
       </defs>
       <use xlink:href="#DejaVuSans-36"/>
       <use xlink:href="#DejaVuSans-30" x="63.623047"/>
      </g>
     </g>
    </g>
    <g id="xtick_11">
     <g id="line2d_18">
      <g>
       <use xlink:href="#mcd376eb625" x="561.784341" y="534.04" style="stroke: #000000; stroke-width: 0.8"/>
      </g>
     </g>
     <g id="text_12">
      <!-- 80 -->
      <g transform="translate(555.421841 548.638438) scale(0.1 -0.1)">
       <defs>
        <path id="DejaVuSans-38" d="M 2034 2216 
Q 1584 2216 1326 1975 
Q 1069 1734 1069 1313 
Q 1069 891 1326 650 
Q 1584 409 2034 409 
Q 2484 409 2743 651 
Q 3003 894 3003 1313 
Q 3003 1734 2745 1975 
Q 2488 2216 2034 2216 
z
M 1403 2484 
Q 997 2584 770 2862 
Q 544 3141 544 3541 
Q 544 4100 942 4425 
Q 1341 4750 2034 4750 
Q 2731 4750 3128 4425 
Q 3525 4100 3525 3541 
Q 3525 3141 3298 2862 
Q 3072 2584 2669 2484 
Q 3125 2378 3379 2068 
Q 3634 1759 3634 1313 
Q 3634 634 3220 271 
Q 2806 -91 2034 -91 
Q 1263 -91 848 271 
Q 434 634 434 1313 
Q 434 1759 690 2068 
Q 947 2378 1403 2484 
z
M 1172 3481 
Q 1172 3119 1398 2916 
Q 1625 2713 2034 2713 
Q 2441 2713 2670 2916 
Q 2900 3119 2900 3481 
Q 2900 3844 2670 4047 
Q 2441 4250 2034 4250 
Q 1625 4250 1398 4047 
Q 1172 3844 1172 3481 
z
" transform="scale(0.015625)"/>
       </defs>
       <use xlink:href="#DejaVuSans-38"/>
       <use xlink:href="#DejaVuSans-30" x="63.623047"/>
      </g>
     </g>
    </g>
    <g id="xtick_12">
     <g id="line2d_19">
      <g>
       <use xlink:href="#mcd376eb625" x="684.887188" y="534.04" style="stroke: #000000; stroke-width: 0.8"/>
      </g>
     </g>
     <g id="text_13">
      <!-- 100 -->
      <g transform="translate(675.343438 548.638438) scale(0.1 -0.1)">
       <use xlink:href="#DejaVuSans-31"/>
       <use xlink:href="#DejaVuSans-30" x="63.623047"/>
       <use xlink:href="#DejaVuSans-30" x="127.246094"/>
      </g>
     </g>
    </g>
    <g id="text_14">
     <!-- t -->
     <g transform="translate(372.092344 562.316562) scale(0.1 -0.1)">
      <use xlink:href="#DejaVuSans-74"/>
     </g>
    </g>
   </g>
   <g id="matplotlib.axis_4">
    <g id="ytick_6">
     <g id="line2d_20">
      <g>
       <use xlink:href="#md1a3d2f143" x="38.905" y="495.816519" style="stroke: #000000; stroke-width: 0.8"/>
      </g>
     </g>
     <g id="text_15">
      <!-- −20 -->
      <g transform="translate(10.800313 499.615738) scale(0.1 -0.1)">
       <use xlink:href="#DejaVuSans-2212"/>
       <use xlink:href="#DejaVuSans-32" x="83.789062"/>
       <use xlink:href="#DejaVuSans-30" x="147.412109"/>
      </g>
     </g>
    </g>
    <g id="ytick_7">
     <g id="line2d_21">
      <g>
       <use xlink:href="#md1a3d2f143" x="38.905" y="455.378612" style="stroke: #000000; stroke-width: 0.8"/>
      </g>
     </g>
     <g id="text_16">
      <!-- −10 -->
      <g transform="translate(10.800313 459.177831) scale(0.1 -0.1)">
       <use xlink:href="#DejaVuSans-2212"/>
       <use xlink:href="#DejaVuSans-31" x="83.789062"/>
       <use xlink:href="#DejaVuSans-30" x="147.412109"/>
      </g>
     </g>
    </g>
    <g id="ytick_8">
     <g id="line2d_22">
      <g>
       <use xlink:href="#md1a3d2f143" x="38.905" y="414.940705" style="stroke: #000000; stroke-width: 0.8"/>
      </g>
     </g>
     <g id="text_17">
      <!-- 0 -->
      <g transform="translate(25.5425 418.739924) scale(0.1 -0.1)">
       <use xlink:href="#DejaVuSans-30"/>
      </g>
     </g>
    </g>
    <g id="ytick_9">
     <g id="line2d_23">
      <g>
       <use xlink:href="#md1a3d2f143" x="38.905" y="374.502798" style="stroke: #000000; stroke-width: 0.8"/>
      </g>
     </g>
     <g id="text_18">
      <!-- 10 -->
      <g transform="translate(19.18 378.302017) scale(0.1 -0.1)">
       <use xlink:href="#DejaVuSans-31"/>
       <use xlink:href="#DejaVuSans-30" x="63.623047"/>
      </g>
     </g>
    </g>
    <g id="ytick_10">
     <g id="line2d_24">
      <g>
       <use xlink:href="#md1a3d2f143" x="38.905" y="334.064891" style="stroke: #000000; stroke-width: 0.8"/>
      </g>
     </g>
     <g id="text_19">
      <!-- 20 -->
      <g transform="translate(19.18 337.86411) scale(0.1 -0.1)">
       <use xlink:href="#DejaVuSans-32"/>
       <use xlink:href="#DejaVuSans-30" x="63.623047"/>
      </g>
     </g>
    </g>
   </g>
   <g id="line2d_25">
    <path d="M 69.372955 403.600508 
L 75.528097 423.009086 
L 81.683239 399.917983 
L 87.838382 431.149362 
L 93.993524 398.555886 
L 100.148666 425.371421 
L 106.303809 394.464744 
L 112.458951 429.93485 
L 118.614093 397.168711 
L 124.769236 428.671774 
L 130.924378 402.222232 
L 137.07952 421.170853 
L 143.234663 401.098796 
L 149.389805 426.566982 
L 155.544947 401.171389 
L 161.70009 423.591074 
L 167.855232 404.012548 
L 174.010374 422.092497 
L 180.165517 395.254286 
L 186.320659 431.582253 
L 192.475801 395.704419 
L 198.630944 432.751724 
L 204.786086 390.076538 
L 210.941228 436.493913 
L 217.096371 391.969634 
L 223.251513 428.524908 
L 229.406655 391.572134 
L 235.561798 436.693472 
L 241.71694 396.692044 
L 247.872082 425.071401 
L 254.027225 403.534718 
L 260.182367 419.105777 
L 266.337509 414.69853 
L 272.492652 407.529612 
L 278.647794 423.205732 
L 284.802936 399.67683 
L 290.958079 426.103072 
L 297.113221 403.592078 
L 303.268363 423.891511 
L 309.423506 399.17078 
L 315.578648 426.238624 
L 321.73379 397.235752 
L 327.888933 420.609556 
L 334.044075 411.553529 
L 340.199217 407.744421 
L 346.35436 417.671205 
L 352.509502 411.800909 
L 358.664644 419.41622 
L 364.819787 407.186162 
L 370.974929 414.924497 
L 377.130071 411.428904 
L 383.285213 408.297921 
L 389.440356 423.407949 
L 395.595498 402.478555 
L 401.75064 428.423481 
L 407.905783 395.943687 
L 414.060925 426.307545 
L 420.216067 401.231546 
L 426.37121 435.136969 
L 432.526352 389.896146 
L 438.681494 434.175394 
L 444.836637 390.027342 
L 450.991779 430.813033 
L 457.146921 399.355703 
L 463.302064 423.731264 
L 469.457206 397.284104 
L 475.612348 435.745751 
L 481.767491 388.799263 
L 487.922633 439.077154 
L 494.077775 387.090126 
L 500.232918 437.341562 
L 506.38806 390.466307 
L 512.543202 438.103734 
L 518.698345 387.59578 
L 524.853487 442.638434 
L 531.008629 387.590035 
L 537.163772 435.500341 
L 543.318914 394.982761 
L 549.474056 428.16043 
L 555.629199 395.806566 
L 561.784341 437.009854 
L 567.939483 391.567695 
L 574.094626 429.441196 
L 580.249768 400.364051 
L 586.40491 427.351521 
L 592.560053 396.61762 
L 598.715195 426.052132 
L 604.870337 400.802658 
L 611.02548 427.451167 
L 617.180622 392.634686 
L 623.335764 426.171187 
L 629.490907 395.708135 
L 635.646049 429.784475 
L 641.801191 399.321601 
L 647.956334 429.874161 
L 654.111476 393.85052 
L 660.266618 430.295184 
L 666.421761 389.874664 
L 672.576903 433.332671 
L 678.732045 398.58309 
" clip-path="url(#p1752d671d1)" style="fill: none; stroke: #1f77b4; stroke-width: 1.5; stroke-linecap: square"/>
   </g>
   <g id="line2d_26">
    <path d="M 69.372955 406.643058 
L 75.528097 423.230509 
L 81.683239 404.159809 
L 87.838382 420.666053 
L 93.993524 397.101505 
L 100.148666 416.160254 
L 106.303809 407.223904 
L 112.458951 419.354524 
L 118.614093 404.321666 
L 124.769236 417.92646 
L 130.924378 409.207871 
L 137.07952 409.370289 
L 143.234663 415.536972 
L 149.389805 408.287878 
L 155.544947 414.856883 
L 161.70009 409.275928 
L 167.855232 413.169191 
L 174.010374 415.164471 
L 180.165517 412.930804 
L 186.320659 417.355609 
L 192.475801 406.70476 
L 198.630944 415.983003 
L 204.786086 408.003478 
L 210.941228 411.062844 
L 217.096371 414.797404 
L 223.251513 408.335964 
L 229.406655 421.916265 
L 235.561798 405.486704 
L 241.71694 417.538306 
L 247.872082 404.865722 
L 254.027225 422.160638 
L 260.182367 403.966514 
L 266.337509 428.009069 
L 272.492652 399.272301 
L 278.647794 422.964795 
L 284.802936 400.546816 
L 290.958079 423.266216 
L 297.113221 402.370129 
L 303.268363 423.438929 
L 309.423506 405.068891 
L 315.578648 417.942812 
L 321.73379 406.19248 
L 327.888933 417.655518 
L 334.044075 410.309276 
L 340.199217 424.236011 
L 346.35436 397.164952 
L 352.509502 430.608985 
L 358.664644 398.717519 
L 364.819787 424.315817 
L 370.974929 403.107019 
L 377.130071 418.444439 
L 383.285213 404.898137 
L 389.440356 418.175271 
L 395.595498 413.185988 
L 401.75064 407.750784 
L 407.905783 417.030393 
L 414.060925 410.300506 
L 420.216067 414.95728 
L 426.37121 418.063062 
L 432.526352 406.12205 
L 438.681494 423.878132 
L 444.836637 407.429403 
L 450.991779 424.564318 
L 457.146921 396.773822 
L 463.302064 431.608406 
L 469.457206 388.027139 
L 475.612348 439.977149 
L 481.767491 392.764668 
L 487.922633 437.587942 
L 494.077775 383.252313 
L 500.232918 443.215725 
L 506.38806 384.839053 
L 512.543202 440.351486 
L 518.698345 383.457029 
L 524.853487 437.862063 
L 531.008629 382.118128 
L 537.163772 445.17432 
L 543.318914 386.025558 
L 549.474056 441.484028 
L 555.629199 383.301072 
L 561.784341 446.433787 
L 567.939483 383.27435 
L 574.094626 441.173063 
L 580.249768 384.861297 
L 586.40491 440.843698 
L 592.560053 388.061117 
L 598.715195 438.708194 
L 604.870337 390.86683 
L 611.02548 431.371013 
L 617.180622 390.280275 
L 623.335764 443.022942 
L 629.490907 386.573425 
L 635.646049 445.315846 
L 641.801191 383.150334 
L 647.956334 443.024691 
L 654.111476 388.674991 
L 660.266618 440.890437 
L 666.421761 389.006976 
L 672.576903 435.992498 
L 678.732045 389.564708 
" clip-path="url(#p1752d671d1)" style="fill: none; stroke: #ff7f0e; stroke-width: 1.5; stroke-linecap: square"/>
   </g>
   <g id="line2d_27">
    <path d="M 69.372955 413.81547 
L 75.528097 411.307123 
L 81.683239 416.741156 
L 87.838382 410.194979 
L 93.993524 408.87555 
L 100.148666 411.541525 
L 106.303809 419.551328 
L 112.458951 402.931027 
L 118.614093 419.625475 
L 124.769236 410.855481 
L 130.924378 411.671173 
L 137.07952 407.947371 
L 143.234663 422.429584 
L 149.389805 407.118225 
L 155.544947 414.604185 
L 161.70009 410.135564 
L 167.855232 413.472 
L 174.010374 410.988348 
L 180.165517 413.269379 
L 186.320659 417.932216 
L 192.475801 403.67027 
L 198.630944 417.437772 
L 204.786086 409.327455 
L 210.941228 416.685976 
L 217.096371 415.343122 
L 223.251513 408.414959 
L 229.406655 415.10938 
L 235.561798 410.979727 
L 241.71694 410.311243 
L 247.872082 416.877315 
L 254.027225 406.677156 
L 260.182367 423.283772 
L 266.337509 402.649087 
L 272.492652 423.893584 
L 278.647794 401.032937 
L 284.802936 426.298972 
L 290.958079 400.070295 
L 297.113221 422.426963 
L 303.268363 405.17684 
L 309.423506 427.157441 
L 315.578648 391.605227 
L 321.73379 428.646081 
L 327.888933 402.417178 
L 334.044075 420.631407 
L 340.199217 407.240137 
L 346.35436 417.531995 
L 352.509502 407.115843 
L 358.664644 419.669672 
L 364.819787 409.337331 
L 370.974929 419.292691 
L 377.130071 410.249816 
L 383.285213 418.951518 
L 389.440356 407.157756 
L 395.595498 421.574246 
L 401.75064 401.505297 
L 407.905783 418.31821 
L 414.060925 409.865023 
L 420.216067 415.004494 
L 426.37121 408.812503 
L 432.526352 415.116438 
L 438.681494 410.414034 
L 444.836637 412.420333 
L 450.991779 411.467172 
L 457.146921 419.375295 
L 463.302064 402.947639 
L 469.457206 419.301961 
L 475.612348 409.622227 
L 481.767491 416.061979 
L 487.922633 407.0124 
L 494.077775 419.67164 
L 500.232918 401.82708 
L 506.38806 414.451533 
L 512.543202 414.564449 
L 518.698345 416.857826 
L 524.853487 407.751215 
L 531.008629 415.168557 
L 537.163772 411.602638 
L 543.318914 408.358299 
L 549.474056 422.892362 
L 555.629199 400.14324 
L 561.784341 428.144354 
L 567.939483 390.740461 
L 574.094626 427.039843 
L 580.249768 401.897975 
L 586.40491 426.161938 
L 592.560053 396.199687 
L 598.715195 431.203407 
L 604.870337 394.817845 
L 611.02548 430.917108 
L 617.180622 402.683267 
L 623.335764 423.210309 
L 629.490907 405.416425 
L 635.646049 422.415279 
L 641.801191 397.584594 
L 647.956334 433.334076 
L 654.111476 389.215112 
L 660.266618 437.750575 
L 666.421761 389.218335 
L 672.576903 433.423185 
L 678.732045 391.039338 
" clip-path="url(#p1752d671d1)" style="fill: none; stroke: #2ca02c; stroke-width: 1.5; stroke-linecap: square"/>
   </g>
   <g id="line2d_28">
    <path d="M 69.372955 408.589475 
L 75.528097 413.333008 
L 81.683239 413.844353 
L 87.838382 414.469024 
L 93.993524 415.756717 
L 100.148666 413.41869 
L 106.303809 400.493409 
L 112.458951 420.310987 
L 118.614093 410.990095 
L 124.769236 420.195268 
L 130.924378 403.693786 
L 137.07952 419.930809 
L 143.234663 403.687239 
L 149.389805 423.181368 
L 155.544947 403.163562 
L 161.70009 421.348181 
L 167.855232 404.142105 
L 174.010374 430.669901 
L 180.165517 396.09698 
L 186.320659 433.183549 
L 192.475801 391.945552 
L 198.630944 421.820304 
L 204.786086 402.531296 
L 210.941228 424.574172 
L 217.096371 397.535875 
L 223.251513 426.349855 
L 229.406655 397.78899 
L 235.561798 425.594653 
L 241.71694 391.926735 
L 247.872082 438.483961 
L 254.027225 385.43839 
L 260.182367 444.145321 
L 266.337509 379.445921 
L 272.492652 450.106674 
L 278.647794 377.418689 
L 284.802936 449.612212 
L 290.958079 372.279409 
L 297.113221 449.844173 
L 303.268363 381.030867 
L 309.423506 444.58461 
L 315.578648 384.122401 
L 321.73379 446.804348 
L 327.888933 379.910842 
L 334.044075 447.174217 
L 340.199217 368.850269 
L 346.35436 455.236551 
L 352.509502 376.171865 
L 358.664644 451.949582 
L 364.819787 369.757777 
L 370.974929 447.634617 
L 377.130071 384.616387 
L 383.285213 448.823253 
L 389.440356 369.448574 
L 395.595498 454.813527 
L 401.75064 374.535287 
L 407.905783 449.140404 
L 414.060925 387.355627 
L 420.216067 438.468342 
L 426.37121 386.043637 
L 432.526352 436.056428 
L 438.681494 393.881175 
L 444.836637 431.609944 
L 450.991779 397.969899 
L 457.146921 426.835002 
L 463.302064 402.623211 
L 469.457206 424.864683 
L 475.612348 404.999805 
L 481.767491 418.204755 
L 487.922633 404.161467 
L 494.077775 422.624908 
L 500.232918 403.058084 
L 506.38806 428.637335 
L 512.543202 398.412114 
L 518.698345 427.628523 
L 524.853487 387.611158 
L 531.008629 442.723023 
L 537.163772 377.19377 
L 543.318914 444.612761 
L 549.474056 380.090023 
L 555.629199 438.636103 
L 561.784341 385.696799 
L 567.939483 438.567141 
L 574.094626 387.485287 
L 580.249768 433.404476 
L 586.40491 387.999251 
L 592.560053 440.368476 
L 598.715195 390.803903 
L 604.870337 435.854528 
L 611.02548 393.21828 
L 617.180622 432.876219 
L 623.335764 387.957459 
L 629.490907 439.729392 
L 635.646049 386.281396 
L 641.801191 439.321592 
L 647.956334 383.08515 
L 654.111476 451.838419 
L 660.266618 376.452569 
L 666.421761 448.530663 
L 672.576903 372.454088 
L 678.732045 455.372682 
" clip-path="url(#p1752d671d1)" style="fill: none; stroke: #d62728; stroke-width: 1.5; stroke-linecap: square"/>
   </g>
   <g id="line2d_29">
    <path d="M 69.372955 418.485301 
L 75.528097 404.846335 
L 81.683239 423.560557 
L 87.838382 407.087826 
L 93.993524 421.274516 
L 100.148666 405.309285 
L 106.303809 422.973795 
L 112.458951 411.782672 
L 118.614093 410.427399 
L 124.769236 410.254892 
L 130.924378 412.948108 
L 137.07952 417.490074 
L 143.234663 409.162335 
L 149.389805 416.701655 
L 155.544947 406.714565 
L 161.70009 416.420425 
L 167.855232 412.386039 
L 174.010374 413.120007 
L 180.165517 410.868466 
L 186.320659 409.082112 
L 192.475801 413.90663 
L 198.630944 408.740209 
L 204.786086 416.758433 
L 210.941228 403.375585 
L 217.096371 420.805039 
L 223.251513 408.514639 
L 229.406655 411.648045 
L 235.561798 411.367399 
L 241.71694 416.261798 
L 247.872082 411.514791 
L 254.027225 413.123539 
L 260.182367 410.841058 
L 266.337509 414.198753 
L 272.492652 410.379999 
L 278.647794 408.583348 
L 284.802936 412.921175 
L 290.958079 412.145554 
L 297.113221 409.885602 
L 303.268363 420.127327 
L 309.423506 404.101158 
L 315.578648 414.420005 
L 321.73379 412.299346 
L 327.888933 416.965927 
L 334.044075 411.508603 
L 340.199217 418.735264 
L 346.35436 410.275768 
L 352.509502 417.060108 
L 358.664644 414.46133 
L 364.819787 411.313132 
L 370.974929 410.875867 
L 377.130071 418.632528 
L 383.285213 401.061425 
L 389.440356 422.710658 
L 395.595498 398.959509 
L 401.75064 429.538256 
L 407.905783 392.843842 
L 414.060925 437.409329 
L 420.216067 384.828316 
L 426.37121 440.314421 
L 432.526352 383.285966 
L 438.681494 447.305512 
L 444.836637 382.151582 
L 450.991779 441.270971 
L 457.146921 388.401569 
L 463.302064 435.562941 
L 469.457206 395.803098 
L 475.612348 426.604682 
L 481.767491 404.217003 
L 487.922633 419.387231 
L 494.077775 403.920468 
L 500.232918 424.734751 
L 506.38806 398.749275 
L 512.543202 426.03517 
L 518.698345 401.981412 
L 524.853487 427.934591 
L 531.008629 405.839476 
L 537.163772 418.584232 
L 543.318914 413.581122 
L 549.474056 411.870945 
L 555.629199 415.032004 
L 561.784341 408.059304 
L 567.939483 418.999724 
L 574.094626 408.170113 
L 580.249768 414.707974 
L 586.40491 409.774741 
L 592.560053 414.78441 
L 598.715195 409.155589 
L 604.870337 422.891562 
L 611.02548 399.885762 
L 617.180622 423.475162 
L 623.335764 406.473711 
L 629.490907 420.350918 
L 635.646049 405.645651 
L 641.801191 420.735845 
L 647.956334 403.751715 
L 654.111476 416.297757 
L 660.266618 405.165424 
L 666.421761 425.978535 
L 672.576903 397.343563 
L 678.732045 423.120127 
" clip-path="url(#p1752d671d1)" style="fill: none; stroke: #9467bd; stroke-width: 1.5; stroke-linecap: square"/>
   </g>
   <g id="line2d_30">
    <path d="M 69.372955 409.332742 
L 75.528097 412.093181 
L 81.683239 405.607238 
L 87.838382 416.090715 
L 93.993524 408.738753 
L 100.148666 412.872747 
L 106.303809 412.378976 
L 112.458951 413.361984 
L 118.614093 413.89668 
L 124.769236 405.618822 
L 130.924378 423.528351 
L 137.07952 396.112694 
L 143.234663 427.70358 
L 149.389805 403.792541 
L 155.544947 420.558381 
L 161.70009 413.771305 
L 167.855232 409.53689 
L 174.010374 412.721038 
L 180.165517 415.511945 
L 186.320659 409.826074 
L 192.475801 408.109342 
L 198.630944 419.773411 
L 204.786086 410.346209 
L 210.941228 409.499874 
L 217.096371 408.401454 
L 223.251513 417.421221 
L 229.406655 404.326253 
L 235.561798 416.086718 
L 241.71694 412.753352 
L 247.872082 415.046742 
L 254.027225 405.813478 
L 260.182367 413.210296 
L 266.337509 410.351151 
L 272.492652 419.044254 
L 278.647794 398.758106 
L 284.802936 429.226648 
L 290.958079 397.966198 
L 297.113221 426.487079 
L 303.268363 393.065841 
L 309.423506 429.318478 
L 315.578648 394.841512 
L 321.73379 429.122665 
L 327.888933 396.53899 
L 334.044075 427.04163 
L 340.199217 409.025001 
L 346.35436 418.012037 
L 352.509502 406.849727 
L 358.664644 423.642353 
L 364.819787 400.633056 
L 370.974929 426.031402 
L 377.130071 392.707441 
L 383.285213 426.769216 
L 389.440356 400.952024 
L 395.595498 425.495552 
L 401.75064 400.641096 
L 407.905783 427.02294 
L 414.060925 398.026039 
L 420.216067 430.877914 
L 426.37121 399.531677 
L 432.526352 423.787828 
L 438.681494 399.504105 
L 444.836637 429.585999 
L 450.991779 392.630991 
L 457.146921 435.760597 
L 463.302064 389.053275 
L 469.457206 433.467045 
L 475.612348 392.506497 
L 481.767491 431.492245 
L 487.922633 396.433707 
L 494.077775 430.198382 
L 500.232918 396.47169 
L 506.38806 432.384936 
L 512.543202 394.167521 
L 518.698345 437.932386 
L 524.853487 389.891356 
L 531.008629 437.09824 
L 537.163772 389.775316 
L 543.318914 437.038868 
L 549.474056 389.048513 
L 555.629199 434.850345 
L 561.784341 387.45091 
L 567.939483 441.014224 
L 574.094626 389.688888 
L 580.249768 440.362541 
L 586.40491 387.445225 
L 592.560053 439.815491 
L 598.715195 389.135832 
L 604.870337 441.943012 
L 611.02548 385.739064 
L 617.180622 439.364904 
L 623.335764 384.066541 
L 629.490907 444.025181 
L 635.646049 383.482515 
L 641.801191 446.102478 
L 647.956334 379.862275 
L 654.111476 449.406212 
L 660.266618 374.113798 
L 666.421761 458.945491 
L 672.576903 368.346395 
L 678.732045 456.273609 
" clip-path="url(#p1752d671d1)" style="fill: none; stroke: #8c564b; stroke-width: 1.5; stroke-linecap: square"/>
   </g>
   <g id="line2d_31">
    <path d="M 69.372955 410.153526 
L 75.528097 404.794029 
L 81.683239 419.629072 
L 87.838382 410.268733 
L 93.993524 415.954923 
L 100.148666 417.065464 
L 106.303809 409.098083 
L 112.458951 420.10824 
L 118.614093 402.027732 
L 124.769236 426.032113 
L 130.924378 400.277683 
L 137.07952 428.129999 
L 143.234663 390.676069 
L 149.389805 436.460588 
L 155.544947 381.966554 
L 161.70009 440.578806 
L 167.855232 383.309436 
L 174.010374 441.037103 
L 180.165517 383.208082 
L 186.320659 450.424642 
L 192.475801 376.540724 
L 198.630944 445.879254 
L 204.786086 380.156096 
L 210.941228 451.363817 
L 217.096371 374.685714 
L 223.251513 444.260859 
L 229.406655 376.534591 
L 235.561798 449.553759 
L 241.71694 372.436398 
L 247.872082 454.883298 
L 254.027225 377.844421 
L 260.182367 451.731545 
L 266.337509 367.786079 
L 272.492652 459.159511 
L 278.647794 367.662302 
L 284.802936 459.3878 
L 290.958079 358.749889 
L 297.113221 460.512692 
L 303.268363 356.352644 
L 309.423506 470.128121 
L 315.578648 354.514055 
L 321.73379 477.456549 
L 327.888933 342.408656 
L 334.044075 488.151219 
L 340.199217 336.809805 
L 346.35436 493.465076 
L 352.509502 334.753797 
L 358.664644 494.469536 
L 364.819787 333.826204 
L 370.974929 494.191515 
L 377.130071 333.863189 
L 383.285213 488.604603 
L 389.440356 341.70085 
L 395.595498 483.244945 
L 401.75064 337.667502 
L 407.905783 490.245376 
L 414.060925 338.495357 
L 420.216067 488.274456 
L 426.37121 332.792602 
L 432.526352 492.260087 
L 438.681494 335.725652 
L 444.836637 488.155272 
L 450.991779 342.139786 
L 457.146921 480.942558 
L 463.302064 343.242739 
L 469.457206 483.839593 
L 475.612348 345.389092 
L 481.767491 484.03408 
L 487.922633 339.64085 
L 494.077775 481.227029 
L 500.232918 347.187729 
L 506.38806 476.79627 
L 512.543202 357.48085 
L 518.698345 470.720841 
L 524.853487 355.242374 
L 531.008629 474.273815 
L 537.163772 355.35084 
L 543.318914 473.18714 
L 549.474056 351.468913 
L 555.629199 475.126225 
L 561.784341 359.762332 
L 567.939483 474.650954 
L 574.094626 353.640701 
L 580.249768 470.34613 
L 586.40491 366.601824 
L 592.560053 461.256599 
L 598.715195 366.709056 
L 604.870337 453.514416 
L 611.02548 373.880151 
L 617.180622 450.408741 
L 623.335764 374.857664 
L 629.490907 459.59552 
L 635.646049 363.13563 
L 641.801191 461.830971 
L 647.956334 361.951316 
L 654.111476 448.009419 
L 660.266618 386.255916 
L 666.421761 432.607391 
L 672.576903 394.392606 
L 678.732045 430.283115 
" clip-path="url(#p1752d671d1)" style="fill: none; stroke: #e377c2; stroke-width: 1.5; stroke-linecap: square"/>
   </g>
   <g id="line2d_32">
    <path d="M 69.372955 411.080956 
L 75.528097 416.472186 
L 81.683239 411.669718 
L 87.838382 412.835436 
L 93.993524 419.137316 
L 100.148666 403.665118 
L 106.303809 423.855504 
L 112.458951 406.551879 
L 118.614093 421.105498 
L 124.769236 399.648473 
L 130.924378 428.353929 
L 137.07952 396.034179 
L 143.234663 432.759275 
L 149.389805 390.013467 
L 155.544947 433.052102 
L 161.70009 385.31013 
L 167.855232 441.237433 
L 174.010374 381.896286 
L 180.165517 443.544769 
L 186.320659 377.052616 
L 192.475801 451.691811 
L 198.630944 371.133163 
L 204.786086 455.491771 
L 210.941228 370.605411 
L 217.096371 454.86118 
L 223.251513 369.956432 
L 229.406655 456.351193 
L 235.561798 368.618171 
L 241.71694 450.837869 
L 247.872082 371.014798 
L 254.027225 451.308142 
L 260.182367 376.371583 
L 266.337509 453.06194 
L 272.492652 368.912644 
L 278.647794 453.382425 
L 284.802936 366.500022 
L 290.958079 461.779969 
L 297.113221 364.985897 
L 303.268363 467.481453 
L 309.423506 359.943238 
L 315.578648 461.864459 
L 321.73379 365.85957 
L 327.888933 457.388083 
L 334.044075 369.219891 
L 340.199217 455.30731 
L 346.35436 375.171333 
L 352.509502 450.321717 
L 358.664644 387.61143 
L 364.819787 438.981958 
L 370.974929 393.448954 
L 377.130071 427.511876 
L 383.285213 395.182071 
L 389.440356 428.768429 
L 395.595498 390.91856 
L 401.75064 438.756279 
L 407.905783 380.015369 
L 414.060925 442.052663 
L 420.216067 384.741536 
L 426.37121 436.503873 
L 432.526352 393.807366 
L 438.681494 435.364416 
L 444.836637 392.934213 
L 450.991779 435.042481 
L 457.146921 395.067636 
L 463.302064 425.824092 
L 469.457206 401.060281 
L 475.612348 423.351882 
L 481.767491 404.792118 
L 487.922633 428.407639 
L 494.077775 396.337924 
L 500.232918 437.232454 
L 506.38806 388.882707 
L 512.543202 442.488092 
L 518.698345 375.313399 
L 524.853487 446.83886 
L 531.008629 378.571113 
L 537.163772 442.156341 
L 543.318914 387.103603 
L 549.474056 436.536299 
L 555.629199 388.493329 
L 561.784341 436.276649 
L 567.939483 384.415839 
L 574.094626 438.459735 
L 580.249768 386.210346 
L 586.40491 446.319292 
L 592.560053 383.400554 
L 598.715195 442.933275 
L 604.870337 382.526766 
L 611.02548 447.88116 
L 617.180622 368.204143 
L 623.335764 451.501496 
L 629.490907 371.901283 
L 635.646049 453.645034 
L 641.801191 373.050713 
L 647.956334 456.636265 
L 654.111476 368.888039 
L 660.266618 455.907282 
L 666.421761 374.951757 
L 672.576903 449.534523 
L 678.732045 376.930931 
" clip-path="url(#p1752d671d1)" style="fill: none; stroke: #7f7f7f; stroke-width: 1.5; stroke-linecap: square"/>
   </g>
   <g id="line2d_33">
    <path d="M 69.372955 418.611689 
L 75.528097 410.705147 
L 81.683239 416.805006 
L 87.838382 401.399199 
L 93.993524 422.187835 
L 100.148666 409.050192 
L 106.303809 414.821998 
L 112.458951 417.272594 
L 118.614093 404.186849 
L 124.769236 423.5559 
L 130.924378 402.660365 
L 137.07952 417.81601 
L 143.234663 413.226629 
L 149.389805 418.260644 
L 155.544947 409.936929 
L 161.70009 411.701704 
L 167.855232 420.279833 
L 174.010374 417.010431 
L 180.165517 410.651581 
L 186.320659 412.954914 
L 192.475801 408.029098 
L 198.630944 419.681449 
L 204.786086 407.819893 
L 210.941228 413.351593 
L 217.096371 420.04687 
L 223.251513 407.361846 
L 229.406655 417.705739 
L 235.561798 406.315333 
L 241.71694 421.583837 
L 247.872082 404.11451 
L 254.027225 431.785385 
L 260.182367 396.714053 
L 266.337509 427.289671 
L 272.492652 402.520139 
L 278.647794 423.07896 
L 284.802936 400.9516 
L 290.958079 426.271216 
L 297.113221 398.877083 
L 303.268363 430.853625 
L 309.423506 395.819487 
L 315.578648 427.550546 
L 321.73379 397.652308 
L 327.888933 430.557121 
L 334.044075 394.373814 
L 340.199217 428.574073 
L 346.35436 405.55308 
L 352.509502 415.597487 
L 358.664644 411.599876 
L 364.819787 412.517151 
L 370.974929 408.479053 
L 377.130071 422.905328 
L 383.285213 405.801122 
L 389.440356 421.203328 
L 395.595498 407.803627 
L 401.75064 411.018272 
L 407.905783 418.283954 
L 414.060925 409.80018 
L 420.216067 415.210933 
L 426.37121 415.487927 
L 432.526352 411.949742 
L 438.681494 412.604163 
L 444.836637 414.579474 
L 450.991779 411.635782 
L 457.146921 416.342345 
L 463.302064 415.619475 
L 469.457206 408.917689 
L 475.612348 409.823348 
L 481.767491 415.939859 
L 487.922633 408.98684 
L 494.077775 414.049554 
L 500.232918 416.920972 
L 506.38806 402.032034 
L 512.543202 422.98741 
L 518.698345 396.251321 
L 524.853487 432.55053 
L 531.008629 385.935227 
L 537.163772 436.767825 
L 543.318914 386.833416 
L 549.474056 438.057858 
L 555.629199 388.784759 
L 561.784341 432.198161 
L 567.939483 393.071872 
L 574.094626 440.720165 
L 580.249768 389.635122 
L 586.40491 436.954018 
L 592.560053 387.63003 
L 598.715195 438.436421 
L 604.870337 382.471935 
L 611.02548 451.255532 
L 617.180622 374.001448 
L 623.335764 459.187699 
L 629.490907 363.577803 
L 635.646049 462.641788 
L 641.801191 361.499017 
L 647.956334 467.831964 
L 654.111476 352.831766 
L 660.266618 468.793336 
L 666.421761 354.684552 
L 672.576903 471.676808 
L 678.732045 351.81599 
" clip-path="url(#p1752d671d1)" style="fill: none; stroke: #bcbd22; stroke-width: 1.5; stroke-linecap: square"/>
   </g>
   <g id="line2d_34">
    <path d="M 69.372955 413.75544 
L 75.528097 408.622491 
L 81.683239 410.544972 
L 87.838382 410.963322 
L 93.993524 417.824657 
L 100.148666 406.551466 
L 106.303809 424.515347 
L 112.458951 399.007646 
L 118.614093 425.007828 
L 124.769236 408.390938 
L 130.924378 422.144692 
L 137.07952 404.837881 
L 143.234663 422.216352 
L 149.389805 408.512139 
L 155.544947 415.752532 
L 161.70009 409.068181 
L 167.855232 417.555022 
L 174.010374 411.33886 
L 180.165517 410.258007 
L 186.320659 408.885492 
L 192.475801 418.907548 
L 198.630944 409.405546 
L 204.786086 414.445733 
L 210.941228 412.839682 
L 217.096371 413.56163 
L 223.251513 409.284987 
L 229.406655 424.273669 
L 235.561798 396.233012 
L 241.71694 429.310703 
L 247.872082 398.190909 
L 254.027225 428.007555 
L 260.182367 397.981992 
L 266.337509 434.856243 
L 272.492652 384.936159 
L 278.647794 440.734348 
L 284.802936 383.311864 
L 290.958079 438.677888 
L 297.113221 391.289099 
L 303.268363 432.633899 
L 309.423506 394.286005 
L 315.578648 428.127451 
L 321.73379 406.312231 
L 327.888933 419.926105 
L 334.044075 408.349195 
L 340.199217 415.740443 
L 346.35436 408.196416 
L 352.509502 420.502695 
L 358.664644 408.214807 
L 364.819787 418.07032 
L 370.974929 411.393133 
L 377.130071 411.039681 
L 383.285213 416.290935 
L 389.440356 421.301936 
L 395.595498 406.051385 
L 401.75064 423.985888 
L 407.905783 408.448269 
L 414.060925 422.393244 
L 420.216067 403.00195 
L 426.37121 417.462924 
L 432.526352 407.108243 
L 438.681494 421.181949 
L 444.836637 402.812089 
L 450.991779 424.881995 
L 457.146921 403.764442 
L 463.302064 426.741178 
L 469.457206 406.18047 
L 475.612348 421.233919 
L 481.767491 403.964565 
L 487.922633 422.26378 
L 494.077775 405.255922 
L 500.232918 424.406096 
L 506.38806 398.971903 
L 512.543202 432.191922 
L 518.698345 390.507603 
L 524.853487 439.382772 
L 531.008629 389.497538 
L 537.163772 442.271454 
L 543.318914 385.593731 
L 549.474056 436.299929 
L 555.629199 387.452598 
L 561.784341 434.428487 
L 567.939483 389.297697 
L 574.094626 441.002932 
L 580.249768 386.17233 
L 586.40491 442.820252 
L 592.560053 377.636801 
L 598.715195 453.040381 
L 604.870337 369.183312 
L 611.02548 453.043389 
L 617.180622 365.395629 
L 623.335764 462.098677 
L 629.490907 360.858461 
L 635.646049 455.752636 
L 641.801191 372.582597 
L 647.956334 459.462404 
L 654.111476 373.977583 
L 660.266618 448.977978 
L 666.421761 384.474706 
L 672.576903 442.868493 
L 678.732045 381.200723 
" clip-path="url(#p1752d671d1)" style="fill: none; stroke: #17becf; stroke-width: 1.5; stroke-linecap: square"/>
   </g>
   <g id="line2d_35">
    <path d="M 69.372955 410.148103 
L 75.528097 413.969106 
L 81.683239 410.969619 
L 87.838382 409.696534 
L 93.993524 419.992053 
L 100.148666 408.583193 
L 106.303809 420.3789 
L 112.458951 402.101598 
L 118.614093 420.094998 
L 124.769236 403.91796 
L 130.924378 417.133858 
L 137.07952 413.467512 
L 143.234663 405.628202 
L 149.389805 414.049759 
L 155.544947 408.813159 
L 161.70009 409.819238 
L 167.855232 422.717418 
L 174.010374 405.240959 
L 180.165517 423.570073 
L 186.320659 399.350035 
L 192.475801 430.734134 
L 198.630944 392.040333 
L 204.786086 428.255124 
L 210.941228 394.77124 
L 217.096371 429.91895 
L 223.251513 399.913422 
L 229.406655 429.348685 
L 235.561798 391.435737 
L 241.71694 431.250358 
L 247.872082 394.745048 
L 254.027225 432.78251 
L 260.182367 401.247052 
L 266.337509 428.92087 
L 272.492652 389.187371 
L 278.647794 441.828143 
L 284.802936 383.24326 
L 290.958079 438.520467 
L 297.113221 392.391797 
L 303.268363 432.698892 
L 309.423506 389.345993 
L 315.578648 436.441081 
L 321.73379 377.797316 
L 327.888933 454.787769 
L 334.044075 366.768573 
L 340.199217 459.76782 
L 346.35436 362.948316 
L 352.509502 461.10475 
L 358.664644 367.6976 
L 364.819787 457.214006 
L 370.974929 376.136578 
L 377.130071 447.261635 
L 383.285213 377.370294 
L 389.440356 445.884717 
L 395.595498 375.674093 
L 401.75064 448.676948 
L 407.905783 376.561828 
L 414.060925 452.838647 
L 420.216067 375.879044 
L 426.37121 445.159669 
L 432.526352 374.869711 
L 438.681494 451.930777 
L 444.836637 373.720816 
L 450.991779 455.774874 
L 457.146921 365.320362 
L 463.302064 457.826451 
L 469.457206 360.161291 
L 475.612348 469.228083 
L 481.767491 358.138121 
L 487.922633 466.763579 
L 494.077775 356.459772 
L 500.232918 470.249962 
L 506.38806 359.117729 
L 512.543202 463.155663 
L 518.698345 359.765836 
L 524.853487 469.777004 
L 531.008629 350.579488 
L 537.163772 470.526092 
L 543.318914 354.76846 
L 549.474056 470.747282 
L 555.629199 352.849844 
L 561.784341 476.472323 
L 567.939483 349.243856 
L 574.094626 485.297552 
L 580.249768 336.995864 
L 586.40491 495.156107 
L 592.560053 324.601997 
L 598.715195 502.570559 
L 604.870337 324.122997 
L 611.02548 504.253046 
L 617.180622 322.749342 
L 623.335764 497.352034 
L 629.490907 338.545763 
L 635.646049 482.128075 
L 641.801191 342.342648 
L 647.956334 488.375914 
L 654.111476 341.810043 
L 660.266618 477.248594 
L 666.421761 352.412458 
L 672.576903 478.08907 
L 678.732045 343.149487 
" clip-path="url(#p1752d671d1)" style="fill: none; stroke: #1f77b4; stroke-width: 1.5; stroke-linecap: square"/>
   </g>
   <g id="line2d_36">
    <path d="M 69.372955 409.527877 
L 75.528097 420.102517 
L 81.683239 404.859116 
L 87.838382 425.126432 
L 93.993524 396.259696 
L 100.148666 425.285961 
L 106.303809 398.400336 
L 112.458951 425.974801 
L 118.614093 392.740942 
L 124.769236 433.097946 
L 130.924378 397.518925 
L 137.07952 426.501116 
L 143.234663 390.900966 
L 149.389805 439.040129 
L 155.544947 388.25917 
L 161.70009 435.894428 
L 167.855232 390.161171 
L 174.010374 439.648678 
L 180.165517 381.652383 
L 186.320659 434.803478 
L 192.475801 390.241027 
L 198.630944 439.252455 
L 204.786086 392.848836 
L 210.941228 431.945582 
L 217.096371 389.428188 
L 223.251513 434.487952 
L 229.406655 391.359388 
L 235.561798 436.861123 
L 241.71694 393.392978 
L 247.872082 429.069082 
L 254.027225 393.073436 
L 260.182367 439.014791 
L 266.337509 380.393852 
L 272.492652 443.122343 
L 278.647794 377.055608 
L 284.802936 454.209295 
L 290.958079 377.151432 
L 297.113221 449.288588 
L 303.268363 374.515876 
L 309.423506 444.057636 
L 315.578648 378.924748 
L 321.73379 447.894224 
L 327.888933 382.093818 
L 334.044075 438.769936 
L 340.199217 390.96875 
L 346.35436 428.283684 
L 352.509502 398.703928 
L 358.664644 420.701711 
L 364.819787 402.390453 
L 370.974929 424.001148 
L 377.130071 403.936802 
L 383.285213 423.279378 
L 389.440356 400.826218 
L 395.595498 424.699396 
L 401.75064 403.539472 
L 407.905783 422.967926 
L 414.060925 402.551944 
L 420.216067 431.89383 
L 426.37121 392.091053 
L 432.526352 437.708353 
L 438.681494 392.793101 
L 444.836637 439.867786 
L 450.991779 393.223959 
L 457.146921 438.094806 
L 463.302064 390.609945 
L 469.457206 427.329103 
L 475.612348 400.635064 
L 481.767491 424.483771 
L 487.922633 399.734385 
L 494.077775 425.573234 
L 500.232918 400.57755 
L 506.38806 430.093587 
L 512.543202 389.876785 
L 518.698345 428.652909 
L 524.853487 403.98903 
L 531.008629 425.989547 
L 537.163772 400.979567 
L 543.318914 428.758441 
L 549.474056 395.033159 
L 555.629199 433.74944 
L 561.784341 383.333145 
L 567.939483 437.690144 
L 574.094626 387.28787 
L 580.249768 434.396832 
L 586.40491 386.968757 
L 592.560053 441.149347 
L 598.715195 387.988884 
L 604.870337 437.532741 
L 611.02548 384.820602 
L 617.180622 440.454686 
L 623.335764 391.759976 
L 629.490907 437.324097 
L 635.646049 388.812653 
L 641.801191 437.330942 
L 647.956334 380.53013 
L 654.111476 450.912135 
L 660.266618 372.880987 
L 666.421761 446.93497 
L 672.576903 369.717382 
L 678.732045 457.755536 
" clip-path="url(#p1752d671d1)" style="fill: none; stroke: #ff7f0e; stroke-width: 1.5; stroke-linecap: square"/>
   </g>
   <g id="line2d_37">
    <path d="M 69.372955 408.909676 
L 75.528097 414.623951 
L 81.683239 410.423181 
L 87.838382 415.814148 
L 93.993524 408.260478 
L 100.148666 427.817014 
L 106.303809 395.262459 
L 112.458951 430.064923 
L 118.614093 396.672338 
L 124.769236 420.888199 
L 130.924378 407.678712 
L 137.07952 419.788862 
L 143.234663 397.995332 
L 149.389805 431.206969 
L 155.544947 396.855202 
L 161.70009 429.576958 
L 167.855232 392.860907 
L 174.010374 432.136402 
L 180.165517 398.928324 
L 186.320659 429.061274 
L 192.475801 399.232359 
L 198.630944 426.917525 
L 204.786086 397.198071 
L 210.941228 426.948412 
L 217.096371 406.071027 
L 223.251513 415.464237 
L 229.406655 409.352047 
L 235.561798 410.886815 
L 241.71694 413.154559 
L 247.872082 408.22954 
L 254.027225 415.721467 
L 260.182367 404.672297 
L 266.337509 419.05345 
L 272.492652 407.180118 
L 278.647794 409.468251 
L 284.802936 412.774288 
L 290.958079 410.743229 
L 297.113221 420.255498 
L 303.268363 410.791767 
L 309.423506 413.862172 
L 315.578648 411.38699 
L 321.73379 416.934012 
L 327.888933 408.333502 
L 334.044075 411.080042 
L 340.199217 411.945515 
L 346.35436 418.506104 
L 352.509502 407.782434 
L 358.664644 421.310301 
L 364.819787 406.095095 
L 370.974929 421.415099 
L 377.130071 406.354019 
L 383.285213 424.559105 
L 389.440356 401.794723 
L 395.595498 426.309876 
L 401.75064 411.37382 
L 407.905783 406.16201 
L 414.060925 415.272853 
L 420.216067 412.086448 
L 426.37121 413.675071 
L 432.526352 416.900473 
L 438.681494 402.079998 
L 444.836637 416.085383 
L 450.991779 409.1186 
L 457.146921 412.580076 
L 463.302064 412.54872 
L 469.457206 418.694337 
L 475.612348 408.80861 
L 481.767491 416.49552 
L 487.922633 411.180195 
L 494.077775 415.541612 
L 500.232918 410.665607 
L 506.38806 415.499068 
L 512.543202 410.127229 
L 518.698345 419.999255 
L 524.853487 408.737828 
L 531.008629 422.294381 
L 537.163772 399.589156 
L 543.318914 434.763258 
L 549.474056 386.409483 
L 555.629199 433.82203 
L 561.784341 393.237545 
L 567.939483 443.126616 
L 574.094626 384.172067 
L 580.249768 441.925099 
L 586.40491 387.999168 
L 592.560053 439.921887 
L 598.715195 379.727943 
L 604.870337 443.42085 
L 611.02548 386.155513 
L 617.180622 446.142463 
L 623.335764 381.017546 
L 629.490907 445.683247 
L 635.646049 378.147846 
L 641.801191 449.854482 
L 647.956334 373.91474 
L 654.111476 444.097521 
L 660.266618 378.442383 
L 666.421761 447.589697 
L 672.576903 378.988545 
L 678.732045 448.291386 
" clip-path="url(#p1752d671d1)" style="fill: none; stroke: #2ca02c; stroke-width: 1.5; stroke-linecap: square"/>
   </g>
   <g id="line2d_38">
    <path d="M 69.372955 406.122649 
L 75.528097 422.251694 
L 81.683239 403.403054 
L 87.838382 422.227532 
L 93.993524 405.639198 
L 100.148666 425.748385 
L 106.303809 398.783193 
L 112.458951 427.301113 
L 118.614093 396.513638 
L 124.769236 431.481749 
L 130.924378 389.419124 
L 137.07952 439.963985 
L 143.234663 378.950502 
L 149.389805 453.954193 
L 155.544947 370.125307 
L 161.70009 453.78977 
L 167.855232 375.264915 
L 174.010374 448.856544 
L 180.165517 371.80697 
L 186.320659 462.995001 
L 192.475801 360.809623 
L 198.630944 475.110261 
L 204.786086 354.632304 
L 210.941228 464.617307 
L 217.096371 363.572917 
L 223.251513 467.011627 
L 229.406655 359.626411 
L 235.561798 457.849028 
L 241.71694 375.395531 
L 247.872082 454.693365 
L 254.027225 365.088953 
L 260.182367 453.236506 
L 266.337509 373.019367 
L 272.492652 457.828722 
L 278.647794 359.533745 
L 284.802936 459.856283 
L 290.958079 363.235817 
L 297.113221 465.886988 
L 303.268363 360.148896 
L 309.423506 466.337186 
L 315.578648 358.16254 
L 321.73379 461.807533 
L 327.888933 360.473908 
L 334.044075 469.720395 
L 340.199217 350.550961 
L 346.35436 474.020418 
L 352.509502 349.038851 
L 358.664644 470.868384 
L 364.819787 359.464233 
L 370.974929 466.518257 
L 377.130071 361.468453 
L 383.285213 470.709261 
L 389.440356 353.726335 
L 395.595498 461.955075 
L 401.75064 371.323434 
L 407.905783 454.644722 
L 414.060925 368.602676 
L 420.216067 456.737241 
L 426.37121 369.557845 
L 432.526352 461.533534 
L 438.681494 363.362745 
L 444.836637 465.53507 
L 450.991779 369.158135 
L 457.146921 451.848804 
L 463.302064 370.113304 
L 469.457206 455.515409 
L 475.612348 369.39588 
L 481.767491 452.097422 
L 487.922633 372.833015 
L 494.077775 449.348947 
L 500.232918 377.691628 
L 506.38806 442.840603 
L 512.543202 381.699825 
L 518.698345 443.353088 
L 524.853487 387.620392 
L 531.008629 437.056838 
L 537.163772 392.145033 
L 543.318914 436.273668 
L 549.474056 392.86116 
L 555.629199 437.28809 
L 561.784341 379.957398 
L 567.939483 440.496565 
L 574.094626 377.57549 
L 580.249768 453.207261 
L 586.40491 372.342223 
L 592.560053 458.72607 
L 598.715195 369.924794 
L 604.870337 459.625539 
L 611.02548 361.199462 
L 617.180622 466.240427 
L 623.335764 355.27689 
L 629.490907 468.117791 
L 635.646049 348.404395 
L 641.801191 483.415787 
L 647.956334 337.329757 
L 654.111476 483.871895 
L 660.266618 345.901864 
L 666.421761 475.863119 
L 672.576903 348.615201 
L 678.732045 478.142285 
" clip-path="url(#p1752d671d1)" style="fill: none; stroke: #d62728; stroke-width: 1.5; stroke-linecap: square"/>
   </g>
   <g id="line2d_39">
    <path d="M 69.372955 414.228737 
L 75.528097 414.51681 
L 81.683239 403.031798 
L 87.838382 422.80306 
L 93.993524 399.871789 
L 100.148666 429.164062 
L 106.303809 399.827119 
L 112.458951 421.63518 
L 118.614093 409.659843 
L 124.769236 417.856814 
L 130.924378 407.843206 
L 137.07952 417.544046 
L 143.234663 409.017789 
L 149.389805 415.219218 
L 155.544947 407.816638 
L 161.70009 415.050261 
L 167.855232 414.773743 
L 174.010374 412.21294 
L 180.165517 408.793308 
L 186.320659 413.426545 
L 192.475801 417.96263 
L 198.630944 406.453678 
L 204.786086 427.38347 
L 210.941228 398.264354 
L 217.096371 419.899093 
L 223.251513 409.771606 
L 229.406655 419.439841 
L 235.561798 403.308202 
L 241.71694 428.768183 
L 247.872082 399.628165 
L 254.027225 423.797571 
L 260.182367 404.604967 
L 266.337509 422.186865 
L 272.492652 400.641422 
L 278.647794 423.491553 
L 284.802936 401.267109 
L 290.958079 425.94185 
L 297.113221 398.39932 
L 303.268363 427.938649 
L 309.423506 396.0477 
L 315.578648 431.799408 
L 321.73379 394.776482 
L 327.888933 435.064319 
L 334.044075 390.914863 
L 340.199217 438.202274 
L 346.35436 392.140316 
L 352.509502 432.651331 
L 358.664644 392.326013 
L 364.819787 430.345829 
L 370.974929 397.235172 
L 377.130071 426.952367 
L 383.285213 396.657942 
L 389.440356 427.381105 
L 395.595498 401.795285 
L 401.75064 423.43834 
L 407.905783 400.926772 
L 414.060925 424.881818 
L 420.216067 409.39308 
L 426.37121 415.795553 
L 432.526352 401.095054 
L 438.681494 426.198489 
L 444.836637 402.583322 
L 450.991779 421.744554 
L 457.146921 402.829873 
L 463.302064 418.184575 
L 469.457206 412.7396 
L 475.612348 410.140471 
L 481.767491 413.309605 
L 487.922633 413.102825 
L 494.077775 411.365214 
L 500.232918 410.309495 
L 506.38806 412.000664 
L 512.543202 418.459086 
L 518.698345 404.061985 
L 524.853487 422.037222 
L 531.008629 403.50571 
L 537.163772 422.035916 
L 543.318914 404.409254 
L 549.474056 416.609349 
L 555.629199 409.566808 
L 561.784341 420.798021 
L 567.939483 406.63095 
L 574.094626 418.484065 
L 580.249768 402.382867 
L 586.40491 421.015964 
L 592.560053 408.261042 
L 598.715195 407.526989 
L 604.870337 417.239934 
L 611.02548 403.440272 
L 617.180622 423.010849 
L 623.335764 400.669977 
L 629.490907 421.773007 
L 635.646049 399.138488 
L 641.801191 422.423355 
L 647.956334 399.887282 
L 654.111476 427.224482 
L 660.266618 400.925158 
L 666.421761 423.567466 
L 672.576903 398.496779 
L 678.732045 428.241476 
" clip-path="url(#p1752d671d1)" style="fill: none; stroke: #9467bd; stroke-width: 1.5; stroke-linecap: square"/>
   </g>
   <g id="line2d_40">
    <path d="M 69.372955 406.589582 
L 75.528097 413.373959 
L 81.683239 416.16907 
L 87.838382 413.052881 
L 93.993524 413.352385 
L 100.148666 411.241313 
L 106.303809 416.717546 
L 112.458951 403.652049 
L 118.614093 420.470733 
L 124.769236 405.207371 
L 130.924378 426.436766 
L 137.07952 404.721737 
L 143.234663 419.979539 
L 149.389805 414.48185 
L 155.544947 407.260875 
L 161.70009 419.216285 
L 167.855232 393.506945 
L 174.010374 422.997944 
L 180.165517 403.573417 
L 186.320659 422.694206 
L 192.475801 399.117489 
L 198.630944 419.832856 
L 204.786086 412.62861 
L 210.941228 420.432738 
L 217.096371 407.92026 
L 223.251513 415.560891 
L 229.406655 408.267476 
L 235.561798 413.244212 
L 241.71694 417.444733 
L 247.872082 417.758887 
L 254.027225 404.609102 
L 260.182367 424.577569 
L 266.337509 409.422393 
L 272.492652 415.828619 
L 278.647794 406.801564 
L 284.802936 419.529629 
L 290.958079 408.159433 
L 297.113221 418.322614 
L 303.268363 409.013565 
L 309.423506 422.275275 
L 315.578648 406.452363 
L 321.73379 417.277309 
L 327.888933 407.25951 
L 334.044075 417.898511 
L 340.199217 411.96328 
L 346.35436 414.6083 
L 352.509502 420.032915 
L 358.664644 405.082982 
L 364.819787 414.976636 
L 370.974929 416.822065 
L 377.130071 411.384923 
L 383.285213 413.121857 
L 389.440356 407.649528 
L 395.595498 420.000617 
L 401.75064 408.636317 
L 407.905783 425.163215 
L 414.060925 400.256122 
L 420.216067 417.323769 
L 426.37121 407.392271 
L 432.526352 418.53544 
L 438.681494 405.999746 
L 444.836637 419.882727 
L 450.991779 409.242552 
L 457.146921 413.265896 
L 463.302064 411.658791 
L 469.457206 414.107604 
L 475.612348 415.674191 
L 481.767491 404.892314 
L 487.922633 418.257386 
L 494.077775 409.816129 
L 500.232918 411.97032 
L 506.38806 415.879372 
L 512.543202 413.120506 
L 518.698345 415.789194 
L 524.853487 417.210256 
L 531.008629 406.720544 
L 537.163772 426.521841 
L 543.318914 404.283348 
L 549.474056 429.947515 
L 555.629199 396.238152 
L 561.784341 430.207332 
L 567.939483 396.951378 
L 574.094626 433.102207 
L 580.249768 397.47568 
L 586.40491 426.484124 
L 592.560053 401.579812 
L 598.715195 422.978521 
L 604.870337 406.438859 
L 611.02548 418.66658 
L 617.180622 401.900855 
L 623.335764 421.566432 
L 629.490907 405.938902 
L 635.646049 418.858658 
L 641.801191 407.952161 
L 647.956334 417.853593 
L 654.111476 409.300729 
L 660.266618 417.201427 
L 666.421761 407.778531 
L 672.576903 422.076023 
L 678.732045 407.869598 
" clip-path="url(#p1752d671d1)" style="fill: none; stroke: #8c564b; stroke-width: 1.5; stroke-linecap: square"/>
   </g>
   <g id="line2d_41">
    <path d="M 69.372955 416.51189 
L 75.528097 415.796891 
L 81.683239 414.963165 
L 87.838382 410.229621 
L 93.993524 419.218244 
L 100.148666 404.542426 
L 106.303809 421.154818 
L 112.458951 412.64302 
L 118.614093 410.546015 
L 124.769236 412.012905 
L 130.924378 417.843687 
L 137.07952 406.294765 
L 143.234663 423.006354 
L 149.389805 402.436307 
L 155.544947 428.514679 
L 161.70009 404.573887 
L 167.855232 422.811764 
L 174.010374 403.526189 
L 180.165517 423.919564 
L 186.320659 406.706027 
L 192.475801 420.7487 
L 198.630944 403.999947 
L 204.786086 422.01921 
L 210.941228 403.080413 
L 217.096371 425.467011 
L 223.251513 395.632426 
L 229.406655 434.961392 
L 235.561798 388.904635 
L 241.71694 432.153664 
L 247.872082 391.739264 
L 254.027225 434.917321 
L 260.182367 393.056621 
L 266.337509 428.591277 
L 272.492652 403.000555 
L 278.647794 426.760044 
L 284.802936 400.685216 
L 290.958079 420.14759 
L 297.113221 404.154328 
L 303.268363 425.597866 
L 309.423506 401.494573 
L 315.578648 426.82724 
L 321.73379 401.880617 
L 327.888933 419.998578 
L 334.044075 411.386083 
L 340.199217 407.945963 
L 346.35436 414.542469 
L 352.509502 406.883934 
L 358.664644 420.825716 
L 364.819787 405.618232 
L 370.974929 426.014753 
L 377.130071 401.944491 
L 383.285213 421.896891 
L 389.440356 398.69972 
L 395.595498 431.615009 
L 401.75064 395.700639 
L 407.905783 430.748802 
L 414.060925 400.733096 
L 420.216067 422.71323 
L 426.37121 406.052054 
L 432.526352 420.575682 
L 438.681494 407.089525 
L 444.836637 421.940014 
L 450.991779 403.926094 
L 457.146921 422.783405 
L 463.302064 404.55793 
L 469.457206 424.225436 
L 475.612348 400.320092 
L 481.767491 418.830645 
L 487.922633 406.4413 
L 494.077775 415.368226 
L 500.232918 416.09116 
L 506.38806 409.108505 
L 512.543202 421.166642 
L 518.698345 410.643353 
L 524.853487 418.18413 
L 531.008629 402.833698 
L 537.163772 419.162256 
L 543.318914 405.692703 
L 549.474056 426.342837 
L 555.629199 400.2885 
L 561.784341 424.329107 
L 567.939483 400.79868 
L 574.094626 432.494854 
L 580.249768 396.943024 
L 586.40491 429.153712 
L 592.560053 394.515259 
L 598.715195 440.203042 
L 604.870337 386.290173 
L 611.02548 438.968987 
L 617.180622 383.432979 
L 623.335764 439.602869 
L 629.490907 383.878954 
L 635.646049 445.193457 
L 641.801191 388.359723 
L 647.956334 439.067319 
L 654.111476 382.71991 
L 660.266618 437.48287 
L 666.421761 385.481437 
L 672.576903 438.620018 
L 678.732045 385.682418 
" clip-path="url(#p1752d671d1)" style="fill: none; stroke: #e377c2; stroke-width: 1.5; stroke-linecap: square"/>
   </g>
   <g id="line2d_42">
    <path d="M 69.372955 413.145742 
L 75.528097 413.217814 
L 81.683239 405.870438 
L 87.838382 423.778689 
L 93.993524 395.529103 
L 100.148666 431.610731 
L 106.303809 388.867118 
L 112.458951 442.659366 
L 118.614093 380.808979 
L 124.769236 448.007985 
L 130.924378 383.552679 
L 137.07952 441.401234 
L 143.234663 380.354292 
L 149.389805 448.900093 
L 155.544947 382.999233 
L 161.70009 443.209787 
L 167.855232 382.981402 
L 174.010374 440.638927 
L 180.165517 381.35873 
L 186.320659 444.719152 
L 192.475801 373.6152 
L 198.630944 451.31566 
L 204.786086 375.922835 
L 210.941228 456.431625 
L 217.096371 370.468134 
L 223.251513 456.729763 
L 229.406655 365.224584 
L 235.561798 458.742848 
L 241.71694 371.863893 
L 247.872082 453.277166 
L 254.027225 369.844922 
L 260.182367 449.813658 
L 266.337509 372.435081 
L 272.492652 450.325834 
L 278.647794 375.26881 
L 284.802936 448.998556 
L 290.958079 371.786326 
L 297.113221 459.440766 
L 303.268363 367.809913 
L 309.423506 461.151812 
L 315.578648 363.152591 
L 321.73379 457.710267 
L 327.888933 370.541391 
L 334.044075 464.962119 
L 340.199217 362.542435 
L 346.35436 459.601288 
L 352.509502 364.062269 
L 358.664644 460.043855 
L 364.819787 366.925998 
L 370.974929 464.083753 
L 377.130071 359.670123 
L 383.285213 469.541157 
L 389.440356 347.464432 
L 395.595498 476.066175 
L 401.75064 352.119464 
L 407.905783 476.190469 
L 414.060925 350.022997 
L 420.216067 476.783118 
L 426.37121 344.53826 
L 432.526352 480.545532 
L 438.681494 348.250653 
L 444.836637 469.94242 
L 450.991779 355.695807 
L 457.146921 467.032785 
L 463.302064 361.264375 
L 469.457206 463.104881 
L 475.612348 361.474674 
L 481.767491 472.004291 
L 487.922633 345.683977 
L 494.077775 474.934546 
L 500.232918 352.509248 
L 506.38806 477.785719 
L 512.543202 346.646434 
L 518.698345 478.840598 
L 524.853487 345.55877 
L 531.008629 479.50415 
L 537.163772 344.286337 
L 543.318914 475.698681 
L 549.474056 347.841647 
L 555.629199 482.240559 
L 561.784341 338.087141 
L 567.939483 481.116176 
L 574.094626 331.975185 
L 580.249768 498.405608 
L 586.40491 326.449847 
L 592.560053 507.807344 
L 598.715195 315.793456 
L 604.870337 512.260971 
L 611.02548 305.798636 
L 617.180622 523.171364 
L 623.335764 309.496958 
L 629.490907 518.246353 
L 635.646049 315.579725 
L 641.801191 507.220605 
L 647.956334 326.967778 
L 654.111476 498.754765 
L 660.266618 335.485091 
L 666.421761 491.647746 
L 672.576903 327.544396 
L 678.732045 496.834839 
" clip-path="url(#p1752d671d1)" style="fill: none; stroke: #7f7f7f; stroke-width: 1.5; stroke-linecap: square"/>
   </g>
   <g id="line2d_43">
    <path d="M 69.372955 414.388702 
L 75.528097 411.575098 
L 81.683239 414.189665 
L 87.838382 409.736736 
L 93.993524 421.628172 
L 100.148666 401.813229 
L 106.303809 434.960384 
L 112.458951 393.424357 
L 118.614093 434.38774 
L 124.769236 388.888838 
L 130.924378 436.857267 
L 137.07952 394.664155 
L 143.234663 435.15657 
L 149.389805 389.877629 
L 155.544947 436.279722 
L 161.70009 391.899754 
L 167.855232 435.882256 
L 174.010374 387.140205 
L 180.165517 440.790855 
L 186.320659 385.402987 
L 192.475801 431.659863 
L 198.630944 399.934831 
L 204.786086 433.391252 
L 210.941228 389.277694 
L 217.096371 439.304216 
L 223.251513 387.82029 
L 229.406655 441.176162 
L 235.561798 385.712034 
L 241.71694 433.661432 
L 247.872082 388.932548 
L 254.027225 433.41842 
L 260.182367 398.146125 
L 266.337509 432.346519 
L 272.492652 404.97174 
L 278.647794 424.138845 
L 284.802936 397.830066 
L 290.958079 425.917129 
L 297.113221 400.816243 
L 303.268363 425.111554 
L 309.423506 403.511774 
L 315.578648 421.497843 
L 321.73379 401.242725 
L 327.888933 431.129202 
L 334.044075 393.496704 
L 340.199217 428.570343 
L 346.35436 398.945855 
L 352.509502 424.058278 
L 358.664644 390.397468 
L 364.819787 435.862092 
L 370.974929 388.385076 
L 377.130071 440.437092 
L 383.285213 384.667586 
L 389.440356 439.308791 
L 395.595498 385.740926 
L 401.75064 444.220127 
L 407.905783 380.783008 
L 414.060925 439.141797 
L 420.216067 384.881633 
L 426.37121 437.065911 
L 432.526352 389.730135 
L 438.681494 433.075045 
L 444.836637 391.633274 
L 450.991779 438.049629 
L 457.146921 386.499958 
L 463.302064 443.347875 
L 469.457206 385.048979 
L 475.612348 440.023036 
L 481.767491 384.61259 
L 487.922633 446.034037 
L 494.077775 375.541485 
L 500.232918 447.983061 
L 506.38806 380.704332 
L 512.543202 451.350958 
L 518.698345 375.072625 
L 524.853487 452.568297 
L 531.008629 372.811806 
L 537.163772 454.494181 
L 543.318914 379.461173 
L 549.474056 447.94684 
L 555.629199 379.126639 
L 561.784341 444.148587 
L 567.939483 384.512405 
L 574.094626 434.537005 
L 580.249768 399.030889 
L 586.40491 421.504644 
L 592.560053 405.240075 
L 598.715195 417.121563 
L 604.870337 408.393355 
L 611.02548 412.83614 
L 617.180622 414.56789 
L 623.335764 415.71232 
L 629.490907 404.381077 
L 635.646049 421.915434 
L 641.801191 403.026249 
L 647.956334 417.818292 
L 654.111476 412.192338 
L 660.266618 411.23724 
L 666.421761 416.98579 
L 672.576903 409.386295 
L 678.732045 416.159044 
" clip-path="url(#p1752d671d1)" style="fill: none; stroke: #bcbd22; stroke-width: 1.5; stroke-linecap: square"/>
   </g>
   <g id="line2d_44">
    <path d="M 69.372955 416.963497 
L 75.528097 412.023576 
L 81.683239 408.350587 
L 87.838382 413.90346 
L 93.993524 412.18746 
L 100.148666 412.667018 
L 106.303809 414.360456 
L 112.458951 405.991424 
L 118.614093 420.656379 
L 124.769236 404.243719 
L 130.924378 416.959594 
L 137.07952 412.021553 
L 143.234663 407.512649 
L 149.389805 424.513836 
L 155.544947 394.733852 
L 161.70009 432.610789 
L 167.855232 394.208253 
L 174.010374 439.272172 
L 180.165517 388.404542 
L 186.320659 441.637837 
L 192.475801 386.656976 
L 198.630944 439.735899 
L 204.786086 382.228611 
L 210.941228 442.769504 
L 217.096371 381.823935 
L 223.251513 448.443735 
L 229.406655 380.955469 
L 235.561798 437.608482 
L 241.71694 391.202136 
L 247.872082 427.938124 
L 254.027225 398.882384 
L 260.182367 426.945983 
L 266.337509 394.563303 
L 272.492652 426.131049 
L 278.647794 400.154673 
L 284.802936 427.25292 
L 290.958079 398.81083 
L 297.113221 425.66016 
L 303.268363 396.573214 
L 309.423506 429.247301 
L 315.578648 394.087672 
L 321.73379 425.124763 
L 327.888933 399.17092 
L 334.044075 425.406441 
L 340.199217 406.573336 
L 346.35436 429.902405 
L 352.509502 394.364704 
L 358.664644 431.856365 
L 364.819787 396.062928 
L 370.974929 428.789906 
L 377.130071 397.291973 
L 383.285213 423.985139 
L 389.440356 401.504266 
L 395.595498 427.353755 
L 401.75064 394.479839 
L 407.905783 432.235812 
L 414.060925 391.472603 
L 420.216067 436.295566 
L 426.37121 392.169818 
L 432.526352 433.327443 
L 438.681494 392.4583 
L 444.836637 431.438999 
L 450.991779 395.484967 
L 457.146921 437.778507 
L 463.302064 389.80916 
L 469.457206 432.818424 
L 475.612348 394.221722 
L 481.767491 432.61222 
L 487.922633 389.236699 
L 494.077775 439.479991 
L 500.232918 392.596402 
L 506.38806 433.890776 
L 512.543202 393.904741 
L 518.698345 435.840176 
L 524.853487 390.706637 
L 531.008629 433.143436 
L 537.163772 392.731744 
L 543.318914 431.864508 
L 549.474056 386.64007 
L 555.629199 440.58408 
L 561.784341 384.127956 
L 567.939483 443.768816 
L 574.094626 385.491305 
L 580.249768 442.711558 
L 586.40491 385.062061 
L 592.560053 439.321914 
L 598.715195 377.016535 
L 604.870337 451.716614 
L 611.02548 375.80575 
L 617.180622 450.287125 
L 623.335764 373.949966 
L 629.490907 450.821908 
L 635.646049 369.823096 
L 641.801191 465.826345 
L 647.956334 369.663519 
L 654.111476 458.179328 
L 660.266618 363.221039 
L 666.421761 468.947733 
L 672.576903 369.052122 
L 678.732045 454.475767 
" clip-path="url(#p1752d671d1)" style="fill: none; stroke: #17becf; stroke-width: 1.5; stroke-linecap: square"/>
   </g>
   <g id="patch_9">
    <path d="M 38.905 534.04 
L 38.905 294.93 
" style="fill: none; stroke: #000000; stroke-width: 0.8; stroke-linejoin: miter; stroke-linecap: square"/>
   </g>
   <g id="patch_10">
    <path d="M 709.2 534.04 
L 709.2 294.93 
" style="fill: none; stroke: #000000; stroke-width: 0.8; stroke-linejoin: miter; stroke-linecap: square"/>
   </g>
   <g id="patch_11">
    <path d="M 38.905 534.04 
L 709.2 534.04 
" style="fill: none; stroke: #000000; stroke-width: 0.8; stroke-linejoin: miter; stroke-linecap: square"/>
   </g>
   <g id="patch_12">
    <path d="M 38.905 294.93 
L 709.2 294.93 
" style="fill: none; stroke: #000000; stroke-width: 0.8; stroke-linejoin: miter; stroke-linecap: square"/>
   </g>
   <g id="text_20">
    <!-- Five Realizations of AR(1) Process with ϕ=-1 -->
    <g transform="translate(241.62875 288.93) scale(0.12 -0.12)">
     <defs>
      <path id="DejaVuSans-46" d="M 628 4666 
L 3309 4666 
L 3309 4134 
L 1259 4134 
L 1259 2759 
L 3109 2759 
L 3109 2228 
L 1259 2228 
L 1259 0 
L 628 0 
L 628 4666 
z
" transform="scale(0.015625)"/>
      <path id="DejaVuSans-76" d="M 191 3500 
L 800 3500 
L 1894 563 
L 2988 3500 
L 3597 3500 
L 2284 0 
L 1503 0 
L 191 3500 
z
" transform="scale(0.015625)"/>
     </defs>
     <use xlink:href="#DejaVuSans-46"/>
     <use xlink:href="#DejaVuSans-69" x="50.269531"/>
     <use xlink:href="#DejaVuSans-76" x="78.052734"/>
     <use xlink:href="#DejaVuSans-65" x="137.232422"/>
     <use xlink:href="#DejaVuSans-20" x="198.755859"/>
     <use xlink:href="#DejaVuSans-52" x="230.542969"/>
     <use xlink:href="#DejaVuSans-65" x="295.525391"/>
     <use xlink:href="#DejaVuSans-61" x="357.048828"/>
     <use xlink:href="#DejaVuSans-6c" x="418.328125"/>
     <use xlink:href="#DejaVuSans-69" x="446.111328"/>
     <use xlink:href="#DejaVuSans-7a" x="473.894531"/>
     <use xlink:href="#DejaVuSans-61" x="526.384766"/>
     <use xlink:href="#DejaVuSans-74" x="587.664062"/>
     <use xlink:href="#DejaVuSans-69" x="626.873047"/>
     <use xlink:href="#DejaVuSans-6f" x="654.65625"/>
     <use xlink:href="#DejaVuSans-6e" x="715.837891"/>
     <use xlink:href="#DejaVuSans-73" x="779.216797"/>
     <use xlink:href="#DejaVuSans-20" x="831.316406"/>
     <use xlink:href="#DejaVuSans-6f" x="863.103516"/>
     <use xlink:href="#DejaVuSans-66" x="924.285156"/>
     <use xlink:href="#DejaVuSans-20" x="959.490234"/>
     <use xlink:href="#DejaVuSans-41" x="991.277344"/>
     <use xlink:href="#DejaVuSans-52" x="1059.685547"/>
     <use xlink:href="#DejaVuSans-28" x="1129.167969"/>
     <use xlink:href="#DejaVuSans-31" x="1168.181641"/>
     <use xlink:href="#DejaVuSans-29" x="1231.804688"/>
     <use xlink:href="#DejaVuSans-20" x="1270.818359"/>
     <use xlink:href="#DejaVuSans-50" x="1302.605469"/>
     <use xlink:href="#DejaVuSans-72" x="1361.158203"/>
     <use xlink:href="#DejaVuSans-6f" x="1400.021484"/>
     <use xlink:href="#DejaVuSans-63" x="1461.203125"/>
     <use xlink:href="#DejaVuSans-65" x="1516.183594"/>
     <use xlink:href="#DejaVuSans-73" x="1577.707031"/>
     <use xlink:href="#DejaVuSans-73" x="1629.806641"/>
     <use xlink:href="#DejaVuSans-20" x="1681.90625"/>
     <use xlink:href="#DejaVuSans-77" x="1713.693359"/>
     <use xlink:href="#DejaVuSans-69" x="1795.480469"/>
     <use xlink:href="#DejaVuSans-74" x="1823.263672"/>
     <use xlink:href="#DejaVuSans-68" x="1862.472656"/>
     <use xlink:href="#DejaVuSans-20" x="1925.851562"/>
     <use xlink:href="#DejaVuSans-3d5" x="1957.638672"/>
     <use xlink:href="#DejaVuSans-3d" x="2023.605469"/>
     <use xlink:href="#DejaVuSans-2d" x="2107.394531"/>
     <use xlink:href="#DejaVuSans-31" x="2143.478516"/>
    </g>
   </g>
  </g>
 </g>
 <defs>
  <clipPath id="p0eb79b0e6a">
   <rect x="38.905" y="26.16" width="670.295" height="239.11"/>
  </clipPath>
  <clipPath id="p1752d671d1">
   <rect x="38.905" y="294.93" width="670.295" height="239.11"/>
  </clipPath>
 </defs>
</svg>
