<?xml version="1.0" encoding="utf-8" standalone="no"?>
<!DOCTYPE svg PUBLIC "-//W3C//DTD SVG 1.1//EN"
  "http://www.w3.org/Graphics/SVG/1.1/DTD/svg11.dtd">
<svg xmlns:xlink="http://www.w3.org/1999/xlink" width="720pt" height="576pt" viewBox="0 0 720 576" xmlns="http://www.w3.org/2000/svg" version="1.1">
 <metadata>
  <rdf:RDF xmlns:dc="http://purl.org/dc/elements/1.1/" xmlns:cc="http://creativecommons.org/ns#" xmlns:rdf="http://www.w3.org/1999/02/22-rdf-syntax-ns#">
   <cc:Work>
    <dc:type rdf:resource="http://purl.org/dc/dcmitype/StillImage"/>
    <dc:date>2024-02-17T10:58:49.097343</dc:date>
    <dc:format>image/svg+xml</dc:format>
    <dc:creator>
     <cc:Agent>
      <dc:title>Matplotlib v3.8.2, https://matplotlib.org/</dc:title>
     </cc:Agent>
    </dc:creator>
   </cc:Work>
  </rdf:RDF>
 </metadata>
 <defs>
  <style type="text/css">*{stroke-linejoin: round; stroke-linecap: butt}</style>
 </defs>
 <g id="figure_1">
  <g id="patch_1">
   <path d="M 0 576 
L 720 576 
L 720 0 
L 0 0 
z
" style="fill: #ffffff"/>
  </g>
  <g id="axes_1">
   <g id="patch_2">
    <path d="M 58.075 265.27 
L 709.2 265.27 
L 709.2 26.16 
L 58.075 26.16 
z
" style="fill: #ffffff"/>
   </g>
   <g id="matplotlib.axis_1">
    <g id="xtick_1">
     <g id="line2d_1">
      <defs>
       <path id="m3b6ecbd51b" d="M 0 0 
L 0 3.5 
" style="stroke: #000000; stroke-width: 0.8"/>
      </defs>
      <g>
       <use xlink:href="#m3b6ecbd51b" x="87.671591" y="265.27" style="stroke: #000000; stroke-width: 0.8"/>
      </g>
     </g>
    </g>
    <g id="xtick_2">
     <g id="line2d_2">
      <g>
       <use xlink:href="#m3b6ecbd51b" x="207.253776" y="265.27" style="stroke: #000000; stroke-width: 0.8"/>
      </g>
     </g>
    </g>
    <g id="xtick_3">
     <g id="line2d_3">
      <g>
       <use xlink:href="#m3b6ecbd51b" x="326.835962" y="265.27" style="stroke: #000000; stroke-width: 0.8"/>
      </g>
     </g>
    </g>
    <g id="xtick_4">
     <g id="line2d_4">
      <g>
       <use xlink:href="#m3b6ecbd51b" x="446.418147" y="265.27" style="stroke: #000000; stroke-width: 0.8"/>
      </g>
     </g>
    </g>
    <g id="xtick_5">
     <g id="line2d_5">
      <g>
       <use xlink:href="#m3b6ecbd51b" x="566.000333" y="265.27" style="stroke: #000000; stroke-width: 0.8"/>
      </g>
     </g>
    </g>
    <g id="xtick_6">
     <g id="line2d_6">
      <g>
       <use xlink:href="#m3b6ecbd51b" x="685.582518" y="265.27" style="stroke: #000000; stroke-width: 0.8"/>
      </g>
     </g>
    </g>
   </g>
   <g id="matplotlib.axis_2">
    <g id="ytick_1">
     <g id="line2d_7">
      <defs>
       <path id="m325df03368" d="M 0 0 
L -3.5 0 
" style="stroke: #000000; stroke-width: 0.8"/>
      </defs>
      <g>
       <use xlink:href="#m325df03368" x="58.075" y="255.890283" style="stroke: #000000; stroke-width: 0.8"/>
      </g>
     </g>
     <g id="text_1">
      <!-- −60000 -->
      <g transform="translate(10.882812 259.689502) scale(0.1 -0.1)">
       <defs>
        <path id="DejaVuSans-2212" d="M 678 2272 
L 4684 2272 
L 4684 1741 
L 678 1741 
L 678 2272 
z
" transform="scale(0.015625)"/>
        <path id="DejaVuSans-36" d="M 2113 2584 
Q 1688 2584 1439 2293 
Q 1191 2003 1191 1497 
Q 1191 994 1439 701 
Q 1688 409 2113 409 
Q 2538 409 2786 701 
Q 3034 994 3034 1497 
Q 3034 2003 2786 2293 
Q 2538 2584 2113 2584 
z
M 3366 4563 
L 3366 3988 
Q 3128 4100 2886 4159 
Q 2644 4219 2406 4219 
Q 1781 4219 1451 3797 
Q 1122 3375 1075 2522 
Q 1259 2794 1537 2939 
Q 1816 3084 2150 3084 
Q 2853 3084 3261 2657 
Q 3669 2231 3669 1497 
Q 3669 778 3244 343 
Q 2819 -91 2113 -91 
Q 1303 -91 875 529 
Q 447 1150 447 2328 
Q 447 3434 972 4092 
Q 1497 4750 2381 4750 
Q 2619 4750 2861 4703 
Q 3103 4656 3366 4563 
z
" transform="scale(0.015625)"/>
        <path id="DejaVuSans-30" d="M 2034 4250 
Q 1547 4250 1301 3770 
Q 1056 3291 1056 2328 
Q 1056 1369 1301 889 
Q 1547 409 2034 409 
Q 2525 409 2770 889 
Q 3016 1369 3016 2328 
Q 3016 3291 2770 3770 
Q 2525 4250 2034 4250 
z
M 2034 4750 
Q 2819 4750 3233 4129 
Q 3647 3509 3647 2328 
Q 3647 1150 3233 529 
Q 2819 -91 2034 -91 
Q 1250 -91 836 529 
Q 422 1150 422 2328 
Q 422 3509 836 4129 
Q 1250 4750 2034 4750 
z
" transform="scale(0.015625)"/>
       </defs>
       <use xlink:href="#DejaVuSans-2212"/>
       <use xlink:href="#DejaVuSans-36" x="83.789062"/>
       <use xlink:href="#DejaVuSans-30" x="147.412109"/>
       <use xlink:href="#DejaVuSans-30" x="211.035156"/>
       <use xlink:href="#DejaVuSans-30" x="274.658203"/>
       <use xlink:href="#DejaVuSans-30" x="338.28125"/>
      </g>
     </g>
    </g>
    <g id="ytick_2">
     <g id="line2d_8">
      <g>
       <use xlink:href="#m325df03368" x="58.075" y="217.440072" style="stroke: #000000; stroke-width: 0.8"/>
      </g>
     </g>
     <g id="text_2">
      <!-- −40000 -->
      <g transform="translate(10.882812 221.239291) scale(0.1 -0.1)">
       <defs>
        <path id="DejaVuSans-34" d="M 2419 4116 
L 825 1625 
L 2419 1625 
L 2419 4116 
z
M 2253 4666 
L 3047 4666 
L 3047 1625 
L 3713 1625 
L 3713 1100 
L 3047 1100 
L 3047 0 
L 2419 0 
L 2419 1100 
L 313 1100 
L 313 1709 
L 2253 4666 
z
" transform="scale(0.015625)"/>
       </defs>
       <use xlink:href="#DejaVuSans-2212"/>
       <use xlink:href="#DejaVuSans-34" x="83.789062"/>
       <use xlink:href="#DejaVuSans-30" x="147.412109"/>
       <use xlink:href="#DejaVuSans-30" x="211.035156"/>
       <use xlink:href="#DejaVuSans-30" x="274.658203"/>
       <use xlink:href="#DejaVuSans-30" x="338.28125"/>
      </g>
     </g>
    </g>
    <g id="ytick_3">
     <g id="line2d_9">
      <g>
       <use xlink:href="#m325df03368" x="58.075" y="178.98986" style="stroke: #000000; stroke-width: 0.8"/>
      </g>
     </g>
     <g id="text_3">
      <!-- −20000 -->
      <g transform="translate(10.882812 182.789079) scale(0.1 -0.1)">
       <defs>
        <path id="DejaVuSans-32" d="M 1228 531 
L 3431 531 
L 3431 0 
L 469 0 
L 469 531 
Q 828 903 1448 1529 
Q 2069 2156 2228 2338 
Q 2531 2678 2651 2914 
Q 2772 3150 2772 3378 
Q 2772 3750 2511 3984 
Q 2250 4219 1831 4219 
Q 1534 4219 1204 4116 
Q 875 4013 500 3803 
L 500 4441 
Q 881 4594 1212 4672 
Q 1544 4750 1819 4750 
Q 2544 4750 2975 4387 
Q 3406 4025 3406 3419 
Q 3406 3131 3298 2873 
Q 3191 2616 2906 2266 
Q 2828 2175 2409 1742 
Q 1991 1309 1228 531 
z
" transform="scale(0.015625)"/>
       </defs>
       <use xlink:href="#DejaVuSans-2212"/>
       <use xlink:href="#DejaVuSans-32" x="83.789062"/>
       <use xlink:href="#DejaVuSans-30" x="147.412109"/>
       <use xlink:href="#DejaVuSans-30" x="211.035156"/>
       <use xlink:href="#DejaVuSans-30" x="274.658203"/>
       <use xlink:href="#DejaVuSans-30" x="338.28125"/>
      </g>
     </g>
    </g>
    <g id="ytick_4">
     <g id="line2d_10">
      <g>
       <use xlink:href="#m325df03368" x="58.075" y="140.539649" style="stroke: #000000; stroke-width: 0.8"/>
      </g>
     </g>
     <g id="text_4">
      <!-- 0 -->
      <g transform="translate(44.7125 144.338868) scale(0.1 -0.1)">
       <use xlink:href="#DejaVuSans-30"/>
      </g>
     </g>
    </g>
    <g id="ytick_5">
     <g id="line2d_11">
      <g>
       <use xlink:href="#m325df03368" x="58.075" y="102.089437" style="stroke: #000000; stroke-width: 0.8"/>
      </g>
     </g>
     <g id="text_5">
      <!-- 20000 -->
      <g transform="translate(19.2625 105.888656) scale(0.1 -0.1)">
       <use xlink:href="#DejaVuSans-32"/>
       <use xlink:href="#DejaVuSans-30" x="63.623047"/>
       <use xlink:href="#DejaVuSans-30" x="127.246094"/>
       <use xlink:href="#DejaVuSans-30" x="190.869141"/>
       <use xlink:href="#DejaVuSans-30" x="254.492188"/>
      </g>
     </g>
    </g>
    <g id="ytick_6">
     <g id="line2d_12">
      <g>
       <use xlink:href="#m325df03368" x="58.075" y="63.639226" style="stroke: #000000; stroke-width: 0.8"/>
      </g>
     </g>
     <g id="text_6">
      <!-- 40000 -->
      <g transform="translate(19.2625 67.438445) scale(0.1 -0.1)">
       <use xlink:href="#DejaVuSans-34"/>
       <use xlink:href="#DejaVuSans-30" x="63.623047"/>
       <use xlink:href="#DejaVuSans-30" x="127.246094"/>
       <use xlink:href="#DejaVuSans-30" x="190.869141"/>
       <use xlink:href="#DejaVuSans-30" x="254.492188"/>
      </g>
     </g>
    </g>
   </g>
   <g id="line2d_13">
    <path d="M 87.671591 140.537258 
L 93.6507 140.542452 
L 99.629809 140.536537 
L 105.608919 140.543013 
L 111.588028 140.533813 
L 117.567137 140.54535 
L 123.546247 140.530505 
L 129.525356 140.553272 
L 135.504465 140.524388 
L 141.483574 140.556679 
L 147.462684 140.519486 
L 153.441793 140.560939 
L 159.420902 140.512773 
L 165.400011 140.570864 
L 171.379121 140.503302 
L 177.35823 140.576635 
L 183.337339 140.493472 
L 189.316449 140.589447 
L 195.295558 140.482325 
L 201.274667 140.60425 
L 207.253776 140.471263 
L 213.232886 140.611327 
L 219.211995 140.458891 
L 225.191104 140.624294 
L 231.170213 140.447257 
L 237.149323 140.638357 
L 243.128432 140.425554 
L 249.107541 140.662424 
L 255.086651 140.402142 
L 261.06576 140.688967 
L 267.044869 140.376496 
L 273.023978 140.714588 
L 279.003088 140.346467 
L 284.982197 140.749256 
L 290.961306 140.310163 
L 296.940416 140.792428 
L 302.919525 140.25691 
L 308.898634 140.849406 
L 314.877743 140.194199 
L 320.856853 140.917871 
L 326.835962 140.125223 
L 332.815071 140.99188 
L 338.79418 140.041406 
L 344.77329 141.08445 
L 350.752399 139.938397 
L 356.731508 141.20207 
L 362.710618 139.808747 
L 368.689727 141.337496 
L 374.668836 139.659146 
L 380.647945 141.50639 
L 386.627055 139.472244 
L 392.606164 141.711467 
L 398.585273 139.248324 
L 404.564382 141.960283 
L 410.543492 138.97458 
L 416.522601 142.257312 
L 422.50171 138.649904 
L 428.48082 142.613707 
L 434.459929 138.256439 
L 440.439038 143.050964 
L 446.418147 137.773362 
L 452.397257 143.581193 
L 458.376366 137.190567 
L 464.355475 144.222277 
L 470.334584 136.48695 
L 476.313694 144.994746 
L 482.292803 135.63656 
L 488.271912 145.93496 
L 494.251022 134.605039 
L 500.230131 147.06401 
L 506.20924 133.361183 
L 512.188349 148.435045 
L 518.167459 131.855402 
L 524.146568 150.092474 
L 530.125677 130.033506 
L 536.104787 152.094678 
L 542.083896 127.828344 
L 548.063005 154.52202 
L 554.042114 125.15725 
L 560.021224 157.457666 
L 566.000333 121.923883 
L 571.979442 161.017975 
L 577.958551 118.009339 
L 583.937661 165.319197 
L 589.91677 113.281722 
L 595.895879 170.521056 
L 601.874989 107.559059 
L 607.854098 176.816018 
L 613.833207 100.630818 
L 619.812316 184.436275 
L 625.791426 92.250459 
L 631.770535 193.656662 
L 637.749644 82.111865 
L 643.728753 204.80869 
L 649.707863 69.839462 
L 655.686972 218.310868 
L 661.666081 54.991413 
L 667.645191 234.640542 
L 673.6243 37.028636 
L 679.603409 254.401364 
" clip-path="url(#p8bb4cc074b)" style="fill: none; stroke: #1f77b4; stroke-width: 1.5; stroke-linecap: square"/>
   </g>
   <g id="patch_3">
    <path d="M 58.075 265.27 
L 58.075 26.16 
" style="fill: none; stroke: #000000; stroke-width: 0.8; stroke-linejoin: miter; stroke-linecap: square"/>
   </g>
   <g id="patch_4">
    <path d="M 709.2 265.27 
L 709.2 26.16 
" style="fill: none; stroke: #000000; stroke-width: 0.8; stroke-linejoin: miter; stroke-linecap: square"/>
   </g>
   <g id="patch_5">
    <path d="M 58.075 265.27 
L 709.2 265.27 
" style="fill: none; stroke: #000000; stroke-width: 0.8; stroke-linejoin: miter; stroke-linecap: square"/>
   </g>
   <g id="patch_6">
    <path d="M 58.075 26.16 
L 709.2 26.16 
" style="fill: none; stroke: #000000; stroke-width: 0.8; stroke-linejoin: miter; stroke-linecap: square"/>
   </g>
   <g id="text_7">
    <!-- One Realization of AR(1) Process with ϕ=-1.1 -->
    <g transform="translate(248.323437 20.16) scale(0.12 -0.12)">
     <defs>
      <path id="DejaVuSans-4f" d="M 2522 4238 
Q 1834 4238 1429 3725 
Q 1025 3213 1025 2328 
Q 1025 1447 1429 934 
Q 1834 422 2522 422 
Q 3209 422 3611 934 
Q 4013 1447 4013 2328 
Q 4013 3213 3611 3725 
Q 3209 4238 2522 4238 
z
M 2522 4750 
Q 3503 4750 4090 4092 
Q 4678 3434 4678 2328 
Q 4678 1225 4090 567 
Q 3503 -91 2522 -91 
Q 1538 -91 948 565 
Q 359 1222 359 2328 
Q 359 3434 948 4092 
Q 1538 4750 2522 4750 
z
" transform="scale(0.015625)"/>
      <path id="DejaVuSans-6e" d="M 3513 2113 
L 3513 0 
L 2938 0 
L 2938 2094 
Q 2938 2591 2744 2837 
Q 2550 3084 2163 3084 
Q 1697 3084 1428 2787 
Q 1159 2491 1159 1978 
L 1159 0 
L 581 0 
L 581 3500 
L 1159 3500 
L 1159 2956 
Q 1366 3272 1645 3428 
Q 1925 3584 2291 3584 
Q 2894 3584 3203 3211 
Q 3513 2838 3513 2113 
z
" transform="scale(0.015625)"/>
      <path id="DejaVuSans-65" d="M 3597 1894 
L 3597 1613 
L 953 1613 
Q 991 1019 1311 708 
Q 1631 397 2203 397 
Q 2534 397 2845 478 
Q 3156 559 3463 722 
L 3463 178 
Q 3153 47 2828 -22 
Q 2503 -91 2169 -91 
Q 1331 -91 842 396 
Q 353 884 353 1716 
Q 353 2575 817 3079 
Q 1281 3584 2069 3584 
Q 2775 3584 3186 3129 
Q 3597 2675 3597 1894 
z
M 3022 2063 
Q 3016 2534 2758 2815 
Q 2500 3097 2075 3097 
Q 1594 3097 1305 2825 
Q 1016 2553 972 2059 
L 3022 2063 
z
" transform="scale(0.015625)"/>
      <path id="DejaVuSans-20" transform="scale(0.015625)"/>
      <path id="DejaVuSans-52" d="M 2841 2188 
Q 3044 2119 3236 1894 
Q 3428 1669 3622 1275 
L 4263 0 
L 3584 0 
L 2988 1197 
Q 2756 1666 2539 1819 
Q 2322 1972 1947 1972 
L 1259 1972 
L 1259 0 
L 628 0 
L 628 4666 
L 2053 4666 
Q 2853 4666 3247 4331 
Q 3641 3997 3641 3322 
Q 3641 2881 3436 2590 
Q 3231 2300 2841 2188 
z
M 1259 4147 
L 1259 2491 
L 2053 2491 
Q 2509 2491 2742 2702 
Q 2975 2913 2975 3322 
Q 2975 3731 2742 3939 
Q 2509 4147 2053 4147 
L 1259 4147 
z
" transform="scale(0.015625)"/>
      <path id="DejaVuSans-61" d="M 2194 1759 
Q 1497 1759 1228 1600 
Q 959 1441 959 1056 
Q 959 750 1161 570 
Q 1363 391 1709 391 
Q 2188 391 2477 730 
Q 2766 1069 2766 1631 
L 2766 1759 
L 2194 1759 
z
M 3341 1997 
L 3341 0 
L 2766 0 
L 2766 531 
Q 2569 213 2275 61 
Q 1981 -91 1556 -91 
Q 1019 -91 701 211 
Q 384 513 384 1019 
Q 384 1609 779 1909 
Q 1175 2209 1959 2209 
L 2766 2209 
L 2766 2266 
Q 2766 2663 2505 2880 
Q 2244 3097 1772 3097 
Q 1472 3097 1187 3025 
Q 903 2953 641 2809 
L 641 3341 
Q 956 3463 1253 3523 
Q 1550 3584 1831 3584 
Q 2591 3584 2966 3190 
Q 3341 2797 3341 1997 
z
" transform="scale(0.015625)"/>
      <path id="DejaVuSans-6c" d="M 603 4863 
L 1178 4863 
L 1178 0 
L 603 0 
L 603 4863 
z
" transform="scale(0.015625)"/>
      <path id="DejaVuSans-69" d="M 603 3500 
L 1178 3500 
L 1178 0 
L 603 0 
L 603 3500 
z
M 603 4863 
L 1178 4863 
L 1178 4134 
L 603 4134 
L 603 4863 
z
" transform="scale(0.015625)"/>
      <path id="DejaVuSans-7a" d="M 353 3500 
L 3084 3500 
L 3084 2975 
L 922 459 
L 3084 459 
L 3084 0 
L 275 0 
L 275 525 
L 2438 3041 
L 353 3041 
L 353 3500 
z
" transform="scale(0.015625)"/>
      <path id="DejaVuSans-74" d="M 1172 4494 
L 1172 3500 
L 2356 3500 
L 2356 3053 
L 1172 3053 
L 1172 1153 
Q 1172 725 1289 603 
Q 1406 481 1766 481 
L 2356 481 
L 2356 0 
L 1766 0 
Q 1100 0 847 248 
Q 594 497 594 1153 
L 594 3053 
L 172 3053 
L 172 3500 
L 594 3500 
L 594 4494 
L 1172 4494 
z
" transform="scale(0.015625)"/>
      <path id="DejaVuSans-6f" d="M 1959 3097 
Q 1497 3097 1228 2736 
Q 959 2375 959 1747 
Q 959 1119 1226 758 
Q 1494 397 1959 397 
Q 2419 397 2687 759 
Q 2956 1122 2956 1747 
Q 2956 2369 2687 2733 
Q 2419 3097 1959 3097 
z
M 1959 3584 
Q 2709 3584 3137 3096 
Q 3566 2609 3566 1747 
Q 3566 888 3137 398 
Q 2709 -91 1959 -91 
Q 1206 -91 779 398 
Q 353 888 353 1747 
Q 353 2609 779 3096 
Q 1206 3584 1959 3584 
z
" transform="scale(0.015625)"/>
      <path id="DejaVuSans-66" d="M 2375 4863 
L 2375 4384 
L 1825 4384 
Q 1516 4384 1395 4259 
Q 1275 4134 1275 3809 
L 1275 3500 
L 2222 3500 
L 2222 3053 
L 1275 3053 
L 1275 0 
L 697 0 
L 697 3053 
L 147 3053 
L 147 3500 
L 697 3500 
L 697 3744 
Q 697 4328 969 4595 
Q 1241 4863 1831 4863 
L 2375 4863 
z
" transform="scale(0.015625)"/>
      <path id="DejaVuSans-41" d="M 2188 4044 
L 1331 1722 
L 3047 1722 
L 2188 4044 
z
M 1831 4666 
L 2547 4666 
L 4325 0 
L 3669 0 
L 3244 1197 
L 1141 1197 
L 716 0 
L 50 0 
L 1831 4666 
z
" transform="scale(0.015625)"/>
      <path id="DejaVuSans-28" d="M 1984 4856 
Q 1566 4138 1362 3434 
Q 1159 2731 1159 2009 
Q 1159 1288 1364 580 
Q 1569 -128 1984 -844 
L 1484 -844 
Q 1016 -109 783 600 
Q 550 1309 550 2009 
Q 550 2706 781 3412 
Q 1013 4119 1484 4856 
L 1984 4856 
z
" transform="scale(0.015625)"/>
      <path id="DejaVuSans-31" d="M 794 531 
L 1825 531 
L 1825 4091 
L 703 3866 
L 703 4441 
L 1819 4666 
L 2450 4666 
L 2450 531 
L 3481 531 
L 3481 0 
L 794 0 
L 794 531 
z
" transform="scale(0.015625)"/>
      <path id="DejaVuSans-29" d="M 513 4856 
L 1013 4856 
Q 1481 4119 1714 3412 
Q 1947 2706 1947 2009 
Q 1947 1309 1714 600 
Q 1481 -109 1013 -844 
L 513 -844 
Q 928 -128 1133 580 
Q 1338 1288 1338 2009 
Q 1338 2731 1133 3434 
Q 928 4138 513 4856 
z
" transform="scale(0.015625)"/>
      <path id="DejaVuSans-50" d="M 1259 4147 
L 1259 2394 
L 2053 2394 
Q 2494 2394 2734 2622 
Q 2975 2850 2975 3272 
Q 2975 3691 2734 3919 
Q 2494 4147 2053 4147 
L 1259 4147 
z
M 628 4666 
L 2053 4666 
Q 2838 4666 3239 4311 
Q 3641 3956 3641 3272 
Q 3641 2581 3239 2228 
Q 2838 1875 2053 1875 
L 1259 1875 
L 1259 0 
L 628 0 
L 628 4666 
z
" transform="scale(0.015625)"/>
      <path id="DejaVuSans-72" d="M 2631 2963 
Q 2534 3019 2420 3045 
Q 2306 3072 2169 3072 
Q 1681 3072 1420 2755 
Q 1159 2438 1159 1844 
L 1159 0 
L 581 0 
L 581 3500 
L 1159 3500 
L 1159 2956 
Q 1341 3275 1631 3429 
Q 1922 3584 2338 3584 
Q 2397 3584 2469 3576 
Q 2541 3569 2628 3553 
L 2631 2963 
z
" transform="scale(0.015625)"/>
      <path id="DejaVuSans-63" d="M 3122 3366 
L 3122 2828 
Q 2878 2963 2633 3030 
Q 2388 3097 2138 3097 
Q 1578 3097 1268 2742 
Q 959 2388 959 1747 
Q 959 1106 1268 751 
Q 1578 397 2138 397 
Q 2388 397 2633 464 
Q 2878 531 3122 666 
L 3122 134 
Q 2881 22 2623 -34 
Q 2366 -91 2075 -91 
Q 1284 -91 818 406 
Q 353 903 353 1747 
Q 353 2603 823 3093 
Q 1294 3584 2113 3584 
Q 2378 3584 2631 3529 
Q 2884 3475 3122 3366 
z
" transform="scale(0.015625)"/>
      <path id="DejaVuSans-73" d="M 2834 3397 
L 2834 2853 
Q 2591 2978 2328 3040 
Q 2066 3103 1784 3103 
Q 1356 3103 1142 2972 
Q 928 2841 928 2578 
Q 928 2378 1081 2264 
Q 1234 2150 1697 2047 
L 1894 2003 
Q 2506 1872 2764 1633 
Q 3022 1394 3022 966 
Q 3022 478 2636 193 
Q 2250 -91 1575 -91 
Q 1294 -91 989 -36 
Q 684 19 347 128 
L 347 722 
Q 666 556 975 473 
Q 1284 391 1588 391 
Q 1994 391 2212 530 
Q 2431 669 2431 922 
Q 2431 1156 2273 1281 
Q 2116 1406 1581 1522 
L 1381 1569 
Q 847 1681 609 1914 
Q 372 2147 372 2553 
Q 372 3047 722 3315 
Q 1072 3584 1716 3584 
Q 2034 3584 2315 3537 
Q 2597 3491 2834 3397 
z
" transform="scale(0.015625)"/>
      <path id="DejaVuSans-77" d="M 269 3500 
L 844 3500 
L 1563 769 
L 2278 3500 
L 2956 3500 
L 3675 769 
L 4391 3500 
L 4966 3500 
L 4050 0 
L 3372 0 
L 2619 2869 
L 1863 0 
L 1184 0 
L 269 3500 
z
" transform="scale(0.015625)"/>
      <path id="DejaVuSans-68" d="M 3513 2113 
L 3513 0 
L 2938 0 
L 2938 2094 
Q 2938 2591 2744 2837 
Q 2550 3084 2163 3084 
Q 1697 3084 1428 2787 
Q 1159 2491 1159 1978 
L 1159 0 
L 581 0 
L 581 4863 
L 1159 4863 
L 1159 2956 
Q 1366 3272 1645 3428 
Q 1925 3584 2291 3584 
Q 2894 3584 3203 3211 
Q 3513 2838 3513 2113 
z
" transform="scale(0.015625)"/>
      <path id="DejaVuSans-3d5" d="M 2388 4863 
L 2388 3572 
Q 3009 3572 3425 3094 
Q 3853 2606 3853 1747 
Q 3853 888 3425 400 
Q 3009 -78 2388 -78 
L 2388 -1331 
L 1816 -1331 
L 1816 -78 
Q 1194 -78 775 400 
Q 350 888 350 1747 
Q 350 2606 775 3094 
Q 1194 3572 1816 3572 
L 1816 4863 
L 2388 4863 
z
M 2388 434 
Q 2741 434 2981 756 
Q 3244 1116 3247 1747 
Q 3250 2372 2981 2738 
Q 2741 3059 2388 3059 
L 2388 434 
z
M 1816 434 
L 1816 3059 
Q 1463 3059 1225 2738 
Q 953 2372 956 1747 
Q 959 1116 1225 756 
Q 1463 434 1816 434 
z
" transform="scale(0.015625)"/>
      <path id="DejaVuSans-3d" d="M 678 2906 
L 4684 2906 
L 4684 2381 
L 678 2381 
L 678 2906 
z
M 678 1631 
L 4684 1631 
L 4684 1100 
L 678 1100 
L 678 1631 
z
" transform="scale(0.015625)"/>
      <path id="DejaVuSans-2d" d="M 313 2009 
L 1997 2009 
L 1997 1497 
L 313 1497 
L 313 2009 
z
" transform="scale(0.015625)"/>
      <path id="DejaVuSans-2e" d="M 684 794 
L 1344 794 
L 1344 0 
L 684 0 
L 684 794 
z
" transform="scale(0.015625)"/>
     </defs>
     <use xlink:href="#DejaVuSans-4f"/>
     <use xlink:href="#DejaVuSans-6e" x="78.710938"/>
     <use xlink:href="#DejaVuSans-65" x="142.089844"/>
     <use xlink:href="#DejaVuSans-20" x="203.613281"/>
     <use xlink:href="#DejaVuSans-52" x="235.400391"/>
     <use xlink:href="#DejaVuSans-65" x="300.382812"/>
     <use xlink:href="#DejaVuSans-61" x="361.90625"/>
     <use xlink:href="#DejaVuSans-6c" x="423.185547"/>
     <use xlink:href="#DejaVuSans-69" x="450.96875"/>
     <use xlink:href="#DejaVuSans-7a" x="478.751953"/>
     <use xlink:href="#DejaVuSans-61" x="531.242188"/>
     <use xlink:href="#DejaVuSans-74" x="592.521484"/>
     <use xlink:href="#DejaVuSans-69" x="631.730469"/>
     <use xlink:href="#DejaVuSans-6f" x="659.513672"/>
     <use xlink:href="#DejaVuSans-6e" x="720.695312"/>
     <use xlink:href="#DejaVuSans-20" x="784.074219"/>
     <use xlink:href="#DejaVuSans-6f" x="815.861328"/>
     <use xlink:href="#DejaVuSans-66" x="877.042969"/>
     <use xlink:href="#DejaVuSans-20" x="912.248047"/>
     <use xlink:href="#DejaVuSans-41" x="944.035156"/>
     <use xlink:href="#DejaVuSans-52" x="1012.443359"/>
     <use xlink:href="#DejaVuSans-28" x="1081.925781"/>
     <use xlink:href="#DejaVuSans-31" x="1120.939453"/>
     <use xlink:href="#DejaVuSans-29" x="1184.5625"/>
     <use xlink:href="#DejaVuSans-20" x="1223.576172"/>
     <use xlink:href="#DejaVuSans-50" x="1255.363281"/>
     <use xlink:href="#DejaVuSans-72" x="1313.916016"/>
     <use xlink:href="#DejaVuSans-6f" x="1352.779297"/>
     <use xlink:href="#DejaVuSans-63" x="1413.960938"/>
     <use xlink:href="#DejaVuSans-65" x="1468.941406"/>
     <use xlink:href="#DejaVuSans-73" x="1530.464844"/>
     <use xlink:href="#DejaVuSans-73" x="1582.564453"/>
     <use xlink:href="#DejaVuSans-20" x="1634.664062"/>
     <use xlink:href="#DejaVuSans-77" x="1666.451172"/>
     <use xlink:href="#DejaVuSans-69" x="1748.238281"/>
     <use xlink:href="#DejaVuSans-74" x="1776.021484"/>
     <use xlink:href="#DejaVuSans-68" x="1815.230469"/>
     <use xlink:href="#DejaVuSans-20" x="1878.609375"/>
     <use xlink:href="#DejaVuSans-3d5" x="1910.396484"/>
     <use xlink:href="#DejaVuSans-3d" x="1976.363281"/>
     <use xlink:href="#DejaVuSans-2d" x="2060.152344"/>
     <use xlink:href="#DejaVuSans-31" x="2096.236328"/>
     <use xlink:href="#DejaVuSans-2e" x="2159.859375"/>
     <use xlink:href="#DejaVuSans-31" x="2191.646484"/>
    </g>
   </g>
   <g id="legend_1">
    <g id="patch_7">
     <path d="M 65.075 48.838125 
L 241.120313 48.838125 
Q 243.120313 48.838125 243.120313 46.838125 
L 243.120313 33.16 
Q 243.120313 31.16 241.120313 31.16 
L 65.075 31.16 
Q 63.075 31.16 63.075 33.16 
L 63.075 46.838125 
Q 63.075 48.838125 65.075 48.838125 
z
" style="fill: #ffffff; opacity: 0.8; stroke: #cccccc; stroke-linejoin: miter"/>
    </g>
    <g id="line2d_14">
     <path d="M 67.075 39.258438 
L 77.075 39.258438 
L 87.075 39.258438 
" style="fill: none; stroke: #1f77b4; stroke-width: 1.5; stroke-linecap: square"/>
    </g>
    <g id="text_8">
     <!-- AR(1) with c=1, σ=1, ϕ=-1.1 -->
     <g transform="translate(95.075 42.758438) scale(0.1 -0.1)">
      <defs>
       <path id="DejaVuSans-2c" d="M 750 794 
L 1409 794 
L 1409 256 
L 897 -744 
L 494 -744 
L 750 256 
L 750 794 
z
" transform="scale(0.015625)"/>
       <path id="DejaVuSans-3c3" d="M 1959 3044 
Q 1484 3044 1228 2700 
Q 959 2341 959 1747 
Q 959 1119 1226 758 
Q 1494 397 1959 397 
Q 2419 397 2687 759 
Q 2956 1122 2956 1747 
Q 2956 2319 2688 2700 
Q 2441 3044 1959 3044 
z
M 1959 3500 
L 3869 3500 
L 3869 2925 
L 3225 2925 
Q 3566 2438 3566 1747 
Q 3566 888 3138 400 
Q 2709 -91 1959 -91 
Q 1206 -91 781 400 
Q 353 888 353 1747 
Q 353 2613 781 3097 
Q 1134 3500 1959 3500 
z
" transform="scale(0.015625)"/>
      </defs>
      <use xlink:href="#DejaVuSans-41"/>
      <use xlink:href="#DejaVuSans-52" x="68.408203"/>
      <use xlink:href="#DejaVuSans-28" x="137.890625"/>
      <use xlink:href="#DejaVuSans-31" x="176.904297"/>
      <use xlink:href="#DejaVuSans-29" x="240.527344"/>
      <use xlink:href="#DejaVuSans-20" x="279.541016"/>
      <use xlink:href="#DejaVuSans-77" x="311.328125"/>
      <use xlink:href="#DejaVuSans-69" x="393.115234"/>
      <use xlink:href="#DejaVuSans-74" x="420.898438"/>
      <use xlink:href="#DejaVuSans-68" x="460.107422"/>
      <use xlink:href="#DejaVuSans-20" x="523.486328"/>
      <use xlink:href="#DejaVuSans-63" x="555.273438"/>
      <use xlink:href="#DejaVuSans-3d" x="610.253906"/>
      <use xlink:href="#DejaVuSans-31" x="694.042969"/>
      <use xlink:href="#DejaVuSans-2c" x="757.666016"/>
      <use xlink:href="#DejaVuSans-20" x="789.453125"/>
      <use xlink:href="#DejaVuSans-3c3" x="821.240234"/>
      <use xlink:href="#DejaVuSans-3d" x="884.619141"/>
      <use xlink:href="#DejaVuSans-31" x="968.408203"/>
      <use xlink:href="#DejaVuSans-2c" x="1032.03125"/>
      <use xlink:href="#DejaVuSans-20" x="1063.818359"/>
      <use xlink:href="#DejaVuSans-3d5" x="1095.605469"/>
      <use xlink:href="#DejaVuSans-3d" x="1161.572266"/>
      <use xlink:href="#DejaVuSans-2d" x="1245.361328"/>
      <use xlink:href="#DejaVuSans-31" x="1281.445312"/>
      <use xlink:href="#DejaVuSans-2e" x="1345.068359"/>
      <use xlink:href="#DejaVuSans-31" x="1376.855469"/>
     </g>
    </g>
   </g>
  </g>
  <g id="axes_2">
   <g id="patch_8">
    <path d="M 58.075 534.04 
L 709.2 534.04 
L 709.2 294.93 
L 58.075 294.93 
z
" style="fill: #ffffff"/>
   </g>
   <g id="matplotlib.axis_3">
    <g id="xtick_7">
     <g id="line2d_15">
      <g>
       <use xlink:href="#m3b6ecbd51b" x="87.671591" y="534.04" style="stroke: #000000; stroke-width: 0.8"/>
      </g>
     </g>
     <g id="text_9">
      <!-- 0 -->
      <g transform="translate(84.490341 548.638438) scale(0.1 -0.1)">
       <use xlink:href="#DejaVuSans-30"/>
      </g>
     </g>
    </g>
    <g id="xtick_8">
     <g id="line2d_16">
      <g>
       <use xlink:href="#m3b6ecbd51b" x="207.253776" y="534.04" style="stroke: #000000; stroke-width: 0.8"/>
      </g>
     </g>
     <g id="text_10">
      <!-- 20 -->
      <g transform="translate(200.891276 548.638438) scale(0.1 -0.1)">
       <use xlink:href="#DejaVuSans-32"/>
       <use xlink:href="#DejaVuSans-30" x="63.623047"/>
      </g>
     </g>
    </g>
    <g id="xtick_9">
     <g id="line2d_17">
      <g>
       <use xlink:href="#m3b6ecbd51b" x="326.835962" y="534.04" style="stroke: #000000; stroke-width: 0.8"/>
      </g>
     </g>
     <g id="text_11">
      <!-- 40 -->
      <g transform="translate(320.473462 548.638438) scale(0.1 -0.1)">
       <use xlink:href="#DejaVuSans-34"/>
       <use xlink:href="#DejaVuSans-30" x="63.623047"/>
      </g>
     </g>
    </g>
    <g id="xtick_10">
     <g id="line2d_18">
      <g>
       <use xlink:href="#m3b6ecbd51b" x="446.418147" y="534.04" style="stroke: #000000; stroke-width: 0.8"/>
      </g>
     </g>
     <g id="text_12">
      <!-- 60 -->
      <g transform="translate(440.055647 548.638438) scale(0.1 -0.1)">
       <use xlink:href="#DejaVuSans-36"/>
       <use xlink:href="#DejaVuSans-30" x="63.623047"/>
      </g>
     </g>
    </g>
    <g id="xtick_11">
     <g id="line2d_19">
      <g>
       <use xlink:href="#m3b6ecbd51b" x="566.000333" y="534.04" style="stroke: #000000; stroke-width: 0.8"/>
      </g>
     </g>
     <g id="text_13">
      <!-- 80 -->
      <g transform="translate(559.637833 548.638438) scale(0.1 -0.1)">
       <defs>
        <path id="DejaVuSans-38" d="M 2034 2216 
Q 1584 2216 1326 1975 
Q 1069 1734 1069 1313 
Q 1069 891 1326 650 
Q 1584 409 2034 409 
Q 2484 409 2743 651 
Q 3003 894 3003 1313 
Q 3003 1734 2745 1975 
Q 2488 2216 2034 2216 
z
M 1403 2484 
Q 997 2584 770 2862 
Q 544 3141 544 3541 
Q 544 4100 942 4425 
Q 1341 4750 2034 4750 
Q 2731 4750 3128 4425 
Q 3525 4100 3525 3541 
Q 3525 3141 3298 2862 
Q 3072 2584 2669 2484 
Q 3125 2378 3379 2068 
Q 3634 1759 3634 1313 
Q 3634 634 3220 271 
Q 2806 -91 2034 -91 
Q 1263 -91 848 271 
Q 434 634 434 1313 
Q 434 1759 690 2068 
Q 947 2378 1403 2484 
z
M 1172 3481 
Q 1172 3119 1398 2916 
Q 1625 2713 2034 2713 
Q 2441 2713 2670 2916 
Q 2900 3119 2900 3481 
Q 2900 3844 2670 4047 
Q 2441 4250 2034 4250 
Q 1625 4250 1398 4047 
Q 1172 3844 1172 3481 
z
" transform="scale(0.015625)"/>
       </defs>
       <use xlink:href="#DejaVuSans-38"/>
       <use xlink:href="#DejaVuSans-30" x="63.623047"/>
      </g>
     </g>
    </g>
    <g id="xtick_12">
     <g id="line2d_20">
      <g>
       <use xlink:href="#m3b6ecbd51b" x="685.582518" y="534.04" style="stroke: #000000; stroke-width: 0.8"/>
      </g>
     </g>
     <g id="text_14">
      <!-- 100 -->
      <g transform="translate(676.038768 548.638438) scale(0.1 -0.1)">
       <use xlink:href="#DejaVuSans-31"/>
       <use xlink:href="#DejaVuSans-30" x="63.623047"/>
       <use xlink:href="#DejaVuSans-30" x="127.246094"/>
      </g>
     </g>
    </g>
    <g id="text_15">
     <!-- t -->
     <g transform="translate(381.677344 562.316562) scale(0.1 -0.1)">
      <use xlink:href="#DejaVuSans-74"/>
     </g>
    </g>
   </g>
   <g id="matplotlib.axis_4">
    <g id="ytick_7">
     <g id="line2d_21">
      <g>
       <use xlink:href="#m325df03368" x="58.075" y="532.92929" style="stroke: #000000; stroke-width: 0.8"/>
      </g>
     </g>
     <g id="text_16">
      <!-- −80000 -->
      <g transform="translate(10.882812 536.728508) scale(0.1 -0.1)">
       <use xlink:href="#DejaVuSans-2212"/>
       <use xlink:href="#DejaVuSans-38" x="83.789062"/>
       <use xlink:href="#DejaVuSans-30" x="147.412109"/>
       <use xlink:href="#DejaVuSans-30" x="211.035156"/>
       <use xlink:href="#DejaVuSans-30" x="274.658203"/>
       <use xlink:href="#DejaVuSans-30" x="338.28125"/>
      </g>
     </g>
    </g>
    <g id="ytick_8">
     <g id="line2d_22">
      <g>
       <use xlink:href="#m325df03368" x="58.075" y="502.024301" style="stroke: #000000; stroke-width: 0.8"/>
      </g>
     </g>
     <g id="text_17">
      <!-- −60000 -->
      <g transform="translate(10.882812 505.823519) scale(0.1 -0.1)">
       <use xlink:href="#DejaVuSans-2212"/>
       <use xlink:href="#DejaVuSans-36" x="83.789062"/>
       <use xlink:href="#DejaVuSans-30" x="147.412109"/>
       <use xlink:href="#DejaVuSans-30" x="211.035156"/>
       <use xlink:href="#DejaVuSans-30" x="274.658203"/>
       <use xlink:href="#DejaVuSans-30" x="338.28125"/>
      </g>
     </g>
    </g>
    <g id="ytick_9">
     <g id="line2d_23">
      <g>
       <use xlink:href="#m325df03368" x="58.075" y="471.119312" style="stroke: #000000; stroke-width: 0.8"/>
      </g>
     </g>
     <g id="text_18">
      <!-- −40000 -->
      <g transform="translate(10.882812 474.91853) scale(0.1 -0.1)">
       <use xlink:href="#DejaVuSans-2212"/>
       <use xlink:href="#DejaVuSans-34" x="83.789062"/>
       <use xlink:href="#DejaVuSans-30" x="147.412109"/>
       <use xlink:href="#DejaVuSans-30" x="211.035156"/>
       <use xlink:href="#DejaVuSans-30" x="274.658203"/>
       <use xlink:href="#DejaVuSans-30" x="338.28125"/>
      </g>
     </g>
    </g>
    <g id="ytick_10">
     <g id="line2d_24">
      <g>
       <use xlink:href="#m325df03368" x="58.075" y="440.214323" style="stroke: #000000; stroke-width: 0.8"/>
      </g>
     </g>
     <g id="text_19">
      <!-- −20000 -->
      <g transform="translate(10.882812 444.013541) scale(0.1 -0.1)">
       <use xlink:href="#DejaVuSans-2212"/>
       <use xlink:href="#DejaVuSans-32" x="83.789062"/>
       <use xlink:href="#DejaVuSans-30" x="147.412109"/>
       <use xlink:href="#DejaVuSans-30" x="211.035156"/>
       <use xlink:href="#DejaVuSans-30" x="274.658203"/>
       <use xlink:href="#DejaVuSans-30" x="338.28125"/>
      </g>
     </g>
    </g>
    <g id="ytick_11">
     <g id="line2d_25">
      <g>
       <use xlink:href="#m325df03368" x="58.075" y="409.309334" style="stroke: #000000; stroke-width: 0.8"/>
      </g>
     </g>
     <g id="text_20">
      <!-- 0 -->
      <g transform="translate(44.7125 413.108552) scale(0.1 -0.1)">
       <use xlink:href="#DejaVuSans-30"/>
      </g>
     </g>
    </g>
    <g id="ytick_12">
     <g id="line2d_26">
      <g>
       <use xlink:href="#m325df03368" x="58.075" y="378.404345" style="stroke: #000000; stroke-width: 0.8"/>
      </g>
     </g>
     <g id="text_21">
      <!-- 20000 -->
      <g transform="translate(19.2625 382.203563) scale(0.1 -0.1)">
       <use xlink:href="#DejaVuSans-32"/>
       <use xlink:href="#DejaVuSans-30" x="63.623047"/>
       <use xlink:href="#DejaVuSans-30" x="127.246094"/>
       <use xlink:href="#DejaVuSans-30" x="190.869141"/>
       <use xlink:href="#DejaVuSans-30" x="254.492188"/>
      </g>
     </g>
    </g>
    <g id="ytick_13">
     <g id="line2d_27">
      <g>
       <use xlink:href="#m325df03368" x="58.075" y="347.499356" style="stroke: #000000; stroke-width: 0.8"/>
      </g>
     </g>
     <g id="text_22">
      <!-- 40000 -->
      <g transform="translate(19.2625 351.298574) scale(0.1 -0.1)">
       <use xlink:href="#DejaVuSans-34"/>
       <use xlink:href="#DejaVuSans-30" x="63.623047"/>
       <use xlink:href="#DejaVuSans-30" x="127.246094"/>
       <use xlink:href="#DejaVuSans-30" x="190.869141"/>
       <use xlink:href="#DejaVuSans-30" x="254.492188"/>
      </g>
     </g>
    </g>
    <g id="ytick_14">
     <g id="line2d_28">
      <g>
       <use xlink:href="#m325df03368" x="58.075" y="316.594367" style="stroke: #000000; stroke-width: 0.8"/>
      </g>
     </g>
     <g id="text_23">
      <!-- 60000 -->
      <g transform="translate(19.2625 320.393585) scale(0.1 -0.1)">
       <use xlink:href="#DejaVuSans-36"/>
       <use xlink:href="#DejaVuSans-30" x="63.623047"/>
       <use xlink:href="#DejaVuSans-30" x="127.246094"/>
       <use xlink:href="#DejaVuSans-30" x="190.869141"/>
       <use xlink:href="#DejaVuSans-30" x="254.492188"/>
      </g>
     </g>
    </g>
   </g>
   <g id="line2d_29">
    <path d="M 87.671591 409.308443 
L 93.6507 409.310878 
L 99.629809 409.307594 
L 105.608919 409.308614 
L 111.588028 409.3106 
L 117.567137 409.308865 
L 123.546247 409.309277 
L 129.525356 409.306719 
L 135.504465 409.310969 
L 141.483574 409.306708 
L 147.462684 409.310608 
L 153.441793 409.309084 
L 159.420902 409.307299 
L 165.400011 409.309434 
L 171.379121 409.30831 
L 177.35823 409.30736 
L 183.337339 409.311702 
L 189.316449 409.30344 
L 195.295558 409.314032 
L 201.274667 409.30314 
L 207.253776 409.314632 
L 213.232886 409.302125 
L 219.211995 409.313832 
L 225.191104 409.304504 
L 231.170213 409.314279 
L 237.149323 409.300747 
L 243.128432 409.318154 
L 249.107541 409.296695 
L 255.086651 409.319065 
L 261.06576 409.297705 
L 267.044869 409.319527 
L 273.023978 409.298358 
L 279.003088 409.318695 
L 284.982197 409.297182 
L 290.961306 409.320424 
L 296.940416 409.296587 
L 302.919525 409.324377 
L 308.898634 409.290463 
L 314.877743 409.331734 
L 320.856853 409.283638 
L 326.835962 409.334599 
L 332.815071 409.2797 
L 338.79418 409.337375 
L 344.77329 409.275359 
L 350.752399 409.346171 
L 356.731508 409.267225 
L 362.710618 409.354181 
L 368.689727 409.260901 
L 374.668836 409.362517 
L 380.647945 409.250153 
L 386.627055 409.376033 
L 392.606164 409.234345 
L 398.585273 409.39066 
L 404.564382 409.220914 
L 410.543492 409.404425 
L 416.522601 409.202081 
L 422.50171 409.425415 
L 428.48082 409.180599 
L 434.459929 409.448482 
L 440.439038 409.153674 
L 446.418147 409.478539 
L 452.397257 409.122937 
L 458.376366 409.512398 
L 464.355475 409.082571 
L 470.334584 409.55815 
L 476.313694 409.030849 
L 482.292803 409.614934 
L 488.271912 408.971578 
L 494.251022 409.680359 
L 500.230131 408.899316 
L 506.20924 409.7615 
L 512.188349 408.811249 
L 518.167459 409.857369 
L 524.146568 408.70474 
L 530.125677 409.971304 
L 536.104787 408.578622 
L 542.083896 410.115235 
L 548.063005 408.418141 
L 554.042114 410.287644 
L 560.021224 408.232847 
L 566.000333 410.491681 
L 571.979442 408.006934 
L 577.958551 410.741459 
L 583.937661 407.732145 
L 589.91677 411.043635 
L 595.895879 407.400682 
L 601.874989 411.408366 
L 607.854098 407.001067 
L 613.833207 411.846656 
L 619.812316 406.515829 
L 625.791426 412.379848 
L 631.770535 405.928956 
L 637.749644 413.025703 
L 643.728753 405.220605 
L 649.707863 413.804092 
L 655.686972 404.365652 
L 661.666081 414.74723 
L 667.645191 403.327592 
L 673.6243 415.886035 
L 679.603409 402.07196 
" clip-path="url(#p63bb918e7a)" style="fill: none; stroke: #1f77b4; stroke-width: 1.5; stroke-linecap: square"/>
   </g>
   <g id="line2d_30">
    <path d="M 87.671591 409.307035 
L 93.6507 409.30866 
L 99.629809 409.309888 
L 105.608919 409.30664 
L 111.588028 409.310945 
L 117.567137 409.304707 
L 123.546247 409.313055 
L 129.525356 409.304289 
L 135.504465 409.312501 
L 141.483574 409.30295 
L 147.462684 409.315843 
L 153.441793 409.300722 
L 159.420902 409.318896 
L 165.400011 409.301129 
L 171.379121 409.316503 
L 177.35823 409.298961 
L 183.337339 409.318793 
L 189.316449 409.300395 
L 195.295558 409.318163 
L 201.274667 409.301504 
L 207.253776 409.314284 
L 213.232886 409.304021 
L 219.211995 409.311692 
L 225.191104 409.303732 
L 231.170213 409.315341 
L 237.149323 409.30293 
L 243.128432 409.314291 
L 249.107541 409.30364 
L 255.086651 409.313893 
L 261.06576 409.303519 
L 267.044869 409.316936 
L 273.023978 409.302872 
L 279.003088 409.314546 
L 284.982197 409.302923 
L 290.961306 409.315695 
L 296.940416 409.299715 
L 302.919525 409.316555 
L 308.898634 409.300266 
L 314.877743 409.318289 
L 320.856853 409.297164 
L 326.835962 409.323271 
L 332.815071 409.292112 
L 338.79418 409.325879 
L 344.77329 409.288537 
L 350.752399 409.333658 
L 356.731508 409.282208 
L 362.710618 409.338983 
L 368.689727 409.27502 
L 374.668836 409.344791 
L 380.647945 409.266472 
L 386.627055 409.3557 
L 392.606164 409.257554 
L 398.585273 409.36297 
L 404.564382 409.24833 
L 410.543492 409.372933 
L 416.522601 409.237383 
L 422.50171 409.388722 
L 428.48082 409.222521 
L 434.459929 409.40568 
L 440.439038 409.200784 
L 446.418147 409.425356 
L 452.397257 409.177306 
L 458.376366 409.451716 
L 464.355475 409.149371 
L 470.334584 409.484643 
L 476.313694 409.116735 
L 482.292803 409.518334 
L 488.271912 409.077243 
L 494.251022 409.562922 
L 500.230131 409.028242 
L 506.20924 409.616489 
L 512.188349 408.967933 
L 518.167459 409.681327 
L 524.146568 408.897754 
L 530.125677 409.759219 
L 536.104787 408.81212 
L 542.083896 409.855436 
L 548.063005 408.705907 
L 554.042114 409.973712 
L 560.021224 408.575343 
L 566.000333 410.117024 
L 571.979442 408.418888 
L 577.958551 410.288585 
L 583.937661 408.229757 
L 589.91677 410.495375 
L 595.895879 408.005607 
L 601.874989 410.741238 
L 607.854098 407.733587 
L 613.833207 411.039748 
L 619.812316 407.40433 
L 625.791426 411.402681 
L 631.770535 407.006586 
L 637.749644 411.841721 
L 643.728753 406.52287 
L 649.707863 412.371574 
L 655.686972 405.936732 
L 661.666081 413.018894 
L 667.645191 405.225608 
L 673.6243 413.80324 
L 679.603409 404.366337 
" clip-path="url(#p63bb918e7a)" style="fill: none; stroke: #ff7f0e; stroke-width: 1.5; stroke-linecap: square"/>
   </g>
   <g id="line2d_31">
    <path d="M 87.671591 409.30927 
L 93.6507 409.309948 
L 99.629809 409.309559 
L 105.608919 409.306902 
L 111.588028 409.310794 
L 117.567137 409.305596 
L 123.546247 409.310833 
L 129.525356 409.305729 
L 135.504465 409.310737 
L 141.483574 409.306352 
L 147.462684 409.312903 
L 153.441793 409.302228 
L 159.420902 409.316515 
L 165.400011 409.301334 
L 171.379121 409.316862 
L 177.35823 409.300917 
L 183.337339 409.317691 
L 189.316449 409.298063 
L 195.295558 409.319648 
L 201.274667 409.29783 
L 207.253776 409.321196 
L 213.232886 409.29308 
L 219.211995 409.3249 
L 225.191104 409.287458 
L 231.170213 409.330027 
L 237.149323 409.283257 
L 243.128432 409.338617 
L 249.107541 409.274396 
L 255.086651 409.346302 
L 261.06576 409.267975 
L 267.044869 409.353023 
L 273.023978 409.258269 
L 279.003088 409.363186 
L 284.982197 409.249909 
L 290.961306 409.372008 
L 296.940416 409.239831 
L 302.919525 409.383906 
L 308.898634 409.226227 
L 314.877743 409.399543 
L 320.856853 409.207373 
L 326.835962 409.421552 
L 332.815071 409.181342 
L 338.79418 409.451393 
L 344.77329 409.152447 
L 350.752399 409.479792 
L 356.731508 409.119382 
L 362.710618 409.516891 
L 368.689727 409.079564 
L 374.668836 409.5599 
L 380.647945 409.032522 
L 386.627055 409.610128 
L 392.606164 408.975617 
L 398.585273 409.673528 
L 404.564382 408.908668 
L 410.543492 409.748643 
L 416.522601 408.825012 
L 422.50171 409.842096 
L 428.48082 408.721193 
L 434.459929 409.955574 
L 440.439038 408.595911 
L 446.418147 410.094207 
L 452.397257 408.441772 
L 458.376366 410.263492 
L 464.355475 408.257876 
L 470.334584 410.463168 
L 476.313694 408.039452 
L 482.292803 410.703341 
L 488.271912 407.776279 
L 494.251022 410.991904 
L 500.230131 407.456939 
L 506.20924 411.346344 
L 512.188349 407.067539 
L 518.167459 411.772512 
L 524.146568 406.599195 
L 530.125677 412.290099 
L 536.104787 406.029289 
L 542.083896 412.917656 
L 548.063005 405.335821 
L 554.042114 413.679528 
L 560.021224 404.49929 
L 566.000333 414.598513 
L 571.979442 403.491212 
L 577.958551 415.707731 
L 583.937661 402.26834 
L 589.91677 417.053173 
L 595.895879 400.787722 
L 601.874989 418.679983 
L 607.854098 398.998654 
L 613.833207 420.650246 
L 619.812316 396.834453 
L 625.791426 423.031105 
L 631.770535 394.213537 
L 637.749644 425.912321 
L 643.728753 391.047857 
L 649.707863 429.395425 
L 655.686972 387.212844 
L 661.666081 433.614356 
L 667.645191 382.570268 
L 673.6243 438.720108 
L 679.603409 376.953912 
" clip-path="url(#p63bb918e7a)" style="fill: none; stroke: #2ca02c; stroke-width: 1.5; stroke-linecap: square"/>
   </g>
   <g id="line2d_32">
    <path d="M 87.671591 409.308122 
L 93.6507 409.307672 
L 99.629809 409.307089 
L 105.608919 409.30823 
L 111.588028 409.310689 
L 117.567137 409.306689 
L 123.546247 409.311231 
L 129.525356 409.304945 
L 135.504465 409.311555 
L 141.483574 409.306641 
L 147.462684 409.310645 
L 153.441793 409.309467 
L 159.420902 409.305413 
L 165.400011 409.312892 
L 171.379121 409.303788 
L 177.35823 409.314367 
L 183.337339 409.30048 
L 189.316449 409.321912 
L 195.295558 409.293978 
L 201.274667 409.324843 
L 207.253776 409.291429 
L 213.232886 409.324816 
L 219.211995 409.292129 
L 225.191104 409.325521 
L 231.170213 409.289432 
L 237.149323 409.327731 
L 243.128432 409.288582 
L 249.107541 409.331747 
L 255.086651 409.281439 
L 261.06576 409.337815 
L 267.044869 409.278846 
L 273.023978 409.342158 
L 279.003088 409.271085 
L 284.982197 409.348567 
L 290.961306 409.265681 
L 296.940416 409.36031 
L 302.919525 409.250906 
L 308.898634 409.373944 
L 314.877743 409.239834 
L 320.856853 409.388615 
L 326.835962 409.219321 
L 332.815071 409.406603 
L 338.79418 409.201141 
L 344.77329 409.424654 
L 350.752399 409.179951 
L 356.731508 409.447612 
L 362.710618 409.157834 
L 368.689727 409.474491 
L 374.668836 409.128614 
L 380.647945 409.506935 
L 386.627055 409.090811 
L 392.606164 409.547195 
L 398.585273 409.046071 
L 404.564382 409.596414 
L 410.543492 408.990913 
L 416.522601 409.654721 
L 422.50171 408.928349 
L 428.48082 409.728326 
L 434.459929 408.846517 
L 440.439038 409.818127 
L 446.418147 408.745826 
L 452.397257 409.928084 
L 458.376366 408.628037 
L 464.355475 410.057943 
L 470.334584 408.483207 
L 476.313694 410.216771 
L 482.292803 408.310599 
L 488.271912 410.403823 
L 494.251022 408.105173 
L 500.230131 410.63231 
L 506.20924 407.851506 
L 512.188349 410.913919 
L 518.167459 407.542002 
L 524.146568 411.253484 
L 530.125677 407.167952 
L 536.104787 411.664796 
L 542.083896 406.715709 
L 548.063005 412.159066 
L 554.042114 406.171751 
L 560.021224 412.75874 
L 566.000333 405.513798 
L 571.979442 413.483768 
L 577.958551 404.713638 
L 583.937661 414.364135 
L 589.91677 403.749109 
L 595.895879 415.423007 
L 601.874989 402.583978 
L 607.854098 416.707147 
L 613.833207 401.172424 
L 619.812316 418.259135 
L 625.791426 399.463134 
L 631.770535 420.138232 
L 637.749644 397.39453 
L 643.728753 422.413258 
L 649.707863 394.893767 
L 655.686972 425.165218 
L 661.666081 391.865527 
L 667.645191 428.494009 
L 673.6243 388.20445 
L 679.603409 432.523885 
" clip-path="url(#p63bb918e7a)" style="fill: none; stroke: #d62728; stroke-width: 1.5; stroke-linecap: square"/>
   </g>
   <g id="line2d_33">
    <path d="M 87.671591 409.309323 
L 93.6507 409.310034 
L 99.629809 409.305989 
L 105.608919 409.310575 
L 111.588028 409.305531 
L 117.567137 409.31217 
L 123.546247 409.302494 
L 129.525356 409.31606 
L 135.504465 409.298914 
L 141.483574 409.31931 
L 147.462684 409.297754 
L 153.441793 409.31961 
L 159.420902 409.295851 
L 165.400011 409.322067 
L 171.379121 409.293655 
L 177.35823 409.325093 
L 183.337339 409.286763 
L 189.316449 409.330787 
L 195.295558 409.283073 
L 201.274667 409.336502 
L 207.253776 409.276347 
L 213.232886 409.343273 
L 219.211995 409.270414 
L 225.191104 409.351069 
L 231.170213 409.262004 
L 237.149323 409.36475 
L 243.128432 409.246505 
L 249.107541 409.377654 
L 255.086651 409.230175 
L 261.06576 409.394833 
L 267.044869 409.215576 
L 273.023978 409.410999 
L 279.003088 409.197573 
L 284.982197 409.429993 
L 290.961306 409.174613 
L 296.940416 409.454501 
L 302.919525 409.149326 
L 308.898634 409.483744 
L 314.877743 409.118046 
L 320.856853 409.51712 
L 326.835962 409.078421 
L 332.815071 409.561026 
L 338.79418 409.030924 
L 344.77329 409.613398 
L 350.752399 408.970839 
L 356.731508 409.680573 
L 362.710618 408.899211 
L 368.689727 409.760602 
L 374.668836 408.812735 
L 380.647945 409.853896 
L 386.627055 408.707064 
L 392.606164 409.970681 
L 398.585273 408.580671 
L 404.564382 410.109946 
L 410.543492 408.427941 
L 416.522601 410.276865 
L 422.50171 408.245818 
L 428.48082 410.475676 
L 434.459929 408.02584 
L 440.439038 410.718516 
L 446.418147 407.75965 
L 452.397257 411.011407 
L 458.376366 407.434469 
L 464.355475 411.369545 
L 470.334584 407.043092 
L 476.313694 411.800268 
L 482.292803 406.569588 
L 488.271912 412.321899 
L 494.251022 405.992376 
L 500.230131 412.955211 
L 506.20924 405.2973 
L 512.188349 413.722532 
L 518.167459 404.452273 
L 524.146568 414.650525 
L 530.125677 403.436063 
L 536.104787 415.767176 
L 542.083896 402.204199 
L 548.063005 417.121579 
L 554.042114 400.716011 
L 560.021224 418.765352 
L 566.000333 398.905737 
L 571.979442 420.751294 
L 577.958551 396.724244 
L 583.937661 423.152898 
L 589.91677 394.07561 
L 595.895879 426.065357 
L 601.874989 390.875033 
L 607.854098 429.586524 
L 613.833207 387.006109 
L 619.812316 433.841599 
L 625.791426 382.322707 
L 631.770535 438.993696 
L 637.749644 376.655167 
L 643.728753 445.226963 
L 649.707863 369.798628 
L 655.686972 452.771518 
L 661.666081 361.498634 
L 667.645191 461.90257 
L 673.6243 351.458397 
L 679.603409 472.942676 
" clip-path="url(#p63bb918e7a)" style="fill: none; stroke: #9467bd; stroke-width: 1.5; stroke-linecap: square"/>
   </g>
   <g id="line2d_34">
    <path d="M 87.671591 409.307005 
L 93.6507 409.310439 
L 99.629809 409.308729 
L 105.608919 409.309547 
L 111.588028 409.307959 
L 117.567137 409.311766 
L 123.546247 409.306255 
L 129.525356 409.310167 
L 135.504465 409.304666 
L 141.483574 409.313571 
L 147.462684 409.301958 
L 153.441793 409.318859 
L 159.420902 409.296292 
L 165.400011 409.323377 
L 171.379121 409.291866 
L 177.35823 409.327386 
L 183.337339 409.285891 
L 189.316449 409.334927 
L 195.295558 409.278666 
L 201.274667 409.341955 
L 207.253776 409.27215 
L 213.232886 409.348975 
L 219.211995 409.26549 
L 225.191104 409.356038 
L 231.170213 409.25651 
L 237.149323 409.365521 
L 243.128432 409.245851 
L 249.107541 409.376386 
L 255.086651 409.232604 
L 261.06576 409.393814 
L 267.044869 409.213517 
L 273.023978 409.41502 
L 279.003088 409.190625 
L 284.982197 409.43741 
L 290.961306 409.169858 
L 296.940416 409.461068 
L 302.919525 409.141604 
L 308.898634 409.493463 
L 314.877743 409.103158 
L 320.856853 409.535591 
L 326.835962 409.060151 
L 332.815071 409.581772 
L 338.79418 409.007047 
L 344.77329 409.640523 
L 350.752399 408.941678 
L 356.731508 409.711389 
L 362.710618 408.868893 
L 368.689727 409.793091 
L 374.668836 408.776523 
L 380.647945 409.893139 
L 386.627055 408.669658 
L 392.606164 410.007492 
L 398.585273 408.538993 
L 404.564382 410.154933 
L 410.543492 408.375803 
L 416.522601 410.33105 
L 422.50171 408.182555 
L 428.48082 410.545779 
L 434.459929 407.947497 
L 440.439038 410.806028 
L 446.418147 407.66216 
L 452.397257 411.120956 
L 458.376366 407.316066 
L 464.355475 411.50247 
L 470.334584 406.895455 
L 476.313694 411.965658 
L 482.292803 406.385537 
L 488.271912 412.524021 
L 494.251022 405.771405 
L 500.230131 413.200316 
L 506.20924 405.022953 
L 512.188349 414.020705 
L 518.167459 404.127203 
L 524.146568 415.007773 
L 530.125677 403.040445 
L 536.104787 416.205133 
L 542.083896 401.724479 
L 548.063005 417.65046 
L 554.042114 400.133602 
L 560.021224 419.399598 
L 566.000333 398.206962 
L 571.979442 421.518274 
L 577.958551 395.879271 
L 583.937661 424.080122 
L 589.91677 393.058943 
L 595.895879 427.18395 
L 601.874989 389.646903 
L 607.854098 430.933975 
L 613.833207 385.520331 
L 619.812316 435.474708 
L 625.791426 380.527146 
L 631.770535 440.970079 
L 637.749644 374.481849 
L 643.728753 447.618213 
L 649.707863 367.169665 
L 655.686972 455.661439 
L 661.666081 358.323082 
L 667.645191 465.394396 
L 673.6243 347.613183 
L 679.603409 477.172621 
" clip-path="url(#p63bb918e7a)" style="fill: none; stroke: #8c564b; stroke-width: 1.5; stroke-linecap: square"/>
   </g>
   <g id="line2d_35">
    <path d="M 87.671591 409.308394 
L 93.6507 409.310395 
L 99.629809 409.308209 
L 105.608919 409.309602 
L 111.588028 409.306497 
L 117.567137 409.309475 
L 123.546247 409.3084 
L 129.525356 409.310597 
L 135.504465 409.305984 
L 141.483574 409.312745 
L 147.462684 409.304837 
L 153.441793 409.310687 
L 159.420902 409.305021 
L 165.400011 409.312288 
L 171.379121 409.306504 
L 177.35823 409.310574 
L 183.337339 409.304782 
L 189.316449 409.313376 
L 195.295558 409.301254 
L 201.274667 409.314678 
L 207.253776 409.299339 
L 213.232886 409.318311 
L 219.211995 409.297005 
L 225.191104 409.319164 
L 231.170213 409.296283 
L 237.149323 409.322918 
L 243.128432 409.293538 
L 249.107541 409.324794 
L 255.086651 409.292776 
L 261.06576 409.326223 
L 267.044869 409.287515 
L 273.023978 409.335175 
L 279.003088 409.276992 
L 284.982197 409.34163 
L 290.961306 409.272973 
L 296.940416 409.346945 
L 302.919525 409.266411 
L 308.898634 409.353103 
L 314.877743 409.258124 
L 320.856853 409.366283 
L 326.835962 409.244237 
L 332.815071 409.379713 
L 338.79418 409.230244 
L 344.77329 409.395913 
L 350.752399 409.20985 
L 356.731508 409.415613 
L 362.710618 409.192024 
L 368.689727 409.438891 
L 374.668836 409.165871 
L 380.647945 409.464926 
L 386.627055 409.136266 
L 392.606164 409.496226 
L 398.585273 409.100986 
L 404.564382 409.535473 
L 410.543492 409.05853 
L 416.522601 409.585819 
L 422.50171 409.003957 
L 428.48082 409.642065 
L 434.459929 408.941863 
L 440.439038 409.711228 
L 446.418147 408.866197 
L 452.397257 409.79683 
L 458.376366 408.771733 
L 464.355475 409.898671 
L 470.334584 408.66053 
L 476.313694 410.021837 
L 482.292803 408.525487 
L 488.271912 410.16829 
L 494.251022 408.363391 
L 500.230131 410.346081 
L 506.20924 408.165004 
L 512.188349 410.566676 
L 518.167459 407.92627 
L 524.146568 410.832381 
L 530.125677 407.634711 
L 536.104787 411.151996 
L 542.083896 407.278729 
L 548.063005 411.541274 
L 554.042114 406.852051 
L 560.021224 412.01423 
L 566.000333 406.334254 
L 571.979442 412.579005 
L 577.958551 405.710706 
L 583.937661 413.266506 
L 589.91677 404.954026 
L 595.895879 414.096099 
L 601.874989 404.042688 
L 607.854098 415.100991 
L 613.833207 402.936667 
L 619.812316 416.314025 
L 625.791426 401.605872 
L 631.770535 417.780541 
L 637.749644 399.989638 
L 643.728753 419.558578 
L 649.707863 398.034636 
L 655.686972 421.710032 
L 661.666081 395.665921 
L 667.645191 424.310732 
L 673.6243 392.805002 
L 679.603409 427.463864 
" clip-path="url(#p63bb918e7a)" style="fill: none; stroke: #e377c2; stroke-width: 1.5; stroke-linecap: square"/>
   </g>
   <g id="line2d_36">
    <path d="M 87.671591 409.308443 
L 93.6507 409.309468 
L 99.629809 409.310415 
L 105.608919 409.307109 
L 111.588028 409.309103 
L 117.567137 409.310011 
L 123.546247 409.305423 
L 129.525356 409.311337 
L 135.504465 409.30672 
L 141.483574 409.310882 
L 147.462684 409.303615 
L 153.441793 409.312945 
L 159.420902 409.303802 
L 165.400011 409.314241 
L 171.379121 409.302272 
L 177.35823 409.316347 
L 183.337339 409.303326 
L 189.316449 409.311241 
L 195.295558 409.305451 
L 201.274667 409.311444 
L 207.253776 409.305556 
L 213.232886 409.31308 
L 219.211995 409.303955 
L 225.191104 409.316176 
L 231.170213 409.296743 
L 237.149323 409.323546 
L 243.128432 409.293749 
L 249.107541 409.325611 
L 255.086651 409.287893 
L 261.06576 409.331351 
L 267.044869 409.285479 
L 273.023978 409.33209 
L 279.003088 409.281627 
L 284.982197 409.337434 
L 290.961306 409.275772 
L 296.940416 409.341006 
L 302.919525 409.269572 
L 308.898634 409.352587 
L 314.877743 409.2577 
L 320.856853 409.363993 
L 326.835962 409.246892 
L 332.815071 409.379089 
L 338.79418 409.231321 
L 344.77329 409.394859 
L 350.752399 409.212431 
L 356.731508 409.412726 
L 362.710618 409.197262 
L 368.689727 409.431101 
L 374.668836 409.172111 
L 380.647945 409.459022 
L 386.627055 409.142005 
L 392.606164 409.491307 
L 398.585273 409.107089 
L 404.564382 409.530676 
L 410.543492 409.066191 
L 416.522601 409.576978 
L 422.50171 409.012284 
L 428.48082 409.634513 
L 434.459929 408.950305 
L 440.439038 409.703375 
L 446.418147 408.874814 
L 452.397257 409.784142 
L 458.376366 408.786017 
L 464.355475 409.885508 
L 470.334584 408.672847 
L 476.313694 410.00824 
L 482.292803 408.538942 
L 488.271912 410.152734 
L 494.251022 408.380079 
L 500.230131 410.329521 
L 506.20924 408.187404 
L 512.188349 410.542251 
L 518.167459 407.950638 
L 524.146568 410.804757 
L 530.125677 407.662512 
L 536.104787 411.119137 
L 542.083896 407.316941 
L 548.063005 411.497817 
L 554.042114 406.899939 
L 560.021224 411.955838 
L 566.000333 406.398169 
L 571.979442 412.509859 
L 577.958551 405.787079 
L 583.937661 413.18392 
L 589.91677 405.044265 
L 595.895879 413.995771 
L 601.874989 404.152733 
L 607.854098 414.979268 
L 613.833207 403.07073 
L 619.812316 416.171355 
L 625.791426 401.762378 
L 631.770535 417.61053 
L 637.749644 400.178623 
L 643.728753 419.348937 
L 649.707863 398.264403 
L 655.686972 421.457747 
L 661.666081 395.94316 
L 667.645191 424.012313 
L 673.6243 393.135696 
L 679.603409 427.098684 
" clip-path="url(#p63bb918e7a)" style="fill: none; stroke: #7f7f7f; stroke-width: 1.5; stroke-linecap: square"/>
   </g>
   <g id="line2d_37">
    <path d="M 87.671591 409.306199 
L 93.6507 409.310462 
L 99.629809 409.306164 
L 105.608919 409.311154 
L 111.588028 409.305167 
L 117.567137 409.31206 
L 123.546247 409.306381 
L 129.525356 409.310965 
L 135.504465 409.307653 
L 141.483574 409.309512 
L 147.462684 409.308335 
L 153.441793 409.304963 
L 159.420902 409.312658 
L 165.400011 409.306302 
L 171.379121 409.311331 
L 177.35823 409.304789 
L 183.337339 409.310202 
L 189.316449 409.307744 
L 195.295558 409.311982 
L 201.274667 409.303613 
L 207.253776 409.316214 
L 213.232886 409.300893 
L 219.211995 409.317471 
L 225.191104 409.298945 
L 231.170213 409.318151 
L 237.149323 409.299146 
L 243.128432 409.319418 
L 249.107541 409.296718 
L 255.086651 409.321435 
L 261.06576 409.294326 
L 267.044869 409.323623 
L 273.023978 409.290766 
L 279.003088 409.327606 
L 284.982197 409.286988 
L 290.961306 409.334813 
L 296.940416 409.279683 
L 302.919525 409.339663 
L 308.898634 409.2733 
L 314.877743 409.348496 
L 320.856853 409.265729 
L 326.835962 409.356641 
L 332.815071 409.254921 
L 338.79418 409.366044 
L 344.77329 409.246036 
L 350.752399 409.376012 
L 356.731508 409.234251 
L 362.710618 409.390571 
L 368.689727 409.218753 
L 374.668836 409.406273 
L 380.647945 409.200652 
L 386.627055 409.423821 
L 392.606164 409.183169 
L 398.585273 409.445769 
L 404.564382 409.158527 
L 410.543492 409.475019 
L 416.522601 409.125551 
L 422.50171 409.509736 
L 428.48082 409.082836 
L 434.459929 409.55722 
L 440.439038 409.036859 
L 446.418147 409.607088 
L 452.397257 408.983464 
L 458.376366 409.666387 
L 464.355475 408.915005 
L 470.334584 409.740322 
L 476.313694 408.832197 
L 482.292803 409.833417 
L 488.271912 408.731529 
L 494.251022 409.944557 
L 500.230131 408.610786 
L 506.20924 410.075712 
L 512.188349 408.46674 
L 518.167459 410.235282 
L 524.146568 408.290783 
L 530.125677 410.427345 
L 536.104787 408.075192 
L 542.083896 410.667355 
L 548.063005 407.816828 
L 554.042114 410.949737 
L 560.021224 407.50332 
L 566.000333 411.294065 
L 571.979442 407.125273 
L 577.958551 411.710565 
L 583.937661 406.665866 
L 589.91677 412.213995 
L 595.895879 406.115682 
L 601.874989 412.821375 
L 607.854098 405.444212 
L 613.833207 413.56084 
L 619.812316 404.628456 
L 625.791426 414.457736 
L 631.770535 403.64461 
L 637.749644 415.538125 
L 643.728753 402.457031 
L 649.707863 416.848174 
L 655.686972 401.015726 
L 661.666081 418.429166 
L 667.645191 399.276493 
L 673.6243 420.345221 
L 679.603409 397.166882 
" clip-path="url(#p63bb918e7a)" style="fill: none; stroke: #bcbd22; stroke-width: 1.5; stroke-linecap: square"/>
   </g>
   <g id="line2d_38">
    <path d="M 87.671591 409.308299 
L 93.6507 409.309714 
L 99.629809 409.307139 
L 105.608919 409.309012 
L 111.588028 409.304462 
L 117.567137 409.311869 
L 123.546247 409.303207 
L 129.525356 409.315309 
L 135.504465 409.302801 
L 141.483574 409.314878 
L 147.462684 409.301524 
L 153.441793 409.318046 
L 159.420902 409.298476 
L 165.400011 409.319115 
L 171.379121 409.296472 
L 177.35823 409.321157 
L 183.337339 409.294333 
L 189.316449 409.325072 
L 195.295558 409.29127 
L 201.274667 409.329511 
L 207.253776 409.282835 
L 213.232886 409.336916 
L 219.211995 409.277795 
L 225.191104 409.343916 
L 231.170213 409.265212 
L 237.149323 409.357981 
L 243.128432 409.254939 
L 249.107541 409.36698 
L 255.086651 409.24345 
L 261.06576 409.37878 
L 267.044869 409.228604 
L 273.023978 409.395809 
L 279.003088 409.214297 
L 284.982197 409.412725 
L 290.961306 409.193582 
L 296.940416 409.431919 
L 302.919525 409.175104 
L 308.898634 409.453582 
L 314.877743 409.148837 
L 320.856853 409.48304 
L 326.835962 409.116868 
L 332.815071 409.520802 
L 338.79418 409.074013 
L 344.77329 409.56563 
L 350.752399 409.024361 
L 356.731508 409.621279 
L 362.710618 408.965575 
L 368.689727 409.688332 
L 374.668836 408.889624 
L 380.647945 409.768813 
L 386.627055 408.803853 
L 392.606164 409.864649 
L 398.585273 408.697662 
L 404.564382 409.982918 
L 410.543492 408.568109 
L 416.522601 410.124888 
L 422.50171 408.411316 
L 428.48082 410.296749 
L 434.459929 408.224145 
L 440.439038 410.49837 
L 446.418147 407.997913 
L 452.397257 410.751555 
L 458.376366 407.720924 
L 464.355475 411.054394 
L 470.334584 407.386382 
L 476.313694 411.4243 
L 482.292803 406.979637 
L 488.271912 411.871301 
L 494.251022 406.491688 
L 500.230131 412.406079 
L 506.20924 405.899374 
L 512.188349 413.054745 
L 518.167459 405.18969 
L 524.146568 413.838317 
L 530.125677 404.32654 
L 536.104787 414.787651 
L 542.083896 403.283912 
L 548.063005 415.937704 
L 554.042114 402.01778 
L 560.021224 417.328375 
L 566.000333 400.487833 
L 571.979442 419.01042 
L 577.958551 398.635006 
L 583.937661 421.048622 
L 589.91677 396.39207 
L 595.895879 423.516136 
L 601.874989 393.682186 
L 607.854098 426.495544 
L 613.833207 390.403893 
L 619.812316 430.102367 
L 625.791426 386.43302 
L 631.770535 434.471027 
L 637.749644 381.632237 
L 643.728753 439.754013 
L 649.707863 375.816597 
L 655.686972 446.15006 
L 661.666081 368.782866 
L 667.645191 453.88573 
L 673.6243 360.272676 
L 679.603409 463.247681 
" clip-path="url(#p63bb918e7a)" style="fill: none; stroke: #17becf; stroke-width: 1.5; stroke-linecap: square"/>
   </g>
   <g id="line2d_39">
    <path d="M 87.671591 409.308111 
L 93.6507 409.309617 
L 99.629809 409.306151 
L 105.608919 409.310433 
L 111.588028 409.306976 
L 117.567137 409.308709 
L 123.546247 409.308674 
L 129.525356 409.309829 
L 135.504465 409.308416 
L 141.483574 409.31031 
L 147.462684 409.307135 
L 153.441793 409.308301 
L 159.420902 409.310169 
L 165.400011 409.306579 
L 171.379121 409.311834 
L 177.35823 409.305441 
L 183.337339 409.314404 
L 189.316449 409.302552 
L 195.295558 409.315548 
L 201.274667 409.300118 
L 207.253776 409.317581 
L 213.232886 409.300568 
L 219.211995 409.315755 
L 225.191104 409.3004 
L 231.170213 409.317309 
L 237.149323 409.29903 
L 243.128432 409.319922 
L 249.107541 409.295804 
L 255.086651 409.321936 
L 261.06576 409.296625 
L 267.044869 409.3226 
L 273.023978 409.293589 
L 279.003088 409.324711 
L 284.982197 409.289029 
L 290.961306 409.331316 
L 296.940416 409.284377 
L 302.919525 409.336032 
L 308.898634 409.279658 
L 314.877743 409.340968 
L 320.856853 409.2718 
L 326.835962 409.350704 
L 332.815071 409.26162 
L 338.79418 409.362903 
L 344.77329 409.249729 
L 350.752399 409.373863 
L 356.731508 409.234218 
L 362.710618 409.39084 
L 368.689727 409.221533 
L 374.668836 409.407458 
L 380.647945 409.199799 
L 386.627055 409.427328 
L 392.606164 409.177415 
L 398.585273 409.45264 
L 404.564382 409.148355 
L 410.543492 409.485699 
L 416.522601 409.112404 
L 422.50171 409.526933 
L 428.48082 409.069828 
L 434.459929 409.574037 
L 440.439038 409.017039 
L 446.418147 409.629384 
L 452.397257 408.955557 
L 458.376366 409.696847 
L 464.355475 408.882957 
L 470.334584 409.777097 
L 476.313694 408.795563 
L 482.292803 409.87083 
L 488.271912 408.690612 
L 494.251022 409.989138 
L 500.230131 408.557548 
L 506.20924 410.136672 
L 512.188349 408.399455 
L 518.167459 410.310348 
L 524.146568 408.206777 
L 530.125677 410.519933 
L 536.104787 407.974986 
L 542.083896 410.771597 
L 548.063005 407.702775 
L 554.042114 411.074062 
L 560.021224 407.367448 
L 566.000333 411.444769 
L 571.979442 406.959767 
L 577.958551 411.893716 
L 583.937661 406.462365 
L 589.91677 412.438153 
L 595.895879 405.866052 
L 601.874989 413.093311 
L 607.854098 405.147751 
L 613.833207 413.887586 
L 619.812316 404.275076 
L 625.791426 414.846552 
L 631.770535 403.216598 
L 637.749644 416.009638 
L 643.728753 401.937222 
L 649.707863 417.419291 
L 655.686972 400.385594 
L 661.666081 419.123532 
L 667.645191 398.511038 
L 673.6243 421.188839 
L 679.603409 396.239851 
" clip-path="url(#p63bb918e7a)" style="fill: none; stroke: #1f77b4; stroke-width: 1.5; stroke-linecap: square"/>
   </g>
   <g id="line2d_40">
    <path d="M 87.671591 409.309624 
L 93.6507 409.308083 
L 99.629809 409.308338 
L 105.608919 409.308743 
L 111.588028 409.309754 
L 117.567137 409.307316 
L 123.546247 409.312374 
L 129.525356 409.302666 
L 135.504465 409.31544 
L 141.483574 409.299343 
L 147.462684 409.319592 
L 153.441793 409.297314 
L 159.420902 409.322191 
L 165.400011 409.292291 
L 171.379121 409.327631 
L 177.35823 409.286665 
L 183.337339 409.333315 
L 189.316449 409.284462 
L 195.295558 409.336028 
L 201.274667 409.280246 
L 207.253776 409.339732 
L 213.232886 409.276189 
L 219.211995 409.342816 
L 225.191104 409.271098 
L 231.170213 409.350122 
L 237.149323 409.261908 
L 243.128432 409.358467 
L 249.107541 409.253773 
L 255.086651 409.370097 
L 261.06576 409.24369 
L 267.044869 409.381057 
L 273.023978 409.229847 
L 279.003088 409.395059 
L 284.982197 409.214024 
L 290.961306 409.411566 
L 296.940416 409.19628 
L 302.919525 409.432235 
L 308.898634 409.170767 
L 314.877743 409.459683 
L 320.856853 409.142496 
L 326.835962 409.49224 
L 332.815071 409.10757 
L 338.79418 409.531042 
L 344.77329 409.064745 
L 350.752399 409.575668 
L 356.731508 409.015163 
L 362.710618 409.633462 
L 368.689727 408.948515 
L 374.668836 409.704194 
L 380.647945 408.875615 
L 386.627055 409.785561 
L 392.606164 408.783767 
L 398.585273 409.883278 
L 404.564382 408.678162 
L 410.543492 410.000569 
L 416.522601 408.545267 
L 422.50171 410.149233 
L 428.48082 408.384328 
L 434.459929 410.326896 
L 440.439038 408.188784 
L 446.418147 410.540449 
L 452.397257 407.952542 
L 458.376366 410.798575 
L 464.355475 407.670779 
L 470.334584 411.113239 
L 476.313694 407.323526 
L 482.292803 411.491723 
L 488.271912 406.906774 
L 494.251022 411.951109 
L 500.230131 406.401643 
L 506.20924 412.503906 
L 512.188349 405.793169 
L 518.167459 413.176147 
L 524.146568 405.055067 
L 530.125677 413.987744 
L 536.104787 404.159007 
L 542.083896 414.97343 
L 548.063005 403.077312 
L 554.042114 416.163757 
L 560.021224 401.766224 
L 566.000333 417.60218 
L 571.979442 400.184961 
L 577.958551 419.34447 
L 583.937661 398.269081 
L 589.91677 421.45575 
L 595.895879 395.945579 
L 601.874989 424.007712 
L 607.854098 393.138911 
L 613.833207 427.096353 
L 619.812316 389.742661 
L 625.791426 430.831763 
L 631.770535 385.631537 
L 637.749644 435.35395 
L 643.728753 380.655492 
L 649.707863 440.826348 
L 655.686972 374.641044 
L 661.666081 447.443106 
L 667.645191 367.361646 
L 673.6243 455.453636 
L 679.603409 358.546585 
" clip-path="url(#p63bb918e7a)" style="fill: none; stroke: #ff7f0e; stroke-width: 1.5; stroke-linecap: square"/>
   </g>
   <g id="line2d_41">
    <path d="M 87.671591 409.306702 
L 93.6507 409.309859 
L 99.629809 409.306954 
L 105.608919 409.312541 
L 111.588028 409.305007 
L 117.567137 409.311246 
L 123.546247 409.307309 
L 129.525356 409.313928 
L 135.504465 409.303086 
L 141.483574 409.31488 
L 147.462684 409.301478 
L 153.441793 409.315304 
L 159.420902 409.300235 
L 165.400011 409.317396 
L 171.379121 409.297072 
L 177.35823 409.323624 
L 183.337339 409.29129 
L 189.316449 409.326668 
L 195.295558 409.290635 
L 201.274667 409.330679 
L 207.253776 409.285461 
L 213.232886 409.33507 
L 219.211995 409.278314 
L 225.191104 409.342859 
L 231.170213 409.272233 
L 237.149323 409.349544 
L 243.128432 409.261829 
L 249.107541 409.360024 
L 255.086651 409.252306 
L 261.06576 409.370688 
L 267.044869 409.238301 
L 273.023978 409.387081 
L 279.003088 409.220233 
L 284.982197 409.405474 
L 290.961306 409.202282 
L 296.940416 409.421681 
L 302.919525 409.185838 
L 308.898634 409.44418 
L 314.877743 409.161362 
L 320.856853 409.469086 
L 326.835962 409.129451 
L 332.815071 409.503079 
L 338.79418 409.092777 
L 344.77329 409.546306 
L 350.752399 409.047683 
L 356.731508 409.598186 
L 362.710618 408.986904 
L 368.689727 409.661736 
L 374.668836 408.920906 
L 380.647945 409.733006 
L 386.627055 408.843252 
L 392.606164 409.81985 
L 398.585273 408.746487 
L 404.564382 409.925933 
L 410.543492 408.629627 
L 416.522601 410.057707 
L 422.50171 408.48446 
L 428.48082 410.213528 
L 434.459929 408.31322 
L 440.439038 410.402316 
L 446.418147 408.107123 
L 452.397257 410.63026 
L 458.376366 407.855734 
L 464.355475 410.905594 
L 470.334584 407.551854 
L 476.313694 411.23995 
L 482.292803 407.18243 
L 488.271912 411.646314 
L 494.251022 406.736688 
L 500.230131 412.139241 
L 506.20924 406.194894 
L 512.188349 412.734495 
L 518.167459 405.540642 
L 524.146568 413.453928 
L 530.125677 404.750249 
L 536.104787 414.325806 
L 542.083896 403.790701 
L 548.063005 415.377985 
L 554.042114 402.634355 
L 560.021224 416.65024 
L 566.000333 401.229854 
L 571.979442 418.193635 
L 577.958551 399.532518 
L 583.937661 420.061682 
L 589.91677 397.478401 
L 595.895879 422.322932 
L 601.874989 394.993825 
L 607.854098 425.05908 
L 613.833207 391.981234 
L 619.812316 428.366317 
L 625.791426 388.345961 
L 631.770535 432.367891 
L 637.749644 383.944541 
L 643.728753 437.208469 
L 649.707863 378.617001 
L 655.686972 443.072048 
L 661.666081 372.16817 
L 667.645191 450.163496 
L 673.6243 364.368035 
L 679.603409 458.742508 
" clip-path="url(#p63bb918e7a)" style="fill: none; stroke: #2ca02c; stroke-width: 1.5; stroke-linecap: square"/>
   </g>
   <g id="line2d_42">
    <path d="M 87.671591 409.308079 
L 93.6507 409.309328 
L 99.629809 409.308125 
L 105.608919 409.307619 
L 111.588028 409.309028 
L 117.567137 409.307784 
L 123.546247 409.311457 
L 129.525356 409.306038 
L 135.504465 409.310025 
L 141.483574 409.30697 
L 147.462684 409.30937 
L 153.441793 409.305019 
L 159.420902 409.310929 
L 165.400011 409.305889 
L 171.379121 409.312367 
L 177.35823 409.308397 
L 183.337339 409.309078 
L 189.316449 409.308573 
L 195.295558 409.308022 
L 201.274667 409.309469 
L 207.253776 409.308134 
L 213.232886 409.311857 
L 219.211995 409.306465 
L 225.191104 409.310207 
L 231.170213 409.304176 
L 237.149323 409.313613 
L 243.128432 409.302575 
L 249.107541 409.313751 
L 255.086651 409.304182 
L 261.06576 409.312888 
L 267.044869 409.305022 
L 273.023978 409.311194 
L 279.003088 409.305507 
L 284.982197 409.311536 
L 290.961306 409.306575 
L 296.940416 409.30973 
L 302.919525 409.304131 
L 308.898634 409.315069 
L 314.877743 409.302005 
L 320.856853 409.315492 
L 326.835962 409.299798 
L 332.815071 409.319142 
L 338.79418 409.301377 
L 344.77329 409.31444 
L 350.752399 409.300996 
L 356.731508 409.319653 
L 362.710618 409.297376 
L 368.689727 409.318519 
L 374.668836 409.295448 
L 380.647945 409.321612 
L 386.627055 409.294554 
L 392.606164 409.323918 
L 398.585273 409.291948 
L 404.564382 409.325169 
L 410.543492 409.291723 
L 416.522601 409.328406 
L 422.50171 409.285248 
L 428.48082 409.334351 
L 434.459929 409.278139 
L 440.439038 409.34314 
L 446.418147 409.270686 
L 452.397257 409.351726 
L 458.376366 409.261145 
L 464.355475 409.36308 
L 470.334584 409.249421 
L 476.313694 409.375912 
L 482.292803 409.23348 
L 488.271912 409.39012 
L 494.251022 409.221597 
L 500.230131 409.402238 
L 506.20924 409.201735 
L 512.188349 409.426076 
L 518.167459 409.180362 
L 524.146568 409.445292 
L 530.125677 409.160272 
L 536.104787 409.471725 
L 542.083896 409.12888 
L 548.063005 409.504209 
L 554.042114 409.09287 
L 560.021224 409.546669 
L 566.000333 409.048189 
L 571.979442 409.595575 
L 577.958551 408.994478 
L 583.937661 409.654055 
L 589.91677 408.929467 
L 595.895879 409.727951 
L 601.874989 408.84537 
L 607.854098 409.818917 
L 613.833207 408.749206 
L 619.812316 409.924189 
L 625.791426 408.631342 
L 631.770535 410.056278 
L 637.749644 408.485637 
L 643.728753 410.215473 
L 649.707863 408.308391 
L 655.686972 410.408015 
L 661.666081 408.099856 
L 667.645191 410.639365 
L 673.6243 407.844916 
L 679.603409 410.9177 
" clip-path="url(#p63bb918e7a)" style="fill: none; stroke: #d62728; stroke-width: 1.5; stroke-linecap: square"/>
   </g>
   <g id="line2d_43">
    <path d="M 87.671591 409.307828 
L 93.6507 409.30978 
L 99.629809 409.307207 
L 105.608919 409.311061 
L 111.588028 409.306418 
L 117.567137 409.314218 
L 123.546247 409.300911 
L 129.525356 409.316592 
L 135.504465 409.301 
L 141.483574 409.314022 
L 147.462684 409.302497 
L 153.441793 409.31691 
L 159.420902 409.298131 
L 165.400011 409.319496 
L 171.379121 409.296 
L 177.35823 409.323114 
L 183.337339 409.291934 
L 189.316449 409.327332 
L 195.295558 409.287131 
L 201.274667 409.335155 
L 207.253776 409.280055 
L 213.232886 409.337333 
L 219.211995 409.278174 
L 225.191104 409.342997 
L 231.170213 409.271451 
L 237.149323 409.351337 
L 243.128432 409.264997 
L 249.107541 409.356915 
L 255.086651 409.255239 
L 261.06576 409.367373 
L 267.044869 409.244169 
L 273.023978 409.379403 
L 279.003088 409.229131 
L 284.982197 409.396305 
L 290.961306 409.213006 
L 296.940416 409.414183 
L 302.919525 409.191559 
L 308.898634 409.435158 
L 314.877743 409.170352 
L 320.856853 409.460515 
L 326.835962 409.140965 
L 332.815071 409.494527 
L 338.79418 409.104044 
L 344.77329 409.535872 
L 350.752399 409.06133 
L 356.731508 409.580026 
L 362.710618 409.01062 
L 368.689727 409.63606 
L 374.668836 408.948416 
L 380.647945 409.706306 
L 386.627055 408.871189 
L 392.606164 409.791653 
L 398.585273 408.775087 
L 404.564382 409.897555 
L 410.543492 408.661048 
L 416.522601 410.022513 
L 422.50171 408.522409 
L 428.48082 410.173917 
L 434.459929 408.357548 
L 440.439038 410.353434 
L 446.418147 408.159232 
L 452.397257 410.572102 
L 458.376366 407.92026 
L 464.355475 410.83794 
L 470.334584 407.626155 
L 476.313694 411.159777 
L 482.292803 407.271332 
L 488.271912 411.549713 
L 494.251022 406.843054 
L 500.230131 412.023205 
L 506.20924 406.319612 
L 512.188349 412.596736 
L 518.167459 405.690568 
L 524.146568 413.289722 
L 530.125677 404.928885 
L 536.104787 414.128295 
L 542.083896 404.006232 
L 548.063005 415.14175 
L 554.042114 402.892085 
L 560.021224 416.365684 
L 566.000333 401.547708 
L 571.979442 417.846634 
L 577.958551 399.916051 
L 583.937661 419.637157 
L 589.91677 397.947396 
L 595.895879 421.805006 
L 601.874989 395.562714 
L 607.854098 424.426069 
L 613.833207 392.682079 
L 619.812316 427.597622 
L 625.791426 389.193183 
L 631.770535 431.439427 
L 637.749644 384.964226 
L 643.728753 436.087191 
L 649.707863 379.852585 
L 655.686972 441.710376 
L 661.666081 373.661854 
L 667.645191 448.520415 
L 673.6243 366.174811 
L 679.603409 456.756767 
" clip-path="url(#p63bb918e7a)" style="fill: none; stroke: #9467bd; stroke-width: 1.5; stroke-linecap: square"/>
   </g>
   <g id="line2d_44">
    <path d="M 87.671591 409.307332 
L 93.6507 409.310358 
L 99.629809 409.307296 
L 105.608919 409.307219 
L 111.588028 409.308295 
L 117.567137 409.308719 
L 123.546247 409.312024 
L 129.525356 409.305386 
L 135.504465 409.307954 
L 141.483574 409.309663 
L 147.462684 409.305721 
L 153.441793 409.309533 
L 159.420902 409.30723 
L 165.400011 409.311403 
L 171.379121 409.309275 
L 177.35823 409.306795 
L 183.337339 409.311839 
L 189.316449 409.30476 
L 195.295558 409.314751 
L 201.274667 409.302239 
L 207.253776 409.31554 
L 213.232886 409.300546 
L 219.211995 409.319177 
L 225.191104 409.295111 
L 231.170213 409.324355 
L 237.149323 409.293852 
L 243.128432 409.324987 
L 249.107541 409.290517 
L 255.086651 409.328239 
L 261.06576 409.284888 
L 267.044869 409.335044 
L 273.023978 409.279692 
L 279.003088 409.342099 
L 284.982197 409.270478 
L 290.961306 409.350245 
L 296.940416 409.263435 
L 302.919525 409.36122 
L 308.898634 409.248482 
L 314.877743 409.376622 
L 320.856853 409.234684 
L 326.835962 409.389349 
L 332.815071 409.221621 
L 338.79418 409.406581 
L 344.77329 409.204099 
L 350.752399 409.422433 
L 356.731508 409.184222 
L 362.710618 409.440888 
L 368.689727 409.164615 
L 374.668836 409.468402 
L 380.647945 409.133686 
L 386.627055 409.500625 
L 392.606164 409.098095 
L 398.585273 409.539205 
L 404.564382 409.056442 
L 410.543492 409.588104 
L 416.522601 409.00392 
L 422.50171 409.64718 
L 428.48082 408.936958 
L 434.459929 409.717866 
L 440.439038 408.859378 
L 446.418147 409.800818 
L 452.397257 408.765258 
L 458.376366 409.906789 
L 464.355475 408.65336 
L 470.334584 410.030235 
L 476.313694 408.515723 
L 482.292803 410.181775 
L 488.271912 408.349181 
L 494.251022 410.364966 
L 500.230131 408.14719 
L 506.20924 410.587129 
L 512.188349 407.901892 
L 518.167459 410.855417 
L 524.146568 407.608503 
L 530.125677 411.176737 
L 536.104787 407.255158 
L 542.083896 411.569881 
L 548.063005 406.820598 
L 554.042114 412.046661 
L 560.021224 406.296232 
L 566.000333 412.625914 
L 571.979442 405.657398 
L 577.958551 413.323879 
L 583.937661 404.894107 
L 589.91677 414.166822 
L 595.895879 403.961967 
L 601.874989 415.191031 
L 607.854098 402.83921 
L 613.833207 416.428426 
L 619.812316 401.477329 
L 625.791426 417.923346 
L 631.770535 399.831269 
L 637.749644 419.735821 
L 643.728753 397.841001 
L 649.707863 421.922257 
L 655.686972 395.432017 
L 661.666081 424.575264 
L 667.645191 392.513593 
L 673.6243 427.783044 
L 679.603409 388.985019 
" clip-path="url(#p63bb918e7a)" style="fill: none; stroke: #8c564b; stroke-width: 1.5; stroke-linecap: square"/>
   </g>
   <g id="line2d_45">
    <path d="M 87.671591 409.307897 
L 93.6507 409.313266 
L 99.629809 409.303697 
L 105.608919 409.31235 
L 111.588028 409.305851 
L 117.567137 409.312219 
L 123.546247 409.304887 
L 129.525356 409.31716 
L 135.504465 409.296597 
L 141.483574 409.323192 
L 147.462684 409.291763 
L 153.441793 409.32725 
L 159.420902 409.286137 
L 165.400011 409.332677 
L 171.379121 409.282473 
L 177.35823 409.338716 
L 183.337339 409.274235 
L 189.316449 409.349291 
L 195.295558 409.262837 
L 201.274667 409.360633 
L 207.253776 409.249424 
L 213.232886 409.37344 
L 219.211995 409.236276 
L 225.191104 409.388025 
L 231.170213 409.223936 
L 237.149323 409.403056 
L 243.128432 409.203654 
L 249.107541 409.423778 
L 255.086651 409.180075 
L 261.06576 409.44935 
L 267.044869 409.155264 
L 273.023978 409.478495 
L 279.003088 409.121552 
L 284.982197 409.517924 
L 290.961306 409.075753 
L 296.940416 409.564044 
L 302.919525 409.02571 
L 308.898634 409.622216 
L 314.877743 408.961694 
L 320.856853 409.686743 
L 326.835962 408.894679 
L 332.815071 409.762717 
L 338.79418 408.809065 
L 344.77329 409.86047 
L 350.752399 408.700777 
L 356.731508 409.975913 
L 362.710618 408.57548 
L 368.689727 410.113226 
L 374.668836 408.426083 
L 380.647945 410.281674 
L 386.627055 408.238003 
L 392.606164 410.486213 
L 398.585273 408.014328 
L 404.564382 410.731043 
L 410.543492 407.743087 
L 416.522601 411.029333 
L 422.50171 407.415979 
L 428.48082 411.389547 
L 434.459929 407.020242 
L 440.439038 411.822616 
L 446.418147 406.544434 
L 452.397257 412.345925 
L 458.376366 405.967484 
L 464.355475 412.985948 
L 470.334584 405.261398 
L 476.313694 413.760323 
L 482.292803 404.410385 
L 488.271912 414.694741 
L 494.251022 403.383318 
L 500.230131 415.82732 
L 506.20924 402.136495 
L 512.188349 417.19791 
L 518.167459 400.629295 
L 524.146568 418.859159 
L 530.125677 398.80229 
L 536.104787 420.866523 
L 542.083896 396.592325 
L 548.063005 423.295535 
L 554.042114 393.922596 
L 560.021224 426.232448 
L 566.000333 390.693905 
L 571.979442 429.782251 
L 577.958551 386.784502 
L 583.937661 434.084496 
L 589.91677 382.052652 
L 595.895879 439.291018 
L 601.874989 376.329167 
L 607.854098 445.585908 
L 613.833207 369.402885 
L 619.812316 453.205491 
L 625.791426 361.021184 
L 631.770535 462.424279 
L 637.749644 350.882891 
L 643.728753 473.576074 
L 649.707863 338.61304 
L 655.686972 487.073447 
L 661.666081 323.765483 
L 667.645191 503.407905 
L 673.6243 305.798636 
L 679.603409 523.171364 
" clip-path="url(#p63bb918e7a)" style="fill: none; stroke: #e377c2; stroke-width: 1.5; stroke-linecap: square"/>
   </g>
   <g id="line2d_46">
    <path d="M 87.671591 409.30951 
L 93.6507 409.308569 
L 99.629809 409.310085 
L 105.608919 409.307809 
L 111.588028 409.309796 
L 117.567137 409.305986 
L 123.546247 409.311967 
L 129.525356 409.307341 
L 135.504465 409.308218 
L 141.483574 409.310309 
L 147.462684 409.306806 
L 153.441793 409.309878 
L 159.420902 409.306881 
L 165.400011 409.308796 
L 171.379121 409.30764 
L 177.35823 409.310983 
L 183.337339 409.302608 
L 189.316449 409.314886 
L 195.295558 409.301908 
L 201.274667 409.314467 
L 207.253776 409.301756 
L 213.232886 409.315506 
L 219.211995 409.297147 
L 225.191104 409.321619 
L 231.170213 409.294766 
L 237.149323 409.323633 
L 243.128432 409.290404 
L 249.107541 409.330939 
L 255.086651 409.287059 
L 261.06576 409.333197 
L 267.044869 409.284063 
L 273.023978 409.336242 
L 279.003088 409.277412 
L 284.982197 409.344278 
L 290.961306 409.271554 
L 296.940416 409.349239 
L 302.919525 409.26256 
L 308.898634 409.361859 
L 314.877743 409.248743 
L 320.856853 409.373175 
L 326.835962 409.236089 
L 332.815071 409.386475 
L 338.79418 409.21953 
L 344.77329 409.407122 
L 350.752399 409.200052 
L 356.731508 409.428642 
L 362.710618 409.176546 
L 368.689727 409.451486 
L 374.668836 409.153499 
L 380.647945 409.480537 
L 386.627055 409.117337 
L 392.606164 409.517409 
L 398.585273 409.079467 
L 404.564382 409.559322 
L 410.543492 409.032274 
L 416.522601 409.610235 
L 422.50171 408.976681 
L 428.48082 409.672121 
L 434.459929 408.90464 
L 440.439038 409.752027 
L 446.418147 408.820749 
L 452.397257 409.844115 
L 458.376366 408.720093 
L 464.355475 409.952263 
L 470.334584 408.600288 
L 476.313694 410.08816 
L 482.292803 408.45237 
L 488.271912 410.248753 
L 494.251022 408.273087 
L 500.230131 410.448428 
L 506.20924 408.053894 
L 512.188349 410.691103 
L 518.167459 407.787556 
L 524.146568 410.981044 
L 530.125677 407.466269 
L 536.104787 411.33635 
L 542.083896 407.080045 
L 548.063005 411.761389 
L 554.042114 406.612592 
L 560.021224 412.272138 
L 566.000333 406.04631 
L 571.979442 412.896619 
L 577.958551 405.359887 
L 583.937661 413.651973 
L 589.91677 404.531032 
L 595.895879 414.564434 
L 601.874989 403.527657 
L 607.854098 415.670024 
L 613.833207 402.31062 
L 619.812316 417.006435 
L 625.791426 400.839825 
L 631.770535 418.624103 
L 637.749644 399.061793 
L 643.728753 420.581429 
L 649.707863 396.908372 
L 655.686972 422.947706 
L 661.666081 394.307346 
L 667.645191 425.80984 
L 673.6243 391.156871 
L 679.603409 429.276606 
" clip-path="url(#p63bb918e7a)" style="fill: none; stroke: #7f7f7f; stroke-width: 1.5; stroke-linecap: square"/>
   </g>
   <g id="line2d_47">
    <path d="M 87.671591 409.308697 
L 93.6507 409.308133 
L 99.629809 409.310861 
L 105.608919 409.305568 
L 111.588028 409.313314 
L 117.567137 409.301767 
L 123.546247 409.312499 
L 129.525356 409.305636 
L 135.504465 409.31103 
L 141.483574 409.307045 
L 147.462684 409.308697 
L 153.441793 409.310444 
L 159.420902 409.305824 
L 165.400011 409.312998 
L 171.379121 409.304078 
L 177.35823 409.315163 
L 183.337339 409.300105 
L 189.316449 409.319233 
L 195.295558 409.296046 
L 201.274667 409.322936 
L 207.253776 409.293002 
L 213.232886 409.325524 
L 219.211995 409.291156 
L 225.191104 409.327459 
L 231.170213 409.285486 
L 237.149323 409.335223 
L 243.128432 409.277499 
L 249.107541 409.340491 
L 255.086651 409.274776 
L 261.06576 409.34805 
L 267.044869 409.264733 
L 273.023978 409.357694 
L 279.003088 409.251704 
L 284.982197 409.371127 
L 290.961306 409.241055 
L 296.940416 409.384667 
L 302.919525 409.223237 
L 308.898634 409.403377 
L 314.877743 409.204273 
L 320.856853 409.421878 
L 326.835962 409.184737 
L 332.815071 409.444915 
L 338.79418 409.158674 
L 344.77329 409.472458 
L 350.752399 409.127439 
L 356.731508 409.508213 
L 362.710618 409.088923 
L 368.689727 409.550815 
L 374.668836 409.044443 
L 380.647945 409.59877 
L 386.627055 408.986484 
L 392.606164 409.664288 
L 398.585273 408.918532 
L 404.564382 409.739015 
L 410.543492 408.834019 
L 416.522601 409.829941 
L 422.50171 408.735365 
L 428.48082 409.940573 
L 434.459929 408.613283 
L 440.439038 410.075862 
L 446.418147 408.464385 
L 452.397257 410.235885 
L 458.376366 408.290516 
L 464.355475 410.430856 
L 470.334584 408.071673 
L 476.313694 410.67016 
L 482.292803 407.809123 
L 488.271912 410.958257 
L 494.251022 407.494222 
L 500.230131 411.303733 
L 506.20924 407.115315 
L 512.188349 411.721004 
L 518.167459 406.65554 
L 524.146568 412.229002 
L 530.125677 406.095632 
L 536.104787 412.843267 
L 542.083896 405.420704 
L 548.063005 413.587151 
L 554.042114 404.59973 
L 560.021224 414.486997 
L 566.000333 403.610869 
L 571.979442 415.576572 
L 577.958551 402.416498 
L 583.937661 416.88689 
L 589.91677 400.972571 
L 595.895879 418.479384 
L 601.874989 399.220089 
L 607.854098 420.404154 
L 613.833207 397.103521 
L 619.812316 422.732206 
L 625.791426 394.540955 
L 631.770535 425.554668 
L 637.749644 391.438962 
L 643.728753 428.963718 
L 649.707863 387.692157 
L 655.686972 433.086913 
L 661.666081 383.154662 
L 667.645191 438.078664 
L 673.6243 377.661987 
L 679.603409 444.120423 
" clip-path="url(#p63bb918e7a)" style="fill: none; stroke: #bcbd22; stroke-width: 1.5; stroke-linecap: square"/>
   </g>
   <g id="line2d_48">
    <path d="M 87.671591 409.308642 
L 93.6507 409.310245 
L 99.629809 409.303244 
L 105.608919 409.311601 
L 111.588028 409.30709 
L 117.567137 409.307811 
L 123.546247 409.31008 
L 129.525356 409.306767 
L 135.504465 409.310709 
L 141.483574 409.307295 
L 147.462684 409.30851 
L 153.441793 409.308499 
L 159.420902 409.309442 
L 165.400011 409.309684 
L 171.379121 409.308783 
L 177.35823 409.31093 
L 183.337339 409.306013 
L 189.316449 409.31329 
L 195.295558 409.303847 
L 201.274667 409.311707 
L 207.253776 409.303325 
L 213.232886 409.314448 
L 219.211995 409.302297 
L 225.191104 409.312623 
L 231.170213 409.303365 
L 237.149323 409.314861 
L 243.128432 409.303912 
L 249.107541 409.313143 
L 255.086651 409.302316 
L 261.06576 409.316484 
L 267.044869 409.299473 
L 273.023978 409.319196 
L 279.003088 409.297224 
L 284.982197 409.324954 
L 290.961306 409.290949 
L 296.940416 409.326513 
L 302.919525 409.289866 
L 308.898634 409.329121 
L 314.877743 409.28719 
L 320.856853 409.331589 
L 326.835962 409.283642 
L 332.815071 409.337501 
L 338.79418 409.274745 
L 344.77329 409.3444 
L 350.752399 409.27015 
L 356.731508 409.350121 
L 362.710618 409.262092 
L 368.689727 409.358762 
L 374.668836 409.256035 
L 380.647945 409.364861 
L 386.627055 409.247588 
L 392.606164 409.376261 
L 398.585273 409.230092 
L 404.564382 409.394488 
L 410.543492 409.214716 
L 416.522601 409.415276 
L 422.50171 409.189104 
L 428.48082 409.442119 
L 434.459929 409.163275 
L 440.439038 409.468965 
L 446.418147 409.130005 
L 452.397257 409.503855 
L 458.376366 409.094059 
L 464.355475 409.544114 
L 470.334584 409.050457 
L 476.313694 409.592336 
L 482.292803 408.996372 
L 488.271912 409.650549 
L 494.251022 408.930957 
L 500.230131 409.72324 
L 506.20924 408.853052 
L 512.188349 409.808552 
L 518.167459 408.75879 
L 524.146568 409.915058 
L 530.125677 408.642115 
L 536.104787 410.041599 
L 542.083896 408.50089 
L 548.063005 410.19736 
L 554.042114 408.332828 
L 560.021224 410.381857 
L 566.000333 408.127838 
L 571.979442 410.607147 
L 577.958551 407.878773 
L 583.937661 410.879831 
L 589.91677 407.581159 
L 595.895879 411.209732 
L 601.874989 407.218957 
L 607.854098 411.606122 
L 613.833207 406.779082 
L 619.812316 412.091552 
L 625.791426 406.247721 
L 631.770535 412.673295 
L 637.749644 405.606649 
L 643.728753 413.380067 
L 649.707863 404.831822 
L 655.686972 414.232002 
L 661.666081 403.894288 
L 667.645191 415.266091 
L 673.6243 402.755892 
L 679.603409 416.51748 
" clip-path="url(#p63bb918e7a)" style="fill: none; stroke: #17becf; stroke-width: 1.5; stroke-linecap: square"/>
   </g>
   <g id="patch_9">
    <path d="M 58.075 534.04 
L 58.075 294.93 
" style="fill: none; stroke: #000000; stroke-width: 0.8; stroke-linejoin: miter; stroke-linecap: square"/>
   </g>
   <g id="patch_10">
    <path d="M 709.2 534.04 
L 709.2 294.93 
" style="fill: none; stroke: #000000; stroke-width: 0.8; stroke-linejoin: miter; stroke-linecap: square"/>
   </g>
   <g id="patch_11">
    <path d="M 58.075 534.04 
L 709.2 534.04 
" style="fill: none; stroke: #000000; stroke-width: 0.8; stroke-linejoin: miter; stroke-linecap: square"/>
   </g>
   <g id="patch_12">
    <path d="M 58.075 294.93 
L 709.2 294.93 
" style="fill: none; stroke: #000000; stroke-width: 0.8; stroke-linejoin: miter; stroke-linecap: square"/>
   </g>
   <g id="text_24">
    <!-- Five Realizations of AR(1) Process with ϕ=-1.1 -->
    <g transform="translate(245.489375 288.93) scale(0.12 -0.12)">
     <defs>
      <path id="DejaVuSans-46" d="M 628 4666 
L 3309 4666 
L 3309 4134 
L 1259 4134 
L 1259 2759 
L 3109 2759 
L 3109 2228 
L 1259 2228 
L 1259 0 
L 628 0 
L 628 4666 
z
" transform="scale(0.015625)"/>
      <path id="DejaVuSans-76" d="M 191 3500 
L 800 3500 
L 1894 563 
L 2988 3500 
L 3597 3500 
L 2284 0 
L 1503 0 
L 191 3500 
z
" transform="scale(0.015625)"/>
     </defs>
     <use xlink:href="#DejaVuSans-46"/>
     <use xlink:href="#DejaVuSans-69" x="50.269531"/>
     <use xlink:href="#DejaVuSans-76" x="78.052734"/>
     <use xlink:href="#DejaVuSans-65" x="137.232422"/>
     <use xlink:href="#DejaVuSans-20" x="198.755859"/>
     <use xlink:href="#DejaVuSans-52" x="230.542969"/>
     <use xlink:href="#DejaVuSans-65" x="295.525391"/>
     <use xlink:href="#DejaVuSans-61" x="357.048828"/>
     <use xlink:href="#DejaVuSans-6c" x="418.328125"/>
     <use xlink:href="#DejaVuSans-69" x="446.111328"/>
     <use xlink:href="#DejaVuSans-7a" x="473.894531"/>
     <use xlink:href="#DejaVuSans-61" x="526.384766"/>
     <use xlink:href="#DejaVuSans-74" x="587.664062"/>
     <use xlink:href="#DejaVuSans-69" x="626.873047"/>
     <use xlink:href="#DejaVuSans-6f" x="654.65625"/>
     <use xlink:href="#DejaVuSans-6e" x="715.837891"/>
     <use xlink:href="#DejaVuSans-73" x="779.216797"/>
     <use xlink:href="#DejaVuSans-20" x="831.316406"/>
     <use xlink:href="#DejaVuSans-6f" x="863.103516"/>
     <use xlink:href="#DejaVuSans-66" x="924.285156"/>
     <use xlink:href="#DejaVuSans-20" x="959.490234"/>
     <use xlink:href="#DejaVuSans-41" x="991.277344"/>
     <use xlink:href="#DejaVuSans-52" x="1059.685547"/>
     <use xlink:href="#DejaVuSans-28" x="1129.167969"/>
     <use xlink:href="#DejaVuSans-31" x="1168.181641"/>
     <use xlink:href="#DejaVuSans-29" x="1231.804688"/>
     <use xlink:href="#DejaVuSans-20" x="1270.818359"/>
     <use xlink:href="#DejaVuSans-50" x="1302.605469"/>
     <use xlink:href="#DejaVuSans-72" x="1361.158203"/>
     <use xlink:href="#DejaVuSans-6f" x="1400.021484"/>
     <use xlink:href="#DejaVuSans-63" x="1461.203125"/>
     <use xlink:href="#DejaVuSans-65" x="1516.183594"/>
     <use xlink:href="#DejaVuSans-73" x="1577.707031"/>
     <use xlink:href="#DejaVuSans-73" x="1629.806641"/>
     <use xlink:href="#DejaVuSans-20" x="1681.90625"/>
     <use xlink:href="#DejaVuSans-77" x="1713.693359"/>
     <use xlink:href="#DejaVuSans-69" x="1795.480469"/>
     <use xlink:href="#DejaVuSans-74" x="1823.263672"/>
     <use xlink:href="#DejaVuSans-68" x="1862.472656"/>
     <use xlink:href="#DejaVuSans-20" x="1925.851562"/>
     <use xlink:href="#DejaVuSans-3d5" x="1957.638672"/>
     <use xlink:href="#DejaVuSans-3d" x="2023.605469"/>
     <use xlink:href="#DejaVuSans-2d" x="2107.394531"/>
     <use xlink:href="#DejaVuSans-31" x="2143.478516"/>
     <use xlink:href="#DejaVuSans-2e" x="2207.101562"/>
     <use xlink:href="#DejaVuSans-31" x="2238.888672"/>
    </g>
   </g>
  </g>
 </g>
 <defs>
  <clipPath id="p8bb4cc074b">
   <rect x="58.075" y="26.16" width="651.125" height="239.11"/>
  </clipPath>
  <clipPath id="p63bb918e7a">
   <rect x="58.075" y="294.93" width="651.125" height="239.11"/>
  </clipPath>
 </defs>
</svg>
