<?xml version="1.0" encoding="utf-8" standalone="no"?>
<!DOCTYPE svg PUBLIC "-//W3C//DTD SVG 1.1//EN"
  "http://www.w3.org/Graphics/SVG/1.1/DTD/svg11.dtd">
<svg xmlns:xlink="http://www.w3.org/1999/xlink" width="720pt" height="576pt" viewBox="0 0 720 576" xmlns="http://www.w3.org/2000/svg" version="1.1">
 <metadata>
  <rdf:RDF xmlns:dc="http://purl.org/dc/elements/1.1/" xmlns:cc="http://creativecommons.org/ns#" xmlns:rdf="http://www.w3.org/1999/02/22-rdf-syntax-ns#">
   <cc:Work>
    <dc:type rdf:resource="http://purl.org/dc/dcmitype/StillImage"/>
    <dc:date>2024-02-17T10:58:49.932495</dc:date>
    <dc:format>image/svg+xml</dc:format>
    <dc:creator>
     <cc:Agent>
      <dc:title>Matplotlib v3.8.2, https://matplotlib.org/</dc:title>
     </cc:Agent>
    </dc:creator>
   </cc:Work>
  </rdf:RDF>
 </metadata>
 <defs>
  <style type="text/css">*{stroke-linejoin: round; stroke-linecap: butt}</style>
 </defs>
 <g id="figure_1">
  <g id="patch_1">
   <path d="M 0 576 
L 720 576 
L 720 0 
L 0 0 
z
" style="fill: #ffffff"/>
  </g>
  <g id="axes_1">
   <g id="patch_2">
    <path d="M 49.75 265.27 
L 709.2 265.27 
L 709.2 26.16 
L 49.75 26.16 
z
" style="fill: #ffffff"/>
   </g>
   <g id="matplotlib.axis_1">
    <g id="xtick_1">
     <g id="line2d_1">
      <defs>
       <path id="me43b445c5a" d="M 0 0 
L 0 3.5 
" style="stroke: #000000; stroke-width: 0.8"/>
      </defs>
      <g>
       <use xlink:href="#me43b445c5a" x="79.725" y="265.27" style="stroke: #000000; stroke-width: 0.8"/>
      </g>
     </g>
    </g>
    <g id="xtick_2">
     <g id="line2d_2">
      <g>
       <use xlink:href="#me43b445c5a" x="200.836111" y="265.27" style="stroke: #000000; stroke-width: 0.8"/>
      </g>
     </g>
    </g>
    <g id="xtick_3">
     <g id="line2d_3">
      <g>
       <use xlink:href="#me43b445c5a" x="321.947222" y="265.27" style="stroke: #000000; stroke-width: 0.8"/>
      </g>
     </g>
    </g>
    <g id="xtick_4">
     <g id="line2d_4">
      <g>
       <use xlink:href="#me43b445c5a" x="443.058333" y="265.27" style="stroke: #000000; stroke-width: 0.8"/>
      </g>
     </g>
    </g>
    <g id="xtick_5">
     <g id="line2d_5">
      <g>
       <use xlink:href="#me43b445c5a" x="564.169444" y="265.27" style="stroke: #000000; stroke-width: 0.8"/>
      </g>
     </g>
    </g>
    <g id="xtick_6">
     <g id="line2d_6">
      <g>
       <use xlink:href="#me43b445c5a" x="685.280556" y="265.27" style="stroke: #000000; stroke-width: 0.8"/>
      </g>
     </g>
    </g>
   </g>
   <g id="matplotlib.axis_2">
    <g id="ytick_1">
     <g id="line2d_7">
      <defs>
       <path id="m32fd3cd415" d="M 0 0 
L -3.5 0 
" style="stroke: #000000; stroke-width: 0.8"/>
      </defs>
      <g>
       <use xlink:href="#m32fd3cd415" x="49.75" y="254.343409" style="stroke: #000000; stroke-width: 0.8"/>
      </g>
     </g>
     <g id="text_1">
      <!-- 0 -->
      <g transform="translate(36.3875 258.142628) scale(0.1 -0.1)">
       <defs>
        <path id="DejaVuSans-30" d="M 2034 4250 
Q 1547 4250 1301 3770 
Q 1056 3291 1056 2328 
Q 1056 1369 1301 889 
Q 1547 409 2034 409 
Q 2525 409 2770 889 
Q 3016 1369 3016 2328 
Q 3016 3291 2770 3770 
Q 2525 4250 2034 4250 
z
M 2034 4750 
Q 2819 4750 3233 4129 
Q 3647 3509 3647 2328 
Q 3647 1150 3233 529 
Q 2819 -91 2034 -91 
Q 1250 -91 836 529 
Q 422 1150 422 2328 
Q 422 3509 836 4129 
Q 1250 4750 2034 4750 
z
" transform="scale(0.015625)"/>
       </defs>
       <use xlink:href="#DejaVuSans-30"/>
      </g>
     </g>
    </g>
    <g id="ytick_2">
     <g id="line2d_8">
      <g>
       <use xlink:href="#m32fd3cd415" x="49.75" y="227.712802" style="stroke: #000000; stroke-width: 0.8"/>
      </g>
     </g>
     <g id="text_2">
      <!-- 10000 -->
      <g transform="translate(10.9375 231.512021) scale(0.1 -0.1)">
       <defs>
        <path id="DejaVuSans-31" d="M 794 531 
L 1825 531 
L 1825 4091 
L 703 3866 
L 703 4441 
L 1819 4666 
L 2450 4666 
L 2450 531 
L 3481 531 
L 3481 0 
L 794 0 
L 794 531 
z
" transform="scale(0.015625)"/>
       </defs>
       <use xlink:href="#DejaVuSans-31"/>
       <use xlink:href="#DejaVuSans-30" x="63.623047"/>
       <use xlink:href="#DejaVuSans-30" x="127.246094"/>
       <use xlink:href="#DejaVuSans-30" x="190.869141"/>
       <use xlink:href="#DejaVuSans-30" x="254.492188"/>
      </g>
     </g>
    </g>
    <g id="ytick_3">
     <g id="line2d_9">
      <g>
       <use xlink:href="#m32fd3cd415" x="49.75" y="201.082196" style="stroke: #000000; stroke-width: 0.8"/>
      </g>
     </g>
     <g id="text_3">
      <!-- 20000 -->
      <g transform="translate(10.9375 204.881415) scale(0.1 -0.1)">
       <defs>
        <path id="DejaVuSans-32" d="M 1228 531 
L 3431 531 
L 3431 0 
L 469 0 
L 469 531 
Q 828 903 1448 1529 
Q 2069 2156 2228 2338 
Q 2531 2678 2651 2914 
Q 2772 3150 2772 3378 
Q 2772 3750 2511 3984 
Q 2250 4219 1831 4219 
Q 1534 4219 1204 4116 
Q 875 4013 500 3803 
L 500 4441 
Q 881 4594 1212 4672 
Q 1544 4750 1819 4750 
Q 2544 4750 2975 4387 
Q 3406 4025 3406 3419 
Q 3406 3131 3298 2873 
Q 3191 2616 2906 2266 
Q 2828 2175 2409 1742 
Q 1991 1309 1228 531 
z
" transform="scale(0.015625)"/>
       </defs>
       <use xlink:href="#DejaVuSans-32"/>
       <use xlink:href="#DejaVuSans-30" x="63.623047"/>
       <use xlink:href="#DejaVuSans-30" x="127.246094"/>
       <use xlink:href="#DejaVuSans-30" x="190.869141"/>
       <use xlink:href="#DejaVuSans-30" x="254.492188"/>
      </g>
     </g>
    </g>
    <g id="ytick_4">
     <g id="line2d_10">
      <g>
       <use xlink:href="#m32fd3cd415" x="49.75" y="174.451589" style="stroke: #000000; stroke-width: 0.8"/>
      </g>
     </g>
     <g id="text_4">
      <!-- 30000 -->
      <g transform="translate(10.9375 178.250808) scale(0.1 -0.1)">
       <defs>
        <path id="DejaVuSans-33" d="M 2597 2516 
Q 3050 2419 3304 2112 
Q 3559 1806 3559 1356 
Q 3559 666 3084 287 
Q 2609 -91 1734 -91 
Q 1441 -91 1130 -33 
Q 819 25 488 141 
L 488 750 
Q 750 597 1062 519 
Q 1375 441 1716 441 
Q 2309 441 2620 675 
Q 2931 909 2931 1356 
Q 2931 1769 2642 2001 
Q 2353 2234 1838 2234 
L 1294 2234 
L 1294 2753 
L 1863 2753 
Q 2328 2753 2575 2939 
Q 2822 3125 2822 3475 
Q 2822 3834 2567 4026 
Q 2313 4219 1838 4219 
Q 1578 4219 1281 4162 
Q 984 4106 628 3988 
L 628 4550 
Q 988 4650 1302 4700 
Q 1616 4750 1894 4750 
Q 2613 4750 3031 4423 
Q 3450 4097 3450 3541 
Q 3450 3153 3228 2886 
Q 3006 2619 2597 2516 
z
" transform="scale(0.015625)"/>
       </defs>
       <use xlink:href="#DejaVuSans-33"/>
       <use xlink:href="#DejaVuSans-30" x="63.623047"/>
       <use xlink:href="#DejaVuSans-30" x="127.246094"/>
       <use xlink:href="#DejaVuSans-30" x="190.869141"/>
       <use xlink:href="#DejaVuSans-30" x="254.492188"/>
      </g>
     </g>
    </g>
    <g id="ytick_5">
     <g id="line2d_11">
      <g>
       <use xlink:href="#m32fd3cd415" x="49.75" y="147.820983" style="stroke: #000000; stroke-width: 0.8"/>
      </g>
     </g>
     <g id="text_5">
      <!-- 40000 -->
      <g transform="translate(10.9375 151.620201) scale(0.1 -0.1)">
       <defs>
        <path id="DejaVuSans-34" d="M 2419 4116 
L 825 1625 
L 2419 1625 
L 2419 4116 
z
M 2253 4666 
L 3047 4666 
L 3047 1625 
L 3713 1625 
L 3713 1100 
L 3047 1100 
L 3047 0 
L 2419 0 
L 2419 1100 
L 313 1100 
L 313 1709 
L 2253 4666 
z
" transform="scale(0.015625)"/>
       </defs>
       <use xlink:href="#DejaVuSans-34"/>
       <use xlink:href="#DejaVuSans-30" x="63.623047"/>
       <use xlink:href="#DejaVuSans-30" x="127.246094"/>
       <use xlink:href="#DejaVuSans-30" x="190.869141"/>
       <use xlink:href="#DejaVuSans-30" x="254.492188"/>
      </g>
     </g>
    </g>
    <g id="ytick_6">
     <g id="line2d_12">
      <g>
       <use xlink:href="#m32fd3cd415" x="49.75" y="121.190376" style="stroke: #000000; stroke-width: 0.8"/>
      </g>
     </g>
     <g id="text_6">
      <!-- 50000 -->
      <g transform="translate(10.9375 124.989595) scale(0.1 -0.1)">
       <defs>
        <path id="DejaVuSans-35" d="M 691 4666 
L 3169 4666 
L 3169 4134 
L 1269 4134 
L 1269 2991 
Q 1406 3038 1543 3061 
Q 1681 3084 1819 3084 
Q 2600 3084 3056 2656 
Q 3513 2228 3513 1497 
Q 3513 744 3044 326 
Q 2575 -91 1722 -91 
Q 1428 -91 1123 -41 
Q 819 9 494 109 
L 494 744 
Q 775 591 1075 516 
Q 1375 441 1709 441 
Q 2250 441 2565 725 
Q 2881 1009 2881 1497 
Q 2881 1984 2565 2268 
Q 2250 2553 1709 2553 
Q 1456 2553 1204 2497 
Q 953 2441 691 2322 
L 691 4666 
z
" transform="scale(0.015625)"/>
       </defs>
       <use xlink:href="#DejaVuSans-35"/>
       <use xlink:href="#DejaVuSans-30" x="63.623047"/>
       <use xlink:href="#DejaVuSans-30" x="127.246094"/>
       <use xlink:href="#DejaVuSans-30" x="190.869141"/>
       <use xlink:href="#DejaVuSans-30" x="254.492188"/>
      </g>
     </g>
    </g>
    <g id="ytick_7">
     <g id="line2d_13">
      <g>
       <use xlink:href="#m32fd3cd415" x="49.75" y="94.559769" style="stroke: #000000; stroke-width: 0.8"/>
      </g>
     </g>
     <g id="text_7">
      <!-- 60000 -->
      <g transform="translate(10.9375 98.358988) scale(0.1 -0.1)">
       <defs>
        <path id="DejaVuSans-36" d="M 2113 2584 
Q 1688 2584 1439 2293 
Q 1191 2003 1191 1497 
Q 1191 994 1439 701 
Q 1688 409 2113 409 
Q 2538 409 2786 701 
Q 3034 994 3034 1497 
Q 3034 2003 2786 2293 
Q 2538 2584 2113 2584 
z
M 3366 4563 
L 3366 3988 
Q 3128 4100 2886 4159 
Q 2644 4219 2406 4219 
Q 1781 4219 1451 3797 
Q 1122 3375 1075 2522 
Q 1259 2794 1537 2939 
Q 1816 3084 2150 3084 
Q 2853 3084 3261 2657 
Q 3669 2231 3669 1497 
Q 3669 778 3244 343 
Q 2819 -91 2113 -91 
Q 1303 -91 875 529 
Q 447 1150 447 2328 
Q 447 3434 972 4092 
Q 1497 4750 2381 4750 
Q 2619 4750 2861 4703 
Q 3103 4656 3366 4563 
z
" transform="scale(0.015625)"/>
       </defs>
       <use xlink:href="#DejaVuSans-36"/>
       <use xlink:href="#DejaVuSans-30" x="63.623047"/>
       <use xlink:href="#DejaVuSans-30" x="127.246094"/>
       <use xlink:href="#DejaVuSans-30" x="190.869141"/>
       <use xlink:href="#DejaVuSans-30" x="254.492188"/>
      </g>
     </g>
    </g>
    <g id="ytick_8">
     <g id="line2d_14">
      <g>
       <use xlink:href="#m32fd3cd415" x="49.75" y="67.929163" style="stroke: #000000; stroke-width: 0.8"/>
      </g>
     </g>
     <g id="text_8">
      <!-- 70000 -->
      <g transform="translate(10.9375 71.728382) scale(0.1 -0.1)">
       <defs>
        <path id="DejaVuSans-37" d="M 525 4666 
L 3525 4666 
L 3525 4397 
L 1831 0 
L 1172 0 
L 2766 4134 
L 525 4134 
L 525 4666 
z
" transform="scale(0.015625)"/>
       </defs>
       <use xlink:href="#DejaVuSans-37"/>
       <use xlink:href="#DejaVuSans-30" x="63.623047"/>
       <use xlink:href="#DejaVuSans-30" x="127.246094"/>
       <use xlink:href="#DejaVuSans-30" x="190.869141"/>
       <use xlink:href="#DejaVuSans-30" x="254.492188"/>
      </g>
     </g>
    </g>
    <g id="ytick_9">
     <g id="line2d_15">
      <g>
       <use xlink:href="#m32fd3cd415" x="49.75" y="41.298556" style="stroke: #000000; stroke-width: 0.8"/>
      </g>
     </g>
     <g id="text_9">
      <!-- 80000 -->
      <g transform="translate(10.9375 45.097775) scale(0.1 -0.1)">
       <defs>
        <path id="DejaVuSans-38" d="M 2034 2216 
Q 1584 2216 1326 1975 
Q 1069 1734 1069 1313 
Q 1069 891 1326 650 
Q 1584 409 2034 409 
Q 2484 409 2743 651 
Q 3003 894 3003 1313 
Q 3003 1734 2745 1975 
Q 2488 2216 2034 2216 
z
M 1403 2484 
Q 997 2584 770 2862 
Q 544 3141 544 3541 
Q 544 4100 942 4425 
Q 1341 4750 2034 4750 
Q 2731 4750 3128 4425 
Q 3525 4100 3525 3541 
Q 3525 3141 3298 2862 
Q 3072 2584 2669 2484 
Q 3125 2378 3379 2068 
Q 3634 1759 3634 1313 
Q 3634 634 3220 271 
Q 2806 -91 2034 -91 
Q 1263 -91 848 271 
Q 434 634 434 1313 
Q 434 1759 690 2068 
Q 947 2378 1403 2484 
z
M 1172 3481 
Q 1172 3119 1398 2916 
Q 1625 2713 2034 2713 
Q 2441 2713 2670 2916 
Q 2900 3119 2900 3481 
Q 2900 3844 2670 4047 
Q 2441 4250 2034 4250 
Q 1625 4250 1398 4047 
Q 1172 3844 1172 3481 
z
" transform="scale(0.015625)"/>
       </defs>
       <use xlink:href="#DejaVuSans-38"/>
       <use xlink:href="#DejaVuSans-30" x="63.623047"/>
       <use xlink:href="#DejaVuSans-30" x="127.246094"/>
       <use xlink:href="#DejaVuSans-30" x="190.869141"/>
       <use xlink:href="#DejaVuSans-30" x="254.492188"/>
      </g>
     </g>
    </g>
   </g>
   <g id="line2d_16">
    <path d="M 79.725 254.34931 
L 85.780556 254.388275 
L 91.836111 254.367227 
L 97.891667 254.339578 
L 103.947222 254.391054 
L 110.002778 254.369762 
L 116.058333 254.393982 
L 122.113889 254.376217 
L 128.169444 254.381321 
L 134.225 254.384346 
L 140.280556 254.393369 
L 146.336111 254.366085 
L 152.391667 254.401364 
L 158.447222 254.390972 
L 164.502778 254.366399 
L 170.558333 254.349622 
L 176.613889 254.288335 
L 182.669444 254.296913 
L 188.725 254.26677 
L 194.780556 254.261932 
L 200.836111 254.220938 
L 206.891667 254.208895 
L 212.947222 254.205773 
L 219.002778 254.157228 
L 225.058333 254.1517 
L 231.113889 254.170151 
L 237.169444 254.16659 
L 243.225 254.132422 
L 249.280556 254.074253 
L 255.336111 254.044378 
L 261.391667 253.97937 
L 267.447222 253.979135 
L 273.502778 253.954512 
L 279.558333 253.923308 
L 285.613889 253.884348 
L 291.669444 253.836203 
L 297.725 253.767083 
L 303.780556 253.721296 
L 309.836111 253.655382 
L 315.891667 253.587781 
L 321.947222 253.536875 
L 328.002778 253.459249 
L 334.058333 253.374658 
L 340.113889 253.28218 
L 346.169444 253.175211 
L 352.225 253.056376 
L 358.280556 252.939185 
L 364.336111 252.764869 
L 370.391667 252.638159 
L 376.447222 252.486834 
L 382.502778 252.227144 
L 388.558333 252.04316 
L 394.613889 251.849187 
L 400.669444 251.580205 
L 406.725 251.359199 
L 412.780556 251.067044 
L 418.836111 250.682263 
L 424.891667 250.357291 
L 430.947222 250.01146 
L 437.002778 249.618189 
L 443.058333 249.121743 
L 449.113889 248.569623 
L 455.169444 248.005895 
L 461.225 247.353949 
L 467.280556 246.61798 
L 473.336111 245.797839 
L 479.391667 244.949842 
L 485.447222 244.071774 
L 491.502778 243.066471 
L 497.558333 241.950144 
L 503.613889 240.717713 
L 509.669444 239.360146 
L 515.725 237.832023 
L 521.780556 236.146946 
L 527.836111 234.331871 
L 533.891667 232.301464 
L 539.947222 230.087745 
L 546.002778 227.66046 
L 552.058333 224.968024 
L 558.113889 222.028561 
L 564.169444 218.742275 
L 570.225 215.220468 
L 576.280556 211.321893 
L 582.336111 207.023111 
L 588.391667 202.279378 
L 594.447222 197.039208 
L 600.502778 191.309438 
L 606.558333 185.043915 
L 612.613889 178.091529 
L 618.669444 170.446237 
L 624.725 162.108232 
L 630.780556 152.884816 
L 636.836111 142.781303 
L 642.891667 131.642792 
L 648.947222 119.396773 
L 655.002778 105.880558 
L 661.058333 91.031162 
L 667.113889 74.734173 
L 673.169444 56.749813 
L 679.225 37.028636 
" clip-path="url(#pf1e4e55938)" style="fill: none; stroke: #1f77b4; stroke-width: 1.5; stroke-linecap: square"/>
   </g>
   <g id="patch_3">
    <path d="M 49.75 265.27 
L 49.75 26.16 
" style="fill: none; stroke: #000000; stroke-width: 0.8; stroke-linejoin: miter; stroke-linecap: square"/>
   </g>
   <g id="patch_4">
    <path d="M 709.2 265.27 
L 709.2 26.16 
" style="fill: none; stroke: #000000; stroke-width: 0.8; stroke-linejoin: miter; stroke-linecap: square"/>
   </g>
   <g id="patch_5">
    <path d="M 49.75 265.27 
L 709.2 265.27 
" style="fill: none; stroke: #000000; stroke-width: 0.8; stroke-linejoin: miter; stroke-linecap: square"/>
   </g>
   <g id="patch_6">
    <path d="M 49.75 26.16 
L 709.2 26.16 
" style="fill: none; stroke: #000000; stroke-width: 0.8; stroke-linejoin: miter; stroke-linecap: square"/>
   </g>
   <g id="text_10">
    <!-- One Realization of AR(1) Process with ϕ=1.1 -->
    <g transform="translate(246.325625 20.16) scale(0.12 -0.12)">
     <defs>
      <path id="DejaVuSans-4f" d="M 2522 4238 
Q 1834 4238 1429 3725 
Q 1025 3213 1025 2328 
Q 1025 1447 1429 934 
Q 1834 422 2522 422 
Q 3209 422 3611 934 
Q 4013 1447 4013 2328 
Q 4013 3213 3611 3725 
Q 3209 4238 2522 4238 
z
M 2522 4750 
Q 3503 4750 4090 4092 
Q 4678 3434 4678 2328 
Q 4678 1225 4090 567 
Q 3503 -91 2522 -91 
Q 1538 -91 948 565 
Q 359 1222 359 2328 
Q 359 3434 948 4092 
Q 1538 4750 2522 4750 
z
" transform="scale(0.015625)"/>
      <path id="DejaVuSans-6e" d="M 3513 2113 
L 3513 0 
L 2938 0 
L 2938 2094 
Q 2938 2591 2744 2837 
Q 2550 3084 2163 3084 
Q 1697 3084 1428 2787 
Q 1159 2491 1159 1978 
L 1159 0 
L 581 0 
L 581 3500 
L 1159 3500 
L 1159 2956 
Q 1366 3272 1645 3428 
Q 1925 3584 2291 3584 
Q 2894 3584 3203 3211 
Q 3513 2838 3513 2113 
z
" transform="scale(0.015625)"/>
      <path id="DejaVuSans-65" d="M 3597 1894 
L 3597 1613 
L 953 1613 
Q 991 1019 1311 708 
Q 1631 397 2203 397 
Q 2534 397 2845 478 
Q 3156 559 3463 722 
L 3463 178 
Q 3153 47 2828 -22 
Q 2503 -91 2169 -91 
Q 1331 -91 842 396 
Q 353 884 353 1716 
Q 353 2575 817 3079 
Q 1281 3584 2069 3584 
Q 2775 3584 3186 3129 
Q 3597 2675 3597 1894 
z
M 3022 2063 
Q 3016 2534 2758 2815 
Q 2500 3097 2075 3097 
Q 1594 3097 1305 2825 
Q 1016 2553 972 2059 
L 3022 2063 
z
" transform="scale(0.015625)"/>
      <path id="DejaVuSans-20" transform="scale(0.015625)"/>
      <path id="DejaVuSans-52" d="M 2841 2188 
Q 3044 2119 3236 1894 
Q 3428 1669 3622 1275 
L 4263 0 
L 3584 0 
L 2988 1197 
Q 2756 1666 2539 1819 
Q 2322 1972 1947 1972 
L 1259 1972 
L 1259 0 
L 628 0 
L 628 4666 
L 2053 4666 
Q 2853 4666 3247 4331 
Q 3641 3997 3641 3322 
Q 3641 2881 3436 2590 
Q 3231 2300 2841 2188 
z
M 1259 4147 
L 1259 2491 
L 2053 2491 
Q 2509 2491 2742 2702 
Q 2975 2913 2975 3322 
Q 2975 3731 2742 3939 
Q 2509 4147 2053 4147 
L 1259 4147 
z
" transform="scale(0.015625)"/>
      <path id="DejaVuSans-61" d="M 2194 1759 
Q 1497 1759 1228 1600 
Q 959 1441 959 1056 
Q 959 750 1161 570 
Q 1363 391 1709 391 
Q 2188 391 2477 730 
Q 2766 1069 2766 1631 
L 2766 1759 
L 2194 1759 
z
M 3341 1997 
L 3341 0 
L 2766 0 
L 2766 531 
Q 2569 213 2275 61 
Q 1981 -91 1556 -91 
Q 1019 -91 701 211 
Q 384 513 384 1019 
Q 384 1609 779 1909 
Q 1175 2209 1959 2209 
L 2766 2209 
L 2766 2266 
Q 2766 2663 2505 2880 
Q 2244 3097 1772 3097 
Q 1472 3097 1187 3025 
Q 903 2953 641 2809 
L 641 3341 
Q 956 3463 1253 3523 
Q 1550 3584 1831 3584 
Q 2591 3584 2966 3190 
Q 3341 2797 3341 1997 
z
" transform="scale(0.015625)"/>
      <path id="DejaVuSans-6c" d="M 603 4863 
L 1178 4863 
L 1178 0 
L 603 0 
L 603 4863 
z
" transform="scale(0.015625)"/>
      <path id="DejaVuSans-69" d="M 603 3500 
L 1178 3500 
L 1178 0 
L 603 0 
L 603 3500 
z
M 603 4863 
L 1178 4863 
L 1178 4134 
L 603 4134 
L 603 4863 
z
" transform="scale(0.015625)"/>
      <path id="DejaVuSans-7a" d="M 353 3500 
L 3084 3500 
L 3084 2975 
L 922 459 
L 3084 459 
L 3084 0 
L 275 0 
L 275 525 
L 2438 3041 
L 353 3041 
L 353 3500 
z
" transform="scale(0.015625)"/>
      <path id="DejaVuSans-74" d="M 1172 4494 
L 1172 3500 
L 2356 3500 
L 2356 3053 
L 1172 3053 
L 1172 1153 
Q 1172 725 1289 603 
Q 1406 481 1766 481 
L 2356 481 
L 2356 0 
L 1766 0 
Q 1100 0 847 248 
Q 594 497 594 1153 
L 594 3053 
L 172 3053 
L 172 3500 
L 594 3500 
L 594 4494 
L 1172 4494 
z
" transform="scale(0.015625)"/>
      <path id="DejaVuSans-6f" d="M 1959 3097 
Q 1497 3097 1228 2736 
Q 959 2375 959 1747 
Q 959 1119 1226 758 
Q 1494 397 1959 397 
Q 2419 397 2687 759 
Q 2956 1122 2956 1747 
Q 2956 2369 2687 2733 
Q 2419 3097 1959 3097 
z
M 1959 3584 
Q 2709 3584 3137 3096 
Q 3566 2609 3566 1747 
Q 3566 888 3137 398 
Q 2709 -91 1959 -91 
Q 1206 -91 779 398 
Q 353 888 353 1747 
Q 353 2609 779 3096 
Q 1206 3584 1959 3584 
z
" transform="scale(0.015625)"/>
      <path id="DejaVuSans-66" d="M 2375 4863 
L 2375 4384 
L 1825 4384 
Q 1516 4384 1395 4259 
Q 1275 4134 1275 3809 
L 1275 3500 
L 2222 3500 
L 2222 3053 
L 1275 3053 
L 1275 0 
L 697 0 
L 697 3053 
L 147 3053 
L 147 3500 
L 697 3500 
L 697 3744 
Q 697 4328 969 4595 
Q 1241 4863 1831 4863 
L 2375 4863 
z
" transform="scale(0.015625)"/>
      <path id="DejaVuSans-41" d="M 2188 4044 
L 1331 1722 
L 3047 1722 
L 2188 4044 
z
M 1831 4666 
L 2547 4666 
L 4325 0 
L 3669 0 
L 3244 1197 
L 1141 1197 
L 716 0 
L 50 0 
L 1831 4666 
z
" transform="scale(0.015625)"/>
      <path id="DejaVuSans-28" d="M 1984 4856 
Q 1566 4138 1362 3434 
Q 1159 2731 1159 2009 
Q 1159 1288 1364 580 
Q 1569 -128 1984 -844 
L 1484 -844 
Q 1016 -109 783 600 
Q 550 1309 550 2009 
Q 550 2706 781 3412 
Q 1013 4119 1484 4856 
L 1984 4856 
z
" transform="scale(0.015625)"/>
      <path id="DejaVuSans-29" d="M 513 4856 
L 1013 4856 
Q 1481 4119 1714 3412 
Q 1947 2706 1947 2009 
Q 1947 1309 1714 600 
Q 1481 -109 1013 -844 
L 513 -844 
Q 928 -128 1133 580 
Q 1338 1288 1338 2009 
Q 1338 2731 1133 3434 
Q 928 4138 513 4856 
z
" transform="scale(0.015625)"/>
      <path id="DejaVuSans-50" d="M 1259 4147 
L 1259 2394 
L 2053 2394 
Q 2494 2394 2734 2622 
Q 2975 2850 2975 3272 
Q 2975 3691 2734 3919 
Q 2494 4147 2053 4147 
L 1259 4147 
z
M 628 4666 
L 2053 4666 
Q 2838 4666 3239 4311 
Q 3641 3956 3641 3272 
Q 3641 2581 3239 2228 
Q 2838 1875 2053 1875 
L 1259 1875 
L 1259 0 
L 628 0 
L 628 4666 
z
" transform="scale(0.015625)"/>
      <path id="DejaVuSans-72" d="M 2631 2963 
Q 2534 3019 2420 3045 
Q 2306 3072 2169 3072 
Q 1681 3072 1420 2755 
Q 1159 2438 1159 1844 
L 1159 0 
L 581 0 
L 581 3500 
L 1159 3500 
L 1159 2956 
Q 1341 3275 1631 3429 
Q 1922 3584 2338 3584 
Q 2397 3584 2469 3576 
Q 2541 3569 2628 3553 
L 2631 2963 
z
" transform="scale(0.015625)"/>
      <path id="DejaVuSans-63" d="M 3122 3366 
L 3122 2828 
Q 2878 2963 2633 3030 
Q 2388 3097 2138 3097 
Q 1578 3097 1268 2742 
Q 959 2388 959 1747 
Q 959 1106 1268 751 
Q 1578 397 2138 397 
Q 2388 397 2633 464 
Q 2878 531 3122 666 
L 3122 134 
Q 2881 22 2623 -34 
Q 2366 -91 2075 -91 
Q 1284 -91 818 406 
Q 353 903 353 1747 
Q 353 2603 823 3093 
Q 1294 3584 2113 3584 
Q 2378 3584 2631 3529 
Q 2884 3475 3122 3366 
z
" transform="scale(0.015625)"/>
      <path id="DejaVuSans-73" d="M 2834 3397 
L 2834 2853 
Q 2591 2978 2328 3040 
Q 2066 3103 1784 3103 
Q 1356 3103 1142 2972 
Q 928 2841 928 2578 
Q 928 2378 1081 2264 
Q 1234 2150 1697 2047 
L 1894 2003 
Q 2506 1872 2764 1633 
Q 3022 1394 3022 966 
Q 3022 478 2636 193 
Q 2250 -91 1575 -91 
Q 1294 -91 989 -36 
Q 684 19 347 128 
L 347 722 
Q 666 556 975 473 
Q 1284 391 1588 391 
Q 1994 391 2212 530 
Q 2431 669 2431 922 
Q 2431 1156 2273 1281 
Q 2116 1406 1581 1522 
L 1381 1569 
Q 847 1681 609 1914 
Q 372 2147 372 2553 
Q 372 3047 722 3315 
Q 1072 3584 1716 3584 
Q 2034 3584 2315 3537 
Q 2597 3491 2834 3397 
z
" transform="scale(0.015625)"/>
      <path id="DejaVuSans-77" d="M 269 3500 
L 844 3500 
L 1563 769 
L 2278 3500 
L 2956 3500 
L 3675 769 
L 4391 3500 
L 4966 3500 
L 4050 0 
L 3372 0 
L 2619 2869 
L 1863 0 
L 1184 0 
L 269 3500 
z
" transform="scale(0.015625)"/>
      <path id="DejaVuSans-68" d="M 3513 2113 
L 3513 0 
L 2938 0 
L 2938 2094 
Q 2938 2591 2744 2837 
Q 2550 3084 2163 3084 
Q 1697 3084 1428 2787 
Q 1159 2491 1159 1978 
L 1159 0 
L 581 0 
L 581 4863 
L 1159 4863 
L 1159 2956 
Q 1366 3272 1645 3428 
Q 1925 3584 2291 3584 
Q 2894 3584 3203 3211 
Q 3513 2838 3513 2113 
z
" transform="scale(0.015625)"/>
      <path id="DejaVuSans-3d5" d="M 2388 4863 
L 2388 3572 
Q 3009 3572 3425 3094 
Q 3853 2606 3853 1747 
Q 3853 888 3425 400 
Q 3009 -78 2388 -78 
L 2388 -1331 
L 1816 -1331 
L 1816 -78 
Q 1194 -78 775 400 
Q 350 888 350 1747 
Q 350 2606 775 3094 
Q 1194 3572 1816 3572 
L 1816 4863 
L 2388 4863 
z
M 2388 434 
Q 2741 434 2981 756 
Q 3244 1116 3247 1747 
Q 3250 2372 2981 2738 
Q 2741 3059 2388 3059 
L 2388 434 
z
M 1816 434 
L 1816 3059 
Q 1463 3059 1225 2738 
Q 953 2372 956 1747 
Q 959 1116 1225 756 
Q 1463 434 1816 434 
z
" transform="scale(0.015625)"/>
      <path id="DejaVuSans-3d" d="M 678 2906 
L 4684 2906 
L 4684 2381 
L 678 2381 
L 678 2906 
z
M 678 1631 
L 4684 1631 
L 4684 1100 
L 678 1100 
L 678 1631 
z
" transform="scale(0.015625)"/>
      <path id="DejaVuSans-2e" d="M 684 794 
L 1344 794 
L 1344 0 
L 684 0 
L 684 794 
z
" transform="scale(0.015625)"/>
     </defs>
     <use xlink:href="#DejaVuSans-4f"/>
     <use xlink:href="#DejaVuSans-6e" x="78.710938"/>
     <use xlink:href="#DejaVuSans-65" x="142.089844"/>
     <use xlink:href="#DejaVuSans-20" x="203.613281"/>
     <use xlink:href="#DejaVuSans-52" x="235.400391"/>
     <use xlink:href="#DejaVuSans-65" x="300.382812"/>
     <use xlink:href="#DejaVuSans-61" x="361.90625"/>
     <use xlink:href="#DejaVuSans-6c" x="423.185547"/>
     <use xlink:href="#DejaVuSans-69" x="450.96875"/>
     <use xlink:href="#DejaVuSans-7a" x="478.751953"/>
     <use xlink:href="#DejaVuSans-61" x="531.242188"/>
     <use xlink:href="#DejaVuSans-74" x="592.521484"/>
     <use xlink:href="#DejaVuSans-69" x="631.730469"/>
     <use xlink:href="#DejaVuSans-6f" x="659.513672"/>
     <use xlink:href="#DejaVuSans-6e" x="720.695312"/>
     <use xlink:href="#DejaVuSans-20" x="784.074219"/>
     <use xlink:href="#DejaVuSans-6f" x="815.861328"/>
     <use xlink:href="#DejaVuSans-66" x="877.042969"/>
     <use xlink:href="#DejaVuSans-20" x="912.248047"/>
     <use xlink:href="#DejaVuSans-41" x="944.035156"/>
     <use xlink:href="#DejaVuSans-52" x="1012.443359"/>
     <use xlink:href="#DejaVuSans-28" x="1081.925781"/>
     <use xlink:href="#DejaVuSans-31" x="1120.939453"/>
     <use xlink:href="#DejaVuSans-29" x="1184.5625"/>
     <use xlink:href="#DejaVuSans-20" x="1223.576172"/>
     <use xlink:href="#DejaVuSans-50" x="1255.363281"/>
     <use xlink:href="#DejaVuSans-72" x="1313.916016"/>
     <use xlink:href="#DejaVuSans-6f" x="1352.779297"/>
     <use xlink:href="#DejaVuSans-63" x="1413.960938"/>
     <use xlink:href="#DejaVuSans-65" x="1468.941406"/>
     <use xlink:href="#DejaVuSans-73" x="1530.464844"/>
     <use xlink:href="#DejaVuSans-73" x="1582.564453"/>
     <use xlink:href="#DejaVuSans-20" x="1634.664062"/>
     <use xlink:href="#DejaVuSans-77" x="1666.451172"/>
     <use xlink:href="#DejaVuSans-69" x="1748.238281"/>
     <use xlink:href="#DejaVuSans-74" x="1776.021484"/>
     <use xlink:href="#DejaVuSans-68" x="1815.230469"/>
     <use xlink:href="#DejaVuSans-20" x="1878.609375"/>
     <use xlink:href="#DejaVuSans-3d5" x="1910.396484"/>
     <use xlink:href="#DejaVuSans-3d" x="1976.363281"/>
     <use xlink:href="#DejaVuSans-31" x="2060.152344"/>
     <use xlink:href="#DejaVuSans-2e" x="2123.775391"/>
     <use xlink:href="#DejaVuSans-31" x="2155.5625"/>
    </g>
   </g>
   <g id="legend_1">
    <g id="patch_7">
     <path d="M 56.75 48.838125 
L 235.55 48.838125 
Q 237.55 48.838125 237.55 46.838125 
L 237.55 33.16 
Q 237.55 31.16 235.55 31.16 
L 56.75 31.16 
Q 54.75 31.16 54.75 33.16 
L 54.75 46.838125 
Q 54.75 48.838125 56.75 48.838125 
z
" style="fill: #ffffff; opacity: 0.8; stroke: #cccccc; stroke-linejoin: miter"/>
    </g>
    <g id="line2d_17">
     <path d="M 58.75 39.258438 
L 68.75 39.258438 
L 78.75 39.258438 
" style="fill: none; stroke: #1f77b4; stroke-width: 1.5; stroke-linecap: square"/>
    </g>
    <g id="text_11">
     <!-- AR(1) with c=0, σ=10, ϕ=1.1 -->
     <g transform="translate(86.75 42.758438) scale(0.1 -0.1)">
      <defs>
       <path id="DejaVuSans-2c" d="M 750 794 
L 1409 794 
L 1409 256 
L 897 -744 
L 494 -744 
L 750 256 
L 750 794 
z
" transform="scale(0.015625)"/>
       <path id="DejaVuSans-3c3" d="M 1959 3044 
Q 1484 3044 1228 2700 
Q 959 2341 959 1747 
Q 959 1119 1226 758 
Q 1494 397 1959 397 
Q 2419 397 2687 759 
Q 2956 1122 2956 1747 
Q 2956 2319 2688 2700 
Q 2441 3044 1959 3044 
z
M 1959 3500 
L 3869 3500 
L 3869 2925 
L 3225 2925 
Q 3566 2438 3566 1747 
Q 3566 888 3138 400 
Q 2709 -91 1959 -91 
Q 1206 -91 781 400 
Q 353 888 353 1747 
Q 353 2613 781 3097 
Q 1134 3500 1959 3500 
z
" transform="scale(0.015625)"/>
      </defs>
      <use xlink:href="#DejaVuSans-41"/>
      <use xlink:href="#DejaVuSans-52" x="68.408203"/>
      <use xlink:href="#DejaVuSans-28" x="137.890625"/>
      <use xlink:href="#DejaVuSans-31" x="176.904297"/>
      <use xlink:href="#DejaVuSans-29" x="240.527344"/>
      <use xlink:href="#DejaVuSans-20" x="279.541016"/>
      <use xlink:href="#DejaVuSans-77" x="311.328125"/>
      <use xlink:href="#DejaVuSans-69" x="393.115234"/>
      <use xlink:href="#DejaVuSans-74" x="420.898438"/>
      <use xlink:href="#DejaVuSans-68" x="460.107422"/>
      <use xlink:href="#DejaVuSans-20" x="523.486328"/>
      <use xlink:href="#DejaVuSans-63" x="555.273438"/>
      <use xlink:href="#DejaVuSans-3d" x="610.253906"/>
      <use xlink:href="#DejaVuSans-30" x="694.042969"/>
      <use xlink:href="#DejaVuSans-2c" x="757.666016"/>
      <use xlink:href="#DejaVuSans-20" x="789.453125"/>
      <use xlink:href="#DejaVuSans-3c3" x="821.240234"/>
      <use xlink:href="#DejaVuSans-3d" x="884.619141"/>
      <use xlink:href="#DejaVuSans-31" x="968.408203"/>
      <use xlink:href="#DejaVuSans-30" x="1032.03125"/>
      <use xlink:href="#DejaVuSans-2c" x="1095.654297"/>
      <use xlink:href="#DejaVuSans-20" x="1127.441406"/>
      <use xlink:href="#DejaVuSans-3d5" x="1159.228516"/>
      <use xlink:href="#DejaVuSans-3d" x="1225.195312"/>
      <use xlink:href="#DejaVuSans-31" x="1308.984375"/>
      <use xlink:href="#DejaVuSans-2e" x="1372.607422"/>
      <use xlink:href="#DejaVuSans-31" x="1404.394531"/>
     </g>
    </g>
   </g>
  </g>
  <g id="axes_2">
   <g id="patch_8">
    <path d="M 49.75 534.04 
L 709.2 534.04 
L 709.2 294.93 
L 49.75 294.93 
z
" style="fill: #ffffff"/>
   </g>
   <g id="matplotlib.axis_3">
    <g id="xtick_7">
     <g id="line2d_18">
      <g>
       <use xlink:href="#me43b445c5a" x="79.725" y="534.04" style="stroke: #000000; stroke-width: 0.8"/>
      </g>
     </g>
     <g id="text_12">
      <!-- 0 -->
      <g transform="translate(76.54375 548.638438) scale(0.1 -0.1)">
       <use xlink:href="#DejaVuSans-30"/>
      </g>
     </g>
    </g>
    <g id="xtick_8">
     <g id="line2d_19">
      <g>
       <use xlink:href="#me43b445c5a" x="200.836111" y="534.04" style="stroke: #000000; stroke-width: 0.8"/>
      </g>
     </g>
     <g id="text_13">
      <!-- 20 -->
      <g transform="translate(194.473611 548.638438) scale(0.1 -0.1)">
       <use xlink:href="#DejaVuSans-32"/>
       <use xlink:href="#DejaVuSans-30" x="63.623047"/>
      </g>
     </g>
    </g>
    <g id="xtick_9">
     <g id="line2d_20">
      <g>
       <use xlink:href="#me43b445c5a" x="321.947222" y="534.04" style="stroke: #000000; stroke-width: 0.8"/>
      </g>
     </g>
     <g id="text_14">
      <!-- 40 -->
      <g transform="translate(315.584722 548.638438) scale(0.1 -0.1)">
       <use xlink:href="#DejaVuSans-34"/>
       <use xlink:href="#DejaVuSans-30" x="63.623047"/>
      </g>
     </g>
    </g>
    <g id="xtick_10">
     <g id="line2d_21">
      <g>
       <use xlink:href="#me43b445c5a" x="443.058333" y="534.04" style="stroke: #000000; stroke-width: 0.8"/>
      </g>
     </g>
     <g id="text_15">
      <!-- 60 -->
      <g transform="translate(436.695833 548.638438) scale(0.1 -0.1)">
       <use xlink:href="#DejaVuSans-36"/>
       <use xlink:href="#DejaVuSans-30" x="63.623047"/>
      </g>
     </g>
    </g>
    <g id="xtick_11">
     <g id="line2d_22">
      <g>
       <use xlink:href="#me43b445c5a" x="564.169444" y="534.04" style="stroke: #000000; stroke-width: 0.8"/>
      </g>
     </g>
     <g id="text_16">
      <!-- 80 -->
      <g transform="translate(557.806944 548.638438) scale(0.1 -0.1)">
       <use xlink:href="#DejaVuSans-38"/>
       <use xlink:href="#DejaVuSans-30" x="63.623047"/>
      </g>
     </g>
    </g>
    <g id="xtick_12">
     <g id="line2d_23">
      <g>
       <use xlink:href="#me43b445c5a" x="685.280556" y="534.04" style="stroke: #000000; stroke-width: 0.8"/>
      </g>
     </g>
     <g id="text_17">
      <!-- 100 -->
      <g transform="translate(675.736806 548.638438) scale(0.1 -0.1)">
       <use xlink:href="#DejaVuSans-31"/>
       <use xlink:href="#DejaVuSans-30" x="63.623047"/>
       <use xlink:href="#DejaVuSans-30" x="127.246094"/>
      </g>
     </g>
    </g>
    <g id="text_18">
     <!-- t -->
     <g transform="translate(377.514844 562.316562) scale(0.1 -0.1)">
      <use xlink:href="#DejaVuSans-74"/>
     </g>
    </g>
   </g>
   <g id="matplotlib.axis_4">
    <g id="ytick_10">
     <g id="line2d_24">
      <g>
       <use xlink:href="#m32fd3cd415" x="49.75" y="520.954671" style="stroke: #000000; stroke-width: 0.8"/>
      </g>
     </g>
     <g id="text_19">
      <!-- −1.0 -->
      <g transform="translate(18.467187 524.75389) scale(0.1 -0.1)">
       <defs>
        <path id="DejaVuSans-2212" d="M 678 2272 
L 4684 2272 
L 4684 1741 
L 678 1741 
L 678 2272 
z
" transform="scale(0.015625)"/>
       </defs>
       <use xlink:href="#DejaVuSans-2212"/>
       <use xlink:href="#DejaVuSans-31" x="83.789062"/>
       <use xlink:href="#DejaVuSans-2e" x="147.412109"/>
       <use xlink:href="#DejaVuSans-30" x="179.199219"/>
      </g>
     </g>
    </g>
    <g id="ytick_11">
     <g id="line2d_25">
      <g>
       <use xlink:href="#m32fd3cd415" x="49.75" y="492.194112" style="stroke: #000000; stroke-width: 0.8"/>
      </g>
     </g>
     <g id="text_20">
      <!-- −0.8 -->
      <g transform="translate(18.467187 495.993331) scale(0.1 -0.1)">
       <use xlink:href="#DejaVuSans-2212"/>
       <use xlink:href="#DejaVuSans-30" x="83.789062"/>
       <use xlink:href="#DejaVuSans-2e" x="147.412109"/>
       <use xlink:href="#DejaVuSans-38" x="179.199219"/>
      </g>
     </g>
    </g>
    <g id="ytick_12">
     <g id="line2d_26">
      <g>
       <use xlink:href="#m32fd3cd415" x="49.75" y="463.433553" style="stroke: #000000; stroke-width: 0.8"/>
      </g>
     </g>
     <g id="text_21">
      <!-- −0.6 -->
      <g transform="translate(18.467187 467.232772) scale(0.1 -0.1)">
       <use xlink:href="#DejaVuSans-2212"/>
       <use xlink:href="#DejaVuSans-30" x="83.789062"/>
       <use xlink:href="#DejaVuSans-2e" x="147.412109"/>
       <use xlink:href="#DejaVuSans-36" x="179.199219"/>
      </g>
     </g>
    </g>
    <g id="ytick_13">
     <g id="line2d_27">
      <g>
       <use xlink:href="#m32fd3cd415" x="49.75" y="434.672995" style="stroke: #000000; stroke-width: 0.8"/>
      </g>
     </g>
     <g id="text_22">
      <!-- −0.4 -->
      <g transform="translate(18.467187 438.472214) scale(0.1 -0.1)">
       <use xlink:href="#DejaVuSans-2212"/>
       <use xlink:href="#DejaVuSans-30" x="83.789062"/>
       <use xlink:href="#DejaVuSans-2e" x="147.412109"/>
       <use xlink:href="#DejaVuSans-34" x="179.199219"/>
      </g>
     </g>
    </g>
    <g id="ytick_14">
     <g id="line2d_28">
      <g>
       <use xlink:href="#m32fd3cd415" x="49.75" y="405.912436" style="stroke: #000000; stroke-width: 0.8"/>
      </g>
     </g>
     <g id="text_23">
      <!-- −0.2 -->
      <g transform="translate(18.467187 409.711655) scale(0.1 -0.1)">
       <use xlink:href="#DejaVuSans-2212"/>
       <use xlink:href="#DejaVuSans-30" x="83.789062"/>
       <use xlink:href="#DejaVuSans-2e" x="147.412109"/>
       <use xlink:href="#DejaVuSans-32" x="179.199219"/>
      </g>
     </g>
    </g>
    <g id="ytick_15">
     <g id="line2d_29">
      <g>
       <use xlink:href="#m32fd3cd415" x="49.75" y="377.151877" style="stroke: #000000; stroke-width: 0.8"/>
      </g>
     </g>
     <g id="text_24">
      <!-- 0.0 -->
      <g transform="translate(26.846875 380.951096) scale(0.1 -0.1)">
       <use xlink:href="#DejaVuSans-30"/>
       <use xlink:href="#DejaVuSans-2e" x="63.623047"/>
       <use xlink:href="#DejaVuSans-30" x="95.410156"/>
      </g>
     </g>
    </g>
    <g id="ytick_16">
     <g id="line2d_30">
      <g>
       <use xlink:href="#m32fd3cd415" x="49.75" y="348.391319" style="stroke: #000000; stroke-width: 0.8"/>
      </g>
     </g>
     <g id="text_25">
      <!-- 0.2 -->
      <g transform="translate(26.846875 352.190538) scale(0.1 -0.1)">
       <use xlink:href="#DejaVuSans-30"/>
       <use xlink:href="#DejaVuSans-2e" x="63.623047"/>
       <use xlink:href="#DejaVuSans-32" x="95.410156"/>
      </g>
     </g>
    </g>
    <g id="ytick_17">
     <g id="line2d_31">
      <g>
       <use xlink:href="#m32fd3cd415" x="49.75" y="319.63076" style="stroke: #000000; stroke-width: 0.8"/>
      </g>
     </g>
     <g id="text_26">
      <!-- 0.4 -->
      <g transform="translate(26.846875 323.429979) scale(0.1 -0.1)">
       <use xlink:href="#DejaVuSans-30"/>
       <use xlink:href="#DejaVuSans-2e" x="63.623047"/>
       <use xlink:href="#DejaVuSans-34" x="95.410156"/>
      </g>
     </g>
    </g>
    <g id="text_27">
     <!-- 1e6 -->
     <g transform="translate(49.75 291.93) scale(0.1 -0.1)">
      <use xlink:href="#DejaVuSans-31"/>
      <use xlink:href="#DejaVuSans-65" x="63.623047"/>
      <use xlink:href="#DejaVuSans-36" x="125.146484"/>
     </g>
    </g>
   </g>
   <g id="line2d_32">
    <path d="M 79.725 377.151403 
L 85.780556 377.152526 
L 91.836111 377.153117 
L 97.891667 377.152515 
L 103.947222 377.151829 
L 110.002778 377.149902 
L 116.058333 377.149822 
L 122.113889 377.149176 
L 128.169444 377.149536 
L 134.225 377.14904 
L 140.280556 377.148124 
L 146.336111 377.14789 
L 152.391667 377.150085 
L 158.447222 377.149429 
L 164.502778 377.14866 
L 170.558333 377.149317 
L 176.613889 377.150907 
L 182.669444 377.148688 
L 188.725 377.147663 
L 194.780556 377.14757 
L 200.836111 377.148775 
L 206.891667 377.149646 
L 212.947222 377.14755 
L 219.002778 377.146919 
L 225.058333 377.147215 
L 231.113889 377.146016 
L 237.169444 377.146601 
L 243.225 377.143915 
L 249.280556 377.141174 
L 255.336111 377.140774 
L 261.391667 377.140568 
L 267.447222 377.143202 
L 273.502778 377.144465 
L 279.558333 377.14565 
L 285.613889 377.144833 
L 291.669444 377.144598 
L 297.725 377.145804 
L 303.780556 377.145601 
L 309.836111 377.144247 
L 315.891667 377.142725 
L 321.947222 377.144541 
L 328.002778 377.143992 
L 334.058333 377.145193 
L 340.113889 377.143228 
L 346.169444 377.141235 
L 352.225 377.141462 
L 358.280556 377.141522 
L 364.336111 377.14115 
L 370.391667 377.143317 
L 376.447222 377.141978 
L 382.502778 377.14138 
L 388.558333 377.138935 
L 394.613889 377.139221 
L 400.669444 377.138845 
L 406.725 377.139708 
L 412.780556 377.139936 
L 418.836111 377.140441 
L 424.891667 377.137865 
L 430.947222 377.137468 
L 437.002778 377.135849 
L 443.058333 377.134794 
L 449.113889 377.134911 
L 455.169444 377.133456 
L 461.225 377.130752 
L 467.280556 377.130377 
L 473.336111 377.127063 
L 479.391667 377.125804 
L 485.447222 377.123891 
L 491.502778 377.120329 
L 497.558333 377.118128 
L 503.613889 377.114699 
L 509.669444 377.111434 
L 515.725 377.107203 
L 521.780556 377.10616 
L 527.836111 377.104219 
L 533.891667 377.098567 
L 539.947222 377.091745 
L 546.002778 377.087041 
L 552.058333 377.080908 
L 558.113889 377.073387 
L 564.169444 377.064541 
L 570.225 377.058724 
L 576.280556 377.050683 
L 582.336111 377.041041 
L 588.391667 377.028947 
L 594.447222 377.013061 
L 600.502778 376.999507 
L 606.558333 376.986293 
L 612.613889 376.969156 
L 618.669444 376.948984 
L 624.725 376.92854 
L 630.780556 376.90751 
L 636.836111 376.881695 
L 642.891667 376.853723 
L 648.947222 376.825383 
L 655.002778 376.792185 
L 661.058333 376.754782 
L 667.113889 376.713373 
L 673.169444 376.669618 
L 679.225 376.621907 
" clip-path="url(#pb736c42c1f)" style="fill: none; stroke: #1f77b4; stroke-width: 1.5; stroke-linecap: square"/>
   </g>
   <g id="line2d_33">
    <path d="M 79.725 377.150113 
L 85.780556 377.151676 
L 91.836111 377.151026 
L 97.891667 377.15291 
L 103.947222 377.151482 
L 110.002778 377.151813 
L 116.058333 377.149983 
L 122.113889 377.149086 
L 128.169444 377.150566 
L 134.225 377.148387 
L 140.280556 377.145807 
L 146.336111 377.143931 
L 152.391667 377.144232 
L 158.447222 377.143907 
L 164.502778 377.142901 
L 170.558333 377.143015 
L 176.613889 377.139695 
L 182.669444 377.138269 
L 188.725 377.140796 
L 194.780556 377.1392 
L 200.836111 377.138433 
L 206.891667 377.137196 
L 212.947222 377.136258 
L 219.002778 377.133536 
L 225.058333 377.130091 
L 231.113889 377.127506 
L 237.169444 377.125556 
L 243.225 377.122984 
L 249.280556 377.120066 
L 255.336111 377.118039 
L 261.391667 377.113823 
L 267.447222 377.109356 
L 273.502778 377.102888 
L 279.558333 377.096184 
L 285.613889 377.091601 
L 291.669444 377.084394 
L 297.725 377.079013 
L 303.780556 377.070726 
L 309.836111 377.063353 
L 315.891667 377.055972 
L 321.947222 377.045979 
L 328.002778 377.039235 
L 334.058333 377.030489 
L 340.113889 377.018605 
L 346.169444 377.00516 
L 352.225 376.991019 
L 358.280556 376.977204 
L 364.336111 376.960913 
L 370.391667 376.941254 
L 376.447222 376.919355 
L 382.502778 376.896126 
L 388.558333 376.868888 
L 394.613889 376.840017 
L 400.669444 376.809906 
L 406.725 376.776113 
L 412.780556 376.740553 
L 418.836111 376.699576 
L 424.891667 376.652747 
L 430.947222 376.601849 
L 437.002778 376.54483 
L 443.058333 376.48456 
L 449.113889 376.415893 
L 455.169444 376.342573 
L 461.225 376.259526 
L 467.280556 376.170322 
L 473.336111 376.07115 
L 479.391667 375.960956 
L 485.447222 375.842142 
L 491.502778 375.710854 
L 497.558333 375.564898 
L 503.613889 375.406391 
L 509.669444 375.233742 
L 515.725 375.038847 
L 521.780556 374.82822 
L 527.836111 374.595625 
L 533.891667 374.338338 
L 539.947222 374.057859 
L 546.002778 373.749906 
L 552.058333 373.409345 
L 558.113889 373.03767 
L 564.169444 372.626663 
L 570.225 372.173789 
L 576.280556 371.676369 
L 582.336111 371.131037 
L 588.391667 370.526661 
L 594.447222 369.86399 
L 600.502778 369.133143 
L 606.558333 368.331644 
L 612.613889 367.450886 
L 618.669444 366.4804 
L 624.725 365.413562 
L 630.780556 364.241424 
L 636.836111 362.948265 
L 642.891667 361.528799 
L 648.947222 359.969138 
L 655.002778 358.248954 
L 661.058333 356.359387 
L 667.113889 354.281012 
L 673.169444 351.996464 
L 679.225 349.478419 
" clip-path="url(#pb736c42c1f)" style="fill: none; stroke: #ff7f0e; stroke-width: 1.5; stroke-linecap: square"/>
   </g>
   <g id="line2d_34">
    <path d="M 79.725 377.153732 
L 85.780556 377.153833 
L 91.836111 377.152716 
L 97.891667 377.152194 
L 103.947222 377.152311 
L 110.002778 377.154802 
L 116.058333 377.156258 
L 122.113889 377.156426 
L 128.169444 377.158013 
L 134.225 377.158335 
L 140.280556 377.158 
L 146.336111 377.157228 
L 152.391667 377.159526 
L 158.447222 377.157132 
L 164.502778 377.156554 
L 170.558333 377.157024 
L 176.613889 377.155972 
L 182.669444 377.15298 
L 188.725 377.155159 
L 194.780556 377.155812 
L 200.836111 377.159625 
L 206.891667 377.160123 
L 212.947222 377.160422 
L 219.002778 377.161333 
L 225.058333 377.16322 
L 231.113889 377.167301 
L 237.169444 377.168306 
L 243.225 377.167856 
L 249.280556 377.170304 
L 255.336111 377.171514 
L 261.391667 377.175732 
L 267.447222 377.17746 
L 273.502778 377.180584 
L 279.558333 377.184552 
L 285.613889 377.188912 
L 291.669444 377.193182 
L 297.725 377.196762 
L 303.780556 377.203138 
L 309.836111 377.208835 
L 315.891667 377.21459 
L 321.947222 377.222442 
L 328.002778 377.226915 
L 334.058333 377.235646 
L 340.113889 377.244985 
L 346.169444 377.255703 
L 352.225 377.263499 
L 358.280556 377.273866 
L 364.336111 377.287412 
L 370.391667 377.299375 
L 376.447222 377.313836 
L 382.502778 377.329662 
L 388.558333 377.347936 
L 394.613889 377.368619 
L 400.669444 377.389808 
L 406.725 377.414385 
L 412.780556 377.438023 
L 418.836111 377.468463 
L 424.891667 377.497912 
L 430.947222 377.532676 
L 437.002778 377.570325 
L 443.058333 377.610972 
L 449.113889 377.657788 
L 455.169444 377.707136 
L 461.225 377.766555 
L 467.280556 377.829059 
L 473.336111 377.898106 
L 479.391667 377.974531 
L 485.447222 378.057105 
L 491.502778 378.147073 
L 497.558333 378.245583 
L 503.613889 378.354607 
L 509.669444 378.475837 
L 515.725 378.607702 
L 521.780556 378.753106 
L 527.836111 378.911883 
L 533.891667 379.086766 
L 539.947222 379.280211 
L 546.002778 379.494335 
L 552.058333 379.729519 
L 558.113889 379.988074 
L 564.169444 380.272147 
L 570.225 380.583789 
L 576.280556 380.925952 
L 582.336111 381.303432 
L 588.391667 381.718565 
L 594.447222 382.175027 
L 600.502778 382.678084 
L 606.558333 383.232036 
L 612.613889 383.842576 
L 618.669444 384.512645 
L 624.725 385.248042 
L 630.780556 386.058669 
L 636.836111 386.94969 
L 642.891667 387.928801 
L 648.947222 389.005744 
L 655.002778 390.192683 
L 661.058333 391.49533 
L 667.113889 392.928054 
L 673.169444 394.507297 
L 679.225 396.244023 
" clip-path="url(#pb736c42c1f)" style="fill: none; stroke: #2ca02c; stroke-width: 1.5; stroke-linecap: square"/>
   </g>
   <g id="line2d_35">
    <path d="M 79.725 377.150165 
L 85.780556 377.150205 
L 91.836111 377.153229 
L 97.891667 377.155377 
L 103.947222 377.156086 
L 110.002778 377.158179 
L 116.058333 377.159404 
L 122.113889 377.16011 
L 128.169444 377.15883 
L 134.225 377.159943 
L 140.280556 377.159208 
L 146.336111 377.157886 
L 152.391667 377.156424 
L 158.447222 377.15647 
L 164.502778 377.159752 
L 170.558333 377.159877 
L 176.613889 377.159169 
L 182.669444 377.160015 
L 188.725 377.15832 
L 194.780556 377.157728 
L 200.836111 377.157496 
L 206.891667 377.156495 
L 212.947222 377.156478 
L 219.002778 377.160522 
L 225.058333 377.162105 
L 231.113889 377.161406 
L 237.169444 377.16352 
L 243.225 377.165005 
L 249.280556 377.167821 
L 255.336111 377.16685 
L 261.391667 377.165929 
L 267.447222 377.168605 
L 273.502778 377.170066 
L 279.558333 377.172863 
L 285.613889 377.174078 
L 291.669444 377.175565 
L 297.725 377.176766 
L 303.780556 377.178778 
L 309.836111 377.177247 
L 315.891667 377.181262 
L 321.947222 377.18666 
L 328.002778 377.190704 
L 334.058333 377.196841 
L 340.113889 377.203484 
L 346.169444 377.210084 
L 352.225 377.217231 
L 358.280556 377.225139 
L 364.336111 377.23172 
L 370.391667 377.240433 
L 376.447222 377.249546 
L 382.502778 377.258027 
L 388.558333 377.269744 
L 394.613889 377.281911 
L 400.669444 377.294389 
L 406.725 377.311432 
L 412.780556 377.330817 
L 418.836111 377.348213 
L 424.891667 377.367139 
L 430.947222 377.385697 
L 437.002778 377.408851 
L 443.058333 377.43337 
L 449.113889 377.4618 
L 455.169444 377.492365 
L 461.225 377.524017 
L 467.280556 377.564285 
L 473.336111 377.604931 
L 479.391667 377.647165 
L 485.447222 377.696288 
L 491.502778 377.748356 
L 497.558333 377.808908 
L 503.613889 377.874658 
L 509.669444 377.946887 
L 515.725 378.029577 
L 521.780556 378.119027 
L 527.836111 378.217319 
L 533.891667 378.322682 
L 539.947222 378.438508 
L 546.002778 378.566705 
L 552.058333 378.707002 
L 558.113889 378.862751 
L 564.169444 379.03211 
L 570.225 379.220121 
L 576.280556 379.426862 
L 582.336111 379.654742 
L 588.391667 379.904044 
L 594.447222 380.179867 
L 600.502778 380.481261 
L 606.558333 380.815828 
L 612.613889 381.183803 
L 618.669444 381.586007 
L 624.725 382.029548 
L 630.780556 382.517967 
L 636.836111 383.053296 
L 642.891667 383.644312 
L 648.947222 384.293843 
L 655.002778 385.006027 
L 661.058333 385.789229 
L 667.113889 386.650703 
L 673.169444 387.600991 
L 679.225 388.644133 
" clip-path="url(#pb736c42c1f)" style="fill: none; stroke: #d62728; stroke-width: 1.5; stroke-linecap: square"/>
   </g>
   <g id="line2d_36">
    <path d="M 79.725 377.153242 
L 85.780556 377.154683 
L 91.836111 377.158343 
L 97.891667 377.156584 
L 103.947222 377.158297 
L 110.002778 377.159121 
L 116.058333 377.161155 
L 122.113889 377.161083 
L 128.169444 377.162543 
L 134.225 377.165486 
L 140.280556 377.166212 
L 146.336111 377.169707 
L 152.391667 377.172695 
L 158.447222 377.177806 
L 164.502778 377.182447 
L 170.558333 377.185247 
L 176.613889 377.191409 
L 182.669444 377.197492 
L 188.725 377.202057 
L 194.780556 377.207856 
L 200.836111 377.21059 
L 206.891667 377.213824 
L 212.947222 377.221266 
L 219.002778 377.227404 
L 225.058333 377.233879 
L 231.113889 377.242939 
L 237.169444 377.254195 
L 243.225 377.264445 
L 249.280556 377.27595 
L 255.336111 377.288984 
L 261.391667 377.302059 
L 267.447222 377.318156 
L 273.502778 377.336441 
L 279.558333 377.35474 
L 285.613889 377.374471 
L 291.669444 377.398423 
L 297.725 377.421743 
L 303.780556 377.451275 
L 309.836111 377.482046 
L 315.891667 377.515434 
L 321.947222 377.552705 
L 328.002778 377.5936 
L 334.058333 377.635082 
L 340.113889 377.684626 
L 346.169444 377.73439 
L 352.225 377.792013 
L 358.280556 377.855894 
L 364.336111 377.925611 
L 370.391667 377.999346 
L 376.447222 378.085522 
L 382.502778 378.180498 
L 388.558333 378.284445 
L 394.613889 378.397656 
L 400.669444 378.524715 
L 406.725 378.661967 
L 412.780556 378.81054 
L 418.836111 378.976189 
L 424.891667 379.159041 
L 430.947222 379.360646 
L 437.002778 379.580231 
L 443.058333 379.824254 
L 449.113889 380.088837 
L 455.169444 380.379752 
L 461.225 380.702171 
L 467.280556 381.057217 
L 473.336111 381.446268 
L 479.391667 381.874133 
L 485.447222 382.347518 
L 491.502778 382.867839 
L 497.558333 383.441337 
L 503.613889 384.069694 
L 509.669444 384.760517 
L 515.725 385.523323 
L 521.780556 386.361122 
L 527.836111 387.283983 
L 533.891667 388.298487 
L 539.947222 389.412355 
L 546.002778 390.639458 
L 552.058333 391.988648 
L 558.113889 393.474665 
L 564.169444 395.106675 
L 570.225 396.902219 
L 576.280556 398.878301 
L 582.336111 401.051215 
L 588.391667 403.44089 
L 594.447222 406.070963 
L 600.502778 408.964994 
L 606.558333 412.143709 
L 612.613889 415.643803 
L 618.669444 419.493135 
L 624.725 423.725807 
L 630.780556 428.378125 
L 636.836111 433.50254 
L 642.891667 439.136959 
L 648.947222 445.336485 
L 655.002778 452.15572 
L 661.058333 459.65714 
L 667.113889 467.909285 
L 673.169444 476.985085 
L 679.225 486.970527 
" clip-path="url(#pb736c42c1f)" style="fill: none; stroke: #9467bd; stroke-width: 1.5; stroke-linecap: square"/>
   </g>
   <g id="line2d_37">
    <path d="M 79.725 377.150516 
L 85.780556 377.150301 
L 91.836111 377.149536 
L 97.891667 377.149972 
L 103.947222 377.150309 
L 110.002778 377.149739 
L 116.058333 377.151199 
L 122.113889 377.151646 
L 128.169444 377.152859 
L 134.225 377.154238 
L 140.280556 377.157508 
L 146.336111 377.156145 
L 152.391667 377.157559 
L 158.447222 377.156454 
L 164.502778 377.155375 
L 170.558333 377.157574 
L 176.613889 377.159708 
L 182.669444 377.156809 
L 188.725 377.154785 
L 194.780556 377.155121 
L 200.836111 377.155075 
L 206.891667 377.156302 
L 212.947222 377.156123 
L 219.002778 377.157578 
L 225.058333 377.161071 
L 231.113889 377.163891 
L 237.169444 377.165062 
L 243.225 377.168007 
L 249.280556 377.169716 
L 255.336111 377.173046 
L 261.391667 377.176288 
L 267.447222 377.177502 
L 273.502778 377.179708 
L 279.558333 377.182505 
L 285.613889 377.184304 
L 291.669444 377.186856 
L 297.725 377.188273 
L 303.780556 377.192574 
L 309.836111 377.197262 
L 315.891667 377.203671 
L 321.947222 377.209467 
L 328.002778 377.213839 
L 334.058333 377.218166 
L 340.113889 377.223414 
L 346.169444 377.233147 
L 352.225 377.239717 
L 358.280556 377.251145 
L 364.336111 377.25978 
L 370.391667 377.271099 
L 376.447222 377.282011 
L 382.502778 377.29694 
L 388.558333 377.309762 
L 394.613889 377.327657 
L 400.669444 377.346197 
L 406.725 377.367064 
L 412.780556 377.391105 
L 418.836111 377.414892 
L 424.891667 377.438596 
L 430.947222 377.463433 
L 437.002778 377.494449 
L 443.058333 377.5271 
L 449.113889 377.564289 
L 455.169444 377.604813 
L 461.225 377.650598 
L 467.280556 377.70019 
L 473.336111 377.754248 
L 479.391667 377.815317 
L 485.447222 377.881772 
L 491.502778 377.954846 
L 497.558333 378.033954 
L 503.613889 378.123695 
L 509.669444 378.220951 
L 515.725 378.325109 
L 521.780556 378.440758 
L 527.836111 378.567706 
L 533.891667 378.709254 
L 539.947222 378.86453 
L 546.002778 379.034354 
L 552.058333 379.220357 
L 558.113889 379.430012 
L 564.169444 379.659717 
L 570.225 379.908618 
L 576.280556 380.18469 
L 582.336111 380.488937 
L 588.391667 380.824447 
L 594.447222 381.192502 
L 600.502778 381.598581 
L 606.558333 382.040244 
L 612.613889 382.529113 
L 618.669444 383.06692 
L 624.725 383.657579 
L 630.780556 384.306765 
L 636.836111 385.020894 
L 642.891667 385.806252 
L 648.947222 386.672596 
L 655.002778 387.625096 
L 661.058333 388.671312 
L 667.113889 389.824014 
L 673.169444 391.091235 
L 679.225 392.484598 
" clip-path="url(#pb736c42c1f)" style="fill: none; stroke: #8c564b; stroke-width: 1.5; stroke-linecap: square"/>
   </g>
   <g id="line2d_38">
    <path d="M 79.725 377.150748 
L 85.780556 377.153192 
L 91.836111 377.152295 
L 97.891667 377.152673 
L 103.947222 377.151736 
L 110.002778 377.150604 
L 116.058333 377.148165 
L 122.113889 377.145847 
L 128.169444 377.143307 
L 134.225 377.140374 
L 140.280556 377.138805 
L 146.336111 377.137452 
L 152.391667 377.134754 
L 158.447222 377.131989 
L 164.502778 377.130444 
L 170.558333 377.127719 
L 176.613889 377.125353 
L 182.669444 377.123929 
L 188.725 377.119278 
L 194.780556 377.115939 
L 200.836111 377.109399 
L 206.891667 377.107489 
L 212.947222 377.103851 
L 219.002778 377.099001 
L 225.058333 377.092078 
L 231.113889 377.085524 
L 237.169444 377.078442 
L 243.225 377.072719 
L 249.280556 377.066467 
L 255.336111 377.057462 
L 261.391667 377.049982 
L 267.447222 377.040558 
L 273.502778 377.028705 
L 279.558333 377.017801 
L 285.613889 377.002085 
L 291.669444 376.985345 
L 297.725 376.970952 
L 303.780556 376.9542 
L 309.836111 376.937719 
L 315.891667 376.917429 
L 321.947222 376.892882 
L 328.002778 376.867578 
L 334.058333 376.838485 
L 340.113889 376.809335 
L 346.169444 376.773933 
L 352.225 376.736937 
L 358.280556 376.695425 
L 364.336111 376.649914 
L 370.391667 376.601546 
L 376.447222 376.548171 
L 382.502778 376.486409 
L 388.558333 376.419288 
L 394.613889 376.344519 
L 400.669444 376.263316 
L 406.725 376.174255 
L 412.780556 376.078974 
L 418.836111 375.972073 
L 424.891667 375.854132 
L 430.947222 375.721548 
L 437.002778 375.577528 
L 443.058333 375.417884 
L 449.113889 375.243625 
L 455.169444 375.053823 
L 461.225 374.843849 
L 467.280556 374.612706 
L 473.336111 374.36014 
L 479.391667 374.081519 
L 485.447222 373.774779 
L 491.502778 373.43476 
L 497.558333 373.066041 
L 503.613889 372.655723 
L 509.669444 372.207454 
L 515.725 371.714985 
L 521.780556 371.169599 
L 527.836111 370.570319 
L 533.891667 369.910359 
L 539.947222 369.185056 
L 546.002778 368.385412 
L 552.058333 367.507962 
L 558.113889 366.543795 
L 564.169444 365.482494 
L 570.225 364.313767 
L 576.280556 363.031077 
L 582.336111 361.619934 
L 588.391667 360.067184 
L 594.447222 358.361741 
L 600.502778 356.482529 
L 606.558333 354.418306 
L 612.613889 352.144873 
L 618.669444 349.642928 
L 624.725 346.892719 
L 630.780556 343.864392 
L 636.836111 340.537743 
L 642.891667 336.874617 
L 648.947222 332.84592 
L 655.002778 328.417792 
L 661.058333 323.540485 
L 667.113889 318.179437 
L 673.169444 312.283455 
L 679.225 305.798636 
" clip-path="url(#pb736c42c1f)" style="fill: none; stroke: #e377c2; stroke-width: 1.5; stroke-linecap: square"/>
   </g>
   <g id="line2d_39">
    <path d="M 79.725 377.152194 
L 85.780556 377.152409 
L 91.836111 377.152314 
L 97.891667 377.152786 
L 103.947222 377.151966 
L 110.002778 377.152533 
L 116.058333 377.155381 
L 122.113889 377.155946 
L 128.169444 377.159757 
L 134.225 377.160036 
L 140.280556 377.162261 
L 146.336111 377.163064 
L 152.391667 377.162293 
L 158.447222 377.164699 
L 164.502778 377.164455 
L 170.558333 377.166336 
L 176.613889 377.165261 
L 182.669444 377.167124 
L 188.725 377.169857 
L 194.780556 377.170667 
L 200.836111 377.173173 
L 206.891667 377.176512 
L 212.947222 377.179663 
L 219.002778 377.182506 
L 225.058333 377.183638 
L 231.113889 377.189596 
L 237.169444 377.193334 
L 243.225 377.196581 
L 249.280556 377.200774 
L 255.336111 377.20378 
L 261.391667 377.209077 
L 267.447222 377.215062 
L 273.502778 377.220529 
L 279.558333 377.227251 
L 285.613889 377.23535 
L 291.669444 377.242955 
L 297.725 377.253001 
L 303.780556 377.263992 
L 309.836111 377.275963 
L 315.891667 377.286426 
L 321.947222 377.304512 
L 328.002778 377.319207 
L 334.058333 377.335891 
L 340.113889 377.356709 
L 346.169444 377.376747 
L 352.225 377.39855 
L 358.280556 377.422369 
L 364.336111 377.453232 
L 370.391667 377.481402 
L 376.447222 377.515415 
L 382.502778 377.550782 
L 388.558333 377.589607 
L 394.613889 377.63464 
L 400.669444 377.681967 
L 406.725 377.73553 
L 412.780556 377.796874 
L 418.836111 377.859695 
L 424.891667 377.931591 
L 430.947222 378.010791 
L 437.002778 378.097262 
L 443.058333 378.191409 
L 449.113889 378.295444 
L 455.169444 378.409013 
L 461.225 378.536653 
L 467.280556 378.676198 
L 473.336111 378.828797 
L 479.391667 378.993759 
L 485.447222 379.178111 
L 491.502778 379.379174 
L 497.558333 379.601848 
L 503.613889 379.847541 
L 509.669444 380.117462 
L 515.725 380.414263 
L 521.780556 380.739633 
L 527.836111 381.096432 
L 533.891667 381.49037 
L 539.947222 381.922513 
L 546.002778 382.400964 
L 552.058333 382.926468 
L 558.113889 383.504969 
L 564.169444 384.139826 
L 570.225 384.839137 
L 576.280556 385.606814 
L 582.336111 386.453646 
L 588.391667 387.383761 
L 594.447222 388.405962 
L 600.502778 389.53434 
L 606.558333 390.769535 
L 612.613889 392.131708 
L 618.669444 393.632604 
L 624.725 395.280449 
L 630.780556 397.093258 
L 636.836111 399.087514 
L 642.891667 401.279652 
L 648.947222 403.691355 
L 655.002778 406.344874 
L 661.058333 409.263526 
L 667.113889 412.474841 
L 673.169444 416.004584 
L 679.225 419.891982 
" clip-path="url(#pb736c42c1f)" style="fill: none; stroke: #7f7f7f; stroke-width: 1.5; stroke-linecap: square"/>
   </g>
   <g id="line2d_40">
    <path d="M 79.725 377.151677 
L 85.780556 377.151563 
L 91.836111 377.150362 
L 97.891667 377.151424 
L 103.947222 377.153886 
L 110.002778 377.153861 
L 116.058333 377.153655 
L 122.113889 377.151691 
L 128.169444 377.153499 
L 134.225 377.152001 
L 140.280556 377.148609 
L 146.336111 377.148825 
L 152.391667 377.150377 
L 158.447222 377.150812 
L 164.502778 377.150685 
L 170.558333 377.149755 
L 176.613889 377.150393 
L 182.669444 377.148008 
L 188.725 377.149224 
L 194.780556 377.15146 
L 200.836111 377.149827 
L 206.891667 377.152893 
L 212.947222 377.153288 
L 219.002778 377.148946 
L 225.058333 377.14867 
L 231.113889 377.149961 
L 237.169444 377.149851 
L 243.225 377.149722 
L 249.280556 377.149275 
L 255.336111 377.148063 
L 261.391667 377.149176 
L 267.447222 377.146479 
L 273.502778 377.145586 
L 279.558333 377.143912 
L 285.613889 377.144019 
L 291.669444 377.141383 
L 297.725 377.140703 
L 303.780556 377.139187 
L 309.836111 377.139259 
L 315.891667 377.139431 
L 321.947222 377.137197 
L 328.002778 377.136367 
L 334.058333 377.136044 
L 340.113889 377.135385 
L 346.169444 377.132731 
L 352.225 377.131721 
L 358.280556 377.129874 
L 364.336111 377.127652 
L 370.391667 377.127987 
L 376.447222 377.127713 
L 382.502778 377.124813 
L 388.558333 377.123167 
L 394.613889 377.118776 
L 400.669444 377.114076 
L 406.725 377.109261 
L 412.780556 377.102383 
L 418.836111 377.097553 
L 424.891667 377.091187 
L 430.947222 377.085959 
L 437.002778 377.07584 
L 443.058333 377.065384 
L 449.113889 377.056718 
L 455.169444 377.046646 
L 461.225 377.034168 
L 467.280556 377.022609 
L 473.336111 377.010626 
L 479.391667 376.995244 
L 485.447222 376.979468 
L 491.502778 376.961964 
L 497.558333 376.944172 
L 503.613889 376.925872 
L 509.669444 376.902931 
L 515.725 376.876736 
L 521.780556 376.849546 
L 527.836111 376.817247 
L 533.891667 376.784797 
L 539.947222 376.749605 
L 546.002778 376.709475 
L 552.058333 376.665353 
L 558.113889 376.615593 
L 564.169444 376.563079 
L 570.225 376.502232 
L 576.280556 376.434439 
L 582.336111 376.362752 
L 588.391667 376.282042 
L 594.447222 376.196578 
L 600.502778 376.099502 
L 606.558333 375.992758 
L 612.613889 375.875604 
L 618.669444 375.747999 
L 624.725 375.61186 
L 630.780556 375.458781 
L 636.836111 375.290371 
L 642.891667 375.105628 
L 648.947222 374.900827 
L 655.002778 374.676324 
L 661.058333 374.429955 
L 667.113889 374.159285 
L 673.169444 373.861055 
L 679.225 373.53036 
" clip-path="url(#pb736c42c1f)" style="fill: none; stroke: #bcbd22; stroke-width: 1.5; stroke-linecap: square"/>
   </g>
   <g id="line2d_41">
    <path d="M 79.725 377.152828 
L 85.780556 377.153664 
L 91.836111 377.154499 
L 97.891667 377.154274 
L 103.947222 377.153857 
L 110.002778 377.158433 
L 116.058333 377.15762 
L 122.113889 377.156129 
L 128.169444 377.158064 
L 134.225 377.160081 
L 140.280556 377.161548 
L 146.336111 377.163603 
L 152.391667 377.164453 
L 158.447222 377.16851 
L 164.502778 377.171781 
L 170.558333 377.171558 
L 176.613889 377.174861 
L 182.669444 377.175371 
L 188.725 377.177209 
L 194.780556 377.182344 
L 200.836111 377.184477 
L 206.891667 377.187906 
L 212.947222 377.192164 
L 219.002778 377.195841 
L 225.058333 377.199554 
L 231.113889 377.203305 
L 237.169444 377.206753 
L 243.225 377.211654 
L 249.280556 377.219609 
L 255.336111 377.227064 
L 261.391667 377.23035 
L 267.447222 377.237156 
L 273.502778 377.242276 
L 279.558333 377.24931 
L 285.613889 377.258705 
L 291.669444 377.268954 
L 297.725 377.280715 
L 303.780556 377.296097 
L 309.836111 377.310493 
L 315.891667 377.324614 
L 321.947222 377.34275 
L 328.002778 377.361245 
L 334.058333 377.380957 
L 340.113889 377.405173 
L 346.169444 377.431152 
L 352.225 377.460543 
L 358.280556 377.492592 
L 364.336111 377.528515 
L 370.391667 377.567473 
L 376.447222 377.606992 
L 382.502778 377.65382 
L 388.558333 377.703832 
L 394.613889 377.759751 
L 400.669444 377.818843 
L 406.725 377.883654 
L 412.780556 377.955589 
L 418.836111 378.03552 
L 424.891667 378.124217 
L 430.947222 378.223164 
L 437.002778 378.327498 
L 443.058333 378.446153 
L 449.113889 378.574626 
L 455.169444 378.715377 
L 461.225 378.872526 
L 467.280556 379.043098 
L 473.336111 379.231121 
L 479.391667 379.43656 
L 485.447222 379.665703 
L 491.502778 379.918935 
L 497.558333 380.196368 
L 503.613889 380.500516 
L 509.669444 380.835297 
L 515.725 381.204204 
L 521.780556 381.612183 
L 527.836111 382.057536 
L 533.891667 382.545266 
L 539.947222 383.083937 
L 546.002778 383.676267 
L 552.058333 384.327883 
L 558.113889 385.044913 
L 564.169444 385.832877 
L 570.225 386.700408 
L 576.280556 387.655711 
L 582.336111 388.707239 
L 588.391667 389.863133 
L 594.447222 391.133806 
L 600.502778 392.532454 
L 606.558333 394.07006 
L 612.613889 395.761246 
L 618.669444 397.620985 
L 624.725 399.666051 
L 630.780556 401.917356 
L 636.836111 404.395785 
L 642.891667 407.120672 
L 648.947222 410.117488 
L 655.002778 413.416689 
L 661.058333 417.041173 
L 667.113889 421.029898 
L 673.169444 425.417151 
L 679.225 430.241715 
" clip-path="url(#pb736c42c1f)" style="fill: none; stroke: #17becf; stroke-width: 1.5; stroke-linecap: square"/>
   </g>
   <g id="line2d_42">
    <path d="M 79.725 377.152784 
L 85.780556 377.152049 
L 91.836111 377.152224 
L 97.891667 377.152523 
L 103.947222 377.153698 
L 110.002778 377.151485 
L 116.058333 377.151986 
L 122.113889 377.150991 
L 128.169444 377.153599 
L 134.225 377.152074 
L 140.280556 377.15058 
L 146.336111 377.15031 
L 152.391667 377.15048 
L 158.447222 377.149765 
L 164.502778 377.146263 
L 170.558333 377.148237 
L 176.613889 377.146748 
L 182.669444 377.147546 
L 188.725 377.147142 
L 194.780556 377.147024 
L 200.836111 377.147155 
L 206.891667 377.146698 
L 212.947222 377.147811 
L 219.002778 377.145924 
L 225.058333 377.147909 
L 231.113889 377.146736 
L 237.169444 377.146691 
L 243.225 377.147856 
L 249.280556 377.147163 
L 255.336111 377.148931 
L 261.391667 377.148579 
L 267.447222 377.150295 
L 273.502778 377.149474 
L 279.558333 377.150563 
L 285.613889 377.15108 
L 291.669444 377.150577 
L 297.725 377.151558 
L 303.780556 377.15161 
L 309.836111 377.15376 
L 315.891667 377.153041 
L 321.947222 377.150619 
L 328.002778 377.146478 
L 334.058333 377.145807 
L 340.113889 377.144067 
L 346.169444 377.145846 
L 352.225 377.143082 
L 358.280556 377.141086 
L 364.336111 377.140703 
L 370.391667 377.137807 
L 376.447222 377.136765 
L 382.502778 377.135913 
L 388.558333 377.133633 
L 394.613889 377.133338 
L 400.669444 377.130014 
L 406.725 377.129347 
L 412.780556 377.128604 
L 418.836111 377.127584 
L 424.891667 377.124063 
L 430.947222 377.122168 
L 437.002778 377.121136 
L 443.058333 377.118933 
L 449.113889 377.115684 
L 455.169444 377.113763 
L 461.225 377.111608 
L 467.280556 377.104545 
L 473.336111 377.101049 
L 479.391667 377.096431 
L 485.447222 377.091414 
L 491.502778 377.085974 
L 497.558333 377.07849 
L 503.613889 377.069788 
L 509.669444 377.062019 
L 515.725 377.054811 
L 521.780556 377.043272 
L 527.836111 377.032549 
L 533.891667 377.018128 
L 539.947222 377.007982 
L 546.002778 376.993311 
L 552.058333 376.974696 
L 558.113889 376.957485 
L 564.169444 376.93837 
L 570.225 376.916595 
L 576.280556 376.89387 
L 582.336111 376.868518 
L 588.391667 376.840668 
L 594.447222 376.810449 
L 600.502778 376.774539 
L 606.558333 376.736143 
L 612.613889 376.694209 
L 618.669444 376.647279 
L 624.725 376.597199 
L 630.780556 376.542845 
L 636.836111 376.482808 
L 642.891667 376.415899 
L 648.947222 376.343824 
L 655.002778 376.263738 
L 661.058333 376.175666 
L 667.113889 376.07499 
L 673.169444 375.97129 
L 679.225 375.85349 
" clip-path="url(#pb736c42c1f)" style="fill: none; stroke: #1f77b4; stroke-width: 1.5; stroke-linecap: square"/>
   </g>
   <g id="line2d_43">
    <path d="M 79.725 377.149396 
L 85.780556 377.148972 
L 91.836111 377.147599 
L 97.891667 377.147027 
L 103.947222 377.147502 
L 110.002778 377.150288 
L 116.058333 377.149834 
L 122.113889 377.150745 
L 128.169444 377.151782 
L 134.225 377.15249 
L 140.280556 377.150042 
L 146.336111 377.146401 
L 152.391667 377.145541 
L 158.447222 377.145575 
L 164.502778 377.146638 
L 170.558333 377.14544 
L 176.613889 377.142233 
L 182.669444 377.141624 
L 188.725 377.14402 
L 194.780556 377.14227 
L 200.836111 377.139893 
L 206.891667 377.140975 
L 212.947222 377.139631 
L 219.002778 377.137757 
L 225.058333 377.13645 
L 231.113889 377.136044 
L 237.169444 377.133 
L 243.225 377.131693 
L 249.280556 377.13181 
L 255.336111 377.13275 
L 261.391667 377.129024 
L 267.447222 377.125852 
L 273.502778 377.123123 
L 279.558333 377.120881 
L 285.613889 377.118542 
L 291.669444 377.116756 
L 297.725 377.113864 
L 303.780556 377.113111 
L 309.836111 377.110293 
L 315.891667 377.106582 
L 321.947222 377.101175 
L 328.002778 377.096162 
L 334.058333 377.089448 
L 340.113889 377.081265 
L 346.169444 377.072682 
L 352.225 377.064085 
L 358.280556 377.055289 
L 364.336111 377.047041 
L 370.391667 377.035493 
L 376.447222 377.021439 
L 382.502778 377.007903 
L 388.558333 376.990749 
L 394.613889 376.97683 
L 400.669444 376.960985 
L 406.725 376.940666 
L 412.780556 376.919164 
L 418.836111 376.894004 
L 424.891667 376.868239 
L 430.947222 376.841123 
L 437.002778 376.810355 
L 443.058333 376.778406 
L 449.113889 376.742682 
L 455.169444 376.700364 
L 461.225 376.653958 
L 467.280556 376.603644 
L 473.336111 376.551296 
L 479.391667 376.491753 
L 485.447222 376.427502 
L 491.502778 376.353373 
L 497.558333 376.274361 
L 503.613889 376.188171 
L 509.669444 376.091758 
L 515.725 375.986666 
L 521.780556 375.868012 
L 527.836111 375.740682 
L 533.891667 375.601574 
L 539.947222 375.44964 
L 546.002778 375.27946 
L 552.058333 375.093027 
L 558.113889 374.889196 
L 564.169444 374.661218 
L 570.225 374.411193 
L 576.280556 374.137165 
L 582.336111 373.833732 
L 588.391667 373.500964 
L 594.447222 373.137056 
L 600.502778 372.737069 
L 606.558333 372.294412 
L 612.613889 371.808095 
L 618.669444 371.273473 
L 624.725 370.686849 
L 630.780556 370.039472 
L 636.836111 369.329318 
L 642.891667 368.547209 
L 648.947222 367.684661 
L 655.002778 366.73889 
L 661.058333 365.699853 
L 667.113889 364.556165 
L 673.169444 363.295163 
L 679.225 361.909126 
" clip-path="url(#pb736c42c1f)" style="fill: none; stroke: #ff7f0e; stroke-width: 1.5; stroke-linecap: square"/>
   </g>
   <g id="line2d_44">
    <path d="M 79.725 377.152063 
L 85.780556 377.152813 
L 91.836111 377.152209 
L 97.891667 377.153463 
L 103.947222 377.153182 
L 110.002778 377.154364 
L 116.058333 377.155904 
L 122.113889 377.157223 
L 128.169444 377.158298 
L 134.225 377.15901 
L 140.280556 377.159385 
L 146.336111 377.165439 
L 152.391667 377.167957 
L 158.447222 377.170128 
L 164.502778 377.169789 
L 170.558333 377.173133 
L 176.613889 377.175024 
L 182.669444 377.175189 
L 188.725 377.179408 
L 194.780556 377.181595 
L 200.836111 377.18572 
L 206.891667 377.18983 
L 212.947222 377.19478 
L 219.002778 377.200123 
L 225.058333 377.201033 
L 231.113889 377.204734 
L 237.169444 377.208436 
L 243.225 377.213384 
L 249.280556 377.221845 
L 255.336111 377.228273 
L 261.391667 377.23437 
L 267.447222 377.243847 
L 273.502778 377.251655 
L 279.558333 377.26062 
L 285.613889 377.268831 
L 291.669444 377.281127 
L 297.725 377.295631 
L 303.780556 377.310526 
L 309.836111 377.324327 
L 315.891667 377.344201 
L 321.947222 377.366408 
L 328.002778 377.387732 
L 334.058333 377.411954 
L 340.113889 377.437951 
L 346.169444 377.465199 
L 352.225 377.497325 
L 358.280556 377.534563 
L 364.336111 377.569892 
L 370.391667 377.613128 
L 376.447222 377.660776 
L 382.502778 377.710078 
L 388.558333 377.766451 
L 394.613889 377.828 
L 400.669444 377.894918 
L 406.725 377.967663 
L 412.780556 378.049722 
L 418.836111 378.13732 
L 424.891667 378.238936 
L 430.947222 378.346549 
L 437.002778 378.467223 
L 443.058333 378.596785 
L 449.113889 378.741071 
L 455.169444 378.900958 
L 461.225 379.074913 
L 467.280556 379.265932 
L 473.336111 379.476415 
L 479.391667 379.710349 
L 485.447222 379.966892 
L 491.502778 380.2484 
L 497.558333 380.558111 
L 503.613889 380.897656 
L 509.669444 381.275132 
L 515.725 381.686976 
L 521.780556 382.140903 
L 527.836111 382.641012 
L 533.891667 383.190993 
L 539.947222 383.795213 
L 546.002778 384.464725 
L 552.058333 385.197018 
L 558.113889 386.002792 
L 564.169444 386.887117 
L 570.225 387.861799 
L 576.280556 388.933101 
L 582.336111 390.109005 
L 588.391667 391.403288 
L 594.447222 392.827132 
L 600.502778 394.395376 
L 606.558333 396.118945 
L 612.613889 398.015988 
L 618.669444 400.102681 
L 624.725 402.397172 
L 630.780556 404.92256 
L 636.836111 407.697481 
L 642.891667 410.752272 
L 648.947222 414.111422 
L 655.002778 417.805284 
L 661.058333 421.869141 
L 667.113889 426.342893 
L 673.169444 431.261355 
L 679.225 436.671079 
" clip-path="url(#pb736c42c1f)" style="fill: none; stroke: #2ca02c; stroke-width: 1.5; stroke-linecap: square"/>
   </g>
   <g id="line2d_45">
    <path d="M 79.725 377.150595 
L 85.780556 377.152068 
L 91.836111 377.153031 
L 97.891667 377.151717 
L 103.947222 377.152796 
L 110.002778 377.153319 
L 116.058333 377.151197 
L 122.113889 377.151198 
L 128.169444 377.152175 
L 134.225 377.153466 
L 140.280556 377.153147 
L 146.336111 377.155191 
L 152.391667 377.155878 
L 158.447222 377.155799 
L 164.502778 377.154323 
L 170.558333 377.153607 
L 176.613889 377.154807 
L 182.669444 377.153405 
L 188.725 377.153989 
L 194.780556 377.155977 
L 200.836111 377.156634 
L 206.891667 377.155042 
L 212.947222 377.155121 
L 219.002778 377.155427 
L 225.058333 377.153428 
L 231.113889 377.155641 
L 237.169444 377.157866 
L 243.225 377.160789 
L 249.280556 377.161144 
L 255.336111 377.161831 
L 261.391667 377.160608 
L 267.447222 377.161131 
L 273.502778 377.162638 
L 279.558333 377.163711 
L 285.613889 377.164725 
L 291.669444 377.168414 
L 297.725 377.16617 
L 303.780556 377.166852 
L 309.836111 377.168047 
L 315.891667 377.16878 
L 321.947222 377.16945 
L 328.002778 377.171409 
L 334.058333 377.17427 
L 340.113889 377.175647 
L 346.169444 377.177469 
L 352.225 377.181193 
L 358.280556 377.182084 
L 364.336111 377.184683 
L 370.391667 377.186914 
L 376.447222 377.188416 
L 382.502778 377.192038 
L 388.558333 377.195599 
L 394.613889 377.198806 
L 400.669444 377.204541 
L 406.725 377.20973 
L 412.780556 377.215335 
L 418.836111 377.223055 
L 424.891667 377.22684 
L 430.947222 377.23636 
L 437.002778 377.246675 
L 443.058333 377.254265 
L 449.113889 377.263478 
L 455.169444 377.276113 
L 461.225 377.287664 
L 467.280556 377.299132 
L 473.336111 377.313901 
L 479.391667 377.326366 
L 485.447222 377.346294 
L 491.502778 377.364738 
L 497.558333 377.384346 
L 503.613889 377.406311 
L 509.669444 377.432048 
L 515.725 377.460483 
L 521.780556 377.490705 
L 527.836111 377.523415 
L 533.891667 377.559702 
L 539.947222 377.598989 
L 546.002778 377.645165 
L 552.058333 377.694822 
L 558.113889 377.750468 
L 564.169444 377.810882 
L 570.225 377.875323 
L 576.280556 377.947512 
L 582.336111 378.023327 
L 588.391667 378.110194 
L 594.447222 378.205939 
L 600.502778 378.311193 
L 606.558333 378.428041 
L 612.613889 378.555741 
L 618.669444 378.694506 
L 624.725 378.848605 
L 630.780556 379.019418 
L 636.836111 379.207503 
L 642.891667 379.413713 
L 648.947222 379.63979 
L 655.002778 379.886865 
L 661.058333 380.162291 
L 667.113889 380.463792 
L 673.169444 380.794776 
L 679.225 381.161703 
" clip-path="url(#pb736c42c1f)" style="fill: none; stroke: #d62728; stroke-width: 1.5; stroke-linecap: square"/>
   </g>
   <g id="line2d_46">
    <path d="M 79.725 377.153076 
L 85.780556 377.154174 
L 91.836111 377.155548 
L 97.891667 377.155639 
L 103.947222 377.156246 
L 110.002778 377.157482 
L 116.058333 377.157427 
L 122.113889 377.155504 
L 128.169444 377.153509 
L 134.225 377.156437 
L 140.280556 377.156063 
L 146.336111 377.156738 
L 152.391667 377.157001 
L 158.447222 377.158086 
L 164.502778 377.158538 
L 170.558333 377.158986 
L 176.613889 377.160529 
L 182.669444 377.162683 
L 188.725 377.164409 
L 194.780556 377.165326 
L 200.836111 377.165809 
L 206.891667 377.165975 
L 212.947222 377.168095 
L 219.002778 377.169309 
L 225.058333 377.169668 
L 231.113889 377.169771 
L 237.169444 377.171645 
L 243.225 377.173939 
L 249.280556 377.175871 
L 255.336111 377.179923 
L 261.391667 377.183006 
L 267.447222 377.185049 
L 273.502778 377.187443 
L 279.558333 377.191388 
L 285.613889 377.195026 
L 291.669444 377.200526 
L 297.725 377.20438 
L 303.780556 377.209742 
L 309.836111 377.215925 
L 315.891667 377.22285 
L 321.947222 377.230038 
L 328.002778 377.238498 
L 334.058333 377.246213 
L 340.113889 377.256215 
L 346.169444 377.264359 
L 352.225 377.2735 
L 358.280556 377.286944 
L 364.336111 377.30035 
L 370.391667 377.316133 
L 376.447222 377.333029 
L 382.502778 377.348264 
L 388.558333 377.368345 
L 394.613889 377.389474 
L 400.669444 377.412455 
L 406.725 377.439952 
L 412.780556 377.469989 
L 418.836111 377.503534 
L 424.891667 377.539974 
L 430.947222 377.582882 
L 437.002778 377.625199 
L 443.058333 377.669578 
L 449.113889 377.721135 
L 455.169444 377.780098 
L 461.225 377.843844 
L 467.280556 377.9137 
L 473.336111 377.991346 
L 479.391667 378.074056 
L 485.447222 378.165109 
L 491.502778 378.268093 
L 497.558333 378.378672 
L 503.613889 378.499156 
L 509.669444 378.631148 
L 515.725 378.774955 
L 521.780556 378.93856 
L 527.836111 379.113166 
L 533.891667 379.309805 
L 539.947222 379.526449 
L 546.002778 379.763436 
L 552.058333 380.025429 
L 558.113889 380.31221 
L 564.169444 380.630142 
L 570.225 380.978312 
L 576.280556 381.359107 
L 582.336111 381.779912 
L 588.391667 382.242511 
L 594.447222 382.750891 
L 600.502778 383.309109 
L 606.558333 383.927213 
L 612.613889 384.603906 
L 618.669444 385.349494 
L 624.725 386.169016 
L 630.780556 387.069206 
L 636.836111 388.062656 
L 642.891667 389.15519 
L 648.947222 390.358304 
L 655.002778 391.679737 
L 661.058333 393.130609 
L 667.113889 394.728656 
L 673.169444 396.488261 
L 679.225 398.422598 
" clip-path="url(#pb736c42c1f)" style="fill: none; stroke: #9467bd; stroke-width: 1.5; stroke-linecap: square"/>
   </g>
   <g id="line2d_47">
    <path d="M 79.725 377.154017 
L 85.780556 377.155849 
L 91.836111 377.155687 
L 97.891667 377.157756 
L 103.947222 377.156744 
L 110.002778 377.157333 
L 116.058333 377.157755 
L 122.113889 377.158743 
L 128.169444 377.158319 
L 134.225 377.157837 
L 140.280556 377.157951 
L 146.336111 377.157746 
L 152.391667 377.158638 
L 158.447222 377.158534 
L 164.502778 377.159685 
L 170.558333 377.160463 
L 176.613889 377.161717 
L 182.669444 377.163358 
L 188.725 377.165497 
L 194.780556 377.166186 
L 200.836111 377.165733 
L 206.891667 377.165434 
L 212.947222 377.168597 
L 219.002778 377.168415 
L 225.058333 377.170526 
L 231.113889 377.171527 
L 237.169444 377.174795 
L 243.225 377.176883 
L 249.280556 377.178932 
L 255.336111 377.183772 
L 261.391667 377.186087 
L 267.447222 377.187573 
L 273.502778 377.191393 
L 279.558333 377.193389 
L 285.613889 377.197813 
L 291.669444 377.201185 
L 297.725 377.209306 
L 303.780556 377.21157 
L 309.836111 377.215389 
L 315.891667 377.22215 
L 321.947222 377.232013 
L 328.002778 377.239612 
L 334.058333 377.250462 
L 340.113889 377.259681 
L 346.169444 377.269869 
L 352.225 377.283022 
L 358.280556 377.294525 
L 364.336111 377.307631 
L 370.391667 377.321803 
L 376.447222 377.338783 
L 382.502778 377.359509 
L 388.558333 377.378866 
L 394.613889 377.401953 
L 400.669444 377.428959 
L 406.725 377.454723 
L 412.780556 377.481989 
L 418.836111 377.515059 
L 424.891667 377.548273 
L 430.947222 377.587781 
L 437.002778 377.631918 
L 443.058333 377.680829 
L 449.113889 377.73137 
L 455.169444 377.790441 
L 461.225 377.85324 
L 467.280556 377.924181 
L 473.336111 378.002073 
L 479.391667 378.085611 
L 485.447222 378.179531 
L 491.502778 378.282878 
L 497.558333 378.394349 
L 503.613889 378.516299 
L 509.669444 378.651814 
L 515.725 378.80275 
L 521.780556 378.968571 
L 527.836111 379.150126 
L 533.891667 379.349489 
L 539.947222 379.570671 
L 546.002778 379.81151 
L 552.058333 380.07735 
L 558.113889 380.372365 
L 564.169444 380.69575 
L 570.225 381.050862 
L 576.280556 381.440865 
L 582.336111 381.867047 
L 588.391667 382.338221 
L 594.447222 382.858065 
L 600.502778 383.428366 
L 606.558333 384.056521 
L 612.613889 384.746519 
L 618.669444 385.505148 
L 624.725 386.338736 
L 630.780556 387.257457 
L 636.836111 388.265658 
L 642.891667 389.37573 
L 648.947222 390.599133 
L 655.002778 391.940681 
L 661.058333 393.419091 
L 667.113889 395.047013 
L 673.169444 396.83415 
L 679.225 398.799389 
" clip-path="url(#pb736c42c1f)" style="fill: none; stroke: #8c564b; stroke-width: 1.5; stroke-linecap: square"/>
   </g>
   <g id="line2d_48">
    <path d="M 79.725 377.151925 
L 85.780556 377.152654 
L 91.836111 377.152979 
L 97.891667 377.152062 
L 103.947222 377.150243 
L 110.002778 377.149259 
L 116.058333 377.148851 
L 122.113889 377.146394 
L 128.169444 377.146295 
L 134.225 377.144255 
L 140.280556 377.143907 
L 146.336111 377.14249 
L 152.391667 377.141714 
L 158.447222 377.140778 
L 164.502778 377.140211 
L 170.558333 377.137111 
L 176.613889 377.136688 
L 182.669444 377.136233 
L 188.725 377.131619 
L 194.780556 377.128187 
L 200.836111 377.129248 
L 206.891667 377.127797 
L 212.947222 377.127995 
L 219.002778 377.126974 
L 225.058333 377.128997 
L 231.113889 377.126906 
L 237.169444 377.126051 
L 243.225 377.123382 
L 249.280556 377.12287 
L 255.336111 377.11985 
L 261.391667 377.117243 
L 267.447222 377.11162 
L 273.502778 377.105565 
L 279.558333 377.099804 
L 285.613889 377.095067 
L 291.669444 377.086531 
L 297.725 377.082229 
L 303.780556 377.077283 
L 309.836111 377.069944 
L 315.891667 377.058509 
L 321.947222 377.049463 
L 328.002778 377.039485 
L 334.058333 377.03032 
L 340.113889 377.016803 
L 346.169444 377.001925 
L 352.225 376.985795 
L 358.280556 376.970092 
L 364.336111 376.95293 
L 370.391667 376.934895 
L 376.447222 376.913076 
L 382.502778 376.890749 
L 388.558333 376.866329 
L 394.613889 376.838384 
L 400.669444 376.807738 
L 406.725 376.774098 
L 412.780556 376.735649 
L 418.836111 376.693913 
L 424.891667 376.64853 
L 430.947222 376.597933 
L 437.002778 376.543964 
L 443.058333 376.483021 
L 449.113889 376.415919 
L 455.169444 376.344484 
L 461.225 376.262313 
L 467.280556 376.174624 
L 473.336111 376.076769 
L 479.391667 375.967584 
L 485.447222 375.847824 
L 491.502778 375.717369 
L 497.558333 375.574439 
L 503.613889 375.415333 
L 509.669444 375.240708 
L 515.725 375.05048 
L 521.780556 374.841484 
L 527.836111 374.613424 
L 533.891667 374.359358 
L 539.947222 374.080225 
L 546.002778 373.771425 
L 552.058333 373.432864 
L 558.113889 373.059044 
L 564.169444 372.650763 
L 570.225 372.199015 
L 576.280556 371.70449 
L 582.336111 371.158633 
L 588.391667 370.561406 
L 594.447222 369.902021 
L 600.502778 369.179889 
L 606.558333 368.383074 
L 612.613889 367.505561 
L 618.669444 366.541678 
L 624.725 365.482169 
L 630.780556 364.313981 
L 636.836111 363.030341 
L 642.891667 361.618891 
L 648.947222 360.065532 
L 655.002778 358.353106 
L 661.058333 356.47157 
L 667.113889 354.401867 
L 673.169444 352.12624 
L 679.225 349.623437 
" clip-path="url(#pb736c42c1f)" style="fill: none; stroke: #e377c2; stroke-width: 1.5; stroke-linecap: square"/>
   </g>
   <g id="line2d_49">
    <path d="M 79.725 377.155323 
L 85.780556 377.156644 
L 91.836111 377.157812 
L 97.891667 377.161101 
L 103.947222 377.163688 
L 110.002778 377.167718 
L 116.058333 377.169357 
L 122.113889 377.169927 
L 128.169444 377.170141 
L 134.225 377.171371 
L 140.280556 377.174705 
L 146.336111 377.179767 
L 152.391667 377.185082 
L 158.447222 377.190227 
L 164.502778 377.19534 
L 170.558333 377.199916 
L 176.613889 377.206179 
L 182.669444 377.211121 
L 188.725 377.21738 
L 194.780556 377.223915 
L 200.836111 377.229479 
L 206.891667 377.238936 
L 212.947222 377.24704 
L 219.002778 377.256576 
L 225.058333 377.267526 
L 231.113889 377.277817 
L 237.169444 377.289147 
L 243.225 377.304235 
L 249.280556 377.319733 
L 255.336111 377.336114 
L 261.391667 377.354931 
L 267.447222 377.374395 
L 273.502778 377.396242 
L 279.558333 377.418043 
L 285.613889 377.44686 
L 291.669444 377.476535 
L 297.725 377.510307 
L 303.780556 377.545281 
L 309.836111 377.586947 
L 315.891667 377.629956 
L 321.947222 377.67867 
L 328.002778 377.732405 
L 334.058333 377.792538 
L 340.113889 377.857272 
L 346.169444 377.926252 
L 352.225 378.003726 
L 358.280556 378.088008 
L 364.336111 378.179228 
L 370.391667 378.281583 
L 376.447222 378.395358 
L 382.502778 378.519034 
L 388.558333 378.656532 
L 394.613889 378.807723 
L 400.669444 378.975493 
L 406.725 379.156523 
L 412.780556 379.357542 
L 418.836111 379.577847 
L 424.891667 379.821933 
L 430.947222 380.088312 
L 437.002778 380.383051 
L 443.058333 380.706372 
L 449.113889 381.06056 
L 455.169444 381.450291 
L 461.225 381.880164 
L 467.280556 382.355535 
L 473.336111 382.871597 
L 479.391667 383.441058 
L 485.447222 384.068937 
L 491.502778 384.761726 
L 497.558333 385.522874 
L 503.613889 386.360755 
L 509.669444 387.279826 
L 515.725 388.292243 
L 521.780556 389.407407 
L 527.836111 390.633637 
L 533.891667 391.980201 
L 539.947222 393.460732 
L 546.002778 395.08942 
L 552.058333 396.882086 
L 558.113889 398.85547 
L 564.169444 401.030491 
L 570.225 403.417925 
L 576.280556 406.044532 
L 582.336111 408.933596 
L 588.391667 412.11169 
L 594.447222 415.609579 
L 600.502778 419.454547 
L 606.558333 423.683905 
L 612.613889 428.336127 
L 618.669444 433.453191 
L 624.725 439.082453 
L 630.780556 445.276101 
L 636.836111 452.088625 
L 642.891667 459.582168 
L 648.947222 467.825043 
L 655.002778 476.890924 
L 661.058333 486.863903 
L 667.113889 497.832118 
L 673.169444 509.896969 
L 679.225 523.171364 
" clip-path="url(#pb736c42c1f)" style="fill: none; stroke: #7f7f7f; stroke-width: 1.5; stroke-linecap: square"/>
   </g>
   <g id="line2d_50">
    <path d="M 79.725 377.157395 
L 85.780556 377.156168 
L 91.836111 377.157374 
L 97.891667 377.159076 
L 103.947222 377.160369 
L 110.002778 377.16186 
L 116.058333 377.161978 
L 122.113889 377.165231 
L 128.169444 377.168116 
L 134.225 377.169246 
L 140.280556 377.170087 
L 146.336111 377.170986 
L 152.391667 377.174028 
L 158.447222 377.17765 
L 164.502778 377.180956 
L 170.558333 377.183519 
L 176.613889 377.184547 
L 182.669444 377.190758 
L 188.725 377.194964 
L 194.780556 377.201189 
L 200.836111 377.208496 
L 206.891667 377.212767 
L 212.947222 377.218073 
L 219.002778 377.224046 
L 225.058333 377.229939 
L 231.113889 377.238435 
L 237.169444 377.247713 
L 243.225 377.254153 
L 249.280556 377.264735 
L 255.336111 377.274964 
L 261.391667 377.287263 
L 267.447222 377.30346 
L 273.502778 377.321558 
L 279.558333 377.339359 
L 285.613889 377.356588 
L 291.669444 377.375926 
L 297.725 377.397016 
L 303.780556 377.422949 
L 309.836111 377.447733 
L 315.891667 377.478706 
L 321.947222 377.511083 
L 328.002778 377.547018 
L 334.058333 377.586782 
L 340.113889 377.628348 
L 346.169444 377.677009 
L 352.225 377.731463 
L 358.280556 377.789393 
L 364.336111 377.853719 
L 370.391667 377.919047 
L 376.447222 377.994791 
L 382.502778 378.079671 
L 388.558333 378.173969 
L 394.613889 378.278882 
L 400.669444 378.393057 
L 406.725 378.517009 
L 412.780556 378.65147 
L 418.836111 378.799816 
L 424.891667 378.96428 
L 430.947222 379.145985 
L 437.002778 379.34501 
L 443.058333 379.565069 
L 449.113889 379.803917 
L 455.169444 380.069393 
L 461.225 380.361268 
L 467.280556 380.685394 
L 473.336111 381.039027 
L 479.391667 381.426539 
L 485.447222 381.85554 
L 491.502778 382.326986 
L 497.558333 382.843357 
L 503.613889 383.414628 
L 509.669444 384.039382 
L 515.725 384.728898 
L 521.780556 385.487159 
L 527.836111 386.322303 
L 533.891667 387.238802 
L 539.947222 388.243957 
L 546.002778 389.352041 
L 552.058333 390.573301 
L 558.113889 391.91381 
L 564.169444 393.390458 
L 570.225 395.01234 
L 576.280556 396.797226 
L 582.336111 398.765993 
L 588.391667 400.928849 
L 594.447222 403.305188 
L 600.502778 405.920301 
L 606.558333 408.798616 
L 612.613889 411.9642 
L 618.669444 415.448174 
L 624.725 419.277931 
L 630.780556 423.487357 
L 636.836111 428.119747 
L 642.891667 433.213385 
L 648.947222 438.818266 
L 655.002778 444.983428 
L 661.058333 451.763744 
L 667.113889 459.224388 
L 673.169444 467.431908 
L 679.225 476.458427 
" clip-path="url(#pb736c42c1f)" style="fill: none; stroke: #bcbd22; stroke-width: 1.5; stroke-linecap: square"/>
   </g>
   <g id="line2d_51">
    <path d="M 79.725 377.149787 
L 85.780556 377.150268 
L 91.836111 377.151145 
L 97.891667 377.150872 
L 103.947222 377.149575 
L 110.002778 377.148197 
L 116.058333 377.149877 
L 122.113889 377.146928 
L 128.169444 377.147356 
L 134.225 377.147285 
L 140.280556 377.148123 
L 146.336111 377.143868 
L 152.391667 377.142719 
L 158.447222 377.143026 
L 164.502778 377.140899 
L 170.558333 377.138695 
L 176.613889 377.137647 
L 182.669444 377.135015 
L 188.725 377.134516 
L 194.780556 377.133488 
L 200.836111 377.13454 
L 206.891667 377.13471 
L 212.947222 377.130394 
L 219.002778 377.125885 
L 225.058333 377.123191 
L 231.113889 377.117931 
L 237.169444 377.114767 
L 243.225 377.111406 
L 249.280556 377.107278 
L 255.336111 377.102997 
L 261.391667 377.098419 
L 267.447222 377.091429 
L 273.502778 377.085168 
L 279.558333 377.077472 
L 285.613889 377.068549 
L 291.669444 377.059657 
L 297.725 377.051831 
L 303.780556 377.043771 
L 309.836111 377.032747 
L 315.891667 377.02108 
L 321.947222 377.007875 
L 328.002778 376.993498 
L 334.058333 376.973944 
L 340.113889 376.958064 
L 346.169444 376.941544 
L 352.225 376.920033 
L 358.280556 376.89739 
L 364.336111 376.871486 
L 370.391667 376.842608 
L 376.447222 376.809834 
L 382.502778 376.777797 
L 388.558333 376.74119 
L 394.613889 376.699504 
L 400.669444 376.653159 
L 406.725 376.600133 
L 412.780556 376.543584 
L 418.836111 376.482837 
L 424.891667 376.417213 
L 430.947222 376.344558 
L 437.002778 376.264678 
L 443.058333 376.175016 
L 449.113889 376.07696 
L 455.169444 375.971372 
L 461.225 375.853948 
L 467.280556 375.722894 
L 473.336111 375.57949 
L 479.391667 375.421433 
L 485.447222 375.247838 
L 491.502778 375.055095 
L 497.558333 374.845078 
L 503.613889 374.614953 
L 509.669444 374.362577 
L 515.725 374.083288 
L 521.780556 373.779939 
L 527.836111 373.44301 
L 533.891667 373.072419 
L 539.947222 372.666436 
L 546.002778 372.219226 
L 552.058333 371.724797 
L 558.113889 371.181757 
L 564.169444 370.584599 
L 570.225 369.92743 
L 576.280556 369.204852 
L 582.336111 368.408363 
L 588.391667 367.533834 
L 594.447222 366.574126 
L 600.502778 365.514007 
L 606.558333 364.349687 
L 612.613889 363.070316 
L 618.669444 361.663962 
L 624.725 360.114601 
L 630.780556 358.411042 
L 636.836111 356.534695 
L 642.891667 354.473474 
L 648.947222 352.206838 
L 655.002778 349.711045 
L 661.058333 346.965632 
L 667.113889 343.946765 
L 673.169444 340.625281 
L 679.225 336.972675 
" clip-path="url(#pb736c42c1f)" style="fill: none; stroke: #17becf; stroke-width: 1.5; stroke-linecap: square"/>
   </g>
   <g id="patch_9">
    <path d="M 49.75 534.04 
L 49.75 294.93 
" style="fill: none; stroke: #000000; stroke-width: 0.8; stroke-linejoin: miter; stroke-linecap: square"/>
   </g>
   <g id="patch_10">
    <path d="M 709.2 534.04 
L 709.2 294.93 
" style="fill: none; stroke: #000000; stroke-width: 0.8; stroke-linejoin: miter; stroke-linecap: square"/>
   </g>
   <g id="patch_11">
    <path d="M 49.75 534.04 
L 709.2 534.04 
" style="fill: none; stroke: #000000; stroke-width: 0.8; stroke-linejoin: miter; stroke-linecap: square"/>
   </g>
   <g id="patch_12">
    <path d="M 49.75 294.93 
L 709.2 294.93 
" style="fill: none; stroke: #000000; stroke-width: 0.8; stroke-linejoin: miter; stroke-linecap: square"/>
   </g>
   <g id="text_28">
    <!-- Five Realizations of AR(1) Process with ϕ=1.1 -->
    <g transform="translate(243.491563 288.93) scale(0.12 -0.12)">
     <defs>
      <path id="DejaVuSans-46" d="M 628 4666 
L 3309 4666 
L 3309 4134 
L 1259 4134 
L 1259 2759 
L 3109 2759 
L 3109 2228 
L 1259 2228 
L 1259 0 
L 628 0 
L 628 4666 
z
" transform="scale(0.015625)"/>
      <path id="DejaVuSans-76" d="M 191 3500 
L 800 3500 
L 1894 563 
L 2988 3500 
L 3597 3500 
L 2284 0 
L 1503 0 
L 191 3500 
z
" transform="scale(0.015625)"/>
     </defs>
     <use xlink:href="#DejaVuSans-46"/>
     <use xlink:href="#DejaVuSans-69" x="50.269531"/>
     <use xlink:href="#DejaVuSans-76" x="78.052734"/>
     <use xlink:href="#DejaVuSans-65" x="137.232422"/>
     <use xlink:href="#DejaVuSans-20" x="198.755859"/>
     <use xlink:href="#DejaVuSans-52" x="230.542969"/>
     <use xlink:href="#DejaVuSans-65" x="295.525391"/>
     <use xlink:href="#DejaVuSans-61" x="357.048828"/>
     <use xlink:href="#DejaVuSans-6c" x="418.328125"/>
     <use xlink:href="#DejaVuSans-69" x="446.111328"/>
     <use xlink:href="#DejaVuSans-7a" x="473.894531"/>
     <use xlink:href="#DejaVuSans-61" x="526.384766"/>
     <use xlink:href="#DejaVuSans-74" x="587.664062"/>
     <use xlink:href="#DejaVuSans-69" x="626.873047"/>
     <use xlink:href="#DejaVuSans-6f" x="654.65625"/>
     <use xlink:href="#DejaVuSans-6e" x="715.837891"/>
     <use xlink:href="#DejaVuSans-73" x="779.216797"/>
     <use xlink:href="#DejaVuSans-20" x="831.316406"/>
     <use xlink:href="#DejaVuSans-6f" x="863.103516"/>
     <use xlink:href="#DejaVuSans-66" x="924.285156"/>
     <use xlink:href="#DejaVuSans-20" x="959.490234"/>
     <use xlink:href="#DejaVuSans-41" x="991.277344"/>
     <use xlink:href="#DejaVuSans-52" x="1059.685547"/>
     <use xlink:href="#DejaVuSans-28" x="1129.167969"/>
     <use xlink:href="#DejaVuSans-31" x="1168.181641"/>
     <use xlink:href="#DejaVuSans-29" x="1231.804688"/>
     <use xlink:href="#DejaVuSans-20" x="1270.818359"/>
     <use xlink:href="#DejaVuSans-50" x="1302.605469"/>
     <use xlink:href="#DejaVuSans-72" x="1361.158203"/>
     <use xlink:href="#DejaVuSans-6f" x="1400.021484"/>
     <use xlink:href="#DejaVuSans-63" x="1461.203125"/>
     <use xlink:href="#DejaVuSans-65" x="1516.183594"/>
     <use xlink:href="#DejaVuSans-73" x="1577.707031"/>
     <use xlink:href="#DejaVuSans-73" x="1629.806641"/>
     <use xlink:href="#DejaVuSans-20" x="1681.90625"/>
     <use xlink:href="#DejaVuSans-77" x="1713.693359"/>
     <use xlink:href="#DejaVuSans-69" x="1795.480469"/>
     <use xlink:href="#DejaVuSans-74" x="1823.263672"/>
     <use xlink:href="#DejaVuSans-68" x="1862.472656"/>
     <use xlink:href="#DejaVuSans-20" x="1925.851562"/>
     <use xlink:href="#DejaVuSans-3d5" x="1957.638672"/>
     <use xlink:href="#DejaVuSans-3d" x="2023.605469"/>
     <use xlink:href="#DejaVuSans-31" x="2107.394531"/>
     <use xlink:href="#DejaVuSans-2e" x="2171.017578"/>
     <use xlink:href="#DejaVuSans-31" x="2202.804688"/>
    </g>
   </g>
  </g>
 </g>
 <defs>
  <clipPath id="pf1e4e55938">
   <rect x="49.75" y="26.16" width="659.45" height="239.11"/>
  </clipPath>
  <clipPath id="pb736c42c1f">
   <rect x="49.75" y="294.93" width="659.45" height="239.11"/>
  </clipPath>
 </defs>
</svg>
